<svg width="100%" viewBox="0 0 450 450" fill="none" xmlns="http://www.w3.org/2000/svg">
<path fill-rule="evenodd" clip-rule="evenodd" d="M31 82.2517C89.4995 110.643 154.995 126.528 224.146 126.528C294.128 126.528 360.36 110.26 419.386 81.2298C413.605 70.0272 408.071 58.5404 402.784 46.7695C395.937 31.6105 389.52 16.0207 383.534 0C334.01 14.784 280.275 22.871 224.138 22.871H223.102C168.031 22.779 115.276 14.8815 66.5549 0.519253C60.5985 16.6431 54.2398 32.3188 47.4788 47.5465C42.2194 59.3997 36.7265 70.9681 31 82.2517ZM224.146 288.264C154.995 288.264 89.4995 272.379 31 243.988C36.7265 232.704 42.2194 221.136 47.4788 209.282C54.2398 194.055 60.5985 178.379 66.5549 162.255C115.276 176.617 168.031 184.515 223.102 184.607H224.138C280.275 184.607 334.01 176.52 383.534 161.736C389.52 177.757 395.937 193.346 402.784 208.505C408.071 220.276 413.605 231.763 419.386 242.966C360.36 271.996 294.128 288.264 224.146 288.264ZM224.146 450C154.995 450 89.4995 434.115 31 405.724C36.7265 394.44 42.2194 382.872 47.4788 371.018C54.2398 355.791 60.5985 340.115 66.5549 323.991C115.276 338.353 168.031 346.251 223.102 346.343H224.138C280.275 346.343 334.01 338.256 383.534 323.472C389.52 339.493 395.937 355.082 402.784 370.241C408.071 382.012 413.605 393.499 419.386 404.702C360.36 433.732 294.128 450 224.146 450Z" fill="white"/>
</svg>
