<svg width="100%" viewBox="0 0 450 450" fill="#FFFFFF" xmlns="http://www.w3.org/2000/svg">
<path d="M441.434 0.156795C383.719 1.29728 324.446 16.4942 280.352 60.859C252.155 89.1116 232.918 125.139 225.075 164.386C217.24 125.136 198.002 89.1069 169.799 60.859C127.732 18.5328 71.2221 1.53966 16.5408 0.0998026C13.9612 0.0998026 11.3817 0 8.81631 0H0.000444948V25.561C0.000444948 28.9255 0.0712017 32.2899 0.241284 35.6543C2.60826 85.0515 22.2811 134.833 59.2597 172.027C98.4352 211.431 173.611 231.304 224.948 231.618H225.146C276.582 231.304 351.645 211.445 390.849 172.013C428.678 133.978 448.379 82.742 449.995 32.3041V0.156795H441.434Z" fill="white"/>
<path d="M8.56083 449.843C66.2753 448.703 125.549 433.506 169.643 389.141C197.84 360.888 217.076 324.861 224.919 285.614C232.755 324.864 251.992 360.893 280.196 389.141C322.263 431.467 378.772 448.46 433.454 449.9C436.033 449.9 438.613 450 441.178 450H449.994V424.439C449.994 421.075 449.923 417.71 449.753 414.346C447.386 364.949 427.714 315.167 390.735 277.973C351.559 238.569 276.383 218.696 225.047 218.382H224.848C173.413 218.696 98.3498 238.555 59.146 277.987C21.3169 316.022 1.61579 367.258 2.81037e-06 417.696L0 449.843H8.56083Z" fill="white"/>
</svg>
