<svg width="100%" viewBox="0 0 450 450" fill="#FFFFFF" xmlns="http://www.w3.org/2000/svg">
<path fill-rule="evenodd" clip-rule="evenodd" d="M0 399H349.228L349.228 399L450 399L450 298.987C436.766 298.987 423.661 301.574 411.434 306.601C399.207 311.627 388.098 318.994 378.74 328.281C369.383 337.568 361.96 348.593 356.896 360.727C351.865 372.783 349.26 385.699 349.228 398.746L349.228 52C303.364 52 257.95 60.9758 215.578 78.4144C173.206 95.8531 134.707 121.413 102.277 153.636C69.8483 185.858 44.1249 224.111 26.5761 266.211C9.02727 308.311 -0.00336915 353.433 0 399Z" fill="white"/>
</svg>
