<svg width="100%" viewBox="0 0 450 450" fill="#FFFFFF" xmlns="http://www.w3.org/2000/svg">
<path d="M401.301 85.1161C395.326 77.0727 388.771 69.477 381.688 62.3896C357.26 37.9099 326.963 20.1036 293.691 10.6724C250.706 -3.01637 204.611 -3.54874 161.322 9.14366C110.751 21.9791 67.0536 53.7739 39.2813 97.9428C9.51369 141.476 -4.02127 194.08 1.0387 246.574C6.09867 299.069 29.4322 348.119 66.9669 385.165L67.694 385.911C79.1949 397.419 92.0322 407.508 105.932 415.964C150.937 444.001 204.396 455.247 256.883 447.72C309.37 440.194 357.514 414.377 392.827 374.823C428.14 335.268 448.353 284.516 449.904 231.515C451.454 178.514 434.241 126.667 401.301 85.1161ZM224.691 346.219C213.591 317.189 195.981 291.091 173.214 269.934C150.447 248.777 123.131 233.123 93.3661 224.178C123.131 215.233 150.447 199.58 173.214 178.422C195.981 157.265 213.591 131.168 224.691 102.138C235.794 131.172 253.411 157.272 276.184 178.429C298.958 199.587 326.282 215.238 356.053 224.178C326.288 233.123 298.972 248.777 276.205 269.934C253.439 291.091 235.828 317.189 224.728 346.219H224.691Z" fill="white"/>
</svg>
