<svg width="250" height="176" viewBox="0 0 250 176" fill="none" xmlns="http://www.w3.org/2000/svg">
<g clip-path="url(#clip0_6618_202539)">
<path d="M118.613 58.7544H136.747C138.658 58.7544 140.207 57.2056 140.207 55.295V3.69166C140.207 1.78108 138.658 0.23225 136.747 0.23225H118.613C116.702 0.23225 115.153 1.78108 115.153 3.69166V55.295C115.153 57.2056 116.702 58.7544 118.613 58.7544Z" fill="#CCDFFF"/>
<path d="M118.613 58.7544H136.747C138.658 58.7544 140.207 57.2056 140.207 55.295V3.69166C140.207 1.78108 138.658 0.23225 136.747 0.23225H118.613C116.702 0.23225 115.153 1.78108 115.153 3.69166V55.295C115.153 57.2056 116.702 58.7544 118.613 58.7544Z" stroke="black" stroke-width="0.415129" stroke-miterlimit="10" stroke-linecap="round"/>
<path d="M117.959 0.20752H69.3906C67.48 0.20752 65.9312 1.75635 65.9312 3.66693V55.2703C65.9312 57.1808 67.48 58.7297 69.3906 58.7297H117.959C119.87 58.7297 121.419 57.1808 121.419 55.2703V3.66693C121.419 1.75635 119.87 0.20752 117.959 0.20752Z" fill="white"/>
<path d="M117.959 0.20752H69.3906C67.48 0.20752 65.9312 1.75635 65.9312 3.66693V55.2703C65.9312 57.1808 67.48 58.7297 69.3906 58.7297H117.959C119.87 58.7297 121.419 57.1808 121.419 55.2703V3.66693C121.419 1.75635 119.87 0.20752 117.959 0.20752Z" stroke="black" stroke-width="0.415129" stroke-miterlimit="10" stroke-linecap="round"/>
<path d="M92.2713 12.6172C93.197 12.4082 94.156 12.4082 95.0817 12.6172C96.3935 12.9147 98.6463 13.4447 101.927 14.2901C105.297 15.1578 107.284 15.6974 108.291 15.9769C108.8 16.1181 109.148 16.5844 109.139 17.1116C109.113 19.0447 108.839 24.0526 106.988 31.6702C105.126 39.328 98.4221 43.7283 94.2736 46.3049C93.9083 46.5318 93.4475 46.5318 93.0822 46.3049C88.9337 43.7283 82.2293 39.328 80.3682 31.6702C78.5167 24.054 78.2427 19.0447 78.2164 17.1116C78.2095 16.5844 78.5568 16.1181 79.0647 15.9769C80.072 15.6974 82.0591 15.1578 85.4286 14.2901C88.7081 13.4447 90.9609 12.9133 92.2741 12.6172H92.2713Z" fill="#0564FF"/>
<path d="M92.6351 16.9817C93.3214 16.8267 94.0313 16.8267 94.7176 16.9817C95.6904 17.2017 97.3593 17.5947 99.7905 18.2216C102.287 18.865 103.759 19.2649 104.506 19.4711C104.883 19.5763 105.14 19.9208 105.135 20.3124C105.115 21.7446 104.912 25.4559 103.541 31.1003C102.161 36.7751 97.1932 40.0352 94.1199 41.9448C93.8486 42.1136 93.5082 42.1136 93.237 41.9448C90.1623 40.0352 85.1946 36.7751 83.8164 31.1003C82.445 25.4559 82.2416 21.7446 82.2223 20.3124C82.2167 19.9208 82.4741 19.5763 82.8505 19.4711C83.5963 19.2635 85.0687 18.8636 87.5664 18.2216C89.9962 17.5947 91.6664 17.2017 92.6392 16.9817H92.6351Z" stroke="black" stroke-width="0.415129" stroke-miterlimit="10" stroke-linecap="round"/>
<path d="M90.9506 32.3012C90.8329 32.3012 90.7139 32.2902 90.5963 32.2694C90.0732 32.1726 89.6069 31.8612 89.3149 31.417L88.1581 29.6513C87.8177 29.1324 87.9132 28.4226 88.4086 28.0503C88.951 27.6421 89.7176 27.7819 90.0843 28.3423L90.5686 29.0812C90.8315 29.4825 91.3754 29.5835 91.7642 29.3026L99.1328 23.9945C99.6544 23.6181 100.382 23.7371 100.759 24.2588C101.135 24.7805 101.016 25.5083 100.494 25.8847L92.0977 31.9332C91.7628 32.1739 91.3588 32.3026 90.9506 32.3026V32.3012Z" fill="#F8FF6E"/>
<path d="M90.9506 32.3012C90.8329 32.3012 90.7139 32.2902 90.5963 32.2694C90.0732 32.1726 89.6069 31.8612 89.3149 31.417L88.1581 29.6513C87.8177 29.1324 87.9132 28.4226 88.4086 28.0503C88.951 27.6421 89.7176 27.7819 90.0843 28.3423L90.5686 29.0812C90.8315 29.4825 91.3754 29.5835 91.7642 29.3026L99.1328 23.9945C99.6544 23.6181 100.382 23.7371 100.759 24.2588C101.135 24.7805 101.016 25.5083 100.494 25.8847L92.0977 31.9332C91.7628 32.1739 91.3588 32.3026 90.9506 32.3026V32.3012Z" stroke="black" stroke-width="0.415129" stroke-miterlimit="10" stroke-linecap="round"/>
<path d="M74.4822 120.673V172.276C74.4822 174.105 73.0611 175.604 71.2636 175.726C71.1847 175.733 71.1045 175.735 71.0228 175.735H52.8886C50.9776 175.735 49.4292 174.187 49.4292 172.276V120.673C49.4292 118.762 50.9776 117.213 52.8886 117.213H71.0228C71.1045 117.213 71.1847 117.216 71.2636 117.223C73.0611 117.345 74.4822 118.843 74.4822 120.673Z" fill="black"/>
<path d="M74.4822 120.673V172.276C74.4822 174.105 73.0611 175.604 71.2636 175.726C71.1847 175.733 71.1045 175.735 71.0228 175.735H52.8886C50.9776 175.735 49.4292 174.187 49.4292 172.276V120.673C49.4292 118.762 50.9776 117.213 52.8886 117.213H71.0228C71.1045 117.213 71.1847 117.216 71.2636 117.223C73.0611 117.345 74.4822 118.843 74.4822 120.673Z" stroke="black" stroke-width="0.415129" stroke-miterlimit="10" stroke-linecap="round"/>
<path d="M52.2347 117.213H3.66595C1.75537 117.213 0.206543 118.762 0.206543 120.673V172.276C0.206543 174.186 1.75537 175.735 3.66595 175.735H52.2347C54.1453 175.735 55.6941 174.186 55.6941 172.276V120.673C55.6941 118.762 54.1453 117.213 52.2347 117.213Z" fill="white"/>
<path d="M52.2347 117.213H3.66595C1.75537 117.213 0.206543 118.762 0.206543 120.673V172.276C0.206543 174.186 1.75537 175.735 3.66595 175.735H52.2347C54.1453 175.735 55.6941 174.186 55.6941 172.276V120.673C55.6941 118.762 54.1453 117.213 52.2347 117.213Z" stroke="black" stroke-width="0.415129" stroke-miterlimit="10" stroke-linecap="round"/>
<path d="M101.701 62.214V113.817C101.701 115.727 100.151 117.277 98.2416 117.277H80.1074C78.1964 117.277 76.6479 115.727 76.6479 113.817V62.214C76.6479 60.3031 78.1964 58.7546 80.1074 58.7546H98.2416C100.151 58.7546 101.701 60.3031 101.701 62.214Z" fill="black"/>
<path d="M101.701 62.214V113.817C101.701 115.727 100.151 117.277 98.2416 117.277H80.1074C78.1964 117.277 76.6479 115.727 76.6479 113.817V62.214C76.6479 60.3031 78.1964 58.7546 80.1074 58.7546H98.2416C100.151 58.7546 101.701 60.3031 101.701 62.214Z" stroke="black" stroke-width="0.415129" stroke-miterlimit="10" stroke-linecap="round"/>
<path d="M79.4534 58.7546H30.8847C28.9741 58.7546 27.4253 60.3035 27.4253 62.214V113.817C27.4253 115.728 28.9741 117.277 30.8847 117.277H79.4534C81.364 117.277 82.9128 115.728 82.9128 113.817V62.214C82.9128 60.3035 81.364 58.7546 79.4534 58.7546Z" fill="white"/>
<path d="M79.4534 58.7546H30.8847C28.9741 58.7546 27.4253 60.3035 27.4253 62.214V113.817C27.4253 115.728 28.9741 117.277 30.8847 117.277H79.4534C81.364 117.277 82.9128 115.728 82.9128 113.817V62.214C82.9128 60.3035 81.364 58.7546 79.4534 58.7546Z" stroke="black" stroke-width="0.415129" stroke-miterlimit="10" stroke-linecap="round"/>
<path d="M164.154 62.2138V113.817C164.154 115.728 162.606 117.277 160.695 117.277H142.56C140.651 117.277 139.101 115.728 139.101 113.817V62.2138C139.101 60.3028 140.651 58.7544 142.56 58.7544H160.695C161.677 58.7544 162.564 59.164 163.192 59.8213C163.789 60.4426 164.154 61.2867 164.154 62.2138Z" fill="black"/>
<path d="M164.154 62.2138V113.817C164.154 115.728 162.606 117.277 160.695 117.277H142.56C140.651 117.277 139.101 115.728 139.101 113.817V62.2138C139.101 60.3028 140.651 58.7544 142.56 58.7544H160.695C161.677 58.7544 162.564 59.164 163.192 59.8213C163.789 60.4426 164.154 61.2867 164.154 62.2138Z" stroke="black" stroke-width="0.415129" stroke-miterlimit="10" stroke-linecap="round"/>
<path d="M141.909 58.7545H93.3398C91.4292 58.7545 89.8804 60.3033 89.8804 62.2139V113.817C89.8804 115.728 91.4292 117.277 93.3398 117.277H141.909C143.819 117.277 145.368 115.728 145.368 113.817V62.2139C145.368 60.3033 143.819 58.7545 141.909 58.7545Z" fill="white"/>
<path d="M141.909 58.7545H93.3398C91.4292 58.7545 89.8804 60.3033 89.8804 62.2139V113.817C89.8804 115.728 91.4292 117.277 93.3398 117.277H141.909C143.819 117.277 145.368 115.728 145.368 113.817V62.2139C145.368 60.3033 143.819 58.7545 141.909 58.7545Z" stroke="black" stroke-width="0.415129" stroke-miterlimit="10" stroke-linecap="round"/>
<path d="M142.32 120.672V172.276C142.32 174.187 140.772 175.735 138.861 175.735H120.726C118.817 175.735 117.267 174.187 117.267 172.276V120.672C117.267 118.762 118.817 117.213 120.726 117.213H138.861C140.772 117.213 142.32 118.762 142.32 120.672Z" fill="black"/>
<path d="M120.075 117.213H71.5058C69.5952 117.213 68.0464 118.762 68.0464 120.672V172.276C68.0464 174.186 69.5952 175.735 71.5058 175.735H120.075C121.985 175.735 123.534 174.186 123.534 172.276V120.672C123.534 118.762 121.985 117.213 120.075 117.213Z" fill="white"/>
<path d="M120.075 117.213H71.5058C69.5952 117.213 68.0464 118.762 68.0464 120.672V172.276C68.0464 174.186 69.5952 175.735 71.5058 175.735H120.075C121.985 175.735 123.534 174.186 123.534 172.276V120.672C123.534 118.762 121.985 117.213 120.075 117.213Z" stroke="black" stroke-width="0.415129" stroke-miterlimit="10" stroke-linecap="round"/>
<path d="M182.547 175.735H193.696C195.607 175.735 197.156 174.186 197.156 172.276V120.673C197.156 118.762 195.607 117.213 193.696 117.213H182.547C180.637 117.213 179.088 118.762 179.088 120.673V172.276C179.088 174.186 180.637 175.735 182.547 175.735Z" fill="#CCDFFF"/>
<path d="M182.547 175.735H193.696C195.607 175.735 197.156 174.186 197.156 172.276V120.673C197.156 118.762 195.607 117.213 193.696 117.213H182.547C180.637 117.213 179.088 118.762 179.088 120.673V172.276C179.088 174.186 180.637 175.735 182.547 175.735Z" stroke="black" stroke-width="0.415129" stroke-miterlimit="10" stroke-linecap="round"/>
<path d="M181.895 117.213H133.326C131.416 117.213 129.867 118.762 129.867 120.672V172.276C129.867 174.186 131.416 175.735 133.326 175.735H181.895C183.805 175.735 185.354 174.186 185.354 172.276V120.672C185.354 118.762 183.805 117.213 181.895 117.213Z" fill="white"/>
<path d="M181.895 117.213H133.326C131.416 117.213 129.867 118.762 129.867 120.672V172.276C129.867 174.186 131.416 175.735 133.326 175.735H181.895C183.805 175.735 185.354 174.186 185.354 172.276V120.672C185.354 118.762 183.805 117.213 181.895 117.213Z" stroke="black" stroke-width="0.415129" stroke-miterlimit="10" stroke-linecap="round"/>
<path d="M230.957 137.874L228.581 143.377L224.238 144.234L221.863 140.839L221.234 139.94L219.771 137.849C215.127 131.406 222.725 126.65 227.376 133.326C228.162 134.42 228.981 135.491 229.834 136.535C230.202 136.987 230.577 137.433 230.957 137.874V137.874Z" stroke="black" stroke-width="0.415129" stroke-miterlimit="10" stroke-linecap="round"/>
<path d="M249.529 141.295L246.646 143.943C246.264 144.293 245.83 144.581 245.359 144.796L237.414 148.407C237.051 148.572 236.654 148.643 236.257 148.613L232.133 148.309C232.081 148.305 232.028 148.304 231.976 148.304C231.299 148.304 230.658 148.623 230.253 149.171C230.066 149.423 229.793 149.596 229.486 149.655L225 150.53C224.785 150.572 224.57 150.466 224.47 150.273L224.12 149.592C223.84 149.048 223.583 148.494 223.349 147.931C223.02 147.145 222.735 146.343 222.494 145.526C222.082 144.126 221.799 142.688 221.654 141.228C221.621 140.902 221.978 140.68 222.257 140.853L224.359 142C225.073 142.389 225.967 142.106 226.326 141.376L227.085 139.831C227.481 139.025 228.012 138.295 228.657 137.672L229.854 136.512C230.033 136.179 230.426 136.023 230.784 136.146L235.292 137.689C237.596 138.479 240.008 138.905 242.444 138.955L247.147 139.052C247.597 139.061 248.035 139.157 248.444 139.327C248.851 139.499 249.226 139.746 249.548 140.06C249.614 140.125 249.667 140.199 249.707 140.276C249.88 140.608 249.819 141.028 249.527 141.295H249.529Z" fill="#CCDFFF"/>
<path d="M249.529 141.295L246.646 143.943C246.264 144.293 245.83 144.581 245.359 144.796L237.414 148.407C237.051 148.572 236.654 148.643 236.257 148.613L232.133 148.309C232.081 148.305 232.028 148.303 231.976 148.303C231.299 148.303 230.658 148.623 230.253 149.171C230.066 149.423 229.793 149.596 229.486 149.655L225 150.53C224.785 150.571 224.57 150.466 224.47 150.273L224.12 149.592C223.84 149.048 223.583 148.494 223.349 147.931L228.948 147.394C229.499 147.342 230.053 147.329 230.607 147.361L236.261 147.675C236.603 147.695 236.946 147.634 237.26 147.498L244.786 144.252C245.297 144.032 245.769 143.734 246.185 143.368L249.708 140.276C249.881 140.608 249.821 141.028 249.529 141.295Z" fill="black"/>
<path d="M227.933 147.493L228.394 146.413C228.56 146.026 228.91 145.746 229.325 145.673L235.414 144.583C236.088 144.462 236.579 143.875 236.579 143.189V139.342C236.579 139.06 236.786 138.822 237.066 138.782L238.617 138.563" stroke="black" stroke-width="0.415129" stroke-miterlimit="10" stroke-linecap="round"/>
<path d="M210.598 165.382L205.45 168.228L202.179 165.805L201.973 162.965V162.963L201.841 161.139L201.271 153.267L209.993 154.903L210.239 159.179L210.462 163.027L210.598 165.382Z" stroke="black" stroke-width="0.415129" stroke-miterlimit="10" stroke-linecap="round"/>
<path d="M225.803 175.274C225.803 175.528 225.601 175.735 225.348 175.735H200.984C200.634 175.735 200.354 175.446 200.365 175.097L200.443 172.579L200.499 170.745C200.581 168.09 200.838 165.315 201.732 162.815C201.732 162.815 202.452 163.889 202.719 164.226C203.325 164.999 204.3 165.332 205.129 164.82L205.951 164.312C206.985 163.673 208.15 163.274 209.358 163.146L210.658 163.018C210.658 163.018 214.943 168.23 221.927 171.209L223.531 171.876C224.823 172.414 225.692 173.63 225.792 175.011C225.8 175.1 225.803 175.187 225.803 175.276V175.274Z" fill="#CCDFFF"/>
<path d="M215.596 167.664L214.443 167.648C213.892 167.642 213.364 167.863 212.984 168.261L210.405 170.971C209.989 171.408 209.402 171.641 208.8 171.606L205.087 171.394C204.665 171.371 204.264 171.578 204.043 171.938L203.335 173.084" stroke="black" stroke-width="0.415129" stroke-miterlimit="10" stroke-linecap="round"/>
<path d="M225.803 175.274C225.803 175.528 225.601 175.735 225.348 175.735H200.984C200.634 175.735 200.354 175.446 200.365 175.097L200.443 172.579H200.444L204.577 173.3C205.637 173.484 206.66 173.834 207.61 174.336C208.169 174.632 208.791 174.79 209.425 174.798L225.792 175.01C225.8 175.099 225.803 175.186 225.803 175.274Z" fill="black"/>
<path d="M212.934 158.118C211.782 158.765 207.615 160.671 200.234 159.466C199.997 159.427 199.816 159.235 199.788 158.998L196.681 132.862C196.515 131.46 196.503 130.045 196.655 128.644C195.706 126.901 195.296 125.291 195.296 125.291L190.81 122.993L187.1 121.092C183.781 119.391 180.175 118.317 176.466 117.926L174.187 117.685L187.095 108.887L187.33 108.726L191.441 108.086L200.927 106.605L207.764 118.19C207.764 118.19 207.962 119.664 208.287 122.071C209.382 130.179 211.919 148.882 213.211 157.551C213.245 157.779 213.136 158.006 212.934 158.118Z" fill="#00234B"/>
<path d="M196.656 128.644C196.706 128.157 196.778 127.671 196.87 127.188C197.46 124.114 198.421 121.526 198.421 121.526" stroke="white" stroke-width="0.415129" stroke-miterlimit="10" stroke-linecap="round"/>
<path d="M195.296 125.291C195.296 125.291 194.481 120.477 195.377 117.213" stroke="white" stroke-width="0.415129" stroke-miterlimit="10" stroke-linecap="round"/>
<path d="M227.374 133.326C225.557 135.834 222.51 137.155 219.769 137.849C217.295 138.476 215.07 138.594 214.22 138.614C214.007 138.62 213.822 138.473 213.774 138.266C210.884 125.725 207.53 119.607 203.591 115.218C202.779 114.313 201.996 113.534 201.269 112.871C201.268 112.869 201.267 112.867 201.265 112.865C198.856 110.664 197.088 109.735 197.088 109.735L191.016 112.493H191.012L184.493 115.453C181.255 116.924 177.74 117.684 174.185 117.684H165.51C161.785 117.684 158.202 116.318 155.486 113.86C154.877 113.309 154.311 112.702 153.798 112.045C153.726 111.953 153.654 111.859 153.583 111.765L166.356 94.1748L169.998 94.3381L203.594 95.8436C203.594 95.8436 204.088 96.166 204.592 96.631C204.968 96.9769 205.351 97.4017 205.537 97.8293C205.974 98.8298 207.03 98.8519 207.52 99.7583C207.99 100.629 218.673 119.026 224.121 128.319C225.128 130.038 226.214 131.708 227.374 133.324V133.326Z" fill="#00234B"/>
<path d="M208.285 122.071C206.82 119.24 205.257 117.075 203.591 115.218C200.085 111.308 197.088 109.735 197.088 109.735L184.493 115.454C181.255 116.925 177.74 117.685 174.185 117.685" stroke="white" stroke-width="0.415129" stroke-miterlimit="10" stroke-linecap="round"/>
<path d="M188.484 41.9861L185.625 46.8182L184.399 55.875L182.228 65.3911L170.281 60.898L171.604 57.5051L175.579 47.304L178.744 39.1854L185.066 39.0304L188.484 41.9861Z" stroke="black" stroke-width="0.415129" stroke-miterlimit="10" stroke-linecap="round"/>
<path d="M182.427 84.8801L181.908 95.0272H171.678L171.182 92.2376L168.091 74.8284L167.255 59.5378L173.147 49.81H173.149C173.214 49.8958 175.31 52.637 178.028 54.9935C178.104 55.06 178.173 55.1305 178.237 55.2053C178.24 55.2053 178.241 55.208 178.241 55.208C178.536 55.554 178.707 55.9926 178.724 56.452C178.777 57.9368 179.013 60.9797 180.046 63.2062L180.533 80.4036L182.427 84.8801Z" fill="white"/>
<path d="M182.427 84.8801L181.908 95.0272H171.678L171.182 92.2376L168.091 74.8284L167.255 59.5378L173.147 49.81H173.149C173.214 49.8958 175.31 52.637 178.028 54.9935C178.104 55.06 178.173 55.1305 178.237 55.2053C178.24 55.2053 178.241 55.208 178.241 55.208C178.536 55.554 178.707 55.9926 178.724 56.452C178.777 57.9368 179.013 60.9797 180.046 63.2062L180.533 80.4036L182.427 84.8801Z" stroke="black" stroke-width="0.415129" stroke-miterlimit="10" stroke-linecap="round"/>
<path d="M178.237 55.2053C178.173 55.1499 177.214 54.4387 174.697 59.1158C174.624 59.2528 174.416 59.2168 174.396 59.0618L173.146 49.8086H173.147C173.212 49.8958 175.309 52.637 178.027 54.9936C178.103 55.06 178.172 55.1305 178.235 55.2053H178.237Z" stroke="black" stroke-width="0.415129" stroke-miterlimit="10" stroke-linecap="round"/>
<path d="M173.596 86.625C173.596 86.625 173.593 86.6346 173.592 86.6388C173.379 87.2781 173.151 87.9119 172.904 88.5387C172.536 89.47 172.129 90.386 171.678 91.2827C170.935 92.7606 170.039 94.3187 169.045 95.9045C164.037 103.908 156.604 112.601 154.296 115.24C153.867 115.731 153.19 115.923 152.566 115.734L143.869 113.087C143.243 112.896 142.874 112.251 143.029 111.616C143.394 110.114 144.133 107.231 145.25 103.633C146.675 99.0415 148.713 93.2864 151.369 87.7569C151.511 87.458 151.657 87.1605 151.803 86.8643C154.662 81.0844 152.933 72.0262 154.676 64.6369C154.796 64.1277 154.938 63.624 155.098 63.1273C157.254 56.4008 162.698 50.8837 162.698 50.8837L168.169 49.2287L168.373 49.1678C169.406 48.8551 170.512 48.8814 171.53 49.2398L173.149 49.8099C173.149 49.8099 173.336 50.4506 173.614 51.5977C173.65 51.7444 173.686 51.898 173.725 52.0613C173.995 53.2112 174.328 54.7624 174.653 56.6125C175.943 63.9658 177.099 76.0571 173.596 86.625Z" fill="#CCDFFF"/>
<path d="M164.155 103.02C160.085 108.524 155.92 113.383 154.296 115.24C153.867 115.731 153.19 115.923 152.566 115.734L143.869 113.087C143.243 112.896 142.874 112.251 143.029 111.616C143.394 110.114 144.133 107.231 145.25 103.633C146.675 99.0414 148.713 93.2864 151.369 87.7569C151.511 87.458 151.657 87.1604 151.803 86.8643C154.662 81.0843 152.933 72.0262 154.676 64.6369C154.796 64.1277 154.938 63.624 155.098 63.1272C155.591 61.5899 156.256 60.1148 156.988 58.7545" stroke="black" stroke-width="0.415129" stroke-miterlimit="10" stroke-linecap="round"/>
<path d="M166.587 50.3123C166.587 50.3123 167.018 53.1545 168.249 57.1439C170.398 64.107 173.484 75.5023 170.193 88.1028" stroke="black" stroke-width="0.415129" stroke-miterlimit="10" stroke-linecap="round"/>
<path d="M173.148 49.8099H173.149C173.149 49.8099 179.079 70.0821 173.596 86.625C173.595 86.6291 173.594 86.6347 173.592 86.6388C173.379 87.2781 173.151 87.9119 172.905 88.5387C172.536 89.47 172.13 90.386 171.679 91.2827C171.521 91.5968 171.355 91.9165 171.183 92.2375" stroke="black" stroke-width="0.415129" stroke-miterlimit="10" stroke-linecap="round"/>
<path d="M169.044 95.9045C164.71 102.832 158.559 110.274 155.486 113.862" stroke="black" stroke-width="0.415129" stroke-miterlimit="10" stroke-linecap="round"/>
<path d="M169.921 96.209C169.921 96.209 171.382 97.0268 173.767 93.8719C175.209 91.9664 168.267 91.0642 168.267 91.0642C168.267 91.0642 167.96 94.5264 169.922 96.209H169.921Z" fill="black"/>
<path d="M169.921 96.209C169.921 96.209 171.382 97.0268 173.767 93.8719C175.209 91.9664 168.267 91.0642 168.267 91.0642C168.267 91.0642 167.96 94.5264 169.922 96.209H169.921Z" stroke="black" stroke-width="0.415129" stroke-miterlimit="10" stroke-linecap="round"/>
<path d="M180.795 89.7427C181.291 88.1832 181.108 86.4867 180.303 85.0614L179.063 82.8682C178.512 81.894 178.228 80.7911 178.242 79.6717C178.31 74.466 179.157 68.3553 179.677 65.0661C179.867 63.8649 180.153 62.6832 180.496 61.5167C180.972 59.8935 180.925 58.5624 180.853 57.912C180.826 57.656 180.974 57.4194 181.21 57.3184C184.353 55.9803 184.908 52.5098 185.002 51.5439C185.012 51.4401 185.135 51.3917 185.214 51.4609L185.627 51.8234L186.87 52.9125L187.053 53.3677C187.984 55.7007 188.16 58.2676 187.555 60.7058C187.555 60.7058 182.874 79.8114 188.187 95.0273H179.695C179.791 93.2547 180.315 91.251 180.795 89.7427Z" fill="white"/>
<path d="M180.795 89.7427C181.291 88.1832 181.108 86.4867 180.303 85.0614L179.063 82.8682C178.512 81.894 178.228 80.7911 178.242 79.6717C178.31 74.466 179.157 68.3553 179.677 65.0661C179.867 63.8649 180.153 62.6832 180.496 61.5167C180.972 59.8935 180.925 58.5624 180.853 57.912C180.826 57.656 180.974 57.4194 181.21 57.3184C184.353 55.9803 184.908 52.5098 185.002 51.5439C185.012 51.4401 185.135 51.3917 185.214 51.4609L185.627 51.8234L186.87 52.9125L187.053 53.3677C187.984 55.7007 188.16 58.2676 187.555 60.7058C187.555 60.7058 182.874 79.8114 188.187 95.0273H179.695C179.791 93.2547 180.315 91.251 180.795 89.7427V89.7427Z" stroke="black" stroke-width="0.415129" stroke-miterlimit="10" stroke-linecap="round"/>
<path d="M195.766 95.0271H187.044C183.389 84.5631 184.045 70.0349 184.966 60.7291C184.971 60.6752 185.031 60.6475 185.078 60.6738C185.125 60.7001 185.186 60.7111 185.242 60.7015C185.329 60.6876 185.408 60.6267 185.433 60.5216C185.812 58.9233 186.539 54.9007 186.006 51.8896L186.299 52.1318L187.131 52.8611C189.483 54.8509 191.763 56.9265 193.961 59.0852L194.375 59.492C196.26 61.1456 197.404 63.4842 197.554 65.9874C197.912 71.9694 198.165 83.7688 195.766 95.0285V95.0271Z" fill="#CCDFFF"/>
<path d="M190.526 59.679C190.321 64.1264 189.124 67.5429 188.144 72.0055C187.075 76.8805 186.857 81.9133 187.613 86.8478C188.075 89.8644 188.925 93.0318 190.481 95.0286" stroke="black" stroke-width="0.415129" stroke-miterlimit="10" stroke-linecap="round"/>
<path d="M196.417 63.9768C196.417 63.9768 196.417 69.469 193.277 79.2826C191.833 83.7978 191.434 88.5815 192.148 93.2669L192.346 94.5635" stroke="black" stroke-width="0.415129" stroke-miterlimit="10" stroke-linecap="round"/>
<path d="M185.433 60.5216C185.408 60.6268 185.329 60.6877 185.242 60.7015C185.141 60.7195 185.029 60.6738 184.982 60.5659C184.976 60.5548 184.972 60.5424 184.968 60.5299C184.316 58.1928 183.201 57.1494 182.693 56.7785C182.573 56.69 182.563 56.5129 182.678 56.416C183.276 55.9095 184.758 54.3833 185.004 51.5438C185.012 51.44 185.137 51.3916 185.216 51.4594L185.63 51.8219L186 52.1471C186.453 55.5179 185.814 58.9234 185.434 60.5216H185.433Z" stroke="black" stroke-width="0.415129" stroke-miterlimit="10" stroke-linecap="round"/>
<path d="M190.061 92.3965L188.864 91.8541C189.017 91.9676 189.165 92.0852 189.31 92.2083L190.096 92.8739C190.256 93.0095 190.348 93.2157 190.32 93.4233C190.297 93.5949 190.204 93.736 190.075 93.8287C189.977 93.8993 189.857 93.9394 189.729 93.9394H189.638C189.65 94.0059 189.649 94.0737 189.634 94.1429C189.606 94.266 189.538 94.3712 189.444 94.4459C189.352 94.5192 189.234 94.5635 189.108 94.5635L187.921 94.4819C187.856 94.4999 187.785 94.5026 187.716 94.4846L183.872 93.5008C183.584 93.4274 183.281 93.48 183.029 93.635C180.926 94.933 179.61 94.5801 179.048 94.2937C178.798 94.165 178.512 94.1179 178.233 94.1567L175.537 94.5261C174.451 93.5866 174.534 91.7752 174.534 91.7752L176.404 88.8237L177.097 88.8818C177.859 88.9454 178.626 88.9427 179.388 88.8749L183.469 88.5082C184.229 88.4404 184.995 88.5192 185.725 88.742L187.773 89.3675C188.56 89.6069 189.268 90.0497 189.829 90.6516L190.669 91.5524C190.763 91.6535 190.81 91.7835 190.81 91.9136C190.81 92.0368 190.768 92.1585 190.684 92.2582C190.53 92.438 190.276 92.4948 190.061 92.3965Z" fill="white"/>
<path d="M190.061 92.3965L188.864 91.8541C189.017 91.9676 189.165 92.0852 189.31 92.2083L190.096 92.8739C190.256 93.0095 190.348 93.2157 190.32 93.4233C190.297 93.5949 190.204 93.736 190.075 93.8287C189.977 93.8993 189.857 93.9394 189.729 93.9394H189.638C189.65 94.0059 189.649 94.0737 189.634 94.1429C189.606 94.266 189.538 94.3712 189.444 94.4459C189.352 94.5192 189.234 94.5635 189.108 94.5635L187.921 94.4819C187.856 94.4999 187.785 94.5026 187.716 94.4846L183.872 93.5008C183.584 93.4274 183.281 93.48 183.029 93.635C180.926 94.933 179.61 94.5801 179.048 94.2937C178.798 94.165 178.512 94.1179 178.233 94.1567L175.537 94.5261C174.451 93.5866 174.534 91.7752 174.534 91.7752L176.404 88.8237L177.097 88.8818C177.859 88.9454 178.626 88.9427 179.388 88.8749L183.469 88.5082C184.229 88.4404 184.995 88.5192 185.725 88.742L187.773 89.3675C188.56 89.6069 189.268 90.0497 189.829 90.6516L190.669 91.5524C190.763 91.6535 190.81 91.7835 190.81 91.9136C190.81 92.0368 190.768 92.1585 190.684 92.2582C190.53 92.438 190.276 92.4948 190.061 92.3965V92.3965Z" stroke="black" stroke-width="0.415129" stroke-miterlimit="10" stroke-linecap="round"/>
<path d="M183.509 90.6267L185.074 91.0889C186.053 91.3781 186.988 91.7973 187.856 92.3342L189.212 93.1742C189.477 93.3389 189.639 93.6281 189.639 93.9408" stroke="black" stroke-width="0.415129" stroke-miterlimit="10" stroke-linecap="round"/>
<path d="M184.103 89.856L185.653 90.2808C186.815 90.599 187.904 91.1332 188.865 91.8541" stroke="black" stroke-width="0.415129" stroke-miterlimit="10" stroke-linecap="round"/>
<path d="M182.505 91.4307L184.29 91.6963C184.96 91.7974 185.597 92.0534 186.15 92.445L188.04 93.7831C188.148 93.8592 188.206 93.9796 188.206 94.1041C188.206 94.1608 188.194 94.219 188.169 94.2729C188.118 94.3767 188.027 94.4514 187.921 94.4819" stroke="black" stroke-width="0.415129" stroke-miterlimit="10" stroke-linecap="round"/>
<path d="M177.932 89.0451C175.339 89.7522 175.461 93.5313 175.521 94.3629C175.527 94.4542 175.46 94.5317 175.37 94.54L172.854 94.7573L169.727 95.0271C169.727 95.0271 169.071 90.8994 171.693 88.7116C172.485 88.0516 173.572 87.5686 175.067 87.4275C176.096 87.9506 177.584 88.6839 177.946 88.8472C178.036 88.8887 178.027 89.0188 177.932 89.0451Z" fill="white"/>
<path d="M177.932 89.0451C175.339 89.7522 175.461 93.5313 175.521 94.3629C175.527 94.4542 175.46 94.5317 175.37 94.54L172.854 94.7573L169.727 95.0271C169.727 95.0271 169.071 90.8994 171.693 88.7116C172.485 88.0516 173.572 87.5686 175.067 87.4275C176.096 87.9506 177.584 88.6839 177.946 88.8472C178.036 88.8887 178.027 89.0188 177.932 89.0451V89.0451Z" stroke="black" stroke-width="0.415129" stroke-miterlimit="10" stroke-linecap="round"/>
<path d="M176.215 88.0158C173.098 89.585 170.87 92.2833 169.962 94.7367C169.585 95.7579 169.919 96.2091 169.919 96.2091C169.919 96.2091 150.967 89.8507 148.071 84.5882C145.387 79.7118 151.012 64.5236 151.854 62.3151C151.918 62.1463 151.933 61.9637 151.897 61.7879C151.38 59.1629 153.89 57.2492 154.216 55.5098C154.279 55.1721 154.4 54.8331 154.555 54.5024C155.287 52.9401 156.671 51.7792 158.317 51.2575L158.35 51.2478C159.45 50.8991 160.607 50.7566 161.759 50.8271L162.696 50.8839L162.861 57.144C163.518 60.0568 163.421 63.858 160.562 67.626C160.983 71.8133 159.187 76.734 158.64 78.1122C159.292 78.5439 159.88 79.1306 160.179 79.9208C160.666 80.1934 161.214 80.5531 161.806 81.0264C163.334 82.2483 165.015 83.5158 165.989 84.2436C167.907 84.3391 170.16 84.7155 172.013 85.7616C173.589 86.6528 175.233 87.5162 176.215 88.0158Z" fill="#CCDFFF"/>
<path d="M164.153 94.0726C158.325 91.7589 149.921 87.9508 148.071 84.5882C145.387 79.7119 151.012 64.5237 151.854 62.3152C151.918 62.1464 151.933 61.9637 151.897 61.788C151.674 60.6602 152.012 59.6625 152.494 58.7548" stroke="black" stroke-width="0.415129" stroke-miterlimit="10" stroke-linecap="round"/>
<path d="M169.81 95.1103C169.759 95.4576 169.773 95.7828 169.868 96.072C169.886 96.1274 169.832 96.1786 169.778 96.1592L169.045 95.9046C166.133 94.8806 156.662 91.4018 151.369 87.757" stroke="black" stroke-width="0.415129" stroke-miterlimit="10" stroke-linecap="round"/>
<path d="M176.146 88.0518C175.807 88.2303 174.304 89.0578 172.913 90.3696C171.507 91.6938 170.175 93.4512 169.855 94.8806" stroke="black" stroke-width="0.415129" stroke-miterlimit="10" stroke-linecap="round"/>
<path d="M162.861 57.144C163.518 60.0569 163.421 63.8581 160.562 67.6261C160.983 71.8133 159.187 76.734 158.64 78.1122C159.292 78.5439 159.88 79.1307 160.179 79.9208C160.666 80.1934 161.214 80.5532 161.806 81.0264C163.334 82.2483 165.015 83.5158 165.989 84.2437C167.907 84.3392 170.16 84.7155 172.013 85.7617C172.576 86.0799 173.102 86.3719 173.59 86.639C174.365 87.061 175.326 87.5606 175.975 87.8927" stroke="black" stroke-width="0.415129" stroke-miterlimit="10" stroke-linecap="round"/>
<path d="M161.806 84.425C161.806 84.425 163.648 84.1261 165.989 84.2437" stroke="black" stroke-width="0.415129" stroke-miterlimit="10" stroke-linecap="round"/>
<path d="M157.837 79.06C157.837 79.06 158.752 79.1195 160.18 79.9207" stroke="black" stroke-width="0.415129" stroke-miterlimit="10" stroke-linecap="round"/>
<path d="M155.767 77.0039C155.767 77.0039 157.331 77.2447 158.64 78.1123" stroke="black" stroke-width="0.415129" stroke-miterlimit="10" stroke-linecap="round"/>
<path d="M160.563 67.626C160.4 65.9904 159.897 64.4669 158.851 63.3101" stroke="black" stroke-width="0.415129" stroke-miterlimit="10" stroke-linecap="round"/>
<path d="M162.861 57.1441C162.165 54.0597 160.626 51.9702 160.626 51.9702" stroke="black" stroke-width="0.415129" stroke-miterlimit="10" stroke-linecap="round"/>
<path d="M154.683 62.8354C154.683 62.8354 157.452 64.6247 158.751 66.4706" stroke="black" stroke-width="0.415129" stroke-miterlimit="10" stroke-linecap="round"/>
<path d="M176.891 29.391C176.891 29.391 174.856 30.5907 173.207 35.1461C171.385 40.1761 171.7 42.909 171.7 42.909L179.059 44.6138L182.777 43.6064L186.689 35.7826L186.418 30.0884L182.118 28.6936L176.889 29.391H176.891Z" fill="white"/>
<path d="M176.891 29.391C176.891 29.391 174.856 30.5907 173.207 35.1461C171.385 40.1761 171.7 42.909 171.7 42.909L179.059 44.6138L182.777 43.6064L186.689 35.7826L186.418 30.0884L182.118 28.6936L176.889 29.391H176.891Z" stroke="black" stroke-width="0.415129" stroke-miterlimit="10" stroke-linecap="round"/>
<path d="M176.621 33.8566C176.621 33.8566 177.869 33.566 178.671 34.6702" stroke="black" stroke-width="0.415129" stroke-miterlimit="10" stroke-linecap="round"/>
<path d="M174.887 33.8566C174.887 33.8566 174.292 33.7182 173.66 33.995" stroke="black" stroke-width="0.415129" stroke-miterlimit="10" stroke-linecap="round"/>
<path d="M185.534 46.8473C185.534 46.8473 185.039 45.6296 186.085 43.9082C187.131 42.1868 186.598 40.6619 186.598 40.6619C186.598 40.6619 184.189 41.7509 183.993 44.845C183.797 47.9391 182.967 51.0927 175.372 51.5549C167.775 52.017 167.856 48.8925 168.056 47.3953C168.353 45.1591 170.693 44.0037 171.165 42.6808C171.636 41.3593 171.757 39.5438 173.872 39.3252C175.415 39.166 176.279 40.6425 176.88 41.8242C177.429 42.9063 181.232 43.5996 182.088 42.1439C182.624 41.2348 183.461 39.3293 184.076 37.6051C184.113 37.5 184.149 37.3962 184.185 37.2938C184.208 37.2246 184.232 37.1568 184.254 37.089C184.283 37.0018 184.312 36.916 184.34 36.8316C184.579 36.0955 184.759 35.4326 184.83 34.9483C185.173 32.607 184.482 30.1093 182.209 29.762C179.744 29.3856 175.059 32.1559 175.384 28.143C175.405 27.8856 175.679 27.732 175.907 27.8496C176.219 28.0087 176.744 28.071 177.616 27.7182C179.422 26.9861 182.497 26.1434 187.136 29.4479C191.776 32.7523 194.151 38.6679 185.534 46.8473Z" fill="black"/>
<path d="M180.233 34.5816C179.794 34.3408 179.297 34.226 178.797 34.2481L176.263 34.3588C176.046 34.3685 175.838 34.4571 175.682 34.6093L175.614 34.6743C175.433 34.8473 175.189 34.9414 174.939 34.9331H174.91C174.752 34.9262 174.598 34.875 174.468 34.7864C174.277 34.6536 174.042 34.601 173.812 34.6397L171.665 34.9967C171.445 35.0341 171.283 35.2251 171.283 35.4478V36.5507C171.283 37.1679 171.784 37.6619 172.394 37.6619C172.415 37.6619 172.437 37.6619 172.458 37.6605C172.996 37.6286 173.487 37.345 173.785 36.8953L174.584 35.6789C174.649 35.5793 174.76 35.5212 174.878 35.5212H174.882C175.03 35.5239 175.16 35.6194 175.207 35.7592L175.262 35.9252C175.553 36.7859 176.361 37.3643 177.266 37.3643C177.29 37.3643 177.313 37.3643 177.338 37.363C178.175 37.3353 178.917 36.815 179.23 36.0373L179.588 35.1448C179.61 35.0867 179.678 35.0618 179.735 35.0894L187.293 38.8339L187.554 38.5945L180.233 34.5816ZM179.159 35.3205C178.906 35.9571 178.225 37.2689 176.963 37.0572C175.996 36.8953 175.536 36.0941 175.35 35.6402C175.272 35.4506 175.092 35.3247 174.887 35.3247H174.863C174.696 35.3247 174.541 35.4077 174.45 35.5461C174.153 35.9917 173.488 36.9658 173.295 37.0696C172.819 37.3256 172.456 37.291 172.185 37.2329C171.676 37.1222 171.645 36.6199 171.645 36.6199L171.618 35.7052C171.609 35.4478 171.796 35.225 172.052 35.1891L173.89 34.9317C174.067 34.9068 174.248 34.9345 174.41 35.0133H174.411C174.539 35.0756 174.678 35.1088 174.821 35.1116L175.283 35.1213C175.48 35.1102 175.711 34.9317 175.877 34.7767C176.037 34.6273 176.243 34.5387 176.461 34.5318L178.999 34.446H179.008C179.155 34.446 179.275 34.565 179.275 34.7144C179.275 34.922 179.237 35.1268 179.159 35.3205Z" fill="black"/>
<path d="M177.949 36.3508C177.953 36.0237 177.819 35.7567 177.648 35.7544C177.478 35.7521 177.336 36.0153 177.332 36.3424C177.327 36.6694 177.462 36.9365 177.632 36.9388C177.803 36.9411 177.944 36.6778 177.949 36.3508Z" fill="black"/>
<path d="M174.164 36.3505C174.168 36.0234 174.034 35.7564 173.863 35.7541C173.693 35.7518 173.551 36.015 173.547 36.3421C173.542 36.6691 173.677 36.9361 173.847 36.9385C174.018 36.9408 174.159 36.6775 174.164 36.3505Z" fill="black"/>
<path d="M187.828 41.8823C187.078 43.1802 185.743 43.8099 184.845 43.2909C183.945 42.772 183.823 41.2997 184.572 40.0031C185.063 39.1521 185.808 38.5875 186.516 38.4492C186.886 38.3744 187.246 38.4173 187.554 38.5944H187.555C188.455 39.1134 188.577 40.5843 187.828 41.8809V41.8823Z" fill="white"/>
<path d="M174.976 35.5364L173.538 37.0544C173.068 37.5511 173.017 38.3122 173.417 38.8685L173.747 39.3265" stroke="black" stroke-width="0.415129" stroke-miterlimit="10" stroke-linecap="round"/>
<path d="M172.427 42.202C172.427 42.202 173.702 42.4995 175.2 41.5281" stroke="white" stroke-width="0.415129" stroke-miterlimit="10" stroke-linecap="round"/>
<path d="M197.087 109.735C196.878 105.742 198.419 100.907 198.419 100.907" stroke="white" stroke-width="0.415129" stroke-miterlimit="10" stroke-linecap="round"/>
<path d="M195.777 105.847C195.777 105.847 196.192 108.58 197.089 109.735" stroke="white" stroke-width="0.415129" stroke-miterlimit="10" stroke-linecap="round"/>
<path d="M197.781 103.341C197.768 103.519 197.754 103.688 197.738 103.849C197.752 103.522 197.781 103.341 197.781 103.341Z" fill="#320A84"/>
<path d="M185.523 41.3068C185.523 41.3068 185.988 41.0978 185.988 40.7367C185.988 40.5291 185.807 40.4488 185.657 40.417C185.569 40.399 185.529 40.3063 185.582 40.2413C185.841 39.9299 186.468 39.2712 187.049 39.4041C187.857 39.5881 187.525 41.1559 185.457 42.4982" stroke="black" stroke-width="0.415129" stroke-miterlimit="10" stroke-linecap="round"/>
<path d="M173.354 94.7753H189.091C189.3 94.7753 189.487 94.6411 189.552 94.4418L196.519 73.3865C196.605 73.1263 196.86 72.9589 197.132 72.9824L218.053 74.7771C218.354 74.8034 218.55 75.1051 218.451 75.3888L211.685 94.9247C211.494 95.4755 210.977 95.8436 210.394 95.8436H174.634C174.086 95.8436 173.559 95.6346 173.16 95.2582C172.976 95.0839 173.099 94.7739 173.352 94.7739L173.354 94.7753Z" fill="white"/>
<path d="M173.354 94.7753H189.091C189.3 94.7753 189.487 94.6411 189.552 94.4418L196.519 73.3865C196.605 73.1263 196.86 72.9589 197.132 72.9824L218.053 74.7771C218.354 74.8034 218.55 75.1051 218.451 75.3888L211.685 94.9247C211.494 95.4755 210.977 95.8436 210.394 95.8436H174.634C174.086 95.8436 173.559 95.6346 173.16 95.2582C172.976 95.0839 173.099 94.7739 173.352 94.7739L173.354 94.7753Z" stroke="black" stroke-width="0.415129" stroke-miterlimit="10" stroke-linecap="round"/>
<path d="M197.157 74.1006L190.48 94.565" stroke="black" stroke-width="0.415129" stroke-miterlimit="10" stroke-linecap="round"/>
<path d="M207.191 86.8187L207.27 86.8257L206.774 88.2316L206.54 88.2094C205.015 88.0641 204.308 87.1149 204.798 85.7242L205.04 85.0392L205.714 84.9451C205.872 84.923 206.031 84.8607 206.171 84.7652C206.312 84.6698 206.43 84.5438 206.511 84.4027C206.593 84.2615 206.634 84.1121 206.632 83.9682C206.629 83.8257 206.582 83.6956 206.495 83.5946C206.409 83.4936 206.287 83.423 206.143 83.3939C205.999 83.3649 205.84 83.3759 205.682 83.4285C205.525 83.4797 205.377 83.5697 205.253 83.6859C205.13 83.8035 205.038 83.9433 204.986 84.09L203.906 87.155L202.363 87.0069L203.461 83.8879C203.495 83.7938 203.533 83.7011 203.579 83.6084C204.113 82.5152 205.4 81.7528 206.594 81.8676C207.683 81.9714 208.348 82.7712 208.27 83.7606C208.229 84.2795 207.989 84.8109 207.593 85.262C207.235 85.6661 206.774 85.9843 206.275 86.1725C206.264 86.6292 206.586 86.7606 207.191 86.8187Z" fill="#0564FF"/>
<path d="M73.1492 80.5612C72.8199 80.4381 71.9675 79.4238 68.0971 79.7476C66.8033 79.8555 63.1211 81.0068 58.4412 82.4791C58.3568 82.5054 58.2655 82.5026 58.1825 82.4694L47.4085 78.123C47.2742 78.0691 47.1303 78.0483 46.9864 78.0649L44.2369 78.3597C44.1096 78.3735 44.0694 78.5395 44.176 78.6101L52.6336 84.1521C52.6917 84.1908 52.6806 84.2794 52.6128 84.3001C49.7277 85.1885 46.7055 86.0866 43.7733 86.8809C43.4717 86.9625 43.1506 86.9058 42.8932 86.7273L36.8988 82.5594C36.8158 82.5013 36.712 82.4833 36.6151 82.5109L35.4555 82.8264C35.2203 82.8901 35.1276 83.1724 35.277 83.3647L40.361 89.8601C40.4384 89.9597 40.4523 90.094 40.3983 90.2061L39.0616 92.9791C38.9883 93.1313 39.1128 93.3057 39.2802 93.2863L41.1123 93.0663C41.1732 93.0594 41.2286 93.0262 41.2632 92.975L42.467 91.237C42.64 90.9865 42.9209 90.8357 43.2253 90.8246C46.6972 90.7042 50.8111 90.2766 55.5408 89.3301C55.6045 89.3177 55.6612 89.3744 55.646 89.4381L53.6146 97.6106C53.5717 97.7808 53.7433 97.9247 53.9039 97.8555L56.0404 96.9381C56.1788 96.8786 56.2908 96.772 56.3573 96.6378L60.4518 88.3421C60.4837 88.2771 60.5445 88.23 60.6151 88.212C73.8868 85.028 75.0325 82.5926 75.2858 81.9118C75.5667 81.159 73.4758 80.6858 73.1465 80.564L73.1492 80.5612Z" fill="#F8FF6E"/>
<path d="M73.1492 80.5612C72.8199 80.4381 71.9675 79.4238 68.0971 79.7476C66.8033 79.8555 63.1211 81.0068 58.4412 82.4791C58.3568 82.5054 58.2655 82.5026 58.1825 82.4694L47.4085 78.123C47.2742 78.0691 47.1303 78.0483 46.9864 78.0649L44.2369 78.3597C44.1096 78.3735 44.0694 78.5395 44.176 78.6101L52.6336 84.1521C52.6917 84.1908 52.6806 84.2794 52.6128 84.3001C49.7277 85.1885 46.7055 86.0866 43.7733 86.8809C43.4717 86.9625 43.1506 86.9058 42.8932 86.7273L36.8988 82.5594C36.8158 82.5013 36.712 82.4833 36.6151 82.5109L35.4555 82.8264C35.2203 82.8901 35.1276 83.1724 35.277 83.3647L40.361 89.8601C40.4384 89.9597 40.4523 90.094 40.3983 90.2061L39.0616 92.9791C38.9883 93.1313 39.1128 93.3057 39.2802 93.2863L41.1123 93.0663C41.1732 93.0594 41.2286 93.0262 41.2632 92.975L42.467 91.237C42.64 90.9865 42.9209 90.8357 43.2253 90.8246C46.6972 90.7042 50.8111 90.2766 55.5408 89.3301C55.6045 89.3177 55.6612 89.3744 55.646 89.4381L53.6146 97.6106C53.5717 97.7808 53.7433 97.9247 53.9039 97.8555L56.0404 96.9381C56.1788 96.8786 56.2908 96.772 56.3573 96.6378L60.4518 88.3421C60.4836 88.2771 60.5445 88.23 60.6151 88.212C73.8868 85.028 75.0325 82.5926 75.2858 81.9118C75.5667 81.159 73.4758 80.6858 73.1465 80.564L73.1492 80.5612Z" stroke="black" stroke-width="0.415129" stroke-miterlimit="10" stroke-linecap="round"/>
<path d="M135.958 87.1133C133.07 80.82 125.562 76.5995 117.266 76.5995H117.229C108.954 76.6119 101.46 80.838 98.5758 87.1133C98.4845 87.314 98.4845 87.5423 98.5758 87.7429C101.464 94.0363 108.975 98.2568 117.268 98.2568H117.305C125.58 98.2443 133.074 94.0183 135.958 87.7429C136.05 87.5423 136.05 87.314 135.958 87.1133Z" fill="#0564FF"/>
<path d="M118.037 79.1069C112.83 78.6378 108.482 82.9801 108.946 88.1886C109.3 92.1793 112.513 95.3924 116.504 95.7494C121.708 96.213 126.05 91.8763 125.589 86.672C125.237 82.6826 122.026 79.4667 118.037 79.1083V79.1069Z" fill="white"/>
<path d="M118.037 79.1069C112.83 78.6378 108.482 82.9801 108.946 88.1886C109.3 92.1793 112.513 95.3924 116.504 95.7494C121.708 96.213 126.05 91.8763 125.589 86.672C125.237 82.6826 122.026 79.4667 118.037 79.1083V79.1069Z" stroke="black" stroke-width="0.415129" stroke-miterlimit="10" stroke-linecap="round"/>
<path d="M117.266 91.522C119.527 91.522 121.361 89.6888 121.361 87.4274C121.361 85.1661 119.527 83.3329 117.266 83.3329C115.005 83.3329 113.171 85.1661 113.171 87.4274C113.171 89.6888 115.005 91.522 117.266 91.522Z" fill="#F8FF6E"/>
<path d="M117.266 91.522C119.527 91.522 121.361 89.6888 121.361 87.4274C121.361 85.1661 119.527 83.3329 117.266 83.3329C115.005 83.3329 113.171 85.1661 113.171 87.4274C113.171 89.6888 115.005 91.522 117.266 91.522Z" stroke="black" stroke-width="0.415129" stroke-miterlimit="10" stroke-linecap="round"/>
<path d="M107.124 141.381C107.134 141.31 107.142 141.241 107.15 141.17C107.157 141.114 107.164 141.057 107.171 141C107.185 140.877 107.197 140.754 107.21 140.631C107.214 140.593 107.217 140.556 107.22 140.518C107.228 140.424 107.236 140.33 107.243 140.236C107.246 140.195 107.249 140.153 107.251 140.112C107.257 140.016 107.262 139.922 107.268 139.827C107.269 139.792 107.271 139.759 107.274 139.724C107.285 139.463 107.289 139.203 107.285 138.947C107.285 138.93 107.285 138.915 107.285 138.898C107.283 138.785 107.279 138.671 107.274 138.559C107.274 138.548 107.274 138.537 107.274 138.527C107.283 138.195 107.287 137.873 107.287 137.561C107.287 134.75 105.624 131.848 102.119 131.848H102.1C101.484 131.755 100.799 131.822 100.043 131.941C98.0992 132.044 96.0526 133.304 95.7938 133.349C95.5351 133.304 93.4899 132.044 91.5443 131.941C90.7874 131.823 90.1038 131.755 89.488 131.848H89.4686C85.9636 131.848 84.3003 134.75 84.3003 137.561C84.3003 137.873 84.3044 138.195 84.3141 138.527C84.3141 138.538 84.3141 138.549 84.3141 138.559C84.3086 138.671 84.3058 138.785 84.3031 138.898C84.3031 138.915 84.3031 138.93 84.3031 138.947C84.2989 139.203 84.3031 139.461 84.3141 139.724C84.3155 139.757 84.3169 139.792 84.3183 139.827C84.3224 139.921 84.328 140.016 84.3349 140.112C84.3377 140.153 84.3404 140.195 84.3432 140.236C84.3501 140.33 84.357 140.424 84.3667 140.518C84.3695 140.556 84.3722 140.593 84.3764 140.631C84.3875 140.754 84.4013 140.876 84.4151 141C84.4221 141.057 84.429 141.114 84.4359 141.17C84.4442 141.241 84.4525 141.31 84.4622 141.381C84.4719 141.451 84.4816 141.522 84.4913 141.592C84.4982 141.645 84.5065 141.697 84.5134 141.75C84.5203 141.8 84.5272 141.85 84.5341 141.899C85.3298 150.192 88.0655 161.139 91.0129 161.139H91.0198C91.0268 161.139 91.0351 161.139 91.042 161.139C91.0627 161.139 91.0835 161.141 91.1043 161.141C91.1167 161.141 91.1278 161.141 91.1402 161.139C91.1624 161.139 91.1845 161.135 91.2067 161.132C91.2122 161.132 91.2177 161.132 91.2233 161.131C91.2274 161.131 91.2302 161.13 91.2343 161.128C91.262 161.123 91.2883 161.117 91.316 161.109C91.3229 161.106 91.3298 161.105 91.3381 161.103C91.3713 161.092 91.4045 161.08 91.4364 161.065C91.4405 161.062 91.4447 161.059 91.4502 161.058C91.4779 161.044 91.5042 161.03 91.5305 161.012C91.5415 161.005 91.5526 160.997 91.5623 160.99C91.583 160.976 91.6024 160.961 91.6218 160.946C91.6329 160.936 91.6453 160.926 91.6564 160.917C91.6758 160.9 91.6951 160.882 91.7145 160.863C91.7256 160.853 91.7353 160.842 91.7463 160.832C91.7712 160.806 91.7948 160.778 91.8183 160.749C91.8224 160.744 91.828 160.739 91.8321 160.733C91.8598 160.698 91.8875 160.659 91.9138 160.62C91.9221 160.608 91.9304 160.594 91.9387 160.58C91.9567 160.551 91.9746 160.522 91.9926 160.492C91.9968 160.485 92.0009 160.478 92.0051 160.471C92.0092 160.464 92.012 160.456 92.0162 160.447C92.0701 160.348 92.1227 160.24 92.1725 160.118C92.4147 159.522 92.5019 158.874 92.452 158.232C92.4285 157.923 92.4161 157.607 92.4161 157.286C92.4161 153.727 93.9188 150.83 95.7938 150.717C97.6688 150.83 99.1716 153.727 99.1716 157.286C99.1716 157.608 99.1591 157.923 99.1356 158.232C99.0872 158.874 99.1744 159.523 99.4151 160.118C99.465 160.24 99.5175 160.349 99.5715 160.447C99.5757 160.454 99.5784 160.463 99.5826 160.471C99.5867 160.478 99.5909 160.485 99.595 160.492C99.613 160.522 99.631 160.553 99.649 160.58C99.6573 160.594 99.6656 160.608 99.6739 160.62C99.7002 160.661 99.7279 160.698 99.7556 160.733C99.7597 160.738 99.7652 160.744 99.7694 160.749C99.7929 160.778 99.8164 160.806 99.8413 160.832C99.851 160.843 99.8621 160.853 99.8732 160.863C99.8925 160.882 99.9119 160.9 99.9313 160.917C99.9424 160.926 99.9548 160.936 99.9659 160.946C99.9853 160.961 100.006 160.976 100.027 160.99C100.038 160.997 100.049 161.005 100.059 161.012C100.085 161.029 100.113 161.044 100.139 161.058C100.143 161.06 100.147 161.063 100.153 161.065C100.185 161.08 100.218 161.092 100.251 161.103C100.258 161.106 100.265 161.108 100.273 161.109C100.299 161.117 100.327 161.123 100.355 161.128C100.359 161.128 100.362 161.13 100.366 161.131C100.371 161.131 100.377 161.131 100.382 161.132C100.405 161.135 100.427 161.138 100.449 161.139C100.461 161.139 100.472 161.139 100.485 161.141C100.506 161.141 100.526 161.141 100.547 161.139C100.554 161.139 100.562 161.139 100.569 161.139H100.576C103.524 161.139 106.258 150.192 107.055 141.899C107.062 141.85 107.069 141.8 107.076 141.75C107.084 141.697 107.091 141.645 107.098 141.592C107.107 141.522 107.117 141.451 107.127 141.381H107.124Z" fill="#0564FF"/>
<path d="M40.9041 137.479H14.9987C13.7759 137.479 12.7847 138.471 12.7847 139.694V157.346C12.7847 158.569 13.7759 159.56 14.9987 159.56H40.9041C42.1269 159.56 43.1182 158.569 43.1182 157.346V139.694C43.1182 138.471 42.1269 137.479 40.9041 137.479Z" fill="#0564FF"/>
<path d="M30.568 145.876H25.336C23.4942 145.876 21.9956 144.378 21.9956 142.536V136.728C21.9956 134.886 23.4942 133.388 25.336 133.388H30.568C32.4098 133.388 33.9084 134.886 33.9084 136.728V142.536C33.9084 144.378 32.4098 145.876 30.568 145.876ZM25.336 136.018C24.9444 136.018 24.6248 136.336 24.6248 136.729V142.537C24.6248 142.929 24.943 143.248 25.336 143.248H30.568C30.9596 143.248 31.2793 142.93 31.2793 142.537V136.729C31.2793 136.338 30.961 136.018 30.568 136.018H25.336Z" fill="#0564FF"/>
<path d="M40.0511 136.644H36.3703C36.0684 136.644 35.8237 136.889 35.8237 137.19V138.484C35.8237 138.786 36.0684 139.031 36.3703 139.031H40.0511C40.353 139.031 40.5977 138.786 40.5977 138.484V137.19C40.5977 136.889 40.353 136.644 40.0511 136.644Z" fill="#0564FF"/>
<path d="M19.5316 136.644H15.8508C15.5489 136.644 15.3042 136.889 15.3042 137.19V138.484C15.3042 138.786 15.5489 139.031 15.8508 139.031H19.5316C19.8335 139.031 20.0782 138.786 20.0782 138.484V137.19C20.0782 136.889 19.8335 136.644 19.5316 136.644Z" fill="#0564FF"/>
<path d="M27.9511 155.52C31.8174 155.52 34.9516 152.386 34.9516 148.519C34.9516 144.653 31.8174 141.519 27.9511 141.519C24.0849 141.519 20.9507 144.653 20.9507 148.519C20.9507 152.386 24.0849 155.52 27.9511 155.52Z" stroke="black" stroke-width="0.415129" stroke-miterlimit="10" stroke-linecap="round"/>
<path d="M31.2196 147.119H29.5881C29.4567 147.119 29.3501 147.012 29.3501 146.881V145.249C29.3501 144.884 29.054 144.586 28.6873 144.586H27.2122C26.8469 144.586 26.5494 144.883 26.5494 145.249V146.881C26.5494 147.012 26.4428 147.119 26.3114 147.119H24.6799C24.3146 147.119 24.0171 147.415 24.0171 147.782V149.257C24.0171 149.622 24.3132 149.919 24.6799 149.919H26.3114C26.4428 149.919 26.5494 150.026 26.5494 150.157V151.789C26.5494 152.154 26.8455 152.452 27.2122 152.452H28.6873C29.0526 152.452 29.3501 152.156 29.3501 151.789V150.157C29.3501 150.026 29.4567 149.919 29.5881 149.919H31.2196C31.5849 149.919 31.8824 149.623 31.8824 149.257V147.782C31.8824 147.416 31.5863 147.119 31.2196 147.119Z" fill="#F8FF6E"/>
<path d="M31.2196 147.119H29.5881C29.4567 147.119 29.3501 147.012 29.3501 146.881V145.249C29.3501 144.884 29.054 144.586 28.6873 144.586H27.2122C26.8469 144.586 26.5494 144.883 26.5494 145.249V146.881C26.5494 147.012 26.4428 147.119 26.3114 147.119H24.6799C24.3146 147.119 24.0171 147.415 24.0171 147.782V149.257C24.0171 149.622 24.3132 149.919 24.6799 149.919H26.3114C26.4428 149.919 26.5494 150.026 26.5494 150.157V151.789C26.5494 152.154 26.8455 152.452 27.2122 152.452H28.6873C29.0526 152.452 29.3501 152.156 29.3501 151.789V150.157C29.3501 150.026 29.4567 149.919 29.5881 149.919H31.2196C31.5849 149.919 31.8824 149.623 31.8824 149.257V147.782C31.8824 147.416 31.5863 147.119 31.2196 147.119Z" stroke="black" stroke-width="0.415129" stroke-miterlimit="10" stroke-linecap="round"/>
<path d="M157.812 160.15L148.837 145.057C145.906 140.128 151.169 134.401 156.328 136.904L158.948 138.176C159.27 138.332 159.645 138.332 159.966 138.176L162.586 136.904C167.745 134.401 173.008 140.128 170.077 145.057L161.102 160.15C160.36 161.398 158.553 161.398 157.811 160.15H157.812Z" fill="#F8FF6E"/>
<path d="M157.812 160.15L148.837 145.057C145.906 140.128 151.169 134.401 156.328 136.904L158.948 138.176C159.27 138.332 159.645 138.332 159.966 138.176L162.586 136.904C167.745 134.401 173.008 140.128 170.077 145.057L161.102 160.15C160.36 161.398 158.553 161.398 157.811 160.15H157.812Z" stroke="black" stroke-width="0.415129" stroke-miterlimit="10" stroke-linecap="round"/>
</g>
<defs>
<clipPath id="clip0_6618_202539">
<rect width="249.805" height="175.943" fill="white" transform="translate(-0.000488281)"/>
</clipPath>
</defs>
</svg>
