<svg width="101" height="114" viewBox="0 0 101 114" fill="none" xmlns="http://www.w3.org/2000/svg">
<path d="M98.3187 40.3706H39.1471H12.5759H0.114272V102.139C0.113602 102.169 0.113602 102.198 0.114272 102.228C0.199207 105.368 1.48551 108.306 3.73627 110.501C5.99172 112.701 8.96933 113.912 12.1206 113.912H98.3185C99.2474 113.912 100 113.159 100 112.231V42.0521C100 41.1234 99.2474 40.3706 98.3187 40.3706Z" fill="#A8EEFC"/>
<path d="M98.3187 40.3706H39.1471H12.5759H0.114272V102.139C0.113602 102.169 0.113602 102.198 0.114272 102.228C0.199207 105.368 1.48551 108.306 3.73627 110.501C5.99172 112.701 8.96933 113.912 12.1206 113.912H98.3185C99.2474 113.912 100 113.159 100 112.231V42.0521C100 41.1234 99.2474 40.3706 98.3187 40.3706Z" fill="url(#paint0_linear_921_38586)"/>
<path opacity="0.32" d="M98.3187 106.27H12.1206C8.96927 106.27 5.99166 105.058 3.73621 102.859C1.48568 100.663 0.199374 97.7254 0.11444 94.5858C0.113546 94.5563 0.113546 94.5263 0.11444 94.4966V102.139C0.11377 102.169 0.11377 102.199 0.11444 102.228C0.199374 105.368 1.48568 108.306 3.73644 110.501C5.99188 112.701 8.9695 113.912 12.1208 113.912H98.3189C99.2478 113.912 100 113.16 100 112.231V104.589C100 105.517 99.2474 106.27 98.3187 106.27Z" fill="url(#paint1_linear_921_38586)"/>
<path opacity="0.6" d="M29.4749 40.9562C29.1557 40.5621 28.6756 40.333 28.1683 40.333H12.4691C11.5404 40.333 10.7876 41.0858 10.7876 42.0145V58.4443C10.7876 58.8967 10.97 59.3301 11.2934 59.6464C11.6079 59.9539 12.0301 60.1258 12.4691 60.1258C12.4814 60.1258 12.4937 60.1256 12.5064 60.1253C18.138 60.0006 22.9323 56.8377 26.371 50.9786C28.8712 46.7189 29.7762 42.5391 29.8133 42.3634C29.9183 41.8672 29.7941 41.3502 29.4749 40.9562Z" fill="#A1BFF1"/>
<path d="M12.1532 89.5832C5.44517 89.5832 0.00715235 95.0212 0.00715235 101.729C0.00715235 102.117 0.0272683 102.501 0.0630301 102.88C0.0230216 102.736 0 102.585 0 102.429V35.6853C0 28.8096 7.27528 23.2156 14.1507 23.2158V89.7494C13.5005 89.6419 12.8338 89.5832 12.1532 89.5832Z" fill="url(#paint2_linear_921_38586)"/>
<path opacity="0.6" d="M99.167 40.9686C98.8481 40.5665 98.363 40.3325 97.8501 40.3325H60.8273C60.5159 40.3325 60.2106 40.419 59.9453 40.5822C57.5651 42.0482 55.9789 43.1425 55.0953 43.9277C54.2748 44.657 53.8569 45.6447 53.9186 46.7086C53.9925 47.9889 54.7827 49.2636 55.7174 50.3418C51.7337 50.7644 45.7644 51.84 42.1719 54.569C39.5005 56.5985 38.5312 58.4613 39.2904 60.1054C40.4105 62.5312 44.5859 62.7073 53.7015 60.7127C57.7232 59.833 60.4011 60.0907 61.9401 60.4621C63.728 60.8933 64.6797 61.6318 64.9741 62.1792C65.114 62.4391 65.0534 62.4979 64.9531 62.5958C63.9149 63.6069 59.3801 64.378 51.5887 63.8215C47.9598 63.5625 46.4821 65.2169 44.6149 67.3119C43.8635 68.1552 43.0117 69.1109 41.8304 70.2135C38.9384 72.9126 39.161 75.289 39.5513 76.4653C40.459 79.2024 43.8255 81.0278 49.0308 81.6054C55.8499 82.3617 56.9313 86.2566 57.1516 89.1205C57.2931 90.9598 56.7596 91.9007 56.0207 93.2031C55.5569 94.0205 55.0312 94.9474 54.6702 96.1506C54.1204 97.9829 54.1173 100.238 54.6615 102.182C55.3517 104.647 56.8828 106.536 58.9726 107.501C59.6885 107.831 60.4145 107.976 61.1377 107.975C64.9032 107.975 68.5874 104.069 70.3205 102.231C70.4903 102.051 70.6367 101.895 70.7563 101.773C71.8839 100.623 72.2512 98.3745 72.7214 94.8086C72.9154 93.3381 73.1354 91.6716 73.3935 91.0691C73.8148 90.0863 76.8879 87.2285 79.4936 85.1447C79.8715 84.8423 80.1011 84.3914 80.1232 83.9075C80.1453 83.4236 79.9576 82.954 79.6085 82.6183C79.5819 82.5931 76.9306 80.0383 74.6003 77.1289C70.7749 72.3529 71.2588 70.971 71.2659 70.9598C71.8998 70.009 72.3692 69.9625 72.5232 69.9473C74.3106 69.7662 77.9529 73.415 79.1505 74.6126C79.6217 75.0833 80.6697 75.81 82.4035 75.3857C85.8929 74.5317 90.6412 69.1299 92.2127 64.2406C95.3803 56.6099 98.0311 48.6509 99.488 42.3946C99.6037 41.8958 99.486 41.3705 99.167 40.9686Z" fill="#A1BFF1"/>
<path opacity="0.6" d="M37.5844 60.8575C37.0683 59.6525 36.2681 58.8352 35.2058 58.4279C33.0684 57.6083 30.6158 58.7429 28.2441 59.8405C27.7459 60.0712 27.2754 60.2889 26.8112 60.4878C22.6259 62.281 19.7963 69.3634 21.5913 73.5536C22.106 74.7549 22.9174 75.5808 24.003 76.0073C24.5689 76.2297 25.1587 76.3249 25.766 76.3249C27.631 76.3249 29.6573 75.4266 31.6327 74.5507C31.9749 74.3989 32.3136 74.2487 32.645 74.1068C36.7527 72.3468 39.4297 65.1652 37.5844 60.8575Z" fill="#A1BFF1"/>
<path opacity="0.6" d="M57.9597 111.617C57.9161 111.497 56.86 108.651 54.3325 105.905C50.9291 102.209 46.4786 100.426 41.4607 100.75C36.2663 101.086 35.1269 100.081 33.9204 99.0177C32.3252 97.6119 30.7758 96.5616 26.6294 96.8808C17.6693 97.5696 10.8031 110.864 10.515 111.43C10.2497 111.951 10.2743 112.573 10.58 113.072C10.8858 113.571 11.4287 113.875 12.0136 113.875H56.3801C56.929 113.875 57.4433 113.607 57.7578 113.157C58.0725 112.707 58.1478 112.132 57.9597 111.617Z" fill="#A1BFF1"/>
<path d="M54.6251 106.232H13.7541C11.8076 108.924 10.6308 111.203 10.5155 111.43C10.2502 111.952 10.2747 112.573 10.5805 113.072C10.8863 113.571 11.4292 113.875 12.0141 113.875H56.3804C56.9293 113.875 57.4436 113.607 57.7581 113.157C58.0726 112.707 58.1479 112.132 57.9599 111.617C57.9179 111.502 56.9414 108.873 54.6251 106.232Z" fill="#A1BFF1"/>
<path fill-rule="evenodd" clip-rule="evenodd" d="M77.6478 54.9022C77.6478 54.9022 100.197 39.9289 100.197 22.46C100.197 16.5032 97.8212 10.7904 93.5924 6.57838C89.3636 2.36631 83.6282 0 77.6478 0C71.6674 0 65.9319 2.36631 61.7031 6.57838C57.4743 10.7904 55.0986 16.5032 55.0986 22.46C55.0986 39.9289 77.6478 54.9022 77.6478 54.9022ZM88.9232 25.1534C88.9232 31.3556 83.8754 36.3834 77.6487 36.3834C71.4219 36.3834 66.3741 31.3556 66.3741 25.1534C66.3741 18.9512 71.4219 13.9234 77.6487 13.9234C83.8754 13.9234 88.9232 18.9512 88.9232 25.1534Z" fill="url(#paint3_linear_921_38586)" fill-opacity="0.12"/>
<path fill-rule="evenodd" clip-rule="evenodd" d="M72.5491 57.8431C72.5491 57.8431 95.0982 42.8698 95.0982 25.4009C95.0982 19.4442 92.7225 13.7314 88.4938 9.5193C84.265 5.30723 78.5295 2.94092 72.5491 2.94092C66.5687 2.94092 60.8333 5.30723 56.6045 9.5193C52.3757 13.7314 50 19.4442 50 25.4009C50 42.8698 72.5491 57.8431 72.5491 57.8431ZM83.8236 25.1529C83.8236 31.3551 78.7758 36.3829 72.549 36.3829C66.3223 36.3829 61.2745 31.3551 61.2745 25.1529C61.2745 18.9508 66.3223 13.9229 72.549 13.9229C78.7758 13.9229 83.8236 18.9508 83.8236 25.1529Z" fill="url(#paint4_linear_921_38586)"/>
<defs>
<linearGradient id="paint0_linear_921_38586" x1="50.0528" y1="203.284" x2="50.0528" y2="86.6839" gradientUnits="userSpaceOnUse">
<stop stop-color="#D6E6FD"/>
<stop offset="1" stop-color="#D2E3FD"/>
</linearGradient>
<linearGradient id="paint1_linear_921_38586" x1="39.4235" y1="97.8139" x2="83.2836" y2="148.09" gradientUnits="userSpaceOnUse">
<stop stop-color="#A1BFF1"/>
<stop offset="0.9946" stop-color="#2E419B"/>
</linearGradient>
<linearGradient id="paint2_linear_921_38586" x1="11.4355" y1="63.1512" x2="-11.4011" y2="63.1512" gradientUnits="userSpaceOnUse">
<stop stop-color="#5C75C9"/>
<stop offset="1" stop-color="#2E419B"/>
</linearGradient>
<linearGradient id="paint3_linear_921_38586" x1="75.0195" y1="20.7149" x2="146.803" y2="57.105" gradientUnits="userSpaceOnUse">
<stop stop-color="#FD9271"/>
<stop offset="1" stop-color="#FED4C4"/>
</linearGradient>
<linearGradient id="paint4_linear_921_38586" x1="69.61" y1="20.5034" x2="140.383" y2="56.2458" gradientUnits="userSpaceOnUse">
<stop stop-color="#FD9271"/>
<stop offset="1" stop-color="#FED4C4"/>
</linearGradient>
</defs>
</svg>
