<svg width="46" height="46" viewBox="0 0 46 46" fill="none" xmlns="http://www.w3.org/2000/svg">
<circle cx="23" cy="23" r="23" fill="#F36A34"/>
<path d="M26.5914 15.4932C25.6529 16.7064 25.4269 17.1104 24.5207 17.1104H11V32.6667H16.3048C17.5015 32.6667 18.666 32.1064 19.4097 31.1734C20.3804 29.929 20.5096 29.5562 21.447 29.5562H35V14H29.663C28.4662 14 27.3028 14.5602 26.5914 15.4932ZM30.7952 25.543H25.1342C23.9051 25.543 22.7729 26.0408 22.0292 27.005C21.0585 28.2494 20.8648 28.6232 19.9586 28.6232H15.1726V21.1559H20.8335C22.0626 21.1559 23.1948 20.5957 23.9385 19.6627C24.9092 18.4496 25.1675 18.0757 26.0404 18.0757H30.7952V25.543Z" fill="white"/>
</svg>
