<svg width="36" height="36" viewBox="0 0 36 36" fill="none" xmlns="http://www.w3.org/2000/svg">
<rect x="0.5" y="-0.5" width="35.0001" height="35" rx="17.5" transform="matrix(1 -4.37114e-08 -4.37114e-08 -1 9.73536e-08 35)" fill="white"/>
<path fill-rule="evenodd" clip-rule="evenodd" d="M6.00012 13L30.0001 13L30.0001 23.1818L6.00012 23.1818L6.00012 13ZM6.7211 13.6966L6.7211 22.4852L29.2791 22.4852L29.2791 13.6966L6.7211 13.6966Z" fill="black"/>
<path d="M11.3462 20.1438C10.8538 20.1455 10.3812 19.9559 10.0352 19.6174C9.68815 19.2787 9.49621 18.8199 9.50205 18.3434C9.50205 17.2008 10.4933 16.5298 11.3815 16.5298C12.0168 16.5298 12.611 16.7606 12.9287 17.2993L12.3346 17.6346C12.1262 17.3292 11.772 17.1465 11.3935 17.1492C10.871 17.1492 10.249 17.5464 10.249 18.3333C10.249 19.1203 10.8431 19.5233 11.4405 19.5233C11.8485 19.5192 12.221 19.2979 12.4086 18.9479L13.0162 19.222C12.674 19.8228 12.0601 20.1438 11.3467 20.1438H11.3462ZM15.2122 19.4929C15.8897 19.4929 16.3557 19.0007 16.3557 18.3387C16.3557 17.6768 15.8894 17.1846 15.2122 17.1846C14.5349 17.1846 14.0524 17.6709 14.0524 18.3277C14.0524 18.9845 14.5194 19.4926 15.2122 19.4926V19.4929ZM15.1405 20.1438C14.0674 20.1438 13.3035 19.3566 13.3035 18.3365C13.3035 17.3165 14.0605 16.5298 15.1405 16.5298C15.6362 16.5298 16.1134 16.7322 16.3422 17.0429V16.6192L17.0759 16.6192L17.0759 20.0477H16.3422V19.6228C16.1017 19.9316 15.6352 20.144 15.1405 20.144V20.1438ZM20.7835 20.0463L20.7835 17.2814H20.2186V16.5963H20.7906V15.5832H21.5467V16.5966H22.3304L22.3304 17.2814H21.5467L21.5467 20.0458H20.7832V20.0463H20.7835ZM24.4947 19.4929C25.1719 19.4929 25.6389 19.0007 25.6389 18.3387C25.6389 17.6768 25.1719 17.1846 24.4944 17.1846C23.8169 17.1846 23.3359 17.6709 23.3359 18.3277C23.3359 18.9845 23.8019 19.4926 24.4944 19.4926L24.4947 19.4929ZM24.423 20.1438C23.3491 20.1438 22.5867 19.3566 22.5867 18.3365C22.5867 17.3165 23.3428 16.5298 24.423 16.5298C24.9187 16.5298 25.3959 16.7322 25.6247 17.0429L25.6247 16.6192H26.3591L26.3591 20.0477L25.6247 20.0477V19.6228C25.3842 19.9316 24.9177 20.144 24.423 20.144V20.1438ZM17.832 20.0421L17.832 16.6135H18.5311V17.2091C18.6755 16.8243 18.9813 16.559 19.3865 16.559C19.4745 16.5573 19.5622 16.5669 19.6479 16.5867V17.2497C19.0774 17.1858 18.5954 17.5722 18.5954 18.4547L18.5954 20.0418H17.832V20.0421Z" fill="black"/>
<rect x="0.5" y="-0.5" width="35.0001" height="35" rx="17.5" transform="matrix(1 -4.37114e-08 -4.37114e-08 -1 9.73536e-08 35)" stroke="#E8ECEE"/>
</svg>
