<svg width="677" height="358" viewBox="0 0 677 358" fill="none" xmlns="http://www.w3.org/2000/svg">
<rect width="676" height="358" fill="white"/>
<rect y="132" width="314" height="92" rx="20" fill="#F8F8F8"/>
<g clip-path="url(#clip0_3444_24050)">
<path d="M91.879 171.52C88.3015 171.52 86.5453 174.673 86.5453 178.883V189.433H81.5V167.169H86.4569V172.945H86.543C87.6013 169.394 89.7111 166.525 92.9653 166.525C95.2542 166.525 96.2195 167.324 96.2195 167.324L93.9423 171.909C93.9423 171.907 93.2165 171.52 91.879 171.52ZM152.871 174.576V189.431H147.956V176.384C147.956 172.639 146.782 170.656 143.781 170.656C140.673 170.656 139.171 173.164 139.171 177.975V189.428H134.3V176.384C134.3 172.784 133.139 170.656 130.169 170.656C126.777 170.656 125.472 173.627 125.472 177.975V189.428H120.516V167.169H125.472V172.211H125.517C126.289 168.722 128.396 166.568 131.953 166.568C135.479 166.568 137.777 168.464 138.65 171.824C139.48 168.59 141.69 166.568 145.086 166.568C149.824 166.568 152.871 169.539 152.871 174.576ZM106.136 166.525C101.574 166.525 98.5898 168.666 97.229 172.533L101.428 174.06C102.193 171.727 103.789 170.398 106.224 170.398C108.964 170.398 110.574 171.605 110.574 173.457C110.574 175.35 109.292 175.746 106.398 176.213C103.179 176.732 95.524 176.902 95.524 183.36C95.524 187.144 98.6875 189.99 103.44 189.99C107.013 189.99 109.446 188.53 110.571 185.813H110.616V189.431H115.531V175.739C115.528 169.749 112.514 166.525 106.136 166.525ZM110.702 178.952C110.702 183.62 108.392 186.619 104.7 186.619C102.091 186.619 100.525 185.154 100.525 183.042C100.525 181.061 102.135 179.687 105.221 179.12C108.38 178.54 109.971 177.823 110.702 176.105V178.952ZM170.354 166.568C166.595 166.568 164.111 168.634 163.048 171.739V167.169H157.828V198H163.004V184.864H163.048C164.199 188.226 166.598 190.075 170.354 190.075C176.311 190.075 180.575 185.168 180.575 178.233C180.573 171.347 176.311 166.568 170.354 166.568ZM169.07 185.944C164.944 185.944 162.655 182.95 162.655 178.3C162.655 173.65 165.216 170.656 169.07 170.656C172.922 170.656 175.486 173.795 175.486 178.3C175.486 182.807 172.925 185.944 169.07 185.944Z" fill="black"/>
<path d="M231.845 189.329V189.468L211.644 189.475V189.329C214.557 187.684 216.568 186.009 218.377 184.258H226.672L231.845 189.329ZM226.839 163.022L221.719 158H221.57C221.57 158 221.657 167.36 213.06 175.872C204.648 184.204 194.755 184.222 194.755 184.222V184.368L199.971 189.478C199.971 189.478 209.72 189.574 218.331 181.128C226.911 172.709 226.839 163.022 226.839 163.022Z" fill="black"/>
</g>
<rect x="362" y="132" width="314" height="93" rx="20" fill="#F8F8F8"/>
<rect width="103" height="93" rx="20" fill="url(#paint0_linear_3444_24050)"/>
<rect width="180" height="93" rx="20" transform="matrix(-1 0 0 1 677 0)" fill="url(#paint1_linear_3444_24050)"/>
<path d="M430 184.134L436.343 182.929C436.463 186.181 437.487 187.747 439.635 187.747C441.502 187.747 442.365 186.884 442.365 184.374V165.667H448.969V182.809C448.969 189.513 446.199 192.283 439.494 192.283C432.549 192.283 430.522 188.228 430 184.134Z" fill="black"/>
<path d="M453.064 185.383V172.798H459.507V185.504C459.507 187.33 460.371 188.053 461.776 188.053C463.642 188.053 464.767 186.909 464.767 184.259V172.798H471.21V191.766H465.068V186.648H464.907C463.964 191.084 461.876 192.228 459.026 192.228C455.031 192.208 453.064 190.1 453.064 185.383Z" fill="black"/>
<path d="M474.502 187.748L477.974 185.399C479.118 187.527 480.925 188.35 483.294 188.35C485.08 188.35 485.863 187.828 485.863 186.824C485.863 185.68 485.1 185.078 482.972 184.697L480.323 184.195C476.75 183.553 474.823 181.465 474.823 178.534C474.823 174.62 477.974 172.352 482.792 172.352C487.569 172.352 489.817 174.319 491.022 176.527L487.649 178.695C486.786 176.728 485.04 176.086 483.434 176.086C481.768 176.086 480.885 176.688 480.885 177.671C480.885 178.615 481.608 179.157 483.434 179.498L486.124 180C490.098 180.722 492.045 182.348 492.045 185.881C492.045 189.213 489.918 192.224 483.655 192.224C479.038 192.224 475.907 190.458 474.502 187.748Z" fill="black"/>
<path d="M495.879 186.634V176.578H493.31V172.784H495.879V167.806H502.322V172.784H505.433V176.578H502.322V186.052C502.322 187.297 502.824 187.798 503.767 187.798H505.433V191.753H501.218C497.164 191.753 495.879 190.468 495.879 186.634Z" fill="black"/>
<path d="M507.46 172.798H514.445L517.055 184.741H517.215L520.547 172.798H525.867L529.078 184.741H529.239L532.129 172.798H537.208L531.326 191.766H525.786L522.414 179.843H522.254L519.042 191.766H513.502L507.46 172.798Z" fill="black"/>
<path d="M537.811 182.288C537.811 176.226 541.766 172.352 547.667 172.352C553.588 172.352 557.523 176.226 557.523 182.288C557.523 188.35 553.568 192.224 547.667 192.224C541.745 192.224 537.811 188.37 537.811 182.288ZM550.778 182.288C550.778 177.39 549.714 176.106 547.667 176.106C545.619 176.106 544.556 177.39 544.556 182.288C544.556 187.186 545.619 188.47 547.667 188.47C549.714 188.47 550.778 187.186 550.778 182.288Z" fill="black"/>
<path d="M560.374 172.829H566.436V179.132H566.597C567.5 173.933 569.246 172.708 572.056 172.708H572.397V178.389H569.286C567.42 178.389 566.817 178.991 566.817 181.239V191.778H560.374V172.829Z" fill="black"/>
<path d="M583.134 184.154L581.287 186.201V191.741H574.903V165.667H581.287V180.922L587.87 172.772H593.611L587.348 179.597L594.012 191.741H587.188L583.134 184.154Z" fill="black"/>
<path d="M594.436 187.748L597.928 185.399C599.072 187.527 600.88 188.35 603.247 188.35C605.035 188.35 605.817 187.828 605.817 186.824C605.817 185.68 605.054 185.078 602.927 184.697L600.277 184.195C596.703 183.553 594.777 181.465 594.777 178.534C594.777 174.62 597.928 172.352 602.746 172.352C607.523 172.352 609.771 174.319 610.976 176.527L607.603 178.695C606.741 176.728 604.994 176.086 603.388 176.086C601.722 176.086 600.839 176.688 600.839 177.671C600.839 178.615 601.562 179.157 603.388 179.498L606.078 180C610.052 180.722 612 182.348 612 185.881C612 189.213 609.871 192.224 603.61 192.224C598.992 192.224 595.841 190.458 594.436 187.748Z" fill="black"/>
<rect x="143" width="314" height="92" rx="20" fill="white"/>
<rect x="143" width="314" height="92" rx="20" fill="#EF6C48" fill-opacity="0.1"/>
<path d="M278.5 30.9772L270.105 33.562L272.199 35.2987L272.179 39.9837C265.552 36.167 257.584 41.3569 257.584 49.2931C257.584 56.7245 263.296 60.097 266.914 60.097C270.41 60.097 271.813 58.7036 272.626 58.118L274.293 59.7537H280.777L278.52 57.5121V30.9772H278.5ZM264.129 49.2931C263.824 41.2761 269.983 40.6905 272.179 42.508L272.199 56.0178C272.158 56.0582 272.097 56.1188 271.975 56.1995C270.735 57.2497 264.454 58.017 264.129 49.2931Z" fill="#090909"/>
<path d="M298.907 54.099C298.907 54.099 298.643 54.3414 298.623 54.3414C295.391 57.2494 288.053 57.4512 287.931 49.7371L295.432 49.7775C298.806 49.7371 300.96 46.9504 299.538 43.6184C298.745 41.7807 296.001 38.6102 291.326 38.6102C284.821 38.6102 280.837 43.6184 280.837 49.616C280.837 55.3511 285.248 60.1371 291.244 60.1371C296.854 60.1371 299.477 57.0676 300.493 55.8762C299.965 55.2905 299.131 54.3616 298.907 54.099ZM287.972 44.2444C287.972 42.5077 289.395 41.0941 291.143 41.0941C292.891 41.0941 294.314 42.5077 294.314 44.2444C294.314 45.9811 292.891 47.3946 291.143 47.3946H287.972V44.2444Z" fill="#090909"/>
<path d="M340.415 58.0365C340.415 58.0365 340.394 48.7675 340.394 48.2626C340.394 44.4459 339.704 42.79 338.403 41.2553C336.024 38.4685 329.419 37.479 325.129 40.7504C321.918 43.2141 323.686 45.8192 325.658 45.8595C327.61 45.8999 328.24 44.6479 328.849 43.416C329.419 42.2851 330.171 41.0937 331.654 41.0937C333.809 41.0937 334.358 43.1737 334.358 45.1527C334.358 45.2739 334.358 48.3838 334.358 48.3838C332.793 48.3838 330.049 47.4549 327.812 47.5558C325.028 47.6972 321.593 49.5348 321.817 53.9776C322.04 58.7837 326.796 60.0761 329.113 60.0761C332.203 60.0761 333.829 58.6221 334.439 57.9558L336.146 59.7127H342.103L340.415 58.0365ZM334.378 53.816C334.378 55.5526 332.955 56.9662 331.207 56.9662C329.459 56.9662 328.036 55.5526 328.036 53.816C328.036 52.0793 329.459 50.6657 331.207 50.6657H334.378V53.816Z" fill="#090909"/>
<path d="M312.568 46.607C309.356 45.6377 308.177 44.5473 308.197 43.174C308.218 42.548 308.665 40.8921 310.86 40.8315C311.856 40.8114 312.974 41.296 313.523 42.5682C314.275 44.2847 315.596 46.0214 317.71 45.6579C319.296 45.3954 320.475 43.376 317.954 40.9729C316.267 39.3776 313.686 38.59 310.82 38.59C304.762 38.6102 302.506 42.6087 302.506 44.628C302.506 48.4043 305.758 49.6159 307.384 50.2824C309.824 51.2718 312.649 52.1806 313.747 53.9577C314.743 55.5732 313.564 57.6532 311.185 57.5724C309.844 57.5321 308.807 56.6435 308.279 55.6943C307.73 54.7049 307.669 53.5134 306.693 52.6047C304.457 50.5045 301.103 52.4027 302.099 55.3712C303.238 58.7235 307.364 60.1573 311.145 60.1774C316.084 60.1977 320.149 57.8753 320.089 53.4932C320.007 49.4544 315.637 47.5562 312.568 46.607Z" fill="#090909"/>
<path d="M363.364 47.5361C363.302 45.0321 363.18 40.5691 358.79 39.0344C356.188 38.1055 353.199 38.9133 350.395 41.5385L350.314 38.8124L342.57 41.5789L344.623 43.3762L344.601 58.037L342.894 59.7131H352.529L350.862 58.0168L350.882 44.1032C350.882 44.1032 353.993 40.9731 355.924 42.326C357.225 43.2349 357.083 45.7995 357.143 47.94C357.163 48.6872 357.245 58.0168 357.245 58.0168L355.578 59.7131H365.193L363.526 58.0168C363.506 58.037 363.404 50.0402 363.364 47.5361Z" fill="#090909"/>
<path d="M384.259 58.0365C384.259 58.0365 384.239 48.7675 384.239 48.2626C384.239 44.4459 383.549 42.79 382.248 41.2553C379.869 38.4685 373.262 37.479 368.974 40.7504C365.762 43.2141 367.531 45.8192 369.502 45.8595C371.453 45.8999 372.084 44.6479 372.694 43.416C373.242 42.2851 374.015 41.0937 375.499 41.0937C377.654 41.0937 378.202 43.1737 378.202 45.1527C378.202 45.2537 378.202 48.3838 378.202 48.3838C376.637 48.3838 373.893 47.4549 371.657 47.5558C368.872 47.6972 365.437 49.5348 365.661 53.9776C365.884 58.7837 370.641 60.0761 372.958 60.0761C376.048 60.0761 377.674 58.6221 378.284 57.9558L379.991 59.7127H385.946L384.259 58.0365ZM378.202 53.816C378.202 55.5526 376.78 56.9662 375.031 56.9662C373.284 56.9662 371.861 55.5526 371.861 53.816C371.861 52.0793 373.284 50.6657 375.031 50.6657H378.202V53.816Z" fill="#090909"/>
<path d="M226.058 35.5411C226.058 33.138 224.086 31.1792 221.667 31.1792C219.248 31.1792 217.277 33.138 217.277 35.5411C217.277 37.9443 219.248 39.903 221.667 39.903H226.058V35.5411Z" fill="#EF6C48"/>
<path d="M220.508 42.6494C218.801 40.9531 216.016 40.9531 214.288 42.6494C212.56 44.3457 212.581 47.1123 214.288 48.8288C215.996 50.5453 218.78 50.5251 220.508 48.8288L223.618 45.7391L220.508 42.6494Z" fill="#EF6C48"/>
<path d="M221.646 51.5752C219.227 51.5752 217.256 53.5339 217.256 55.9371C217.256 58.3401 219.227 60.299 221.646 60.299C224.065 60.299 226.037 58.3401 226.037 55.9371V51.5752H221.646Z" fill="#EF6C48"/>
<path d="M228.801 57.0679C227.093 58.7642 227.093 61.5308 228.801 63.2473C230.508 64.9637 233.293 64.9436 235.021 63.2473C236.749 61.551 236.728 58.7844 235.021 57.0679L231.911 53.9783L228.801 57.0679Z" fill="#EF6C48"/>
<path d="M237.786 55.9371C237.786 58.3401 239.758 60.299 242.177 60.299C244.595 60.299 246.567 58.3401 246.567 55.9371C246.567 53.5339 244.595 51.5752 242.177 51.5752H237.786V55.9371Z" fill="#EF6C48"/>
<path d="M243.315 48.8289C245.022 50.5252 247.807 50.5252 249.535 48.8289C251.263 47.1326 251.242 44.3661 249.535 42.6495C247.827 40.9331 245.043 40.9532 243.315 42.6495L240.205 45.7393L243.315 48.8289Z" fill="#EF6C48"/>
<path d="M242.177 39.9233C244.595 39.9233 246.567 37.9644 246.567 35.5614C246.567 33.1583 244.595 31.1995 242.177 31.1995C239.758 31.1995 237.786 33.1583 237.786 35.5614V39.9233H242.177Z" fill="#EF6C48"/>
<path d="M235.021 34.4102C236.729 32.7139 236.729 29.9474 235.021 28.2309C233.314 26.5144 230.529 26.5346 228.801 28.2309C227.074 29.9272 227.094 32.6937 228.801 34.4102L231.911 37.4999L235.021 34.4102Z" fill="#EF6C48"/>
<rect x="258" y="265" width="314" height="93" rx="20" fill="white"/>
<rect x="258" y="265" width="314" height="93" rx="20" fill="#00B9FF" fill-opacity="0.1"/>
<path d="M488 309.425C488 300.956 482.091 295 473.807 295C463.261 295 456.193 302.65 456.193 313.575C456.193 322.1 462.159 328 470.584 328C478.246 328 483.957 324.302 486.304 318.402H477.794C476.663 320.237 474.259 321.394 471.319 321.394C466.795 321.394 463.968 318.402 463.714 314.168H487.519C487.83 312.559 488 311.175 488 309.425ZM464.364 308.437C465.127 304.541 468.916 301.436 473.496 301.436C477.454 301.436 480.451 304.316 480.451 308.437H464.364Z" fill="#2E4369"/>
<path d="M433.321 327.238L434.847 319.108C439.512 320.039 440.219 317.414 441.435 311.091L442.029 307.957C443.725 299.122 447.146 294.718 456.928 295.903L455.402 304.033C450.737 303.102 449.917 306.631 448.871 312.107L448.277 315.24C446.581 324.189 443.046 328.424 433.321 327.238Z" fill="#2E4369"/>
<path d="M421.898 327.266L427.666 295.762H435.271L429.532 327.266H421.898Z" fill="#2E4369"/>
<path d="M378.33 295.762H385.709L388.113 318.543L397.782 295.762H405.105L407.677 318.769L417.007 295.762H424.358L410.985 327.266H402.617L399.902 305.586L390.657 327.266H382.571L378.33 295.762Z" fill="#2E4369"/>
<path d="M350.765 304.118L342 312.474H356.9L358.455 308.832H350.906L355.627 304.118L352.885 299.404H365.692L353.875 327.266H358.313L371.686 295.762H345.845L350.765 304.118Z" fill="#00B9FF"/>
<rect width="56" height="93" rx="20" transform="matrix(-1 0 0 1 668 265)" fill="url(#paint2_linear_3444_24050)"/>
<rect y="265" width="218" height="93" rx="20" fill="url(#paint3_linear_3444_24050)"/>
<defs>
<linearGradient id="paint0_linear_3444_24050" x1="103" y1="47" x2="1.09874e-06" y2="47" gradientUnits="userSpaceOnUse">
<stop stop-color="#F8F8F8"/>
<stop offset="1" stop-color="#F8F8F8" stop-opacity="0"/>
</linearGradient>
<linearGradient id="paint1_linear_3444_24050" x1="180" y1="47" x2="1.92012e-06" y2="47" gradientUnits="userSpaceOnUse">
<stop stop-color="#F8F8F8"/>
<stop offset="1" stop-color="#F8F8F8" stop-opacity="0"/>
</linearGradient>
<linearGradient id="paint2_linear_3444_24050" x1="56" y1="47" x2="5.97371e-07" y2="47" gradientUnits="userSpaceOnUse">
<stop stop-color="#F8F8F8"/>
<stop offset="1" stop-color="#F8F8F8" stop-opacity="0"/>
</linearGradient>
<linearGradient id="paint3_linear_3444_24050" x1="218" y1="312" x2="2.32548e-06" y2="312" gradientUnits="userSpaceOnUse">
<stop stop-color="#F8F8F8"/>
<stop offset="1" stop-color="#F8F8F8" stop-opacity="0"/>
</linearGradient>
<clipPath id="clip0_3444_24050">
<rect width="150" height="40" fill="white" transform="translate(81.5 158)"/>
</clipPath>
</defs>
</svg>
