<svg width="46" height="46" viewBox="0 0 46 46" fill="none" xmlns="http://www.w3.org/2000/svg">
<circle cx="23" cy="23" r="23" fill="#4A154B"/>
<g clip-path="url(#clip0_3444_24117)">
<path d="M16.1264 26.4189C16.1264 27.8296 14.9739 28.9821 13.5632 28.9821C12.1524 28.9821 11 27.8296 11 26.4189C11 25.0082 12.1524 23.8557 13.5632 23.8557H16.1264V26.4189Z" fill="#E01E5A"/>
<path d="M17.418 26.4189C17.418 25.0082 18.5704 23.8557 19.9812 23.8557C21.3919 23.8557 22.5443 25.0082 22.5443 26.4189V32.8368C22.5443 34.2476 21.3919 35.4 19.9812 35.4C18.5704 35.4 17.418 34.2476 17.418 32.8368V26.4189Z" fill="#E01E5A"/>
<path d="M19.9812 16.1264C18.5704 16.1264 17.418 14.9739 17.418 13.5632C17.418 12.1524 18.5704 11 19.9812 11C21.3919 11 22.5443 12.1524 22.5443 13.5632V16.1264H19.9812Z" fill="#36C5F0"/>
<path d="M19.9811 17.418C21.3918 17.418 22.5443 18.5704 22.5443 19.9812C22.5443 21.3919 21.3918 22.5443 19.9811 22.5443H13.5632C12.1524 22.5443 11 21.3919 11 19.9812C11 18.5704 12.1524 17.418 13.5632 17.418H19.9811Z" fill="#36C5F0"/>
<path d="M30.2734 19.9812C30.2734 18.5704 31.4259 17.418 32.8366 17.418C34.2474 17.418 35.3998 18.5704 35.3998 19.9812C35.3998 21.3919 34.2474 22.5443 32.8366 22.5443H30.2734V19.9812Z" fill="#2EB67D"/>
<path d="M28.982 19.9811C28.982 21.3918 27.8295 22.5443 26.4188 22.5443C25.008 22.5443 23.8556 21.3918 23.8556 19.9811V13.5632C23.8556 12.1524 25.008 11 26.4188 11C27.8295 11 28.982 12.1524 28.982 13.5632V19.9811Z" fill="#2EB67D"/>
<path d="M26.4187 30.2737C27.8294 30.2737 28.9818 31.4261 28.9818 32.8369C28.9818 34.2476 27.8294 35.4001 26.4187 35.4001C25.0079 35.4001 23.8555 34.2476 23.8555 32.8369V30.2737H26.4187Z" fill="#ECB22E"/>
<path d="M26.4188 28.9821C25.008 28.9821 23.8556 27.8296 23.8556 26.4189C23.8556 25.0082 25.008 23.8557 26.4188 23.8557H32.8367C34.2474 23.8557 35.3999 25.0082 35.3999 26.4189C35.3999 27.8296 34.2474 28.9821 32.8367 28.9821H26.4188Z" fill="#ECB22E"/>
</g>
<defs>
<clipPath id="clip0_3444_24117">
<rect width="24.4" height="24.4" fill="white" transform="translate(11 11)"/>
</clipPath>
</defs>
</svg>
