<svg width="46" height="46" viewBox="0 0 46 46" fill="none" xmlns="http://www.w3.org/2000/svg">
<circle cx="23" cy="23" r="23" fill="#21AAEB"/>
<path d="M12.0078 17.4525L15.6165 24.5153C15.7467 24.0691 15.8613 23.7153 15.9654 23.359C17.0477 19.6884 18.1269 16.0191 19.2031 12.3512C19.2852 12.0689 19.4023 12 19.6835 12C21.2457 12.0143 22.8157 12.0065 24.3818 12.0065H24.7516C24.4717 12.9599 24.2035 13.8782 23.9327 14.7952C22.0945 21.0238 20.2589 27.2528 18.4259 33.4822C18.3282 33.8165 18.1981 33.9179 17.8518 33.9114C16.533 33.888 15.2129 33.8959 13.8929 33.9114C13.697 33.9368 13.5113 33.8176 13.4528 33.6292C12.3324 31.1241 11.2041 28.622 10.068 26.1229C10.0006 25.9932 9.98254 25.8434 10.0172 25.7015C10.6825 22.9843 11.3321 20.2698 12.0078 17.4525Z" fill="white"/>
<path d="M36.8314 12.043C36.5841 12.8897 36.3406 13.7338 36.0906 14.5832C34.2238 20.9037 32.3578 27.2246 30.4927 33.546C30.4132 33.8179 30.3066 33.9088 30.0175 33.9063C28.4019 33.8906 26.7863 33.8985 25.1708 33.8985C25.1109 33.8985 25.0496 33.8894 24.9481 33.8829C25.1851 33.0764 25.4168 32.2895 25.6485 31.5026C26.1757 29.7103 26.6978 27.9153 27.2381 26.1269C27.3305 25.8225 27.2771 25.7457 26.9608 25.7483C25.5678 25.7613 24.1735 25.7483 22.7805 25.7483C22.2923 25.7483 22.2884 25.7483 22.4173 25.2619C22.8079 23.8012 23.2049 22.3418 23.5889 20.8786C23.6567 20.6184 23.7686 20.5222 24.0408 20.5261C25.5196 20.5495 26.9985 20.5455 28.4774 20.5768C28.8016 20.5833 28.9187 20.4663 28.9982 20.1723C29.761 17.5384 30.5396 14.9097 31.3128 12.2796C31.3597 12.121 31.4014 11.9988 31.624 12C33.3294 12.013 35.031 12.0105 36.7324 12.013C36.7664 12.0195 36.7996 12.0294 36.8314 12.043Z" fill="white"/>
</svg>
