<svg viewBox="0 0 36 36" fill="none" xmlns="http://www.w3.org/2000/svg">
<circle cx="18" cy="18" r="18" fill="#617798"/>
<path d="M8.95395 21.5403L9.43864 19.9965H11.9769L12.4616 21.5403H14.3716L11.8908 14.1874H9.5248L7.04395 21.5403H8.95395ZM9.86229 18.6465L10.6773 16.04H10.7347L11.5533 18.6465H9.86229Z" fill="white"/>
<path d="M21.492 16.8514C21.3125 15.0922 20.002 14.0869 18.2249 14.0869C16.2646 14.0869 14.7387 15.4333 14.7387 17.8638C14.7387 20.2837 16.2287 21.6408 18.2249 21.6408C20.2426 21.6408 21.3591 20.2693 21.492 18.9661L19.6969 18.9553C19.5712 19.6626 19.0398 20.0826 18.2608 20.0826C17.2124 20.0826 16.5518 19.3251 16.5518 17.8638C16.5518 16.4601 17.198 15.6451 18.2715 15.6451C19.0793 15.6451 19.6071 16.1154 19.6969 16.8514H21.492Z" fill="white"/>
<path d="M22.5089 21.5403H24.2861V18.5855H27.1834V21.5403H28.957V14.1874H27.1834V17.1386H24.2861V14.1874H22.5089V21.5403Z" fill="white"/>
</svg>