<svg viewBox="0 0 36 36" fill="none" xmlns="http://www.w3.org/2000/svg">
<circle cx="18" cy="18" r="18" fill="#016FD0"/>
<path d="M7.05176 24.9958V19.3711H12.7973L13.4142 20.2044L14.0518 19.3711H34.9098V24.6079C34.9098 24.6079 34.3658 24.9887 33.7351 24.9958H22.185L21.4885 24.1087V24.9958H19.2117V23.4837C19.2117 23.4837 18.8998 23.6956 18.2276 23.6956H17.4513V24.9994H14.0033L13.3864 24.1482L12.7627 24.9994H7.05176V24.9958Z" fill="white"/>
<path d="M0.342773 15.133L1.63882 12.001H3.88091L4.61557 13.7538V12.001H7.40172L7.83836 13.2689L8.26113 12.001H20.7676V12.6367C20.7676 12.6367 21.4261 12.001 22.5038 12.001L26.5617 12.0153L27.286 13.7466V12.001H29.6182L30.2593 12.9959V12.001H32.6122V17.6257H30.2593L29.6459 16.6272V17.6257H26.2221L25.879 16.7386H24.9573L24.6177 17.6257H22.2959C21.3671 17.6257 20.7711 17.0008 20.7711 17.0008V17.6257H17.2641L16.5676 16.7386V17.6257H3.54824L3.20516 16.7386H2.28684L1.94377 17.6257H0.342773V15.133Z" fill="white"/>
<path d="M2.09615 12.6938L0.349609 16.907H1.48625L1.80853 16.063H3.68329L4.00557 16.907H5.16993L3.42339 12.6938H2.09615ZM2.74418 13.6744L3.31596 15.147H2.17239L2.74418 13.6744Z" fill="#016FD0"/>
<path d="M5.28809 16.907V12.6938L6.90641 12.701L7.84553 15.4164L8.76385 12.6938H10.3683V16.907H9.35296V13.8001L8.27523 16.9034H7.38463L6.30344 13.8001V16.9034H5.28809V16.907Z" fill="#016FD0"/>
<path d="M11.0645 16.907V12.6938H14.3773V13.6349H12.0902V14.3568H14.3254V15.244H12.0902V15.9911H14.3773V16.907H11.0645Z" fill="#016FD0"/>
<path d="M14.9668 12.6938V16.907H15.9821V15.4092H16.4084L17.6282 16.907H18.8688L17.5312 15.3554C18.0787 15.3087 18.647 14.8202 18.647 14.0623C18.647 13.1751 17.9747 12.6974 17.2262 12.6974L14.9668 12.6938ZM15.9821 13.6349H17.143C17.4203 13.6349 17.6247 13.8612 17.6247 14.0767C17.6247 14.3568 17.3614 14.5185 17.1569 14.5185H15.9821V13.6349Z" fill="#016FD0"/>
<path d="M20.0996 16.907H19.0635V12.6938H20.0996V16.907Z" fill="#016FD0"/>
<path d="M22.5586 16.9073H22.3334C21.2487 16.9073 20.5938 16.0238 20.5938 14.8205C20.5938 13.5885 21.2452 12.6978 22.6106 12.6978H23.7334V13.6963H22.569C22.0146 13.6963 21.6195 14.1452 21.6195 14.8313C21.6195 15.6466 22.07 15.9878 22.7146 15.9878H22.9814L22.5586 16.9073Z" fill="#016FD0"/>
<path d="M24.77 12.6938L23.0234 16.907H24.1601L24.4824 16.063H26.3571L26.6794 16.907H27.8438L26.0937 12.6938H24.77ZM25.4145 13.6744L25.9863 15.147H24.8428L25.4145 13.6744Z" fill="#016FD0"/>
<path d="M27.958 16.907V12.6938H29.2506L30.9001 15.341V12.6938H31.9154V16.907H30.6645L28.9734 14.1916V16.907H27.958Z" fill="#016FD0"/>
<path d="M7.74805 24.2776V20.0645H11.0644V21.0055H8.77726V21.7275H11.0124V22.6146H8.77726V23.3617H11.0644V24.2776H7.74805Z" fill="#016FD0"/>
<path d="M23.9902 24.2776V20.0645H27.3066V21.0055H25.0194V21.7275H27.2442V22.6146H25.0194V23.3617H27.3066V24.2776H23.9902Z" fill="#016FD0"/>
<path d="M11.1924 24.2776L12.8073 22.198L11.1543 20.0645H12.433L13.4172 21.3826L14.4048 20.0645H15.635L14.0028 22.1692L15.6212 24.274H14.3424L13.386 22.9774L12.4538 24.274L11.1924 24.2776Z" fill="#016FD0"/>
<path d="M15.7422 20.0645V24.2776H16.7853V22.9487H17.8561C18.7605 22.9487 19.4467 22.4494 19.4467 21.4832C19.4467 20.6822 18.9095 20.068 17.9877 20.068H15.7422V20.0645ZM16.7853 21.0163H17.9115C18.2026 21.0163 18.414 21.2031 18.414 21.5012C18.414 21.7813 18.2061 21.9861 17.908 21.9861H16.7853V21.0163Z" fill="#016FD0"/>
<path d="M19.8838 20.0645V24.2776H20.8991V22.7799H21.3254L22.5452 24.2776H23.7858L22.4516 22.726C22.9992 22.6793 23.5675 22.1908 23.5675 21.4329C23.5675 20.5458 22.8952 20.068 22.1467 20.068L19.8838 20.0645ZM20.9026 21.0055H22.0635C22.3407 21.0055 22.5452 21.2318 22.5452 21.4473C22.5452 21.7275 22.2818 21.8891 22.0774 21.8891H20.9026V21.0055Z" fill="#016FD0"/>
<path d="M27.7786 24.2779V23.362H29.8128C30.1143 23.362 30.2425 23.1932 30.2425 23.01C30.2425 22.834 30.1143 22.6545 29.8128 22.6545H28.8945C28.0974 22.6545 27.6504 22.1516 27.6504 21.3937C27.6504 20.7185 28.0593 20.0684 29.2445 20.0684H31.2232L30.7969 21.0166H29.0851C28.7593 21.0166 28.6588 21.1962 28.6588 21.365C28.6588 21.541 28.7836 21.7314 29.0331 21.7314H29.9964C30.887 21.7314 31.2717 22.2558 31.2717 22.9418C31.2717 23.6781 30.842 24.2815 29.9479 24.2815H27.7786V24.2779Z" fill="#016FD0"/>
<path d="M31.5061 24.2779V23.362H33.5403C33.8418 23.362 33.97 23.1932 33.97 23.01C33.97 22.834 33.8418 22.6545 33.5403 22.6545H32.622C31.825 22.6545 31.3779 22.1516 31.3779 21.3937C31.3779 20.7185 31.7868 20.0684 32.972 20.0684H34.9507L34.5245 21.0166H32.8126C32.4868 21.0166 32.3864 21.1962 32.3864 21.365C32.3864 21.541 32.5111 21.7314 32.7606 21.7314H33.724C34.6146 21.7314 34.9992 22.2558 34.9992 22.9418C34.9992 23.6781 34.5695 24.2815 33.6755 24.2815H31.5061V24.2779Z" fill="#016FD0"/>
</svg>
