<svg viewBox="0 0 36 36" xml:space="preserve" xmlns="http://www.w3.org/2000/svg"><defs><clipPath clipPathUnits="userSpaceOnUse" id="a"><path d="M0 0h2833.48v901.031H0Z"/></clipPath></defs><circle style="fill:#eaf0f6;fill-opacity:1;stroke-width:.264583" cx="18.0745" cy="18.0179" r="18"/><g clip-path="url(#a)" transform="matrix(.0116 0 0 -.0116 1.5393 23.4757)"><path d="M1040.38 463.066c.09 266.106-159.704 381.442-341.376 422.118v13.761c330.486-17.304 572.566-218.39 572.486-448.457C1271.4 187.793 986.523.4688 635.188.7227 283.848.9687.6406 202.734.7227 451.379.8164 712.246 248.285 900.605 670.039 900.309l-.117-324.071-99.695 2.043c-213.645-7.383-461.082-100.39-461.125-225.558-.047-137.684 234.789-303.348 516.789-303.5433 228.093-.1563 414.399 165.2033 414.489 413.8863" style="fill:#231f20;fill-opacity:1;fill-rule:nonzero;stroke:none"/><path d="M1040.38 463.066c.09 266.106-159.704 381.442-341.376 422.118v13.761c330.486-17.304 572.566-218.39 572.486-448.457C1271.4 187.793 986.523.4688 635.188.7227 283.848.9687.6406 202.734.7227 451.379.8164 712.246 248.285 900.605 670.039 900.309l-.117-324.071-99.695 2.043c-213.645-7.383-461.082-100.39-461.125-225.558-.047-137.684 234.789-303.348 516.789-303.5433 228.093-.1563 414.399 165.2033 414.489 413.8863Z" style="fill:none;stroke:#231f20;stroke-width:1.44387;stroke-linecap:butt;stroke-linejoin:miter;stroke-miterlimit:4;stroke-dasharray:none;stroke-opacity:1"/><path d="M667.891 86.4063c-121.059 8.7226-276.7 89.4917-276.653 228.5737.051 137.676 132.684 237.411 276.821 242.793l-.168-471.3667" style="fill:#231f20;fill-opacity:1;fill-rule:nonzero;stroke:none"/><path d="M667.891 86.4063c-121.059 8.7226-276.7 89.4917-276.653 228.5737.051 137.676 132.684 237.411 276.821 242.793Z" style="fill:none;stroke:#231f20;stroke-width:1.44387;stroke-linecap:butt;stroke-linejoin:miter;stroke-miterlimit:4;stroke-dasharray:none;stroke-opacity:1"/><path d="m2556.98 711.816-6.35-35.8c-16.56 5.554-174.63 42.586-176.92-75-1.83-94.161 141.98-82.61 174.93-73.848l3.68-39.035c-108.11-30.184-251.73 2.773-254.64 113.847-3.37 128.071 186.58 143.899 259.3 109.836" style="fill:#231f20;fill-opacity:1;fill-rule:nonzero;stroke:none"/><path d="m2556.98 711.816-6.35-35.8c-16.56 5.554-174.63 42.586-176.92-75-1.83-94.161 141.98-82.61 174.93-73.848l3.68-39.035c-108.11-30.184-251.73 2.773-254.64 113.847-3.37 128.071 186.58 143.899 259.3 109.836z" style="fill:none;stroke:#231f20;stroke-width:1.44387;stroke-linecap:butt;stroke-linejoin:miter;stroke-miterlimit:4;stroke-dasharray:none;stroke-opacity:1"/><path d="m2668.68 481.633.07 201.676-97.11.078v38.496l261.11-.184-.01-38.496-95.28.067-.07-201.688-68.71.051" style="fill:#231f20;fill-opacity:1;fill-rule:nonzero;stroke:none"/><path d="m2668.68 481.633.07 201.676-97.11.078v38.496l261.11-.184-.01-38.496-95.28.067-.07-201.688z" style="fill:none;stroke:#231f20;stroke-width:1.44387;stroke-linecap:butt;stroke-linejoin:miter;stroke-miterlimit:4;stroke-dasharray:none;stroke-opacity:1"/><path d="m2086.33 723.992 192.55-.125-.01-40.273-128.29.086-.07-199.84-64.27.047.09 240.105" style="fill:#231f20;fill-opacity:1;fill-rule:nonzero;stroke:none"/><path d="m2086.33 723.992 192.55-.125-.01-40.273-128.29.086-.07-199.84-64.27.047z" style="fill:none;stroke:#231f20;stroke-width:1.44387;stroke-linecap:butt;stroke-linejoin:miter;stroke-miterlimit:4;stroke-dasharray:none;stroke-opacity:1"/><path d="m2144.52 622.773 126.78-.089-.02-40.262-126.77.086.01 40.265" style="fill:#231f20;fill-opacity:1;fill-rule:nonzero;stroke:none"/><path d="m2144.52 622.773 126.78-.089-.02-40.262-126.77.086z" style="fill:none;stroke:#231f20;stroke-width:1.44387;stroke-linecap:butt;stroke-linejoin:miter;stroke-miterlimit:4;stroke-dasharray:none;stroke-opacity:1"/><path d="m2144.48 524.109 133.32-.086-.01-40.273-133.32.098.01 40.261" style="fill:#231f20;fill-opacity:1;fill-rule:nonzero;stroke:none"/><path d="m2144.48 524.109 133.32-.086-.01-40.273-133.32.098z" style="fill:none;stroke:#231f20;stroke-width:1.44387;stroke-linecap:butt;stroke-linejoin:miter;stroke-miterlimit:4;stroke-dasharray:none;stroke-opacity:1"/><path d="m1655.47 484.695.08 239.106 71.94-.051-.09-239.113-71.93.058" style="fill:#231f20;fill-opacity:1;fill-rule:nonzero;stroke:none"/><path d="m1655.47 484.695.08 239.106 71.94-.051-.09-239.113z" style="fill:none;stroke:#231f20;stroke-width:1.44387;stroke-linecap:butt;stroke-linejoin:miter;stroke-miterlimit:4;stroke-dasharray:none;stroke-opacity:1"/><path d="m1324.92 482.91.09 239.102 71.94-.047-.08-239.106-71.95.051" style="fill:#231f20;fill-opacity:1;fill-rule:nonzero;stroke:none"/><path d="m1324.92 482.91.09 239.102 71.94-.047-.08-239.106z" style="fill:none;stroke:#231f20;stroke-width:1.44387;stroke-linecap:butt;stroke-linejoin:miter;stroke-miterlimit:4;stroke-dasharray:none;stroke-opacity:1"/><path d="m1372.71 482.883 14.61 38.75 53.83 1.461c62.39-.039 100.13 34.668 100.15 80.48.02 55.371-50.28 81.582-89.02 81.602l-65.4 3.574-9.05 33.23 75.98-.054c87.37-.063 162.98-46.926 162.96-120.676-.03-74.246-75.67-118.496-163.06-118.43l-81 .063" style="fill:#231f20;fill-opacity:1;fill-rule:nonzero;stroke:none"/><path d="m1372.71 482.883 14.61 38.75 53.83 1.461c62.39-.039 100.13 34.668 100.15 80.48.02 55.371-50.28 81.582-89.02 81.602l-65.4 3.574-9.05 33.23 75.98-.054c87.37-.063 162.98-46.926 162.96-120.676-.03-74.246-75.67-118.496-163.06-118.43Z" style="fill:none;stroke:#231f20;stroke-width:1.44387;stroke-linecap:butt;stroke-linejoin:miter;stroke-miterlimit:4;stroke-dasharray:none;stroke-opacity:1"/><path d="m1324.82 182.488.08 239.106 71.95-.051-.08-239.102-71.95.047" style="fill:#231f20;fill-opacity:1;fill-rule:nonzero;stroke:none"/><path d="m1324.82 182.488.08 239.106 71.95-.051-.08-239.102z" style="fill:none;stroke:#231f20;stroke-width:1.44387;stroke-linecap:butt;stroke-linejoin:miter;stroke-miterlimit:4;stroke-dasharray:none;stroke-opacity:1"/><path d="m1372.62 182.461 14.6 38.75 53.83 1.465c62.39-.047 100.13 34.66 100.14 80.469.02 55.371-50.28 81.582-89.01 81.613l-65.4 3.57-9.06 33.223 75.97-.047c87.39-.059 162.99-46.934 162.96-120.676-.02-74.246-75.65-118.492-163.04-118.437l-80.99.07" style="fill:#231f20;fill-opacity:1;fill-rule:nonzero;stroke:none"/><path d="m1372.62 182.461 14.6 38.75 53.83 1.465c62.39-.047 100.13 34.66 100.14 80.469.02 55.371-50.28 81.582-89.01 81.613l-65.4 3.57-9.06 33.223 75.97-.047c87.39-.059 162.99-46.934 162.96-120.676-.02-74.246-75.65-118.492-163.04-118.437z" style="fill:none;stroke:#231f20;stroke-width:1.44387;stroke-linecap:butt;stroke-linejoin:miter;stroke-miterlimit:4;stroke-dasharray:none;stroke-opacity:1"/><path d="m2051.8 180.867.08 259.25 69.44-.051-.1-259.246-69.42.047" style="fill:#231f20;fill-opacity:1;fill-rule:nonzero;stroke:none"/><path d="m2051.8 180.867.08 259.25 69.44-.051-.1-259.246z" style="fill:none;stroke:#231f20;stroke-width:1.44387;stroke-linecap:butt;stroke-linejoin:miter;stroke-miterlimit:4;stroke-dasharray:none;stroke-opacity:1"/><path d="m2435.65 178.594.07 177.695 69.43-.059-.06-177.683-69.44.047" style="fill:#231f20;fill-opacity:1;fill-rule:nonzero;stroke:none"/><path d="m2435.65 178.594.07 177.695 69.43-.059-.06-177.683z" style="fill:none;stroke:#231f20;stroke-width:1.44387;stroke-linecap:butt;stroke-linejoin:miter;stroke-miterlimit:4;stroke-dasharray:none;stroke-opacity:1"/><path d="m2435.75 439.344 69.43-.047-.02-45.813-69.43.051.02 45.809" style="fill:#231f20;fill-opacity:1;fill-rule:nonzero;stroke:none"/><path d="m2435.75 439.344 69.43-.047-.02-45.813-69.43.051z" style="fill:none;stroke:#231f20;stroke-width:1.44387;stroke-linecap:butt;stroke-linejoin:miter;stroke-miterlimit:4;stroke-dasharray:none;stroke-opacity:1"/><path d="m2670.12 225.242.06 176.692 70.93-.051-.06-168.641c0-22.648 38.74-29.726 60.87-22.187l-.02-39.27c-47.79-11.043-131.8-9.461-131.78 53.457" style="fill:#231f20;fill-opacity:1;fill-rule:nonzero;stroke:none"/><path d="m2670.12 225.242.06 176.692 70.93-.051-.06-168.641c0-22.648 38.74-29.726 60.87-22.187l-.02-39.27c-47.79-11.043-131.8-9.461-131.78 53.457z" style="fill:none;stroke:#231f20;stroke-width:1.44387;stroke-linecap:butt;stroke-linejoin:miter;stroke-miterlimit:4;stroke-dasharray:none;stroke-opacity:1"/><path d="m2614.81 318.406.01 37.754 185.14-.125-.01-37.754-185.14.125" style="fill:#231f20;fill-opacity:1;fill-rule:nonzero;stroke:none"/><path d="m2614.81 318.406.01 37.754 185.14-.125-.01-37.754z" style="fill:none;stroke:#231f20;stroke-width:1.44387;stroke-linecap:butt;stroke-linejoin:miter;stroke-miterlimit:4;stroke-dasharray:none;stroke-opacity:1"/><path d="m1767.08 292.258 111.69.203c-3.01 26.965-23.13 42.09-53.32 42.098-32.7.019-57.35-12.539-58.37-42.301zm-.51-33.156c3.5-68.965 142.36-44.395 160.98-24.778l-.02-41.785c-27.67-13.074-63.32-14.562-102.88-14.523-72.11.05-130.55 36.836-130.53 96.742.03 53.375 53.88 95.594 130.59 95.543 59.12-.039 124.51-27.774 119.95-111.328l-178.09.129" style="fill:#231f20;fill-opacity:1;fill-rule:nonzero;stroke:none"/><path d="m1767.08 292.258 111.69.203c-3.01 26.965-23.13 42.09-53.32 42.098-32.7.019-57.35-12.539-58.37-42.301zm-.51-33.156c3.5-68.965 142.36-44.395 160.98-24.778l-.02-41.785c-27.67-13.074-63.32-14.562-102.88-14.523-72.11.05-130.55 36.836-130.53 96.742.03 53.375 53.88 95.594 130.59 95.543 59.12-.039 124.51-27.774 119.95-111.328z" style="fill:none;stroke:#231f20;stroke-width:1.44387;stroke-linecap:butt;stroke-linejoin:miter;stroke-miterlimit:4;stroke-dasharray:none;stroke-opacity:1"/><path d="m1859.77 620.461 46.78-.031c18.62-.008 45.29 12.05 45.3 31.933.01 21.895-22.04 32.481-44.26 32.5l-47.8.028zm164.02 40.152c-.02-56.883-53.56-61.148-56.37-61.367 8.55-5.547 16.19-16.551 16.6-17.129l55.09-98.183-75.07.058-37.89 71.485c-.51 1.242-10.06 24.668-39.31 24.191l-26.59.02-.03-95.645-71.3.051.07 240.117 128.94-.09c36.09-.027 105.88-9.141 105.86-63.508" style="fill:#231f20;fill-opacity:1;fill-rule:nonzero;stroke:none"/><path d="m1859.77 620.461 46.78-.031c18.62-.008 45.29 12.05 45.3 31.933.01 21.895-22.04 32.481-44.26 32.5l-47.8.028zm164.02 40.152c-.02-56.883-53.56-61.148-56.37-61.367 8.55-5.547 16.19-16.551 16.6-17.129l55.09-98.183-75.07.058-37.89 71.485c-.51 1.242-10.06 24.668-39.31 24.191l-26.59.02-.03-95.645-71.3.051.07 240.117 128.94-.09c36.09-.027 105.88-9.141 105.86-63.508z" style="fill:none;stroke:#231f20;stroke-width:1.44387;stroke-linecap:butt;stroke-linejoin:miter;stroke-miterlimit:4;stroke-dasharray:none;stroke-opacity:1"/><path d="M2120.75 268.164c-.01-30.168 27.23-54.641 60.86-54.656 33.62-.031 60.88 24.414 60.89 54.566.01 30.168-27.24 54.641-60.86 54.66-33.61.028-60.88-24.406-60.89-54.57zm-20.62 2.02c.02 66.203 43.8 92.851 106.42 92.804 58.5-.039 105.4-31.277 105.37-92.949-.02-60.156-47.44-95.859-105.92-95.82-67.68.047-105.9 28.769-105.87 95.965" style="fill:#231f20;fill-opacity:1;fill-rule:nonzero;stroke:none"/><path d="M2120.75 268.164c-.01-30.168 27.23-54.641 60.86-54.656 33.62-.031 60.88 24.414 60.89 54.566.01 30.168-27.24 54.641-60.86 54.66-33.61.028-60.88-24.406-60.89-54.57zm-20.62 2.02c.02 66.203 43.8 92.851 106.42 92.804 58.5-.039 105.4-31.277 105.37-92.949-.02-60.156-47.44-95.859-105.92-95.82-67.68.047-105.9 28.769-105.87 95.965z" style="fill:none;stroke:#231f20;stroke-width:1.44387;stroke-linecap:butt;stroke-linejoin:miter;stroke-miterlimit:4;stroke-dasharray:none;stroke-opacity:1"/></g></svg>