<svg viewBox="0 0 36 36" fill="none" xmlns="http://www.w3.org/2000/svg">
<circle opacity="0.1" cx="18" cy="18" r="18" fill="#0090FF"/>
<path fill-rule="evenodd" clip-rule="evenodd" d="M10.6665 24.6667C10.6665 24.2985 10.965 24 11.3332 24H24.6665C25.0347 24 25.3332 24.2985 25.3332 24.6667C25.3332 25.0349 25.0347 25.3333 24.6665 25.3333H11.3332C10.965 25.3333 10.6665 25.0349 10.6665 24.6667Z" fill="#0090FF"/>
<path fill-rule="evenodd" clip-rule="evenodd" d="M11.9998 22.3333C11.9998 21.9651 12.2983 21.6667 12.6665 21.6667H23.3332C23.7014 21.6667 23.9998 21.9651 23.9998 22.3333C23.9998 22.7015 23.7014 23 23.3332 23H12.6665C12.2983 23 11.9998 22.7015 11.9998 22.3333Z" fill="#0090FF"/>
<path fill-rule="evenodd" clip-rule="evenodd" d="M17.9998 16.3333C18.368 16.3333 18.6665 16.6318 18.6665 17V20.1667C18.6665 20.5349 18.368 20.8333 17.9998 20.8333C17.6316 20.8333 17.3332 20.5349 17.3332 20.1667V17C17.3332 16.6318 17.6316 16.3333 17.9998 16.3333Z" fill="#0090FF"/>
<path fill-rule="evenodd" clip-rule="evenodd" d="M10.6908 14.8446C10.6108 14.5558 10.7333 14.2492 10.9902 14.095L17.6569 10.095C17.868 9.96833 18.1318 9.96833 18.3429 10.095L25.0096 14.095C25.2665 14.2492 25.389 14.5558 25.309 14.8446C25.2291 15.1334 24.9662 15.3333 24.6666 15.3333H11.3332C11.0336 15.3333 10.7707 15.1334 10.6908 14.8446ZM13.7401 14H22.2597L17.9999 11.4441L13.7401 14Z" fill="#0090FF"/>
<path fill-rule="evenodd" clip-rule="evenodd" d="M21.6665 16.3333C22.0347 16.3333 22.3332 16.6318 22.3332 17V20.1667C22.3332 20.5349 22.0347 20.8333 21.6665 20.8333C21.2983 20.8333 20.9998 20.5349 20.9998 20.1667V17C20.9998 16.6318 21.2983 16.3333 21.6665 16.3333Z" fill="#0090FF"/>
<path fill-rule="evenodd" clip-rule="evenodd" d="M14.3332 16.3333C14.7014 16.3333 14.9998 16.6318 14.9998 17V20.1667C14.9998 20.5349 14.7014 20.8333 14.3332 20.8333C13.965 20.8333 13.6665 20.5349 13.6665 20.1667V17C13.6665 16.6318 13.965 16.3333 14.3332 16.3333Z" fill="#0090FF"/>
</svg>
