<svg  viewBox="0 0 36 36" fill="none" xmlns="http://www.w3.org/2000/svg">
<circle cx="18" cy="18" r="18" fill="#FF9066"/>
<path fill-rule="evenodd" clip-rule="evenodd" d="M12.2654 13.6533C11.9759 13.6533 11.7412 13.888 11.7412 14.1776V21.823C11.7412 22.1125 11.9759 22.3472 12.2654 22.3472H23.7336C24.0231 22.3472 24.2578 22.1125 24.2578 21.823V14.1776C24.2578 13.888 24.0231 13.6533 23.7336 13.6533H12.2654ZM10.2412 14.1776C10.2412 13.0596 11.1475 12.1533 12.2654 12.1533H23.7336C24.8515 12.1533 25.7578 13.0596 25.7578 14.1776V21.823C25.7578 22.9409 24.8515 23.8472 23.7336 23.8472H12.2654C11.1475 23.8472 10.2412 22.9409 10.2412 21.823V14.1776Z" fill="white"/>
<path fill-rule="evenodd" clip-rule="evenodd" d="M10.2412 16.7261C10.2412 16.3119 10.577 15.9761 10.9912 15.9761H25.0078C25.422 15.9761 25.7578 16.3119 25.7578 16.7261C25.7578 17.1403 25.422 17.4761 25.0078 17.4761H10.9912C10.577 17.4761 10.2412 17.1403 10.2412 16.7261Z" fill="white"/>
</svg>
