<svg xmlns="http://www.w3.org/2000/svg" width="44" height="44" fill="none"><rect width="44" height="44" fill="#0052FF" rx="22"/><g clip-path="url(#a)"><path fill="#fff" d="M11.266 20.827c-1.308 0-2.33 1.01-2.33 2.364 0 1.352.996 2.354 2.33 2.354 1.333 0 2.347-1.019 2.347-2.363 0-1.335-.996-2.355-2.347-2.355Zm.009 3.743c-.745 0-1.29-.588-1.29-1.38 0-.799.536-1.387 1.28-1.387.754 0 1.3.597 1.3 1.388 0 .79-.546 1.38-1.29 1.38Zm2.623-2.715h.65v3.603h1.04v-4.543h-1.69v.94Zm-7.577-.052c.546 0 .979.342 1.143.852h1.1c-.2-1.09-1.083-1.828-2.234-1.828-1.308 0-2.33 1.01-2.33 2.364 0 1.353.996 2.355 2.33 2.355 1.125 0 2.026-.739 2.225-1.837H7.464c-.156.51-.589.861-1.135.861-.753 0-1.281-.588-1.281-1.38 0-.799.52-1.387 1.273-1.387Zm27.322.948-.762-.114c-.363-.052-.623-.175-.623-.465 0-.317.338-.474.796-.474.503 0 .823.219.893.58h1.004c-.113-.915-.805-1.45-1.87-1.45-1.1 0-1.828.57-1.828 1.379 0 .773.477 1.221 1.438 1.362l.762.114c.372.052.58.202.58.483 0 .36-.364.51-.866.51-.615 0-.961-.255-1.013-.642h-1.022c.095.888.78 1.512 2.026 1.512 1.135 0 1.888-.528 1.888-1.433 0-.808-.545-1.23-1.403-1.361Zm-18.575-3.707a.649.649 0 0 0-.667.668c0 .386.285.667.667.667a.649.649 0 0 0 .667-.668.649.649 0 0 0-.667-.667Zm15.25 3.427c0-.984-.589-1.643-1.836-1.643-1.178 0-1.836.606-1.966 1.537h1.03c.053-.36.33-.659.919-.659.528 0 .788.238.788.528 0 .377-.476.474-1.065.535-.797.088-1.784.37-1.784 1.424 0 .817.598 1.344 1.55 1.344.745 0 1.212-.316 1.446-.817.035.448.364.738.823.738h.606v-.94h-.51V22.47h-.001Zm-1.022 1.142c0 .606-.52 1.054-1.152 1.054-.39 0-.719-.167-.719-.518 0-.448.529-.571 1.014-.624.467-.044.727-.15.857-.351v.439Zm-5.516-2.786c-.58 0-1.066.246-1.412.66V19h-1.04v6.458h1.023v-.598c.346.43.84.686 1.429.686 1.247 0 2.19-1.002 2.19-2.355s-.96-2.364-2.19-2.364Zm-.156 3.743c-.745 0-1.29-.588-1.29-1.38 0-.79.554-1.387 1.298-1.387.754 0 1.282.589 1.282 1.388 0 .79-.546 1.38-1.29 1.38Zm-4.78-3.743c-.676 0-1.118.281-1.378.677v-.589h-1.03v4.542h1.039V22.99c0-.695.433-1.186 1.073-1.186.598 0 .97.43.97 1.054v2.6h1.04v-2.679c0-1.142-.58-1.95-1.715-1.95ZM40 23.042c0-1.3-.935-2.214-2.191-2.214-1.334 0-2.312 1.019-2.312 2.363 0 1.415 1.048 2.355 2.33 2.355 1.082 0 1.93-.65 2.147-1.573H38.89c-.156.404-.537.633-1.048.633-.667 0-1.169-.422-1.281-1.16H40v-.404Zm-3.378-.352c.165-.633.633-.94 1.17-.94.588 0 1.039.343 1.143.94h-2.313Z"/></g><defs><clipPath id="a"><path fill="#fff" d="M0 0h36v6.545H0z" transform="translate(4 19)"/></clipPath></defs></svg>