<svg width="154" height="79" viewBox="0 0 154 79" fill="none" xmlns="http://www.w3.org/2000/svg"><path opacity="0.34" d="M4 78C7.66631 64.4689 14.699 46.4837 28.8976 42.0296C41.1631 38.1491 41.4631 47.7322 56.395 49.9593C95.7912 55.8306 114.256 0.221515 135.787 8.92731C149.486 14.4612 157.819 32.8514 152.252 53.4686C149.086 65.245 142.82 73.4109 138.754 77.9325L4 78Z" fill="url(#paint0_linear_11918_109095)"/><path d="M14.7666 36L15.1 36.6333C15.5333 37.4 16.1333 38.0333 16.9 38.4333L17.5333 38.7667L16.9 39.1C16.1333 39.5333 15.5 40.1333 15.1 40.9L14.7666 41.5333L14.4333 40.9C14 40.1333 13.4 39.5 12.6333 39.1L12 38.7667L12.6333 38.4333C13.4 38 14.0333 37.4 14.4333 36.6333L14.7666 36Z" fill="#5C74C6" fill-opacity="0.3"/><path d="M136.833 28L137.3 28.8667C137.867 29.9333 138.733 30.7667 139.8 31.3667L140.667 31.8333L139.8 32.3C138.733 32.8667 137.9 33.7333 137.3 34.8L136.833 35.6667L136.367 34.8C135.8 33.7333 134.933 32.9 133.867 32.3L133 31.8333L133.867 31.3667C134.933 30.8 135.767 29.9333 136.367 28.8667L136.833 28Z" fill="#5C74C6" fill-opacity="0.3"/><path d="M26.8333 54L27.3 54.8667C27.8666 55.9333 28.7333 56.7667 29.8 57.3667L30.6667 57.8333L29.8 58.3C28.7333 58.8667 27.9 59.7333 27.3 60.8L26.8333 61.6667L26.3667 60.8C25.8 59.7333 24.9333 58.9 23.8667 58.3L23 57.8333L23.8667 57.3667C24.9333 56.8 25.7667 55.9333 26.3667 54.8667L26.8333 54Z" fill="#5C74C6" fill-opacity="0.3"/><mask id="mask0_11918_109095" style="mask-type:alpha" maskUnits="userSpaceOnUse" x="27" y="0" width="104" height="78"><rect x="27" width="104" height="78" fill="#D9D9D9"/></mask><g mask="url(#mask0_11918_109095)"><g filter="url(#filter0_d_11918_109095)"><rect x="43" width="72" height="100" rx="3.45507" fill="white"/></g><circle cx="100" cy="24" r="5" fill="#624DE3" fill-opacity="0.15"/><path d="M54.0546 22.2308V26H53.3718V22.2308H54.0546ZM57.8914 22.2308V26H57.284L55.508 23.4326H55.4767V26H54.7939V22.2308H55.405L57.1791 24.8H57.2122V22.2308H57.8914ZM59.1396 22.2308L60.1206 25.1976H60.1592L61.1383 22.2308H61.8892L60.5604 26H59.7175L58.3906 22.2308H59.1396ZM65.5512 24.1154C65.5512 24.5215 65.4751 24.8694 65.323 25.1589C65.172 25.4473 64.9659 25.6681 64.7046 25.8215C64.4445 25.9748 64.1494 26.0515 63.8193 26.0515C63.4893 26.0515 63.1936 25.9748 62.9323 25.8215C62.6721 25.6669 62.466 25.4454 62.3139 25.1571C62.163 24.8675 62.0875 24.5203 62.0875 24.1154C62.0875 23.7093 62.163 23.3621 62.3139 23.0737C62.466 22.7842 62.6721 22.5627 62.9323 22.4094C63.1936 22.256 63.4893 22.1793 63.8193 22.1793C64.1494 22.1793 64.4445 22.256 64.7046 22.4094C64.9659 22.5627 65.172 22.7842 65.323 23.0737C65.4751 23.3621 65.5512 23.7093 65.5512 24.1154ZM64.8647 24.1154C64.8647 23.8295 64.8199 23.5884 64.7303 23.3921C64.642 23.1946 64.5193 23.0455 64.3623 22.9449C64.2052 22.8431 64.0242 22.7922 63.8193 22.7922C63.6144 22.7922 63.4335 22.8431 63.2764 22.9449C63.1194 23.0455 62.9961 23.1946 62.9065 23.3921C62.8182 23.5884 62.774 23.8295 62.774 24.1154C62.774 24.4013 62.8182 24.643 62.9065 24.8405C62.9961 25.0368 63.1194 25.1859 63.2764 25.2878C63.4335 25.3884 63.6144 25.4387 63.8193 25.4387C64.0242 25.4387 64.2052 25.3884 64.3623 25.2878C64.5193 25.1859 64.642 25.0368 64.7303 24.8405C64.8199 24.643 64.8647 24.4013 64.8647 24.1154ZM66.8795 22.2308V26H66.1967V22.2308H66.8795ZM70.8451 23.5026H70.1568C70.1372 23.3897 70.101 23.2897 70.0482 23.2026C69.9955 23.1142 69.9298 23.0394 69.8513 22.978C69.7728 22.9167 69.6832 22.8707 69.5826 22.84C69.4832 22.8081 69.3759 22.7922 69.2605 22.7922C69.0556 22.7922 68.874 22.8437 68.7158 22.9468C68.5575 23.0486 68.4336 23.1983 68.344 23.3958C68.2544 23.5921 68.2096 23.832 68.2096 24.1154C68.2096 24.4037 68.2544 24.6467 68.344 24.8442C68.4348 25.0405 68.5587 25.189 68.7158 25.2896C68.874 25.389 69.055 25.4387 69.2587 25.4387C69.3716 25.4387 69.4771 25.424 69.5752 25.3945C69.6746 25.3638 69.7636 25.319 69.8421 25.2602C69.9218 25.2013 69.9887 25.1289 70.0427 25.043C70.0979 24.9571 70.136 24.8589 70.1568 24.7485L70.8451 24.7522C70.8194 24.9313 70.7635 25.0994 70.6776 25.2565C70.593 25.4135 70.4819 25.5522 70.3445 25.6724C70.2071 25.7914 70.0464 25.8847 69.8623 25.9521C69.6783 26.0184 69.474 26.0515 69.2495 26.0515C68.9182 26.0515 68.6225 25.9748 68.3624 25.8215C68.1023 25.6681 67.8974 25.4466 67.7477 25.1571C67.598 24.8675 67.5232 24.5203 67.5232 24.1154C67.5232 23.7093 67.5986 23.3621 67.7495 23.0737C67.9005 22.7842 68.106 22.5627 68.3661 22.4094C68.6262 22.256 68.9207 22.1793 69.2495 22.1793C69.4593 22.1793 69.6544 22.2087 69.8347 22.2676C70.0151 22.3265 70.1758 22.413 70.3169 22.5271C70.458 22.64 70.574 22.7787 70.6648 22.9431C70.7568 23.1063 70.8169 23.2927 70.8451 23.5026ZM71.4704 26V22.2308H73.9218V22.8032H72.1532V23.8265H73.7948V24.3988H72.1532V25.4276H73.9366V26H71.4704Z" fill="#624DE3" fill-opacity="0.6"/><path d="M43 3.45507C43 1.54689 44.5469 0 46.4551 0H111.545C113.453 0 115 1.54689 115 3.45507V10H43V3.45507Z" fill="#DDDDF4"/><line x1="54.0797" y1="37.8031" x2="103.92" y2="37.8031" stroke="#E0E1F0" stroke-width="2.15942" stroke-linecap="round" stroke-linejoin="round"/><line x1="54.0797" y1="43.5922" x2="103.92" y2="43.5922" stroke="#E0E1F0" stroke-width="2.15942" stroke-linecap="round" stroke-linejoin="round"/><line x1="54.0797" y1="48.5531" x2="85.9203" y2="48.5531" stroke="#E0E1F0" stroke-width="2.15942" stroke-linecap="round" stroke-linejoin="round"/><line x1="54.0797" y1="60.1312" x2="103.92" y2="60.1312" stroke="#E0E1F0" stroke-width="2.15942" stroke-linecap="round" stroke-linejoin="round"/><line x1="54.0797" y1="65.9183" x2="85.9203" y2="65.9183" stroke="#E0E1F0" stroke-width="2.15942" stroke-linecap="round" stroke-linejoin="round"/><line x1="54.0797" y1="70.8812" x2="103.92" y2="70.8812" stroke="#E0E1F0" stroke-width="2.15942" stroke-linecap="round" stroke-linejoin="round"/></g><rect y="78" width="133" height="1" rx="0.5" fill="#5C75C9" fill-opacity="0.3"/><rect x="135" y="78" width="8" height="1" rx="0.5" fill="#5C75C9" fill-opacity="0.3"/><defs><filter id="filter0_d_11918_109095" x="35" y="-4" width="88" height="116" filterUnits="userSpaceOnUse" color-interpolation-filters="sRGB"><feFlood flood-opacity="0" result="BackgroundImageFix"/><feColorMatrix in="SourceAlpha" type="matrix" values="0 0 0 0 0 0 0 0 0 0 0 0 0 0 0 0 0 0 127 0" result="hardAlpha"/><feOffset dy="4"/><feGaussianBlur stdDeviation="4"/><feColorMatrix type="matrix" values="0 0 0 0 0.164913 0 0 0 0 0.201569 0 0 0 0 0.245833 0 0 0 0.1 0"/><feBlend mode="normal" in2="BackgroundImageFix" result="effect1_dropShadow_11918_109095"/><feBlend mode="normal" in="SourceGraphic" in2="effect1_dropShadow_11918_109095" result="shape"/></filter><linearGradient id="paint0_linear_11918_109095" x1="3.27164" y1="74.905" x2="149.482" y2="40.0869" gradientUnits="userSpaceOnUse"><stop stop-color="#D6E6FD"/><stop offset="1" stop-color="#D2E3FD"/></linearGradient></defs></svg>