<svg viewBox="0 0 36 36" fill="none" xmlns="http://www.w3.org/2000/svg">
<circle cx="18" cy="18" r="18" fill="#E8ECEE"/>
<path d="M13.3171 25.6341C17.3582 25.6341 20.6341 22.3582 20.6341 18.3171C20.6341 14.276 17.3582 11 13.3171 11C9.27597 11 6 14.276 6 18.3171C6 22.3582 9.27597 25.6341 13.3171 25.6341Z" fill="#EE0005"/>
<path d="M22.6833 25.6341C26.7244 25.6341 30.0004 22.3582 30.0004 18.3171C30.0004 14.276 26.7244 11 22.6833 11C18.6422 11 15.3662 14.276 15.3662 18.3171C15.3662 22.3582 18.6422 25.6341 22.6833 25.6341Z" fill="#F9A000"/>
<path d="M15.3662 18.317C15.3662 20.6889 16.3955 22.8024 18.0004 24.1707C19.6051 22.8023 20.6345 20.6889 20.6345 18.317C20.6345 15.9452 19.6052 13.8317 18.0004 12.4634C16.3956 13.8318 15.3662 15.9452 15.3662 18.317Z" fill="#FF6300"/>
</svg>
