<svg viewBox="0 0 36 36" fill="none" xmlns="http://www.w3.org/2000/svg">
<circle cx="18" cy="18" r="17.5" fill="#3D41B6" stroke="#3D41B6"/>
<path d="M11.04 17.0522H9.33008C9.33008 16.77 9.29687 16.5791 9.23047 16.4878C9.13086 16.3467 8.84863 16.272 8.38379 16.272C7.93555 16.272 7.63672 16.3135 7.49561 16.3965C7.35449 16.4795 7.27979 16.6538 7.27979 16.936C7.27979 17.1851 7.34619 17.3511 7.4707 17.4258C7.56201 17.4839 7.68652 17.5171 7.83594 17.5254L8.18457 17.5503C8.92334 17.6001 9.38818 17.6333 9.5708 17.6499C10.1602 17.708 10.5835 17.8657 10.8408 18.1147C11.0483 18.314 11.1729 18.5713 11.2144 18.8867C11.2393 19.0776 11.2476 19.2935 11.2476 19.5342C11.2476 20.082 11.1978 20.4888 11.0898 20.7461C10.8989 21.2192 10.4673 21.5098 9.80322 21.6343C9.521 21.6841 9.09766 21.7173 8.5249 21.7173C7.56201 21.7173 6.89795 21.6592 6.51611 21.543C6.05127 21.4019 5.74414 21.1196 5.60303 20.688C5.52002 20.4473 5.47852 20.0488 5.47852 19.4927H7.18848C7.18848 19.5508 7.18848 19.6006 7.18848 19.6338C7.18848 19.9326 7.27148 20.1235 7.4458 20.2065C7.56201 20.2646 7.70312 20.2979 7.87744 20.2979H8.5083C8.83203 20.2979 9.03125 20.2812 9.12256 20.248C9.28027 20.1899 9.37988 20.0903 9.42969 19.9492C9.45459 19.8662 9.47119 19.7583 9.47119 19.6172C9.47119 19.3184 9.36328 19.1357 9.13916 19.0693C9.05615 19.0444 8.67432 19.0112 7.99365 18.9614C7.4458 18.9199 7.06396 18.8867 6.85645 18.8452C6.29199 18.7373 5.91846 18.5215 5.73584 18.1978C5.56982 17.9155 5.48682 17.5005 5.48682 16.936C5.48682 16.5044 5.52832 16.1641 5.61963 15.9067C5.71094 15.6494 5.85205 15.4502 6.05127 15.3174C6.3418 15.1099 6.70703 14.9937 7.15527 14.9521C7.52881 14.9189 7.94385 14.9023 8.40039 14.9023C9.12256 14.9023 9.62891 14.9438 9.93603 15.0269C10.6831 15.2261 11.0566 15.7905 11.0566 16.7119C11.0566 16.7866 11.0483 16.9028 11.04 17.0522Z" fill="white"/>
<path d="M18.5771 21.7095V14.8696H21.2583H21.6816H22.0054C22.4785 14.8696 22.8354 14.9111 23.0845 14.9858C23.6489 15.1602 24.0308 15.5254 24.2217 16.0732C24.3213 16.3638 24.3711 16.7954 24.3711 17.3682C24.3711 18.0654 24.313 18.5635 24.2051 18.8623C23.981 19.46 23.5327 19.8086 22.8521 19.8999C22.769 19.9165 22.4287 19.9248 21.8228 19.9331L21.5156 19.9414H20.4199V21.7095H18.5771ZM20.4199 18.356H21.5654C21.9307 18.3394 22.1548 18.3145 22.2295 18.2729C22.3374 18.2148 22.4121 18.0903 22.4453 17.916C22.4702 17.7998 22.4785 17.6172 22.4785 17.3848C22.4785 17.0942 22.4536 16.8784 22.4121 16.7373C22.3457 16.5381 22.188 16.4219 21.939 16.3804C21.8892 16.3721 21.7729 16.3721 21.582 16.3721H20.4199V18.356Z" fill="white"/>
<path d="M28.2974 20.5308H25.832L25.5 21.7095H23.5908L25.6577 14.8696H28.4385L30.522 21.7095H28.6543L28.2974 20.5308ZM27.9321 19.1943L27.0688 16.231L26.2305 19.1943H27.9321Z" fill="white"/>
<path d="M16.0376 15.8325C16.793 15.8325 17.4736 16.1812 17.9219 16.729L18.3203 15.874C17.6895 15.293 16.8511 14.9277 15.9131 14.9277C14.4604 14.9277 13.2236 15.8076 12.709 17.0444H11.937L11.4805 18.0239H12.4766C12.4683 18.1152 12.4683 18.2065 12.4683 18.2979C12.4683 18.4141 12.4766 18.522 12.4849 18.6299H11.9868L11.5303 19.6094H12.7422C13.2651 20.8213 14.4854 21.6763 15.9131 21.6763C16.6353 21.6763 17.2993 21.4605 17.8555 21.0952V19.8916C17.4072 20.398 16.7598 20.7217 16.0293 20.7217C15.1826 20.7217 14.4355 20.2817 13.9956 19.6177H16.5356L16.9922 18.6382H13.6304C13.6138 18.522 13.6055 18.3975 13.6055 18.2729C13.6055 18.1899 13.6138 18.1069 13.6138 18.0239H17.2827L17.7393 17.0444H13.9375C14.3525 16.3223 15.1328 15.8325 16.0376 15.8325Z" fill="#F3C534"/>
</svg>
