<svg viewBox="0 0 87 36" width="87" height="36" fill="none" xmlns="http://www.w3.org/2000/svg"><path fill-rule="evenodd" clip-rule="evenodd" d="M86.516 18.6c0-6.151-2.98-11.006-8.676-11.006-5.72 0-9.18 4.855-9.18 10.959 0 7.233 4.085 10.886 9.949 10.886 2.86 0 5.023-.649 6.657-1.562v-4.806c-1.634.817-3.509 1.321-5.888 1.321-2.331 0-4.398-.817-4.662-3.652h11.751c0-.313.049-1.562.049-2.14Zm-11.872-2.282c0-2.716 1.658-3.845 3.172-3.845 1.466 0 3.028 1.13 3.028 3.845h-6.2ZM59.383 7.594c-2.355 0-3.869 1.106-4.71 1.875l-.313-1.49h-5.286V36l6.008-1.274.023-6.8c.866.624 2.14 1.513 4.254 1.513 4.302 0 8.22-3.46 8.22-11.079-.025-6.969-3.99-10.766-8.196-10.766Zm-1.442 16.558c-1.418 0-2.259-.505-2.836-1.13l-.023-8.915c.624-.697 1.49-1.178 2.86-1.178 2.186 0 3.7 2.451 3.7 5.6 0 3.22-1.49 5.623-3.7 5.623ZM40.806 6.176l6.032-1.298V0l-6.032 1.274v4.902Z" fill="#635BFF"/><path d="M46.838 8.003h-6.032V29.03h6.032V8.003Z" fill="#635BFF"/><path fill-rule="evenodd" clip-rule="evenodd" d="m34.342 9.781-.385-1.778h-5.19V29.03h6.007V14.78c1.418-1.85 3.822-1.514 4.566-1.25V8.003c-.769-.289-3.58-.817-4.998 1.778ZM22.326 2.788l-5.864 1.25-.024 19.25c0 3.556 2.668 6.175 6.224 6.175 1.97 0 3.413-.36 4.206-.793v-4.878c-.77.312-4.566 1.418-4.566-2.14v-8.53h4.566v-5.12h-4.566l.024-5.214ZM6.08 14.107c0-.938.77-1.298 2.043-1.298 1.826 0 4.133.553 5.96 1.538V8.7c-1.995-.793-3.966-1.106-5.96-1.106C3.244 7.594 0 10.142 0 14.395c0 6.633 9.132 5.576 9.132 8.435 0 1.106-.961 1.466-2.307 1.466-1.995 0-4.542-.817-6.56-1.922v5.72a16.66 16.66 0 0 0 6.56 1.37c4.999 0 8.435-2.476 8.435-6.778-.024-7.161-9.18-5.888-9.18-8.58Z" fill="#635BFF"/></svg>