<svg viewBox="0 0 36 36" fill="none" xmlns="http://www.w3.org/2000/svg">
<circle cx="18" cy="18" r="18" fill="#E8ECEE"/>
<path d="M11.8386 13.1727L9.31824 19.0971L8.29617 14.0576C8.18002 13.4964 7.70383 13.1727 7.18118 13.1727H3.05807L3 13.4209C3.84785 13.5935 4.81185 13.8741 5.39257 14.1655C5.75261 14.3489 5.84553 14.5 5.97329 14.9317L7.90128 21.8813H10.4681L14.3937 13.1727H11.8386ZM15.4274 13.1727L13.4181 21.8705H15.8455L17.8548 13.1619H15.4274V13.1727ZM29.3298 15.5252L30.0616 18.795H28.0523L29.3298 15.5252ZM28.9698 13.1727C28.5052 13.1727 28.1103 13.4209 27.9361 13.8094L24.3008 21.8813H26.8444L27.3554 20.5755H30.4681L30.7584 21.8813H33L31.0372 13.1727H28.9698ZM18.5168 15.8921C18.5052 17.1439 19.7247 17.8453 20.6423 18.2662C21.583 18.6978 21.9082 18.9676 21.8966 19.3453C21.885 19.9281 21.1417 20.187 20.4448 20.1978C19.2253 20.2194 18.5168 19.8957 17.9594 19.6475L17.518 21.5468C18.0871 21.7842 19.1324 22 20.2125 22.0108C22.7561 22.0108 24.4286 20.8453 24.4286 19.0324C24.4402 16.7338 21.0139 16.6043 21.0372 15.5791C21.0488 15.2662 21.3624 14.9317 22.0708 14.8453C22.4193 14.8022 23.3717 14.7698 24.4634 15.2338L24.8931 13.3885C24.3124 13.1942 23.5575 13 22.6283 13C20.2125 13.0108 18.5285 14.1978 18.5168 15.8921Z" fill="url(#paint0_linear)"/>
<defs>
<linearGradient id="paint0_linear" x1="3" y1="22.0108" x2="34" y2="22.0108" gradientUnits="userSpaceOnUse">
<stop stop-color="#241F5D"/>
<stop offset="1" stop-color="#034EA1"/>
</linearGradient>
</defs>
</svg>
