<svg width="108" height="72" viewBox="0 0 108 72" fill="none" xmlns="http://www.w3.org/2000/svg">
<path opacity="0.34" d="M2.81445 90.6159C6.29105 77.8875 13.0787 60.9604 26.6209 56.7286C38.3089 53.0919 38.6069 62.0844 52.8444 64.1673C90.4248 69.6884 108.006 17.3863 128.568 25.5853C141.647 30.8089 149.593 48.0997 144.262 67.4734C141.216 78.5487 135.19 86.3511 131.283 90.5829L2.81445 90.6159Z" fill="url(#paint0_linear_8713_80449)"/>
<path d="M102.412 15.2051L102.743 15.8332C103.174 16.5936 103.77 17.2218 104.531 17.6185L105.16 17.9491L104.531 18.2797C103.77 18.7095 103.141 19.3046 102.743 20.065L102.412 20.6932L102.081 20.065C101.651 19.3046 101.055 18.6765 100.293 18.2797L99.6641 17.9491L100.293 17.6185C101.055 17.1887 101.684 16.5936 102.081 15.8332L102.412 15.2051Z" fill="#5C74C6" fill-opacity="0.3"/>
<mask id="mask0_8713_80449" style="mask-type:alpha" maskUnits="userSpaceOnUse" x="43" y="17" width="74" height="74">
<path d="M80.1266 90.5843C100.242 90.5843 116.548 74.3023 116.548 54.2174C116.548 34.1325 100.242 17.8506 80.1266 17.8506C60.0116 17.8506 43.7051 34.1325 43.7051 54.2174C43.7051 74.3023 60.0116 90.5843 80.1266 90.5843Z" fill="url(#paint1_linear_8713_80449)"/>
</mask>
<g mask="url(#mask0_8713_80449)">
<path d="M80.1266 90.5843C100.242 90.5843 116.548 74.3023 116.548 54.2174C116.548 34.1325 100.242 17.8506 80.1266 17.8506C60.0116 17.8506 43.7051 34.1325 43.7051 54.2174C43.7051 74.3023 60.0116 90.5843 80.1266 90.5843Z" fill="#5C75C9"/>
<path d="M80.1266 90.5843C100.242 90.5843 116.548 74.3023 116.548 54.2174C116.548 34.1325 100.242 17.8506 80.1266 17.8506C60.0116 17.8506 43.7051 34.1325 43.7051 54.2174C43.7051 74.3023 60.0116 90.5843 80.1266 90.5843Z" fill="url(#paint2_linear_8713_80449)"/>
<path d="M99.6176 44.985C103.594 46.4171 106.802 50.5992 107.114 52.7825C107.427 54.9657 101.804 59.3323 101.492 60.8918C101.18 62.4512 102.876 67.6797 101.804 71.8081C100.942 75.1306 100.554 79.6056 97.7434 79.6056C94.9326 79.6056 88.7711 75.7817 88.6848 70.8725C88.6609 69.5109 89.2844 68.8032 89.3096 67.4416C89.3674 64.3201 88.6576 62.2141 86.4983 59.9561C83.6978 57.0276 77.7521 60.5799 76.5022 57.149C75.2522 53.7181 78.3765 47.4802 81.1874 45.6088C83.9983 43.7375 87.7473 42.178 89.3096 43.1137C90.8719 44.0494 88.9968 45.2969 90.559 45.2969C92.1213 45.2969 96.2879 43.786 99.6176 44.985Z" fill="#60D6E6"/>
<path d="M46.2044 62.4517C45.9546 61.2041 47.558 60.4764 48.391 60.2684C47.9746 59.7486 46.9543 58.7089 46.2046 58.7089C45.2675 58.7089 44.3304 54.6543 44.3304 53.7186C44.3304 52.97 41.8315 51.7432 40.582 51.2234L46.2046 31.262L69.9444 16.291C70.2567 17.2267 71.1314 19.2228 72.1309 19.7219C73.3804 20.3457 61.1981 25.6479 61.1981 26.2717C61.1981 26.8955 57.4498 28.7669 56.2003 29.7026C54.9508 30.6383 56.5127 32.5096 56.2003 33.7572C55.8879 35.0048 60.5734 30.3264 61.1981 29.7026C61.8229 29.0788 62.4476 29.3907 63.3847 29.3907C64.3218 29.3907 62.76 30.9501 63.0723 31.8858C63.3847 32.8215 64.9465 30.9502 65.5713 30.6383C66.196 30.3264 67.4454 37.5 61.8229 39.9952C56.2003 42.4904 56.2003 48.1045 55.2632 48.4163C54.3261 48.7282 54.6378 45.9212 54.0137 45.2974C53.3897 44.6736 50.2647 44.9855 46.5163 48.4163C43.5176 51.161 46.9328 56.4217 49.0152 58.7089C49.5358 58.7089 51.3892 58.3347 54.6378 56.8376C58.6985 54.9662 70.2561 64.9469 70.8808 66.1945C71.5055 67.4421 69.6313 73.68 68.3819 74.6157C67.1324 75.5514 68.0695 78.9822 68.0695 80.5417C68.0695 82.1012 75.5663 86.1558 75.5663 87.4034C75.5663 88.651 63.384 83.9726 62.7593 81.4774C62.2595 79.4813 53.5966 72.5364 49.3276 69.3134C48.3907 67.546 46.4543 63.6993 46.2044 62.4517Z" fill="#60D6E6"/>
<path d="M78.0653 38.4358C79.6268 36.8763 79.002 38.1239 81.8137 35.3168C84.6253 32.5097 90.4816 28.5996 90.8719 22.2171C90.9918 20.2568 91.8093 17.8506 91.8093 17.8506L118.36 23.1528L120.547 49.664L118.36 50.2878C118.36 50.2878 116.886 44.7343 113.987 43.4261C112.094 42.5718 109.301 41.5547 108.677 43.1142C108.053 44.6737 112.425 45.9213 111.801 47.1689C111.176 48.4164 108.053 49.0402 105.866 47.7926C103.679 46.5451 101.194 45.7216 99.6185 43.1142C98.9398 41.9909 99.3405 41.5019 98.3687 40.619C96.6331 39.0423 94.7196 41.4613 92.4341 40.9309C90.292 40.4338 89.6225 39.0595 87.4359 39.3714C85.2494 39.6833 80.8768 45.2975 79.3147 45.2975C77.7527 45.2975 76.8161 43.738 76.5034 42.8023C76.1908 41.8666 76.5038 39.9952 78.0653 38.4358Z" fill="#60D6E6"/>
</g>
<path d="M58.2736 65.1276C53.4729 51.5727 60.426 31.2403 82.4445 33.7199" stroke="#2F458C" stroke-opacity="0.08" stroke-width="2"/>
<ellipse cx="57.6136" cy="65.1272" rx="1.98663" ry="1.98365" fill="#FD9271"/>
<ellipse cx="82.1155" cy="33.0579" rx="1.98663" ry="1.98365" fill="#FD9271"/>
<path d="M57.6128 65.127C49.1698 52.5638 55.1301 27.2723 82.1146 32.8927" stroke="#FD9271" stroke-width="2"/>
<path d="M29.6906 28.8586L30.8813 30.0116L25.4687 34.083C24.8553 34.5514 23.9532 34.083 23.9893 33.3263L24.0975 25.9042L17.3137 21.8328C16.6282 21.4365 16.8086 20.3916 17.5663 20.2115L46.6861 13.2217L29.6906 28.8586Z" fill="url(#paint3_linear_8713_80449)"/>
<path d="M24.0605 25.9042L46.6852 13.2217L30.8443 30.0116L25.3595 34.119C24.7822 34.5514 23.9162 34.119 23.9523 33.3984L24.0605 25.9042Z" fill="#A1BFF1"/>
<path d="M46.6856 13.2217L38.8915 34.3712C38.675 34.9117 38.0255 35.1278 37.5564 34.8036L30.8808 30.0476L30.3757 29.5432C30.0148 29.1829 30.0148 28.6064 30.4117 28.2461L46.6856 13.2217Z" fill="url(#paint4_linear_8713_80449)"/>
<defs>
<linearGradient id="paint0_linear_8713_80449" x1="74.3775" y1="24.7109" x2="74.3775" y2="90.6159" gradientUnits="userSpaceOnUse">
<stop stop-color="#F9FBFF"/>
<stop offset="1" stop-color="#F0F5FF"/>
</linearGradient>
<linearGradient id="paint1_linear_8713_80449" x1="76.8934" y1="111.662" x2="84.0416" y2="-14.3343" gradientUnits="userSpaceOnUse">
<stop stop-color="#5C75C9"/>
<stop offset="1" stop-color="#2E419B"/>
</linearGradient>
<linearGradient id="paint2_linear_8713_80449" x1="80.1266" y1="54.2175" x2="116.493" y2="90.6389" gradientUnits="userSpaceOnUse">
<stop stop-color="#708BE6"/>
<stop offset="1" stop-color="#27388A"/>
</linearGradient>
<linearGradient id="paint3_linear_8713_80449" x1="44.1967" y1="16.429" x2="6.54877" y2="34.2357" gradientUnits="userSpaceOnUse">
<stop stop-color="#D6E6FD"/>
<stop offset="1" stop-color="#D2E3FD"/>
</linearGradient>
<linearGradient id="paint4_linear_8713_80449" x1="45.8488" y1="17.8088" x2="12.083" y2="58.5692" gradientUnits="userSpaceOnUse">
<stop stop-color="#D6E6FD"/>
<stop offset="1" stop-color="#D2E3FD"/>
</linearGradient>
</defs>
</svg>
