<svg xmlns="http://www.w3.org/2000/svg" width="40" height="40" fill="none"><rect width="40" height="40" fill="#FEF2F2" rx="12"/><path fill="#D92020" d="M13.542 15a3.958 3.958 0 1 1 7.916 0 3.958 3.958 0 0 1-7.916 0Z" opacity=".32"/><path fill="#D92020" fill-rule="evenodd" d="M25.442 15.392a.625.625 0 1 0-.884.883l1.641 1.642-1.64 1.641a.625.625 0 0 0 .883.884l1.641-1.641 1.642 1.641a.625.625 0 1 0 .884-.884l-1.642-1.641 1.642-1.642a.625.625 0 1 0-.884-.883l-1.642 1.64-1.641-1.64Zm-14.4 10.4a4.75 4.75 0 0 1 4.75-4.75h3.416a4.75 4.75 0 0 1 4.75 4.75 3.167 3.167 0 0 1-3.166 3.166h-6.584a3.167 3.167 0 0 1-3.166-3.166Z" clip-rule="evenodd"/></svg>