<svg xmlns="http://www.w3.org/2000/svg" width="40" height="40" fill="none"><rect width="40" height="40" fill="#ECFDF2" rx="12"/><path fill="#039835" d="M13.542 15a3.958 3.958 0 1 1 7.916 0 3.958 3.958 0 0 1-7.916 0Z" opacity=".32"/><path fill="#039835" fill-rule="evenodd" d="M29.609 17.108a.625.625 0 1 0-.884-.883l-2.892 2.891-1.224-1.225a.625.625 0 0 0-.884.884l1.666 1.667c.245.244.64.244.884 0l3.334-3.334Zm-18.567 8.683a4.75 4.75 0 0 1 4.75-4.75h3.416a4.75 4.75 0 0 1 4.75 4.75 3.167 3.167 0 0 1-3.166 3.167h-6.584a3.167 3.167 0 0 1-3.166-3.166Z" clip-rule="evenodd"/></svg>