<svg viewBox="0 0 432 271" fill="none" xmlns="http://www.w3.org/2000/svg">
<mask id="mask0_15677_182666" style="mask-type:alpha" maskUnits="userSpaceOnUse" x="0" y="0" width="432" height="271">
<rect x="0.5" y="0.5" width="431" height="270" rx="9.5" fill="#F8FBFF" stroke="#F4F7FC"/>
</mask>
<g mask="url(#mask0_15677_182666)">
<path d="M285.861 182.465L280.298 180.497L282.463 175.179L288.026 177.148L285.861 182.465Z" fill="#FF4C5C"/>
<path d="M389.213 118.903L388.031 119.354L385.717 114.092L386.9 113.64L389.213 118.903Z" fill="#FF4C5C"/>
<path d="M149.221 245.338L147.96 242.764L153.51 240.402L154.77 242.975L149.221 245.338Z" fill="#FF4C5C"/>
<path d="M248.569 91.0492L247.783 91.6955L243.746 87.4311L244.532 86.7848L248.569 91.0492Z" fill="#FF4C5C"/>
<path d="M343.459 13.5384L342.899 18.9616L336.826 18.4168L337.386 12.9936L343.459 13.5384Z" fill="#F9CD39"/>
<path d="M417.323 247.542L416.181 245.026L421.798 242.808L422.941 245.324L417.323 247.542Z" fill="#F9CD39"/>
<path d="M271.854 142.141L268.709 142.467L268.035 136.814L271.181 136.489L271.854 142.141Z" fill="#F9CD39"/>
<path d="M139.792 218.799L136.833 215.911L141.244 211.982L144.204 214.87L139.792 218.799Z" fill="#F9CD39"/>
<path d="M87.8817 247.542L86.739 245.026L92.3568 242.808L93.4995 245.324L87.8817 247.542Z" fill="#F9CD39"/>
<path d="M379.425 161.123L374.78 160.635L375.463 154.983L380.108 155.471L379.425 161.123Z" fill="#00E7A8"/>
<path d="M239.293 265.134L238.922 263.21L244.927 262.203L245.298 264.128L239.293 265.134Z" fill="#00E7A8"/>
<path d="M303.126 151.636L299.206 151.633L299.211 145.946L303.131 145.949L303.126 151.636Z" fill="#00E7A8"/>
<path d="M110.464 102.947L110.331 103.028L106.968 98.2831L107.101 98.2011L110.464 102.947Z" fill="#00E7A8"/>
<path d="M270.904 247.542L269.762 245.026L275.379 242.808L276.522 245.324L270.904 247.542Z" fill="#0EADFF"/>
<path d="M369.721 214.338L366.441 211.475L370.611 207.323L373.891 210.186L369.721 214.338Z" fill="#0EADFF"/>
<path d="M117.379 130.425L115.226 130.937L113.719 125.426L115.871 124.914L117.379 130.425Z" fill="#0EADFF"/>
<path d="M305.666 53.6874L304.103 56.6432L298.631 54.1289L300.194 51.1731L305.666 53.6874Z" fill="#0EADFF"/>
<path d="M317.537 233.732L318.551 232.585L322.949 236.306L321.934 237.453L317.537 233.732Z" fill="#FF4C5C"/>
<path d="M185.393 87.1409L180.091 85.1723L182.154 79.8548L187.456 81.8234L185.393 87.1409Z" fill="#FF4C5C"/>
<path d="M283.9 23.5786L282.774 24.0304L280.568 18.7676L281.695 18.3159L283.9 23.5786Z" fill="#FF4C5C"/>
<path d="M55.1576 150.014L53.9561 147.44L59.2453 145.078L60.4469 147.651L55.1576 150.014Z" fill="#FF4C5C"/>
<path d="M310.693 152.217L309.604 149.702L314.958 147.484L316.047 150L310.693 152.217Z" fill="#F9CD39"/>
<path d="M172.044 46.8173L169.046 47.1429L168.404 41.4899L171.403 41.1644L172.044 46.8173Z" fill="#F9CD39"/>
<path d="M46.1709 123.475L43.3504 120.587L47.555 116.658L50.3755 119.546L46.1709 123.475Z" fill="#F9CD39"/>
<path d="M-3.30521 152.217L-4.39433 149.702L0.96014 147.484L2.04926 149.999L-3.30521 152.217Z" fill="#F9CD39"/>
<path d="M274.572 65.7986L270.144 65.3107L270.795 59.6587L275.223 60.1467L274.572 65.7986Z" fill="#00E7A8"/>
<path d="M141.009 169.809L140.655 167.885L146.378 166.879L146.732 168.803L141.009 169.809Z" fill="#00E7A8"/>
<path d="M201.849 56.3119L198.113 56.3089L198.118 50.6212L201.854 50.6242L201.849 56.3119Z" fill="#00E7A8"/>
<path d="M18.22 7.62217L18.0932 7.70412L14.8877 2.95872L15.0145 2.87677L18.22 7.62217Z" fill="#00E7A8"/>
<path d="M171.139 152.217L170.049 149.702L175.404 147.484L176.493 150L171.139 152.217Z" fill="#0EADFF"/>
<path d="M265.322 119.014L262.197 116.151L266.172 111.999L269.297 114.862L265.322 119.014Z" fill="#0EADFF"/>
<path d="M24.8093 35.101L22.7578 35.6129L21.3205 30.1017L23.372 29.5898L24.8093 35.101Z" fill="#0EADFF"/>
<path d="M325.146 244.723L325.839 243.922L328.843 246.52L328.15 247.321L325.146 244.723Z" fill="#FF4C5C"/>
<path d="M234.885 142.355L231.263 140.98L232.672 137.267L236.294 138.642L234.885 142.355Z" fill="#FF4C5C"/>
<path d="M302.171 97.9677L301.401 98.2831L299.895 94.608L300.665 94.2925L302.171 97.9677Z" fill="#FF4C5C"/>
<path d="M145.927 186.26L145.106 184.463L148.719 182.813L149.54 184.61L145.927 186.26Z" fill="#FF4C5C"/>
<path d="M210.605 78.5168L210.094 78.9681L207.466 75.9902L207.977 75.5389L210.605 78.5168Z" fill="#FF4C5C"/>
<path d="M262.998 264.61L266.936 265.134L266.412 269.071L262.475 268.547L262.998 264.61Z" fill="#F9CD39"/>
<path d="M272.384 24.3891L272.019 28.1763L268.066 27.7958L268.43 24.0087L272.384 24.3891Z" fill="#F9CD39"/>
<path d="M320.472 187.799L319.728 186.043L323.386 184.494L324.129 186.25L320.472 187.799Z" fill="#F9CD39"/>
<path d="M225.765 114.196L223.717 114.423L223.279 110.476L225.327 110.248L225.765 114.196Z" fill="#F9CD39"/>
<path d="M139.788 167.728L137.862 165.711L140.734 162.967L142.66 164.984L139.788 167.728Z" fill="#F9CD39"/>
<path d="M105.993 187.799L105.249 186.043L108.906 184.494L109.65 186.25L105.993 187.799Z" fill="#F9CD39"/>
<path d="M295.798 127.451L292.773 127.11L293.218 123.163L296.243 123.504L295.798 127.451Z" fill="#00E7A8"/>
<path d="M204.567 200.084L204.326 198.74L208.235 198.038L208.476 199.382L204.567 200.084Z" fill="#00E7A8"/>
<path d="M246.126 120.826L243.574 120.824L243.577 116.852L246.129 116.854L246.126 120.826Z" fill="#00E7A8"/>
<path d="M120.694 86.8249L120.607 86.8821L118.418 83.5683L118.504 83.511L120.694 86.8249Z" fill="#00E7A8"/>
<path d="M260.218 221.83L264.155 222.354L263.631 226.291L259.694 225.767L260.218 221.83Z" fill="#0EADFF"/>
<path d="M219.302 239.966L223.131 240.307L222.778 244.264L218.949 243.922L219.302 239.966Z" fill="#0EADFF"/>
<path d="M225.147 187.799L224.403 186.042L228.06 184.494L228.804 186.25L225.147 187.799Z" fill="#0EADFF"/>
<path d="M289.48 164.612L287.345 162.613L290.06 159.714L292.195 161.713L289.48 164.612Z" fill="#0EADFF"/>
<path d="M125.195 106.014L123.794 106.372L122.812 102.523L124.213 102.165L125.195 106.014Z" fill="#0EADFF"/>
<path d="M247.777 52.4264L246.76 54.4905L243.197 52.7347L244.214 50.6706L247.777 52.4264Z" fill="#0EADFF"/>
</g>
</svg>
