<svg viewBox="0 0 98 98" fill="none" xmlns="http://www.w3.org/2000/svg">
<path d="M49 4.76837e-07C21.9381 4.76837e-07 1.32761e-06 21.938 1.32761e-06 49C1.32761e-06 76.062 21.9381 98 49 98C76.062 98 98 76.062 98 49C98 21.938 76.062 4.76837e-07 49 4.76837e-07Z" fill="white" fill-opacity="0.1"/>
<path d="M49 9C26.9086 9 9 26.9086 9 49C9 71.0914 26.9086 89 49 89C71.0914 89 89 71.0914 89 49C89 26.9086 71.0914 9 49 9Z" fill="#624DE3" fill-opacity="1"/>
<path d="M51.2499 33.2498L51.2499 59.3176L63.1589 47.4064C63.5811 46.9845 64.1536 46.7476 64.7504 46.7478C65.3472 46.7481 65.9196 46.9853 66.3414 47.4075C66.7633 47.8297 67.0002 48.4022 67 48.999C66.9998 49.5959 66.7625 50.1682 66.3403 50.5901L50.5907 66.3397C50.4377 66.4929 50.2634 66.6232 50.0732 66.7267L50.0305 66.7492H50.017L49.9855 66.7739H49.9585H49.9405L49.9 66.8122C49.6161 66.9361 49.3097 67 49 67C48.6903 67 48.3839 66.9361 48.1 66.8122L48.0595 66.7942H48.0415L48.0145 66.7739L47.983 66.7582H47.9695L47.9268 66.7357C47.7366 66.6322 47.5623 66.5019 47.4093 66.3487L31.6597 50.5991C31.2375 50.1772 31.0002 49.6049 31 49.008C30.9998 48.4112 31.2367 47.8387 31.6586 47.4165C32.0804 46.9944 32.6528 46.7571 33.2496 46.7568C33.8464 46.7566 34.4189 46.9935 34.8411 47.4154L46.7501 59.3176L46.7501 33.2498C46.7501 32.653 46.9871 32.0808 47.409 31.6588C47.831 31.2369 48.4033 30.9998 49 30.9998C49.5967 30.9998 50.169 31.2369 50.5909 31.6588C51.0129 32.0808 51.2499 32.653 51.2499 33.2498Z" fill="white" id="arrow" />
</svg>
