<svg width="100" height="100" viewBox="0 0 100 100" fill="none" xmlns="http://www.w3.org/2000/svg">
<circle cx="50" cy="50" r="46" stroke="#0061FF" stroke-opacity="0.16" stroke-width="8"/>
<path fill-rule="evenodd" clip-rule="evenodd" d="M37.6665 38.229C36.6961 38.229 35.8956 39.0294 35.8956 39.9998V59.9998C35.8956 60.9702 36.6961 61.7707 37.6665 61.7707H64.3331C65.3035 61.7707 66.104 60.9702 66.104 59.9998V39.9998C66.104 39.0294 65.3035 38.229 64.3331 38.229H37.6665ZM32.7706 39.9998C32.7706 37.3036 34.9702 35.104 37.6665 35.104H64.3331C67.0294 35.104 69.229 37.3036 69.229 39.9998V59.9998C69.229 62.6961 67.0294 64.8957 64.3331 64.8957H37.6665C34.9702 64.8957 32.7706 62.6961 32.7706 59.9998V39.9998Z" fill="#0061FF"/>
<path fill-rule="evenodd" clip-rule="evenodd" d="M33.0531 39.1038C33.548 38.3969 34.5222 38.2249 35.2292 38.7198L50.9998 49.7592L66.7704 38.7198C67.4774 38.2249 68.4517 38.3969 68.9465 39.1038C69.4414 39.8108 69.2695 40.785 68.5625 41.2799L51.8958 52.9466C51.3578 53.3232 50.6418 53.3232 50.1038 52.9466L33.4371 41.2799C32.7302 40.785 32.5582 39.8108 33.0531 39.1038Z" fill="#0061FF"/>
</svg>
