<svg width="113" height="26" fill="currentColor" xmlns="http://www.w3.org/2000/svg"><path d="M19.204 19.404h.24v5.649h-.932c-6.053 0-9.556-3.426-9.556-9.02v-2.876l1.967-.49a3.179 3.179 0 0 0 1.511-.873 3.131 3.131 0 0 0 .69-3.267 3.153 3.153 0 0 0-1.029-1.403 3.186 3.186 0 0 0-4.641.818 3.136 3.136 0 0 0-.482 1.668v12.323H.852V9.397c0-.377.024-.754.073-1.128.57-4.45 4.482-7.893 9.223-7.893 4.299 0 7.917 2.832 8.985 6.679a8.793 8.793 0 0 1-.508 6.055 9.127 9.127 0 0 1-3.456 3.883c.505 2.035 1.58 2.41 3.964 2.41M35.078 7.452v3.454h-.565c-1.188 0-2.115.326-2.782.98-.666.653-.999 1.54-.999 2.663v6.227h-3.34V7.666h3.34v1.695c1.006-1.273 2.266-1.909 3.781-1.909h.565ZM49.45 15.427H39.295A3.573 3.573 0 0 0 40.64 17.4c.661.485 1.465.728 2.411.728a4.773 4.773 0 0 0 2.097-.459 4.162 4.162 0 0 0 1.508-1.162l2.236 1.96a7.111 7.111 0 0 1-2.58 1.934 8.111 8.111 0 0 1-3.36.688 7.69 7.69 0 0 1-3.73-.905 6.653 6.653 0 0 1-2.613-2.492 7.067 7.067 0 0 1-.031-6.996 6.512 6.512 0 0 1 2.51-2.455 7.175 7.175 0 0 1 3.55-.892c1.966 0 3.607.655 4.923 1.966 1.316 1.31 1.973 2.953 1.97 4.929 0 .396-.028.791-.082 1.183Zm-4.717-4.415a3.445 3.445 0 0 0-4.251 0 3.59 3.59 0 0 0-1.218 1.966h6.692a3.582 3.582 0 0 0-1.22-1.966h-.003ZM70.974 8.683c.892.888 1.338 2.073 1.338 3.555v8.54h-3.348v-7.541c0-.804-.233-1.447-.697-1.928-.465-.481-1.087-.722-1.866-.723-.82 0-1.486.247-1.997.742-.51.495-.766 1.148-.766 1.959v7.49h-3.34v-7.54c0-.795-.236-1.436-.709-1.921-.473-.486-1.105-.729-1.895-.73-.813 0-1.474.25-1.985.749-.51.499-.766 1.15-.765 1.952v7.49h-3.337V7.667h3.341V9.02c.987-1.115 2.28-1.672 3.88-1.67a5.144 5.144 0 0 1 2.437.558c.696.362 1.28.907 1.69 1.576 1.082-1.422 2.572-2.134 4.467-2.135 1.48.002 2.665.447 3.552 1.334ZM88.337 14.222c0 1.952-.674 3.584-2.022 4.898-1.349 1.314-3.023 1.97-5.024 1.969-2.001 0-3.678-.657-5.03-1.971-1.354-1.314-2.03-2.947-2.031-4.898 0-1.95.676-3.584 2.03-4.9 1.354-1.315 3.03-1.973 5.03-1.97 2.002 0 3.676.656 5.025 1.97 1.348 1.314 2.022 2.948 2.022 4.902Zm-4.467 2.593c.677-.69 1.016-1.555 1.016-2.593s-.338-1.902-1.016-2.593c-.678-.69-1.535-1.037-2.572-1.037a3.47 3.47 0 0 0-2.573 1.043 3.763 3.763 0 0 0 0 5.174 3.474 3.474 0 0 0 2.573 1.043c1.033 0 1.889-.346 2.568-1.037h.004ZM94.447 10.717v5.452c0 1.122.603 1.683 1.808 1.683a4.168 4.168 0 0 0 1.721-.44v3.113a5.064 5.064 0 0 1-2.449.565c-1.465 0-2.568-.391-3.31-1.174-.742-.782-1.112-1.852-1.111-3.208v-5.99H89.02V7.665h2.085V5.481l3.34-1.144v3.329h3.53v3.051h-3.53ZM112.778 15.427h-10.161a3.568 3.568 0 0 0 1.344 1.973c.661.485 1.464.728 2.411.728a4.773 4.773 0 0 0 2.097-.46 4.156 4.156 0 0 0 1.508-1.16l2.235 1.958a7.113 7.113 0 0 1-2.58 1.935 8.114 8.114 0 0 1-3.36.69 7.69 7.69 0 0 1-3.73-.904 6.653 6.653 0 0 1-2.613-2.492 7.066 7.066 0 0 1-.03-6.997 6.523 6.523 0 0 1 2.51-2.454 7.178 7.178 0 0 1 3.549-.892c1.967 0 3.608.655 4.923 1.966 1.315 1.31 1.972 2.953 1.971 4.929a8.79 8.79 0 0 1-.074 1.18Zm-4.711-4.415a3.448 3.448 0 0 0-4.251 0 3.587 3.587 0 0 0-1.218 1.966h6.687a3.58 3.58 0 0 0-1.218-1.966Z" fill="currentColor"/></svg>