<svg xmlns="http://www.w3.org/2000/svg" width="19" height="25" fill="currentColor"><path fill="currentColor" d="M18.352 19.277h.24V25h-.932c-6.054 0-9.556-3.47-9.556-9.137v-2.914l1.967-.497a3.17 3.17 0 0 0 1.511-.885 3.2 3.2 0 0 0 .69-3.31 3.193 3.193 0 0 0-1.03-1.42 3.163 3.163 0 0 0-4.641.827 3.208 3.208 0 0 0-.482 1.691V21.84H0V9.14c0-.382.024-.764.072-1.143C.643 3.489 4.555 0 9.296 0c4.298 0 7.916 2.869 8.985 6.766a9.015 9.015 0 0 1-.509 6.134 9.208 9.208 0 0 1-3.456 3.934c.505 2.062 1.58 2.443 3.964 2.443"/></svg>
