<svg width="113" height="25" fill="none" 
  xmlns="http://www.w3.org/2000/svg">
  <g fill="#fff">
    <path d="M33.03 5.04c-1.21 0-2.28.32-3.24 1l-.24-.82h-2.2V19.5h2.76v-8.74a2.93 2.93 0 013.45-2.91l.21.03V5.11l-.18-.03c-.14-.04-.32-.04-.56-.04zM47.55 8.06A7.4 7.4 0 0037.96 6a7.3 7.3 0 00-3.62 6.32 7.21 7.21 0 007.28 7.28 7.25 7.25 0 005.9-3.02l.1-.14-2.02-1.8-.14.17a4.61 4.61 0 01-6.68 1.14 4.53 4.53 0 01-1.56-2.24h11.54l.03-.14c.07-.36.11-.79.11-1.25 0-.42-.04-.81-.07-1.17a6.4 6.4 0 00-1.28-3.09zm-8.73.68a4.53 4.53 0 015.68 0c.74.6 1.28 1.38 1.56 2.27h-8.77c.25-.89.78-1.67 1.52-2.27zM68.25 5.82a5.6 5.6 0 00-5.36-.2c-.7.35-1.31.8-1.81 1.41a5.46 5.46 0 00-4.33-1.99c-1.2 0-2.27.32-3.23 1l-.25-.82h-2.2V19.5h2.77v-8.74a2.93 2.93 0 012.94-2.95c.86 0 1.53.29 2.13.85.57.57.86 1.28.86 2.1v8.74h2.77v-8.74c0-.82.28-1.53.85-2.1.57-.6 1.28-.88 2.1-.88.81 0 1.49.28 2.09.88.6.6.89 1.28.89 2.1v8.74h2.73v-8.74c0-1.03-.25-1.99-.78-2.84a6.76 6.76 0 00-2.17-2.1zM83.91 6.04a7.21 7.21 0 00-3.65-.96 7.21 7.21 0 00-7.28 7.28 7.21 7.21 0 003.62 6.32 7 7 0 003.66 1 6.9 6.9 0 003.65-1 7.65 7.65 0 002.67-2.66 6.9 6.9 0 001-3.66 7.36 7.36 0 00-3.66-6.32zM80.26 16.9c-.82 0-1.6-.2-2.31-.6a4.43 4.43 0 01-1.67-1.67 4.63 4.63 0 011.67-6.25 4.63 4.63 0 014.58 0c.7.4 1.24.96 1.67 1.67a4.63 4.63 0 010 4.58c-.4.71-.96 1.24-1.67 1.67-.71.39-1.46.6-2.27.6zM112.04 11.19A7.4 7.4 0 00101.14 6a7.3 7.3 0 00-3.62 6.32 7.21 7.21 0 007.27 7.27 7.25 7.25 0 005.9-3.02l.1-.14-2.02-1.8-.14.17a4.61 4.61 0 01-6.68 1.14 4.52 4.52 0 01-1.56-2.24h11.54l.04-.14c.07-.36.1-.79.1-1.25.04-.39 0-.78-.03-1.13zm-10.05-2.45a4.53 4.53 0 015.68 0c.75.6 1.28 1.38 1.56 2.27h-8.77c.25-.89.75-1.67 1.53-2.27zM88.1 5.22v2.73h2.17v6.11c0 1.88.53 3.34 1.6 4.26.92.86 2.2 1.32 3.83 1.32.29 0 .54 0 .71-.04l.18-.03V16.9l-.21.04c-.14 0-.32.03-.57.03-1.88 0-2.8-.95-2.8-2.9V7.94h3.58V5.22H88.1zM91.58 4.12a1.6 1.6 0 100-3.2 1.6 1.6 0 000 3.2zM12.46 4.8v15.4a7.7 7.7 0 100-15.4z" />
    <path d="M8.27 19.7a8.4 8.4 0 014.2-15.65V0a12.39 12.39 0 00-10.8 6.21A12.42 12.42 0 000 12.5c0 2.27.57 4.33 1.67 6.25A12.14 12.14 0 006.2 23.3a12.07 12.07 0 006.25 1.7v-4.15c-1.49 0-2.9-.4-4.19-1.14z" />
  </g>
</svg>
