<svg width="37" height="37" viewBox="0 0 37 37" fill="none" xmlns="http://www.w3.org/2000/svg">
<circle cx="18.5" cy="18.5" r="17" fill="#624DE3" stroke="#B0A6F1" stroke-width="3"/>
<path fill-rule="evenodd" clip-rule="evenodd" d="M16.5 19C17.3284 19 18 18.3284 18 17.5C18 16.6716 17.3284 16 16.5 16C15.6716 16 15 16.6716 15 17.5C15 18.3284 15.6716 19 16.5 19Z" fill="white"/>
<path fill-rule="evenodd" clip-rule="evenodd" d="M21.5 19C22.3284 19 23 18.3284 23 17.5C23 16.6716 22.3284 16 21.5 16C20.6716 16 20 16.6716 20 17.5C20 18.3284 20.6716 19 21.5 19Z" fill="white"/>
<path d="M11.8018 26.9973C11.689 27.0093 11.5757 26.9809 11.4818 26.9173C11.3332 26.8678 11.2053 26.7701 11.1184 26.6397C11.0314 26.5094 10.9905 26.3537 11.0019 26.1975V13.3999C10.996 13.0832 11.0541 12.7686 11.1726 12.4748C11.2911 12.181 11.4677 11.9142 11.6917 11.6902C11.9157 11.4662 12.1825 11.2896 12.4763 11.1711C12.7701 11.0526 13.0848 10.9945 13.4015 11.0004H24.5999C24.9167 10.9945 25.2313 11.0526 25.5251 11.1711C25.8189 11.2896 26.0858 11.4662 26.3098 11.6902C26.5338 11.9142 26.7104 12.181 26.8289 12.4748C26.9474 12.7686 27.0055 13.0832 26.9996 13.3999V21.3984C27.0053 21.7151 26.9472 22.0297 26.8286 22.3234C26.7101 22.6171 26.5335 22.884 26.3096 23.1079C26.0856 23.3319 25.8187 23.5084 25.525 23.627C25.2313 23.7455 24.9166 23.8037 24.5999 23.7979H15.3213L12.3617 26.7574C12.2914 26.8356 12.2049 26.8977 12.1082 26.9391C12.0115 26.9805 11.9069 27.0004 11.8018 26.9973ZM13.4015 12.6001C13.2949 12.5939 13.1881 12.6104 13.0883 12.6484C12.9885 12.6864 12.8978 12.7452 12.8223 12.8207C12.7467 12.8962 12.688 12.9869 12.65 13.0867C12.612 13.1865 12.5955 13.2933 12.6016 13.3999V24.2778L14.4414 22.4382C14.5117 22.3599 14.5982 22.2979 14.6949 22.2565C14.7916 22.215 14.8961 22.1952 15.0013 22.1982H24.5999C24.7066 22.2044 24.8133 22.1879 24.9132 22.1499C25.013 22.1119 25.1037 22.0532 25.1792 21.9776C25.2548 21.9021 25.3135 21.8115 25.3515 21.7116C25.3895 21.6118 25.406 21.505 25.3998 21.3984V13.3999C25.406 13.2933 25.3895 13.1865 25.3515 13.0867C25.3135 12.9869 25.2548 12.8962 25.1792 12.8207C25.1037 12.7452 25.013 12.6864 24.9132 12.6484C24.8133 12.6104 24.7066 12.5939 24.5999 12.6001H13.4015Z" fill="white"/>
</svg>
