<svg viewBox="0 0 140 140" fill="none" xmlns="http://www.w3.org/2000/svg">
<rect width="140" height="140" rx="13" fill="#5700FF"/>
<path d="M96.8677 90.0764H97.7935V107.059H95.008C76.9085 107.059 64.9581 96.7645 64.9581 79.9676V71.7023L72.32 69.8507C74.368 69.3353 76.1851 68.1528 77.4834 66.4905C78.7818 64.8282 79.4871 62.7812 79.4878 60.6738C79.4899 59.4293 79.246 58.1967 78.7701 57.0464C78.2942 55.8961 77.5956 54.8508 76.7142 53.9703C75.8329 53.0898 74.7861 52.3913 73.6339 51.915C72.4817 51.4387 71.2466 51.1937 69.9994 51.1943C67.4836 51.1953 65.0712 52.1933 63.2927 53.9686C61.5141 55.744 60.515 58.1515 60.515 60.6617V97.6761H42.2053V60.0324C42.2063 58.8995 42.2793 57.7677 42.4236 56.644C44.1337 43.2799 55.8294 32.9412 69.9994 32.9412C82.9363 32.9412 93.7831 41.5332 96.9001 53.1789C98.5232 59.2836 97.9215 65.765 95.2021 71.4683C92.7319 76.5905 88.7266 80.8196 83.7408 83.5698C85.463 88.8985 89.6958 90.0764 96.8677 90.0764Z" fill="white"/>
</svg>
