<svg width="160" height="108" viewBox="0 0 186 125" fill="none" xmlns="http://www.w3.org/2000/svg">
<path opacity="0.22" d="M56.093 57.5903C53.1757 64.2229 28.5043 65.5995 21.7947 53.4189C19.2942 48.9137 18.9608 42.0308 22.3365 38.6102C28.1292 32.7701 43.8406 37.9845 51.6755 47.3702C53.7592 49.8731 57.5099 54.3366 56.093 57.5903Z" fill="url(#paint0_linear)"/>
<path opacity="0.34" d="M183.909 94.8403C180.075 108.815 172.615 118.534 167.698 123.874L109.812 123.915H95.1422L59.302 123.957H27.9209H6C10.3758 107.897 18.8358 86.5808 35.8808 81.2413C50.5919 76.6527 50.967 87.9991 68.8871 90.6271C116.105 97.6352 138.276 31.6427 164.114 41.9462C180.575 48.5371 190.577 70.3538 183.909 94.8403Z" fill="url(#paint1_linear)"/>
<path d="M15 124L149 124" stroke="#5C75C9" stroke-opacity="0.5" stroke-miterlimit="10" stroke-linecap="round"/>
<path d="M156.51 124H171.366" stroke="#5C75C9" stroke-opacity="0.5" stroke-miterlimit="10" stroke-linecap="round"/>
<path d="M1 124H9" stroke="#5C75C9" stroke-opacity="0.5" stroke-miterlimit="10" stroke-linecap="round"/>
<path d="M141.609 59.6761V79.1151H57.7183V59.5092C57.7183 52.3343 63.7611 46.2857 71.6376 45.1594H125.023C131.232 45.1594 136.65 48.2046 139.484 52.6263C140.818 54.7121 141.609 57.1315 141.609 59.6761Z" fill="#A1BFF1"/>
<path d="M88.8076 59.4675V79.0733H57.7183V59.4675C57.7183 53.252 62.2191 47.9125 68.512 45.8685C69.5122 45.5348 70.5541 45.2845 71.6376 45.1594C72.1794 45.0759 72.7212 45.0342 73.2629 44.9925C73.8047 45.0342 74.3465 45.0759 74.8882 45.1594C76.5969 45.4096 78.1805 45.8685 79.6808 46.5359C85.0985 48.9137 88.8076 53.836 88.8076 59.4675Z" fill="url(#paint2_linear)"/>
<path d="M88.8076 59.4675V79.0733H84.8485V59.4675C84.8485 52.376 78.9723 46.4525 71.3042 45.2011C71.4292 45.2011 71.5542 45.1594 71.6376 45.1594C72.1794 45.0759 72.7211 45.0342 73.2629 44.9925C73.8047 45.0342 74.3464 45.0759 74.8882 45.1594C82.7647 46.2439 88.8076 52.2926 88.8076 59.4675Z" fill="url(#paint3_linear)"/>
<path d="M88.8074 79.0734L80.2225 91.254C80.0558 91.4626 79.8891 91.7129 79.7224 91.9214C77.1385 95.1752 73.1794 97.0941 68.9703 97.0941H45.0073L56.8013 80.2831L57.6764 79.0316H88.8074V79.0734Z" fill="url(#paint4_linear)"/>
<path d="M119 79H110V124H119V79Z" fill="#5C74C6"/>
<path d="M121.814 58.9252C125.036 58.9252 127.648 56.3105 127.648 53.0851C127.648 49.8598 125.036 47.2451 121.814 47.2451C118.592 47.2451 115.979 49.8598 115.979 53.0851C115.979 56.3105 118.592 58.9252 121.814 58.9252Z" fill="url(#paint5_linear)"/>
<path d="M119.063 79.0734V87.4163L110.312 85.2054V79.0734H119.063Z" fill="url(#paint6_linear)"/>
<path d="M141.609 67.6018H88.8076V79.1151H141.609V67.6018Z" fill="url(#paint7_linear)"/>
<path d="M88.8073 79.0734L80.2223 91.254C80.0556 91.4626 79.8889 91.7129 79.7222 91.9215C77.8052 88.2089 76.1798 83.662 72.2207 83.2448C68.8451 82.8694 67.3448 85.8728 63.7191 85.4557C60.8852 85.122 58.5931 82.9111 56.8428 80.3248L57.7179 79.0734H88.8073Z" fill="url(#paint8_linear)"/>
<path d="M97.4341 74.8602C98.2857 74.8602 98.976 74.1692 98.976 73.3168C98.976 72.4643 98.2857 71.7733 97.4341 71.7733C96.5825 71.7733 95.8921 72.4643 95.8921 73.3168C95.8921 74.1692 96.5825 74.8602 97.4341 74.8602Z" fill="url(#paint9_linear)"/>
<path d="M103.644 74.8602C104.495 74.8602 105.185 74.1692 105.185 73.3168C105.185 72.4643 104.495 71.7733 103.644 71.7733C102.792 71.7733 102.102 72.4643 102.102 73.3168C102.102 74.1692 102.792 74.8602 103.644 74.8602Z" fill="url(#paint10_linear)"/>
<path d="M110.02 74.8602C110.872 74.8602 111.562 74.1692 111.562 73.3168C111.562 72.4643 110.872 71.7733 110.02 71.7733C109.168 71.7733 108.478 72.4643 108.478 73.3168C108.478 74.1692 109.168 74.8602 110.02 74.8602Z" fill="url(#paint11_linear)"/>
<path opacity="0.57" d="M79.6805 46.4943L79.3888 47.3703C78.0969 47.412 72.1791 47.6623 67.9699 52.2926C64.2192 56.4223 63.1773 62.471 64.6359 67.0178C65.8445 70.8139 68.22 71.7733 67.8032 74.5682C67.5532 76.3202 66.3863 77.9054 64.886 79.0317H57.6763V59.4258C57.6763 53.2103 62.1771 47.8708 68.47 45.8268C69.4702 45.4931 70.5121 45.2428 71.5956 45.1177C72.1374 45.0343 72.6792 44.9926 73.2209 44.9508C73.7627 44.9926 74.3045 45.0343 74.8463 45.1177C76.5966 45.368 78.1802 45.8268 79.6805 46.4943Z" fill="url(#paint12_linear)"/>
<path d="M83.2232 48.6217C81.0144 47.0782 78.3472 45.9937 75.43 45.5765C74.8882 45.4931 74.3465 45.4514 73.8047 45.4096C73.2629 45.4514 72.7212 45.4931 72.1794 45.5765C71.0958 45.7434 70.054 45.9519 69.0538 46.2857C62.7609 48.3297 58.26 53.5857 58.26 59.7177V79.0733H57.7183V59.4675C57.7183 53.252 62.2191 47.9125 68.512 45.8685C69.5122 45.5348 70.5541 45.2845 71.6376 45.1594C72.1794 45.0759 72.7212 45.0342 73.2629 44.9925C73.8047 45.0342 74.3465 45.0759 74.8882 45.1594C78.0555 45.5765 80.9311 46.8279 83.2232 48.6217Z" fill="url(#paint13_linear)"/>
<path d="M121.814 53.7109C120.938 53.7109 120.188 53.0017 120.188 52.084V29.0575C120.188 28.1815 120.897 27.4307 121.814 27.4307C122.73 27.4307 123.439 28.1398 123.439 29.0575V52.084C123.439 53.0017 122.689 53.7109 121.814 53.7109Z" fill="url(#paint14_linear)"/>
<path d="M103.143 33.229L108.103 36.5244C109.353 37.3587 111.02 37.317 112.187 36.3576L113.395 35.3981C115.021 34.105 117.313 33.9798 119.105 35.1061L123.564 37.9427V25.4701L118.772 23.7598C117.188 23.1758 115.438 23.4678 114.104 24.4689L112.354 25.8038C111.187 26.6798 109.561 26.7632 108.353 25.9289L103.102 22.4666V33.229H103.143Z" fill="url(#paint15_linear)"/>
<path d="M30.5462 0.357865C24.8368 0.566438 20.2109 5.32192 20.1275 11.0368C20.0859 13.5397 20.8777 15.834 22.253 17.6694L20.7943 22.0912H30.7546C36.7974 22.0912 41.9234 17.1688 41.8817 11.1202C41.8401 5.0299 36.7558 0.107577 30.5462 0.357865Z" fill="url(#paint16_linear)"/>
<path d="M42.0069 0.357895C47.7164 0.566468 52.3422 5.32195 52.4256 11.0369C52.4673 13.5397 51.6754 15.834 50.3002 17.6695L51.7588 22.0912H41.7985C35.7557 22.0912 30.6297 17.1689 30.6714 11.1203C30.7547 5.02993 35.8391 0.107608 42.0069 0.357895Z" fill="#56CCF2"/>
<path d="M46.5914 15.3334H44.0909C44.0909 16.418 43.2157 17.294 42.1322 17.294C41.0486 17.294 40.1735 16.418 40.1735 15.3334H37.6313C37.4229 15.3334 37.2979 15.0831 37.4229 14.9163L38.5898 13.0808V9.6602C38.5898 7.74133 40.1318 6.15619 42.0905 6.15619C44.0075 6.15619 45.5912 7.69961 45.5912 9.6602V13.0808L46.8831 14.9163C46.9248 15.1248 46.7997 15.3334 46.5914 15.3334Z" fill="white"/>
<path d="M65.8451 55.2126L66.0118 70.8556C66.0118 72.6493 65.22 74.2762 63.9281 75.3607C62.9279 76.2367 61.636 76.7373 60.1774 76.7373L32.6721 77.0293L32.5054 61.3863C32.5054 59.7595 33.1305 58.2995 34.1724 57.2149C34.2557 57.1315 34.2974 57.0897 34.3807 57.0063C34.3807 57.0063 34.3807 57.0063 34.4224 56.9646C35.4643 56.0052 36.7979 55.4629 38.2982 55.4212L65.8451 55.2126Z" fill="url(#paint17_linear)"/>
<path opacity="0.36" d="M63.9279 75.3608C62.9277 76.2368 61.6358 76.7374 60.1772 76.7374L32.6719 77.0294L49.2584 66.1002L63.9279 75.3608Z" fill="url(#paint18_linear)"/>
<path d="M65.2614 55.588L51.5921 67.6018L50.5502 68.5195L50.4669 68.603C49.8001 69.187 48.7999 69.187 48.1331 68.6447L48.0081 68.5195L46.9662 67.6435L34.4221 57.048C35.464 56.0886 36.8392 55.5046 38.3395 55.5046L64.2195 55.2543C64.5946 55.2126 64.9697 55.3377 65.2614 55.588Z" fill="url(#paint19_linear)"/>
<path opacity="0.66" d="M65.6782 55.2126L51.217 72.0653C50.4252 73.0247 48.1748 73.0664 47.383 72.107L34.4221 57.048L47.9664 68.5613C48.5498 69.0618 49.3833 69.1453 50.0501 68.8533C50.2168 68.7281 65.6782 55.2126 65.6782 55.2126Z" fill="url(#paint20_linear)"/>
<path d="M95.9759 103.476L96.2676 104.019C96.6427 104.686 97.1845 105.27 97.8929 105.646L98.4347 105.938L97.8929 106.23C97.2261 106.605 96.6427 107.147 96.2676 107.856L95.9759 108.399L95.6842 107.856C95.3091 107.189 94.7673 106.605 94.0589 106.23L93.5171 105.938L94.0589 105.646C94.7257 105.27 95.3091 104.728 95.6842 104.019L95.9759 103.476Z" fill="#5C74C6" fill-opacity="0.3"/>
<path d="M144.735 30.893L145.152 31.6856C145.693 32.645 146.444 33.4376 147.402 33.9381L148.194 34.3553L147.402 34.7724C146.444 35.3147 145.652 36.0656 145.152 37.025L144.735 37.8176L144.318 37.025C143.776 36.0656 143.026 35.273 142.068 34.7724L141.276 34.3553L142.068 33.9381C143.026 33.3958 143.818 32.645 144.318 31.6856L144.735 30.893Z" fill="#5C74C6" fill-opacity="0.3"/>
<path d="M52.7173 33.8547L53.1341 34.6473C53.6758 35.6067 54.426 36.3993 55.3845 36.8999L56.1763 37.317L55.3845 37.7342C54.426 38.2765 53.6341 39.0273 53.1341 39.9868L52.7173 40.7793L52.3006 39.9868C51.7588 39.0273 51.0086 38.2348 50.0501 37.7342L49.2583 37.317L50.0501 36.8999C51.0086 36.3576 51.8005 35.6067 52.3006 34.6473L52.7173 33.8547Z" fill="#5C74C6" fill-opacity="0.3"/>
<defs>
<linearGradient id="paint0_linear" x1="42.8963" y1="73.299" x2="33.5901" y2="30.9014" gradientUnits="userSpaceOnUse">
<stop stop-color="#D6E6FD"/>
<stop offset="1" stop-color="#D2E3FD"/>
</linearGradient>
<linearGradient id="paint1_linear" x1="5.0649" y1="120.281" x2="180.363" y2="78.0583" gradientUnits="userSpaceOnUse">
<stop stop-color="#D6E6FD"/>
<stop offset="1" stop-color="#D2E3FD"/>
</linearGradient>
<linearGradient id="paint2_linear" x1="101.277" y1="83.1746" x2="59.8723" y2="57.1891" gradientUnits="userSpaceOnUse">
<stop stop-color="#373282"/>
<stop offset="1" stop-color="#2E419B"/>
</linearGradient>
<linearGradient id="paint3_linear" x1="80.036" y1="66.8752" x2="80.036" y2="110.822" gradientUnits="userSpaceOnUse">
<stop stop-color="#373282"/>
<stop offset="1" stop-color="#2E419B"/>
</linearGradient>
<linearGradient id="paint4_linear" x1="59.4579" y1="99.0301" x2="80.6505" y2="68.067" gradientUnits="userSpaceOnUse">
<stop stop-color="#5C75C9"/>
<stop offset="1" stop-color="#2E419B"/>
</linearGradient>
<linearGradient id="paint5_linear" x1="121.818" y1="58.0763" x2="121.818" y2="42.7239" gradientUnits="userSpaceOnUse">
<stop stop-color="#5C75C9" stop-opacity="0.8"/>
<stop offset="1" stop-color="#2E419B" stop-opacity="0.8"/>
</linearGradient>
<linearGradient id="paint6_linear" x1="124.075" y1="86.5716" x2="108.285" y2="79.1484" gradientUnits="userSpaceOnUse">
<stop stop-color="#5C75C9"/>
<stop offset="1" stop-color="#2E419B"/>
</linearGradient>
<linearGradient id="paint7_linear" x1="141" y1="73" x2="89" y2="73" gradientUnits="userSpaceOnUse">
<stop stop-color="#5C75C9" stop-opacity="0.8"/>
<stop offset="1" stop-color="#2E419B" stop-opacity="0.8"/>
</linearGradient>
<linearGradient id="paint8_linear" x1="62.0168" y1="104.731" x2="75.5677" y2="73.4079" gradientUnits="userSpaceOnUse">
<stop stop-color="#5C75C9"/>
<stop offset="1" stop-color="#2E419B"/>
</linearGradient>
<linearGradient id="paint9_linear" x1="100.213" y1="75.2317" x2="96.3248" y2="72.5593" gradientUnits="userSpaceOnUse">
<stop stop-color="#373282"/>
<stop offset="1" stop-color="#2E419B"/>
</linearGradient>
<linearGradient id="paint10_linear" x1="106.422" y1="75.2317" x2="102.534" y2="72.5593" gradientUnits="userSpaceOnUse">
<stop stop-color="#373282"/>
<stop offset="1" stop-color="#2E419B"/>
</linearGradient>
<linearGradient id="paint11_linear" x1="112.799" y1="75.2317" x2="108.911" y2="72.5593" gradientUnits="userSpaceOnUse">
<stop stop-color="#373282"/>
<stop offset="1" stop-color="#2E419B"/>
</linearGradient>
<linearGradient id="paint12_linear" x1="71.1425" y1="45.806" x2="55.2006" y2="85.0919" gradientUnits="userSpaceOnUse">
<stop stop-color="#373282"/>
<stop offset="1" stop-color="#2E419B"/>
</linearGradient>
<linearGradient id="paint13_linear" x1="74.647" y1="38.8456" x2="70.1958" y2="54.045" gradientUnits="userSpaceOnUse">
<stop stop-color="#373282"/>
<stop offset="1" stop-color="#2E419B"/>
</linearGradient>
<linearGradient id="paint14_linear" x1="120.208" y1="40.5739" x2="123.421" y2="40.5739" gradientUnits="userSpaceOnUse">
<stop stop-color="#373282"/>
<stop offset="1" stop-color="#2E419B"/>
</linearGradient>
<linearGradient id="paint15_linear" x1="123.272" y1="22.6525" x2="104.841" y2="47.0294" gradientUnits="userSpaceOnUse">
<stop stop-color="#56CCF2"/>
<stop offset="1" stop-color="#CAF2FF"/>
</linearGradient>
<linearGradient id="paint16_linear" x1="41.875" y1="11.2318" x2="20.142" y2="11.2318" gradientUnits="userSpaceOnUse">
<stop stop-color="#373282"/>
<stop offset="1" stop-color="#2E419B"/>
</linearGradient>
<linearGradient id="paint17_linear" x1="32.558" y1="66.2785" x2="65.9401" y2="65.9401" gradientUnits="userSpaceOnUse">
<stop stop-color="#D6E6FD"/>
<stop offset="1" stop-color="#D2E3FD"/>
</linearGradient>
<linearGradient id="paint18_linear" x1="43.8451" y1="81.525" x2="57.1003" y2="65.6523" gradientUnits="userSpaceOnUse">
<stop stop-color="#A1BFF1"/>
<stop offset="1" stop-color="#A9BAE4" stop-opacity="0"/>
</linearGradient>
<linearGradient id="paint19_linear" x1="34.4383" y1="62.3457" x2="65.3133" y2="62.0327" gradientUnits="userSpaceOnUse">
<stop stop-color="#D6E6FD"/>
<stop offset="1" stop-color="#D2E3FD"/>
</linearGradient>
<linearGradient id="paint20_linear" x1="37.2153" y1="67.4091" x2="67.851" y2="52.063" gradientUnits="userSpaceOnUse">
<stop stop-color="#A1BFF1"/>
<stop offset="1" stop-color="#A9BAE4" stop-opacity="0"/>
</linearGradient>
</defs>
</svg>
