<svg viewBox="0 0 20 20" xmlns="http://www.w3.org/2000/svg">
<path d="M17.2006 15.4178H17.4509V20H16.7013C11.8333 20 9.01682 17.2233 9.01682 12.6902V10.359L10.5986 9.96126C11.0619 9.84398 11.4829 9.59887 11.8138 9.25383C12.1447 8.90879 12.3722 8.47768 12.4704 8.00958C12.5686 7.54148 12.5335 7.05519 12.3692 6.60607C12.2049 6.15694 11.9178 5.76302 11.5408 5.46915C11.1638 5.17527 10.712 4.99325 10.2367 4.9438C9.76144 4.89434 9.28185 4.97945 8.85252 5.18943C8.4232 5.3994 8.06139 5.72582 7.80828 6.13151C7.55517 6.5372 7.42093 7.00587 7.42084 7.48418V17.4713H2.5V7.31112C2.49973 7.00539 2.51913 6.69997 2.55806 6.39674C3.01738 2.79091 6.16289 0 9.97544 0C13.4319 0 16.3413 2.29498 17.2006 5.41263C17.6472 7.04556 17.5024 8.78401 16.7916 10.3203C16.1893 11.6167 15.2238 12.7101 14.0125 13.4676C14.4189 15.1169 15.2833 15.4217 17.2006 15.4217"/>
</svg>
