<svg width="77" height="16" viewBox="0 0 77 16" fill="none" xmlns="http://www.w3.org/2000/svg">
<path d="M6.86186 3.30176V6.38518H6.35782C5.29657 6.38518 4.4686 6.67688 3.87392 7.26029C3.27923 7.84369 2.98189 8.63621 2.98189 9.63782V15.1979H0V3.49274H2.98189V5.00604C3.87956 3.86985 5.00487 3.30176 6.35782 3.30176H6.86186Z" fill="#0F1419"/>
<path d="M19.6933 10.4228H10.628C10.8143 11.13 11.2381 11.7518 11.8283 12.1839C12.4181 12.6174 13.1357 12.8341 13.981 12.8341C14.6281 12.8415 15.2684 12.7013 15.8533 12.4244C16.3762 12.1874 16.8371 11.8324 17.1998 11.3873L19.1953 13.1363C18.5698 13.8809 17.7816 14.4718 16.8915 14.8636C15.9467 15.2797 14.9239 15.489 13.8915 15.4776C12.7311 15.4942 11.5855 15.2164 10.5615 14.6702C9.59367 14.1576 8.78634 13.3875 8.22871 12.4449C7.6823 11.4957 7.39239 10.4206 7.38751 9.32531C7.38264 8.23005 7.66296 7.15238 8.20091 6.19832C8.73352 5.27632 9.50911 4.51829 10.4431 4.00692C11.4125 3.47211 12.504 3.19767 13.6111 3.21038C15.367 3.21038 16.8323 3.7954 18.0072 4.96543C19.1821 6.13546 19.7687 7.60244 19.7671 9.36635C19.7664 9.71975 19.7417 10.0727 19.6933 10.4228ZM15.4822 6.48116C14.9407 6.05672 14.2725 5.82607 13.5845 5.82607C12.8965 5.82607 12.2283 6.05672 11.6868 6.48116C11.1405 6.93011 10.758 7.54718 10.599 8.2362H16.5749C16.4159 7.54684 16.0329 6.92962 15.4858 6.48116H15.4822Z" fill="#0F1419"/>
<path d="M38.9122 4.40047C39.7083 5.19339 40.1064 6.25141 40.1064 7.57455V15.1991H37.1173V8.46658C37.1173 7.7486 36.9098 7.17487 36.4948 6.74538C36.0798 6.31588 35.5246 6.10073 34.8292 6.09992C34.0967 6.09992 33.5024 6.32071 33.0463 6.7623C32.5902 7.20388 32.3622 7.78688 32.3622 8.5113V15.1991H29.3803V8.46658C29.3803 7.75666 29.1692 7.18494 28.7469 6.75142C28.3247 6.31789 27.7606 6.10073 27.0547 6.09992C26.3295 6.09992 25.7388 6.32273 25.2828 6.76834C24.8267 7.21395 24.599 7.79494 24.5998 8.5113V15.1991H21.6204V3.49273H24.6035V4.70144C25.4842 3.70627 26.6389 3.20909 28.0676 3.2099C28.8229 3.19485 29.5702 3.36632 30.2433 3.70909C30.865 4.03177 31.3866 4.51829 31.7518 5.11603C32.7187 3.84608 34.0483 3.2107 35.7405 3.2099C37.0629 3.21151 38.1201 3.60836 38.9122 4.40047Z" fill="#0F1419"/>
<path d="M54.4148 9.34659C54.4148 11.0887 53.8129 12.5465 52.609 13.7197C51.4051 14.893 49.91 15.4788 48.1235 15.4772C46.337 15.4772 44.8398 14.8905 43.6319 13.7173C42.424 12.544 41.8197 11.0863 41.8188 9.34417C41.8188 7.60282 42.4232 6.14472 43.6319 4.96985C44.8406 3.79498 46.3378 3.20835 48.1235 3.20996C49.91 3.20996 51.4051 3.79659 52.609 4.96985C53.8129 6.1431 54.4148 7.60202 54.4148 9.34659ZM50.4261 11.6613C51.0312 11.0448 51.3338 10.2733 51.3338 9.34659C51.3338 8.41991 51.0312 7.64795 50.4261 7.0307C49.8209 6.41426 49.0554 6.10563 48.1295 6.10483C47.7032 6.09365 47.2791 6.17065 46.884 6.33101C46.4888 6.49137 46.131 6.73164 45.833 7.03674C45.2423 7.66078 44.9132 8.48736 44.9132 9.34659C44.9132 10.2058 45.2423 11.0324 45.833 11.6564C46.1312 11.9612 46.4891 12.2011 46.8842 12.3612C47.2794 12.5213 47.7033 12.5983 48.1295 12.5871C49.0522 12.5871 49.8165 12.2785 50.4225 11.6613H50.4261Z" fill="#0F1419"/>
<path d="M59.8699 6.21716V11.0846C59.8699 12.0863 60.4082 12.5871 61.4847 12.5871C62.0191 12.568 62.5431 12.434 63.021 12.1942V14.9743C62.3461 15.3233 61.5941 15.4967 60.8345 15.4783C59.5266 15.4783 58.5415 15.129 57.8792 14.4304C57.2168 13.7317 56.886 12.7768 56.8868 11.5657V6.21716H55.0254V3.49273H56.8868V1.54187L59.8699 0.520508V3.49273H63.021V6.21716H59.8699Z" fill="#0F1419"/>
<path d="M76.237 10.4223H67.1644C67.3507 11.1296 67.7745 11.7513 68.3646 12.1834C68.9545 12.6169 69.6721 12.8337 70.5173 12.8337C71.1645 12.841 71.8047 12.7009 72.3896 12.4239C72.9126 12.1869 73.3735 11.8319 73.7361 11.3869L75.7317 13.1359C75.1062 13.8804 74.318 14.4714 73.4279 14.8631C72.4833 15.2801 71.4604 15.4902 70.4279 15.4795C69.2675 15.4961 68.1218 15.2183 67.0979 14.6721C66.13 14.1596 65.3227 13.3895 64.7651 12.4469C64.2187 11.4977 63.9288 10.4225 63.9239 9.32726C63.919 8.232 64.1993 7.15433 64.7373 6.20027C65.2703 5.27854 66.0457 4.52059 66.9794 4.00888C67.9489 3.47406 69.0404 3.19962 70.1475 3.21234C71.9041 3.21234 73.3695 3.79735 74.5436 4.96738C75.7176 6.13742 76.3043 7.60439 76.3034 9.3683C76.3051 9.72073 76.2828 10.0729 76.237 10.4223ZM72.0307 6.48069C71.4892 6.05626 70.821 5.82561 70.133 5.82561C69.445 5.82561 68.7768 6.05626 68.2353 6.48069C67.689 6.92965 67.3065 7.54672 67.1475 8.23574H73.1185C72.9599 7.54654 72.5773 6.92934 72.0307 6.48069Z" fill="#0F1419"/>
</svg>
