<svg width="44" height="44" viewBox="0 0 44 44" fill="none" xmlns="http://www.w3.org/2000/svg">
<rect width="44" height="44" rx="22" fill="#E6F4FF"/>
<path d="M29.2006 27.4178H29.4509V32H28.7013C23.8333 32 21.0168 29.2233 21.0168 24.6902V22.359L22.5986 21.9613C23.0619 21.844 23.4829 21.5989 23.8138 21.2538C24.1447 20.9088 24.3722 20.4777 24.4704 20.0096C24.5686 19.5415 24.5335 19.0552 24.3692 18.6061C24.2049 18.1569 23.9178 17.763 23.5408 17.4691C23.1638 17.1753 22.712 16.9932 22.2367 16.9438C21.7614 16.8943 21.2818 16.9795 20.8525 17.1894C20.4232 17.3994 20.0614 17.7258 19.8083 18.1315C19.5552 18.5372 19.4209 19.0059 19.4208 19.4842V29.4713H14.5V19.3111C14.4997 19.0054 14.5191 18.7 14.5581 18.3967C15.0174 14.7909 18.1629 12 21.9754 12C25.4319 12 28.3413 14.295 29.2006 17.4126C29.6472 19.0456 29.5024 20.784 28.7916 22.3203C28.1893 23.6167 27.2238 24.7101 26.0125 25.4676C26.4189 27.1169 27.2833 27.4217 29.2006 27.4217" fill="#0061FF"/>
</svg>
