<svg viewBox="0 0 98 98" fill="none"
  xmlns="http://www.w3.org/2000/svg">
  <circle cx="49" cy="49" r="49" fill="white" fill-opacity="0.2"/>
  <circle cx="49" cy="49" r="40" fill="currentColor" fill-opacity="0.75"/>
  <path d="M46.7501 64.7502V38.6824L34.8411 50.5936C34.4189 51.0155 33.8464 51.2524 33.2496 51.2522C32.6528 51.2519 32.0804 51.0147 31.6586 50.5925C31.2367 50.1703 30.9998 49.5978 31 49.001C31.0002 48.4041 31.2375 47.8318 31.6597 47.4099L47.4093 31.6603C47.5623 31.5071 47.7366 31.3768 47.9268 31.2733L47.9695 31.2508H47.983L48.0145 31.2261H48.0415H48.0595L48.1 31.1878C48.3839 31.0639 48.6903 31 49 31C49.3097 31 49.6161 31.0639 49.9 31.1878L49.9405 31.2058H49.9585L49.9855 31.2261L50.017 31.2418H50.0305L50.0732 31.2643C50.2634 31.3678 50.4377 31.4981 50.5907 31.6513L66.3403 47.4009C66.7625 47.8228 66.9998 48.3951 67 48.992C67.0002 49.5888 66.7633 50.1613 66.3414 50.5835C65.9196 51.0056 65.3472 51.2429 64.7504 51.2432C64.1536 51.2434 63.5811 51.0065 63.1589 50.5846L51.2499 38.6824V64.7502C51.2499 65.347 51.0129 65.9192 50.591 66.3412C50.169 66.7631 49.5967 67.0002 49 67.0002C48.4033 67.0002 47.831 66.7631 47.4091 66.3412C46.9871 65.9192 46.7501 65.347 46.7501 64.7502Z" fill="white" id="arrow"/>
</svg>
