<svg xmlns="http://www.w3.org/2000/svg" width="52" height="52" fill="none"><rect width="52" height="52" fill="#EFF7FF" rx="10"/><path fill="#0061FF" d="M23.887 22.333c-1.445 0-2.167 0-2.753.263a3 3 0 0 0-1.27 1.076c-.356.535-.475 1.247-.712 2.672L17.13 38.47c-.107.641-.16.962-.068 1.211a1 1 0 0 0 .44.52c.231.132.556.132 1.206.132h16.073c1.444 0 2.167 0 2.752-.263a3 3 0 0 0 1.27-1.075c.356-.535.475-1.248.712-2.673l1.71-10.263c.215-1.282.321-1.923.136-2.422a2 2 0 0 0-.88-1.039c-.462-.265-1.112-.265-2.412-.265H23.887Z" opacity=".32"/><path fill="#0061FF" d="M11.666 16.466c0-1.68 0-2.52.327-3.162a3 3 0 0 1 1.311-1.311c.642-.327 1.482-.327 3.162-.327h4.518c1.077 0 1.615 0 2.09.164a3 3 0 0 1 1.122.693c.359.352.6.833 1.081 1.796l.456.911c.321.643.482.964.721 1.198a2 2 0 0 0 .747.462c.317.11.676.11 1.394.11h5.737a3.334 3.334 0 0 1 3.334 3.333h-14.12c-1.926 0-2.889 0-3.67.35a4 4 0 0 0-1.694 1.435c-.474.713-.632 1.663-.949 3.563l-2.352 14.113a.645.645 0 0 1-.636.539 2.58 2.58 0 0 1-2.579-2.58V16.467Z"/></svg>