<svg viewBox="0 0 98 98" fill="none"
  xmlns="http://www.w3.org/2000/svg">
  <circle cx="49" cy="49" r="49" fill="white" fill-opacity="0.2"/>
  <circle cx="49" cy="49" r="40" fill="#3D41B6" fill-opacity="0.75"/>
  <path d="M37.5595 46.9658C36.935 46.3816 36.1118 46.0566 35.2567 46.0566C34.4016 46.0566 33.5785 46.3816 32.954 46.9658C32.653 47.2466 32.4129 47.5864 32.2488 47.964C32.0847 48.3416 32 48.7489 32 49.1606C32 49.5723 32.0847 49.9797 32.2488 50.3572C32.4129 50.7348 32.653 51.0746 32.954 51.3555L43.9406 61.8261L65.4808 41.2989C65.7818 41.0181 66.0218 40.6783 66.186 40.3007C66.3501 39.9231 66.4348 39.5158 66.4348 39.1041C66.4348 38.6924 66.3501 38.285 66.186 37.9075C66.0218 37.5299 65.7818 37.1901 65.4808 36.9092C64.8563 36.325 64.0332 36 63.1781 36C62.3229 36 61.4998 36.325 60.8753 36.9092L43.9421 53.0481L37.5595 46.9658Z" fill="#75e8f0" id="arrow"/>
</svg>
