<svg viewBox="0 0 34 34" fill="none"
  xmlns="http://www.w3.org/2000/svg">
  <circle cx="17" cy="17" r="17" fill="white" fill-opacity="0.2"/>
  <circle cx="17.0006" cy="17.0001" r="13.8776" fill="#3D41B6" fill-opacity="0.75"/>
  <path d="M20.4994 24.9996H13.5006C13.2234 25.0049 12.9481 24.952 12.6911 24.8442C12.4341 24.7364 12.2006 24.5759 12.0047 24.3723C11.8087 24.1686 11.6542 23.926 11.5505 23.659C11.4467 23.3919 11.3959 23.1059 11.4009 22.8179V13.3638H10.701C10.6077 13.3694 10.5143 13.3544 10.4269 13.3199C10.3396 13.2853 10.2602 13.2319 10.1941 13.1632C10.128 13.0946 10.0767 13.0121 10.0434 12.9214C10.0101 12.8306 9.99571 12.7335 10.0011 12.6366C9.99571 12.5396 10.0101 12.4425 10.0434 12.3518C10.0767 12.261 10.128 12.1786 10.1941 12.1099C10.2602 12.0412 10.3396 11.9878 10.4269 11.9533C10.5143 11.9187 10.6077 11.9037 10.701 11.9093H13.5006V11.1821C13.4954 10.8941 13.5462 10.608 13.6499 10.3409C13.7536 10.0738 13.9081 9.83117 14.1041 9.62751C14.3001 9.42385 14.5336 9.26334 14.7907 9.15558C15.0477 9.04783 15.3231 8.99504 15.6002 9.00037H18.3998C18.6769 8.99514 18.9522 9.048 19.2092 9.15579C19.4662 9.26358 19.6997 9.42409 19.8957 9.62773C20.0917 9.83138 20.2461 10.074 20.3499 10.341C20.4536 10.6081 20.5045 10.8941 20.4994 11.1821V11.9093H23.299C23.3923 11.9037 23.4857 11.9187 23.5731 11.9533C23.6604 11.9878 23.7398 12.0412 23.8059 12.1099C23.872 12.1786 23.9233 12.261 23.9566 12.3518C23.9899 12.4425 24.0043 12.5396 23.9989 12.6366C24.0043 12.7335 23.9899 12.8306 23.9566 12.9214C23.9233 13.0121 23.872 13.0946 23.8059 13.1632C23.7398 13.2319 23.6604 13.2853 23.5731 13.3199C23.4857 13.3544 23.3923 13.3694 23.299 13.3638H22.5991V22.8179C22.6042 23.1059 22.5534 23.392 22.4497 23.6591C22.346 23.9262 22.1916 24.1688 21.9956 24.3725C21.7996 24.5762 21.566 24.7367 21.309 24.8444C21.0519 24.9522 20.7766 25.005 20.4994 24.9996ZM12.8007 13.3638V22.8179C12.7953 22.9149 12.8097 23.0119 12.843 23.1027C12.8762 23.1935 12.9276 23.2759 12.9937 23.3446C13.0598 23.4133 13.1391 23.4666 13.2265 23.5012C13.3138 23.5358 13.4072 23.5508 13.5006 23.5452H20.4994C20.5928 23.5508 20.6862 23.5358 20.7735 23.5012C20.8609 23.4666 20.9402 23.4133 21.0063 23.3446C21.0724 23.2759 21.1238 23.1935 21.157 23.1027C21.1903 23.0119 21.2047 22.9149 21.1993 22.8179V13.3638H12.8007ZM15.6002 10.4548C15.5069 10.4492 15.4135 10.4642 15.3261 10.4988C15.2388 10.5334 15.1595 10.5867 15.0934 10.6554C15.0273 10.7241 14.9759 10.8065 14.9426 10.8973C14.9094 10.9881 14.8949 11.0851 14.9003 11.1821V11.9093H19.0997V11.1821C19.1051 11.0851 19.0906 10.9881 19.0574 10.8973C19.0241 10.8065 18.9727 10.7241 18.9066 10.6554C18.8405 10.5867 18.7612 10.5334 18.6739 10.4988C18.5865 10.4642 18.4931 10.4492 18.3998 10.4548H15.6002ZM18.3998 21.3634C18.3065 21.369 18.2131 21.3541 18.1257 21.3195C18.0383 21.2849 17.959 21.2315 17.8929 21.1629C17.8268 21.0942 17.7755 21.0118 17.7422 20.921C17.7089 20.8302 17.6945 20.7332 17.6999 20.6362V16.2728C17.6999 16.0799 17.7736 15.8949 17.9049 15.7585C18.0361 15.6221 18.2142 15.5455 18.3998 15.5455C18.5854 15.5455 18.7634 15.6221 18.8947 15.7585C19.0259 15.8949 19.0997 16.0799 19.0997 16.2728V20.6362C19.1051 20.7332 19.0906 20.8302 19.0574 20.921C19.0241 21.0118 18.9727 21.0942 18.9066 21.1629C18.8405 21.2315 18.7612 21.2849 18.6739 21.3195C18.5865 21.3541 18.4931 21.369 18.3998 21.3634ZM15.6002 21.3634C15.5069 21.369 15.4135 21.3541 15.3261 21.3195C15.2388 21.2849 15.1595 21.2315 15.0934 21.1629C15.0273 21.0942 14.9759 21.0118 14.9426 20.921C14.9094 20.8302 14.8949 20.7332 14.9003 20.6362V16.2728C14.8949 16.1758 14.9094 16.0787 14.9426 15.988C14.9759 15.8972 15.0273 15.8148 15.0934 15.7461C15.1595 15.6774 15.2388 15.624 15.3261 15.5895C15.4135 15.5549 15.5069 15.5399 15.6002 15.5455C15.6935 15.5399 15.7869 15.5549 15.8743 15.5895C15.9617 15.624 16.041 15.6774 16.1071 15.7461C16.1732 15.8148 16.2245 15.8972 16.2578 15.988C16.2911 16.0787 16.3055 16.1758 16.3001 16.2728V20.6362C16.3055 20.7332 16.2911 20.8302 16.2578 20.921C16.2245 21.0118 16.1732 21.0942 16.1071 21.1629C16.041 21.2315 15.9617 21.2849 15.8743 21.3195C15.7869 21.3541 15.6935 21.369 15.6002 21.3634Z" fill="white"/>
</svg>
