<svg xmlns="http://www.w3.org/2000/svg" width="52" height="52" fill="none"><rect width="52" height="52" fill="#EFF7FF" rx="10"/><path fill="#0061FF" d="M16.467 11.667c-1.68 0-2.52 0-3.162.327a3 3 0 0 0-1.311 1.31c-.327.643-.327 1.483-.327 3.163v17.466c0 2.24 0 3.36.436 4.216a4 4 0 0 0 1.748 1.748c.856.436 1.976.436 4.216.436h15.867c2.24 0 3.36 0 4.216-.436a4 4 0 0 0 1.748-1.748c.436-.855.436-1.975.436-4.216V23.4c0-2.24 0-3.36-.436-4.216a4 4 0 0 0-1.748-1.748C37.294 17 36.174 17 33.934 17h-4.005c-.717 0-1.076 0-1.393-.11a2 2 0 0 1-.748-.461c-.24-.235-.4-.556-.72-1.198l-.456-.91c-.482-.964-.723-1.446-1.082-1.797a3 3 0 0 0-1.12-.693c-.476-.164-1.015-.164-2.091-.164h-5.852Z" opacity=".32"/><path fill="#0061FF" fill-rule="evenodd" d="M31.197 24.803a.75.75 0 0 1 0 1.06l-6 6a.75.75 0 0 1-1.06 0l-2.667-2.666a.75.75 0 1 1 1.06-1.06l2.137 2.136 5.47-5.47a.75.75 0 0 1 1.06 0Z" clip-rule="evenodd"/></svg>