<svg width="32" height="32" viewBox="0 0 32 32" fill="none" xmlns="http://www.w3.org/2000/svg">
<path d="M0.999999 16C0.999998 7.71573 7.71573 0.999998 16 0.999998C24.2843 0.999997 31 7.71573 31 16C31 24.2843 24.2843 31 16 31C7.71573 31 0.999999 24.2843 0.999999 16Z" stroke="#624DE3" stroke-opacity="0.25" stroke-width="2"/>
<path d="M14.474 20.011C14.7294 20.2696 15.1491 20.2696 15.4045 20.011L19.2697 16.0965C19.5243 15.8387 19.5243 15.416 19.2697 15.1582L15.4045 11.2437C15.2721 11.1096 15.1058 11.0515 14.9358 11.0515C14.7627 11.0515 14.5988 11.1186 14.4697 11.2412L14.4672 11.2437C14.2125 11.5016 14.2125 11.9242 14.4672 12.1821L17.8725 15.6308L14.474 19.0726C14.2194 19.3305 14.2194 19.7531 14.474 20.011Z" fill="#624DE3"/>
</svg>
