<svg width="36" height="36" viewBox="0 0 36 36" fill="none" xmlns="http://www.w3.org/2000/svg">
<mask id="mask0_4631_171464" style="mask-type:alpha" maskUnits="userSpaceOnUse" x="0" y="0" width="36" height="36">
<path d="M36 18C36 27.9411 27.9411 36 18 36C8.05888 36 0 27.9411 0 18C0 8.05888 8.05888 0 18 0C27.9411 0 36 8.05888 36 18Z" fill="#005B43"/>
</mask>
<g mask="url(#mask0_4631_171464)">
<path d="M36 18C36 27.9411 27.9411 36 18 36C8.05888 36 0 27.9411 0 18C0 8.05888 8.05888 0 18 0C27.9411 0 36 8.05888 36 18Z" fill="#5700FF"/>
<mask id="mask1_4631_171464" style="mask-type:alpha" maskUnits="userSpaceOnUse" x="-128" y="-75" width="300" height="182">
<rect width="299.062" height="181.225" transform="matrix(1 8.74228e-08 8.74228e-08 -1 -127.618 106.877)" fill="#0CB668"/>
</mask>
<g mask="url(#mask1_4631_171464)">
<path d="M51.3877 -2.58937L35.6036 -13.1011L28.1418 -18.059L12.3577 -28.5693C6.69381 -24.9435 8.17017 -17.6045 16.0336 -10.3056L23.4883 -5.34201C35.7794 0.501982 45.961 -0.0854206 51.3805 -2.58366L51.3877 -2.58937Z" fill="#0061FF"/>
<path d="M78.3008 31.1525L62.5167 20.6421L55.062 15.6771L39.2808 5.16821C28.0988 14.7967 42.0277 33.0033 61.8621 34.684C71.898 35.5415 76.3228 32.2001 77.9878 30.9438L78.3008 31.1525Z" fill="#0061FF"/>
<path d="M39.2793 5.16826L23.4952 -5.34207L16.0405 -10.3071L0.25647 -20.8188C-11.2271 -10.9288 4.01812 7.88802 24.2441 8.78984C33.048 9.18287 37.5743 6.26588 39.2793 5.16683V5.16826Z" fill="#0061FF"/>
<path d="M65.0045 42.0717L25.9874 16.0874C19.4331 22.7332 20.2392 31.8543 28.0912 39.895L35.5416 44.86C44.1525 48.4545 56.3307 49.5549 64.6972 41.8587L65.0088 42.0659L65.0045 42.0717Z" fill="#0061FF"/>
<path d="M25.9855 16.0873L-13.0316 -9.89697C-19.5845 -3.25263 -18.7784 5.86994 -10.9264 13.9106L-3.4717 18.8742C7.33589 23.3462 18.3493 22.3043 25.9912 16.0873H25.9855Z" fill="#0061FF"/>
<path d="M51.3258 55.3691L35.5417 44.8602L28.0885 39.8966L12.3058 29.3862C5.50142 37.2697 6.16885 46.9768 14.0909 55.3562L21.5685 60.3312C30.2208 63.7527 42.5005 64.1901 51.0185 55.1618L51.3301 55.3691H51.3258Z" fill="#0061FF"/>
<path d="M12.3057 29.3846L-3.4784 18.8743L-10.9331 13.9107L-26.7172 3.40039C-33.5216 11.2824 -32.8527 20.991 -24.9292 29.3703L-17.456 34.3468C-6.59406 38.6015 4.53654 36.7464 12.3057 29.3846Z" fill="#0061FF"/>
</g>
</g>
</svg>
