<svg width="36" height="36" viewBox="0 0 36 36" fill="none" xmlns="http://www.w3.org/2000/svg">
<rect width="36" height="36" rx="10" fill="#EAF0F6"/>
<path d="M22.7442 26.1H13.9093C13.6178 26.1054 13.3281 26.052 13.0577 25.9429C12.7873 25.8338 12.5417 25.6713 12.3355 25.4651C12.1293 25.2589 11.9668 25.0133 11.8577 24.7429C11.7486 24.4725 11.6952 24.1828 11.7006 23.8913V12.1114C11.6952 11.8199 11.7486 11.5303 11.8577 11.2599C11.9668 10.9894 12.1293 10.7438 12.3355 10.5376C12.5417 10.3314 12.7873 10.1689 13.0577 10.0599C13.3281 9.95077 13.6178 9.89732 13.9093 9.90272H19.7992C19.903 9.89208 20.0072 9.91813 20.0937 9.97634C20.1673 9.97634 20.241 10.05 20.3146 10.1236L24.732 14.541C24.7628 14.5733 24.7877 14.6107 24.8057 14.6515C24.8236 14.6923 24.8486 14.7296 24.8793 14.7619C24.9375 14.8485 24.9635 14.9527 24.9529 15.0564V23.8913C24.9583 24.1828 24.9049 24.4725 24.7958 24.7429C24.6867 25.0133 24.5242 25.2589 24.318 25.4651C24.1118 25.6713 23.8662 25.8338 23.5958 25.9429C23.3253 26.052 23.0357 26.1054 22.7442 26.1ZM13.9093 11.3752C13.8111 11.3695 13.7129 11.3847 13.621 11.4197C13.5291 11.4547 13.4456 11.5087 13.3761 11.5783C13.3066 11.6478 13.2525 11.7312 13.2175 11.8231C13.1825 11.915 13.1674 12.0133 13.173 12.1114V23.8913C13.1674 23.9895 13.1825 24.0877 13.2175 24.1796C13.2525 24.2715 13.3066 24.355 13.3761 24.4245C13.4456 24.494 13.5291 24.5481 13.621 24.583C13.7129 24.618 13.8111 24.6332 13.9093 24.6275H22.7442C22.8423 24.6332 22.9406 24.618 23.0325 24.583C23.1244 24.5481 23.2078 24.494 23.2774 24.4245C23.3469 24.355 23.4009 24.2715 23.4359 24.1796C23.4709 24.0877 23.4861 23.9895 23.4804 23.8913V15.7926H19.7992C19.701 15.7983 19.6028 15.7831 19.5109 15.7482C19.419 15.7132 19.3356 15.6591 19.266 15.5896C19.1965 15.5201 19.1425 15.4366 19.1075 15.3447C19.0725 15.2528 19.0573 15.1546 19.063 15.0564V11.3752H13.9093ZM20.5355 12.4059V14.3202H22.4497L20.5355 12.4059ZM21.2717 22.4188H15.3818C15.1865 22.4188 14.9992 22.3412 14.8612 22.2032C14.7231 22.0651 14.6455 21.8778 14.6455 21.6826C14.6455 21.4873 14.7231 21.3 14.8612 21.162C14.9992 21.0239 15.1865 20.9463 15.3818 20.9463H21.2717C21.467 20.9463 21.6542 21.0239 21.7923 21.162C21.9304 21.3 22.0079 21.4873 22.0079 21.6826C22.0079 21.8778 21.9304 22.0651 21.7923 22.2032C21.6542 22.3412 21.467 22.4188 21.2717 22.4188ZM21.2717 19.4739H15.3818C15.1865 19.4739 14.9992 19.3963 14.8612 19.2582C14.7231 19.1201 14.6455 18.9329 14.6455 18.7376C14.6455 18.5423 14.7231 18.3551 14.8612 18.217C14.9992 18.0789 15.1865 18.0014 15.3818 18.0014H21.2717C21.467 18.0014 21.6542 18.0789 21.7923 18.217C21.9304 18.3551 22.0079 18.5423 22.0079 18.7376C22.0079 18.9329 21.9304 19.1201 21.7923 19.2582C21.6542 19.3963 21.467 19.4739 21.2717 19.4739ZM16.8543 16.5289H15.3818C15.2836 16.5346 15.1853 16.5194 15.0935 16.4844C15.0016 16.4494 14.9181 16.3954 14.8486 16.3258C14.7791 16.2563 14.725 16.1729 14.69 16.081C14.655 15.9891 14.6399 15.8908 14.6455 15.7926C14.6399 15.6945 14.655 15.5962 14.69 15.5043C14.725 15.4124 14.7791 15.329 14.8486 15.2595C14.9181 15.1899 15.0016 15.1359 15.0935 15.1009C15.1853 15.0659 15.2836 15.0507 15.3818 15.0564H16.8543C16.9524 15.0507 17.0507 15.0659 17.1426 15.1009C17.2345 15.1359 17.3179 15.1899 17.3874 15.2595C17.457 15.329 17.511 15.4124 17.546 15.5043C17.581 15.5962 17.5962 15.6945 17.5905 15.7926C17.5962 15.8908 17.581 15.9891 17.546 16.081C17.511 16.1729 17.457 16.2563 17.3874 16.3258C17.3179 16.3954 17.2345 16.4494 17.1426 16.4844C17.0507 16.5194 16.9524 16.5346 16.8543 16.5289Z" fill="#525F7F"/>
</svg>
