<svg width="36" height="36" viewBox="0 0 36 36" fill="none" xmlns="http://www.w3.org/2000/svg">
<rect width="36" height="36" rx="10" fill="#6FCF97" fill-opacity="0.15"/>
<path fill-rule="evenodd" clip-rule="evenodd" d="M10.8006 14.4006C10.3035 14.4006 9.90059 14.8035 9.90059 15.3006V24.3006C9.90059 24.7976 10.3035 25.2006 10.8006 25.2006H25.2006C25.6976 25.2006 26.1006 24.7976 26.1006 24.3006V15.3006C26.1006 14.8035 25.6976 14.4006 25.2006 14.4006H10.8006ZM8.10059 15.3006C8.10059 13.8094 9.30942 12.6006 10.8006 12.6006H25.2006C26.6918 12.6006 27.9006 13.8094 27.9006 15.3006V24.3006C27.9006 25.7918 26.6918 27.0006 25.2006 27.0006H10.8006C9.30942 27.0006 8.10059 25.7918 8.10059 24.3006V15.3006Z" fill="#6FCF97"/>
<path fill-rule="evenodd" clip-rule="evenodd" d="M14.2908 9.79081C14.7972 9.28446 15.4839 9 16.2 9H19.8C20.5161 9 21.2028 9.28446 21.7092 9.79081C22.2155 10.2972 22.5 10.9839 22.5 11.7V26.1C22.5 26.5971 22.0971 27 21.6 27C21.1029 27 20.7 26.5971 20.7 26.1V11.7C20.7 11.4613 20.6052 11.2324 20.4364 11.0636C20.2676 10.8948 20.0387 10.8 19.8 10.8H16.2C15.9613 10.8 15.7324 10.8948 15.5636 11.0636C15.3948 11.2324 15.3 11.4613 15.3 11.7V26.1C15.3 26.5971 14.8971 27 14.4 27C13.9029 27 13.5 26.5971 13.5 26.1V11.7C13.5 10.9839 13.7845 10.2972 14.2908 9.79081Z" fill="#6FCF97"/>
<path fill-rule="evenodd" clip-rule="evenodd" d="M14.2908 9.79081C14.7972 9.28446 15.4839 9 16.2 9H19.8C20.5161 9 21.2028 9.28446 21.7092 9.79081C22.2155 10.2972 22.5 10.9839 22.5 11.7V14.4C22.5 14.4 22.0971 14.4 21.6 14.4C21.1029 14.4 20.7 14.4 20.7 14.4V11.7C20.7 11.4613 20.6052 11.2324 20.4364 11.0636C20.2676 10.8948 20.0387 10.8 19.8 10.8H16.2C15.9613 10.8 15.7324 10.8948 15.5636 11.0636C15.3948 11.2324 15.3 11.4613 15.3 11.7V14.4C15.3 14.4 14.8971 14.4 14.4 14.4C13.9029 14.4 13.5 14.4 13.5 14.4V11.7C13.5 10.9839 13.7845 10.2972 14.2908 9.79081Z" fill="#6FCF97"/>
</svg>
