<svg width="36" height="36" viewBox="0 0 36 36" fill="none" xmlns="http://www.w3.org/2000/svg">
<rect width="36" height="36" rx="10" fill="#FCE7F0"/>
<path fill-rule="evenodd" clip-rule="evenodd" d="M11.2184 21.1178C12.0623 20.2739 13.2069 19.7998 14.4004 19.7998H21.6004C22.7939 19.7998 23.9385 20.2739 24.7824 21.1178C25.6263 21.9617 26.1004 23.1063 26.1004 24.2998V26.0998C26.1004 26.5969 25.6974 26.9998 25.2004 26.9998C24.7033 26.9998 24.3004 26.5969 24.3004 26.0998V24.2998C24.3004 23.5837 24.0159 22.897 23.5096 22.3906C23.0032 21.8843 22.3165 21.5998 21.6004 21.5998H14.4004C13.6843 21.5998 12.9976 21.8843 12.4912 22.3906C11.9849 22.897 11.7004 23.5837 11.7004 24.2998V26.0998C11.7004 26.5969 11.2974 26.9998 10.8004 26.9998C10.3033 26.9998 9.90039 26.5969 9.90039 26.0998V24.2998C9.90039 23.1063 10.3745 21.9617 11.2184 21.1178Z" fill="#E83E8C"/>
<path fill-rule="evenodd" clip-rule="evenodd" d="M18 10.8C16.5088 10.8 15.3 12.0088 15.3 13.5C15.3 14.9912 16.5088 16.2 18 16.2C19.4912 16.2 20.7 14.9912 20.7 13.5C20.7 12.0088 19.4912 10.8 18 10.8ZM13.5 13.5C13.5 11.0147 15.5147 9 18 9C20.4853 9 22.5 11.0147 22.5 13.5C22.5 15.9853 20.4853 18 18 18C15.5147 18 13.5 15.9853 13.5 13.5Z" fill="#E83E8C"/>
</svg>
