<svg width="71" height="16" viewBox="0 0 71 16" fill="none" xmlns="http://www.w3.org/2000/svg">
<g opacity="0.9">
<path d="M70.8426 6.99401C70.8426 2.88794 67.982 0 63.9718 0C58.8666 0 55.4448 3.70915 55.4448 9.00599C55.4448 13.1394 58.3328 16 62.4115 16C66.1206 16 68.8854 14.207 70.0214 11.3464H65.9016C65.3542 12.2361 64.1908 12.7973 62.7673 12.7973C60.5774 12.7973 59.2087 11.3464 59.0855 9.29341H70.6099C70.7605 8.51326 70.8426 7.8426 70.8426 6.99401ZM59.4003 6.51497C59.7699 4.62618 61.6039 3.12062 63.8212 3.12062C65.7374 3.12062 67.1882 4.51668 67.1882 6.51497H59.4003Z" fill="#2E4369"/>
<path d="M44.3681 15.6313L45.1072 11.6895C47.3655 12.1411 47.7077 10.8682 48.2962 7.80237L48.5837 6.28312C49.4049 1.99912 51.061 -0.136036 55.7967 0.438814L55.0576 4.38064C52.7992 3.92898 52.4023 5.63984 51.8959 8.2951L51.6085 9.81435C50.7873 14.1531 49.0764 16.2061 44.3681 15.6313Z" fill="#2E4369"/>
<path d="M38.8369 15.6447L41.629 0.370117H45.3108L42.5323 15.6447H38.8369Z" fill="#2E4369"/>
<path d="M17.7474 0.370117H21.3197L22.4831 11.4155L27.164 0.370117H30.7089L31.9544 11.525L36.4711 0.370117H40.0297L33.5558 15.6447H29.5044L28.1905 5.13316L23.7149 15.6447H19.8004L17.7474 0.370117Z" fill="#2E4369"/>
<path d="M4.4003 4.42144L0.157349 8.47277H7.37036L8.12314 6.70716H4.46873L6.75445 4.42144L5.42682 2.13573H11.627L5.90586 15.6447H8.05471L14.5286 0.370117H2.01877L4.4003 4.42144Z" fill="#00B9FF"/>
</g>
</svg>

