<svg xmlns="http://www.w3.org/2000/svg" width="209" height="90" fill="none"><path stroke="#000" stroke-linecap="round" stroke-miterlimit="10" stroke-width=".524" d="M103.4-72.991s-79.319 44.689-74.861 88.97c4.551 45.215 70.163 28.584 70.163 28.584M80.417 55.65c16.56-.11 31.798-5.274 31.798-5.274"/><path fill="#DB9595" d="M113.583 30.044c1.157 4.262 4.38 12.679 12.596 18.264a3.446 3.446 0 0 1 1.26 4.125 3.434 3.434 0 0 1-3.673 2.114c-3.755-.536-10.939-2.065-18.6-6.375a3.467 3.467 0 0 1-1.079-.963c-.927-1.284-.266-3.108 1.276-3.487l1.691-.42-.677-.803c-1.727-2.063-.799-5.217 1.764-6.022l-1.322-2.482c-1.421-2.665.287-5.92 3.281-6.275a3.176 3.176 0 0 1 3.483 2.324Z"/><path stroke="#000" stroke-linecap="round" stroke-miterlimit="10" stroke-width=".524" d="M108.155 36.453s7.658 12.487 17.067 14.937M107.058 43.281s6.567 6.083 13.708 8.81"/><path fill="#fff" d="M197.699 15.837c.01.037.011.076.021.114.007.097.013.195.023.302.004.09.02.184.026.282.006.059.012.117.011.187l.01.147c.008.028.003.049.002.08.002.008.005.018-.002.03l.01.146c.008.068.007.138.016.205-.001.07.007.138.009.217.012.117.014.236.019.364.009.107.009.217.018.324.005.019-.002.03.003.049l.015.385c.022.522.029 1.098.032 1.696.007.098.001.189-.001.29-.005.13.003.268.001.408-.008.63-.018 1.291-.049 1.987l-.018.484-.005.09c-.001.07-.009.153-.009.223-.02.294-.031.586-.06.883-.001.07-.011.143-.018.225-.006.09-.018.194-.023.285l-.015.273c-.012.103-.015.203-.027.306-.034.389-.066.786-.116 1.189-.012.102-.021.215-.033.318-.004.02.001.04-.003.06-.011.073-.018.155-.026.237l.002.009c-.011.103-.026.196-.038.3l-.036.308c-.015.164-.04.33-.064.496-.051.403-.101.805-.17 1.213-.031.178-.051.363-.082.54-.019.115-.04.22-.049.333-.019.115-.04.22-.059.335-.004.021-.011.033-.006.051-.025.167-.059.335-.083.502a1.186 1.186 0 0 1-.034.168c-.024.096-.036.2-.057.305-.037.23-.084.461-.131.693-.021.106-.04.22-.068.338-.025.126-.044.241-.069.368-.028.117-.047.232-.075.349-.023.096-.038.19-.062.286-.032.138-.062.286-.094.424a9.203 9.203 0 0 0-.081.361c-.028.118-.054.244-.082.361l-.084.352c-.006.012-.011.033-.006.052-.056.234-.114.46-.17.694l-.188.74c-.063.245-.128.483-.191.729-.034.129-.069.258-.113.39-.035.129-.072.248-.107.377-.035.13-.072.25-.107.378a3.667 3.667 0 0 1-.116.38c-.037.12-.072.25-.109.37l-.007.011c-.035.13-.079.261-.113.39-.038.12-.075.24-.115.35-.041.141-.083.282-.133.425-.044.132-.079.261-.123.393l-.264.79c-.038.119-.084.241-.121.361-.005.021-.018.045-.022.066a7.774 7.774 0 0 1-.142.397c-.046.122-.084.242-.13.364-.044.132-.098.266-.144.389-.051.143-.102.286-.155.42-.04.111-.079.222-.129.335l-.053.134c-.04.11-.079.22-.129.334-.053.134-.097.265-.15.4-.16.402-.327.816-.493 1.23-.116.27-.232.542-.346.822-.062.136-.116.27-.176.416-.062.137-.125.274-.185.42-.125.273-.248.555-.373.829-.063.136-.125.273-.195.421-.134.276-.266.561-.4.837-.135.276-.267.56-.411.84-.072.138-.141.287-.213.426-.137.267-.271.542-.418.811-.078.151-.166.305-.242.465-.151.29-.304.57-.457.852-.153.28-.313.573-.475.857-.122.212-.243.425-.363.647-.061.106-.121.212-.192.32-.311.544-.634 1.08-.966 1.62a1.44 1.44 0 0 1-.563.53c-.07.04-.157.083-.245.127-.132.066-.289.148-.465.236-.034.02-.078.041-.122.063-.122.063-.254.129-.393.206-.097.047-.201.105-.316.156-.07.039-.141.068-.22.11-.097.046-.201.104-.307.153-4.123 2.037-13.295 6.222-25.595 9.831-10.657 3.124-26.169 5.222-37.056 7.241-.181.03-.36.068-.542.098-.028.007-.067.008-.095.016-.105.018-.21.037-.312.064-.037.01-.086.014-.123.024-.181.03-.351.065-.521.101-.028.008-.055.015-.086.014-.067.008-.132.026-.2.034a4.07 4.07 0 0 0-.348.075c-.087.013-.17.036-.256.05-.188.04-.37.07-.558.11-.056.016-.123.024-.179.04-.105.018-.216.048-.321.067l-.074.02c-.142.028-.274.054-.414.092-.234.054-.471.098-.697.15-.104.018-.207.046-.302.062l-.074.02c-.102.028-.198.044-.3.071-.132.026-.262.062-.386.085-.197.044-.383.094-.571.135-.074.02-.142.029-.216.05l-.205.055c-.271.063-.522.132-.773.2-1.2.316-2.223-.882-1.751-2.007.007-.012.011-.033.018-.045l.013-.024c.027-.047.045-.092.072-.139.041-.07.07-.148.108-.228.031-.069.062-.137.1-.217a5.5 5.5 0 0 1 .146-.309c.194-.422.393-.864.591-1.347.025-.056.047-.122.08-.181.11-.26.225-.53.33-.807.042-.102.084-.203.124-.313.089-.224.184-.46.278-.704l.106-.268c.182-.468.356-.964.538-1.472l.066-.197.066-.198-.003-.01c.058-.154.103-.316.161-.471.055-.165.113-.32.158-.482.029-.078.055-.165.084-.242.048-.153.103-.317.149-.48.026-.086.055-.164.081-.25a.91.91 0 0 0 .042-.142l.007-.011c.008-.043.026-.087.037-.12l.079-.26c.085-.273.168-.555.249-.846.035-.13.079-.26.113-.39.111-.399.222-.798.331-1.206.043-.172.095-.345.136-.526.024-.096.054-.204.076-.31.008-.042.019-.075.028-.117.012-.063.034-.129.045-.201l.012-.064c.026-.126.063-.246.088-.373l-.002-.009c.032-.138.074-.28.103-.427.03-.147.072-.288.101-.436.026-.126.054-.244.088-.373.039-.15.067-.307.106-.457.014-.094.04-.18.055-.274.066-.307.13-.624.202-.943.085-.421.168-.852.247-1.293l.12-.66c.023-.136.049-.263.071-.399l.069-.407c.032-.178.054-.354.085-.532.033-.208.06-.405.093-.613.02-.145.041-.29.07-.438.07-.478.131-.953.198-1.44.044-.35.082-.69.123-1.05l-.002-.01c.028-.226.053-.462.079-.699.002-.03.003-.06.012-.103.012-.103.024-.206.026-.306l.07-.736c.036-.38.061-.765.095-1.153.017-.194.025-.386.045-.57.017-.195.025-.386.039-.59.023-.355.04-.698.051-1.06l.029-.776c.01-.182.014-.352.015-.532-.005-.019.002-.03-.003-.05a.558.558 0 0 1 .006-.12c.008-.192.007-.381.015-.573.004-.02-.004-.049-.002-.08.005-.2.008-.41.011-.62.004-.13.006-.271.001-.4v-.328c-.002-.01.002-.03 0-.04.003-.43-.004-.857-.01-1.284l-.002-.009c-.005-.347-.01-.695-.017-1.052-.011-.187-.01-.366-.02-.553-.006-.058 0-.11-.006-.168l-.015-.385-.017-.394a.352.352 0 0 0-.007-.098c-.005-.018-.001-.04-.006-.058-.005-.018.002-.03-.003-.049-.013-.196-.017-.394-.031-.59-.014-.235-.021-.482-.035-.718l-.003-.01-.03-.44-.029-.44c-.02-.294-.043-.597-.065-.9a7.011 7.011 0 0 0-.039-.438c-.006-.018-.004-.049-.009-.067-.005-.019-.001-.04.001-.07-.005-.019-.001-.04.001-.07a.62.62 0 0 1 .014-.134c.036-.269.148-.519.309-.732.128-.154.282-.286.464-.385.019-.005.035-.02.062-.027.019-.005.035-.02.063-.027.019-.005.035-.02.062-.027.019-.005.047-.012.063-.027l.065-.017.046-.013.01-.003.046-.012.037-.01.028-.008.046-.012.01-.003c.055-.015.111-.03.169-.036l.093-.025.084-.023c.028-.008.065-.018.095-.016l.102-.028c.028-.007.065-.017.096-.015l.055-.016.038-.01.018-.005.093-.025.037-.01.065-.018.009-.002.047-.013.037-.01.009-.002c.028-.008.056-.016.096-.016l.055-.016.056-.015.009-.002.047-.013.009-.002.047-.013.055-.015c.047-.013.084-.023.133-.026l.009-.003.037-.01.056-.015.018-.005.038-.01.009-.002.009-.003c.074-.02.151-.031.226-.051l.009-.003a.464.464 0 0 1 .114-.02.464.464 0 0 1 .114-.022l.046-.012c.047-.013.105-.019.151-.031.037-.01.077-.011.114-.021a.393.393 0 0 1 .105-.019.393.393 0 0 1 .104-.018c.105-.019.207-.046.312-.065l.074-.02.009-.003.038-.01.009-.002c.046-.013.095-.016.142-.029a9.098 9.098 0 0 1 .093-.025c.065-.017.123-.023.188-.041l.009-.003c.065-.017.133-.026.198-.043a.16.16 0 0 1 .067-.009l.056-.015c.132-.026.265-.052.395-.087.037-.01.086-.013.123-.023.037-.01.086-.014.133-.026l.518-.111.074-.02.019-.005.055-.016c.047-.012.096-.016.142-.028l.01-.003.009-.002c.055-.015.123-.024.179-.039l.037-.01c.077-.01.142-.028.216-.049l.046-.012.075-.02c.114-.021.228-.042.348-.075l.093-.025c.056-.016.105-.019.16-.034l.01-.002.518-.111c.056-.015.114-.021.179-.039.074-.02.151-.031.225-.051.037-.01.077-.011.114-.021l.537-.116.009-.002c.056-.016.114-.022.17-.037.056-.015.114-.02.179-.038.188-.041.376-.082.567-.114.216-.05.444-.091.669-.142.028-.008.056-.015.077-.011.056-.015.114-.021.17-.036.321-.067.644-.125.974-.195.065-.018.123-.023.188-.041l.009-.003.01-.002.065-.018c.028-.007.065-.017.095-.016l.009-.002.379-.073.398-.078.009-.003.388-.075.01-.003.36-.068c.191-.032.388-.075.579-.107l.256-.05c.056-.015.105-.018.151-.03.188-.042.37-.071.558-.112.028-.008.067-.009.095-.016l.407-.08.407-.081.046-.013c.086-.013.173-.027.265-.052.038-.01.068-.008.105-.018l.407-.081.037-.01.712-.134a.232.232 0 0 1 .076-.01c.047-.013.086-.014.133-.026.095-.016.181-.03.274-.055.028-.008.068-.008.096-.016l.009-.002.018-.005.019-.006c.028-.007.068-.008.095-.015l.038-.01.018-.006c.037-.01.077-.01.114-.02.046-.013.086-.014.133-.026.151-.032.295-.05.446-.082.181-.03.37-.07.551-.1l.591-.1c.133-.026.265-.052.391-.067.144-.019.286-.047.437-.078.077-.011.154-.022.237-.045l.068-.008.037-.01c.277-.046.542-.098.819-.143.086-.013.162-.024.246-.047.077-.01.144-.02.219-.04l.027-.007c.019-.005.028-.007.049-.003.151-.031.305-.053.456-.084l.019-.005c.172-.027.342-.063.514-.09.181-.03.369-.07.56-.102.188-.041.388-.076.588-.11l.324-.058c.028-.008.055-.015.086-.013.067-.009.132-.026.2-.035a.362.362 0 0 1 .095-.016c.047-.012.096-.016.142-.028.077-.011.16-.034.237-.045.056-.015.105-.018.161-.033l.055-.015.037-.01.238-.045c.104-.018.206-.046.311-.065l.046-.012c.219-.04.435-.088.651-.137.237-.044.472-.098.716-.154.228-.042.463-.096.697-.15l1.083-.234.037-.01c.244-.056.491-.104.744-.162l.018-.005c.047-.013.093-.026.133-.026l.62-.139 1.195-.264.028-.008.592-.13.602-.134.834-.197c.413-.092.834-.197 1.266-.294.151-.031.3-.071.448-.112a6.82 6.82 0 0 0 .439-.109c.142-.028.29-.069.439-.11.074-.02.139-.037.216-.048.074-.02.151-.03.226-.051.188-.041.364-.09.552-.13.195-.053.384-.094.579-.147a1.19 1.19 0 0 1 .179-.039l.027-.008c.3-.07.597-.152.897-.223l1.827-.466.019-.005c.148-.04.29-.07.439-.11.309-.073.615-.157.931-.242 1.416-.365 2.858-.747 4.304-1.15.353-.095.706-.19 1.058-.287l.595-.161.464-.126c.176-.048.353-.096.536-.156l.26-.07.306-.083c.065-.018.13-.036.186-.05.046-.014.102-.029.158-.044l.195-.053c.167-.045.332-.1.499-.145l.037-.01c.121-.033.251-.068.369-.11.378-.113.749-.214 1.128-.326a6.85 6.85 0 0 1 .083-.023c.167-.046.332-.1.49-.143l.018-.005a.855.855 0 0 0 .019-.005l.009-.003.056-.015.083-.023a.823.823 0 0 0 .147-.05l.102-.027c.074-.02.157-.043.229-.072l.037-.01c.075-.02.149-.04.221-.07l.046-.013.093-.025.065-.018c.111-.03.22-.07.332-.1.111-.03.229-.072.341-.102.102-.028.211-.067.313-.095.111-.03.211-.067.322-.098.056-.015.103-.027.156-.052.111-.03.211-.067.322-.098l.009-.002.156-.052.093-.025c.092-.026.183-.06.276-.085.109-.04.22-.07.338-.112l.112-.03a.557.557 0 0 0 .118-.043c.065-.017.137-.047.201-.064a.629.629 0 0 0 .128-.045l.037-.01c.056-.015.1-.037.155-.052.109-.04.221-.07.33-.11.127-.044.257-.08.394-.126.028-.008.056-.015.081-.032.155-.053.304-.093.459-.145l.028-.008.037-.01c.028-.007.056-.015.09-.034l.075-.02c.037-.01.065-.018.099-.037l.038-.01.018-.005.047-.013c.027-.008.065-.018.09-.035l.009-.002c.128-.045.258-.08.385-.125l.084-.022.027-.008c.084-.023.165-.055.249-.077a1.523 1.523 0 0 1 .229-.072l.065-.018.019-.005.009-.003.019-.005.037-.01.046-.012c.028-.008.056-.015.081-.032l.065-.018.065-.018.037-.01.01-.002c.062-.027.127-.045.192-.063.091-.034.183-.06.274-.094a.27.27 0 0 0 .081-.032c.046-.012.099-.037.146-.05.065-.017.127-.044.202-.064l.046-.013c.046-.012.081-.032.128-.044l.046-.013c.081-.032.164-.055.246-.087a2.258 2.258 0 0 1 .092-.025c.1-.037.2-.074.302-.102.037-.01.072-.029.118-.042.037-.01.072-.03.1-.037.071-.03.146-.05.217-.079.047-.012.081-.032.128-.044l.018-.005.392-.137.056-.015.009-.002c.072-.03.146-.05.218-.08.028-.007.062-.026.09-.034.047-.012.1-.037.146-.05.081-.031.165-.054.246-.086.037-.01.062-.027.1-.037.037-.01.071-.03.099-.037l.019-.005.009-.003.009-.002c.065-.018.119-.042.174-.057.081-.032.156-.053.227-.082.047-.013.081-.032.119-.042.027-.008.053-.024.081-.032.081-.032.164-.055.245-.087.028-.007.053-.024.081-.032.063-.027.128-.044.19-.071.053-.025.118-.042.172-.067.136-.047.28-.106.417-.153a1.362 1.362 0 0 1 .065-.017c.053-.025.109-.04.162-.064.062-.027.127-.045.19-.072.018-.005.028-.008.044-.022a1.48 1.48 0 0 1 .037-.01l.009-.002.028-.008c.053-.024.109-.04.162-.064.062-.027.137-.047.199-.074.037-.01.072-.03.109-.04.109-.04.218-.079.324-.128.044-.021.091-.034.134-.056.054-.024.119-.042.172-.066.018-.005.028-.008.044-.022.028-.008.062-.027.09-.035.047-.012.081-.032.125-.054.053-.024.109-.04.162-.064.037-.01.081-.032.118-.042a.119.119 0 0 0 .053-.024c.054-.024.1-.037.153-.061a.855.855 0 0 0 .019-.005l.018-.005.019-.006.009-.002.01-.003c.018-.005.037-.01.053-.024.053-.024.118-.042.18-.069.044-.022.081-.032.125-.054a.122.122 0 0 0 .054-.024c.018-.005.037-.01.053-.025.028-.007.044-.022.072-.03l.196-.082c.053-.025.1-.038.153-.062.044-.022.09-.034.144-.059.106-.049.224-.09.331-.14.027-.007.043-.021.071-.029l.019-.005c.044-.022.1-.037.143-.059l.1-.037.009-.003c.028-.007.044-.021.072-.029.035-.02.072-.03.106-.049.054-.024.107-.049.153-.061.035-.02.063-.027.097-.047.116-.05.234-.093.35-.144.034-.02.072-.03.097-.047l.018-.005c.054-.024.107-.049.163-.064.009-.002.027-.007.034-.019l.394-.167c.087-.043.178-.078.268-.112l.197-.084c.018-.005.037-.01.053-.024l.063-.027c.018-.005.025-.017.043-.022l.01-.002.018-.006c.026-.016.053-.024.088-.043.053-.025.116-.052.169-.076.019-.005.035-.02.053-.025l.16-.073c.044-.022.087-.043.134-.056.025-.017.053-.025.078-.041.019-.006.035-.02.054-.025l.071-.03.01-.002c.034-.02.071-.03.106-.049l.009-.002c.026-.017.044-.022.07-.039.009-.002.018-.005.025-.017l.028-.007c.025-.017.053-.025.078-.042l.292-.138c.115-.052.228-.112.344-.164.028-.007.044-.022.069-.038.072-.03.132-.066.194-.093.019-.005.044-.022.063-.027.009-.003.025-.017.035-.02.009-.002.025-.016.034-.019.063-.027.123-.063.185-.09.025-.017.063-.027.088-.044.009-.002.019-.005.025-.017a1.495 1.495 0 0 1 1.338.006c.558.257.86.634.951 1.118Z"/><path fill="#DD9797" d="M184.528 58.715c-4.132 2.039-13.295 6.222-25.595 9.831-10.657 3.123-26.169 5.222-37.056 7.241.165-.164 20.958-21.214 36.56-32.16l15.145-4.99c-.007.011 9.762 8.007 10.946 20.078Z" opacity=".3"/><path fill="#000" d="M121.215 36.376s20.339 12.742 42.41 16.04a2.282 2.282 0 0 0 1.804-.519c3.304-2.811 16.413-14.526 29.013-33.332l-73.227 17.811Z"/><path fill="#fff" d="m196.912 14.774-.054.095a34.45 34.45 0 0 1-.149.26c-1.149 1.936-2.472 3.781-3.827 5.585a102.685 102.685 0 0 1-4.231 5.236 138.025 138.025 0 0 1-4.53 4.98 206.944 206.944 0 0 1-4.73 4.793 505.954 505.954 0 0 1-4.846 4.696c-.687.665-1.386 1.323-2.075 1.979-1.566 1.502-5.911 5.513-7.647 7.121a2.15 2.15 0 0 1-1.732.56c-3.548-.432-7.126-1.126-10.618-1.982-6.814-1.669-13.471-3.969-19.95-6.646-4.074-1.675-8.37-3.36-12.187-5.594-.342-.196-.65-.302-.88-.598.578-.476 1.472-.6 2.194-.766a492.176 492.176 0 0 1 11.085-2.282c13.266-2.585 26.609-5.072 39.573-8.951a211.75 211.75 0 0 0 7.06-2.236 210.32 210.32 0 0 0 6.978-2.463c2.281-.85 4.573-1.7 6.803-2.665.438-.189.863-.384 1.295-.591.373-.171.773-.46 1.163-.565a1.501 1.501 0 0 1 1.305.034Z"/><path stroke="#000" stroke-linecap="round" stroke-miterlimit="10" stroke-width=".524" d="m196.912 14.774-.054.095a34.45 34.45 0 0 1-.149.26c-1.149 1.936-2.472 3.781-3.827 5.585a102.685 102.685 0 0 1-4.231 5.236 138.025 138.025 0 0 1-4.53 4.98 206.944 206.944 0 0 1-4.73 4.793 505.954 505.954 0 0 1-4.846 4.696c-.687.665-1.386 1.323-2.075 1.979-1.566 1.502-5.911 5.513-7.647 7.121a2.15 2.15 0 0 1-1.732.56c-3.548-.432-7.126-1.126-10.618-1.982-6.814-1.669-13.471-3.969-19.95-6.646-4.074-1.675-8.37-3.36-12.187-5.594-.342-.196-.65-.302-.88-.598.578-.476 1.472-.6 2.194-.766a492.176 492.176 0 0 1 11.085-2.282c13.266-2.585 26.609-5.072 39.573-8.951a211.75 211.75 0 0 0 7.06-2.236 210.32 210.32 0 0 0 6.978-2.463c2.281-.85 4.573-1.7 6.803-2.665.438-.189.863-.384 1.295-.591.373-.171.773-.46 1.163-.565a1.501 1.501 0 0 1 1.305.034Z"/><path stroke="#000" stroke-linecap="round" stroke-miterlimit="10" stroke-width=".524" d="M197.699 15.837c.011.037.011.076.021.114l.023.302c.004.09.02.184.027.282.005.059.011.117.01.187l.01.147c.008.027.004.049.002.079.002.01.005.019-.002.03l.01.147c.009.068.008.138.016.205-.001.07.007.138.009.217.012.117.014.236.019.364.009.107.009.217.018.324.005.018-.002.03.004.049l.014.385c.013.525.029 1.098.032 1.696.007.098.002.189-.001.29-.004.13.003.268.001.408-.008.63-.018 1.29-.048 1.987l-.019.484-.005.09c-.001.07-.008.153-.009.223-.02.294-.03.586-.059.883-.001.07-.012.143-.019.224-.005.092-.017.195-.023.286-.005.09-.01.182-.024.276-.003.1-.015.203-.027.306-.034.388-.066.786-.116 1.188-.012.103-.021.215-.033.318-.004.021.001.04-.004.06-.01.073-.017.155-.025.237l.002.01c-.012.102-.026.196-.038.299l-.036.309c-.015.163-.04.33-.064.496-.051.402-.101.805-.17 1.212-.031.178-.051.363-.082.541-.019.115-.04.22-.049.332-.019.115-.04.22-.059.335-.004.021-.011.033-.006.052-.025.166-.059.335-.083.501a1.19 1.19 0 0 1-.034.169c-.024.096-.036.199-.057.304-.037.23-.084.462-.131.694-.021.105-.04.22-.068.337-.025.127-.044.242-.069.368-.028.117-.047.232-.075.35-.024.096-.038.19-.062.285-.032.139-.062.286-.094.425-.028.117-.056.234-.081.36-.028.118-.054.245-.082.362l-.084.352c-.006.012-.011.033-.006.051-.056.235-.114.46-.17.695l-.188.739c-.063.246-.128.483-.191.73-.035.128-.069.258-.113.39-.035.128-.072.248-.107.377-.035.13-.072.249-.107.378s-.069.258-.116.38c-.037.12-.072.25-.109.369l-.007.012c-.035.129-.079.26-.113.39-.038.12-.075.24-.115.35-.041.14-.083.281-.133.425-.044.131-.079.26-.123.392l-.264.79c-.038.12-.084.242-.121.361-.005.022-.018.045-.023.066-.044.132-.088.264-.141.398-.037.12-.084.242-.13.364-.044.132-.098.266-.144.388-.051.143-.102.287-.155.42-.04.111-.08.222-.129.335l-.053.134c-.04.11-.079.221-.129.334-.053.134-.097.266-.15.4-.16.402-.327.816-.494 1.23-.115.271-.231.542-.345.822-.062.137-.116.27-.176.417-.062.136-.125.273-.185.419-.125.273-.248.556-.373.83-.063.136-.125.272-.195.42-.134.277-.266.562-.401.837-.134.276-.266.561-.41.84-.072.139-.141.287-.213.426-.137.267-.271.543-.418.812-.078.15-.166.304-.242.465-.151.29-.304.57-.457.851-.153.281-.313.574-.475.857-.122.213-.244.425-.363.647-.061.106-.122.212-.192.321-.311.543-.634 1.08-.966 1.619a1.435 1.435 0 0 1-.564.531c-.069.04-.157.083-.244.127-.132.065-.289.148-.465.236-.034.019-.078.04-.122.063-.123.063-.254.129-.393.206-.097.046-.201.104-.316.156-.07.038-.141.068-.22.11-.097.045-.201.104-.307.152-4.123 2.037-13.295 6.223-25.595 9.832-10.657 3.123-26.169 5.222-37.056 7.24-.182.03-.361.069-.542.098-.028.008-.067.008-.095.016-.105.019-.21.037-.312.065-.037.01-.086.013-.123.023-.182.03-.351.066-.521.102a.268.268 0 0 1-.086.013c-.067.008-.132.026-.2.035a4.257 4.257 0 0 0-.349.074c-.086.014-.169.036-.255.05-.189.04-.37.07-.558.111-.056.016-.123.024-.179.039-.105.018-.216.049-.321.067l-.074.02c-.142.029-.274.055-.414.093-.234.053-.472.098-.697.15-.105.018-.207.045-.302.061l-.074.02c-.103.028-.198.044-.3.072-.133.026-.263.061-.386.085-.197.043-.383.094-.571.135-.074.02-.142.028-.216.049l-.205.055a23.41 23.41 0 0 0-.773.2l-.018.005c-1.201.316-2.226-.891-1.733-2.012.007-.012.011-.033.018-.045l.013-.023c.027-.047.045-.092.072-.14.041-.07.069-.148.108-.228.031-.068.062-.137.1-.217.042-.101.094-.205.146-.308.194-.422.393-.865.591-1.347.025-.057.047-.123.08-.182.109-.259.225-.53.329-.807.043-.101.085-.202.125-.313.089-.223.184-.459.277-.703l.107-.269c.182-.468.356-.964.538-1.472l.066-.197.066-.197-.003-.01c.058-.155.103-.317.161-.472.055-.165.113-.32.158-.482.029-.077.055-.164.084-.242.048-.152.103-.317.149-.479.026-.087.055-.164.081-.251.018-.045.024-.096.042-.141l.007-.012c.008-.042.026-.087.037-.12l.079-.26c.085-.273.168-.555.249-.846.034-.129.079-.26.113-.39.111-.398.222-.797.331-1.206.043-.171.095-.345.136-.525.024-.096.054-.205.076-.31l.084-.312.013-.063c.025-.127.063-.247.088-.373l-.002-.01c.032-.138.073-.279.103-.427.03-.147.071-.288.101-.436.025-.126.053-.243.088-.372.039-.15.066-.308.105-.458.015-.093.041-.18.055-.274.067-.307.13-.623.203-.942.085-.422.167-.853.247-1.294l.12-.66c.023-.136.048-.263.071-.398l.069-.408c.031-.178.054-.353.085-.532.033-.208.059-.405.093-.613.02-.145.04-.29.07-.438.07-.477.13-.952.198-1.44.044-.35.081-.69.123-1.05l-.003-.009c.029-.227.054-.463.08-.7a.541.541 0 0 1 .012-.102c.012-.103.024-.206.026-.307l.069-.736c.037-.38.062-.765.096-1.153.017-.194.025-.386.045-.57.017-.194.024-.386.039-.59.023-.354.04-.698.051-1.06l.029-.775c.01-.183.014-.353.015-.533-.005-.019.001-.03-.004-.049l.021-.694c.005-.02-.003-.048-.001-.079l.011-.62c.004-.132.006-.272.001-.4v-.33c-.002-.008.002-.03-.001-.039.003-.43-.003-.856-.009-1.283l-.003-.01c-.004-.347-.009-.695-.016-1.052-.011-.186-.01-.366-.021-.553-.011-.186-.009-.366-.02-.552-.005-.129-.013-.266-.017-.395.001-.03 0-.07-.007-.097-.005-.019-.001-.04-.006-.059-.005-.018.002-.03-.003-.049-.014-.195-.018-.394-.031-.59-.014-.235-.031-.48-.035-.718l-.003-.009-.03-.44-.03-.441c-.02-.294-.042-.597-.065-.9a6.604 6.604 0 0 0-.041-.447c-.005-.018-.001-.04-.006-.058-.005-.019-.001-.04.001-.07-.005-.019-.001-.04.001-.07a1.575 1.575 0 0 1 .323-.865c.128-.155.281-.286.464-.386.018-.005.034-.02.062-.027.019-.005.035-.02.063-.027.018-.005.034-.019.062-.027a.163.163 0 0 0 .063-.026l.065-.018.055-.015.047-.013.037-.01.028-.008.046-.012.01-.003.055-.015a.365.365 0 0 1 .105-.018l.009-.003.093-.025.084-.023a.322.322 0 0 1 .095-.016l.102-.027a.362.362 0 0 1 .095-.016l.01-.003.037-.01.009-.002.037-.01a.855.855 0 0 0 .019-.005l.074-.02.009-.003.038-.01.055-.015.01-.003.009-.003.046-.012.037-.01.01-.003.037-.01.046-.012.056-.015.056-.016.009-.002.009-.003.047-.012.009-.003a4.52 4.52 0 0 0 .046-.012l.056-.016c.047-.012.084-.022.133-.026l.009-.002.037-.01.056-.015.018-.005.047-.013.009-.002c.074-.02.151-.032.235-.054l.009-.003.037-.01.074-.02c.038-.01.077-.01.114-.021l.047-.013c.046-.012.104-.018.151-.03a.464.464 0 0 1 .114-.022.393.393 0 0 1 .104-.018c.038-.01.065-.018.105-.019.105-.018.207-.046.312-.064l.074-.02.009-.003.037-.01.01-.002c.046-.013.095-.016.141-.029l.028-.008.065-.017c.065-.018.124-.024.188-.041l.01-.003c.065-.017.132-.026.197-.044l.065-.017.056-.015c.133-.026.262-.062.395-.088.037-.01.086-.013.123-.023a.681.681 0 0 1 .133-.026c.169-.036.348-.075.518-.11l.074-.021.019-.005.056-.015c.046-.013.095-.016.141-.029l.01-.002.009-.003c.056-.015.123-.023.179-.038.009-.003.018-.006.037-.01.074-.02.142-.03.216-.05l.047-.012.074-.02c.114-.021.225-.051.348-.075.028-.007.056-.015.096-.016.055-.015.104-.018.16-.033l.009-.003.444-.09c.019-.005.047-.013.068-.009.056-.015.114-.02.179-.038.077-.011.151-.032.228-.042a.464.464 0 0 1 .114-.021l.537-.116.009-.003c.056-.015.114-.02.169-.036.056-.015.114-.02.179-.039.189-.04.377-.082.568-.114.218-.039.444-.09.671-.132a.19.19 0 0 1 .077-.011c.056-.015.114-.021.17-.036.321-.067.644-.125.974-.195.065-.018.123-.023.188-.041l.009-.002a.187.187 0 0 1 .077-.011c.028-.008.065-.018.096-.016l.009-.003.379-.073.397-.078.01-.002c.086-.014.179-.04.265-.053.037-.01.086-.013.123-.023l.009-.003c.105-.018.2-.034.302-.062l.056-.015c.188-.04.388-.075.579-.107l.256-.05a.881.881 0 0 0 .151-.03c.188-.042.37-.071.558-.112.028-.008.067-.009.095-.016l.407-.08.398-.079.046-.012c.086-.014.17-.037.265-.053.037-.01.068-.008.105-.018l.407-.08.037-.01.711-.134a.167.167 0 0 1 .068-.008c.046-.013.095-.016.142-.029.095-.016.181-.03.274-.054l.028-.008a.16.16 0 0 1 .067-.008l.01-.003.037-.01c.046-.013.095-.016.132-.026l.019-.005c.037-.01.077-.01.114-.021.046-.013.086-.013.132-.026l.998-.181c.2-.035.391-.066.591-.1.132-.027.267-.043.39-.067.145-.02.287-.048.438-.079.046-.012.095-.016.141-.028l.096-.016.067-.009.038-.01c.276-.045.541-.097.818-.142.086-.014.163-.025.247-.047.076-.011.144-.02.218-.04l.028-.007.047-.013c.153-.022.304-.053.455-.084l.019-.005c.172-.027.342-.063.523-.092.182-.03.37-.07.561-.102.19-.032.388-.076.588-.11l.323-.058c.028-.008.056-.015.086-.014.068-.008.133-.026.2-.034.028-.008.056-.015.096-.016.046-.012.095-.016.141-.028.077-.011.161-.034.238-.045.055-.015.104-.018.16-.034l.037-.01.019-.005.037-.01.237-.044c.105-.019.207-.046.311-.065l.047-.012c.219-.04.435-.088.651-.137.237-.045.471-.098.715-.155.228-.042.463-.095.698-.15l1.083-.233.037-.01c.244-.057.49-.104.743-.163l.019-.005a.59.59 0 0 1 .132-.026l.621-.138 1.194-.265.028-.007.593-.131c.197-.044.404-.09.599-.143l.834-.197c.413-.092.834-.196 1.266-.293.151-.032.3-.072.448-.112.142-.029.291-.07.439-.11.142-.028.29-.068.439-.109.074-.02.139-.038.216-.048.074-.02.149-.04.225-.052.189-.04.365-.089.553-.13.198-.043.384-.094.581-.137l.176-.048.028-.008c.3-.071.597-.152.897-.224.606-.154 1.212-.309 1.83-.457l.018-.005c.149-.04.288-.078.439-.109l.232-.063c.232-.063.467-.117.699-.18a227 227 0 0 0 4.304-1.149l1.059-.287.594-.161c.158-.043.316-.086.462-.136l.538-.146.26-.07.307-.084.186-.05.157-.043.195-.053c.167-.045.332-.1.499-.145l.037-.01c.121-.033.251-.068.369-.11.378-.113.747-.223 1.128-.327l.065-.017.019-.006c.167-.045.322-.097.489-.142l.019-.005.018-.005.01-.003.055-.015.084-.023.148-.04.158-.043c.056-.015.121-.033.174-.057l.037-.01c.075-.02.149-.04.221-.07l.046-.013.047-.012.046-.013.065-.018c.111-.03.22-.07.332-.1.111-.03.229-.072.341-.102.111-.03.211-.068.313-.095.111-.03.211-.067.322-.098a.966.966 0 0 0 .156-.052c.111-.03.211-.067.322-.097l.019-.005c.046-.013.102-.028.146-.05l.093-.025c.092-.026.183-.06.276-.085.108-.04.22-.07.338-.112l.112-.03a.557.557 0 0 0 .118-.042c.065-.018.137-.047.202-.065l.092-.025.028-.008.047-.012c.046-.013.102-.028.155-.053.109-.04.22-.07.329-.109.128-.045.258-.08.394-.127.028-.008.056-.015.081-.032.156-.052.304-.093.46-.145a.782.782 0 0 1 .028-.007l.009-.003.028-.007a.359.359 0 0 0 .09-.035l.074-.02a.4.4 0 0 0 .1-.037l.037-.01.019-.005.046-.013c.028-.007.056-.015.081-.032l.009-.002.01-.003c.127-.044.257-.08.385-.124.027-.008.065-.018.09-.035l.018-.005c.084-.022.165-.054.249-.077.065-.018.136-.047.201-.065l.028-.007.028-.008.037-.01.019-.005.009-.003.019-.005.037-.01.046-.012a.259.259 0 0 0 .081-.032l.065-.018.065-.018.037-.01.01-.002c.062-.027.127-.045.192-.063.091-.034.183-.06.274-.094a.271.271 0 0 0 .081-.032c.046-.012.099-.037.146-.05l.037-.01c.056-.014.1-.036.155-.051l.047-.013.009-.003c.037-.01.081-.032.118-.042l.047-.012c.081-.032.164-.055.245-.087l.047-.013.009-.002a4.52 4.52 0 0 0 .046-.013c.1-.037.202-.065.302-.102.046-.012.081-.032.127-.044.028-.008.063-.027.091-.035.071-.029.146-.05.217-.079.047-.012.081-.032.128-.044l.018-.005.392-.137.056-.015.009-.002c.072-.03.146-.05.218-.08.028-.007.062-.026.09-.034.047-.012.1-.037.146-.05.081-.031.165-.054.246-.086.037-.01.062-.027.1-.037.037-.01.071-.03.099-.037l.019-.005.009-.003.009-.002.01-.003c.062-.027.118-.042.171-.066.081-.032.155-.052.227-.082.047-.012.081-.032.118-.042.028-.007.053-.024.081-.032.072-.03.146-.05.218-.079.037-.01.081-.032.118-.042.063-.027.128-.045.19-.072.053-.024.118-.042.172-.066.136-.047.28-.106.417-.153l.037-.01.028-.008c.053-.024.109-.04.162-.064.062-.027.127-.044.19-.071.018-.005.028-.008.044-.022l.037-.01.009-.003c.062-.027.128-.044.19-.071.072-.03.134-.057.208-.077.144-.059.29-.108.434-.167a.589.589 0 0 0 .125-.054c.053-.025.118-.042.171-.067.018-.005.028-.007.044-.021.028-.008.053-.025.09-.035.044-.022.081-.032.125-.054.053-.024.109-.04.162-.064.044-.022.09-.034.134-.056l.038-.01c.053-.025.099-.037.152-.062a.855.855 0 0 0 .019-.005l.018-.005.019-.005.009-.002.01-.003.027-.008.028-.007c.054-.024.119-.042.181-.069.044-.022.081-.032.125-.054a.119.119 0 0 0 .053-.024.12.12 0 0 0 .053-.025c.028-.007.044-.022.072-.03l.197-.082c.053-.025.099-.037.153-.062.043-.022.09-.034.143-.059.107-.049.225-.09.331-.14.028-.007.044-.021.072-.029l.018-.005c.044-.022.1-.037.144-.059.037-.01.072-.03.109-.04.028-.007.044-.021.072-.029.034-.02.071-.03.106-.049.053-.024.106-.049.153-.061.037-.01.062-.027.099-.037.116-.052.232-.103.35-.145.035-.02.072-.03.097-.046l.019-.005c.053-.025.106-.05.162-.064.009-.003.028-.008.034-.02l.394-.166c.088-.044.178-.079.268-.113.063-.027.125-.054.197-.083.018-.005.037-.01.053-.025.028-.007.044-.022.072-.03a.782.782 0 0 1 .028-.007l.009-.002.019-.005c.027-.008.053-.025.087-.044l.169-.076c.019-.005.035-.02.053-.024l.16-.074c.044-.022.088-.043.134-.056.026-.017.063-.027.088-.044l.044-.022.072-.03.009-.002.16-.073.027-.008c.01-.002.019-.005.026-.016.009-.003.025-.017.034-.02.028-.007.044-.022.072-.03l.291-.138c.116-.051.229-.112.345-.163a.302.302 0 0 0 .069-.04c.072-.029.132-.065.194-.092.019-.005.044-.022.063-.027.009-.002.025-.017.034-.02.019-.004.026-.016.035-.018.062-.027.122-.064.185-.09.035-.02.062-.027.088-.044.009-.003.018-.005.025-.017l.019-.005a1.489 1.489 0 0 1 1.325-.001c.539.222.85.596.932 1.083Z"/><path fill="#EF7E7A" d="M101.614 40.782c3.42 3.418 11.052 9.64 21.882 10.458a3.757 3.757 0 0 1 3.438 3.224 3.76 3.76 0 0 1-2.333 4.003c-3.85 1.535-11.496 4-21.103 4.086a3.618 3.618 0 0 1-1.545-.328c-1.581-.718-1.938-2.804-.69-4.01l1.367-1.319-1.075-.396c-2.758-1.015-3.597-4.507-1.603-6.673l-2.607-1.635c-2.799-1.752-2.952-5.768-.308-7.743a3.51 3.51 0 0 1 4.577.333Z"/><path stroke="#000" stroke-linecap="round" stroke-miterlimit="10" stroke-width=".524" d="M106.175 44.658c3.665 2.663 8.761 5.387 15.077 6.324.738.109 1.489.194 2.251.246a3.752 3.752 0 0 1 1.114 7.225c-.468.187-.982.386-1.554.592"/><path stroke="#000" stroke-linecap="round" stroke-miterlimit="10" stroke-width=".524" d="M99.962 49.825s14.056 7.668 24.313 4.872M102.636 56.885s9.54 2.195 17.799.89"/><path stroke="#000" stroke-linecap="round" stroke-miterlimit="10" stroke-width=".524" d="M112.33 58.51c9.547-2.364 19.25-5.258 26.215-7.438M27.197-12.718S18.9 3.872 19.825 21.447c1.13 21.606 21.64 49.696 77.738 40.215"/><path stroke="#000" stroke-linecap="round" stroke-miterlimit="10" stroke-width=".524" d="M37.198 17.247s3.01 14.168 17.742 14.265M37.41 62.673s36.83 21.444 111.594-3.813"/></svg>