<svg xmlns="http://www.w3.org/2000/svg" width="281" height="176" fill="none"><g clip-path="url(#a)"><path fill="#F8FF6E" d="M139.402 36.063c0 3.63-.652 6.573-1.456 6.573-.375 0-.717-.643-.974-1.696.294-1.203.48-2.942.48-4.877 0-1.934-.186-3.673-.48-4.877.257-1.052.6-1.696.974-1.696.804 0 1.456 2.943 1.456 6.573Z"/><path stroke="#000" stroke-linecap="round" stroke-miterlimit="10" stroke-width=".328" d="M139.402 36.063c0 3.63-.652 6.573-1.456 6.573-.375 0-.717-.643-.974-1.696.294-1.203.48-2.942.48-4.877 0-1.934-.186-3.673-.48-4.877.257-1.052.6-1.696.974-1.696.804 0 1.456 2.943 1.456 6.573ZM276.439.231h-97.325a4.33 4.33 0 0 0-4.331 4.33v119.716a4.33 4.33 0 0 0 4.331 4.331h97.325a4.33 4.33 0 0 0 4.33-4.331V4.562a4.33 4.33 0 0 0-4.33-4.331Z"/><path fill="#fff" d="M255.327 128.607h-47.305c6.225-6.775 8.602-16.646 8.602-16.646l1.837-2.142 29.776-4.853 6.819 11.81c1.45 4.479 1.15 8.554.271 11.831Z"/><path stroke="#000" stroke-linecap="round" stroke-miterlimit="10" stroke-width=".328" d="M255.327 128.607h-47.305c6.225-6.775 8.602-16.646 8.602-16.646l1.837-2.142 29.776-4.853 6.819 11.81c1.45 4.479 1.15 8.554.271 11.831Z"/><path fill="#fff" d="m220.897 123.22 2.03 1.656a1.173 1.173 0 0 0 1.467.015l1.094-.856-4.591-.817v.002Z"/><path stroke="#000" stroke-linecap="round" stroke-miterlimit="10" stroke-width=".328" d="m220.897 123.22 2.03 1.656a1.173 1.173 0 0 0 1.467.015l1.094-.856-4.591-.817v.002ZM225.285 120.296c.286-.065.565-.162.831-.286l.817-.384"/><path fill="#fff" d="M233.997 113.65s-1.418-.535-3.321-.224c0 0-4.411.538-4.74 4.393a4.585 4.585 0 0 1-.651 2.477c-.31.07-.628.103-.948.095-2.586-.065-5.928.528-7.672.883a1.2 1.2 0 0 0-.936 1.418c.123.592.67 1.005 1.271.951 3.074-.279 6.024.517 7.284.925.439.141.913.134 1.345-.029 4.931-1.849 13.408-6.841 13.408-6.841-.382-4.923-5.04-4.048-5.04-4.048Z"/><path fill="#fff" d="M233.997 113.65s-1.418-.535-3.321-.224c0 0-4.411.538-4.74 4.393a4.585 4.585 0 0 1-.651 2.477c-.31.07-.628.103-.948.095-2.586-.065-5.928.528-7.672.883a1.2 1.2 0 0 0-.936 1.418c.123.592.67 1.005 1.271.951 3.074-.279 6.024.517 7.284.925.439.141.913.134 1.345-.029 4.931-1.849 13.408-6.841 13.408-6.841-.382-4.923-5.04-4.048-5.04-4.048Z"/><path stroke="#000" stroke-linecap="round" stroke-miterlimit="10" stroke-width=".328" d="M233.997 113.65s-1.418-.535-3.321-.224c0 0-4.411.538-4.74 4.393a4.585 4.585 0 0 1-.651 2.477c-.31.07-.628.103-.948.095-2.586-.065-5.928.528-7.672.883a1.2 1.2 0 0 0-.936 1.418c.123.592.67 1.005 1.271.951 3.074-.279 6.024.517 7.284.925.439.141.913.134 1.345-.029 4.931-1.849 13.408-6.841 13.408-6.841-.382-4.923-5.04-4.048-5.04-4.048Z"/><path fill="#0564FF" d="M255.286 116.742c-3.752-1.571-6.793-5.527-10.444-7.555-3.65-2.028-7.707-1.317-15.059 1.471-7.351 2.787-13.118 1.253-13.118 1.253 1.361-3.994-1.571-6.033-2.379-7.478-.806-1.443.086-2.507 0-4.375-.085-1.87-2.336-4.122-2.889-6.672-.391-1.802-.08-4.752.136-6.325a30.582 30.582 0 0 1-1.219-3.313 32.882 32.882 0 0 1-2.804-3.305 14.3 14.3 0 0 1-2.983-1.577c-2.83-1.939-4.246-5.386-3.65-8.764 1.639-9.288-1.565-19.658-1.565-19.658-1.358-5.145-.934-8.658 2.207-10.023 1.919-.834 4.901-.13 6.939.314.583.128 1.088.2 1.47.238l.013.002c.43.045.862.023 1.287-.05 11.909-2.023 23.148 2.702 23.148 2.702a10.112 10.112 0 0 1 1.045.472c7.336 3.784 10.633 15.856 9.498 25.616-.191 1.647-.483 3.441-.798 5.205-.796 4.432-1.752 8.663-1.678 9.806.103 1.6 1.805 1.343 2.012 3.663.207 2.321 4.024 10.059 6.035 14.342 2.013 4.281 4.794 14.011 4.794 14.011h.002Z"/><path stroke="#000" stroke-linecap="round" stroke-miterlimit="10" stroke-width=".328" d="M219.784 90.176c-4.011-1.508-7.194-4.077-9.47-6.428M211.532 87.06c1.661 3.831 4.85 9.128 10.589 12.49M207.51 80.444c1.388.53 2.945.85 4.658.803M226.933 85.045s10.465.454 15.272-2.707M231.747 87.667s4.965.249 8.335-1.311M237.899 93.909s-2.435 1.997-7.803 3.87M236.649 102.023s2.684-1.748 5.555-1.311M237.899 104.895s-1.873.124-3.902 1.123c-2.028.999-7.21 3.683-11.454 3.746"/><path fill="#fff" d="M234.882 43.84c-6.81.014-14.202 8.385-20.293 7.217-6.734-1.293-6.548-5.42-5.483-8.304.252-.68.552-1.292.822-1.78l.013.002c.43.045.862.023 1.287-.05 6.944-1.18 13.661-.064 18.054 1.07 3.141.811 5.094 1.632 5.094 1.632.171.066.506.212.506.212Z"/><path fill="#000" d="M217.412 40.883c6.948 0 12.995 1.816 15.525 2.697-2.742.548-5.517 2.113-8.217 3.637-3.178 1.794-6.18 3.489-8.923 3.489a6.03 6.03 0 0 1-1.12-.103c-2.765-.531-4.538-1.593-5.271-3.157-.949-2.026.02-4.529.788-5.992a5.495 5.495 0 0 0 1.114-.074 36.626 36.626 0 0 1 6.105-.497m-.001-.462c-2.001 0-4.082.148-6.181.505a4.889 4.889 0 0 1-1.286.049h-.014c-1.414 2.56-3.66 8.486 4.661 10.083.397.077.801.113 1.209.113 5.845 0 12.719-7.315 19.084-7.33 0 0-.335-.147-.506-.213 0 0-7.623-3.206-16.967-3.206v-.001Z"/><path fill="#0564FF" d="M269.91 90.506c.627 5.338-9.303 6.027-15.353-1.338 0 0-6.957-11.209-11.6-15.389-2.056-1.85-3.929-3.46-5.356-5.514-2.63-.115-7.159-1.371-7.976-8.496-1.264-10.995 5.797-15.67 5.797-15.67s4.988.717 7.47 4.654a64.543 64.543 0 0 1 2.638 4.575c.558.174 1.305.465 1.682.865.648.688 5.054 8.954 7.65 12.749 2.356 3.442 13.531 15.465 15.038 23.498l.01.066Z"/><path stroke="#000" stroke-linecap="round" stroke-miterlimit="10" stroke-width=".328" d="M244.122 74.92c-.401-.42-.79-.804-1.165-1.141-2.057-1.85-3.929-3.461-5.356-5.514-2.63-.116-7.159-1.371-7.977-8.497-.294-2.555-.138-4.768.274-6.66M245.53 53.329c.698 1.337 1.04 2.127 1.04 2.127"/><path stroke="#000" stroke-linecap="round" stroke-miterlimit="10" stroke-width=".328" d="M237.601 68.265c-1.795-2.585-2.88-5.868-2.719-11.206"/><path fill="#fff" d="M263.195 99.949c-5.376 5.125-13.694 12.084-24.158 17.749 0 0-5.398.526-5.04-4.048 0 0 11.09-6.217 19.074-19.723 4.429-6.562 17.095-3.006 10.124 6.022Z"/><path stroke="#000" stroke-linecap="round" stroke-miterlimit="10" stroke-width=".328" d="M233.997 113.65s11.09-6.217 19.074-19.723c4.429-6.562 17.095-3.006 10.124 6.022-5.376 5.125-14.105 12.324-24.569 17.989"/><path fill="#0564FF" d="M269.121 94.17a107.103 107.103 0 0 1-5.865 6.023c-2.885-5.167-8.179-6.091-10.494-6.244a59.6 59.6 0 0 0 1.668-3.015c-.274-.357-.577-1.02-.128-1.917.699-1.396 7.018-2.881 9.516-2.463 0 0 2.602.44 4.794 2.173 1.679 1.328 1.948 3.802.537 5.411l-.028.031Z"/><path stroke="#000" stroke-linecap="round" stroke-miterlimit="10" stroke-width=".328" d="M254.43 90.934c-.274-.357-.577-1.02-.127-1.917.698-1.396 7.017-2.881 9.515-2.463"/><path stroke="#000" stroke-linecap="round" stroke-miterlimit="10" stroke-width=".328" d="M254.871 90.061c-.145.294-.293.584-.441.873M254.302 89.017s2.661-.762 4.499.403"/><path fill="#fff" d="m203.268 30.614 6.266 13.032a4.164 4.164 0 0 0 4.6 2.273l15.28-3.172a.264.264 0 0 0 .145-.43l-2.495-2.87a14.836 14.836 0 0 1-3.583-8.424l-1.18-13.302-9.753-3.575-9.281 16.468h.001Z"/><path fill="#000" d="m207.89 32.147-.268 7.523-2.904-6.043 1.449-3.164 1.723 1.684Z"/><path stroke="#000" stroke-linecap="round" stroke-miterlimit="10" stroke-width=".328" d="m229.625 42.332-.343-.336-2.217-2.548a14.844 14.844 0 0 1-3.582-8.425l-1.181-13.302-9.751-3.575-9.283 16.468 5.838 12.14.189.392"/><path fill="#fff" d="M217.905 8.075c-1.312-2.556-4.07-4.055-6.923-3.717-1.704.202-3.565.742-5.134 1.956-1.616 1.252-3.157 4.091-4.445 7.7a8.438 8.438 0 0 1-1.981 3.149 38.59 38.59 0 0 0-2.367 2.556 1.67 1.67 0 0 0 .502 2.548l1.219.642a.366.366 0 0 1 .189.391 66.127 66.127 0 0 0-.971 7.606 3.138 3.138 0 0 0 3.22 3.35c1.974-.058 4.987-.785 9.446-3.203a17.556 17.556 0 0 0 7.662-8.313 16.988 16.988 0 0 0-.414-14.665h-.003Z"/><path stroke="#000" stroke-linecap="round" stroke-miterlimit="10" stroke-width=".328" d="M218.319 22.74a16.988 16.988 0 0 0-.414-14.665c-1.312-2.556-4.07-4.055-6.923-3.717-1.704.202-3.565.742-5.134 1.956-1.616 1.252-3.157 4.091-4.445 7.7a8.438 8.438 0 0 1-1.981 3.149 38.59 38.59 0 0 0-2.367 2.556 1.67 1.67 0 0 0 .502 2.548l1.219.642a.366.366 0 0 1 .189.391 66.127 66.127 0 0 0-.971 7.606 3.138 3.138 0 0 0 3.22 3.35c1.974-.058 4.987-.785 9.446-3.203"/><path fill="#000" d="M200.075 26.11c.577-.001 1.97-.067 3.332-.595.268-.103.523.175.392.43-.523 1.023-1.559 2.678-2.75 2.605-.963-.06-1.185-1.523-1.236-2.157a.265.265 0 0 1 .262-.284v.001ZM218.777 22.168s-6.196-.159-7.067-5.383c-.978-5.867-1.239-11.917-5.864-10.47 0 0 4.159-4.752 14.93-3.264 6.756.932 10.089 6.888 10.089 6.888l.577 2.526s2.578 5.297.756 9.341c-1.662 3.688-4.357 5.418-4.922 8.623a2.9 2.9 0 0 1-1.265 1.912c-1.171.774-3.004 1.522-4.446-.002-2.494-2.635.499-7.823-2.79-10.171h.002Z"/><path fill="#fff" d="M218.643 26.668c1.657-1.829 2.126-4.388 1.045-5.715-1.081-1.326-3.3-.918-4.958.911-1.657 1.83-2.126 4.388-1.046 5.715 1.08 1.326 3.3.918 4.957-.91l.002-.002Z"/><path stroke="#000" stroke-linecap="round" stroke-miterlimit="10" stroke-width=".328" d="M213.684 27.58c1.081 1.327 3.3.919 4.957-.91 1.658-1.83 2.127-4.389 1.045-5.714-1.08-1.326-3.299-.919-4.957.911"/><path stroke="#000" stroke-linecap="round" stroke-miterlimit="10" stroke-width=".328" d="M215.66 24.433s.697-.06.831-.615c.077-.321-.134-.547-.32-.68-.111-.078-.129-.241-.032-.312.461-.333 1.543-.991 2.267-.459 1.008.742-.019 2.969-3.28 3.866M201.92 14.307s2.661-.92 3.926 1.636M202.388 17.823s1.165-.95 1.902.17"/><path fill="#000" d="M231.747 8.324s6.051-3.376 9.051 3.348c2.735 6.128-3.763 15.96 3.064 23.806 9.225 10.602 20.099 21.658 13.25 36.018-6.708 14.063-19.648 11.116-21.15 2.464-1.502-8.652 4.026-21.005.722-29.08s.06-15.142-.54-22.112c-.6-6.97-.571-10.028-3.723-10.724l-.672-3.72h-.002Z"/><path fill="#0564FF" d="M229.331 7.865s.34 3.244 2.307 5.038c0 0 .438-.45.783-.859.214-.252.336-.569.345-.9.015-.568 0-1.536-.226-2.38a1.51 1.51 0 0 0-1.253-1.1c-.57-.08-1.319-.095-1.955.2h-.001ZM209.266 51.17c-1.627-4.532-5.206-10.53-6.878-11.012 0 0-1.859-.428-3.815 1.466-1.454-.097-3.663.8-9.349 2.073-4.948 1.108-14.345 1.114-18.04 1.068a7.362 7.362 0 0 1-2.922-.645c-2.174-.789-4.197.727-5.685 3.255-.972 1.65-2.397 6.683.715 7.227l.039.007-.039-.007c.557.15 1.127.248 1.704.305 8.426.802 26.495 3.157 31.94 3.007 5.952-.161 9.206.782 10.931 1.627 1.724.847 3.026-3.838 1.399-8.37Z"/><path stroke="#000" stroke-linecap="round" stroke-miterlimit="10" stroke-width=".328" d="M196.666 44.361c.604-1.232 1.261-2.113 1.907-2.737M199.224 45.439s.568 6.76 5.066 10.391M200.449 53.109s2.627 3.901 5.397 5.671"/><path fill="#fff" d="M158.566 52.379a139.844 139.844 0 0 1-14.985-9.683l-12.009-8.891s-.9-3.808 2.884-4.848l27.329 12.256c4.225 1.896 5.973 15.496-3.219 11.166Z"/><path stroke="#000" stroke-linecap="round" stroke-miterlimit="10" stroke-width=".328" d="M158.566 52.379a139.844 139.844 0 0 1-14.985-9.683l-12.009-8.891s-.9-3.808 2.884-4.848l27.329 12.256c4.225 1.896 5.973 15.496-3.219 11.166Z"/><path fill="#0564FF" d="M169.286 51.83c-2.356 3.549-5.706 3.085-6.037 3.031l-.023-.004h-.003a10.949 10.949 0 0 1-2.381-.936c-.84-.448-1.674-.905-2.504-1.368 3.728-4.208 3.701-9.05 3.346-11.6l5.329 2.39c1.75.786 3.029 2.385 3.317 4.28.183 1.212-.009 2.65-1.044 4.208v-.001Z"/><path fill="#fff" d="M131.572 33.806c-4.537-.475-4.365-5.223-4.132-7.023.085-.65.145-1.3.178-1.955l.108-2.13a15.035 15.035 0 0 0-.472-4.583l-2.437-9.301a.516.516 0 0 1 .064-.41.521.521 0 0 1 .757-.137l-.056-.198a.522.522 0 0 1 .995-.323l.991 2.646a.617.617 0 0 1 1.025.246l5.863 18.32c.529 4.424-2.884 4.849-2.884 4.849Z"/><path stroke="#000" stroke-linecap="round" stroke-miterlimit="10" stroke-width=".328" d="m130.695 18.741-3.127-8.349M131.727 33.92l-.057-.043a.455.455 0 0 0-.218-.086c-4.412-.547-4.241-5.225-4.011-7.01.085-.65.145-1.3.179-1.955l.108-2.13a15.036 15.036 0 0 0-.473-4.583l-2.436-9.301a.525.525 0 0 1 .063-.41.521.521 0 0 1 .757-.137l-.055-.198a.522.522 0 0 1 .994-.323l.991 2.646a.617.617 0 0 1 1.025.246l5.814 18.165c.033.099.103.18.199.222l.109.05"/><path stroke="#000" stroke-linecap="round" stroke-miterlimit="10" stroke-width=".328" d="M125.638 8.267c.072.054.132.13.169.226l4.183 10.813"/><path fill="#fff" d="M131.926 27.61c-.233-.753-.825-3.094-.222-5.878a1.293 1.293 0 0 0-2.494-.674 14.66 14.66 0 0 0-.513 2.176c-.212 1.424-.631 2.443-.805 2.824a1.005 1.005 0 0 0-.089.39c-.014.723.066 2.95 1.61 3.036 1.366.075 2.133-.851 2.437-1.336a.645.645 0 0 0 .073-.538h.003Z"/><path stroke="#000" stroke-linecap="round" stroke-miterlimit="10" stroke-width=".328" d="M131.852 28.15a.648.648 0 0 0 .072-.538c-.232-.753-.825-3.094-.221-5.878a1.3 1.3 0 0 0-.851-1.514 1.293 1.293 0 0 0-1.644.84 14.666 14.666 0 0 0-.513 2.176 10.876 10.876 0 0 1-.804 2.824.988.988 0 0 0-.09.39"/><path fill="#CCDFFF" d="m233.835 111.73.04.719a.673.673 0 0 1-.3.6l-17.272 11.495a1.98 1.98 0 0 1-1.08.332l-27.663.263a.472.472 0 0 1-.477-.474v-.531c0-.2.106-.383.278-.485l19.487-11.396c.215-.126.46-.195.711-.201l25.981-.596a.292.292 0 0 1 .297.276l-.002-.002Z"/><path stroke="#000" stroke-linecap="round" stroke-miterlimit="10" stroke-width=".328" d="m233.835 111.73.04.719a.673.673 0 0 1-.3.6l-17.272 11.495a1.98 1.98 0 0 1-1.08.332l-27.663.263a.472.472 0 0 1-.477-.474v-.531c0-.2.106-.383.278-.485l19.487-11.396c.215-.126.46-.195.711-.201l25.981-.596a.292.292 0 0 1 .297.276l-.002-.002Z"/><path fill="#fff" d="m207.178 112.789-17.218 10.077c-.163.096-.093.347.096.344l23.683-.374a2.326 2.326 0 0 0 1.184-.347l16.048-9.9c.182-.112.1-.392-.114-.389l-22.963.386a1.486 1.486 0 0 0-.716.2v.003Z"/><path fill="#000" d="m229.949 112.679-15.268 9.418a1.852 1.852 0 0 1-.948.277l-22.627.357 16.306-9.544c.15-.088.319-.134.491-.137l22.048-.371m.912-.477h-.004l-22.963.386a1.483 1.483 0 0 0-.716.2l-17.218 10.077c-.163.096-.094.344.092.344h.003l23.684-.374a2.323 2.323 0 0 0 1.183-.347l16.049-9.9c.18-.111.1-.389-.11-.389v.003Z"/><path stroke="#000" stroke-linecap="round" stroke-miterlimit="10" stroke-width=".328" d="m188.226 123.98 26.102-.329c.334-.005.661-.102.942-.28l17.835-11.303"/><path fill="#fff" d="M232.025 118.151c-.736.605-1.787.841-2.584.932a2.455 2.455 0 0 1-1.719-.474c-.534-.388-1.151-.636-1.785-.79-1.269-.308-2.601-.234-3.466-.125a1.397 1.397 0 0 1-1.413-.743 1.408 1.408 0 0 1-.16-.649c0-.496.262-.975.723-1.225.67-.367 1.513-.731 2.198-.731s1.644.09 2.413.181a4.182 4.182 0 0 0 2.341-.423 7.344 7.344 0 0 1 2.104-.679c2.936.584 2.668 3.642 1.348 4.726Z"/><path stroke="#000" stroke-linecap="round" stroke-miterlimit="10" stroke-width=".328" d="M232.025 118.151c-.736.605-1.787.84-2.584.931a2.455 2.455 0 0 1-1.719-.474c-.534-.388-1.151-.636-1.785-.789-1.269-.308-2.601-.234-3.466-.125a1.4 1.4 0 0 1-1.573-1.393c0-.495.262-.974.723-1.225.67-.366 1.513-.731 2.198-.731s1.644.091 2.413.182a4.174 4.174 0 0 0 2.341-.424 7.4 7.4 0 0 1 1.239-.483 2.553 2.553 0 0 1 1.974.211c.303.172.597.409.77.73"/><path fill="#F8FF6E" d="M137.947 42.636h-1.95c-.804 0-1.456-2.942-1.456-6.573 0-3.63.652-6.573 1.456-6.573h1.95c-.376 0-.718.642-.975 1.696-.295 1.204-.481 2.943-.481 4.877 0 1.935.186 3.674.481 4.877.257 1.053.601 1.696.975 1.696Z"/><path stroke="#000" stroke-linecap="round" stroke-miterlimit="10" stroke-width=".328" d="M137.947 42.636h-1.95c-.804 0-1.456-2.942-1.456-6.573 0-3.63.652-6.573 1.456-6.573h1.95c-.376 0-.718.642-.975 1.696-.295 1.204-.481 2.943-.481 4.877 0 1.935.186 3.674.481 4.877.257 1.053.601 1.696.975 1.696ZM106.217 51.597V171.31a4.331 4.331 0 0 1-4.331 4.332H4.563a4.24 4.24 0 0 1-1.205-.173 4.328 4.328 0 0 1-3.128-4.159V51.597c0-2.392 1.941-4.33 4.333-4.33h97.323a4.33 4.33 0 0 1 4.331 4.33Z"/><path fill="#0564FF" d="M61.312 162.468c-1.476 4.46-2.371 9.086-2.912 13.175H4.562c-.418 0-.823-.06-1.205-.172 1.524-9.276 4.045-16.543 4.045-16.543l53.91 3.54Z"/><path stroke="#000" stroke-linecap="round" stroke-miterlimit="10" stroke-width=".328" d="M45.69 166.438s.42 3.993-1.405 9.205M51.903 166.438l-1.864 7.692M69.985 68.737a19.396 19.396 0 0 0-3.738-1.038"/><path fill="#CCDFFF" d="M78.776 96.271c-2.864 3.968-5.42 6.538-7.49 9.831-.338 1.813-1.244 5.168-3.67 9.422-.129 1.12-.47 2.915-1.295 5.716-3.943 13.386-5.151 25.841-2.17 41.05a1.582 1.582 0 0 1-.928 1.758c-5.303 2.281-27.997 10.399-56.531-3.161a1.073 1.073 0 0 1-.488-1.475c.89-1.66 2.678-5.581 4.277-12.63.601-2.649 1.175-5.737 1.665-9.314.232-1.702.528-3.661.877-5.816 3.115-19.209 10.522-53.94 16.42-60.897 0 0 7.797-6.667 16.146-10.679l16.527 7.587s1.507-.403 4.13.034c.64-.2 1.655-.326 3.264-.186 3.975.343 11.69 2.113 12.427 3.784.737 1.67-.977 4.859-2.015 6.88-1.699 3.311 2.35 13.249-1.146 18.096Z"/><path fill="#000" d="M42.865 148.036s-13.401 5.915-32.385-1.254c.602-2.649 1.176-5.737 1.666-9.314.232-1.702.527-3.661.877-5.816l29.842 16.384Z"/><path stroke="#000" stroke-linecap="round" stroke-miterlimit="10" stroke-width=".328" d="M78.776 96.271c-2.864 3.968-5.42 6.538-7.49 9.831-.338 1.813-1.244 5.168-3.67 9.422-.129 1.12-.47 2.915-1.295 5.716-3.943 13.386-5.151 25.841-2.17 41.05a1.582 1.582 0 0 1-.928 1.758c-5.303 2.281-27.997 10.399-56.531-3.161a1.073 1.073 0 0 1-.488-1.475c1.223-2.285 4.147-8.847 5.942-21.944 2.311-16.885 10.737-58.975 17.296-66.713 0 0 7.798-6.667 16.147-10.679l16.527 7.587s1.507-.403 4.13.034c.64-.2 1.655-.326 3.264-.186 3.975.343 11.69 2.113 12.427 3.784.737 1.67-.977 4.859-2.015 6.88-1.699 3.311 2.35 13.249-1.146 18.096Z"/><path stroke="#000" stroke-linecap="round" stroke-miterlimit="10" stroke-width=".328" d="M71.285 106.103a26.028 26.028 0 0 0-1.3 2.315M67.615 115.523a46.265 46.265 0 0 1-3.87 5.716M72.997 93.31s-1.764 14.467-14.953 29.41M58.977 132.462s-6.412 8.997-16.11 13.914M40.481 81.25s2.925 7.353 0 14.542"/><path fill="#fff" d="m63.207 60.938-.063.387-1.487 9.178-.63 3.898c-.484 2.983-4.002 4.32-6.36 2.43-12.742-10.212-10.04-20.779-10.04-20.779l9.93-8.535 8.65 13.421Z"/><path fill="#000" d="m63.144 61.324-1.487 9.179-2.622-9.465 4.109.286Z"/><path stroke="#000" stroke-linecap="round" stroke-miterlimit="10" stroke-width=".328" d="M44.627 56.052s-2.701 10.567 10.04 20.78c2.358 1.89 5.876.552 6.359-2.43l2.18-13.464-8.648-13.42-9.931 8.534Z"/><path fill="#000" d="M69.917 37.461 59.412 49.367l-6.35 2.998h-3.89s1.138 8.952-3.868 11.143c-2.84 1.244-6.093.714-7.62-1.188a4.433 4.433 0 0 0-2.245-1.471 2.083 2.083 0 0 1-.129-.042c-1.822-.66-3.206-3.048-1.98-3.929 1.164-.837 4.65-.946 3.973-4.51a1.134 1.134 0 0 0-.586-.782c-.833-.45-1.798-1.46-1.752-3.728.037-1.805 2.12-4.569 2.781-7.593.66-3.024 1.244-12.553 9.733-15.58 6.865-2.449 12.632.635 14.588 1.905.38.246.882.2 1.206-.117.474-.462 1.273-.948 2.332-.543 1.35.517 2.715 2.513 3.949 3.631 1.236 1.12 3.453 3.683.363 7.902v-.002Z"/><path fill="#fff" d="m73.88 52.071-2.3-5.73a6.434 6.434 0 0 1-.432-1.77c-.517-5.189-1.514-8.33-2.116-9.833a2.796 2.796 0 0 0-1.885-1.669c-1.638-.429-2.586.337-2.97.77a.929.929 0 0 1-.537.303c-.708.122-2.369.626-3.246 2.736-1.337 3.217-.448 5.773-.76 7.384-1.087 5.591-5.684 6.4-5.684 6.4l-2.371 2.685c3.333 11.36 11.839 12 16.294 11.484a3.529 3.529 0 0 0 3.097-3.169c.252-2.593.401-4.98.47-7.17a.407.407 0 0 1 .347-.39l1.006-.146a1.387 1.387 0 0 0 1.088-1.89l-.001.005Z"/><path stroke="#000" stroke-linecap="round" stroke-miterlimit="10" stroke-width=".328" d="M56.783 61.917c3.748 3.104 8.245 3.246 11.089 2.916a3.529 3.529 0 0 0 3.096-3.168c.253-2.593.402-4.98.47-7.17a.407.407 0 0 1 .347-.39l1.007-.146a1.387 1.387 0 0 0 1.088-1.89l-2.3-5.73a6.433 6.433 0 0 1-.432-1.77c-.517-5.189-1.514-8.33-2.116-9.833a2.796 2.796 0 0 0-1.885-1.669c-1.638-.429-2.586.337-2.97.77a.929.929 0 0 1-.537.303c-.708.122-2.369.626-3.246 2.736-1.337 3.217-.448 5.773-.76 7.384-1.087 5.592-5.684 6.4-5.684 6.4l-2.371 2.685"/><path fill="#fff" d="M49.044 54.385c-.867-2.174-.436-4.603.963-5.423 1.399-.82 3.236.277 4.103 2.452.866 2.176.435 4.603-.962 5.424-1.399.82-3.237-.277-4.105-2.451v-.002Z"/><path stroke="#000" stroke-linecap="round" stroke-miterlimit="10" stroke-width=".328" d="M54.135 55.716c-.237.485-.568.874-.988 1.12-1.4.82-3.237-.276-4.105-2.451-.866-2.176-.436-4.605.963-5.425 1.4-.82 3.237.277 4.103 2.452"/><path stroke="#000" stroke-linecap="round" stroke-miterlimit="10" stroke-width=".328" d="M52.434 53.386s-.6-.285-.536-.82c.039-.31.3-.443.511-.499.125-.034.196-.172.132-.266-.3-.448-1.043-1.391-1.862-1.159-1.142.326-.966 2.644 1.635 4.522M69.089 45.177s-2.358-1.456-4.27.44"/><path fill="#000" d="M67.18 48.034c.244 0 .442-.383.442-.856 0-.472-.198-.855-.443-.855s-.443.383-.443.855c0 .473.198.856.443.856Z"/><path stroke="#000" stroke-linecap="round" stroke-miterlimit="10" stroke-width=".328" d="M64.398 56.991s2.556 1.216 5.113 0"/><path fill="#fff" d="M121.352 65.852s-4.335 4.935-9.805 1.34c-5.468-3.595-3.042-9.257-3.042-9.257s6.217-7.747 11.29-26.897l.087-.372c1.487-4.715 3.772-3.023 4.95-.155.803 1.957.805 4.937.805 4.937s.267 17.48-4.285 30.404Z"/><path stroke="#000" stroke-linecap="round" stroke-miterlimit="10" stroke-width=".328" d="M121.352 65.852s-4.335 4.935-9.805 1.34c-5.468-3.595-3.042-9.257-3.042-9.257s6.217-7.747 11.29-26.897l.087-.372c1.487-4.715 3.772-3.023 4.95-.155.803 1.957.805 4.937.805 4.937s.267 17.48-4.285 30.404ZM104.207 65.388c-.427-.568-1.135-.87-1.833-.742a2.738 2.738 0 0 0-.856.308M100.63 67.193l-.28-.778"/><path fill="#CCDFFF" d="M116.983 71.828s-2.19 5.583-14.705 11.245c-12.515 5.662-15.166 4.713-18.637 8.183-1.354 1.354-3.306 3.506-4.594 4.945-.7.783-1.934.752-2.596-.065a17.541 17.541 0 0 1-3.91-11.04v-2.44c0-3.903 2.128-7.495 5.55-9.37l2.665-1.458s.746-2.52 1.71-2.302c.964.218 2.799 1.883 6.034 1.145 2.157-.494 5.201-1.652 6.99-2.367a8.12 8.12 0 0 0 2.051-1.187c.565-.452 1.525-.962 2.809-.702 0 0 .238-.93 1.168-1.46.012-.005.071-.034.165-.088.541-.303 2.274-1.379 3.141-3.172a.772.772 0 0 1 1.031-.363l3.39 1.635 7.74 8.862-.002-.001Z"/><path stroke="#000" stroke-linecap="round" stroke-miterlimit="10" stroke-width=".328" d="m78.092 73.287 2.663-1.459s.747-2.52 1.71-2.302c.965.218 2.8 1.883 6.035 1.145 2.157-.494 5.201-1.652 6.99-2.367a8.122 8.122 0 0 0 2.051-1.187c.565-.452 1.525-.962 2.809-.702 0 0 .238-.93 1.168-1.46.012-.005.071-.034.165-.088.541-.303 2.274-1.379 3.141-3.172a.772.772 0 0 1 1.031-.363l3.39 1.635 7.74 8.862s-2.19 5.584-14.705 11.246c-12.515 5.662-15.167 4.712-18.637 8.182-1.355 1.355-4.213 4.033-5.55 5.949M101.52 64.955h-.003"/><path stroke="#000" stroke-linecap="round" stroke-miterlimit="10" stroke-width=".328" d="M101.1 68.737s2.393 4.503-.47 10.133M84.9 73.805s-2.333 6.296-1.4 12.23"/><path fill="#F8FF6E" d="M109.016 57.131c1.032 1.727 5.226 7.967 12.336 8.721.274.03.45.305.359.565-.46 1.328-1.832 4.873-3.918 6.766a2.03 2.03 0 0 1-1.758.492c-2.278-.456-8.095-2.522-11.13-11.852a1.98 1.98 0 0 1 .257-1.743 12.106 12.106 0 0 1 3.158-3.109.494.494 0 0 1 .696.159v.001Z"/><path stroke="#000" stroke-linecap="round" stroke-miterlimit="10" stroke-width=".328" d="M109.016 57.131c1.032 1.727 5.226 7.967 12.336 8.721.274.03.45.305.359.565-.46 1.328-1.832 4.873-3.918 6.766a2.03 2.03 0 0 1-1.758.492c-2.278-.456-8.095-2.522-11.13-11.852a1.98 1.98 0 0 1 .257-1.743 12.106 12.106 0 0 1 3.158-3.109.494.494 0 0 1 .696.159v.001Z"/><path fill="#fff" d="m122.629 21.915.197-3.36c.114-1.937.411-3.86.888-5.742l1.183-4.663a.885.885 0 0 1 1.735.336l-1.461 10.817-2.542 2.61v.002Z"/><path stroke="#000" stroke-linecap="round" stroke-miterlimit="10" stroke-width=".328" d="m122.629 21.915.197-3.36c.114-1.937.411-3.86.888-5.742l1.183-4.663a.885.885 0 0 1 1.735.336l-1.461 10.817-2.542 2.61v.002Z"/><path fill="#fff" d="M130.768 24.067c0 .27-.079.543-.24.78l-2.563 3.752a2.63 2.63 0 0 0-.444 1.716c.146 1.638.176 4.934-1.884 5.134 0 0-3.137-.478-5.754-4.781l1.757-7.464a26.642 26.642 0 0 1 1.596-4.742c.883-1.98 2.131-4.952 2.752-7.215a.989.989 0 0 1 1.922.456l-1.148 5.763a38.434 38.434 0 0 0-.697 5.708l-.111 2.383a17.903 17.903 0 0 0 2.362-2.375 1.385 1.385 0 0 1 2.452.885Z"/><path stroke="#000" stroke-linecap="round" stroke-miterlimit="10" stroke-width=".328" d="m119.829 30.898 1.811-7.694a26.642 26.642 0 0 1 1.596-4.742c.884-1.98 2.132-4.952 2.752-7.215a.99.99 0 0 1 1.922.456l-1.148 5.763a38.434 38.434 0 0 0-.697 5.708l-.111 2.383a17.843 17.843 0 0 0 2.363-2.375 1.385 1.385 0 0 1 2.211 1.665l-2.562 3.752a2.625 2.625 0 0 0-.445 1.716c.146 1.638.177 4.934-1.884 5.134"/><path stroke="#000" stroke-linecap="round" stroke-miterlimit="10" stroke-width=".328" d="M123.71 27.049s.927-.402 2.244-1.493"/><path fill="#fff" d="m57.834 143.287.757-.359 5.784-.864a15.447 15.447 0 0 1 7.829.86l6.882 2.648a9.576 9.576 0 0 1 3.118 1.959l3.897 3.663a.99.99 0 0 1-1.273 1.516l-4.115-3.076-5.336-2.303c-.03-.013-.052.031-.023.047l3.667 1.98a23.307 23.307 0 0 1 3.181 2.069l2.727 2.108a1.23 1.23 0 0 1-1.302 2.07l-4.221-2.116-6.219-2.426c-.038-.015-.063.04-.028.06l5.116 2.737a23.43 23.43 0 0 1 3.26 2.107l.47.363c.439.337.78.785.991 1.296a1.055 1.055 0 0 1-1.457 1.343l-3.781-1.936a25.702 25.702 0 0 1-2.162-1.24l-2.001-1.281a.629.629 0 0 0-.893.23.628.628 0 0 0 .234.844l1.7 1.002a27.634 27.634 0 0 0 3.376 1.692l.224.094a1.1 1.1 0 0 1-.338 2.113 5.528 5.528 0 0 1-2.975-.601l-3.652-1.889a10.69 10.69 0 0 0-3.39-1.087l-1.1-.157a19.513 19.513 0 0 1-6.81-2.315l-5.053-2.845a6.182 6.182 0 0 1 2.909-8.309l.007.003Z"/><path stroke="#000" stroke-linecap="round" stroke-miterlimit="10" stroke-width=".328" d="m57.834 143.287.757-.359 5.784-.864a15.447 15.447 0 0 1 7.829.86l6.882 2.648a9.578 9.578 0 0 1 3.118 1.959l3.897 3.663a.99.99 0 0 1-1.273 1.516l-4.115-3.076-5.336-2.303c-.03-.013-.052.031-.023.047l3.667 1.98a23.307 23.307 0 0 1 3.181 2.069l2.727 2.108a1.23 1.23 0 0 1-1.302 2.07l-4.221-2.116-6.219-2.426c-.038-.015-.063.04-.028.06l5.116 2.737a23.43 23.43 0 0 1 3.26 2.107l.47.363c.439.337.78.785.991 1.296a1.055 1.055 0 0 1-1.457 1.343l-3.781-1.936a25.702 25.702 0 0 1-2.162-1.24l-2.001-1.281a.629.629 0 0 0-.893.23.628.628 0 0 0 .234.844l1.7 1.002a27.634 27.634 0 0 0 3.376 1.692l.224.094a1.1 1.1 0 0 1-.338 2.113 5.528 5.528 0 0 1-2.975-.601l-3.652-1.889a10.69 10.69 0 0 0-3.39-1.087l-1.1-.157a19.513 19.513 0 0 1-6.81-2.315l-5.053-2.845a6.182 6.182 0 0 1 2.909-8.309l.007.003Z"/><path fill="#CCDFFF" d="M36.707 95.37c-.49 2.071-4.038 10.463-3.967 12.15.07 1.685-.351 3.055-2.143 7.092-1.79 4.038-3.686 9.692-3.932 11.342-.246 1.65-1.945 2.299-1.945 2.299L7.59 140.568c-2.361-1.679-2.797-4.152-1.626-9.238 1.172-5.087 3.215-20.871 5.138-29.583 1.922-8.713 6.73-19.95 7.57-21.456.27-.483.725-.867 1.217-1.165 3.255-7.129 11.678-10.085 11.678-10.085s-.513 4.068 2.929 10.457c3.44 6.392 2.703 13.8 2.211 15.872Z"/><path stroke="#000" stroke-linecap="round" stroke-miterlimit="10" stroke-width=".328" d="M36.307 84.166c1.293 4.959.776 9.628.4 11.204-.49 2.071-4.038 10.463-3.967 12.15.07 1.685-.351 3.055-2.143 7.092-1.79 4.038-3.686 9.692-3.932 11.342-.246 1.65-1.945 2.299-1.945 2.299M7.59 140.568c-2.361-1.679-2.797-4.152-1.626-9.238 1.172-5.087 3.215-20.871 5.138-29.583 1.922-8.713 6.73-19.95 7.57-21.456.27-.483.725-.867 1.217-1.165 3.255-7.129 11.678-10.085 11.678-10.085"/><path stroke="#000" stroke-linecap="round" stroke-miterlimit="10" stroke-width=".328" d="M19.889 79.126c1.037-.627 2.244-.87 2.244-.87M33.574 86.54s2.824 3.484 2.824 9.863M27.217 98.447s1.686 2.757 4.29 3.101M21.436 97.527s3.445 4.097 8.385 4.787"/><path fill="#fff" d="M26.59 131.329s20.334 9.334 32.001 11.601a6.95 6.95 0 0 1-2.722 8.036l-.945.63s-11.855-.867-19.962-2.133c-8.106-1.267-16.463-2.603-18.546-3.547l1.962-9.936 8.21-4.651h.002Z"/><path stroke="#000" stroke-linecap="round" stroke-miterlimit="10" stroke-width=".328" d="M54.924 151.596s-11.855-.867-19.962-2.133c-8.106-1.267-16.463-2.603-18.546-3.547l1.962-9.936 8.21-4.651s20.335 9.334 32.002 11.601"/><path fill="#CCDFFF" d="m24.799 130.689.212-1.491c.06-.428-.12-.852-.47-1.105-1.47-1.073-5.655-3.606-10.569-2.003-4.243 1.385-6.379 4.422-7.453 7.049a7.4 7.4 0 0 0 1.957 8.358c1.32 1.168 3.072 2.268 5.253 2.715L24.8 130.689H24.8Z"/><path stroke="#000" stroke-linecap="round" stroke-miterlimit="10" stroke-width=".328" d="M13.97 126.088c4.914-1.603 9.099.93 10.57 2.003.35.254.53.678.47 1.105l-.213 1.491-11.071 13.523c-2.181-.446-3.932-1.547-5.253-2.715a7.244 7.244 0 0 1-.552-.542 7.392 7.392 0 0 0-.81-.768l-.068-.053"/><path stroke="#000" stroke-linecap="round" stroke-miterlimit="10" stroke-width=".328" d="M24.92 128.558s-3.433-1.399-10.11 4.369"/><path fill="#F8FF6E" d="M10.672 142.734c1.333-2.534 6.436-11.371 14.12-14.094a.801.801 0 0 1 .62.04c.62.308 2.052 1.073 3.14 2.083a.94.94 0 0 1 .122 1.235c-.24.339-.537.808-.807 1.387-.562 1.205-4.16 10.1-10.756 12.755a1.543 1.543 0 0 1-1.245-.051l-4.855-2.339a.741.741 0 0 1-.336-1.014l-.003-.002Z"/><path stroke="#000" stroke-linecap="round" stroke-miterlimit="10" stroke-width=".328" d="M10.672 142.734c1.333-2.534 6.436-11.371 14.12-14.094a.801.801 0 0 1 .62.04c.62.308 2.052 1.073 3.14 2.083a.94.94 0 0 1 .122 1.235c-.24.339-.537.808-.807 1.387-.562 1.205-4.16 10.1-10.756 12.755a1.543 1.543 0 0 1-1.245-.051l-4.855-2.339a.741.741 0 0 1-.336-1.014l-.003-.002ZM61.312 175.643H4.562a4.24 4.24 0 0 1-1.204-.173 4.487 4.487 0 0 1-.484-.171"/></g><defs><clipPath id="a"><path fill="#fff" d="M0 0h281v175.874H0z"/></clipPath></defs></svg>