<svg xmlns="http://www.w3.org/2000/svg" width="214" height="232" fill="none"><g clip-path="url(#a)"><path stroke="#000" stroke-linecap="round" stroke-miterlimit="10" stroke-width=".45" d="M198.364 53.807h-88.142c-5.74 0-10.394 4.653-10.394 10.395v81.763c0 5.74 4.654 10.395 10.394 10.395h88.142c5.74 0 10.394-4.655 10.394-10.395V64.202c0-5.74-4.654-10.395-10.394-10.395Z"/><path fill="#fff" d="M114.729 93.613c-.982.604-2.32.87-4.062.647l-3.268-.848-19.434-5.042a5.497 5.497 0 0 1-4.108-5.124c-.376-10.624-1.352-38.712-1.484-45.367.23 1.694 1.44 4.377 6.89 3.834l8.636 36.159h7.969c.748 0 1.495 0 2.243.009 7.466 1.08 11.582 12.699 6.618 15.732Z"/><path stroke="#000" stroke-linecap="round" stroke-miterlimit="10" stroke-width=".45" d="M114.729 93.613c-.982.604-2.32.87-4.062.647l-3.268-.848-19.434-5.042a5.497 5.497 0 0 1-4.108-5.124c-.376-10.624-1.352-38.712-1.484-45.367.23 1.694 1.44 4.377 6.89 3.834l8.636 36.159h7.969c.748 0 1.495 0 2.243.009 7.466 1.08 11.582 12.699 6.618 15.732Z"/><path fill="#000" d="M114.73 93.612c-.982.603-2.321.87-4.062.647l-3.269-.849c-.324-7.25.939-12.431.939-12.431l5.389 5.905 1.003 6.73v-.002Z"/><path stroke="#000" stroke-linecap="round" stroke-miterlimit="10" stroke-width=".45" d="M97.9 77.871h-3.427"/><path fill="#fff" d="M100.648 29.918c-1.354 1.804-4.84 6.393-6.193 7.654-1.147 1.074-3.027 2.568-4.254 3.523a2.206 2.206 0 0 0-.847 1.587c-.036.5-.423.903-.922.955-2.509.266-5.463-.112-6.82-2.521-.838-1.487-.966-3.521-.326-5.103.574-1.417 1.608-2.636 2.709-3.679.18-.17.365-.337.554-.5.276-.237.422-.591.398-.956l-.497-7.573a.854.854 0 0 1 .141-.527.841.841 0 0 1 1.502.224L88 29.223c.115.374.632.415.797.06 1.167-2.482 1.53-7.564 1.63-9.567a1.042 1.042 0 0 1 .876-.973 1.04 1.04 0 0 1 1.2 1.035s-.037 6.597-.034 6.597c.317-1.265.485-2.576.7-3.725.276-1.474.576-3.395.737-4.453a.99.99 0 0 1 .919-.841.994.994 0 0 1 1.055 1.106c-.375 3.257-.87 7.148-1.14 9.235l3.921-6.48a.87.87 0 0 1 1.139-.328c.419.207.6.712.405 1.14l-3.757 8.38 2.595-2.052c.184-.148.405-.229.624-.242.343-.023.685.11.927.38.351.402.377.998.054 1.426v-.003Z"/><path stroke="#000" stroke-linecap="round" stroke-miterlimit="10" stroke-width=".45" d="M83.399 42.883a4.562 4.562 0 0 1-1.787-1.769c-.838-1.487-.966-3.521-.326-5.102.574-1.418 1.608-2.637 2.709-3.68.18-.17.365-.337.554-.5.276-.237.422-.591.398-.956l-.497-7.573a.855.855 0 0 1 .141-.527.841.841 0 0 1 1.502.224L88 29.22c.115.374.632.415.797.06 1.167-2.482 1.53-7.563 1.63-9.567a1.041 1.041 0 0 1 .876-.973 1.04 1.04 0 0 1 1.2 1.035s-.037 6.596-.034 6.596c.317-1.264.485-2.575.7-3.724a146.6 146.6 0 0 0 .737-4.453.99.99 0 0 1 .919-.841.994.994 0 0 1 1.055 1.106c-.375 3.258-.87 7.148-1.14 9.235l3.921-6.48a.87.87 0 0 1 1.139-.328c.419.207.6.712.405 1.14l-3.757 8.38 2.595-2.052c.184-.148.405-.229.624-.242.343-.023.685.11.927.38.351.402.377.998.054 1.426-1.354 1.804-4.84 6.393-6.193 7.654-1.147 1.074-3.027 2.568-4.254 3.523a2.215 2.215 0 0 0-.585.69 1.32 1.32 0 0 0-.11.94l.048.202"/><path stroke="#000" stroke-linecap="round" stroke-miterlimit="10" stroke-width=".45" d="M85.55 36.623c1.732-5.068 5.674-4.29 7.091-3.82.343.114.72.041 1.003-.182l2.802-2.217M94.738 27.693l-1.119 1.849M92.463 26.377c-.278 1.102-.675 2.16-1.31 3.038"/><path fill="#fff" d="M195.443 156.36h-1.515c-2.684.004-5.367 0-8.051 0l-7.189-32.826-2.916-13.309 12.778-1.722 2.385-.321c.125-.017 1.52 7.134 1.616 7.81.437 3.073.6 6.179.69 9.281.179 6.172.047 12.392 1.088 18.5.458 2.687.862 4.962 1.232 7.665.281 2.048-.118 4.92-.118 4.92v.002Z"/><path stroke="#000" stroke-linecap="round" stroke-miterlimit="10" stroke-width=".45" d="M195.443 156.36h-1.515c-2.684.004-5.367 0-8.051 0l-7.189-32.826-2.916-13.309 12.778-1.722 2.385-.321c.125-.017 1.52 7.134 1.616 7.81.437 3.073.6 6.179.69 9.281.179 6.172.047 12.392 1.088 18.5.458 2.687 1.114 12.587 1.114 12.587Z"/><path fill="#000" d="M188.702 118.583s-3.304 2.712-10.014 4.952l-2.916-13.309 12.778-1.722.152 10.079Z"/><path fill="#0564FF" d="M195.402 114.25a1.7 1.7 0 0 1-.814 1.733c-1.629.963-5.288 2.81-10.847 3.885a44.997 44.997 0 0 1-3.755.56c-2.249 21.452-1.491 36.024-1.491 36.024h-56.524c5.335-22.852 5.107-45.917 4.508-57.54h-13.407a1.891 1.891 0 0 1-1.829-1.404c-1.946-7.358-3.141-15.637-3.141-19.861 11.656.067 23.404 1.007 35.001 2.17.775.076 1.552.154 2.327.238l20.899 2.22 1.307.138c11.691 1.242 21.498 9.346 24.966 20.582 1.219 3.942 2.27 7.917 2.802 11.255h-.002Z"/><path fill="#000" d="M144.676 120.336s-.201 11.421 7.987 19.972c6.466 6.754 14.141 7.662 14.141 7.662s-14.477-6.921-22.13-27.634h.002ZM183.741 119.868a44.908 44.908 0 0 1-3.754.56l1.177-10.49 2.577 9.93ZM126.386 98.82l-.213.092h-10.006l10.01-4.754.209 4.661Z"/><path stroke="#000" stroke-linecap="round" stroke-miterlimit="10" stroke-width=".45" d="M181.964 104.557c-.88 5.56-1.554 10.85-2.069 15.777M126.386 98.82c-.249-4.866-.566-7.728-.566-7.728"/><path fill="#F8FF6E" d="M166.236 82.181c-1.456 3.891-5.994 6.73-11.367 6.73-6.453 0-11.698-4.091-11.857-9.186.775.076 1.551.154 2.326.238l20.9 2.22-.002-.002Z"/><path fill="#00234B" d="M166.236 82.181c-1.456 3.891-5.994 6.73-11.367 6.73-6.453 0-11.698-4.091-11.857-9.186.775.076 1.551.154 2.326.238l20.9 2.22-.002-.002Z"/><path stroke="#000" stroke-linecap="round" stroke-miterlimit="10" stroke-width=".45" d="M141.694 111.783c2.246 7.292 5.074 14.467 9.212 20.879 4.136 6.412 9.65 12.059 16.419 15.584M136.51 140.307a34.01 34.01 0 0 0 14.303 6.754M133.202 103.914a70.636 70.636 0 0 0 8.66 21.66"/><path fill="#fff" d="m164.107 56.878-7.96-9.639-9.594-2.913-5.703 4.107c-1.346 1.503-2.801 4.202-2.777 8.825.003.487-.069.97-.224 1.433-.546 1.64-1.814 5.734-1.437 7.445.229 1.024 1.275 1 1.79.923a.262.262 0 0 1 .299.248c.062 1.367.493 6.861 3.493 7.421 1.082.201 2.261.077 3.481-.317v5.71s1.374 5.227 7.828 5.844c6.469.617 10.033-4.067 10.033-4.067l-3.405-12.802 4.174-12.216.002-.002Z"/><path stroke="#000" stroke-linecap="round" stroke-miterlimit="10" stroke-width=".45" d="m163.337 81.895-3.406-12.803 4.174-12.216-7.96-9.639-9.594-2.913-5.703 4.107c-1.345 1.503-2.8 4.202-2.776 8.825.003.487-.069.97-.224 1.433-.547 1.64-1.814 5.735-1.437 7.445.228 1.024 1.275 1 1.79.923a.262.262 0 0 1 .299.248c.061 1.367.492 6.861 3.492 7.421 1.083.201 2.262.077 3.481-.317v5.71"/><path fill="#000" d="m148.948 72.675-3.472 6.028V74.41s1.693-.404 3.472-1.734v-.003.001ZM141.579 70.074c-.759-.077-1.231-1.07-1.461-1.722a.553.553 0 0 1 .362-.714c.59-.177 2.253-.69 3.155-1.195a.299.299 0 0 1 .44.306c-.161 1.102-1.306 3.447-2.497 3.325h.001Z"/><path stroke="#000" stroke-linecap="round" stroke-miterlimit="10" stroke-width=".45" d="M151.514 70.668c-1.965 1.769-4.057 3.107-6.038 3.74"/><path fill="#000" d="M168.945 53.516c-.419 4.96-2.403 9.448-5.116 11.903-1.568 1.418-2.927 2.595-3.898 3.676-.712.792-1.216 1.529-1.445 2.274 0 0-3.809-3.077-1.935-10.042l-1.816-1.7-1.916 1.334-3.527.047s1.579-2.442.814-6.08c-.766-3.64-4.405-2.013-4.357-7.277 0 0-2.147 1.16-4.901.783-1.242-.168-2.608-.65-3.955-1.695-4.259-3.302-3.78-9.706.335-9.91 4.884-.238 5.955 2.767 12.236 3.61 5.558.747 13.162-1.507 15.816.845 2.536 2.25 0 7.633 0 7.633s4.08-.36 3.664 4.6l.001-.001Z"/><path fill="#fff" d="M158.151 59.922c.481-2.227-.378-4.301-1.916-4.633-1.537-.332-3.173 1.206-3.653 3.433-.479 2.227.378 4.3 1.916 4.632 1.538.332 3.173-1.205 3.653-3.432Z"/><path stroke="#000" stroke-linecap="round" stroke-miterlimit="10" stroke-width=".45" d="M154.498 63.354c1.538.332 3.173-1.205 3.653-3.432.481-2.227-.378-4.301-1.916-4.633-1.537-.332-3.173 1.206-3.653 3.433-.183.853-.171 1.685 0 2.404"/><path stroke="#000" stroke-linecap="round" stroke-miterlimit="10" stroke-width=".45" d="M154.63 59.971s.565-.419.412-.89c-.089-.274-.374-.322-.6-.317-.132.003-.226-.104-.178-.206.231-.49.835-1.547 1.704-1.554 1.212-.01 1.406 2.147-.931 4.553M139.465 54.137s2.191-.84 3.545 1.108"/><path fill="#000" d="M140.931 58.812c-.245.012-.464-.39-.488-.896-.026-.51.153-.93.399-.943.245-.012.466.39.488.9.026.508-.154.929-.399.94Z"/><path stroke="#fff" stroke-linecap="round" stroke-miterlimit="10" stroke-width=".393" d="M145.749 47.648s1.564-.763 2.86-1.912"/><path fill="#F8FF6E" d="M196.886.264h-20.188c-9.327 0-16.886 7.56-16.886 16.887 0 5.954 3.085 11.184 7.738 14.192l-1.697 2.45c-1.106 1.6.566 3.654 2.356 2.888l6.486-2.764c.658.078 1.326.123 2.006.123h20.189c9.327 0 16.886-7.56 16.886-16.887 0-9.327-7.56-16.89-16.887-16.89h-.003Z"/><path stroke="#000" stroke-linecap="round" stroke-miterlimit="10" stroke-width=".45" d="M196.886.264h-20.188c-9.327 0-16.886 7.56-16.886 16.887 0 5.954 3.085 11.184 7.738 14.192l-1.697 2.45c-1.106 1.6.566 3.654 2.356 2.888l6.486-2.764c.658.078 1.326.123 2.006.123h20.189c9.327 0 16.886-7.56 16.886-16.887 0-9.327-7.56-16.89-16.887-16.89h-.003Z"/><path fill="#fff" d="M179.354 22.863h-.636a.952.952 0 0 1-.952-.951v-4.139a.192.192 0 0 0-.192-.192h-4.567a.191.191 0 0 0-.192.192v4.139a.953.953 0 0 1-.952.951h-.637a.953.953 0 0 1-.952-.951V11.486c0-.525.427-.952.952-.952h.637c.525 0 .952.427.952.952v3.852c0 .106.085.192.192.192h4.567a.192.192 0 0 0 .192-.192v-3.852c0-.525.426-.952.952-.952h.636c.526 0 .952.427.952.952v10.425a.952.952 0 0 1-.952.951Z"/><path stroke="#000" stroke-linecap="round" stroke-miterlimit="10" stroke-width=".45" d="M179.354 22.863h-.636a.952.952 0 0 1-.952-.951v-4.139a.192.192 0 0 0-.192-.192h-4.567a.191.191 0 0 0-.192.192v4.139a.953.953 0 0 1-.952.951h-.637a.953.953 0 0 1-.952-.951V11.486c0-.525.427-.952.952-.952h.637c.525 0 .952.427.952.952v3.852c0 .106.085.192.192.192h4.567a.192.192 0 0 0 .192-.192v-3.852c0-.525.426-.952.952-.952h.636c.526 0 .952.427.952.952v10.425a.952.952 0 0 1-.952.951Z"/><path fill="#fff" d="M193.923 22.861h-.805a.824.824 0 0 1-.824-.824V10.68c0-.455.369-.825.824-.825h.805c.455 0 .825.37.825.825v11.357c0 .455-.37.824-.825.824Z"/><path stroke="#000" stroke-linecap="round" stroke-miterlimit="10" stroke-width=".45" d="M193.923 22.861h-.805a.824.824 0 0 1-.824-.824V10.68c0-.455.369-.825.824-.825h.805c.455 0 .825.37.825.825v11.357c0 .455-.37.824-.825.824Z"/><path fill="#fff" d="M204.245 22.858h-2.022a.236.236 0 0 1-.219-.145 2.657 2.657 0 0 1-.142-.476c-.016-.08-.114-.111-.171-.054-.572.566-1.3.847-2.177.847s-1.641-.259-2.232-.78a2.512 2.512 0 0 1-.884-1.965c0-.97.36-1.715 1.08-2.236.719-.52 1.758-.781 3.12-.789h1.126v-.524c0-.423-.108-.763-.326-1.015-.217-.255-.56-.381-1.028-.381-.412 0-.736.099-.969.296a.952.952 0 0 0-.242.306c-.159.323-.507.508-.866.508h-.461a.922.922 0 0 1-.748-1.46l.009-.014c.329-.45.792-.805 1.389-1.063.599-.257 1.271-.386 2.017-.386 1.128 0 2.026.284 2.688.85.664.566.995 1.365.995 2.394v3.972c.005.61.182 1.407.289 1.827a.232.232 0 0 1-.226.288Z"/><path stroke="#000" stroke-linecap="round" stroke-miterlimit="10" stroke-width=".45" d="M204.245 22.858h-2.022a.236.236 0 0 1-.219-.145 2.657 2.657 0 0 1-.142-.476c-.016-.08-.114-.111-.171-.054-.572.566-1.3.847-2.177.847s-1.641-.259-2.232-.78a2.512 2.512 0 0 1-.884-1.965c0-.97.36-1.715 1.08-2.236.719-.52 1.758-.781 3.12-.789h1.126v-.524c0-.423-.108-.763-.326-1.015-.217-.255-.56-.381-1.028-.381-.412 0-.736.099-.969.296a.952.952 0 0 0-.242.306c-.159.323-.507.508-.866.508h-.461a.922.922 0 0 1-.748-1.46l.009-.014c.329-.45.792-.805 1.389-1.063.599-.257 1.271-.386 2.017-.386 1.128 0 2.026.284 2.688.85.664.566.995 1.365.995 2.394v3.972c.005.61.182 1.407.289 1.827a.232.232 0 0 1-.226.288Z"/><path fill="#F8FF6E" d="M200.05 21.158c.36 0 .694-.081.998-.24l.009-.005c.419-.225.669-.675.669-1.151v-.224a.842.842 0 0 0-.843-.843h-.073c-1.226 0-1.877.424-1.955 1.27l-.009.142c0 .305.105.555.321.754.215.196.507.296.88.296h.003v.001Z"/><path stroke="#000" stroke-linecap="round" stroke-miterlimit="10" stroke-width=".45" d="M200.05 21.158c.36 0 .694-.081.998-.24l.009-.005c.419-.225.669-.675.669-1.151v-.224a.842.842 0 0 0-.843-.843h-.073c-1.226 0-1.877.424-1.955 1.27l-.009.142c0 .305.105.555.321.754.215.196.507.296.88.296h.003v.001Z"/><path fill="#fff" d="M190.66 18.373c0 1.406-.393 2.535-1.177 3.384-.784.848-1.838 1.273-3.158 1.273-1.32 0-2.374-.423-3.162-1.269-.789-.847-1.182-1.998-1.182-3.455v-.111c0-.909.176-1.718.525-2.43a3.818 3.818 0 0 1 1.511-1.65c.658-.389 1.422-.586 2.292-.586 1.237 0 2.244.38 3.025 1.136.783.756 1.22 1.782 1.31 3.082l.016.627Z"/><path stroke="#000" stroke-linecap="round" stroke-miterlimit="10" stroke-width=".45" d="M190.66 18.373c0 1.406-.393 2.535-1.177 3.384-.784.848-1.838 1.273-3.158 1.273-1.32 0-2.374-.423-3.162-1.269-.789-.847-1.182-1.998-1.182-3.455v-.111c0-.909.176-1.718.525-2.43a3.818 3.818 0 0 1 1.511-1.65c.658-.389 1.422-.586 2.292-.586 1.237 0 2.244.38 3.025 1.136.783.756 1.22 1.782 1.31 3.082l.016.627Z"/><path fill="#F8FF6E" d="M184.429 18.368c0 .87.163 1.538.489 1.997.329.46.796.69 1.406.69.609 0 1.057-.226 1.39-.68.332-.456.499-1.184.499-2.183 0-.853-.167-1.515-.499-1.983-.333-.47-.803-.703-1.405-.703-.603 0-1.062.234-1.391.701-.327.467-.489 1.19-.489 2.167v-.005"/><path stroke="#000" stroke-linecap="round" stroke-miterlimit="10" stroke-width=".45" d="M184.429 18.368c0 .87.163 1.538.489 1.997.329.46.796.69 1.406.69.609 0 1.057-.226 1.39-.68.332-.456.499-1.184.499-2.183 0-.853-.167-1.515-.499-1.983-.333-.47-.803-.703-1.405-.703-.603 0-1.062.234-1.391.701-.327.467-.489 1.19-.489 2.167v-.005M102.894 128.543h-88.14c-5.741 0-10.395 4.654-10.395 10.396v81.762c0 5.741 4.654 10.394 10.394 10.394h88.141c5.741 0 10.395-4.653 10.395-10.394v-81.762c0-5.741-4.654-10.396-10.395-10.396Z"/><path fill="#fff" d="M105.869 172.105c.165-.213-.533.08-.638.329l-12.49 29.942c-1.595 3.82-6.66 4.609-9.34 1.454l-18.046-21.248 17.188-10.59 2.36 6.828 2.495 7.216c2.288-3.658 7.642-12.326 10.71-17.299a13.005 13.005 0 0 1 3.75-3.928c-.075.156 9.907-.352 4.011 7.296Z"/><path stroke="#000" stroke-linecap="round" stroke-miterlimit="10" stroke-width=".45" d="m105.231 172.434-12.49 29.942c-1.595 3.82-6.66 4.609-9.34 1.454l-18.046-21.248 17.188-10.59 2.36 6.828 2.495 7.216c2.288-3.658 7.642-12.326 10.71-17.299a13.005 13.005 0 0 1 3.75-3.928c-.075.156 6.81 2.863 3.373 7.625Z"/><path fill="#000" d="M87.4 186.035c-.702 1.123-1.605 2.991-1.605 2.991l-.89-10.208 2.494 7.217Z"/><path stroke="#000" stroke-linecap="round" stroke-miterlimit="10" stroke-width=".45" d="M87.4 186.035c-3.944 6.302-2.549 9.417-2.549 9.417"/><path fill="#fff" d="m31.432 189.729-.52 9.565-1.734 31.803h-11l-2.61-41.368h15.864Z"/><path stroke="#000" stroke-linecap="round" stroke-miterlimit="10" stroke-width=".45" d="m31.432 189.729-.52 9.565-1.734 31.803h-11l-2.61-41.368h15.864Z"/><path fill="#CCDFFF" d="M31.738 231.102c2.87-10.832 2.56-20.052 2.377-22.822-1.53-1.239-1.045-2.598-.434-3.466-.762-3.02-1.756-6.271-2.785-9.36-9.696 1.443-16.215-1.674-16.215-1.674l.373-15.414a19.55 19.55 0 0 1 10.798-17.009l10.288-5.145 17.28-3.067 11.761.791a17.77 17.77 0 0 1 14.787 9.965l5.146 10.589s-2.849 4.618-7.675 8.092c.952 6.373 1.851 13.976 2.48 22.571 1.63 22.334 6.372 25.949 6.372 25.949H31.738Z"/><path fill="#0564FF" d="M56.433 153.859c0 4.7-5.336 8.512-11.916 8.512-4.795 0-8.928-2.022-10.819-4.938l2.442-1.221 17.28-3.067 2.99.201c.017.168.023.339.023.513Z"/><path stroke="#000" stroke-linecap="round" stroke-miterlimit="10" stroke-width=".45" d="M31.738 231.102c2.87-10.832 2.56-20.052 2.377-22.822-1.53-1.239-1.045-2.598-.434-3.466-.762-3.02-1.756-6.271-2.785-9.36-9.696 1.443-16.215-1.674-16.215-1.674l.373-15.414a19.55 19.55 0 0 1 10.798-17.009l10.288-5.145 17.28-3.067 11.761.791a17.77 17.77 0 0 1 14.787 9.965l5.146 10.589s-2.849 4.618-7.675 8.092c.952 6.373 1.851 13.976 2.48 22.571 1.63 22.334 6.372 25.949 6.372 25.949H31.738Z"/><path fill="#000" d="m75.149 169.646 4.215 11.347s-.652.668-1.924 1.586c0 0-.614-4.782-2.288-12.933h-.003ZM39.9 215.201s3.761 6.927 11.085 9.067c5.736 1.677 11.915-1.562 11.915-1.562s-10.78 2.421-22.999-7.505h-.003.002ZM27.526 186.033l-.354 9.771s1.9-.013 3.724-.354c0 0-2.448-7.031-3.368-9.417h-.002Z"/><path stroke="#000" stroke-linecap="round" stroke-miterlimit="10" stroke-width=".45" d="M73.394 162.367c.873 2.969 2.522 10.024 4.043 20.212M38.22 209.989c-2.044-.488-3.331-1.084-4.105-1.712M36.895 212.812c3.89 3.252 8.097 6.204 12.801 8.088 4.705 1.885 9.962 2.652 14.894 1.482M63.915 219.082c2-.273 4.002-.763 5.747-1.778 1.745-1.015 3.218-2.607 3.774-4.548M34.115 184.787c2.78 9.426 10.212 22.807 30.096 21.949M25.684 181.34s2.703 6.58 5.21 14.112"/><path fill="#fff" d="M59.01 139.496c-1.658-6.486-4.148-12.195-5.674-15.371l-4.466-6.742-13.292 1.363-7.567 8.59 2.523 14.726 4.748 4.795c1.997 4.164.858 9.35.858 9.35s3.647 4.27 10.376 3.247c6.966-1.057 6.906-6.314 6.906-6.314l-1.38-5.119a17.972 17.972 0 0 0 3.167-.927c3.003-1.195 4.602-4.464 3.803-7.598h-.003Z"/><path stroke="#000" stroke-linecap="round" stroke-miterlimit="10" stroke-width=".45" d="M59.01 139.496c-1.658-6.486-4.148-12.195-5.674-15.371l-4.466-6.742-13.292 1.363-7.567 8.59 2.523 14.726 4.748 4.795c1.997 4.164.858 9.35.858 9.35s3.647 4.27 10.376 3.247c6.966-1.057 6.906-6.314 6.906-6.314l-1.38-5.119a17.972 17.972 0 0 0 3.167-.927c3.003-1.195 4.602-4.464 3.803-7.598h-.003Z"/><path fill="#000" d="m47.86 148.4 5.232 3.53-1.053-3.903s-1.79.488-4.18.373Z"/><path stroke="#330603" stroke-linecap="round" stroke-miterlimit="10" stroke-width=".393" d="M46.002 148.312c2.311.194 4.32.048 6.037-.287"/><path fill="#000" d="M55.895 120.404c-.047 1.413-1.19 2.096-2.7 2.424-1.183.257-2.592.294-3.874.294-1.736 0-3.583-.081-4.808-.149a.479.479 0 0 0-.352.828c1.101 1.024 1.705 2.565.643 3.161-1.216.68-4.753.797-6.838.785a.461.461 0 0 0-.344.772c.86.941 2.069 2.52 1.623 3.542-.365.843-1.1 1.161-1.688 1.281a.416.416 0 0 0-.236.68c.368.436.687.999.274 1.346-.75.629-3.74-1.457-3.74-1.457l-.776 5.128s2.807 2.104 2.22 3.448c-.261.605-.672.879-1.04.999-.301.094-.429.45-.23.695.571.698 1.187 1.829.112 2.641a2.459 2.459 0 0 1-.359.224c-2.338 1.228-7.305.176-8.24-1.577-.933-1.755 1.17-2.689-.876-4.21-2.049-1.517-3.858-2.805-3.39-5.317.468-2.514 1.283-2.866-.41-3.975-1.696-1.11-3.154-1.868-1.696-5.845 1.28-3.482 3.598-5.336 6.075-5.925a.62.62 0 0 0 .364-.976c-.51-.695-1.098-1.766-.976-2.906.24-2.317 2.854-5.419 8.283-5.544 5.458-.127 7.023 1.847 8.527 1.338 1.504-.509 1.852-2.874 5.017-2.353 2.944.481 7.995 3.448 5.25 5.896a.524.524 0 0 0 .13.876c1.426.618 4.11 2.028 4.054 3.878l.001-.002Z"/><path stroke="#000" stroke-linecap="round" stroke-miterlimit="10" stroke-width=".45" d="m53.001 130.197 3.214 3.938c.75.922.591 2.284-.356 3.003l-.372.284"/><path fill="#000" d="M56.551 138.452a76.957 76.957 0 0 1-4.494 2.042c-.29.12-.367.481-.144.679.63.561 1.94 1.386 3.767.667 1.38-.545 1.612-2.107 1.618-3.04.003-.341-.395-.522-.75-.348h.003ZM54.667 129.535c-.194.118-.548-.11-.792-.509-.246-.401-.288-.82-.096-.942.194-.119.548.11.795.511.246.401.285.821.093.94ZM49.555 132.13c-.194.119-.548-.109-.791-.509-.247-.401-.289-.82-.096-.941.193-.119.548.109.794.51s.285.822.093.94Z"/><path stroke="#000" stroke-linecap="round" stroke-miterlimit="10" stroke-width=".45" d="M45.37 130.649s.374-2.67 3.3-2.934M54.89 126.579s-1.24-1.2-2.817-.18"/><path fill="#fff" d="M35.2 140.576c1.422-.622 1.9-2.664 1.072-4.564-.83-1.9-2.655-2.936-4.076-2.314-1.422.622-1.9 2.664-1.072 4.563.83 1.9 2.655 2.936 4.077 2.315H35.2Z"/><path stroke="#000" stroke-linecap="round" stroke-miterlimit="10" stroke-width=".45" d="M36.272 136.012c-.83-1.9-2.655-2.936-4.076-2.314-1.422.622-1.9 2.664-1.072 4.563.83 1.9 2.655 2.936 4.077 2.315"/><path stroke="#000" stroke-linecap="round" stroke-miterlimit="10" stroke-width=".45" d="M34.497 137.85s-.584-.389-.46-.868c.072-.278.36-.342.58-.348.132-.005.22-.119.167-.218-.259-.476-.918-1.5-1.787-1.46-1.21.056-1.289 2.223 1.177 4.495"/><path stroke="#320A84" stroke-linecap="round" stroke-miterlimit="10" stroke-width=".393" d="M102.894 231.099h-88.14c-5.741 0-10.395-4.655-10.395-10.396"/><path fill="#F8FF6E" d="M17.113 66.168h20.189c9.327 0 16.886 7.56 16.886 16.887 0 5.954-3.085 11.184-7.738 14.192l1.697 2.45c1.106 1.602-.566 3.654-2.356 2.888l-6.484-2.766c-.66.078-1.328.124-2.007.124H17.111C7.784 99.943.225 92.382.225 83.055c0-9.326 7.56-16.887 16.886-16.887h.002Z"/><path stroke="#000" stroke-linecap="round" stroke-miterlimit="10" stroke-width=".45" d="M17.113 66.168h20.189c9.327 0 16.886 7.56 16.886 16.887 0 5.954-3.085 11.184-7.738 14.192l1.697 2.45c1.106 1.602-.566 3.654-2.356 2.888l-6.484-2.766c-.66.078-1.328.124-2.007.124H17.111C7.784 99.943.225 92.382.225 83.055c0-9.326 7.56-16.887 16.886-16.887h.002Z"/><path fill="#fff" d="M27.935 88.763h-.693a.925.925 0 0 1-.925-.925v-4.064a.295.295 0 0 0-.294-.295H21.66a.295.295 0 0 0-.294.295v4.064c0 .511-.414.925-.925.925h-.692a.925.925 0 0 1-.925-.925v-10.48c0-.51.414-.924.925-.924h.692c.51 0 .925.414.925.925v3.778c0 .162.132.294.294.294h4.364a.295.295 0 0 0 .294-.294v-3.778c0-.511.415-.925.925-.925h.693c.51 0 .925.414.925.925v10.48c0 .51-.415.924-.925.924Z"/><path stroke="#000" stroke-linecap="round" stroke-miterlimit="10" stroke-width=".45" d="M27.935 88.763h-.693a.925.925 0 0 1-.925-.925v-4.064a.295.295 0 0 0-.294-.295H21.66a.295.295 0 0 0-.294.295v4.064c0 .511-.414.925-.925.925h-.692a.925.925 0 0 1-.925-.925v-10.48c0-.51.414-.924.925-.924h.692c.51 0 .925.414.925.925v3.778c0 .162.132.294.294.294h4.364a.295.295 0 0 0 .294-.294v-3.778c0-.511.415-.925.925-.925h.693c.51 0 .925.414.925.925v10.48c0 .51-.415.924-.925.924Z"/><path fill="#fff" d="M30.9 77.228c0-.368.124-.668.368-.907.245-.239.58-.356 1.003-.356.424 0 .751.118.999.356.248.239.372.539.372.907s-.124.677-.377.916c-.252.238-.582.356-.994.356-.411 0-.744-.119-.994-.356a1.21 1.21 0 0 1-.377-.916Zm1.637 11.532h-.533a.961.961 0 0 1-.96-.96V80.56a.96.96 0 0 1 .96-.96h.533c.532 0 .961.43.961.96V87.8a.961.961 0 0 1-.96.961Z"/><path stroke="#000" stroke-linecap="round" stroke-miterlimit="10" stroke-width=".45" d="M30.9 77.228c0-.368.124-.668.368-.907.245-.239.58-.356 1.003-.356.424 0 .751.118.999.356.248.239.372.539.372.907s-.124.677-.377.916c-.252.238-.582.356-.994.356-.411 0-.744-.119-.994-.356a1.21 1.21 0 0 1-.377-.916Zm1.637 11.532h-.533a.961.961 0 0 1-.96-.96V80.56a.96.96 0 0 1 .96-.96h.533c.532 0 .961.43.961.96V87.8a.961.961 0 0 1-.96.961Z"/><path fill="#fff" d="M113.942 164.472s-.381 3.822-4.604 2.146l.982-2.848 3.624.701h-.002v.001Z"/><path stroke="#000" stroke-linecap="round" stroke-miterlimit="10" stroke-width=".45" d="M113.942 164.472s-.381 3.822-4.604 2.146l.982-2.848 3.624.701h-.002v.001Z"/><path fill="#fff" d="m111.401 157.136 4.145 3.67.021 1.679a2.84 2.84 0 0 1-2.076 2.777c-.941.261-2.108.422-3.288.18-2.738-.56-2.735-7.008 1.197-8.307l.001.001Z"/><path stroke="#000" stroke-linecap="round" stroke-miterlimit="10" stroke-width=".45" d="m111.401 157.136 4.145 3.67.021 1.679a2.84 2.84 0 0 1-2.076 2.777c-.941.261-2.108.422-3.288.18-2.738-.56-2.735-7.008 1.197-8.307l.001.001Z"/><path stroke="#330603" stroke-linecap="round" stroke-miterlimit="10" stroke-width=".393" d="M115.55 162.84a2.083 2.083 0 0 1-.103.073l-4.875 3.112a1.229 1.229 0 0 0-.549.829"/><path fill="#fff" d="M121.036 152.879a1.175 1.175 0 0 1-.652 1.434l-9.125 3.969s-.904.64-1.26 2.274a.841.841 0 0 0 1.051.992l3.346-.958c.675-.195 1.399.182 1.599.858.004.007.006.018.009.025a1.3 1.3 0 0 1-.559 1.439l-4.873 3.111a1.245 1.245 0 0 0-.569 1.012c-.028 1.185-.545 3.741-4.233 5.023-6.544 2.168-7.229-3.927-7.247-4.099v-.002a13.14 13.14 0 0 1 1.446-2.476l5.731-7.715a6.356 6.356 0 0 1 3.186-2.272l10.675-3.381a1.178 1.178 0 0 1 1.476.766h-.001Z"/><path stroke="#000" stroke-linecap="round" stroke-miterlimit="10" stroke-width=".45" d="M98.342 168.389s1.052-2.133 1.626-2.906l5.73-7.715a6.353 6.353 0 0 1 3.187-2.272l10.675-3.381a1.178 1.178 0 0 1 1.476.766 1.175 1.175 0 0 1-.652 1.434l-9.125 3.969s-.904.64-1.26 2.274a.841.841 0 0 0 1.051.992l3.346-.958c.675-.195 1.399.182 1.599.858.004.007.006.018.009.025a1.3 1.3 0 0 1-.559 1.439l-4.873 3.111c-.345.222-.542.601-.569 1.012-.168 2.533-1.516 3.702-2.823 4.394-.919.486-1.844.44-2.101 1.366M82.373 37.876c-.102-.748-.013-1.302-.013-1.302"/></g><defs><clipPath id="a"><path fill="#fff" d="M0 .04h214v231.283H0z"/></clipPath></defs></svg>
