<svg width="164" height="144" viewBox="0 0 164 144" fill="none" xmlns="http://www.w3.org/2000/svg">
<path opacity="0.34" d="M0 142.778C3.98548 128.165 11.6907 108.769 27.2152 103.91C40.614 99.735 40.9556 110.059 57.2771 112.451C100.358 118.789 120.513 58.7414 144.085 68.1548C159.078 74.152 168.187 94.0035 162.076 116.246C158.584 128.962 151.79 137.806 147.311 142.664L0 142.778Z" fill="url(#paint0_linear_935_29107)"/>
<path d="M17.0046 143.233H136.265" stroke="#5C75C9" stroke-opacity="0.3" stroke-width="0.865798" stroke-miterlimit="10" stroke-linecap="round"/>
<path d="M142.794 143.043H155.737" stroke="#5C75C9" stroke-opacity="0.3" stroke-width="0.865798" stroke-miterlimit="10" stroke-linecap="round"/>
<path d="M7.24963 143.044H12.3359" stroke="#5C75C9" stroke-opacity="0.3" stroke-width="0.865798" stroke-miterlimit="10" stroke-linecap="round"/>
<path d="M130.524 30.7291C136.825 30.9948 141.949 36.2328 142.025 42.5337C142.063 45.3046 141.19 47.8477 139.671 49.8974L141.303 54.7938H130.258C123.578 54.7938 117.884 49.328 117.96 42.6476C118.036 35.8912 123.653 30.4634 130.524 30.7291Z" fill="#75E8F0"/>
<path d="M122.249 34.8282C115.91 35.0939 110.824 40.332 110.71 46.6328C110.672 49.4037 111.545 51.9468 113.063 53.9965L111.431 58.8929H122.477C129.157 58.8929 134.851 53.4271 134.775 46.7467C134.737 39.9904 129.119 34.5625 122.249 34.8282Z" fill="#5C75C9"/>
<path d="M121.924 52.0607C121.355 52.744 120.292 52.744 119.723 52.0607L116.61 48.5307C115.737 47.5059 115.851 45.9497 116.876 45.0766L120.823 49.7074L125.985 43.6343C126.858 42.6094 128.415 42.4576 129.44 43.3686L121.924 52.0607Z" fill="white"/>
<path d="M155.7 114.196L156.079 114.917C156.573 115.79 157.256 116.512 158.129 116.967L158.85 117.347L158.129 117.726C157.256 118.22 156.535 118.903 156.079 119.776L155.7 120.497L155.32 119.776C154.827 118.903 154.143 118.182 153.27 117.726L152.549 117.347L153.27 116.967C154.143 116.474 154.865 115.79 155.32 114.917L155.7 114.196Z" fill="#5C74C6" fill-opacity="0.3"/>
<path d="M100.586 39.6108L100.966 40.332C101.459 41.205 102.142 41.9262 103.015 42.3817L103.736 42.7613L103.015 43.1408C102.142 43.6343 101.421 44.3175 100.966 45.1905L100.586 45.9117L100.206 45.1905C99.7131 44.3175 99.0298 43.5963 98.1568 43.1408L97.4356 42.7613L98.1568 42.3817C99.0298 41.8883 99.751 41.205 100.206 40.332L100.586 39.6108Z" fill="#5C74C6" fill-opacity="0.3"/>
<path d="M40.5003 83.5649L40.8798 84.2861C41.3733 85.1591 42.0565 85.8803 42.9295 86.3358L43.6507 86.7154L42.9295 87.0949C42.0565 87.5884 41.3353 88.2716 40.8798 89.1446L40.5003 89.8658L40.1207 89.1446C39.6272 88.2716 38.944 87.5504 38.071 87.0949L37.3498 86.7154L38.071 86.3358C38.944 85.8424 39.6652 85.1591 40.1207 84.2861L40.5003 83.5649Z" fill="#5C74C6" fill-opacity="0.3"/>
<g clip-path="url(#clip0_935_29107)">
<g opacity="0.8" filter="url(#filter0_f_935_29107)">
<path opacity="0.8" d="M155.996 94.7702L143.344 102.433L110.342 121.277L79.4771 139.887C77.7995 140.884 74.9093 140.776 72.9736 139.617L34.7796 116.577C32.8441 115.418 32.6376 113.666 34.3151 112.643L73.4381 89.0633C75.1158 88.0663 78.006 88.1741 79.9416 89.3329L113.942 67.5063C115.877 68.6651 157.674 93.7461 155.996 94.7702Z" fill="#624DE3" fill-opacity="0.2"/>
</g>
<path d="M34.2091 109.135L75.3559 133.047C76.673 133.812 78.8155 133.812 80.1426 133.047L154.534 90.0985C155.201 89.7121 155.535 89.2077 155.535 88.7012L155.542 90.9388C155.545 91.4431 155.211 91.95 154.541 92.3362L80.1478 135.282C78.8207 136.047 76.6782 136.047 75.3608 135.282L34.2142 111.371C33.5594 110.989 33.2332 110.492 33.2307 109.993L33.2232 107.755C33.2257 108.257 33.5544 108.754 34.2091 109.135Z" fill="url(#paint1_linear_935_29107)"/>
<path d="M103.726 121.672L124.19 109.855H120.309L103.726 119.429V121.672Z" fill="#4636AB"/>
<path d="M34.2242 106.36C32.8971 107.126 32.8895 108.367 34.2067 109.133L75.3534 133.044C76.6705 133.809 78.8129 133.809 80.1404 133.044L154.531 90.0958C155.858 89.3306 155.866 88.0886 154.549 87.3234L113.402 63.4123C112.085 62.6471 109.94 62.6471 108.615 63.4123L34.2242 106.36Z" fill="#F0F0FF"/>
<path d="M36.59 106.977C35.4861 107.615 35.4811 108.648 36.5775 109.286L60.2656 123.051C61.362 123.688 63.1432 123.688 64.247 123.051L137.479 80.7706C138.583 80.1333 138.588 79.102 137.491 78.465L113.803 64.6992C112.707 64.0619 110.923 64.0619 109.822 64.6992L36.59 106.977Z" fill="#FBFBFF"/>
<path d="M94.1217 107.377C93.0804 107.979 93.073 108.955 94.1091 109.557L103.537 115.036C104.573 115.638 106.259 115.638 107.3 115.036L124.137 105.317C125.181 104.715 125.186 103.739 124.15 103.137L114.722 97.6578C113.685 97.0555 112.002 97.0555 110.958 97.6578L94.1217 107.377Z" fill="#CBCBF7"/>
<path d="M45.3857 107.786L42.799 109.288C42.4428 109.497 41.8607 109.497 41.4995 109.288L38.8953 107.786C38.7147 107.68 38.6244 107.545 38.6244 107.407L38.6219 108.152C38.6219 108.29 38.7122 108.425 38.8928 108.531L41.497 110.033C41.8582 110.242 42.4403 110.242 42.7965 110.033L45.3831 108.531C45.5612 108.428 45.6515 108.292 45.6515 108.157L45.6541 107.412C45.6541 107.547 45.5637 107.68 45.3857 107.786Z" fill="#9689E8"/>
<path d="M45.3831 107.031C45.7444 107.239 45.747 107.575 45.388 107.783L42.8016 109.286C42.4453 109.494 41.8633 109.494 41.502 109.286L38.8979 107.783C38.5366 107.575 38.5366 107.236 38.8929 107.031L41.4794 105.528C41.8382 105.32 42.4177 105.32 42.779 105.528L45.3831 107.031Z" fill="#CBCBF7"/>
<path d="M55.2304 107.971L47.8998 112.231C47.5408 112.439 46.9614 112.439 46.6025 112.233L43.9985 110.73C43.8178 110.625 43.7275 110.49 43.7275 110.352L43.725 111.097C43.725 111.235 43.8153 111.37 43.996 111.476L46.6002 112.978C46.9588 113.187 47.5382 113.187 47.8972 112.976L55.2278 108.716C55.4061 108.613 55.4964 108.478 55.4964 108.342L55.4987 107.597C55.4964 107.732 55.4084 107.868 55.2304 107.971Z" fill="#9689E8"/>
<path d="M55.2278 107.218C55.5867 107.427 55.589 107.763 55.2304 107.971L47.8998 112.231C47.5408 112.439 46.9614 112.439 46.6028 112.234L43.9985 110.731C43.6372 110.523 43.6372 110.184 43.9935 109.978L51.3241 105.718C51.6831 105.51 52.2625 105.51 52.6237 105.718L55.2278 107.218Z" fill="#CBCBF7"/>
<path d="M57.5984 112.505L52.9976 115.179C52.6386 115.387 52.0592 115.387 51.6979 115.179L49.0936 113.676C48.9129 113.573 48.8226 113.435 48.8226 113.3L48.8204 114.045C48.8204 114.18 48.9107 114.319 49.0913 114.421L51.6954 115.924C52.0566 116.132 52.636 116.132 52.995 115.924L57.5962 113.25C57.7716 113.147 57.8619 113.011 57.8619 112.878L57.8645 112.133C57.8645 112.266 57.7768 112.402 57.5984 112.505Z" fill="#9689E8"/>
<path d="M57.5933 111.752C57.9545 111.96 57.9571 112.297 57.6007 112.505L52.9995 115.179C52.6409 115.388 52.0615 115.388 51.7002 115.179L49.0958 113.677C48.7372 113.468 48.7346 113.132 49.0936 112.924L53.6945 110.249C54.0508 110.041 54.6302 110.041 54.9892 110.249L57.5933 111.752Z" fill="#CBCBF7"/>
<path d="M70.579 116.666L67.9924 118.169L63.1053 121.009C62.7467 121.217 62.167 121.217 61.8057 121.009L59.2017 119.506C59.0211 119.403 58.9308 119.265 58.9308 119.129L58.9282 119.875C58.9282 120.01 59.0185 120.148 59.1991 120.251L61.8032 121.754C62.1647 121.962 62.7441 121.962 63.1028 121.754L67.9901 118.914L70.5767 117.411C70.7547 117.308 70.845 117.173 70.845 117.037L70.8476 116.292C70.8476 116.428 70.7573 116.563 70.579 116.666Z" fill="#9689E8"/>
<path d="M70.5748 115.915C70.936 116.123 70.9386 116.459 70.5796 116.667L67.993 118.17L63.106 121.01C62.7474 121.218 62.1676 121.218 61.8064 121.01L59.2023 119.507C58.8437 119.299 58.8411 118.963 59.1997 118.755L64.0871 115.915L66.6737 114.412C67.0323 114.204 67.6117 114.204 67.9707 114.409L70.5748 115.915Z" fill="#CBCBF7"/>
<path d="M78.9159 111.823L77.7668 112.49L75.466 113.827L72.8794 115.33C72.5234 115.538 71.9436 115.538 71.5824 115.327L68.9783 113.825C68.7977 113.719 68.7074 113.584 68.7074 113.446L68.7048 114.191C68.7048 114.326 68.7951 114.464 68.9757 114.57L71.5801 116.073C71.9414 116.281 72.5208 116.281 72.8772 116.075L75.4637 114.572L77.7642 113.235L78.9133 112.568C79.0913 112.465 79.1816 112.329 79.1816 112.194L79.1842 111.449C79.1842 111.584 79.0939 111.72 78.9159 111.823Z" fill="#9689E8"/>
<path d="M78.9133 111.07C79.2745 111.278 79.2771 111.614 78.9181 111.823L77.7694 112.49L75.4686 113.827L72.882 115.33C72.526 115.538 71.9462 115.538 71.585 115.327L68.9809 113.825C68.6223 113.616 68.6197 113.28 68.9761 113.074L71.5623 111.572L73.8631 110.235L75.0122 109.567C75.3708 109.359 75.9502 109.359 76.3092 109.564L78.9133 111.07Z" fill="#CBCBF7"/>
<path d="M101.344 98.7889L81.2186 110.485C80.8622 110.693 80.2828 110.693 79.9216 110.482L77.3175 108.98C77.1369 108.874 77.0466 108.739 77.0466 108.601L77.044 109.346C77.044 109.481 77.1343 109.619 77.3149 109.725L79.919 111.228C80.2802 111.436 80.8599 111.436 81.216 111.23L101.342 99.534C101.52 99.4311 101.608 99.2958 101.608 99.1602L101.61 98.415C101.61 98.5507 101.52 98.686 101.344 98.7889Z" fill="#9689E8"/>
<path d="M101.34 98.0363C101.701 98.2444 101.701 98.583 101.345 98.7888L81.2189 110.485C80.8628 110.693 80.2831 110.693 79.9219 110.482L77.3178 108.979C76.9592 108.771 76.9566 108.435 77.3126 108.229L97.4382 96.5334C97.7946 96.3252 98.3766 96.3252 98.7353 96.5308L101.34 98.0363Z" fill="#CBCBF7"/>
<path d="M109.681 93.9443L107.094 95.4472L106.232 95.9489L103.645 97.4518C103.289 97.6574 102.707 97.6599 102.345 97.4518L99.7413 95.9489C99.5607 95.846 99.4729 95.7081 99.4729 95.5728L99.4704 96.3179C99.4704 96.4532 99.5607 96.5911 99.7387 96.6941L102.343 98.1969C102.704 98.4051 103.286 98.4051 103.643 98.1969L106.229 96.6941L107.092 96.1923L109.679 94.6895C109.857 94.5869 109.945 94.4512 109.945 94.3159L109.947 93.5708C109.947 93.7061 109.859 93.8417 109.681 93.9443Z" fill="#9689E8"/>
<path d="M109.676 93.1888C110.037 93.3972 110.037 93.7358 109.681 93.9417L107.095 95.4442L106.232 95.9459L103.645 97.4488C103.289 97.6569 102.707 97.6569 102.345 97.4488L99.7413 95.9459C99.3826 95.7378 99.3826 95.4018 99.739 95.1934L102.325 93.6908L103.189 93.1888L105.775 91.6862C106.131 91.4781 106.713 91.4781 107.072 91.6836L109.676 93.1888Z" fill="#CBCBF7"/>
<path d="M104.46 84.5162C104.822 84.7246 104.824 85.0606 104.466 85.2691L99.0036 88.4425C98.6449 88.6509 98.0656 88.6509 97.7043 88.4425L95.0999 86.9399C94.7413 86.7315 94.7387 86.3955 95.0977 86.187L100.559 83.0136C100.918 82.8051 101.498 82.8051 101.856 83.011L104.46 84.5162Z" fill="#CBCBF7"/>
<path d="M104.463 85.2689L99.0013 88.4423C98.6424 88.6504 98.063 88.6504 97.7017 88.4423L95.0973 86.9394C94.9167 86.8368 94.8264 86.6986 94.8264 86.5633L94.8241 87.3084C94.8241 87.4437 94.9145 87.582 95.0951 87.6846L97.6991 89.1874C98.0604 89.3956 98.6398 89.3956 98.9987 89.1874L104.46 86.014C104.638 85.9111 104.729 85.7755 104.729 85.6401L104.731 84.895C104.731 85.0303 104.641 85.1659 104.463 85.2689Z" fill="#9689E8"/>
<path d="M109.348 81.6767C109.709 81.8848 109.712 82.2211 109.353 82.4292L106.766 83.9318C106.41 84.1377 105.83 84.1377 105.469 83.9295L101.5 81.6388C101.237 81.486 100.805 81.486 100.542 81.6388L96.7763 83.8266C96.4199 84.0347 95.8379 84.0347 95.4793 83.8292L92.8749 82.3263C92.5137 82.1182 92.5137 81.7793 92.87 81.5737L95.4566 80.0708L97.7571 78.7337L100.344 77.2308C100.702 77.0227 101.282 77.0227 101.643 77.2308L104.247 78.7337L106.741 80.1738L109.348 81.6767Z" fill="#CBCBF7"/>
<path d="M109.35 82.429L106.764 83.9315C106.407 84.14 105.828 84.14 105.467 83.9292L101.498 81.6385C101.234 81.4857 100.803 81.4857 100.539 81.6385L96.7763 83.8263C96.4199 84.0344 95.8379 84.0344 95.479 83.8289L92.8749 82.326C92.6943 82.2208 92.604 82.0852 92.604 81.9473L92.6014 82.6924C92.6014 82.8303 92.6917 82.9656 92.8726 83.0712L95.4767 84.574C95.8353 84.7796 96.4173 84.7796 96.7737 84.5714L100.539 82.3836C100.803 82.2309 101.234 82.2309 101.498 82.3836L105.467 84.6744C105.828 84.8825 106.407 84.8825 106.764 84.6766L109.35 83.1741C109.528 83.0711 109.619 82.9355 109.619 82.8002L109.621 82.0551C109.619 82.1907 109.528 82.326 109.35 82.429Z" fill="#9689E8"/>
<path d="M107.433 74.6595L104.847 76.1624C104.488 76.3705 103.908 76.3705 103.547 76.1624L102.245 75.4095C102.064 75.3069 101.974 75.1687 101.974 75.0334L101.972 75.7785C101.972 75.9138 102.062 76.052 102.243 76.1546L103.545 76.9075C103.906 77.1156 104.486 77.1156 104.844 76.9075L107.431 75.4046C107.609 75.3017 107.697 75.1664 107.697 75.0308L107.699 74.2856C107.699 74.4213 107.611 74.5566 107.433 74.6595Z" fill="#9689E8"/>
<path d="M107.431 73.9068C107.792 74.1149 107.792 74.4535 107.436 74.6594L104.849 76.1623C104.491 76.3704 103.911 76.3704 103.55 76.1623L102.248 75.4094C101.889 75.2012 101.886 74.8652 102.245 74.6568L104.832 73.1542C105.188 72.9484 105.77 72.9458 106.129 73.1516L107.431 73.9068Z" fill="#CBCBF7"/>
<path d="M112.323 71.8197L109.736 73.3225C109.377 73.5307 108.798 73.5307 108.437 73.3225L107.135 72.57C106.954 72.467 106.864 72.3291 106.864 72.1935L106.861 72.9386C106.861 73.0739 106.951 73.2122 107.132 73.3151L108.434 74.0677C108.795 74.2758 109.375 74.2758 109.734 74.0677L112.32 72.5648C112.498 72.4619 112.586 72.3266 112.586 72.1909L112.589 71.4458C112.589 71.5814 112.498 71.7167 112.323 71.8197Z" fill="#9689E8"/>
<path d="M112.318 71.0665C112.679 71.2746 112.679 71.6135 112.323 71.819L109.736 73.3219C109.377 73.5301 108.798 73.5301 108.437 73.3219L107.135 72.5693C106.776 72.3609 106.773 72.0249 107.132 71.8164L109.719 70.3139C110.075 70.1054 110.657 70.1054 111.016 70.3113L112.318 71.0665Z" fill="#CBCBF7"/>
<path d="M117.21 68.9795L114.623 70.4824C114.265 70.6905 113.685 70.6905 113.324 70.4824L112.022 69.7298C111.841 69.6269 111.751 69.489 111.751 69.3534L111.748 70.0985C111.748 70.2341 111.839 70.372 112.019 70.4749L113.321 71.2275C113.683 71.4356 114.262 71.4356 114.621 71.2275L117.207 69.7246C117.386 69.622 117.474 69.4864 117.474 69.3511L117.476 68.606C117.476 68.7413 117.388 68.8743 117.21 68.9795Z" fill="#9689E8"/>
<path d="M117.205 68.2244C117.566 68.4329 117.566 68.7714 117.21 68.9773L114.623 70.4799C114.265 70.6883 113.685 70.6883 113.324 70.4799L112.022 69.7273C111.663 69.5217 111.661 69.1828 112.019 68.9747L114.606 67.4718C114.962 67.2663 115.544 67.2637 115.903 67.4696L117.205 68.2244Z" fill="#CBCBF7"/>
<path d="M113.374 66.7645L110.787 68.267C110.428 68.4755 109.849 68.4755 109.488 68.267L108.186 67.5145C108.005 67.4115 107.915 67.2736 107.915 67.138L107.912 67.8831C107.912 68.0188 108.002 68.1567 108.183 68.2596L109.485 69.0122C109.847 69.2203 110.426 69.2203 110.785 69.0122L113.371 67.5096C113.549 67.4067 113.637 67.2711 113.637 67.1358L113.64 66.3906C113.64 66.5259 113.552 66.6616 113.374 66.7645Z" fill="#9689E8"/>
<path d="M113.371 66.0115C113.733 66.22 113.733 66.5586 113.376 66.7644L110.79 68.267C110.431 68.4754 109.852 68.4754 109.49 68.267L108.188 67.5144C107.83 67.3063 107.827 66.97 108.186 66.7618L110.772 65.259C111.129 65.0508 111.711 65.0508 112.069 65.2564L113.371 66.0115Z" fill="#CBCBF7"/>
<path d="M108.487 69.604L105.9 71.1069C105.542 71.315 104.962 71.315 104.601 71.1069L103.299 70.3543C103.118 70.2514 103.028 70.1135 103.028 69.9779L103.025 70.723C103.025 70.8586 103.116 70.9965 103.296 71.0994L104.598 71.852C104.959 72.0601 105.539 72.0601 105.898 71.852L108.484 70.3491C108.662 70.2465 108.75 70.1109 108.75 69.9756L108.753 69.2305C108.753 69.3658 108.665 69.5014 108.487 69.604Z" fill="#9689E8"/>
<path d="M108.482 68.8514C108.843 69.0598 108.843 69.3984 108.487 69.604L105.901 71.1068C105.542 71.315 104.962 71.315 104.601 71.1068L103.299 70.3543C102.94 70.1484 102.938 69.8098 103.297 69.6017L105.883 68.0988C106.239 67.8907 106.821 67.8907 107.18 68.0962L108.482 68.8514Z" fill="#CBCBF7"/>
<path d="M103.597 72.4442L101.01 73.9471C100.652 74.1552 100.072 74.1552 99.7112 73.9471L98.409 73.1945C98.2284 73.0915 98.1381 72.9533 98.1381 72.818L98.1355 73.5632C98.1355 73.6985 98.2258 73.8367 98.4064 73.9393L99.7086 74.6922C100.07 74.9003 100.649 74.9003 101.008 74.6922L103.595 73.1893C103.773 73.0864 103.861 72.9511 103.861 72.8154L103.863 72.0703C103.866 72.2059 103.775 72.3412 103.597 72.4442Z" fill="#9689E8"/>
<path d="M103.595 71.6913C103.956 71.8995 103.956 72.2384 103.6 72.4439L101.013 73.9468C100.655 74.1549 100.075 74.1549 99.7138 73.9468L98.4119 73.1942C98.0529 72.9858 98.0507 72.6498 98.4093 72.4413L100.996 70.9388C101.352 70.7303 101.934 70.7306 102.293 70.9362L103.595 71.6913Z" fill="#CBCBF7"/>
<path d="M50.2753 104.943L47.6888 106.446C47.3327 106.654 46.7504 106.654 46.3891 106.446L43.7851 104.943C43.6045 104.837 43.5142 104.702 43.5142 104.564L43.5116 105.309C43.5116 105.447 43.602 105.583 43.7826 105.688L46.3869 107.191C46.7481 107.399 47.3301 107.399 47.6862 107.191L50.2727 105.688C50.4511 105.585 50.5414 105.45 50.5414 105.314L50.5437 104.569C50.5414 104.704 50.4534 104.84 50.2753 104.943Z" fill="#9689E8"/>
<path d="M50.2702 104.191C50.6314 104.399 50.634 104.735 50.275 104.943L47.6884 106.446C47.3324 106.654 46.7501 106.654 46.3888 106.446L43.7848 104.943C43.4236 104.735 43.4236 104.397 43.7798 104.191L46.3665 102.688C46.7251 102.48 47.3045 102.48 47.6658 102.688L50.2702 104.191Z" fill="#CBCBF7"/>
<path d="M55.1624 102.103L52.5758 103.606C52.2194 103.814 51.6374 103.814 51.2762 103.606L48.6721 102.103C48.4915 101.998 48.4012 101.862 48.4012 101.724L48.3986 102.469C48.3986 102.607 48.4889 102.743 48.6695 102.848L51.2736 104.351C51.6348 104.559 52.2168 104.559 52.5732 104.351L55.1598 102.848C55.3378 102.745 55.4281 102.61 55.4281 102.474L55.4307 101.729C55.4281 101.865 55.3404 102 55.1624 102.103Z" fill="#9689E8"/>
<path d="M55.1572 101.35C55.5184 101.558 55.521 101.894 55.1624 102.103L52.5758 103.605C52.2194 103.814 51.6374 103.814 51.2762 103.605L48.6721 102.103C48.3109 101.894 48.3109 101.556 48.6669 101.35L51.2535 99.8473C51.6125 99.6388 52.1919 99.6388 52.5531 99.8473L55.1572 101.35Z" fill="#CBCBF7"/>
<path d="M60.0494 99.263L57.4628 100.766C57.1068 100.974 56.5248 100.974 56.1635 100.766L53.5592 99.263C53.3785 99.1578 53.2882 99.0222 53.2882 98.8843L53.286 99.6294C53.286 99.7673 53.3763 99.9026 53.5569 100.008L56.161 101.511C56.5222 101.719 57.1042 101.719 57.4606 101.511L60.0472 100.008C60.2252 99.9052 60.3155 99.7699 60.3155 99.6343L60.3181 98.8891C60.3155 99.0248 60.2278 99.1601 60.0494 99.263Z" fill="#9689E8"/>
<path d="M60.0449 98.5101C60.4061 98.7182 60.4087 99.0545 60.0497 99.2626L57.4632 100.766C57.1071 100.974 56.5251 100.974 56.1639 100.766L53.5595 99.2626C53.1982 99.0545 53.1982 98.7156 53.5546 98.5101L56.1412 97.0072C56.4999 96.799 57.0796 96.799 57.4408 97.0072L60.0449 98.5101Z" fill="#CBCBF7"/>
<path d="M64.9368 96.4232L62.3502 97.926C61.9938 98.1342 61.4118 98.1342 61.0506 97.926L58.4465 96.4232C58.2659 96.318 58.1756 96.1823 58.1756 96.0444L58.173 96.7896C58.173 96.9275 58.2633 97.0631 58.4439 97.1683L61.048 98.6712C61.4095 98.8793 61.9915 98.8793 62.3476 98.6712L64.9342 97.1683C65.1125 97.0653 65.2028 96.93 65.2028 96.7944L65.2051 96.0493C65.2051 96.1849 65.1148 96.3202 64.9368 96.4232Z" fill="#9689E8"/>
<path d="M64.9322 95.6702C65.2935 95.8783 65.2957 96.2147 64.9371 96.4228L62.3505 97.9257C61.9941 98.1312 61.4121 98.1338 61.0509 97.9257L58.4468 96.4228C58.0856 96.2147 58.0856 95.8758 58.442 95.6702L61.0282 94.1673C61.3872 93.9592 61.9666 93.9592 62.3278 94.1673L64.9322 95.6702Z" fill="#CBCBF7"/>
<path d="M69.8241 93.5833L67.2375 95.0862C66.8812 95.2943 66.2992 95.2943 65.9379 95.0862L63.3339 93.5833C63.1533 93.4781 63.0629 93.3425 63.0629 93.2046L63.0604 93.9497C63.0604 94.0876 63.1507 94.2232 63.3313 94.3284L65.9354 95.8313C66.2966 96.0394 66.8786 96.0394 67.235 95.8313L69.8215 94.3284C69.9996 94.2258 70.0899 94.0902 70.0899 93.9546L70.0925 93.2094C70.0925 93.3451 70.0022 93.4807 69.8241 93.5833Z" fill="#9689E8"/>
<path d="M69.8216 92.8303C70.1828 93.0387 70.1854 93.3747 69.8264 93.5829L67.2401 95.0857C66.8838 95.2939 66.3018 95.2939 65.9405 95.0857L63.3361 93.5829C62.9749 93.3747 62.9749 93.0362 63.3313 92.8303L65.9179 91.3277C66.2765 91.1193 66.8562 91.1193 67.2175 91.3277L69.8216 92.8303Z" fill="#CBCBF7"/>
<path d="M74.7112 90.7438L72.1246 92.2463C71.7685 92.4545 71.1865 92.4545 70.825 92.2463L68.2209 90.7438C68.0403 90.6383 67.95 90.5026 67.95 90.3647L67.9474 91.1099C67.9474 91.2478 68.0377 91.3834 68.2186 91.4886L70.8227 92.9915C71.1839 93.1996 71.7659 93.1996 72.1223 92.9915L74.7089 91.4886C74.8869 91.386 74.9772 91.2504 74.9772 91.1151L74.9798 90.3699C74.9798 90.5026 74.8895 90.6383 74.7112 90.7438Z" fill="#9689E8"/>
<path d="M74.7086 89.9886C75.0698 90.1967 75.0721 90.533 74.7134 90.7411L72.1268 92.2437C71.7708 92.4522 71.1885 92.4522 70.8272 92.2437L68.2232 90.7411C67.8619 90.533 67.8619 90.1941 68.2183 89.9886L70.8049 88.4857C71.1635 88.2776 71.7429 88.2776 72.1042 88.4857L74.7086 89.9886Z" fill="#CBCBF7"/>
<path d="M79.6008 87.9012L77.0142 89.4041C76.6578 89.6122 76.0758 89.6122 75.7146 89.4041L73.1105 87.9012C72.9299 87.7957 72.8396 87.6604 72.8396 87.5225L72.837 88.2676C72.837 88.4055 72.9273 88.5408 73.1079 88.6463L75.712 90.1492C76.0733 90.3573 76.6552 90.3573 77.0116 90.1492L79.5982 88.6463C79.7762 88.5434 79.8665 88.4081 79.8665 88.2725L79.8691 87.5273C79.8665 87.6629 79.7788 87.7982 79.6008 87.9012Z" fill="#9689E8"/>
<path d="M79.5959 87.1477C79.9572 87.3559 79.9597 87.6922 79.6011 87.9003L77.0145 89.4032C76.6581 89.6113 76.0761 89.6113 75.7149 89.4032L73.1108 87.9003C72.7496 87.6922 72.7496 87.3533 73.1057 87.1477L75.6922 85.6449C76.0512 85.4367 76.6306 85.4367 76.9919 85.6449L79.5959 87.1477Z" fill="#CBCBF7"/>
<path d="M84.4878 85.0604L81.9012 86.5632C81.5452 86.7714 80.9632 86.7714 80.6019 86.5632L77.9976 85.0604C77.8169 84.9552 77.7266 84.8195 77.7266 84.6816L77.7244 85.4268C77.7244 85.5647 77.8147 85.7003 77.9953 85.8055L80.5994 87.3084C80.9606 87.5165 81.5426 87.5165 81.899 87.3084L84.4856 85.8055C84.6636 85.7029 84.7539 85.5673 84.7539 85.4316L84.7565 84.6868C84.7539 84.8221 84.6662 84.9577 84.4878 85.0604Z" fill="#9689E8"/>
<path d="M84.4826 84.3079C84.8439 84.516 84.8465 84.8523 84.4875 85.0605L81.9009 86.5634C81.5449 86.7715 80.9629 86.7715 80.6016 86.5634L77.9972 85.0605C77.636 84.8523 77.636 84.5138 77.9924 84.3079L80.579 82.805C80.9376 82.5969 81.5173 82.5969 81.8786 82.805L84.4826 84.3079Z" fill="#CBCBF7"/>
<path d="M89.3749 82.2208L86.7883 83.7234C86.4319 83.9318 85.8499 83.9318 85.4887 83.7234L82.8846 82.2208C82.704 82.1153 82.6137 81.98 82.6137 81.8418L82.6111 82.5869C82.6111 82.7251 82.7014 82.8604 82.882 82.966L85.4861 84.4685C85.8476 84.677 86.4296 84.677 86.7857 84.4685L89.3723 82.966C89.5506 82.863 89.6409 82.7274 89.6409 82.5921L89.6432 81.847C89.6432 81.9823 89.5529 82.1179 89.3749 82.2208Z" fill="#9689E8"/>
<path d="M89.37 81.468C89.7312 81.6764 89.7335 82.0124 89.3749 82.2206L86.7883 83.7234C86.4322 83.9316 85.8499 83.9316 85.4887 83.7234L82.8846 82.2206C82.5234 82.0124 82.5234 81.6738 82.8797 81.468L85.4663 79.9654C85.825 79.757 86.4044 79.757 86.7656 79.9654L89.37 81.468Z" fill="#CBCBF7"/>
<path d="M94.2645 79.3807L91.6782 80.8836C91.3218 81.0917 90.7399 81.0917 90.3786 80.8836L87.7742 79.3807C87.5936 79.2751 87.5033 79.1398 87.5033 79.002L87.501 79.7468C87.501 79.885 87.5913 80.0203 87.772 80.1258L90.376 81.6284C90.7373 81.8368 91.3193 81.8368 91.6756 81.6284L94.2622 80.1258C94.4403 80.0229 94.5306 79.8872 94.5306 79.7519L94.5331 79.0068C94.5306 79.1424 94.4428 79.2751 94.2645 79.3807Z" fill="#9689E8"/>
<path d="M94.26 78.6282C94.6212 78.8364 94.6238 79.1727 94.2648 79.3808L91.6786 80.8834C91.3222 81.0918 90.7402 81.0918 90.3789 80.8834L87.7746 79.3808C87.4133 79.1727 87.4133 78.8338 87.7697 78.6282L90.3563 77.1253C90.7149 76.9172 91.2947 76.9172 91.6559 77.1253L94.26 78.6282Z" fill="#CBCBF7"/>
<path d="M99.1518 76.5379L96.5652 78.0408C96.2092 78.2489 95.6269 78.2489 95.2656 78.0408L92.6616 76.5379C92.481 76.4327 92.3906 76.2971 92.3906 76.1592L92.3881 76.9043C92.3881 77.0422 92.4784 77.1778 92.659 77.283L95.2634 78.7859C95.6246 78.994 96.2066 78.994 96.5627 78.7859L99.1492 77.283C99.3276 77.1801 99.4179 77.0448 99.4179 76.9092L99.4202 76.164C99.4202 76.2997 99.3299 76.435 99.1518 76.5379Z" fill="#9689E8"/>
<path d="M99.147 75.7854C99.5082 75.9936 99.5108 76.3299 99.1518 76.538L96.5653 78.0409C96.2092 78.249 95.6269 78.249 95.2657 78.0409L92.6616 76.538C92.3003 76.3299 92.3003 75.9913 92.6567 75.7854L95.2433 74.2826C95.602 74.0744 96.1814 74.0744 96.5426 74.2826L99.147 75.7854Z" fill="#CBCBF7"/>
<path d="M60.5188 116.522L57.9322 118.024C57.5758 118.233 56.9938 118.233 56.6326 118.024L54.0285 116.522C53.8479 116.416 53.7576 116.281 53.7576 116.143L53.755 116.888C53.755 117.026 53.8453 117.161 54.0259 117.267L56.63 118.769C56.9912 118.978 57.5732 118.978 57.9296 118.769L60.5162 117.267C60.6942 117.164 60.7845 117.028 60.7845 116.893L60.7871 116.148C60.7871 116.283 60.6968 116.419 60.5188 116.522Z" fill="#9689E8"/>
<path d="M60.5133 115.769C60.8745 115.977 60.8771 116.313 60.5184 116.521L57.9319 118.024C57.5755 118.232 56.9935 118.232 56.6322 118.024L54.0282 116.521C53.6669 116.313 53.667 115.974 54.023 115.769L56.6096 114.266C56.9682 114.058 57.548 114.058 57.9092 114.266L60.5133 115.769Z" fill="#CBCBF7"/>
<path d="M65.4084 113.681L62.8218 115.184C62.4654 115.392 61.8834 115.392 61.5222 115.184L58.9181 113.681C58.7375 113.576 58.6472 113.441 58.6472 113.303L58.6446 114.048C58.6446 114.186 58.7349 114.321 58.9155 114.427L61.5196 115.929C61.8812 116.138 62.4632 116.138 62.8192 115.929L65.4058 114.427C65.5842 114.324 65.6745 114.188 65.6745 114.053L65.6767 113.308C65.6745 113.443 65.5864 113.579 65.4084 113.681Z" fill="#9689E8"/>
<path d="M65.4039 112.929C65.7651 113.137 65.7674 113.473 65.4087 113.681L62.8221 115.184C62.4661 115.392 61.8837 115.392 61.5225 115.184L58.9184 113.681C58.5572 113.473 58.5572 113.134 58.9136 112.929L61.5002 111.426C61.8588 111.217 62.4382 111.217 62.7995 111.426L65.4039 112.929Z" fill="#CBCBF7"/>
<path d="M70.2957 110.842L67.7092 112.344C67.3528 112.553 66.7708 112.553 66.4096 112.344L63.8055 110.842C63.6249 110.736 63.5346 110.601 63.5346 110.463L63.532 111.208C63.532 111.346 63.6223 111.482 63.8029 111.587L66.407 113.09C66.7682 113.298 67.3502 113.298 67.7066 113.09L70.2932 111.587C70.4712 111.484 70.5615 111.349 70.5615 111.213L70.5641 110.468C70.5615 110.603 70.4738 110.739 70.2957 110.842Z" fill="#9689E8"/>
<path d="M70.2906 110.089C70.6518 110.297 70.6544 110.633 70.2957 110.841L67.7092 112.344C67.3528 112.552 66.7708 112.552 66.4095 112.344L63.8055 110.841C63.4442 110.633 63.4442 110.295 63.8003 110.089L66.3869 108.586C66.7459 108.378 67.3253 108.378 67.6865 108.586L70.2906 110.089Z" fill="#CBCBF7"/>
<path d="M75.1824 108.001L72.5959 109.504C72.2398 109.712 71.6578 109.712 71.2966 109.504L68.6922 108.001C68.5116 107.896 68.4213 107.76 68.4213 107.622L68.4187 108.367C68.4187 108.505 68.5093 108.641 68.6899 108.746L71.294 110.249C71.6552 110.457 72.2372 110.457 72.5936 110.249L75.1802 108.746C75.3582 108.643 75.4485 108.508 75.4485 108.372L75.4511 107.627C75.4511 107.763 75.3608 107.896 75.1824 108.001Z" fill="#9689E8"/>
<path d="M75.1776 107.246C75.5388 107.454 75.5414 107.79 75.1824 107.998L72.5959 109.501C72.2398 109.709 71.6578 109.709 71.2966 109.501L68.6922 107.998C68.331 107.79 68.331 107.451 68.6873 107.246L71.2739 105.743C71.6326 105.535 72.2123 105.535 72.5735 105.743L75.1776 107.246Z" fill="#CBCBF7"/>
<path d="M80.0698 105.161L77.4832 106.664C77.1268 106.872 76.5448 106.872 76.1836 106.664L73.5795 105.161C73.3989 105.056 73.3086 104.92 73.3086 104.782L73.306 105.527C73.306 105.666 73.3963 105.801 73.577 105.906L76.181 107.409C76.5423 107.617 77.1246 107.617 77.4806 107.409L80.0672 105.906C80.2452 105.803 80.3359 105.668 80.3359 105.533L80.3381 104.787C80.3381 104.92 80.2478 105.056 80.0698 105.161Z" fill="#9689E8"/>
<path d="M80.0649 104.406C80.4262 104.614 80.4285 104.95 80.0698 105.159L77.4832 106.662C77.1268 106.87 76.5448 106.87 76.1836 106.662L73.5795 105.159C73.2183 104.95 73.2183 104.612 73.5744 104.406L76.161 102.903C76.5199 102.695 77.0993 102.695 77.4606 102.903L80.0649 104.406Z" fill="#CBCBF7"/>
<path d="M84.9572 102.319L82.3706 103.822C82.0142 104.03 81.4322 104.03 81.071 103.822L78.4669 102.319C78.2863 102.214 78.196 102.078 78.196 101.94L78.1934 102.686C78.1934 102.823 78.2837 102.959 78.4643 103.064L81.0684 104.567C81.4296 104.775 82.0116 104.775 82.368 104.567L84.9546 103.064C85.1326 102.961 85.2229 102.826 85.2229 102.69L85.2255 101.945C85.2255 102.081 85.1352 102.216 84.9572 102.319Z" fill="#9689E8"/>
<path d="M84.9546 101.566C85.3158 101.774 85.3184 102.111 84.9594 102.319L82.3729 103.822C82.0168 104.027 81.4348 104.03 81.0736 103.822L78.4692 102.319C78.1079 102.111 78.1079 101.772 78.4643 101.566L81.0509 100.063C81.4096 99.8552 81.9893 99.8552 82.3505 100.063L84.9546 101.566Z" fill="#CBCBF7"/>
<path d="M89.8465 99.4786L87.2599 100.981C86.9038 101.19 86.3215 101.19 85.9603 100.981L83.3562 99.4786C83.1756 99.3731 83.0853 99.2375 83.0853 99.0996L83.0827 99.8447C83.0827 99.9826 83.173 100.118 83.3536 100.224L85.9577 101.726C86.3193 101.934 86.9012 101.934 87.2573 101.726L89.8439 100.224C90.0222 100.121 90.1126 99.9852 90.1126 99.8499L90.1148 99.1048C90.1126 99.2401 90.0245 99.3757 89.8465 99.4786Z" fill="#9689E8"/>
<path d="M89.8413 98.7263C90.2025 98.9347 90.2048 99.2707 89.8461 99.4792L87.2596 100.982C86.9035 101.19 86.3212 101.19 85.96 100.982L83.3559 99.4792C82.9947 99.2707 82.9946 98.9321 83.351 98.7263L85.9376 97.2237C86.2963 97.0153 86.8757 97.0153 87.2369 97.2237L89.8413 98.7263Z" fill="#CBCBF7"/>
<path d="M94.7338 96.6388L92.1473 98.1414C91.7909 98.3498 91.2089 98.3498 90.8476 98.1414L88.2436 96.6388C88.063 96.5333 87.9727 96.398 87.9727 96.2598L87.9701 97.0049C87.9701 97.1431 88.0604 97.2784 88.241 97.3839L90.8451 98.8865C91.2063 99.0949 91.7883 99.0949 92.1447 98.8865L94.7312 97.3839C94.9093 97.281 94.9996 97.1454 94.9996 97.0101L95.0022 96.2649C94.9996 96.4002 94.9119 96.5359 94.7338 96.6388Z" fill="#9689E8"/>
<path d="M94.7287 95.8865C95.0899 96.0946 95.0925 96.4306 94.7338 96.6391L92.1472 98.1416C91.7909 98.3501 91.2089 98.3501 90.8476 98.1416L88.2436 96.6391C87.8823 96.4306 87.8823 96.0921 88.2384 95.8865L90.825 94.3836C91.184 94.1755 91.7634 94.1755 92.1246 94.3836L94.7287 95.8865Z" fill="#CBCBF7"/>
<path d="M99.6209 93.799L97.0343 95.3015C96.6782 95.51 96.0962 95.51 95.735 95.3015L93.1306 93.799C92.95 93.6934 92.8597 93.5581 92.8597 93.4199L92.8571 94.1651C92.8571 94.3033 92.9477 94.4386 93.1284 94.5441L95.7324 96.0467C96.0937 96.2551 96.6756 96.2551 97.032 96.0467L99.6186 94.5441C99.7966 94.4412 99.8869 94.3055 99.8869 94.1702L99.8895 93.4251C99.8869 93.5607 99.7992 93.696 99.6209 93.799Z" fill="#9689E8"/>
<path d="M99.616 93.0467C99.9772 93.2548 99.9798 93.5911 99.6209 93.7993L97.0343 95.3021C96.6782 95.5103 96.0962 95.5103 95.735 95.3021L93.1306 93.7993C92.7694 93.5911 92.7694 93.2522 93.1258 93.0467L95.7123 91.5438C96.071 91.3357 96.6507 91.3357 97.0119 91.5438L99.616 93.0467Z" fill="#CBCBF7"/>
<path d="M104.508 90.9588L101.922 92.4617C101.565 92.6698 100.983 92.6698 100.622 92.4617L98.018 90.9588C97.8374 90.8536 97.747 90.718 97.747 90.5801L97.7445 91.3252C97.7445 91.4631 97.8348 91.5987 98.0154 91.7039L100.619 93.2068C100.981 93.4149 101.563 93.4149 101.919 93.2068L104.506 91.7039C104.684 91.601 104.774 91.4657 104.774 91.3301L104.777 90.5849C104.777 90.7206 104.686 90.8536 104.508 90.9588Z" fill="#9689E8"/>
<path d="M104.506 90.2039C104.867 90.412 104.869 90.7483 104.511 90.9565L101.924 92.4594C101.568 92.6649 100.986 92.6675 100.625 92.4594L98.0206 90.9565C97.6593 90.7483 97.6593 90.4098 98.0154 90.2039L100.602 88.701C100.961 88.4929 101.54 88.4929 101.902 88.701L104.506 90.2039Z" fill="#CBCBF7"/>
<path d="M109.398 88.1163L106.811 89.6189C106.455 89.827 105.873 89.827 105.512 89.6189L102.907 88.1163C102.727 88.0108 102.636 87.8752 102.636 87.7373L102.634 88.4824C102.634 88.6203 102.724 88.7559 102.905 88.8611L105.509 90.364C105.87 90.5722 106.452 90.5722 106.809 90.364L109.395 88.8611C109.573 88.7585 109.664 88.6229 109.664 88.4876L109.666 87.7425C109.664 87.8778 109.576 88.0134 109.398 88.1163Z" fill="#9689E8"/>
<path d="M109.393 87.364C109.754 87.5724 109.757 87.9084 109.398 88.1166L106.811 89.6194C106.455 89.8276 105.873 89.8276 105.512 89.6194L102.907 88.1166C102.546 87.9084 102.546 87.5698 102.902 87.364L105.489 85.8614C105.848 85.653 106.427 85.653 106.789 85.8614L109.393 87.364Z" fill="#CBCBF7"/>
<path d="M114.285 85.2762L111.698 86.7791C111.342 86.9872 110.76 86.9872 110.399 86.7791L107.795 85.2762C107.614 85.1707 107.524 85.0354 107.524 84.8975L107.521 85.6423C107.521 85.7805 107.611 85.9158 107.792 86.0213L110.396 87.5239C110.758 87.7323 111.34 87.7323 111.696 87.5239L114.282 86.0213C114.461 85.9184 114.551 85.7827 114.551 85.6474L114.553 84.9023C114.553 85.0379 114.463 85.1732 114.285 85.2762Z" fill="#9689E8"/>
<path d="M114.28 84.5242C114.641 84.7323 114.644 85.0687 114.285 85.2768L111.698 86.7793C111.342 86.9878 110.76 86.9878 110.399 86.7793L107.795 85.2768C107.433 85.0687 107.433 84.7298 107.79 84.5242L110.376 83.0213C110.735 82.8132 111.314 82.8132 111.676 83.0213L114.28 84.5242Z" fill="#CBCBF7"/>
<path d="M114.571 91.1048L111.984 92.6077C111.628 92.8158 111.046 92.8158 110.685 92.6077L108.081 91.1048C107.9 90.9993 107.81 90.864 107.81 90.7261L107.807 91.4709C107.807 91.6091 107.898 91.7444 108.078 91.8499L110.682 93.3525C111.043 93.5609 111.626 93.5609 111.982 93.3525L114.568 91.8499C114.746 91.747 114.837 91.6114 114.837 91.4761L114.839 90.7309C114.837 90.8666 114.749 91.0019 114.571 91.1048Z" fill="#9689E8"/>
<path d="M114.566 90.3525C114.927 90.561 114.93 90.897 114.571 91.1054L111.984 92.608C111.628 92.8164 111.046 92.8164 110.685 92.608L108.081 91.1054C107.72 90.897 107.72 90.5584 108.076 90.3525L110.662 88.8499C111.021 88.6418 111.601 88.6418 111.962 88.8499L114.566 90.3525Z" fill="#CBCBF7"/>
<path d="M119.458 88.2649L116.872 89.7678C116.515 89.976 115.933 89.976 115.572 89.7678L112.968 88.2649C112.787 88.1594 112.697 88.0241 112.697 87.8862L112.695 88.6314C112.695 88.7693 112.785 88.9045 112.966 89.0101L115.57 90.513C115.931 90.7211 116.513 90.7211 116.869 90.513L119.456 89.0101C119.634 88.9071 119.724 88.7718 119.724 88.6362L119.727 87.8911C119.727 88.0241 119.636 88.1594 119.458 88.2649Z" fill="#9689E8"/>
<path d="M119.453 87.5091C119.814 87.7172 119.817 88.0535 119.458 88.2616L116.872 89.7645C116.515 89.9727 115.933 89.9727 115.572 89.7645L112.968 88.2616C112.607 88.0535 112.607 87.7149 112.963 87.5091L115.55 86.0062C115.908 85.7981 116.488 85.7981 116.849 86.0062L119.453 87.5091Z" fill="#CBCBF7"/>
<path d="M125.208 84.9227L122.621 86.4255C122.265 86.6337 121.683 86.6337 121.322 86.4255L118.718 84.9227C118.537 84.8171 118.447 84.6818 118.447 84.5439L118.444 85.2891C118.444 85.427 118.535 85.5623 118.715 85.6678L121.32 87.1707C121.681 87.3788 122.263 87.3788 122.619 87.1707L125.205 85.6678C125.384 85.5649 125.474 85.4296 125.474 85.2939L125.476 84.5488C125.474 84.6844 125.386 84.8197 125.208 84.9227Z" fill="#9689E8"/>
<path d="M125.203 84.1702C125.564 84.3783 125.567 84.7147 125.208 84.9228L122.621 86.4257C122.265 86.6338 121.683 86.6338 121.322 86.4257L118.718 84.9228C118.357 84.7147 118.357 84.3758 118.713 84.1702L121.3 82.6673C121.658 82.4592 122.238 82.4592 122.599 82.6673L125.203 84.1702Z" fill="#CBCBF7"/>
<path d="M130.095 82.0802L127.509 83.5828C127.152 83.7912 126.57 83.7912 126.209 83.5828L123.605 82.0802C123.425 81.9747 123.334 81.8394 123.334 81.7012L123.332 82.4463C123.332 82.5842 123.422 82.7198 123.603 82.8253L126.207 84.3279C126.568 84.5363 127.15 84.5363 127.506 84.3279L130.093 82.8253C130.271 82.7224 130.361 82.5868 130.361 82.4515L130.364 81.7063C130.364 81.8416 130.273 81.9773 130.095 82.0802Z" fill="#9689E8"/>
<path d="M130.093 81.3278C130.454 81.5363 130.457 81.8723 130.098 82.0807L127.511 83.5833C127.155 83.7918 126.573 83.7918 126.212 83.5833L123.608 82.0807C123.247 81.8723 123.247 81.5337 123.603 81.3278L126.189 79.8253C126.548 79.6168 127.128 79.6168 127.489 79.8253L130.093 81.3278Z" fill="#CBCBF7"/>
<path d="M134.985 79.2404L132.398 80.7429C132.042 80.9514 131.46 80.9514 131.099 80.7429L128.494 79.2404C128.314 79.1348 128.224 78.9995 128.224 78.8613L128.221 79.6065C128.221 79.7447 128.311 79.88 128.492 79.9855L131.096 81.488C131.457 81.6965 132.039 81.6965 132.396 81.488L134.982 79.9855C135.16 79.8826 135.251 79.7469 135.251 79.6116L135.253 78.8665C135.251 79.0018 135.163 79.1374 134.985 79.2404Z" fill="#9689E8"/>
<path d="M134.98 78.4881C135.341 78.6962 135.343 79.0322 134.984 79.2407L132.398 80.7432C132.042 80.9517 131.46 80.9517 131.099 80.7432L128.494 79.2407C128.133 79.0322 128.133 78.6936 128.489 78.4881L131.076 76.9852C131.435 76.7771 132.014 76.7771 132.375 76.9852L134.98 78.4881Z" fill="#CBCBF7"/>
<path d="M124.995 79.1375L122.408 80.6404C122.052 80.8485 121.47 80.8485 121.109 80.6404L118.504 79.1375C118.324 79.032 118.234 78.8967 118.234 78.7588L118.231 79.5039C118.231 79.6418 118.321 79.7771 118.502 79.8826L121.106 81.3855C121.468 81.5936 122.05 81.5936 122.406 81.3855L124.992 79.8826C125.17 79.7797 125.261 79.6444 125.261 79.5088L125.263 78.7636C125.263 78.8967 125.173 79.032 124.995 79.1375Z" fill="#9689E8"/>
<path d="M124.99 78.3826C125.351 78.5907 125.353 78.9271 124.994 79.1352L122.408 80.6381C122.052 80.8462 121.469 80.8462 121.108 80.6381L118.504 79.1352C118.143 78.9271 118.143 78.5885 118.499 78.3826L121.086 76.8797C121.445 76.6716 122.024 76.6716 122.385 76.8797L124.99 78.3826Z" fill="#CBCBF7"/>
<path d="M60.1174 105.13L57.5308 106.633C57.1747 106.842 56.5928 106.842 56.2315 106.633L53.6271 105.13C53.4465 105.025 53.3562 104.89 53.3562 104.751L53.3539 105.497C53.3539 105.635 53.4442 105.77 53.6249 105.876L56.2289 107.378C56.5902 107.587 57.1722 107.587 57.5285 107.378L60.1151 105.876C60.2932 105.773 60.3835 105.637 60.3835 105.502L60.386 104.757C60.386 104.892 60.2957 105.028 60.1174 105.13Z" fill="#9689E8"/>
<path d="M60.1151 104.379C60.4764 104.587 60.479 104.923 60.12 105.132L57.5334 106.634C57.1773 106.843 56.595 106.843 56.2338 106.634L53.6297 105.132C53.2685 104.923 53.2685 104.585 53.6249 104.379L56.2115 102.876C56.5701 102.668 57.1495 102.668 57.5107 102.876L60.1151 104.379Z" fill="#CBCBF7"/>
<path d="M65.007 102.291L62.4204 103.794C62.064 104.002 61.4821 104.002 61.1208 103.794L58.5168 102.291C58.3361 102.186 58.2458 102.05 58.2458 101.913L58.2432 102.658C58.2432 102.796 58.3336 102.931 58.5142 103.036L61.1182 104.539C61.4795 104.747 62.0618 104.747 62.4178 104.539L65.0044 103.036C65.1825 102.934 65.2728 102.798 65.2728 102.663L65.2754 101.917C65.2728 102.053 65.185 102.188 65.007 102.291Z" fill="#9689E8"/>
<path d="M65.0018 101.538C65.3631 101.747 65.3657 102.083 65.007 102.291L62.4204 103.794C62.064 103.999 61.4821 104.002 61.1208 103.794L58.5168 102.291C58.1555 102.083 58.1555 101.744 58.5116 101.538L61.0982 100.035C61.4571 99.8274 62.0365 99.8274 62.3978 100.035L65.0018 101.538Z" fill="#CBCBF7"/>
<path d="M69.8941 99.4505L67.3075 100.953C66.9514 101.162 66.3694 101.162 66.0082 100.953L63.4038 99.4505C63.2232 99.3453 63.1329 99.2097 63.1329 99.0718L63.1306 99.8169C63.1306 99.9548 63.2209 100.09 63.4015 100.196L66.0056 101.698C66.3668 101.907 66.9488 101.907 67.3052 101.698L69.8918 100.196C70.0698 100.093 70.1601 99.9574 70.1601 99.8218L70.1627 99.0766C70.1601 99.2123 70.0724 99.3476 69.8941 99.4505Z" fill="#9689E8"/>
<path d="M69.8895 98.6985C70.2508 98.9067 70.2533 99.243 69.8944 99.4511L67.3081 100.954C66.9517 101.162 66.3697 101.162 66.0085 100.954L63.4041 99.4511C63.0429 99.243 63.0429 98.9044 63.3993 98.6985L65.9858 97.1956C66.3445 96.9875 66.9242 96.9875 67.2854 97.1956L69.8895 98.6985Z" fill="#CBCBF7"/>
<path d="M74.7814 96.6107L72.1948 98.1135C71.8388 98.3217 71.2564 98.3217 70.8952 98.1135L68.2911 96.6107C68.1105 96.5055 68.0202 96.3698 68.0202 96.2319L68.0176 96.9771C68.0176 97.115 68.1079 97.2506 68.2885 97.3558L70.8929 98.8587C71.2542 99.0668 71.8362 99.0668 72.1922 98.8587L74.7788 97.3558C74.9572 97.2528 75.0475 97.1175 75.0475 96.9819L75.0497 96.2368C75.0475 96.3724 74.9594 96.5055 74.7814 96.6107Z" fill="#9689E8"/>
<path d="M74.7765 95.8557C75.1378 96.0641 75.14 96.4001 74.7814 96.6086L72.1948 98.1111C71.8388 98.3196 71.2564 98.3196 70.8952 98.1111L68.2911 96.6086C67.9299 96.4001 67.9299 96.0615 68.2863 95.8557L70.8729 94.3531C71.2315 94.1447 71.8109 94.1447 72.1722 94.3531L74.7765 95.8557Z" fill="#CBCBF7"/>
<path d="M79.6688 93.7711L77.0822 95.2737C76.7258 95.4821 76.1438 95.4821 75.7826 95.2737L73.1785 93.7711C72.9979 93.6656 72.9076 93.5303 72.9076 93.3921L72.905 94.1372C72.905 94.2754 72.9953 94.4107 73.1759 94.5163L75.78 96.0188C76.1412 96.2273 76.7232 96.2273 77.0796 96.0188L79.6662 94.5163C79.8442 94.4133 79.9345 94.2777 79.9345 94.1424L79.9371 93.3973C79.9371 93.5303 79.8468 93.6656 79.6688 93.7711Z" fill="#9689E8"/>
<path d="M79.6639 93.0159C80.0252 93.224 80.0277 93.5604 79.6691 93.7685L77.0825 95.2714C76.7261 95.4795 76.1441 95.4795 75.7829 95.2714L73.1788 93.7685C72.8176 93.5604 72.8176 93.2214 73.1737 93.0159L75.7602 91.513C76.1192 91.3049 76.6986 91.3049 77.0598 91.513L79.6639 93.0159Z" fill="#CBCBF7"/>
<path d="M84.5555 90.9285L81.9689 92.4314C81.6128 92.6395 81.0308 92.6395 80.6696 92.4314L78.0652 90.9285C77.8846 90.8233 77.7943 90.6877 77.7943 90.5498L77.792 91.2949C77.792 91.4328 77.8823 91.5685 78.063 91.6737L80.667 93.1765C81.0283 93.3847 81.6102 93.3847 81.9666 93.1765L84.5532 91.6737C84.7312 91.5707 84.8215 91.4354 84.8215 91.2998L84.8241 90.5547C84.8241 90.6903 84.7338 90.8256 84.5555 90.9285Z" fill="#9689E8"/>
<path d="M84.5532 90.1761C84.9145 90.3842 84.9171 90.7205 84.5581 90.9286L81.9715 92.4315C81.6154 92.6371 81.0335 92.6397 80.6719 92.4315L78.0678 90.9286C77.7066 90.7205 77.7066 90.3816 78.063 90.1761L80.6496 88.6732C81.0082 88.4651 81.5876 88.4651 81.9492 88.6732L84.5532 90.1761Z" fill="#CBCBF7"/>
<path d="M89.4422 88.0887L86.8556 89.5916C86.4992 89.7997 85.9172 89.7997 85.556 89.5916L82.9519 88.0887C82.7713 87.9835 82.681 87.8479 82.681 87.71L82.6784 88.4551C82.6784 88.593 82.7687 88.7286 82.9493 88.8338L85.5534 90.3367C85.915 90.5448 86.497 90.5448 86.853 90.3367L89.4396 88.8338C89.618 88.7312 89.7083 88.5956 89.7083 88.4599L89.7105 87.7148C89.7105 87.8504 89.6202 87.9861 89.4422 88.0887Z" fill="#9689E8"/>
<path d="M89.4396 87.3361C89.8008 87.5446 89.8034 87.8806 89.4448 88.0887L86.8582 89.5916C86.5018 89.7997 85.9198 89.7997 85.5586 89.5916L82.9545 88.0887C82.5933 87.8806 82.5933 87.542 82.9494 87.3361L85.5359 85.8336C85.8949 85.6251 86.4743 85.6251 86.8355 85.8336L89.4396 87.3361Z" fill="#CBCBF7"/>
<path d="M94.3325 85.2492L91.7459 86.7517C91.3898 86.9602 90.8078 86.9602 90.4466 86.7517L87.8422 85.2492C87.6616 85.1436 87.5713 85.0083 87.5713 84.8701L87.569 85.6152C87.569 85.7535 87.6593 85.8888 87.8399 85.9943L90.444 87.4968C90.8052 87.7053 91.3872 87.7053 91.7436 87.4968L94.3302 85.9943C94.5082 85.8914 94.5985 85.7557 94.5985 85.6204L94.6011 84.8753C94.5985 85.0106 94.5108 85.1462 94.3325 85.2492Z" fill="#9689E8"/>
<path d="M94.3279 84.4963C94.6892 84.7048 94.6918 85.0407 94.3328 85.2492L91.7465 86.7518C91.3902 86.9576 90.8082 86.9602 90.4469 86.7518L87.8425 85.2492C87.4813 85.0407 87.4813 84.7022 87.8377 84.4963L90.4243 82.9937C90.7829 82.7853 91.3626 82.7853 91.7239 82.9937L94.3279 84.4963Z" fill="#CBCBF7"/>
<path d="M62.4855 109.664L59.8989 111.167C59.5425 111.375 58.9605 111.375 58.5993 111.167L55.9952 109.664C55.8146 109.559 55.7243 109.424 55.7243 109.286L55.7217 110.031C55.7217 110.169 55.812 110.304 55.9926 110.409L58.5967 111.912C58.9579 112.121 59.5399 112.121 59.8963 111.912L62.4829 110.409C62.6609 110.307 62.7512 110.171 62.7512 110.036L62.7538 109.291C62.7538 109.426 62.6635 109.561 62.4855 109.664Z" fill="#9689E8"/>
<path d="M62.4829 108.912C62.8441 109.121 62.8467 109.457 62.4881 109.665L59.9015 111.168C59.5451 111.376 58.9631 111.376 58.6019 111.168L55.9978 109.665C55.6366 109.457 55.6366 109.118 55.9926 108.912L58.5792 107.41C58.9379 107.201 59.5176 107.201 59.8788 107.41L62.4829 108.912Z" fill="#CBCBF7"/>
<path d="M67.3754 106.825L64.7888 108.327C64.4328 108.536 63.8505 108.536 63.4892 108.327L60.8852 106.825C60.7046 106.719 60.6142 106.584 60.6142 106.446L60.6117 107.191C60.6117 107.329 60.702 107.464 60.8826 107.57L63.487 109.073C63.8482 109.281 64.4302 109.281 64.7863 109.073L67.3728 107.57C67.5512 107.467 67.6415 107.331 67.6415 107.196L67.6441 106.451C67.6415 106.586 67.5535 106.719 67.3754 106.825Z" fill="#9689E8"/>
<path d="M67.3709 106.071C67.7321 106.28 67.7347 106.616 67.3758 106.824L64.7892 108.327C64.4331 108.533 63.8511 108.535 63.4896 108.327L60.8855 106.824C60.5243 106.616 60.5243 106.277 60.8806 106.071L63.4672 104.569C63.8259 104.36 64.4053 104.36 64.7668 104.569L67.3709 106.071Z" fill="#CBCBF7"/>
<path d="M72.2625 103.985L69.6759 105.488C69.3195 105.696 68.7375 105.696 68.3763 105.488L65.7722 103.985C65.5916 103.879 65.5013 103.744 65.5013 103.606L65.4987 104.351C65.4987 104.489 65.589 104.625 65.7696 104.73L68.3737 106.233C68.7349 106.441 69.3172 106.441 69.6733 106.233L72.2599 104.73C72.4379 104.627 72.5282 104.492 72.5282 104.356L72.5308 103.611C72.5308 103.744 72.4405 103.879 72.2625 103.985Z" fill="#9689E8"/>
<path d="M72.2573 103.23C72.6185 103.438 72.6211 103.774 72.2625 103.982L69.6759 105.485C69.3195 105.693 68.7375 105.693 68.3763 105.485L65.7722 103.982C65.411 103.774 65.411 103.435 65.767 103.23L68.3536 101.727C68.7126 101.519 69.292 101.519 69.6532 101.727L72.2573 103.23Z" fill="#CBCBF7"/>
<path d="M77.1492 101.142L74.5629 102.645C74.2065 102.853 73.6245 102.853 73.2633 102.645L70.6589 101.142C70.4783 101.037 70.388 100.902 70.388 100.764L70.3857 101.509C70.3857 101.647 70.476 101.782 70.6567 101.888L73.2607 103.39C73.622 103.599 74.2039 103.599 74.5603 103.39L77.1469 101.888C77.3249 101.785 77.4152 101.649 77.4152 101.514L77.4178 100.769C77.4178 100.904 77.3275 101.039 77.1492 101.142Z" fill="#9689E8"/>
<path d="M77.1469 100.39C77.5082 100.598 77.5107 100.934 77.1518 101.143L74.5652 102.645C74.2091 102.854 73.6271 102.854 73.2659 102.645L70.6615 101.143C70.3003 100.934 70.3003 100.596 70.6567 100.39L73.2433 98.8871C73.6019 98.6789 74.1816 98.6789 74.5429 98.8871L77.1469 100.39Z" fill="#CBCBF7"/>
<path d="M82.0394 98.3025L79.4529 99.8054C79.0965 100.014 78.5145 100.014 78.1532 99.8054L75.5492 98.3025C75.3686 98.1973 75.2783 98.0617 75.2783 97.9238L75.2757 98.669C75.2757 98.8068 75.366 98.9425 75.5466 99.0477L78.1507 100.551C78.5119 100.759 79.0942 100.759 79.4503 100.551L82.0369 99.0477C82.2149 98.9451 82.3055 98.8094 82.3055 98.6741L82.3078 97.929C82.3052 98.0643 82.2175 98.1999 82.0394 98.3025Z" fill="#9689E8"/>
<path d="M82.0346 97.549C82.3962 97.7572 82.3984 98.0935 82.0398 98.3016L79.4532 99.8045C79.0968 100.013 78.5148 100.013 78.1536 99.8045L75.5495 98.3016C75.1883 98.0935 75.1883 97.7549 75.5443 97.549L78.1309 96.0465C78.4899 95.838 79.0693 95.838 79.4305 96.0465L82.0346 97.549Z" fill="#CBCBF7"/>
<path d="M86.9265 95.463L84.3399 96.9656C83.9835 97.174 83.4015 97.174 83.0403 96.9656L80.4362 95.463C80.2556 95.3575 80.1653 95.2222 80.1653 95.084L80.1627 95.8291C80.1627 95.9673 80.253 96.1026 80.4336 96.2081L83.0377 97.7107C83.3989 97.9192 83.9809 97.9192 84.3373 97.7107L86.9239 96.2081C87.1019 96.1052 87.1922 95.9696 87.1922 95.8343L87.1948 95.0892C87.1948 95.2245 87.1045 95.3601 86.9265 95.463Z" fill="#9689E8"/>
<path d="M86.921 94.7099C87.2822 94.9184 87.2848 95.2544 86.9262 95.4628L84.3396 96.9654C83.9832 97.1712 83.4012 97.1738 83.04 96.9654L80.4359 95.4628C80.0747 95.2544 80.0747 94.9158 80.4307 94.7099L83.0173 93.2074C83.376 92.9992 83.9557 92.9992 84.3169 93.2074L86.921 94.7099Z" fill="#CBCBF7"/>
<path d="M91.8132 92.6222L89.2266 94.1248C88.8706 94.3332 88.2886 94.3332 87.927 94.1248L85.323 92.6222C85.1423 92.5167 85.052 92.3814 85.052 92.2432L85.0494 92.9883C85.0494 93.1265 85.1397 93.2618 85.3204 93.3673L87.9248 94.8699C88.286 95.0783 88.868 95.0783 89.2244 94.8699L91.8106 93.3673C91.989 93.2644 92.0793 93.1288 92.0793 92.9935L92.0819 92.2483C92.0819 92.384 91.9916 92.5167 91.8132 92.6222Z" fill="#9689E8"/>
<path d="M91.8087 91.868C92.1699 92.0761 92.1725 92.4124 91.8135 92.6205L89.227 94.1234C88.8709 94.3316 88.2889 94.3316 87.9273 94.1234L85.3233 92.6205C84.962 92.4124 84.962 92.0735 85.3184 91.868L87.905 90.3651C88.2637 90.157 88.8431 90.157 89.2046 90.3651L91.8087 91.868Z" fill="#CBCBF7"/>
<path d="M96.7006 89.782L94.114 91.2849C93.7576 91.493 93.1756 91.493 92.8144 91.2849L90.2103 89.782C90.0297 89.6765 89.9394 89.5412 89.9394 89.4033L89.9368 90.1481C89.9368 90.2863 90.0271 90.4216 90.2077 90.5272L92.8118 92.03C93.173 92.2382 93.7553 92.2382 94.1114 92.03L96.698 90.5272C96.876 90.4242 96.9663 90.2889 96.9663 90.1533L96.9689 89.4082C96.9689 89.5412 96.8786 89.6765 96.7006 89.782Z" fill="#9689E8"/>
<path d="M96.698 89.0271C97.0592 89.2353 97.0618 89.5716 96.7031 89.7797L94.1166 91.2826C93.7602 91.4907 93.1782 91.4907 92.817 91.2826L90.2129 89.7797C89.8517 89.5716 89.8517 89.233 90.2077 89.0271L92.7943 87.5243C93.1533 87.3161 93.7327 87.3161 94.0939 87.5243L96.698 89.0271Z" fill="#CBCBF7"/>
<path d="M90.8852 3.50202C92.2926 2.68917 93.878 3.47443 94.4325 5.25066L110.92 58.2565C111.472 60.0329 110.782 62.1275 109.375 62.9406L34.1662 106.363C32.7613 107.173 31.1757 106.391 30.6238 104.617L14.136 51.6106C13.584 49.8345 14.274 47.7348 15.6789 46.9242L90.8852 3.50202Z" fill="#E0E0FF"/>
<path d="M91.0658 8.30908L106.964 59.4207L33.9906 101.554L18.0899 50.4419L91.0658 8.30908Z" fill="url(#paint2_linear_935_29107)"/>
<path d="M92.245 3.19143L90.4864 3.01079C90.0423 2.96564 89.5759 3.06097 89.1292 3.31938L13.9179 46.7441C12.513 47.5546 11.823 49.6544 12.375 51.4305L28.8628 104.437C29.2391 105.646 30.0971 106.396 31.0479 106.494L32.8066 106.674C31.8533 106.576 30.9978 105.829 30.6214 104.617L14.1361 51.6088C13.5842 49.8324 14.2741 47.7327 15.6791 46.9221L90.8852 3.50252C91.3345 3.24411 91.7986 3.14627 92.245 3.19143Z" fill="#9689E8"/>
<path d="M53.7449 25.9215C54.3871 25.5652 55.1074 25.924 55.353 26.7193C55.599 27.5146 55.2802 28.4503 54.638 28.8066C53.9984 29.1628 53.2759 28.8041 53.0299 28.0088C52.7842 27.211 53.1053 26.2752 53.7449 25.9215Z" fill="#666666"/>
<path d="M54.0062 26.761C54.2745 26.613 54.5729 26.761 54.6759 27.0947C54.7788 27.4258 54.6458 27.8147 54.3774 27.9652C54.1088 28.1132 53.8103 27.9652 53.7074 27.6315C53.6045 27.2979 53.7375 26.909 54.0062 26.761Z" fill="#2B2B2B"/>
<path d="M54.8287 25.9734C54.5127 25.7551 54.1162 25.715 53.7449 25.9207C53.1053 26.2769 52.7842 27.2102 53.0299 28.008C53.1028 28.2464 53.2232 28.442 53.3685 28.5926L54.8287 25.9734Z" fill="#7A7A7A"/>
<path d="M64.9795 17.2705L37.3625 33.2139L39.061 33.4297L64.9795 18.4647V17.2705Z" fill="#9689E8"/>
<g opacity="0.7" filter="url(#filter1_f_935_29107)">
<path opacity="0.7" fill-rule="evenodd" clip-rule="evenodd" d="M35.1309 80.4255L35.1432 83.4461C35.1441 83.6701 35.1473 83.8896 35.1503 84.1045C35.1778 86.0408 35.2 87.5961 33.548 88.4533C31.7126 89.4055 29.9965 89.3994 29.9874 87.1585L27.5598 81.3321L28.2021 81.0557L20.9202 57.087L93.7171 15.54L102.32 42.8133L102.373 42.7858L102.374 42.9816L103.271 45.8268L102.387 46.2755L102.395 48.1519C102.404 50.3928 100.903 52.9946 99.068 53.9472C97.2405 54.8953 95.7311 53.9129 95.7088 51.6927V51.7225C95.7182 53.9634 94.2179 56.5652 92.3826 57.5175C90.5469 58.4701 89.0324 57.4747 89.023 55.2338L89.0143 53.0655L88.9489 53.0988L88.9576 55.2342C88.9667 57.4751 87.4667 60.0769 85.6311 61.0295C83.7958 61.9818 82.2809 60.9864 82.2719 58.7459L82.2628 56.494L82.1971 56.5273L82.2062 58.7462C82.2152 60.9871 80.7149 63.5889 78.8796 64.5412C77.0443 65.4938 75.5295 64.4984 75.5204 62.2575C75.5295 64.4984 74.0292 67.1006 72.1939 68.0528C70.3585 69.0051 68.8437 68.0101 68.8343 65.7692L68.8246 63.3173L68.7589 63.3506L68.7689 65.8285C68.778 68.0694 67.278 70.6715 65.4424 71.6238C63.6071 72.5761 62.0922 71.581 62.0831 69.3401C62.0922 71.581 60.5919 74.1828 58.7566 75.1355C56.9213 76.0877 55.4064 75.0924 55.3974 72.8518L55.3864 70.1406L55.3207 70.174L55.3317 72.8522C55.3407 75.0927 53.8404 77.6949 52.0051 78.6471C50.1698 79.5998 48.655 78.6044 48.6459 76.3635C48.655 78.6044 47.1547 81.2065 45.3194 82.1588C43.4839 83.1111 41.969 82.1161 41.9599 79.8752L41.9481 76.964L41.8828 76.9973L41.8945 79.8755C41.9036 82.1164 40.4034 84.7182 38.568 85.6705C36.7326 86.6231 35.2178 85.6278 35.2087 83.3869L35.1965 80.3921L35.1309 80.4255Z" fill="#624DE3" fill-opacity="0.2"/>
</g>
<path d="M36.8767 76.1888L25.022 72.6749L18.0453 49.8374L35.5497 66.294L36.8767 76.1888Z" fill="url(#paint3_linear_935_29107)"/>
<path d="M19.0836 49.3853L84.6594 11.5444L102.095 29.0419L36.4551 66.8175L19.0836 49.3853Z" fill="#35E1ED"/>
<path d="M91.217 7.72705L108.653 25.2245L102.03 29.1059L84.6594 11.5437L91.217 7.72705Z" fill="#A293FF"/>
<path d="M77.9076 15.4253L95.3437 32.9227L88.7214 36.7391L71.2853 19.2417L77.9076 15.4253Z" fill="#A293FF"/>
<path d="M64.5328 23.0571L82.0333 40.6198L75.411 44.4361L57.9749 26.8738L64.5328 23.0571Z" fill="#A293FF"/>
<path d="M51.2228 30.7554L68.7236 48.2529L62.1009 52.0695L44.6652 34.5069L51.2228 30.7554Z" fill="#A293FF"/>
<path d="M37.9129 38.3882L55.4136 55.9512L48.7912 59.7674L31.3552 42.2048L37.9129 38.3882Z" fill="#A293FF"/>
<path d="M24.6032 46.021L42.1038 63.584L35.4165 67.3999L18.0455 49.8376L24.6032 46.021Z" fill="#A293FF"/>
<path d="M102.031 29.1064L102.011 35.0275C102.002 37.5001 100.502 40.3579 98.6841 41.3928C96.8663 42.4276 95.3799 41.3164 95.3883 38.844L95.4084 32.9228L102.031 29.1064Z" fill="url(#paint4_linear_935_29107)"/>
<path d="M88.656 36.7393L88.6359 42.6602C88.6275 45.1328 87.1272 47.9906 85.3093 49.0255C83.4915 50.0603 82.0048 48.9491 82.0132 46.4768L82.0336 40.5555L88.656 36.7393Z" fill="url(#paint5_linear_935_29107)"/>
<path d="M75.3459 44.4365L75.3259 50.3574C75.3174 52.8301 73.8171 55.6879 71.9993 56.7227C70.1815 57.7576 68.6948 56.6463 68.7032 54.174L68.7236 48.2528L75.3459 44.4365Z" fill="url(#paint6_linear_935_29107)"/>
<path d="M62.0362 52.0693L62.0161 57.9906C62.0077 60.4629 60.5074 63.3207 58.6896 64.3555C56.8718 65.3907 55.3851 64.2795 55.3935 61.8068L55.4136 55.8856L62.0362 52.0693Z" fill="url(#paint7_linear_935_29107)"/>
<path d="M48.7265 59.7021L48.7061 65.6234C48.6977 68.0957 47.1977 70.9535 45.3799 71.9884C43.5619 73.0235 42.0753 71.9123 42.0838 69.4396L42.1039 63.5187L48.7265 59.7021Z" fill="url(#paint8_linear_935_29107)"/>
<path d="M108.653 25.2256L108.633 31.1466C108.625 33.6192 107.125 36.477 105.306 37.5118C103.489 38.5466 102.002 37.4354 102.011 34.963L102.031 29.042L108.653 25.2256Z" fill="url(#paint9_linear_935_29107)"/>
<path d="M95.3433 32.9229L95.3233 38.8438C95.3149 41.3165 93.8149 44.1743 91.9967 45.2091C90.1789 46.244 88.6922 45.1327 88.7006 42.6604L88.721 36.7392L95.3433 32.9229Z" fill="url(#paint10_linear_935_29107)"/>
<path d="M82.0333 40.5557L82.0132 46.4769C82.0048 48.9492 80.5045 51.807 78.6867 52.8419C76.8689 53.877 75.3822 52.7658 75.3906 50.2932L75.411 44.3723L82.0333 40.5557Z" fill="url(#paint11_linear_935_29107)"/>
<path d="M68.7239 48.2529L68.7039 54.1738C68.6954 56.6465 67.1951 59.5043 65.3773 60.5391C63.5595 61.574 62.0728 60.4627 62.0812 57.9901L62.1016 52.0692L68.7239 48.2529Z" fill="url(#paint12_linear_935_29107)"/>
<path d="M55.4139 55.8857L55.3938 61.8066C55.3854 64.2793 53.8851 67.1371 52.0673 68.172C50.2495 69.2068 48.7628 68.0956 48.7712 65.6229L48.7912 59.702L55.4139 55.8857Z" fill="url(#paint13_linear_935_29107)"/>
<path d="M42.039 63.583L42.0188 69.5039C42.0104 71.9765 40.5103 74.8344 38.6924 75.8692C36.8745 76.904 35.3879 75.7928 35.3963 73.3205L35.4165 67.3993L42.039 63.583Z" fill="url(#paint14_linear_935_29107)"/>
</g>
<defs>
<filter id="filter0_f_935_29107" x="30.5913" y="64.9168" width="128.044" height="78.2391" filterUnits="userSpaceOnUse" color-interpolation-filters="sRGB">
<feFlood flood-opacity="0" result="BackgroundImageFix"/>
<feBlend mode="normal" in="SourceGraphic" in2="BackgroundImageFix" result="shape"/>
<feGaussianBlur stdDeviation="1.29475" result="effect1_foregroundBlur_935_29107"/>
</filter>
<filter id="filter1_f_935_29107" x="18.3307" y="12.9505" width="87.5296" height="78.6937" filterUnits="userSpaceOnUse" color-interpolation-filters="sRGB">
<feFlood flood-opacity="0" result="BackgroundImageFix"/>
<feBlend mode="normal" in="SourceGraphic" in2="BackgroundImageFix" result="shape"/>
<feGaussianBlur stdDeviation="1.29475" result="effect1_foregroundBlur_935_29107"/>
</filter>
<linearGradient id="paint0_linear_935_29107" x1="-0.794135" y1="139.42" x2="158.85" y2="100.931" gradientUnits="userSpaceOnUse">
<stop stop-color="#D6E6FD"/>
<stop offset="1" stop-color="#D2E3FD"/>
</linearGradient>
<linearGradient id="paint1_linear_935_29107" x1="22.261" y1="123.693" x2="163.806" y2="66.4642" gradientUnits="userSpaceOnUse">
<stop stop-color="#624DE3"/>
<stop offset="1" stop-color="#382A8E"/>
</linearGradient>
<linearGradient id="paint2_linear_935_29107" x1="78.6767" y1="104.893" x2="28.2337" y2="58.2965" gradientUnits="userSpaceOnUse">
<stop stop-color="#BAB5F1"/>
<stop offset="0.5507" stop-color="#CFC8F9"/>
<stop offset="0.767" stop-color="#D9D3FD"/>
<stop offset="1" stop-color="#DDD7FF"/>
</linearGradient>
<linearGradient id="paint3_linear_935_29107" x1="-4.91485" y1="65.1906" x2="8.23764" y2="45.9554" gradientUnits="userSpaceOnUse">
<stop stop-color="#9F8FFF"/>
<stop offset="0.604167" stop-color="#6C5EC1"/>
<stop offset="1" stop-color="#7D6CDE"/>
</linearGradient>
<linearGradient id="paint4_linear_935_29107" x1="95.365" y1="44.5141" x2="88.3174" y2="36.3202" gradientUnits="userSpaceOnUse">
<stop stop-color="#35E1ED"/>
<stop offset="0.9999" stop-color="#2CB3BC"/>
<stop offset="1" stop-color="#7D6CDE"/>
</linearGradient>
<linearGradient id="paint5_linear_935_29107" x1="81.9903" y1="52.1468" x2="74.9426" y2="43.953" gradientUnits="userSpaceOnUse">
<stop stop-color="#35E1ED"/>
<stop offset="0.9999" stop-color="#2CB3BC"/>
<stop offset="1" stop-color="#7D6CDE"/>
</linearGradient>
<linearGradient id="paint6_linear_935_29107" x1="68.6802" y1="59.8441" x2="61.6326" y2="51.6502" gradientUnits="userSpaceOnUse">
<stop stop-color="#35E1ED"/>
<stop offset="0.9999" stop-color="#2CB3BC"/>
<stop offset="1" stop-color="#7D6CDE"/>
</linearGradient>
<linearGradient id="paint7_linear_935_29107" x1="55.3705" y1="67.4772" x2="48.3229" y2="59.283" gradientUnits="userSpaceOnUse">
<stop stop-color="#35E1ED"/>
<stop offset="0.9999" stop-color="#2CB3BC"/>
<stop offset="1" stop-color="#7D6CDE"/>
</linearGradient>
<linearGradient id="paint8_linear_935_29107" x1="42.0606" y1="75.11" x2="35.013" y2="66.9159" gradientUnits="userSpaceOnUse">
<stop stop-color="#35E1ED"/>
<stop offset="0.9999" stop-color="#2CB3BC"/>
<stop offset="1" stop-color="#7D6CDE"/>
</linearGradient>
<linearGradient id="paint9_linear_935_29107" x1="102.013" y1="53.5722" x2="89.5263" y2="38.9545" gradientUnits="userSpaceOnUse">
<stop stop-color="#9F8FFF"/>
<stop offset="0.604167" stop-color="#9888F8"/>
<stop offset="1" stop-color="#7D6CDE"/>
</linearGradient>
<linearGradient id="paint10_linear_935_29107" x1="88.7029" y1="61.2695" x2="76.2166" y2="46.6518" gradientUnits="userSpaceOnUse">
<stop stop-color="#9F8FFF"/>
<stop offset="0.604167" stop-color="#9888F8"/>
<stop offset="1" stop-color="#7D6CDE"/>
</linearGradient>
<linearGradient id="paint11_linear_935_29107" x1="75.3929" y1="68.9023" x2="62.9066" y2="54.2849" gradientUnits="userSpaceOnUse">
<stop stop-color="#9F8FFF"/>
<stop offset="0.604167" stop-color="#9888F8"/>
<stop offset="1" stop-color="#7D6CDE"/>
</linearGradient>
<linearGradient id="paint12_linear_935_29107" x1="62.0835" y1="76.5995" x2="49.5972" y2="61.9818" gradientUnits="userSpaceOnUse">
<stop stop-color="#9F8FFF"/>
<stop offset="0.604167" stop-color="#9888F8"/>
<stop offset="1" stop-color="#7D6CDE"/>
</linearGradient>
<linearGradient id="paint13_linear_935_29107" x1="48.7734" y1="84.2324" x2="36.287" y2="69.6146" gradientUnits="userSpaceOnUse">
<stop stop-color="#9F8FFF"/>
<stop offset="0.604167" stop-color="#9888F8"/>
<stop offset="1" stop-color="#7D6CDE"/>
</linearGradient>
<linearGradient id="paint14_linear_935_29107" x1="35.3986" y1="91.9296" x2="22.9121" y2="77.3119" gradientUnits="userSpaceOnUse">
<stop stop-color="#9F8FFF"/>
<stop offset="0.604167" stop-color="#9888F8"/>
<stop offset="1" stop-color="#7D6CDE"/>
</linearGradient>
<clipPath id="clip0_935_29107">
<rect width="146.63" height="140.157" fill="white" transform="translate(12.1848 3)"/>
</clipPath>
</defs>
</svg>
