<svg width="480" height="76" viewBox="0 0 480 76" fill="none" xmlns="http://www.w3.org/2000/svg">
<g clip-path="url(#clip0_3674_16859)">
<rect width="480" height="810" fill="#0061FF"/>
<g clip-path="url(#clip1_3674_16859)">
<rect width="480" height="810" fill="#0061FF"/>
<g clip-path="url(#clip2_3674_16859)">
<path d="M898.29 -66.7957H-90.29V921.966H898.29V-66.7957Z" fill="#00234B"/>
<path d="M74.4766 123.357C106.992 123.357 137.759 115.739 165.186 102.153C162.503 96.91 159.925 91.5317 157.473 86.0182C154.297 78.9308 151.314 71.6213 148.533 64.1187C125.527 71.0419 100.562 74.827 74.4766 74.827C48.3912 74.827 23.4353 71.0419 0.419928 64.1187C-2.36045 71.6213 -5.34357 78.9308 -8.51977 86.0182C-10.9719 91.5317 -13.5496 96.91 -16.2334 102.153C11.1939 115.749 41.9615 123.357 74.4766 123.357Z" fill="#0061FF"/>
<path d="M404 123.357C436.515 123.357 467.283 115.739 494.71 102.153C492.026 96.91 489.448 91.5317 486.996 86.0182C483.82 78.9308 480.837 71.6213 478.057 64.1187C455.051 71.0419 430.085 74.827 404 74.827C377.915 74.827 352.959 71.0419 329.943 64.1187C327.163 71.6213 324.18 78.9308 321.004 86.0182C318.552 91.5317 315.974 96.91 313.29 102.153C340.717 115.749 371.485 123.357 404 123.357Z" fill="#0061FF"/>
<path d="M-90.2901 85.3229C-57.775 85.3229 -27.0074 77.7044 0.419889 64.1186C-2.26395 58.8754 -4.8416 53.4971 -7.29374 47.9836C-10.4699 40.8962 -13.4531 33.5867 -16.2334 26.0841C-39.2392 33.0074 -64.2047 36.7925 -90.2901 36.7925C-116.375 36.7925 -141.331 33.0074 -164.347 26.0841C-167.127 33.5867 -170.11 40.8962 -173.286 47.9836C-175.739 53.4971 -178.316 58.8754 -181 64.1186C-153.573 77.714 -122.805 85.3229 -90.2901 85.3229Z" fill="#0061FF"/>
<path d="M74.4766 47.2981C106.992 47.2981 137.759 39.6796 165.186 26.0938C162.503 20.8507 159.925 15.4723 157.473 9.95884C154.297 2.87143 151.314 -4.43806 148.533 -11.9407C125.527 -5.01741 100.562 -1.23231 74.4766 -1.23231C48.3912 -1.23231 23.4353 -5.01741 0.419928 -11.9407C-2.36045 -4.43806 -5.34357 2.87143 -8.51977 9.95884C-10.9719 15.4723 -13.5496 20.8507 -16.2334 26.0938C11.1939 39.6893 41.9615 47.2981 74.4766 47.2981Z" fill="#0061FF"/>
<path d="M239.233 85.3229C271.748 85.3229 302.516 77.7044 329.943 64.1186C327.26 58.8754 324.682 53.4971 322.23 47.9836C319.054 40.8962 316.07 33.5867 313.29 26.0841C290.284 33.0074 265.319 36.7925 239.233 36.7925C213.148 36.7925 188.192 33.0074 165.177 26.0841C162.396 33.5867 159.413 40.8962 156.237 47.9836C153.785 53.4971 151.207 58.8754 148.523 64.1186C175.951 77.714 206.718 85.3229 239.233 85.3229Z" fill="#0061FF"/>
<path d="M404 47.2981C436.515 47.2981 467.283 39.6796 494.71 26.0938C492.026 20.8507 489.448 15.4723 486.996 9.95884C483.82 2.87143 480.837 -4.43806 478.057 -11.9407C455.051 -5.01741 430.085 -1.23231 404 -1.23231C377.915 -1.23231 352.959 -5.01741 329.943 -11.9407C327.163 -4.43806 324.18 2.87143 321.004 9.95884C318.552 15.4723 315.974 20.8507 313.29 26.0938C340.717 39.6893 371.485 47.2981 404 47.2981Z" fill="#0061FF"/>
<path d="M568.767 85.3229C601.282 85.3229 632.049 77.7044 659.477 64.1186C656.793 58.8754 654.215 53.4971 651.763 47.9836C648.587 40.8962 645.604 33.5867 642.823 26.0841C619.818 33.0074 594.852 36.7925 568.767 36.7925C542.681 36.7925 517.725 33.0074 494.71 26.0841C491.93 33.5867 488.946 40.8962 485.77 47.9836C483.318 53.4971 480.74 58.8754 478.057 64.1186C505.484 77.714 536.252 85.3229 568.767 85.3229Z" fill="#0061FF"/>
<path d="M-90.2901 9.26355C-57.775 9.26355 -27.0074 1.64506 0.419889 -11.9407C-2.26395 -17.1839 -4.8416 -22.5622 -7.29374 -28.0757C-10.4699 -35.1631 -13.4531 -42.4726 -16.2334 -49.9752C-39.2392 -43.052 -64.2047 -39.2669 -90.2901 -39.2669C-116.375 -39.2669 -141.331 -43.052 -164.347 -49.9752C-167.127 -42.4726 -170.11 -35.1631 -173.286 -28.0757C-175.739 -22.5622 -178.316 -17.1839 -181 -11.9407C-153.573 1.65472 -122.805 9.26355 -90.2901 9.26355V9.26355Z" fill="#0061FF"/>
<path d="M239.233 9.26355C271.748 9.26355 302.516 1.64506 329.943 -11.9407C327.26 -17.1839 324.682 -22.5622 322.23 -28.0757C319.054 -35.1631 316.07 -42.4726 313.29 -49.9752C290.284 -43.052 265.319 -39.2669 239.233 -39.2669C213.148 -39.2669 188.192 -43.052 165.177 -49.9752C162.396 -42.4726 159.413 -35.1631 156.237 -28.0757C153.785 -22.5622 151.207 -17.1839 148.523 -11.9407C175.951 1.65472 206.718 9.26355 239.233 9.26355V9.26355Z" fill="#0061FF"/>
<path d="M568.767 9.26355C601.282 9.26355 632.049 1.64506 659.477 -11.9407C656.793 -17.1839 654.215 -22.5622 651.763 -28.0757C648.587 -35.1631 645.604 -42.4726 642.823 -49.9752C619.818 -43.052 594.852 -39.2669 568.767 -39.2669C542.681 -39.2669 517.725 -43.052 494.71 -49.9752C491.93 -42.4726 488.946 -35.1631 485.77 -28.0757C483.318 -22.5622 480.74 -17.1839 478.057 -11.9407C505.484 1.65472 536.252 9.26355 568.767 9.26355V9.26355Z" fill="#0061FF"/>
</g>
</g>
</g>
<defs>
<clipPath id="clip0_3674_16859">
<rect width="480" height="76" fill="white"/>
</clipPath>
<clipPath id="clip1_3674_16859">
<rect width="480" height="960" fill="white"/>
</clipPath>
<clipPath id="clip2_3674_16859">
<rect width="1170" height="1048" fill="white" transform="translate(-181 -88)"/>
</clipPath>
</defs>
</svg>
