<svg width="135" height="135" viewBox="0 0 135 135" fill="none" xmlns="http://www.w3.org/2000/svg">
<rect width="135" height="135" fill="#0061FF"/>
<path fill-rule="evenodd" clip-rule="evenodd" d="M0 61.6C5.4 48.4 13.4 35.9 24.2 25.2C35.6 13.7 49 5.3 63.2 0H131.1C139.5 35.8 129.7 74.9 101.8 102.8C74.2 130.5 35.5 140.3 0 132.3V61.6ZM135 61.6C126 83.8 124.6 108.3 130.7 131.3C132.1 131.7 133.5 132 135 132.3V61.6ZM131.1 135C130.95 134.45 130.825 133.9 130.7 133.35C130.575 132.8 130.45 132.25 130.3 131.7C108.3 125.8 84.7002 126.9 63.2002 135H131.1Z" fill="#00234B"/>
</svg>
