<svg width="192" height="96" viewBox="0 0 192 96" fill="none" xmlns="http://www.w3.org/2000/svg">
<g clip-path="url(#clip0_3670_15934)">
<rect width="480" height="810" fill="#0061FF"/>
<g clip-path="url(#clip1_3670_15934)">
<path d="M-96.2237 96.064C-74.2124 95.9286 -42.0824 87.4639 -25.3032 70.6697C-9.11046 54.4619 -0.675797 32.631 0.000778198 11.1158V-2.56616H-3.68283C-28.3855 -2.08504 -53.7496 4.39509 -72.6186 23.2942C-85.1429 35.8334 -92.9762 51.2444 -96.2237 67.4071C-99.4713 51.2444 -107.305 35.8334 -119.829 23.2942C-138.698 4.39509 -164.062 -2.08504 -188.765 -2.56616H-192.448V11.1158C-191.757 32.631 -183.322 54.4619 -167.144 70.6697C-150.365 87.4639 -118.25 95.9286 -96.2237 96.064Z" fill="#00234B"/>
<path d="M96.2255 96.064C118.237 95.9286 150.367 87.4639 167.146 70.6697C183.339 54.4619 191.773 32.631 192.45 11.1158V-2.56616H188.766C164.064 -2.08504 138.7 4.39509 119.831 23.2942C107.306 35.8334 99.4731 51.2444 96.2255 67.4071C92.9779 51.2444 85.1446 35.8334 72.6204 23.2942C53.7514 4.39509 28.3872 -2.08504 3.68459 -2.56616H0.000976562V11.1158C0.69259 32.631 9.1273 54.4619 25.305 70.6697C42.0842 87.4639 74.1991 95.9286 96.2255 96.064Z" fill="#00234B"/>
<path d="M-96.2237 192.288C-74.2124 192.153 -42.0824 183.688 -25.3032 166.894C-9.11046 150.686 -0.675797 128.855 0.000778198 107.34V93.6584H-3.68283C-28.3855 94.1395 -53.7496 100.62 -72.6186 119.519C-85.1429 132.058 -92.9762 147.469 -96.2237 163.632C-99.4713 147.469 -107.305 132.058 -119.829 119.519C-138.698 100.62 -164.062 94.1395 -188.765 93.6584H-192.448V107.34C-191.757 128.855 -183.322 150.686 -167.144 166.894C-150.365 183.688 -118.25 192.153 -96.2237 192.288Z" fill="#00234B"/>
<path d="M96.2255 192.288C118.237 192.153 150.367 183.688 167.146 166.894C183.339 150.686 191.773 128.855 192.45 107.34V93.6584H188.766C164.064 94.1395 138.7 100.62 119.831 119.519C107.306 132.058 99.4731 147.469 96.2255 163.632C92.9779 147.469 85.1446 132.058 72.6204 119.519C53.7514 100.62 28.3872 94.1395 3.68459 93.6584H0.000976562V107.34C0.69259 128.855 9.1273 150.686 25.305 166.894C42.0842 183.688 74.1991 192.153 96.2255 192.288Z" fill="#00234B"/>
</g>
</g>
<defs>
<clipPath id="clip0_3670_15934">
<rect width="192" height="96" fill="white"/>
</clipPath>
<clipPath id="clip1_3670_15934">
<rect width="1024" height="1089.59" fill="white" transform="translate(-272 -140)"/>
</clipPath>
</defs>
</svg>
