<svg width="880" height="274" fill="none" xmlns="http://www.w3.org/2000/svg"><mask id="a" style="mask-type:alpha" maskUnits="userSpaceOnUse" x="0" y="0" width="880" height="274"><rect width="880" height="274" rx="10" fill="#F8FBFF"/></mask><g mask="url(#a)"><path opacity=".34" d="M570 301.204c8.51-24.798 24.963-57.713 58.111-65.958 28.61-7.085 29.339 10.435 64.189 14.493 91.989 10.757 135.025-91.143 185.355-75.169 32.014 10.177 51.465 43.865 38.417 81.61-7.457 21.578-21.964 36.586-31.528 44.831L570 301.204Z" fill="url(#b)"/><path d="m857.613 224.805.952 1.81c1.238 2.19 2.953 4 5.143 5.143l1.81.952-1.81.952c-2.19 1.238-4 2.953-5.143 5.143l-.952 1.81-.953-1.81c-1.238-2.19-2.952-4-5.142-5.143l-1.81-.952 1.81-.952c2.19-1.239 4-2.953 5.142-5.143l.953-1.81ZM689.788 185.89l1.246 2.505c1.619 3.033 3.86 5.539 6.725 7.121l2.366 1.319-2.366 1.318c-2.865 1.715-5.231 4.088-6.725 7.121l-1.246 2.506-1.245-2.506c-1.619-3.033-3.861-5.538-6.726-7.121l-2.366-1.318 2.366-1.319c2.865-1.714 5.231-4.088 6.726-7.121l1.245-2.505Z" fill="#5C74C6" fill-opacity=".3"/><path d="m832.2 187.297 1.764 1.717-8.021 6.066c-.909.698-2.246 0-2.192-1.127l.16-11.058-10.054-6.066c-1.016-.59-.748-2.147.375-2.415L857.387 164 832.2 187.297Z" fill="url(#d)"/><path d="M823.856 182.895 857.386 164l-23.476 25.014-8.128 6.12c-.856.644-2.14 0-2.086-1.074l.16-11.165Z" fill="#A1BFF1"/><path d="m857.386 164-11.551 31.509c-.321.806-1.283 1.128-1.978.644l-9.893-7.085-.749-.752a1.32 1.32 0 0 1 .053-1.932L857.386 164Z" fill="url(#e)"/></g><defs><linearGradient id="b" x1="568.304" y1="295.506" x2="898.6" y2="195.309" gradientUnits="userSpaceOnUse"><stop stop-color="#D6E6FD"/><stop offset="1" stop-color="#D2E3FD"/></linearGradient><linearGradient id="c" x1="763.276" y1="266.616" x2="739.487" y2="153.629" gradientUnits="userSpaceOnUse"><stop stop-color="#FD9271"/><stop offset="1" stop-color="#FED4C4"/></linearGradient><linearGradient id="d" x1="853.698" y1="168.778" x2="797.797" y2="195.079" gradientUnits="userSpaceOnUse"><stop stop-color="#D6E6FD"/><stop offset="1" stop-color="#D2E3FD"/></linearGradient><linearGradient id="e" x1="856.146" y1="170.834" x2="805.792" y2="231.299" gradientUnits="userSpaceOnUse"><stop stop-color="#D6E6FD"/><stop offset="1" stop-color="#D2E3FD"/></linearGradient></defs></svg>