<svg xmlns="http://www.w3.org/2000/svg" width="208" height="216" fill="none"><g clip-path="url(#a)"><path fill="#CCDFFF" d="M56.568 69.603h-49a7.343 7.343 0 0 0-7.343 7.343v16.728a7.343 7.343 0 0 0 7.342 7.343h49a7.343 7.343 0 0 0 7.344-7.343V76.946a7.343 7.343 0 0 0-7.343-7.343Z"/><path stroke="#000" stroke-linecap="round" stroke-miterlimit="10" stroke-width=".631" d="M56.568 69.603h-49a7.343 7.343 0 0 0-7.343 7.343v16.728a7.343 7.343 0 0 0 7.342 7.343h49a7.343 7.343 0 0 0 7.344-7.343V76.946a7.343 7.343 0 0 0-7.343-7.343Z"/><path fill="#fff" d="M47.66 95.985c5.896 0 10.677-4.78 10.677-10.677 0-5.897-4.78-10.677-10.678-10.677-5.896 0-10.677 4.78-10.677 10.677 0 5.897 4.78 10.677 10.678 10.677Z"/><path stroke="#000" stroke-linecap="round" stroke-miterlimit="10" stroke-width=".631" d="M47.66 95.985c5.896 0 10.677-4.78 10.677-10.677 0-5.897-4.78-10.677-10.678-10.677-5.896 0-10.677 4.78-10.677 10.677 0 5.897 4.78 10.677 10.678 10.677Z"/><path fill="#0564FF" d="m29.368 87.122-2.756-.635a9.515 9.515 0 0 0-2.128-.242H7.388a.587.587 0 0 1-.587-.588v-9.5c0-.323.262-.587.587-.587h17.587c.323 0 .587.263.587.588v6.896c0 .301.136.586.372.773l3.622 2.907c.18.146.04.436-.186.384l-.002.004Z"/><path stroke="#000" stroke-linecap="round" stroke-miterlimit="10" stroke-width=".631" d="m29.368 87.122-2.756-.635a9.515 9.515 0 0 0-2.128-.242H7.388a.587.587 0 0 1-.587-.588v-9.5c0-.323.262-.587.587-.587h17.587c.323 0 .587.263.587.588v6.896c0 .301.136.586.372.773l3.622 2.907c.18.146.04.436-.186.384l-.002.004ZM8.47 77.894h14.638M8.47 80.762h14.638M8.47 83.629h14.638"/><path fill="#fff" d="m7.07 93.865 2.757-.636a9.515 9.515 0 0 1 2.128-.242h17.096a.587.587 0 0 0 .587-.587v-9.5a.587.587 0 0 0-.587-.588H11.464a.587.587 0 0 0-.587.588v6.896a.987.987 0 0 1-.372.773l-3.622 2.908c-.181.145-.04.435.186.383l.001.005Z"/><path stroke="#000" stroke-linecap="round" stroke-miterlimit="10" stroke-width=".631" d="m7.07 93.865 2.757-.636a9.515 9.515 0 0 1 2.128-.242h17.096a.587.587 0 0 0 .587-.587v-9.5a.587.587 0 0 0-.587-.588H11.464a.587.587 0 0 0-.587.588v6.896a.987.987 0 0 1-.372.773l-3.622 2.908c-.181.145-.04.435.186.383l.001.005ZM27.97 84.635H13.33M27.97 87.502H13.33M27.97 90.371H13.33"/><path fill="#F8FF6E" d="M45.331 91.471c-.51 0-1.008-.195-1.382-.548l-3.01-2.836a1.198 1.198 0 1 1 1.644-1.745l2.704 2.548 7.323-9.34a1.198 1.198 0 0 1 1.886 1.48l-7.583 9.668a2.014 2.014 0 0 1-1.583.772l.002.001Z"/><path stroke="#000" stroke-linecap="round" stroke-miterlimit="10" stroke-width=".631" d="M45.331 91.471c-.51 0-1.008-.195-1.382-.548l-3.01-2.836a1.198 1.198 0 1 1 1.644-1.745l2.704 2.548 7.323-9.34a1.198 1.198 0 0 1 1.886 1.48l-7.583 9.668a2.014 2.014 0 0 1-1.583.772l.002.001Z"/><path fill="#CCDFFF" d="M108.073 28.15h-49a7.343 7.343 0 0 0-7.343 7.343v16.728a7.343 7.343 0 0 0 7.342 7.343h49.001a7.342 7.342 0 0 0 7.342-7.343V35.493a7.342 7.342 0 0 0-7.342-7.343Z"/><path stroke="#000" stroke-linecap="round" stroke-miterlimit="10" stroke-width=".631" d="M108.073 28.15h-49a7.343 7.343 0 0 0-7.343 7.343v16.728a7.343 7.343 0 0 0 7.342 7.343h49.001a7.342 7.342 0 0 0 7.342-7.343V35.493a7.342 7.342 0 0 0-7.342-7.343Z"/><path fill="#fff" d="M99.163 54.534c5.897 0 10.677-4.78 10.677-10.677 0-5.897-4.78-10.677-10.677-10.677-5.897 0-10.677 4.78-10.677 10.677 0 5.897 4.78 10.677 10.677 10.677Z"/><path fill="#F8FF6E" d="M96.836 50.043c-.51 0-1.008-.194-1.382-.548l-3.01-2.835a1.198 1.198 0 1 1 1.644-1.745l2.704 2.547 7.323-9.34a1.198 1.198 0 0 1 1.886 1.48l-7.583 9.669a2.015 2.015 0 0 1-1.583.77l.001.002Z"/><path stroke="#000" stroke-linecap="round" stroke-miterlimit="10" stroke-width=".631" d="M96.836 50.043c-.51 0-1.008-.194-1.382-.548l-3.01-2.835a1.198 1.198 0 1 1 1.644-1.745l2.704 2.547 7.323-9.34a1.198 1.198 0 0 1 1.886 1.48l-7.583 9.669a2.015 2.015 0 0 1-1.583.77l.001.002Z"/><path stroke="#000" stroke-linecap="round" stroke-miterlimit="10" stroke-width=".631" d="M99.163 54.534c5.897 0 10.677-4.78 10.677-10.677 0-5.897-4.78-10.677-10.677-10.677-5.897 0-10.677 4.78-10.677 10.677 0 5.897 4.78 10.677 10.677 10.677Z"/><path fill="#fff" d="M73.077 35.46H59.084a.75.75 0 0 0-.749.75v17.124c0 .414.336.75.75.75h13.992a.749.749 0 0 0 .749-.75V36.21a.749.749 0 0 0-.75-.75Z"/><path stroke="#000" stroke-linecap="round" stroke-miterlimit="10" stroke-width=".631" d="M73.077 35.46H59.084a.75.75 0 0 0-.749.75v17.124c0 .414.336.75.75.75h13.992a.749.749 0 0 0 .749-.75V36.21a.749.749 0 0 0-.75-.75Z"/><path fill="#0564FF" d="M74.67 34.522H60.676a.749.749 0 0 0-.749.748v17.125c0 .413.335.749.749.749h13.992a.749.749 0 0 0 .75-.75V35.27a.749.749 0 0 0-.75-.748Z"/><path stroke="#000" stroke-linecap="round" stroke-miterlimit="10" stroke-width=".631" d="M74.67 34.522H60.676a.749.749 0 0 0-.749.748v17.125c0 .413.335.749.749.749h13.992a.749.749 0 0 0 .75-.75V35.27a.749.749 0 0 0-.75-.748Z"/><path fill="#fff" d="M76.508 33.469H62.516a.749.749 0 0 0-.75.749v17.124c0 .414.336.749.75.749h13.992a.749.749 0 0 0 .749-.749V34.218a.749.749 0 0 0-.749-.75Z"/><path stroke="#000" stroke-linecap="round" stroke-miterlimit="10" stroke-width=".631" d="M76.508 33.469H62.516a.749.749 0 0 0-.75.749v17.124c0 .414.336.749.75.749h13.992a.749.749 0 0 0 .749-.749V34.218a.749.749 0 0 0-.749-.75ZM63.17 35.951h12.582M63.17 40.506h12.582M63.17 45.059h12.582M63.17 49.613h12.582"/><path fill="#CCDFFF" d="M178.314.225h-49a7.343 7.343 0 0 0-7.343 7.342v16.728a7.343 7.343 0 0 0 7.343 7.343h49a7.343 7.343 0 0 0 7.343-7.343V7.567a7.343 7.343 0 0 0-7.343-7.342Z"/><path stroke="#000" stroke-linecap="round" stroke-miterlimit="10" stroke-width=".631" d="M178.314.225h-49a7.343 7.343 0 0 0-7.343 7.342v16.728a7.343 7.343 0 0 0 7.343 7.343h49a7.343 7.343 0 0 0 7.343-7.343V7.567a7.343 7.343 0 0 0-7.343-7.342Z"/><path fill="#fff" d="M169.406 26.606c5.896 0 10.677-4.78 10.677-10.677 0-5.897-4.781-10.677-10.677-10.677-5.897 0-10.678 4.78-10.678 10.677 0 5.897 4.781 10.677 10.678 10.677Z"/><path stroke="#000" stroke-linecap="round" stroke-miterlimit="10" stroke-width=".631" d="M169.406 26.606c5.896 0 10.677-4.78 10.677-10.677 0-5.897-4.781-10.677-10.677-10.677-5.897 0-10.678 4.78-10.678 10.677 0 5.897 4.781 10.677 10.678 10.677Z"/><path fill="#F8FF6E" d="M167.078 22.12a2.019 2.019 0 0 1-1.383-.549l-3.009-2.835a1.198 1.198 0 1 1 1.643-1.745l2.704 2.548 7.323-9.34a1.199 1.199 0 0 1 1.886 1.479l-7.582 9.669a2.016 2.016 0 0 1-1.584.771l.002.002Z"/><path stroke="#000" stroke-linecap="round" stroke-miterlimit="10" stroke-width=".631" d="M167.078 22.12a2.019 2.019 0 0 1-1.383-.549l-3.009-2.835a1.198 1.198 0 1 1 1.643-1.745l2.704 2.548 7.323-9.34a1.199 1.199 0 0 1 1.886 1.479l-7.582 9.669a2.016 2.016 0 0 1-1.584.771l.002.002Z"/><path fill="#F8FF6E" d="M143.971 21.97h-12.897c-.1 0-.18.082-.18.18v2.056c0 .1.081.18.18.18h12.897a.18.18 0 0 0 .18-.18V22.15a.18.18 0 0 0-.18-.18Z"/><path stroke="#000" stroke-linecap="round" stroke-miterlimit="10" stroke-width=".631" d="M143.971 21.97h-12.897c-.1 0-.18.082-.18.18v2.056c0 .1.081.18.18.18h12.897a.18.18 0 0 0 .18-.18V22.15a.18.18 0 0 0-.18-.18ZM132.221 21.97v2.417M133.989 21.97v2.417M135.757 21.97v2.417M137.524 21.97v2.417M139.29 21.97v2.417M141.06 21.97v2.417M142.827 21.97v2.417"/><path fill="#F8FF6E" d="M143.971 19.557h-12.897a.18.18 0 0 0-.18.18v2.055c0 .1.081.18.18.18h12.897c.1 0 .18-.082.18-.18v-2.056a.18.18 0 0 0-.18-.18Z"/><path stroke="#000" stroke-linecap="round" stroke-miterlimit="10" stroke-width=".631" d="M143.971 19.557h-12.897a.18.18 0 0 0-.18.18v2.055c0 .1.081.18.18.18h12.897c.1 0 .18-.082.18-.18v-2.056a.18.18 0 0 0-.18-.18ZM132.221 19.557v2.416M133.989 19.557v2.416M135.756 19.557v2.416M137.524 19.557v2.416M139.29 19.557v2.416M141.059 19.557v2.416M142.827 19.557v2.416"/><path fill="#F8FF6E" d="M142.645 17.139h-12.897c-.1 0-.18.08-.18.18v2.055c0 .1.081.18.18.18h12.897a.18.18 0 0 0 .18-.18v-2.056a.18.18 0 0 0-.18-.18Z"/><path stroke="#000" stroke-linecap="round" stroke-miterlimit="10" stroke-width=".631" d="M142.645 17.139h-12.897c-.1 0-.18.08-.18.18v2.055c0 .1.081.18.18.18h12.897a.18.18 0 0 0 .18-.18v-2.056a.18.18 0 0 0-.18-.18ZM130.896 17.139v2.416M132.663 17.139v2.416M134.429 17.139v2.416M136.197 17.139v2.416M137.964 17.139v2.416M139.734 17.139v2.416M141.499 17.139v2.416"/><path fill="#F8FF6E" d="M145.312 14.72h-12.897a.18.18 0 0 0-.18.18v2.056c0 .1.081.18.18.18h12.897c.1 0 .18-.081.18-.18V14.9a.18.18 0 0 0-.18-.18Z"/><path stroke="#000" stroke-linecap="round" stroke-miterlimit="10" stroke-width=".631" d="M145.312 14.72h-12.897a.18.18 0 0 0-.18.18v2.056c0 .1.081.18.18.18h12.897c.1 0 .18-.081.18-.18V14.9a.18.18 0 0 0-.18-.18ZM133.562 14.72v2.417M135.329 14.72v2.417M137.097 14.72v2.417M138.865 14.72v2.417M140.631 14.72v2.417M142.4 14.72v2.417M144.167 14.72v2.417"/><path fill="#F8FF6E" d="M146.639 12.305h-12.897a.18.18 0 0 0-.18.18v2.055c0 .1.081.18.18.18h12.897c.1 0 .18-.082.18-.18v-2.056a.18.18 0 0 0-.18-.18Z"/><path stroke="#000" stroke-linecap="round" stroke-miterlimit="10" stroke-width=".631" d="M146.639 12.305h-12.897a.18.18 0 0 0-.18.18v2.055c0 .1.081.18.18.18h12.897c.1 0 .18-.082.18-.18v-2.056a.18.18 0 0 0-.18-.18ZM134.888 12.305v2.416M136.655 12.305v2.416M138.423 12.305v2.416M140.19 12.305v2.416M141.958 12.305v2.416M143.725 12.305v2.416M145.493 12.305v2.416"/><path fill="#F8FF6E" d="M143.104 9.89h-12.897a.18.18 0 0 0-.18.18v2.056c0 .1.081.18.18.18h12.897c.1 0 .18-.082.18-.18V10.07a.18.18 0 0 0-.18-.18Z"/><path stroke="#000" stroke-linecap="round" stroke-miterlimit="10" stroke-width=".631" d="M143.104 9.89h-12.897a.18.18 0 0 0-.18.18v2.056c0 .1.081.18.18.18h12.897c.1 0 .18-.082.18-.18V10.07a.18.18 0 0 0-.18-.18ZM131.354 9.89v2.417M133.122 9.89v2.417M134.888 9.89v2.417M136.655 9.89v2.417M138.423 9.89v2.417M140.19 9.89v2.417M141.958 9.89v2.417"/><path fill="#F8FF6E" d="M142.099 7.475h-12.897a.18.18 0 0 0-.18.18V9.71c0 .1.081.18.18.18h12.897c.1 0 .18-.082.18-.18V7.654a.18.18 0 0 0-.18-.18Z"/><path stroke="#000" stroke-linecap="round" stroke-miterlimit="10" stroke-width=".631" d="M142.099 7.475h-12.897a.18.18 0 0 0-.18.18V9.71c0 .1.081.18.18.18h12.897c.1 0 .18-.082.18-.18V7.654a.18.18 0 0 0-.18-.18v0ZM130.349 7.475V9.89M132.117 7.475V9.89M133.884 7.475V9.89M135.652 7.475V9.89M137.418 7.475V9.89M139.187 7.475V9.89M140.955 7.475V9.89"/><path fill="#fff" d="m183.004 88.197-37.571 37.179 43.26 6.648 8.935-11.248 1.167-23.969-15.791-8.61Z"/><path stroke="#000" stroke-linecap="round" stroke-miterlimit="10" stroke-width=".631" d="M156.856 116.221h-52.224v18.307h52.224v-18.307Z"/><path fill="#fff" d="m85.26 143.957-8.624 16.199c-4.648 7.878-14.271 5.971-10.568-5.649l7.728-19.829 11.463 9.279Z"/><path stroke="#000" stroke-linecap="round" stroke-miterlimit="10" stroke-width=".631" d="m85.26 143.957-8.624 16.199c-4.648 7.878-14.271 5.971-10.568-5.649l7.728-19.829 11.463 9.279v0Z"/><path fill="#0564FF" d="M74.21 170.999a4.108 4.108 0 0 1-3.75 4.336l-1.826.154-1.601.137a20.8 20.8 0 0 0-6.314 1.556l-5.934 2.5a1.638 1.638 0 0 1-2.133-.833 1.649 1.649 0 0 1 .512-1.997 19.627 19.627 0 0 0 5.146-5.728l2.217-3.744a37 37 0 0 0 2.627-5.398l2.914-7.474c1.821 2.573 5.323 6.123 10.568 5.649l-2.523 4.739a4.134 4.134 0 0 0-.371 2.919c.159.657.272 1.295.349 1.903.058.445.096.873.12 1.281Z"/><path fill="#CCDFFF" d="m70.459 175.334-1.826.154c-.002-.048-.002-.094-.002-.142a5.632 5.632 0 0 1 5.459-5.629c.058.445.095.873.12 1.281a4.108 4.108 0 0 1-3.751 4.336Z"/><path stroke="#0564FF" stroke-linecap="round" stroke-linejoin="round" stroke-width=".631" d="M74.21 170.999a4.108 4.108 0 0 1-3.75 4.336l-3.427.291a20.8 20.8 0 0 0-6.314 1.556l-5.934 2.5a1.638 1.638 0 0 1-2.133-.833 1.649 1.649 0 0 1 .512-1.997 19.627 19.627 0 0 0 5.146-5.728l2.217-3.744a37 37 0 0 0 2.627-5.398l2.914-7.474c1.821 2.573 5.323 6.123 10.568 5.649l-2.523 4.739a4.134 4.134 0 0 0-.371 2.919c.275 1.134.412 2.217.469 3.184v0Z"/><path fill="#fff" d="m95.134 148.391-1.543 13.678-2.048 18.156-.247 2.191c-1.434 8.963-11.353 10.435-12.649-.254l-1.07-35.756 17.557 1.985Z"/><path fill="#000" d="m93.593 162.068-2.048 18.157c-8.85-5.626-11.54-16.096-11.54-16.096l13.588-2.061Z"/><path stroke="#000" stroke-linecap="round" stroke-miterlimit="10" stroke-width=".631" d="m95.134 148.391-3.838 34.025c-1.434 8.963-11.353 10.435-12.649-.254l-1.07-35.756 17.557 1.985v0Z"/><path fill="#0564FF" d="M92.007 201.772c-.672.374-1.29.763-1.858 1.162-4.258 2.976-5.745 6.498-6.212 9.1-.393 2.178-2.318 3.745-4.528 3.745h-7.671c-.45 0-.856-.183-1.15-.477a1.616 1.616 0 0 1-.476-1.149c0-.602.333-1.156.865-1.435a38.122 38.122 0 0 0 3.545-2.124 7.066 7.066 0 0 0 3.114-6.015c-.064-3.408.321-6.122.698-7.927.438-2.084.624-4.211.56-6.34l-.245-8.15c2.509 1.255 7.353 2.857 12.648.255l-.715 6.346a7.286 7.286 0 0 0 .758 4.141l.485.945 1.616 3.146c.87 1.692.228 3.848-1.434 4.777Z"/><path fill="#CCDFFF" d="M92.008 201.772a21.33 21.33 0 0 0-1.86 1.163 6.927 6.927 0 0 1-1.006-3.604 6.923 6.923 0 0 1 2.683-5.481l1.616 3.145c.87 1.693.228 3.848-1.433 4.777Z"/><path stroke="#0564FF" stroke-linecap="round" stroke-linejoin="round" stroke-width=".631" d="M92.007 201.772c-5.7 3.181-7.54 7.312-8.07 10.262-.393 2.178-2.318 3.745-4.528 3.745h-7.671c-.45 0-.856-.183-1.15-.477a1.616 1.616 0 0 1-.476-1.149c0-.602.333-1.156.865-1.435a38.122 38.122 0 0 0 3.545-2.124 7.066 7.066 0 0 0 3.114-6.015c-.064-3.408.321-6.122.698-7.927.438-2.084.624-4.211.56-6.34l-.245-8.15c2.509 1.255 7.353 2.857 12.648.255l-.715 6.346a7.286 7.286 0 0 0 .758 4.141l2.101 4.091c.87 1.692.228 3.848-1.434 4.777v0Z"/><path fill="#fff" d="m168.866 81.662-.581.749-3.316 4.28-1.822-.396a89.566 89.566 0 0 1-8.018-2.137 87.762 87.762 0 0 1-5.228-1.831l-8.293-3.194a14.91 14.91 0 0 0-3.689-.903l-.126-.014a17.101 17.101 0 0 1-5.084-1.388l-25.462-11.4 1.873-3.358 35.498 6.726 10.593 5.622 4.801 2.546 7.38 3.916 1.474.782Z"/><path fill="#000" d="m168.286 82.41-3.316 4.28-1.821-.395a89.769 89.769 0 0 1-8.019-2.138c-10.722-5.554-20.922-11.417-20.922-11.417l21.004 1.678 8.336.665s1.97 2.689 3.846 5.797c.304.502.603 1.016.892 1.53Z"/><path stroke="#000" stroke-linecap="round" stroke-miterlimit="10" stroke-width=".631" d="m168.866 81.662-3.897 5.028-1.822-.395a90.082 90.082 0 0 1-13.246-3.968l-8.293-3.194a14.91 14.91 0 0 0-3.689-.903l-.126-.014a17.101 17.101 0 0 1-5.084-1.388l-25.462-11.4 1.873-3.358 35.498 6.726 15.394 8.168 8.854 4.698v0Z"/><path fill="#0564FF" d="m168.866 81.662-3.898 5.029-1.821-.396a79.666 79.666 0 0 1-1.691-.386c.508-2.994-.46-6.435-1.444-8.944l8.854 4.697Z"/><path stroke="#000" stroke-linecap="round" stroke-miterlimit="10" stroke-width=".631" d="m168.866 81.662-3.898 5.029-1.821-.396a79.666 79.666 0 0 1-1.691-.386c.508-2.994-.46-6.435-1.444-8.944l8.854 4.697v0Z"/><path fill="#fff" d="M187.626 73.966c-3.286 1.356-12.762.208-12.762.208l-1.487-3.816-1.632-4.189-.35-.9 9.398-5.425 5.099 1.607 1.734 12.515Z"/><path fill="#000" d="m176.787 65.748-3.409 4.609-1.631-4.188 5.04-.421Z"/><path stroke="#000" stroke-linecap="round" stroke-miterlimit="10" stroke-width=".631" d="m171.395 65.27 3.469 8.904s9.476 1.148 12.764-.208l-1.735-12.515-5.1-1.607-9.398 5.425v0Z"/><path fill="#fff" d="M181.461 45.457s-8.026-1.155-10.995 7.565a1.925 1.925 0 0 1-.605.871l-1.609 1.31a1.551 1.551 0 0 0-.046 2.368l.344.304c.279.245.4.624.315.987l-1.498 6.381a2.08 2.08 0 0 0 1.829 2.547c.813.076 1.901.063 3.343-.14 1.268-.178 2.382-.326 3.347-.448a8.692 8.692 0 0 0 6.899-5.197l3.48-8.112-4.802-8.435-.002-.001Z"/><path stroke="#000" stroke-linecap="round" stroke-miterlimit="10" stroke-width=".631" d="m186.263 53.892-4.802-8.435s-8.026-1.155-10.995 7.565a1.925 1.925 0 0 1-.605.871l-1.609 1.31a1.551 1.551 0 0 0-.046 2.368l.344.304c.279.245.4.624.315.987l-1.498 6.381a2.08 2.08 0 0 0 1.829 2.547c.813.076 1.901.063 3.343-.14 1.268-.178 2.382-.326 3.347-.448a8.653 8.653 0 0 0 2.534-.722"/><path stroke="#000" stroke-linecap="round" stroke-miterlimit="10" stroke-width=".631" d="M169.406 60.598s2.445.533 3.979-.756M173.763 53.861s1.21.573 2.201 0M173.14 51.714s1.015-1.322 2.265-1.25a2.505 2.505 0 0 1 1.866 1.015"/><path fill="#CCDFFF" d="M191.945 90.134c-.619 2.59-1.531 5.102-2.15 7.692-.286 1.192-.508 2.401-.86 3.575-.933 3.122-2.744 5.898-4.093 8.864-4.794 10.524-11.57 19.714-18.419 29.034-1.089 1.483-2.241 2.991-3.755 4.068-1.572 1.119-3.648 1.527-5.526 1.82-4.227.661-8.529.236-12.759-.163-.766-.072-1.533-.145-2.298-.211a130.183 130.183 0 0 0-16.286-.392c-2.677.101-5.397.296-7.901 1.246-1.663.63-3.225 1.627-4.382 2.988-1.3 1.531-1.772 3.116-2.245 5.047a55.133 55.133 0 0 0-1.579 12.982 54.785 54.785 0 0 0 .476 7.319c.164 1.225.366 2.491.014 3.675-.447 1.505-1.729 2.627-3.113 3.367-1.938 1.035-4.257.652-6.374 1.242-2.354.656-6.014-1.981-8.61-3.901a46.804 46.804 0 0 1-7.966-7.493c-3.25-3.86-6.677-7.501-9.977-11.321-.63-.729-1.805-1.955-2.66-2.877a1.783 1.783 0 0 1-.348-1.868 279.495 279.495 0 0 0 2.662-6.981c-.603-.958-1.409-2.113-2.286-3.021-1.638-1.694-4.485-3.591-5.98-6.811a2.003 2.003 0 0 1 .274-2.13c2.013-2.41 7.562-9.16 10.583-13.922 3.736-5.89 8.296-10.387 16.276-8.677 7.98 1.71 9.816 4.433 13.997 5.889 4.179 1.458 16.783 5.447 16.783 5.447l12.364-.694c-.247-1.694.902-3.268 2.146-4.444 2.138-2.024 4.713-3.508 7.132-5.193a38.24 38.24 0 0 0 4.542-12.498c.265-1.518.446-3.082 1.11-4.474 1.448-3.042 4.805-4.585 7.308-6.84 3.069-2.762 4.864-6.626 7.222-10.015a20.056 20.056 0 0 1 4.813-4.865 19.933 19.933 0 0 1 6.936-3.16l3.744.404 1.791.193 4.118.445.727.078c2.044 2.647 4.141 5.407 4.887 8.667.595 2.596.279 5.32-.338 7.909Z"/><path stroke="#000" stroke-linecap="round" stroke-miterlimit="10" stroke-width=".631" d="M191.945 90.134c-.619 2.59-1.531 5.102-2.15 7.692-.286 1.192-.508 2.401-.86 3.575-.933 3.122-2.744 5.898-4.093 8.864-4.794 10.524-11.57 19.714-18.419 29.034-1.089 1.483-2.241 2.991-3.755 4.068-1.572 1.119-3.648 1.527-5.526 1.82-4.227.661-8.529.236-12.759-.163-.766-.072-1.533-.145-2.298-.211a130.183 130.183 0 0 0-16.286-.392c-2.677.101-5.397.296-7.901 1.246-1.663.63-3.225 1.627-4.382 2.988-1.3 1.531-1.772 3.116-2.245 5.047a55.133 55.133 0 0 0-1.579 12.982 54.785 54.785 0 0 0 .476 7.319c.164 1.225.366 2.491.014 3.675-.447 1.505-1.729 2.627-3.113 3.367-1.938 1.035-4.257.652-6.374 1.242-2.354.656-6.014-1.981-8.61-3.901a46.804 46.804 0 0 1-7.966-7.493c-3.25-3.86-6.677-7.501-9.977-11.321-.63-.729-1.805-1.955-2.66-2.877a1.783 1.783 0 0 1-.348-1.868 279.495 279.495 0 0 0 2.662-6.981c-.603-.958-1.409-2.113-2.286-3.021-1.638-1.694-4.485-3.591-5.98-6.811a2.003 2.003 0 0 1 .274-2.13c2.013-2.41 7.562-9.16 10.583-13.922 3.736-5.89 8.296-10.387 16.276-8.677 7.98 1.71 9.816 4.433 13.997 5.889 4.179 1.458 16.783 5.447 16.783 5.447l12.364-.694c-.247-1.694.902-3.268 2.146-4.444 2.138-2.024 4.713-3.508 7.132-5.193a38.24 38.24 0 0 0 4.542-12.498c.265-1.518.446-3.082 1.11-4.474 1.448-3.042 4.805-4.585 7.308-6.84 3.069-2.762 4.864-6.626 7.222-10.015a20.056 20.056 0 0 1 4.813-4.865 19.933 19.933 0 0 1 6.936-3.16l3.744.404 1.791.193 4.118.445.727.078c2.044 2.647 4.141 5.407 4.887 8.667.595 2.596.279 5.32-.338 7.909v0Z"/><path stroke="#000" stroke-linecap="round" stroke-miterlimit="10" stroke-width=".631" d="M73.796 147.846c2.977-8.12 7.11-20.513 7.567-27.873M145.085 114.288c.291-.202.58-.407.866-.617 3.484-2.56 6.463-5.733 9.42-8.886M88.93 122.477c1.085 3.632 2.177 7.284 3.871 10.675 1.695 3.392 4.037 6.54 7.19 8.643 3.154 2.103 7.186 3.062 10.832 2.024M115.416 145.729c-6.301 3.009-11.206 8.726-13.422 15.349M110.299 154.861c-.869 1.888-1.449 3.893-2.053 5.883-.991 3.262-2.064 6.511-3.524 9.592-1.462 3.082-3.326 6.001-5.755 8.395"/><path stroke="#000" stroke-linecap="round" stroke-miterlimit="10" stroke-width=".631" d="M102.147 140.997c.398-.981 1.6-1.423 2.653-1.312 1.053.111 2.007.642 2.96 1.104 5.142 2.489 11.26 3.13 16.654 1.246M111.025 125.174c1.868 2.62 3.97 5.088 6.422 7.172 2.45 2.084 5.262 3.778 8.33 4.747M103.564 118.178a44.243 44.243 0 0 1 4.284 5.782M178.416 99.205c-1.437 9.853-6.733 17.348-19.034 26.169M144.974 123.369c2.067-2.97 4.236-5.912 7.072-8.202.69-.558 2.964-1.909 3.128-.156.11 1.192-.637 2.748-1.077 3.825-.535 1.307-1.178 2.565-1.819 3.82M164.624 96.805c-1.352 2.783-1.772 5.921-1.982 9.008a74.61 74.61 0 0 0 .047 10.74"/><path fill="#0564FF" d="M180.76 72.842c-3.778 6.056-9.145 10.972-14.564 15.638-1.609 1.386-3.246 2.77-5.122 3.763-.343.181-.864.297-1.033-.05-.074-.15-.039-.329.004-.49.25-.94.721-1.806 1.206-2.649 2.612-4.546 5.783-8.743 8.634-13.146.066-.102.133-.205.195-.31a19.929 19.929 0 0 1 6.937-3.16l3.743.404Z"/><path stroke="#000" stroke-linecap="round" stroke-miterlimit="10" stroke-width=".631" d="M180.76 72.842c-3.778 6.056-9.145 10.972-14.564 15.638-1.609 1.386-3.246 2.77-5.122 3.763-.343.181-.864.297-1.033-.05-.074-.15-.039-.329.004-.49.25-.94.721-1.806 1.206-2.649 2.612-4.546 5.783-8.743 8.634-13.146.066-.102.133-.205.195-.31a19.929 19.929 0 0 1 6.937-3.16l3.743.404v0Z"/><path fill="#0564FF" d="M191.614 86.447a24.887 24.887 0 0 1-.68 5.734c-.936 3.925-2.807 7.554-4.723 11.104-.541 1.004-1.22 2.108-2.337 2.339-.897.187-1.795-.262-2.584-.731-1.338-.794-2.627-1.69-3.71-2.807-1.621-1.675-2.716-3.775-3.787-5.844-.349-.67-.697-1.344-.971-2.047-.815-2.095-.937-4.367-.801-6.627a32.456 32.456 0 0 1 1.799-3.29c1.832-2.933 4.11-5.556 6.404-8.141.858-.97 1.736-1.96 2.327-3.104l4.118.445c.074.384.211.76.366 1.122 1.176 2.776 3.304 5.122 4.129 8.021.352 1.24.453 2.538.45 3.826Z"/><path stroke="#000" stroke-linecap="round" stroke-miterlimit="10" stroke-width=".631" d="M191.614 86.447a24.887 24.887 0 0 1-.68 5.734c-.936 3.925-2.807 7.554-4.723 11.104-.541 1.004-1.22 2.108-2.337 2.339-.897.187-1.795-.262-2.584-.731-1.338-.794-2.627-1.69-3.71-2.807-1.621-1.675-2.716-3.775-3.787-5.844-.349-.67-.697-1.344-.971-2.047-.815-2.095-.937-4.367-.801-6.627a32.456 32.456 0 0 1 1.799-3.29c1.832-2.933 4.11-5.556 6.404-8.141.858-.97 1.736-1.96 2.327-3.104l4.118.445c.074.384.211.76.366 1.122 1.176 2.776 3.304 5.122 4.129 8.021.352 1.24.453 2.538.45 3.826v0ZM172.021 87.568a33.153 33.153 0 0 0-3.153 12.237"/><path fill="#000" d="M173.138 88.987a.34.34 0 0 1-.224.022h-.002a1.85 1.85 0 0 0-.126-.043h-.001a.132.132 0 0 1-.011-.005c-1.188-.593-2.909-5.627-2.909-5.627l3.814-3.736c1.056 5.437.533 8.9-.541 9.389Z"/><path stroke="#000" stroke-linecap="round" stroke-miterlimit="10" stroke-width=".631" d="M173.138 88.987a.34.34 0 0 1-.224.022h-.002a1.85 1.85 0 0 0-.126-.043h-.001a.132.132 0 0 1-.011-.005c-1.188-.593-2.909-5.627-2.909-5.627l3.814-3.736c1.056 5.437.533 8.9-.541 9.389v0Z"/><path fill="#fff" d="m100.413 52.07-.214-.245a1.833 1.833 0 0 0-1.935-.54.946.946 0 0 0-.403 1.55l1.71 1.825.985-2.59"/><path stroke="#000" stroke-linecap="round" stroke-miterlimit="10" stroke-width=".631" d="m100.413 52.07-.214-.245a1.833 1.833 0 0 0-1.935-.54.946.946 0 0 0-.403 1.55l1.71 1.825.985-2.59"/><path fill="#fff" d="M177.946 77.229c-2.768-5.637-8.22-5.715-8.22-5.715-4.653-.304-8.724-.496-16.352-3.22-10.607-3.789-14.685-5.245-21.679-6.178-6.757-.9-18.299-2.617-26.064-4.94-.138-.864-.436-1.73-.673-2.205-.416-.831-1.408-.416-1.408-.416l-1.258-2.16a1.432 1.432 0 0 0-.983-.696 5.48 5.48 0 0 0-.97-.07.375.375 0 0 0-.372.376v1.014s-.737.129-.929 1.025c-.191.896 1.344 2.014.737 4.222-.41 1.49-.18 2.587.014 3.143a.557.557 0 0 1-.195.626c-.562.426-1.032 1.206-1.284 1.682a.334.334 0 0 1-.518.093c-.502-.44-1.16-.839-1.68-1.119a1.266 1.266 0 0 0-1.566 1.94c.4.458.83.984 1.141 1.37.243.303.573.523.947.625.802.218 1.985.874 2.771 1.343a1.912 1.912 0 0 0 1.739.112c1.193-.514 3.146-1.38 3.366-1.623.137-.15.295-.42.435-.684 4.333 1.356 27.565 8.61 34.792 10.562 7.984 2.157 16.563 4.651 20.26 5.595 3.698.943 10.103 2.74 11.734 3.73.848.515 1.662 1.297 2.247 1.929 7.256 6.982 6.737-4.726 3.968-10.361Z"/><path stroke="#000" stroke-linecap="round" stroke-miterlimit="10" stroke-width=".631" d="M177.946 77.229c-2.768-5.637-8.22-5.715-8.22-5.715-4.653-.304-8.724-.496-16.352-3.22-10.607-3.789-14.685-5.245-21.679-6.178-6.757-.9-18.299-2.617-26.064-4.94-.138-.864-.436-1.73-.673-2.205-.416-.831-1.408-.416-1.408-.416l-1.258-2.16a1.432 1.432 0 0 0-.983-.696 5.48 5.48 0 0 0-.97-.07.375.375 0 0 0-.372.376v1.014s-.737.129-.929 1.025c-.191.896 1.344 2.014.737 4.222-.41 1.49-.18 2.587.014 3.143a.557.557 0 0 1-.195.626c-.562.426-1.032 1.206-1.284 1.682a.334.334 0 0 1-.518.093c-.502-.44-1.16-.839-1.68-1.119a1.266 1.266 0 0 0-1.566 1.94c.4.458.83.984 1.141 1.37.243.303.573.523.947.625.802.218 1.985.874 2.771 1.343a1.912 1.912 0 0 0 1.739.112c1.193-.514 3.146-1.38 3.366-1.623.137-.15.295-.42.435-.684 4.333 1.356 27.565 8.61 34.792 10.562 7.984 2.157 16.563 4.651 20.26 5.595 3.698.943 10.103 2.74 11.734 3.73.848.515 1.662 1.297 2.247 1.929 7.256 6.982 6.737-4.726 3.968-10.361v0Z"/><path stroke="#000" stroke-linecap="round" stroke-miterlimit="10" stroke-width=".631" d="M105.631 57.178c.105.656.115 1.312-.065 1.794M104.945 65.78c.185-.354.334-.692.334-.692M100.414 62.78s1.216-1.247 3.68-1.247M101.342 58.172s-.191 1.343.769 2.143"/><path fill="#0564FF" d="M186.51 89.535c-3.287 6.05-8.095 5.293-8.095 5.293-1.333-4.107-4.766-5.553-5.502-5.82.078.019.153.011.225-.022.35-.158.642-.635.839-1.393.409-1.565.413-4.332-.298-7.996-.087-.45-.186-.915-.295-1.393-.8-3.478-2.4-5.54-3.66-6.686 1.817.12 3.722.256 5.963.567 6.037.838 10.615 5.213 12.484 7.292.605 2.845.292 6.56-1.661 10.158Z"/><path stroke="#000" stroke-linecap="round" stroke-miterlimit="10" stroke-width=".631" d="M178.415 94.828c-1.333-4.107-4.766-5.553-5.502-5.82.078.019.153.011.225-.022.35-.158.642-.635.839-1.393.409-1.565.413-4.332-.298-7.996-.087-.45-.186-.915-.295-1.393-.8-3.478-2.4-5.54-3.66-6.686 1.817.12 3.722.256 5.963.567 6.037.838 10.615 5.213 12.484 7.292.605 2.845.292 6.56-1.661 10.158-1.458 2.683-3.215 4.028-4.719 4.693"/><path stroke="#000" stroke-linecap="round" stroke-miterlimit="10" stroke-width=".631" d="M188.172 79.379c-.408-1.941-1.246-3.475-2.279-4.291M140.131 73.413s2.78.355 2.942-2.391"/><path fill="#0564FF" d="m101.789 82.786-5.535.812a.632.632 0 0 0-.533.722l4.777 31.326a.887.887 0 0 0 .404.616l5.098 3.183a7.88 7.88 0 0 0 1.805.831l13.4 4.214a.59.59 0 0 0 .355-1.125l-12.818-4.079a1.002 1.002 0 0 1-.686-.8l-5.551-35.173a.633.633 0 0 0-.716-.527Z"/><path stroke="#000" stroke-linecap="round" stroke-miterlimit="10" stroke-width=".631" d="m101.705 83.598 5.544 35.195M101.789 82.786l-5.535.812a.632.632 0 0 0-.533.722l4.777 31.326a.887.887 0 0 0 .404.616l5.098 3.183a7.88 7.88 0 0 0 1.805.831l13.4 4.214a.59.59 0 0 0 .355-1.125l-12.818-4.079a1.002 1.002 0 0 1-.686-.8l-5.551-35.173a.633.633 0 0 0-.716-.527v0Z"/><path fill="#fff" d="M204.698 215.075a.692.692 0 0 1-.692.698h-2.633a.692.692 0 0 1-.689-.632l-3.427-39.108-.613-6.992 2.448-.429 3.319-.581.273.581 1.694 3.604.028 3.817.292 39.042Z"/><path fill="#000" d="M204.393 174.175h-7.3l-.449-5.133 2.446-.429h3.592l1.696 3.604.015 1.958Z"/><path stroke="#000" stroke-linecap="round" stroke-miterlimit="10" stroke-width=".631" d="m204.378 172.214.32 42.86a.69.69 0 0 1-.692.697h-2.633a.69.69 0 0 1-.689-.632l-4.04-46.101 5.766-1.011 1.968 4.186v.001Z"/><path fill="#fff" d="m127.586 169.041-.612 6.992-3.428 39.108a.692.692 0 0 1-.689.632h-2.633a.692.692 0 0 1-.692-.698l.292-39.042.029-3.817 1.694-3.604.272-.581 3.32.581 2.447.429Z"/><path fill="#000" d="m127.586 169.042-.449 5.133h-7.299l.013-1.958 1.696-3.604h3.592l2.447.429Z"/><path stroke="#000" stroke-linecap="round" stroke-miterlimit="10" stroke-width=".631" d="m119.851 172.214-.32 42.86a.69.69 0 0 0 .692.697h2.633a.691.691 0 0 0 .689-.632l4.04-46.101-5.766-1.011-1.968 4.186v.001Z"/><path fill="#fff" d="m204.703 99.941-.327 72.275H122.14c-8.052 0-14.548-6.586-14.437-14.638l.386-28.062a7.669 7.669 0 0 1 7.671-7.563l70.118.024a5.291 5.291 0 0 0 5.182-4.205l3.487-16.637a7.476 7.476 0 0 0-3.742-8.097l-.081-.043a24.745 24.745 0 0 0 .541-2.452l9.176 3.304a6.447 6.447 0 0 1 4.262 6.094Z"/><path stroke="#000" stroke-linecap="round" stroke-miterlimit="10" stroke-width=".631" d="M194.201 130.303h-73.237a3.204 3.204 0 0 0-3.204 3.204v24.445a3.205 3.205 0 0 0 3.204 3.204h73.237a3.205 3.205 0 0 0 3.204-3.204v-24.445a3.204 3.204 0 0 0-3.204-3.204Z"/><path stroke="#000" stroke-linecap="round" stroke-miterlimit="10" stroke-width=".631" d="m204.703 99.941-.327 72.275H122.14c-8.052 0-14.548-6.586-14.437-14.638l.386-28.062a7.669 7.669 0 0 1 7.671-7.563l70.118.024a5.291 5.291 0 0 0 5.182-4.205l3.487-16.637a7.476 7.476 0 0 0-3.742-8.097l-.081-.043a24.745 24.745 0 0 0 .541-2.452l9.176 3.304a6.447 6.447 0 0 1 4.262 6.094v0Z"/><path fill="#000" d="M184.77 58.57c-.655-.215-1.208-.7-1.572-1.277-.777-1.231-.657-2.683-.924-4.056-.232-1.199-.537-2.31-1.276-3.31-1.035-1.4-2.496-2.457-4.046-3.223-.791-.39-1.678-1.276-.578-1.968.356-.225.788-.286 1.206-.337 2.924-.357 6.107-.803 9.04-.367 3.989.592 7.421 3.183 10.115 6.183 1.251 1.393 2.425 2.98 2.7 4.831.199 1.342-.066 2.825.662 3.971.488.769 1.33 1.221 2.058 1.765 1.162.869 2.115 2.074 2.473 3.481.698 2.738-.9 5.747.072 8.402.466 1.27 1.463 2.27 2.074 3.477 1.461 2.888.378 5.99-.287 8.923-.748 3.294-1.417 6.616-1.744 9.982a41.6 41.6 0 0 0-.193 5.247c.075 2.49.395 5.08-.523 7.395-.854 2.152-2.671 3.769-4.562 5.102a33.864 33.864 0 0 1-13.398 5.622c-2.407.439-4.927.61-7.274-.084-3.03-.894-5.37-3.241-5.542-6.486-.098-1.844.412-3.668 1.066-5.397 1.777-4.696 4.184-8.998 7.476-12.755 3.077-3.512 7.805-7.353 7.598-12.431-.091-2.242-1.332-4.133-2.506-5.96-1.233-1.92-2.295-4.015-2.687-6.281-.252-1.456-.212-2.984.247-4.397.458-1.412 1.558-2.28 2.178-3.53.308-.623.451-1.452-.027-1.96-.469-.497-1.215-.363-1.811-.555l-.014-.005-.001-.001Z"/><path stroke="#000" stroke-linecap="round" stroke-miterlimit="10" stroke-width=".631" d="M78.737 185.091c2.689 1.042 7.767 2.363 12.273-.126M64.837 157.662c1.483 1.814 4.687 4.825 10.105 5.676"/><path fill="#fff" d="M187.707 60.985c1.254-1.784 1.321-3.959.15-4.856-1.172-.898-3.137-.18-4.392 1.604-1.254 1.786-1.321 3.96-.151 4.858 1.171.897 3.136.18 4.392-1.604l.001-.002Z"/><path stroke="#000" stroke-linecap="round" stroke-miterlimit="10" stroke-width=".631" d="M182.622 61.57c.03.092.064.18.101.264.138.301.336.559.592.755 1.172.897 3.137.18 4.392-1.604 1.254-1.786 1.321-3.96.15-4.858-1.172-.897-3.137-.18-4.392 1.604"/><path stroke="#000" stroke-linecap="round" stroke-miterlimit="10" stroke-width=".631" d="M184.674 59.675s.627-.171.671-.647c.024-.276-.2-.426-.388-.5-.113-.046-.153-.176-.074-.25.375-.353 1.269-1.08 2.003-.77 1.024.434.401 2.433-2.446 3.732"/><path fill="#0564FF" d="M183.649 63.168a.864.864 0 1 0 .001-1.729.864.864 0 0 0-.001 1.729Z"/><path fill="#0564FF" d="M183.576 64.24a.663.663 0 1 0 0-1.328.663.663 0 0 0 0 1.327Z"/><path fill="#0564FF" d="M183.576 65.144a.557.557 0 1 0 0-1.115.557.557 0 0 0 0 1.115Z"/><path stroke="#000" stroke-linecap="round" stroke-miterlimit="10" stroke-width=".631" d="M117.76 136.914h79.645M117.76 142.836h79.645M117.76 148.758h79.645M117.76 154.68h79.645"/></g><defs><clipPath id="a"><path fill="#fff" d="M0 0h207.501v216H0z"/></clipPath></defs></svg>