<svg xmlns="http://www.w3.org/2000/svg" width="236" height="215" fill="none"><g clip-path="url(#a)"><path fill="#fff" d="m175.722 136.836-4.868 6.736-11.337 15.688c-4.002-5.583-9.378-10.851-12.75-13.593-3.369-2.738-2.896-4.794-3.024-7.117-.128-2.323-1.609-3.388-1.609-3.388s-.123-.319-.345-.916c-1.515-4.054-7.672-20.911-11.322-36.721-.892-3.864-1.632-7.667-2.121-11.204-2.778-20.135 6.589-25.866 6.589-25.866 4.045 1.528 7.916 3.49 10.862 5.99 10.455 8.874 11.988 14.28 15.054 26.091 3.066 11.808 14.871 44.3 14.871 44.3Z"/><path stroke="#000" stroke-linecap="round" stroke-miterlimit="10" stroke-width=".785" d="m175.722 136.836-4.868 6.736-11.337 15.688c-4.002-5.583-9.378-10.851-12.75-13.593-3.369-2.738-2.896-4.794-3.024-7.117-.128-2.323-1.609-3.388-1.609-3.388s-.123-.319-.345-.916c-1.515-4.054-7.672-20.911-11.322-36.721-.892-3.864-1.632-7.667-2.121-11.204-2.778-20.135 6.589-25.866 6.589-25.866 4.045 1.528 7.916 3.49 10.862 5.99 10.455 8.874 11.988 14.28 15.054 26.091 3.066 11.808 14.871 44.3 14.871 44.3Z"/><path stroke="#000" stroke-linecap="round" stroke-miterlimit="10" stroke-width=".785" d="M152.064 85.518s.479 7.246-1.789 11.939c-2.192 4.535-10.479 16.032-10.479 16.032M149.807 103.246s-3.984 5.658-5.637 16.171c-1.653 10.514-2.378 14.83-2.378 14.83M150.782 104.697s.39 5.025-1.232 10.265M144.609 133.743s7.602-3.327 15.774-4.968c0 0-6.906 1.85-9.841 4.968"/><path fill="#0564FF" d="M142.132 135.161c.295 1.232.463 2.404.334 3.738-.172 1.828-.897 3.173-1.784 4.154a8.113 8.113 0 0 1-2.275 1.737c1.784 1.509 2.6 3.013 2.966 4.164.094.301.16.579.204.824.136.767.065 1.24.065 1.24l-1.54.424-9.42 2.595-33.457 9.218-32.636-32.784-.772-8.915c.17-1.162.306-2.308.416-3.435v-.005c.746-7.631.186-14.419-1.02-20.258-2.16-10.466-6.406-17.877-8.96-21.615-.2-.298-.394-.57-.572-.821l-.28-.385c-.037-.05-.073-.102-.113-.149-.05-.07-.102-.138-.151-.204a2.156 2.156 0 0 0-.092-.123l-.16-.206a23.39 23.39 0 0 0-.415-.523c-.06-.074-.113-.136-.155-.189l-.13-.152c-.006-.005-.008-.01-.014-.013l-.007-.01 23.31-12.572 9.017-1.292 28.727-4.118s11.411 1.078 21.717 4.97c10.65 17.875 7.869 38.692 5.92 53.037l-.003.006c-.073.554-.146 1.098-.219 1.632-1.586 11.751.573 16.174 1.493 20.009.003.01.006.016.006.021Z"/><path stroke="#000" stroke-linecap="round" stroke-miterlimit="10" stroke-width=".785" d="M116.078 138.551c12.681.732 19.096 3.497 22.329 6.239M82.874 100.734s-3.523 11.291-11.842 19.327M70.42 122.946s15.065-10.29 33.42-38.618M75.086 125.706s12.84-7.534 41.695-7.534M86.547 131.646s24.401 1.909 42.864-5.941"/><path fill="#fff" d="M136.264 10.017a2.137 2.137 0 0 1-1.248 2.03l-1.009.463a1.249 1.249 0 0 0-.725 1.133c0 .026 0 .052.003.08a2.452 2.452 0 0 1-.673 1.858l-3.874 4.052a33.329 33.329 0 0 0-8.457 15.897l-1.706 7.81a6.303 6.303 0 0 1-.68 1.777 6.368 6.368 0 0 1-5.721 3.233l-1.038-.029-1.117-.028a17.492 17.492 0 0 0-8.902 2.16l-1.14.628c-18.529 6.569-30.915-10.353-10.77-22.193l19.826-9.985 2.589-1.305 11.189-7.981a15 15 0 0 0 4.957-6.032l.905-1.999c.227-.502.714-.78 1.211-.78.296 0 .594.097.842.304.811.67 1.156 1.75.887 2.765L131.315 5l1.794-.858a1.7 1.7 0 0 1 1.507.016 2.732 2.732 0 0 1 1.509 2.338l.139 3.521Z"/><path stroke="#000" stroke-linecap="round" stroke-miterlimit="10" stroke-width=".785" d="M136.264 10.017a2.137 2.137 0 0 1-1.248 2.03l-1.009.463a1.249 1.249 0 0 0-.725 1.133c0 .026 0 .052.003.08a2.452 2.452 0 0 1-.673 1.858l-3.874 4.052a33.329 33.329 0 0 0-8.457 15.897l-1.706 7.81a6.303 6.303 0 0 1-.68 1.777 6.368 6.368 0 0 1-5.721 3.233l-1.038-.029-1.117-.028a17.492 17.492 0 0 0-8.902 2.16l-1.14.628c-18.529 6.569-30.915-10.353-10.77-22.193l19.826-9.985 2.589-1.305 11.189-7.981a15 15 0 0 0 4.957-6.032l.905-1.999c.227-.502.714-.78 1.211-.78.296 0 .594.097.842.304.811.67 1.156 1.75.887 2.765L131.315 5l1.794-.858a1.7 1.7 0 0 1 1.507.016 2.732 2.732 0 0 1 1.509 2.338l.139 3.521Z"/><path stroke="#000" stroke-linecap="round" stroke-miterlimit="10" stroke-width=".785" d="m135.685 5.11-1.355.39a7.22 7.22 0 0 0-2.126 1.009l-.887.617M136.146 6.979l-1.102.258a3.998 3.998 0 0 0-1.378.618l-1.06.743M136.146 8.992l-.887.215a2.273 2.273 0 0 0-1.049.578l-.489.473"/><path fill="#CCDFFF" d="M151.439 175.931a30.416 30.416 0 0 1-20.331 20.213l-5.323 1.598a78.01 78.01 0 0 1-28.186 3.081 77.883 77.883 0 0 1-20.674-4.397l-5.548-1.998a74.216 74.216 0 0 1-12.302-5.753 74.142 74.142 0 0 1-24.035-22.507 73.988 73.988 0 0 1-4.154-6.924 74.952 74.952 0 0 1-6.226-15.892 7212.751 7212.751 0 0 0-7.24-27.158c-3.574-13.257-9.295-22.993-10.106-24.257-.813-1.26-2.074-4.687 0-10.455 3.22-8.968 6.31-9.737 17.519-16.23 11.211-6.49 25.39-18.478 31.16-22.716 3.246-2.383 5.383-2.393 6.634-1.946 1.23.44 2.58.382 3.746-.204l22.834-11.5a45.689 45.689 0 0 1 5.4 7.25c2.382 3.957 4.598 9.032 5.37 14.944L84.49 59.602l-9.016 1.293-23.31 12.572s.844.947 2.09 2.775c2.608 4.7 4.533 9.668 5.956 14.474 1.242 4.185 2.1 8.25 2.697 11.91.13.798.246 1.577.353 2.336 1.08 7.732.973 13.158.973 13.158l4.832 4.044 10.735 8.985a63.555 63.555 0 0 0 18.523 10.788l44.585 16.671c6.977 2.611 10.715 10.202 8.531 17.323Z"/><path fill="#000" d="M69.064 122.164c-.133.222-6.552 11.018-16.548 12.812-10.097 1.813-4.606-18.322-4.606-18.322l13.487-11.957 1.863.264c1.08 7.733.973 13.158.973 13.158l4.831 4.045ZM111.85 177.025s-16.467 9.386-27.836 10.32l23.378 8.434 23.779-7.252-2.407-10.581-16.914-.921Z"/><path stroke="#000" stroke-linecap="round" stroke-miterlimit="10" stroke-width=".785" d="M151.439 175.931a30.416 30.416 0 0 1-20.331 20.213l-5.323 1.598a78.01 78.01 0 0 1-28.186 3.081 77.883 77.883 0 0 1-20.674-4.397l-5.548-1.998a74.216 74.216 0 0 1-12.302-5.753 74.142 74.142 0 0 1-24.035-22.507 73.988 73.988 0 0 1-4.154-6.924 74.952 74.952 0 0 1-6.226-15.892 7212.751 7212.751 0 0 0-7.24-27.158c-3.574-13.257-9.295-22.993-10.106-24.257-.813-1.26-2.074-4.687 0-10.455 3.22-8.968 6.31-9.737 17.519-16.23 11.211-6.49 25.39-18.478 31.16-22.716 3.246-2.383 5.383-2.393 6.634-1.946 1.23.44 2.58.382 3.746-.204l22.834-11.5a45.689 45.689 0 0 1 5.4 7.25c2.382 3.957 4.598 9.032 5.37 14.944L84.49 59.602l-9.016 1.293-23.31 12.572s.844.947 2.09 2.775c2.608 4.7 4.533 9.668 5.956 14.474 1.242 4.185 2.1 8.25 2.697 11.91 1.454 8.954 1.326 15.494 1.326 15.494L79.8 131.149a63.555 63.555 0 0 0 18.523 10.788l44.585 16.671c6.977 2.611 10.715 10.202 8.531 17.323Z"/><path stroke="#000" stroke-linecap="round" stroke-miterlimit="10" stroke-width=".785" d="M24.835 89.04s11.554 4.232 26.365-1.938"/><path stroke="#000" stroke-linecap="round" stroke-miterlimit="10" stroke-width=".785" d="M28.9 94.891s8.863.685 17.961-6.5M77.506 129.227s6.407 7.784 14.503 12.689M71.194 123.959s5.043 9.705 11.567 17.26M52.315 73.643c.045.052.095.115.155.189l-.155-.19Z"/><path stroke="#000" stroke-linecap="round" stroke-miterlimit="10" stroke-width=".785" d="m64.233 118.119 15.567 13.03a63.6 63.6 0 0 0 18.523 10.788l32.359 12.098M86.546 171.021s7.944 13.443 13.31 18.55M83.596 175.717s6.853 7.442 11.557 10.649M131.315 4.998l-1.737.83"/><path fill="#fff" d="M65.403 214.171H4.759a3.92 3.92 0 0 1-2.336-.774 3.91 3.91 0 0 1-1.407-2.019 2.465 2.465 0 0 1 .586-2.415l.552-.575a.419.419 0 0 0 .073-.474l-.46-.955a2.504 2.504 0 0 1-.04-2.103l.754-1.716a4.669 4.669 0 0 1 3.04-2.621l4.64-1.263c.287-.081.567-.189.837-.322l3.557-1.776a11.806 11.806 0 0 1 6.569-1.175l5.655.618a23.294 23.294 0 0 0 10.106-1.125l1.378-.474a10.451 10.451 0 0 1 10.364 2.098l2.106 1.886.9.806 6.095 3.741 5.072 3.113 2.603 7.525Z"/><path stroke="#000" stroke-linecap="round" stroke-miterlimit="10" stroke-width=".785" d="M65.403 214.171H4.759a3.92 3.92 0 0 1-2.336-.774 3.91 3.91 0 0 1-1.407-2.019 2.465 2.465 0 0 1 .586-2.415l.552-.575a.419.419 0 0 0 .073-.474l-.46-.955a2.504 2.504 0 0 1-.04-2.103l.754-1.716a4.669 4.669 0 0 1 3.04-2.621l4.64-1.263c.287-.081.567-.189.837-.322l3.557-1.776a11.806 11.806 0 0 1 6.569-1.175l5.655.618a23.294 23.294 0 0 0 10.106-1.125l1.378-.474a10.451 10.451 0 0 1 10.364 2.098l2.106 1.886.9.806 6.095 3.741 5.072 3.113 2.603 7.525Z"/><path fill="#000" d="M65.403 214.172H39.632c14.738-.851 12.532-11.416 12.532-11.416l5.564.777 5.073 3.113 2.602 7.526Z"/><path stroke="#000" stroke-linecap="round" stroke-miterlimit="10" stroke-width=".785" d="M1.62 205.162a3.314 3.314 0 0 0 2.574.848l1.752-.183M2.271 208.086h.52c.278 0 .553-.028.822-.089l2.053-.444M.927 210.408a4.606 4.606 0 0 0 3.416-.029l.85-.348M2.01 213.037h.766c.476 0 .945-.107 1.374-.317l1.043-.507"/><path fill="#CCDFFF" d="M184.345 193.759v2.104a18.3 18.3 0 0 1-6.381 13.887 18.29 18.29 0 0 1-11.931 4.421H60.527s-11.429-11.627-9.985-18.92c1.625-8.209 17.218-8.311 26.308-5.536.696-1.203 2.64-3.568 7.377-4.177 2.83-.364 5.017.008 6.903.625 3.699-.283 9.956-.897 14.817-2.067 7.368-1.773 27.281-8.721 38.33-5.218l26.481-4.131a4.019 4.019 0 0 1 3.51 1.18l4.939 5.117a18.301 18.301 0 0 1 5.138 12.715Z"/><path stroke="#000" stroke-linecap="round" stroke-miterlimit="10" stroke-width=".785" d="M184.345 193.759v2.104a18.3 18.3 0 0 1-6.381 13.887 18.29 18.29 0 0 1-11.931 4.421H60.527s-11.429-11.627-9.985-18.92c1.625-8.209 17.218-8.311 26.308-5.536.696-1.203 2.64-3.568 7.377-4.177 2.83-.364 5.017.008 6.903.625 3.699-.283 9.956-.897 14.817-2.067 7.368-1.773 27.281-8.721 38.33-5.218l26.481-4.131a4.019 4.019 0 0 1 3.51 1.18l4.939 5.117a18.301 18.301 0 0 1 5.138 12.715Z"/><path stroke="#000" stroke-linecap="round" stroke-miterlimit="10" stroke-width=".785" d="M97.026 188.529c-1.91-.597-3.696-1.646-5.896-2.365M76.85 189.717c.746.227 1.45.473 2.096.737 6.84 2.789 14.973 5.844 14.973 5.844"/><path fill="#000" d="m109.483 53.566-6.681 21.72a.665.665 0 0 1-.905.413L84.87 68.176 74.082 57.388a.414.414 0 0 1-.128-.288l.042-.196v-.01h.005l6.783-.43 13.462-.85 12.6-4.946c1.695-.35 3.147 1.245 2.637 2.898Z"/><path stroke="#000" stroke-linecap="round" stroke-miterlimit="10" stroke-width=".785" d="m109.483 53.566-6.681 21.72a.665.665 0 0 1-.905.413L84.87 68.176 74.082 57.388a.414.414 0 0 1-.128-.288l.042-.196v-.01h.005l6.783-.43 13.462-.85 12.6-4.946c1.695-.35 3.147 1.245 2.637 2.898Z"/><path fill="#fff" d="m112.07 59.361-.186 6.791-8.93 10.749a.733.733 0 0 1-.746.24l-14.256-3.615a2.22 2.22 0 0 1-1.245-.831l-2.111-2.826a1.163 1.163 0 0 0-1.662-.212l-2.903 2.339.753-15.533.23-4.706.113-2.33 25.455-4.165 1.917 4.925 1.227 3.155 2.344 6.02Z"/><path fill="#000" d="M83.722 53.68s7.907 15.358 16.99 14.573c9.082-.784 9.603-16.58 9.603-16.58L83.722 53.68Z"/><path stroke="#000" stroke-linecap="round" stroke-miterlimit="10" stroke-width=".785" d="m112.07 59.361-.186 6.791-8.93 10.749a.733.733 0 0 1-.746.24l-14.256-3.615a2.22 2.22 0 0 1-1.245-.831l-2.111-2.826a1.163 1.163 0 0 0-1.662-.212l-2.903 2.339.753-15.533.23-4.706.113-2.33 25.455-4.165 1.917 4.925 1.227 3.155 2.344 6.02Z"/><path fill="#00234B" d="m118.165 58.47.785 8.12c.083.871-1.068 1.256-1.525.51l-4.207-6.882 4.821-1.823a.091.091 0 0 1 .123.075h.003Z"/><path stroke="#00234B" stroke-linecap="round" stroke-miterlimit="10" stroke-width=".785" d="m118.165 58.47.785 8.12c.083.871-1.068 1.256-1.525.51l-4.207-6.882 4.821-1.823a.091.091 0 0 1 .123.075h.003Z"/><path fill="#fff" d="m118.021 58.764-6.136 7.387-8.931 10.749a.733.733 0 0 1-.746.24l-14.256-3.615a2.22 2.22 0 0 1-1.245-.831l-2.111-2.826a1.163 1.163 0 0 0-1.661-.211l-2.904 2.338-.047.037a2.06 2.06 0 0 0-.764 1.478l-.555 9.242c-.02.308-.46.342-.525.039l-2.148-10.152a5.874 5.874 0 0 0-.419-1.259l-2.82-6.053a2.606 2.606 0 0 1-.185-1.616l1.36-6.483a.219.219 0 0 1 .154-.167c.23-.065.477 0 .639.178l10.15 10.934 17.026 7.524a.665.665 0 0 0 .905-.414l6.681-21.72c.51-1.653-.942-3.248-2.637-2.898l1.654-.478.957-.278a.618.618 0 0 1 .607.155l7.921 7.923a.575.575 0 0 1 .036.777Z"/><path stroke="#000" stroke-linecap="round" stroke-miterlimit="10" stroke-width=".785" d="m118.021 58.764-6.136 7.387-8.931 10.749a.733.733 0 0 1-.746.24l-14.256-3.615a2.22 2.22 0 0 1-1.245-.831l-2.111-2.826a1.163 1.163 0 0 0-1.661-.211l-2.904 2.338-.047.037a2.06 2.06 0 0 0-.764 1.478l-.555 9.242c-.02.308-.46.342-.525.039l-2.148-10.152a5.874 5.874 0 0 0-.419-1.259l-2.82-6.053a2.606 2.606 0 0 1-.185-1.616l1.36-6.483a.219.219 0 0 1 .154-.167c.23-.065.477 0 .639.178l10.15 10.934 17.026 7.524a.665.665 0 0 0 .905-.414l6.681-21.72c.51-1.653-.942-3.248-2.637-2.898l1.654-.478.957-.278a.618.618 0 0 1 .607.155l7.921 7.923a.575.575 0 0 1 .036.777Z"/><path fill="#fff" d="M73.852 35.882s3.123 9.176 5.37 13.082c2.245 3.905 5.044 6.945 7.629 8.977 2.587 2.033 6.432 5.426 10.615 5.97 3.785.492 6.262-.505 7.874-2.483 1.697-2.082 5.14-8.101 5.893-13.733 1.002-7.495-.091-14.39-1.329-23.499-1.169-8.619-2.365-15.02-12.525-13.79-5.344.648-11.944 3.157-17.003 5.39-5.47 2.415-8.703 8.175-7.848 14.093.265 1.825.683 3.84 1.324 5.99v.003Z"/><path stroke="#000" stroke-linecap="round" stroke-miterlimit="10" stroke-width=".785" d="M73.852 35.882s3.123 9.176 5.37 13.082c2.245 3.905 5.044 6.945 7.629 8.977 2.587 2.033 6.432 5.426 10.615 5.97 3.785.492 6.262-.505 7.874-2.483 1.697-2.082 5.14-8.101 5.893-13.733 1.002-7.495-.091-14.39-1.329-23.499-1.169-8.619-2.365-15.02-12.525-13.79-5.344.648-11.944 3.157-17.003 5.39-5.47 2.415-8.703 8.175-7.848 14.093.265 1.825.683 3.84 1.324 5.99v.003Z"/><path fill="#000" d="M75.913 40.727a1.836 1.836 0 0 0 1.834-1.954l-.62-9.713a7.31 7.31 0 0 1 .429-2.98 3.71 3.71 0 0 1 2.558-2.32l1.005-.259a5.068 5.068 0 0 1 3.1.186l2.98 1.162c2.178.85 4.559 1.033 6.842.53l2.504-.549a11.825 11.825 0 0 0 7.316-5.012 2.584 2.584 0 0 1 2.151-1.153h.491c.958 0 1.797.643 2.049 1.57l1.642 6.092.333-3.498a20.644 20.644 0 0 0-.864-8.148 24.477 24.477 0 0 0-5.2-9.072l-.999-1.104a11.636 11.636 0 0 0-5.274-3.33 27.903 27.903 0 0 0-11.112-1c-2.69.301-5.316 1.018-7.788 2.12a15.407 15.407 0 0 0-4.277 2.848 15.891 15.891 0 0 0-3.918 5.823l-.641 1.656a20.67 20.67 0 0 0-.442 13.642l4.128 13.158c.243.774.96 1.302 1.773 1.302v.003Z"/><path fill="#fff" d="M77.921 48.852c1.834-.698 2.167-4.295.744-8.036-1.423-3.74-4.063-6.207-5.897-5.509-1.834.698-2.167 4.295-.744 8.036 1.423 3.74 4.064 6.206 5.897 5.509Z"/><path stroke="#000" stroke-linecap="round" stroke-miterlimit="10" stroke-width=".785" d="M79.414 46.667c-.167.83-.5 1.494-.991 1.897-1.58 1.292-4.24-.563-5.94-4.141-1.701-3.579-1.798-7.526-.218-8.818 1.58-1.293 4.24.562 5.94 4.14"/><path stroke="#000" stroke-linecap="round" stroke-miterlimit="10" stroke-width=".785" d="M76.866 42.975s-.894-.479-.994-1.404c-.057-.534.246-.767.505-.864.154-.057.199-.3.084-.46-.552-.77-1.865-2.38-2.87-1.965-1.402.578-.369 4.565 3.728 7.754M99.464 49.74s1.826.416 3.058-.87"/><path fill="#000" d="M96.346 53.787c2.323-.112 6.404-.672 9.422-3.045.416-.327 1.007.045.882.558-.458 1.89-1.68 4.836-4.905 5.346-2.624.416-4.607-.578-5.823-1.504-.56-.426-.28-1.32.424-1.355Z"/><path fill="#282828" d="M105.618 39.708c.371-.056.584-.68.476-1.395-.109-.714-.498-1.247-.869-1.19-.372.056-.585.68-.476 1.395.109.714.498 1.247.869 1.19ZM92.205 43.708c.371-.056.584-.68.476-1.395-.109-.714-.498-1.247-.87-1.19-.37.056-.584.68-.475 1.395.109.714.498 1.247.869 1.19Z"/><path stroke="#000" stroke-linecap="round" stroke-miterlimit="10" stroke-width=".785" d="M92.2 35.137s-3.485.601-5.25 4.13M101.578 32.556s3.312-1.242 6.618.908M116.078 138.551c12.681.732 19.096 3.497 22.329 6.239M75.087 125.708s12.839-7.534 41.694-7.534M86.547 131.648s24.401 1.909 42.864-5.941"/><path fill="#F8FF6E" d="m195.029 165.199-56.649 16.687a2.329 2.329 0 0 1-2.749 1.156l-62.844-19.653a1.43 1.43 0 0 1 .703-.364l67.121-13.422a4.25 4.25 0 0 1 1.779.026l52.595 13.297c1.164.293 1.195 1.936.044 2.276v-.003Z"/><path fill="#000" d="M141.436 150.302c.259 0 .515.029.769.087l52.587 13.294a.374.374 0 0 1 .298.374c0 .091-.021.308-.282.387l-56.65 16.687-.322.094-.154.298a1.54 1.54 0 0 1-1.818.769l-60.348-18.874 65.248-13.048c.219-.044.447-.065.672-.065m0-.785c-.277 0-.555.026-.827.081l-67.12 13.422a1.43 1.43 0 0 0-.704.364l62.844 19.653a2.327 2.327 0 0 0 2.749-1.156l56.649-16.687c1.151-.34 1.12-1.98-.044-2.276l-52.595-13.296a4.315 4.315 0 0 0-.952-.107v.002Z"/><path stroke="#000" stroke-linecap="round" stroke-miterlimit="10" stroke-width=".785" d="m179.196 165.491-42.788 12.852a3.799 3.799 0 0 1-2.232-.013L90.12 164.552c-.354-.11-.33-.617.031-.693 7.908-1.669 48.82-9.899 48.82-9.899a3.19 3.19 0 0 1 1.316.019l38.877 9.827c.861.218.884 1.431.032 1.682v.003Z"/><path fill="#0564FF" d="m235.416 106.374-34.885 61.536a2.587 2.587 0 0 1-1.45 1.185l-59.937 19.653a3.681 3.681 0 0 1-2.313-.005l-63.516-21.136a1.436 1.436 0 0 1-.983-1.363v-1.813c0-.408.17-.782.452-1.044l62.844 19.653a2.327 2.327 0 0 0 2.749-1.156l15.361-29.638 20.864-40.258a4.34 4.34 0 0 1 3.545-2.328l56.837-3.971a.458.458 0 0 1 .432.685Z"/><path fill="#F8FF6E" d="M195.746 147.819c3.601-3.804 4.816-8.501 2.714-10.492-2.103-1.99-6.727-.52-10.328 3.285-3.601 3.804-4.816 8.502-2.714 10.492 2.103 1.99 6.727.52 10.328-3.285Z"/><path stroke="#000" stroke-linecap="round" stroke-miterlimit="10" stroke-width=".785" d="M195.746 147.819c3.601-3.804 4.816-8.501 2.714-10.492-2.103-1.99-6.727-.52-10.328 3.285-3.601 3.804-4.816 8.502-2.714 10.492 2.103 1.99 6.727.52 10.328-3.285Z"/><path fill="#F8FF6E" d="M189.253 138.714c.983-1.039 1.315-2.321.741-2.865-.574-.543-1.836-.141-2.819.897-.983 1.039-1.315 2.321-.741 2.865.574.543 1.836.141 2.819-.897Z"/><path stroke="#000" stroke-linecap="round" stroke-miterlimit="10" stroke-width=".785" d="M189.253 138.714c.983-1.039 1.315-2.321.741-2.865-.574-.543-1.836-.141-2.819.897-.983 1.039-1.315 2.321-.741 2.865.574.543 1.836.141 2.819-.897Z"/><path stroke="#000" stroke-linecap="round" stroke-miterlimit="10" stroke-width=".785" d="m138.817 187.345 37.784-73.308a4.426 4.426 0 0 1 3.651-2.388l52.399-3.348"/><path fill="#fff" d="m135.592 161.467-.337.128-12.062-10.804-.183-2.352 5.705 1.79c.772.24 1.434.737 1.876 1.412l5.488 8.332a1.005 1.005 0 0 1-.487 1.494Z"/><path stroke="#000" stroke-linecap="round" stroke-miterlimit="10" stroke-width=".785" d="m135.592 161.467-.337.128-12.062-10.804-.183-2.352 5.705 1.79c.772.24 1.434.737 1.876 1.412l5.488 8.332a1.005 1.005 0 0 1-.487 1.494Z"/><path fill="#000" d="M77.312 166.883s5.222 1.342 8.235-5.763c3.024-7.128 5.902-17.385.466-17.722-5.436-.338-15.954 11.191-15.954 11.191l7.253 12.294Z"/><path stroke="#000" stroke-linecap="round" stroke-miterlimit="10" stroke-width=".785" d="M77.312 166.883s5.222 1.342 8.235-5.763c3.024-7.128 5.902-17.385.466-17.722-5.436-.338-15.954 11.191-15.954 11.191l7.253 12.294Z"/><path fill="#fff" d="M133.797 163.652a1.705 1.705 0 0 1-1.405-.495l-6.458-6.573 3.764 5.386a1.682 1.682 0 0 1-2.532 2.187l-8.499-8.018a1.455 1.455 0 0 0-.678-.364l-5.109-1.185c.013.021.021.042.032.063l2.901 6.548a1.612 1.612 0 0 1-.921 2.168 1.61 1.61 0 0 1-1.753-.429l-4.604-5.069a3.45 3.45 0 0 0-.635-.56c-1.044.526-11.134 5.344-18.29-1.062a2.837 2.837 0 0 0-2.13-.725l-4.374.379-5.613.484c-7.385.157-8.67-9.37-.986-12.326 1.998-.766 4.606-1.091 7.87-.682 7.945.782 17.888 1.493 30.133 1.959 1.703.063 3.372.497 4.889 1.271l3.602 1.829h.008l4.654 2.372a5.35 5.35 0 0 1 2.108 1.923l5.261 8.334c.107.17.18.348.222.529a1.697 1.697 0 0 1-1.457 2.056Z"/><path stroke="#000" stroke-linecap="round" stroke-miterlimit="10" stroke-width=".785" d="M133.797 163.652a1.705 1.705 0 0 1-1.405-.495l-6.458-6.573 3.764 5.386a1.682 1.682 0 0 1-2.532 2.187l-8.499-8.018a1.455 1.455 0 0 0-.678-.364l-5.109-1.185c.013.021.021.042.032.063l2.901 6.548a1.612 1.612 0 0 1-.921 2.168 1.61 1.61 0 0 1-1.753-.429l-4.604-5.069a3.45 3.45 0 0 0-.635-.56c-1.044.526-11.134 5.344-18.29-1.062a2.837 2.837 0 0 0-2.13-.725l-4.374.379-5.613.484c-7.385.157-8.67-9.37-.986-12.326 1.998-.766 4.606-1.091 7.87-.682 7.945.782 17.888 1.493 30.133 1.959 1.703.063 3.372.497 4.889 1.271l3.602 1.829h.008l4.654 2.372a5.35 5.35 0 0 1 2.108 1.923l5.261 8.334c.107.17.18.348.222.529a1.697 1.697 0 0 1-1.457 2.056Z"/><path fill="#000" d="m83.106 155.903-5.613.484c-7.385.157-8.67-9.371-.986-12.326l7.504.973s-3.387 6.754-.905 10.869Z"/><path stroke="#000" stroke-linecap="round" stroke-miterlimit="10" stroke-width=".785" d="m123.009 148.443 4.654 2.37a5.35 5.35 0 0 1 2.108 1.923l5.261 8.334c.107.17.18.348.222.529M106.767 147.015l1.959-.343a4.848 4.848 0 0 1 2.676.29l9.478 3.88a5.358 5.358 0 0 1 2.359 1.888l2.695 3.853M101.138 151.789l.911 1.891a3.722 3.722 0 0 0 1.875 1.808l3.314 1.449c.233.102.453.225.66.372M105.095 147.594l6.425 5.234a4.869 4.869 0 0 1 1.363 1.761"/><path fill="#fff" d="M86.013 143.399a12.856 12.856 0 0 0-2.001 1.635c-2.948 2.943-4.55 7.249-5.41 11.256a42.405 42.405 0 0 0-.335 1.748c-.68 4.015-.672 7.452-.65 8.486a.353.353 0 0 1-.307.358c-1.865.254-11.544 1.548-16.375 1.875-22.146 1.492-30.983-5.537-34.412-10.387-1.413-1.994-1.95-4.471-1.578-6.885 1.826-11.824-.489-32.495 4.212-46.296 1.734-5.098 4.324-7.578 6.252-8.774.915-3.07 2.242-6.801 4.091-10.523 4.044-8.141 12.661-12.423 12.661-12.423s3.607 4.06 6.932 11.538c0 0 0 .003.003.006 3.408 7.67 6.518 18.936 5.135 33.109-.827 1.031-1.661 1.535-2.35 1.776-1.004 9.061-5.81 12.92-5.964 13.043h-.002c1.68.74 2.79 1.664 2.99 2.613.36 1.732-1.426 2.684-2.914 3.171 2.275.627 11.172 2.822 30.02 4.674h.002Z"/><path stroke="#000" stroke-linecap="round" stroke-miterlimit="10" stroke-width=".785" d="M86.013 143.399a12.856 12.856 0 0 0-2.001 1.635c-2.948 2.943-4.55 7.249-5.41 11.256a42.405 42.405 0 0 0-.335 1.748c-.68 4.015-.672 7.452-.65 8.486a.353.353 0 0 1-.307.358c-1.865.254-11.544 1.548-16.375 1.875-22.146 1.492-30.983-5.537-34.412-10.387-1.413-1.994-1.95-4.471-1.578-6.885 1.826-11.824-.489-32.495 4.212-46.296 1.734-5.098 4.324-7.578 6.252-8.774.915-3.07 2.242-6.801 4.091-10.523 4.044-8.141 12.661-12.423 12.661-12.423s3.607 4.06 6.932 11.538c0 0 0 .003.003.006 3.408 7.67 6.518 18.936 5.135 33.109-.827 1.031-1.661 1.535-2.35 1.776-1.004 9.061-5.81 12.92-5.964 13.043h-.002c1.68.74 2.79 1.664 2.99 2.613.36 1.732-1.426 2.684-2.914 3.171 2.275.627 11.172 2.822 30.02 4.674h.002Z"/><path stroke="#000" stroke-linecap="round" stroke-miterlimit="10" stroke-width=".785" d="M52.164 73.469s14.803 16.652 12.07 44.653M35.234 145.709s5.854-9.684 20.153-7.158c0 0 .196.063.606.173M35.608 134.978c5.867-4.758 15.455-4.172 20.31-2.035M56.119 120.727s4.56 6.487-.2 12.213M54.463 101.168s8.316 8.154 7.5 17.937c-.023.269-.047.536-.078.795M33.667 103.641s.481-2.987 1.745-7.225"/><path fill="#fff" d="m204.783 169.27-.442 1.143-.304.79a2.038 2.038 0 0 1-1.901 1.303h-4.544a1.403 1.403 0 0 1-1.023-2.36c.175-.185.4-.324.654-.392l.997-.272 3.269-.892 3.294.68Z"/><path fill="#fff" d="M207.064 169.894a3.448 3.448 0 0 1-2.394.565l-5.87-.793c-1.329-.18-1.988-1.708-1.211-2.799a1.786 1.786 0 0 1 1.018-.69l5.896-1.481h.013l.78-1.669h2.78l.126.966.34 2.613a3.444 3.444 0 0 1-1.478 3.288Z"/><path stroke="#000" stroke-linecap="round" stroke-miterlimit="10" stroke-width=".785" d="M207.064 169.894a3.448 3.448 0 0 1-2.394.565l-5.87-.793c-1.329-.18-1.988-1.708-1.211-2.799a1.786 1.786 0 0 1 1.018-.69l5.896-1.481h.013l.78-1.669h2.78l.126.966.34 2.613a3.444 3.444 0 0 1-1.478 3.288Z"/><path fill="#fff" d="m213.242 155.077-1.334 6.281a3.086 3.086 0 0 1-2.44 2.39l-7.186 1.369a2.096 2.096 0 0 1-1.342-3.927l6.001-3.05 6.301-3.066v.003Z"/><path stroke="#000" stroke-linecap="round" stroke-miterlimit="10" stroke-width=".785" d="m213.242 155.077-1.334 6.281a3.086 3.086 0 0 1-2.44 2.39l-7.186 1.369a2.096 2.096 0 0 1-1.342-3.927l6.001-3.05 6.301-3.066v.003Z"/><path fill="#fff" d="m214.281 155.709-1.321.702-6.103 3.233a1.593 1.593 0 0 1-1.891-2.519l2.715-2.797a14.948 14.948 0 0 0 2.27-3.032l2.258-3.984 2.995 5.193a2.318 2.318 0 0 1-.923 3.204Z"/><path stroke="#000" stroke-linecap="round" stroke-miterlimit="10" stroke-width=".785" d="m214.281 155.709-1.321.702-6.103 3.233a1.593 1.593 0 0 1-1.891-2.519l2.715-2.797a14.948 14.948 0 0 0 2.27-3.032l2.258-3.984 2.995 5.193a2.318 2.318 0 0 1-.923 3.204ZM116.077 138.551c12.682.732 19.096 3.497 22.329 6.239M134.935 60.455c11.063 18.565 7.633 40.308 5.697 54.675-1.585 11.75.573 16.174 1.494 20.009"/></g><defs><clipPath id="a"><path fill="#fff" d="M.52 0h234.96v214.565H.52z"/></clipPath></defs></svg>