<svg xmlns="http://www.w3.org/2000/svg" width="313" height="216" fill="none"><g clip-path="url(#a)"><path fill="#CCDFFF" d="M148.509 72.086h22.605c2.382 0 4.312-1.9 4.312-4.245V4.528c0-2.344-1.93-4.244-4.312-4.244h-22.605c-2.381 0-4.312 1.9-4.312 4.244v63.313c0 2.345 1.931 4.245 4.312 4.245Z"/><path stroke="#000" stroke-linecap="round" stroke-miterlimit="10" stroke-width=".509" d="M148.509 72.086h22.605c2.382 0 4.312-1.9 4.312-4.245V4.528c0-2.344-1.93-4.244-4.312-4.244h-22.605c-2.381 0-4.312 1.9-4.312 4.244v63.313c0 2.345 1.931 4.245 4.312 4.245Z"/><path fill="#fff" d="M147.695.252H87.153c-2.381 0-4.312 1.9-4.312 4.244V67.81c0 2.344 1.93 4.244 4.312 4.244h60.542c2.382 0 4.312-1.9 4.312-4.244V4.496c0-2.344-1.93-4.244-4.312-4.244Z"/><path stroke="#000" stroke-linecap="round" stroke-miterlimit="10" stroke-width=".509" d="M147.695.252H87.153c-2.381 0-4.312 1.9-4.312 4.244V67.81c0 2.344 1.93 4.244 4.312 4.244h60.542c2.382 0 4.312-1.9 4.312-4.244V4.496c0-2.344-1.93-4.244-4.312-4.244Z"/><path fill="#0564FF" d="M115.672 15.48a8.073 8.073 0 0 1 3.503 0c1.636.364 4.444 1.015 8.533 2.052a454.106 454.106 0 0 1 7.933 2.07 1.424 1.424 0 0 1 1.058 1.392c-.033 2.372-.375 8.516-2.683 17.862-2.32 9.396-10.677 14.794-15.848 17.956a1.425 1.425 0 0 1-1.485 0c-5.171-3.161-13.528-8.56-15.848-17.956-2.308-9.345-2.65-15.49-2.682-17.862a1.427 1.427 0 0 1 1.057-1.392 457.388 457.388 0 0 1 7.933-2.07 298.097 298.097 0 0 1 8.533-2.053h-.004Z"/><path stroke="#000" stroke-linecap="round" stroke-miterlimit="10" stroke-width=".509" d="M116.126 20.832c.855-.19 1.74-.19 2.596 0 1.212.27 3.293.752 6.323 1.521 3.112.79 4.947 1.28 5.879 1.533.469.13.79.552.783 1.033-.024 1.757-.278 6.31-1.987 13.235-1.72 6.963-7.912 10.963-11.743 13.306a1.053 1.053 0 0 1-1.101 0c-3.832-2.343-10.025-6.343-11.743-13.306-1.709-6.925-1.963-11.478-1.987-13.235-.007-.48.314-.904.783-1.033.93-.254 2.765-.745 5.879-1.533 3.029-.769 5.11-1.251 6.323-1.52h-.005Z"/><path fill="#F8FF6E" d="M114.025 39.631a2.459 2.459 0 0 1-2.039-1.085l-1.442-2.166c-.424-.637-.305-1.507.312-1.964.677-.501 1.632-.33 2.089.358l.604.907a1.058 1.058 0 0 0 1.49.271l9.185-6.512a1.467 1.467 0 0 1 2.027.324c.469.64.321 1.533-.329 1.995l-10.467 7.42a2.483 2.483 0 0 1-1.43.454v-.002Z"/><path stroke="#000" stroke-linecap="round" stroke-miterlimit="10" stroke-width=".509" d="M114.025 39.631a2.459 2.459 0 0 1-2.039-1.085l-1.442-2.166c-.424-.637-.305-1.507.312-1.964.677-.501 1.632-.33 2.089.358l.604.907a1.058 1.058 0 0 0 1.49.271l9.185-6.512a1.467 1.467 0 0 1 2.027.324c.469.64.321 1.533-.329 1.995l-10.467 7.42a2.483 2.483 0 0 1-1.43.454v-.002Z"/><path fill="#000" d="M93.5 148.057v63.313c0 2.245-1.772 4.084-4.013 4.233a3.294 3.294 0 0 1-.3.012H66.582c-2.382 0-4.312-1.9-4.312-4.245v-63.313c0-2.345 1.93-4.245 4.312-4.245h22.605c.102 0 .202.004.3.012 2.24.15 4.012 1.988 4.012 4.233Z"/><path stroke="#000" stroke-linecap="round" stroke-miterlimit="10" stroke-width=".509" d="M93.5 148.057v63.313c0 2.245-1.772 4.084-4.013 4.233a3.294 3.294 0 0 1-.3.012H66.582c-2.382 0-4.312-1.9-4.312-4.245v-63.313c0-2.345 1.93-4.245 4.312-4.245h22.605c.102 0 .202.004.3.012 2.24.15 4.012 1.988 4.012 4.233Z"/><path fill="#fff" d="M65.768 143.812H5.226c-2.382 0-4.312 1.901-4.312 4.245v63.313c0 2.345 1.93 4.245 4.312 4.245h60.542c2.382 0 4.312-1.9 4.312-4.245v-63.313c0-2.344-1.93-4.245-4.312-4.245Z"/><path stroke="#000" stroke-linecap="round" stroke-miterlimit="10" stroke-width=".509" d="M65.768 143.812H5.226c-2.382 0-4.312 1.901-4.312 4.245v63.313c0 2.345 1.93 4.245 4.312 4.245h60.542c2.382 0 4.312-1.9 4.312-4.245v-63.313c0-2.344-1.93-4.245-4.312-4.245Z"/><path fill="#000" d="M127.426 76.332v63.314c0 2.343-1.932 4.244-4.313 4.244h-22.604c-2.382 0-4.313-1.901-4.313-4.244V76.332c0-2.344 1.93-4.244 4.313-4.244h22.604c2.381 0 4.313 1.9 4.313 4.244Z"/><path stroke="#000" stroke-linecap="round" stroke-miterlimit="10" stroke-width=".509" d="M127.426 76.332v63.314c0 2.343-1.932 4.244-4.313 4.244h-22.604c-2.382 0-4.313-1.901-4.313-4.244V76.332c0-2.344 1.93-4.244 4.313-4.244h22.604c2.381 0 4.313 1.9 4.313 4.244Z"/><path fill="#fff" d="M99.695 72.088H39.153c-2.382 0-4.312 1.9-4.312 4.244v63.314c0 2.344 1.93 4.244 4.312 4.244h60.542c2.381 0 4.312-1.9 4.312-4.244V76.332c0-2.344-1.931-4.244-4.312-4.244Z"/><path stroke="#000" stroke-linecap="round" stroke-miterlimit="10" stroke-width=".509" d="M99.695 72.088H39.153c-2.382 0-4.312 1.9-4.312 4.244v63.314c0 2.344 1.93 4.244 4.312 4.244h60.542c2.381 0 4.312-1.9 4.312-4.244V76.332c0-2.344-1.931-4.244-4.312-4.244Z"/><path fill="#000" d="M205.277 76.332v63.314c0 2.345-1.93 4.244-4.312 4.244H178.36c-2.381 0-4.312-1.899-4.312-4.244V76.332c0-2.344 1.931-4.244 4.312-4.244h22.605c1.224 0 2.33.502 3.113 1.309a4.194 4.194 0 0 1 1.199 2.935Z"/><path stroke="#000" stroke-linecap="round" stroke-miterlimit="10" stroke-width=".509" d="M205.277 76.332v63.314c0 2.345-1.93 4.244-4.312 4.244H178.36c-2.381 0-4.312-1.899-4.312-4.244V76.332c0-2.344 1.931-4.244 4.312-4.244h22.605c1.224 0 2.33.502 3.113 1.309a4.194 4.194 0 0 1 1.199 2.935Z"/><path fill="#fff" d="M177.547 72.088h-60.541c-2.382 0-4.313 1.9-4.313 4.244v63.314c0 2.344 1.931 4.244 4.313 4.244h60.541c2.382 0 4.313-1.9 4.313-4.244V76.332c0-2.344-1.931-4.244-4.313-4.244Z"/><path stroke="#000" stroke-linecap="round" stroke-miterlimit="10" stroke-width=".509" d="M177.547 72.088h-60.541c-2.382 0-4.313 1.9-4.313 4.244v63.314c0 2.344 1.931 4.244 4.313 4.244h60.541c2.382 0 4.313-1.9 4.313-4.244V76.332c0-2.344-1.931-4.244-4.313-4.244Z"/><path fill="#000" d="M178.06 148.057v63.313c0 2.345-1.93 4.245-4.312 4.245h-22.605c-2.38 0-4.312-1.9-4.312-4.245v-63.313c0-2.345 1.932-4.245 4.312-4.245h22.605c2.382 0 4.312 1.9 4.312 4.245Z"/><path fill="#fff" d="M150.331 143.812H89.789c-2.382 0-4.312 1.901-4.312 4.245v63.313c0 2.345 1.93 4.245 4.312 4.245h60.542c2.381 0 4.312-1.9 4.312-4.245v-63.313c0-2.344-1.931-4.245-4.312-4.245Z"/><path stroke="#000" stroke-linecap="round" stroke-miterlimit="10" stroke-width=".509" d="M150.331 143.812H89.789c-2.382 0-4.312 1.901-4.312 4.245v63.313c0 2.345 1.93 4.245 4.312 4.245h60.542c2.381 0 4.312-1.9 4.312-4.245v-63.313c0-2.344-1.931-4.245-4.312-4.245Z"/><path fill="#CCDFFF" d="M228.205 215.617h13.898c2.381 0 4.312-1.9 4.312-4.244v-63.314c0-2.344-1.931-4.244-4.312-4.244h-13.898c-2.381 0-4.312 1.9-4.312 4.244v63.314c0 2.344 1.931 4.244 4.312 4.244Z"/><path stroke="#000" stroke-linecap="round" stroke-miterlimit="10" stroke-width=".509" d="M228.205 215.617h13.898c2.381 0 4.312-1.9 4.312-4.244v-63.314c0-2.344-1.931-4.244-4.312-4.244h-13.898c-2.381 0-4.312 1.9-4.312 4.244v63.314c0 2.344 1.931 4.244 4.312 4.244Z"/><path fill="#fff" d="M227.391 143.812H166.85c-2.382 0-4.313 1.901-4.313 4.245v63.313c0 2.345 1.931 4.245 4.313 4.245h60.541c2.382 0 4.313-1.9 4.313-4.245v-63.313c0-2.344-1.931-4.245-4.313-4.245Z"/><path stroke="#000" stroke-linecap="round" stroke-miterlimit="10" stroke-width=".509" d="M227.391 143.812H166.85c-2.382 0-4.313 1.901-4.313 4.245v63.313c0 2.345 1.931 4.245 4.313 4.245h60.541c2.382 0 4.313-1.9 4.313-4.245v-63.313c0-2.344-1.931-4.245-4.313-4.245ZM263.167 202.911l-6.416 3.492-4.078-2.973-.257-3.485v-.002l-.164-2.237-.71-9.659 10.871 2.007.308 5.246.277 4.721.169 2.89Z"/><path fill="#CCDFFF" d="M282.122 215.045c0 .31-.252.565-.567.565h-30.37a.765.765 0 0 1-.772-.783l.097-3.09.071-2.249c.102-3.258.422-6.662 1.537-9.73 0 0 .897 1.317 1.23 1.732.755.947 1.971 1.356 3.004.728l1.025-.623a10.196 10.196 0 0 1 4.247-1.431l1.619-.157s5.342 6.394 14.048 10.05l1.999.818a4.526 4.526 0 0 1 2.832 4.171v-.001Z"/><path stroke="#000" stroke-linecap="round" stroke-miterlimit="10" stroke-width=".509" d="M282.122 215.045c0 .31-.252.565-.567.565h-30.37a.765.765 0 0 1-.772-.783l.097-3.09.071-2.249c.102-3.258.422-6.662 1.537-9.73 0 0 .897 1.317 1.23 1.732.755.947 1.971 1.356 3.004.728l1.025-.623a10.196 10.196 0 0 1 4.247-1.431l1.619-.157s5.342 6.394 14.048 10.05l1.999.818a4.526 4.526 0 0 1 2.832 4.171v-.001Z"/><path stroke="#000" stroke-linecap="round" stroke-miterlimit="10" stroke-width=".509" d="m269.398 205.704-1.437-.018a2.482 2.482 0 0 0-1.818.752l-3.215 3.324a2.58 2.58 0 0 1-2.001.779l-4.628-.259a1.438 1.438 0 0 0-1.302.667l-.882 1.406"/><path fill="#000" d="M282.122 215.046c0 .31-.252.565-.567.565h-30.37a.765.765 0 0 1-.772-.783l.097-3.09h.002l5.152.885a12.92 12.92 0 0 1 3.781 1.271 5.031 5.031 0 0 0 2.261.568l20.402.259c.011.109.014.216.014.325Z"/><path fill="#0564FF" d="M266.079 193.998c-1.435.793-6.631 3.133-15.831 1.654a.666.666 0 0 1-.556-.574l-3.872-32.068a22.562 22.562 0 0 1-.033-5.175c-1.183-2.139-1.694-4.113-1.694-4.113l-5.592-2.82-4.624-2.333a38.23 38.23 0 0 0-13.256-3.885l-2.841-.295 16.09-10.794.293-.197 5.125-.786 11.824-1.817 8.522 14.214.652 4.762c1.365 9.947 4.528 32.894 6.138 43.531a.677.677 0 0 1-.345.696Z"/><path stroke="#000" stroke-linecap="round" stroke-miterlimit="10" stroke-width=".509" d="M245.787 157.835c.062-.598.152-1.194.267-1.786.735-3.773 1.934-6.947 1.934-6.947M244.093 153.722s-1.016-5.906.102-9.911"/><path fill="#0564FF" d="M253.129 129.898c-.46.418-.95.81-1.445 1.189-3.985 3.053-8.371 4.901-12.923 6.937h-.005l-8.126 3.632a31.498 31.498 0 0 1-12.849 2.736h-10.813c-4.644 0-9.109-1.675-12.495-4.691a17.77 17.77 0 0 1-2.372-2.57l15.921-21.582 4.54.2c1.518.066 3.034.134 4.552.201l14.78.651 15.716.693 5.133.226c.452.02 1.078-.061 1.514.058 1.646.448 2.117 4.132 2.088 5.551a9.14 9.14 0 0 1-2.065 5.574c-.35.426-.738.82-1.149 1.192l-.002.003Z"/><path stroke="#000" stroke-linecap="round" stroke-miterlimit="10" stroke-width=".509" d="M211.373 117.672c-5.402 8.499-13.069 17.63-16.9 22.032M246.33 134.641l-15.7 7.017a31.501 31.501 0 0 1-12.849 2.736M235.604 51.515l-3.564 5.929-1.528 11.112-2.706 11.675-14.893-5.512 1.649-4.163 4.956-12.516 3.944-9.961 7.882-.19 4.26 3.626Z"/><path fill="#fff" d="m228.054 104.14-.647 12.45h-12.752l-.617-3.423-3.854-21.36-1.041-18.76 7.344-11.936h.002c.081.106 2.694 3.469 6.082 6.36a2.434 2.434 0 0 1 .265.263c.368.425.582.963.602 1.527.066 1.821.361 5.555 1.648 8.287l.607 21.1 2.361 5.492Z"/><path stroke="#000" stroke-linecap="round" stroke-miterlimit="10" stroke-width=".509" d="m228.054 104.14-.647 12.45h-12.752l-.617-3.423-3.854-21.36-1.041-18.76 7.344-11.936h.002c.081.106 2.694 3.469 6.082 6.36a2.434 2.434 0 0 1 .265.263c.368.425.582.963.602 1.527.066 1.821.361 5.555 1.648 8.287l.607 21.1 2.361 5.492Z"/><path stroke="#000" stroke-linecap="round" stroke-miterlimit="10" stroke-width=".509" d="M222.831 67.73c-.079-.067-1.274-.94-4.412 4.799-.091.168-.35.124-.376-.067l-1.558-11.353h.144c.081.107 2.552 3.47 5.94 6.362.095.081.181.168.261.26h.001Z"/><path fill="#CCDFFF" d="m217.046 106.28-.005.017c-.266.784-.55 1.562-.857 2.331a40.548 40.548 0 0 1-1.529 3.367c-.926 1.813-2.044 3.725-3.282 5.67-6.243 9.82-15.509 20.486-18.386 23.723a2.086 2.086 0 0 1-2.156.607l-10.841-3.248a1.511 1.511 0 0 1-1.047-1.805c.456-1.842 1.377-5.38 2.769-9.795 1.776-5.633 4.317-12.694 7.627-19.478.178-.367.359-.732.542-1.095 3.563-7.092 1.407-18.206 3.581-27.272.15-.624.326-1.242.526-1.852 2.687-8.253 9.473-15.022 9.473-15.022l6.82-2.03.253-.075a6.43 6.43 0 0 1 3.937.088l2.018.7s.233.786.579 2.193c.045.18.09.369.138.569.337 1.41.752 3.314 1.158 5.584 1.607 9.022 3.048 23.857-1.318 36.823Z"/><path stroke="#000" stroke-linecap="round" stroke-miterlimit="10" stroke-width=".509" d="m217.046 106.28-.005.017c-.266.784-.55 1.562-.857 2.331a40.548 40.548 0 0 1-1.529 3.367c-.926 1.813-2.044 3.725-3.282 5.67-6.243 9.82-15.509 20.486-18.386 23.723a2.086 2.086 0 0 1-2.156.607l-10.841-3.248a1.511 1.511 0 0 1-1.047-1.805c.456-1.842 1.377-5.38 2.769-9.795 1.776-5.633 4.317-12.694 7.627-19.478.178-.367.359-.732.542-1.095 3.563-7.092 1.407-18.206 3.581-27.272.15-.624.326-1.242.526-1.852 2.687-8.253 9.473-15.022 9.473-15.022l6.82-2.03.253-.075a6.43 6.43 0 0 1 3.937.088l2.018.7s.233.786.579 2.193c.045.18.09.369.138.569.337 1.41.752 3.314 1.158 5.584 1.607 9.022 3.048 23.857-1.318 36.823Z"/><path stroke="#000" stroke-linecap="round" stroke-miterlimit="10" stroke-width=".509" d="M205.277 126.394c-5.073 6.754-10.265 12.715-12.29 14.993a2.084 2.084 0 0 1-2.156.606l-10.841-3.247a1.511 1.511 0 0 1-1.047-1.805c.456-1.842 1.377-5.38 2.769-9.795 1.776-5.633 4.317-12.694 7.627-19.478.178-.367.359-.732.542-1.095 3.563-7.092 1.407-18.206 3.581-27.272.15-.624.326-1.243.526-1.852.614-1.886 1.443-3.696 2.356-5.365M208.309 61.727s.537 3.487 2.072 8.382c2.678 8.543 6.525 22.524 2.423 37.984"/><path stroke="#000" stroke-linecap="round" stroke-miterlimit="10" stroke-width=".509" d="M216.487 61.11s7.393 24.872.559 45.169l-.005.017c-.266.784-.55 1.562-.857 2.331a40.678 40.678 0 0 1-1.529 3.366c-.196.386-.403.778-.617 1.172"/><path fill="#fff" d="M226.019 110.102a7.13 7.13 0 0 0-.614-5.743l-1.546-2.691a7.686 7.686 0 0 1-1.023-3.922c.085-6.387 1.14-13.884 1.789-17.92a33.952 33.952 0 0 1 1.021-4.355c.594-1.991.535-3.625.445-4.422a.71.71 0 0 1 .445-.729c3.917-1.642 4.609-5.9 4.726-7.085.012-.127.166-.187.264-.102l.516.445 1.549 1.336.228.559a14.506 14.506 0 0 1 .626 9.003s-5.835 23.442.788 42.11h-10.586c.119-2.175.773-4.633 1.372-6.484Z"/><path stroke="#000" stroke-linecap="round" stroke-miterlimit="10" stroke-width=".509" d="M226.019 110.102a7.13 7.13 0 0 0-.614-5.743l-1.546-2.691a7.686 7.686 0 0 1-1.023-3.922c.085-6.387 1.14-13.884 1.789-17.92a33.952 33.952 0 0 1 1.021-4.355c.594-1.991.535-3.625.445-4.422a.71.71 0 0 1 .445-.729c3.917-1.642 4.609-5.9 4.726-7.085.012-.127.166-.187.264-.102l.516.445 1.549 1.336.228.559a14.506 14.506 0 0 1 .626 9.003s-5.835 23.442.788 42.11h-10.586c.119-2.175.773-4.633 1.372-6.484Z"/><path fill="#CCDFFF" d="M244.678 116.585h-10.871c-4.556-12.838-3.738-30.663-2.591-42.08.007-.067.081-.1.139-.069a.327.327 0 0 0 .206.034.286.286 0 0 0 .238-.22c.472-1.961 1.563-6.501.9-10.197l.026.153 1.028.842c2.932 2.441 5.935 4.79 8.676 7.44l.516.498a11.447 11.447 0 0 1 3.962 7.97c.447 7.34.762 21.816-2.229 35.631v-.002Z"/><path stroke="#000" stroke-linecap="round" stroke-miterlimit="10" stroke-width=".509" d="M244.678 116.585h-10.871c-4.556-12.838-3.738-30.663-2.591-42.08.007-.067.081-.1.139-.069a.327.327 0 0 0 .206.034.297.297 0 0 0 .238-.22c.778-2.608.9-10.197.9-10.197l.393.164.499.697c2.932 2.44 6.097 4.925 8.838 7.573l.516.5a11.447 11.447 0 0 1 3.962 7.969c.447 7.34.762 21.816-2.229 35.631v-.002Z"/><path stroke="#000" stroke-linecap="round" stroke-miterlimit="10" stroke-width=".509" d="M238.146 73.217c-.255 5.457-1.747 9.648-2.968 15.124-1.334 5.98-1.604 12.156-.663 18.21.577 3.701 1.636 7.587 3.576 10.037M245.491 78.49s0 6.739-3.914 18.78c-1.801 5.539-2.297 11.408-1.407 17.157l.246 1.591M231.799 74.251a.285.285 0 0 1-.238.22.294.294 0 0 1-.341-.21c-.813-2.867-2.203-4.147-2.836-4.602a.28.28 0 0 1-.019-.445c.745-.622 2.592-2.494 2.899-5.978.011-.127.166-.187.264-.104l.516.445.657.477s-.427 8.236-.9 10.197h-.002Z"/><path fill="#CCDFFF" d="M199.96 99.247c-.076.168-.157.337-.235.503-.66 1.428-1.664 2.737-3.051 3.545-.581.339-1.216.584-1.859.788a15.465 15.465 0 0 1-4.866.733 13.705 13.705 0 0 1-2.391-.238c-.604-.115-1.763-.239-2.234-.655-.973-.861-.973-3.289-.99-4.452-.067-4.597 1.163-9.244 2.441-13.631a115.174 115.174 0 0 1 3.17-9.384c.08-.207.099-.43.054-.647-.645-3.22 2.484-5.568 2.891-7.702.077-.415.229-.83.422-1.236.913-1.917 2.638-3.341 4.688-3.982l.042-.012a11.878 11.878 0 0 1 4.25-.516l1.168.07.205 7.68c.819 3.575.699 8.238-2.865 12.861.524 5.138-1.715 11.175-2.396 12.866.041-.103 1.556 1.496 1.661 1.681.333.579.149 1.156-.109 1.728h.004Z"/><path stroke="#000" stroke-linecap="round" stroke-miterlimit="10" stroke-width=".509" d="M203.667 70.112c.819 3.574.698 8.237-2.866 12.86.525 5.138-1.714 11.175-2.395 12.866.041-.103 1.555 1.496 1.661 1.681.333.579.148 1.156-.109 1.728-.076.168-.157.337-.235.503-.66 1.428-1.664 2.737-3.051 3.545-.581.339-1.216.584-1.859.788a15.465 15.465 0 0 1-4.866.733 13.705 13.705 0 0 1-2.391-.238c-.604-.115-1.763-.239-2.234-.655-.973-.861-.973-3.289-.99-4.452-.067-4.597 1.163-9.244 2.441-13.631a115.174 115.174 0 0 1 3.17-9.384c.08-.207.099-.43.054-.647-.645-3.22 2.484-5.568 2.891-7.702.077-.415.229-.83.422-1.236.913-1.917 2.638-3.341 4.689-3.982l.041-.012a11.878 11.878 0 0 1 4.25-.516l1.168.07"/><path stroke="#000" stroke-linecap="round" stroke-miterlimit="10" stroke-width=".509" d="M205.277 115.422c-7.265-2.838-17.74-7.511-20.046-11.636-3.346-5.983 3.665-24.618 4.716-27.328.079-.207.098-.431.053-.647-.278-1.383.143-2.607.744-3.721"/><path stroke="#000" stroke-linecap="round" stroke-miterlimit="10" stroke-width=".509" d="M203.666 70.113c.82 3.574.699 8.238-2.865 12.86.525 5.138-1.714 11.176-2.395 12.867.812.53 1.545 1.25 1.918 2.219.607.334 1.29.776 2.028 1.356 1.904 1.499 4 3.055 5.214 3.948 2.391.117 5.199.579 7.509 1.862.702.391 1.357.749 1.966 1.076.966.518 2.163 1.131 2.972 1.539"/><path stroke="#000" stroke-linecap="round" stroke-miterlimit="10" stroke-width=".509" d="M200.802 82.971c-.204-2.007-.83-3.876-2.134-5.295M203.667 70.112c-.868-3.785-2.786-6.348-2.786-6.348M193.472 77.094s3.452 2.195 5.072 4.46"/><path fill="#000" d="M212.464 118.039s1.822 1.003 4.796-2.868c1.797-2.337-6.857-3.444-6.857-3.444s-.383 4.247 2.063 6.312h-.002Z"/><path stroke="#000" stroke-linecap="round" stroke-miterlimit="10" stroke-width=".509" d="M212.464 118.039s1.822 1.003 4.796-2.868c1.797-2.337-6.857-3.444-6.857-3.444s-.383 4.247 2.063 6.312h-.002Z"/><path fill="#fff" d="M222.453 109.248c-3.233.868-3.081 5.505-3.007 6.525a.203.203 0 0 1-.188.217l-3.136.267-3.898.331s-.817-5.065 2.451-7.749c.987-.81 2.343-1.402 4.206-1.575 1.283.641 3.137 1.541 3.589 1.742.112.051.1.21-.017.242Z"/><path fill="#CCDFFF" d="M198.363 95.746c.849.508 1.532 1.257 1.959 2.307.608.335 1.291.776 2.029 1.357 1.904 1.499 4 3.054 5.214 3.947 2.391.117 5.199.579 7.509 1.863a145.284 145.284 0 0 0 5.238 2.765c-3.886 1.926-6.663 5.236-7.795 8.246-.471 1.253-.053 1.807-.053 1.807-3.581-1.182-7.11-2.542-10.586-3.993-3.648-1.525-7.277-3.172-10.673-5.195-1.425-.849-2.834-1.768-4.075-2.866-.714-.632-1.367-1.319-1.807-2.067"/><path stroke="#000" stroke-linecap="round" stroke-miterlimit="10" stroke-width=".509" d="M198.363 95.746c.849.508 1.532 1.257 1.959 2.307.608.335 1.291.776 2.029 1.357 1.904 1.499 4 3.054 5.214 3.947 2.391.117 5.199.579 7.509 1.863a145.284 145.284 0 0 0 5.238 2.765c-3.886 1.926-6.663 5.236-7.795 8.246-.471 1.253-.053 1.807-.053 1.807-3.581-1.182-7.11-2.542-10.586-3.993-3.648-1.525-7.277-3.172-10.673-5.195-1.425-.849-2.834-1.768-4.075-2.866-.714-.632-1.367-1.319-1.807-2.067"/><path fill="#fff" d="m237.568 113.358-1.492-.665c.19.139.374.283.555.434l.98.817c.2.166.314.419.28.674a.741.741 0 0 1-.737.633h-.114a.603.603 0 0 1-.005.25.66.66 0 0 1-.236.372.685.685 0 0 1-.419.144l-1.48-.1a.504.504 0 0 1-.256.003l-4.791-1.207a1.384 1.384 0 0 0-1.051.165c-2.622 1.592-4.262 1.159-4.962.808a1.73 1.73 0 0 0-1.016-.168l-3.36.453c-1.354-1.153-1.251-3.375-1.251-3.375l2.33-3.621.865.071c.95.078 1.905.075 2.856-.009l5.087-.45a7.5 7.5 0 0 1 2.811.287l2.553.768a5.829 5.829 0 0 1 2.563 1.575l1.047 1.106a.643.643 0 0 1 .019.865.666.666 0 0 1-.776.17Z"/><path stroke="#000" stroke-linecap="round" stroke-miterlimit="10" stroke-width=".509" d="m237.568 113.358-1.492-.665c.19.139.374.283.555.434l.98.817c.2.166.314.419.28.674a.741.741 0 0 1-.737.633h-.114a.603.603 0 0 1-.005.25.66.66 0 0 1-.236.372.685.685 0 0 1-.419.144l-1.48-.1a.504.504 0 0 1-.256.003l-4.791-1.207a1.384 1.384 0 0 0-1.051.165c-2.622 1.592-4.262 1.159-4.962.808a1.73 1.73 0 0 0-1.016-.168l-3.36.453c-1.354-1.153-1.251-3.375-1.251-3.375l2.33-3.621.865.071c.95.078 1.905.075 2.856-.009l5.087-.45a7.5 7.5 0 0 1 2.811.287l2.553.768a5.829 5.829 0 0 1 2.563 1.575l1.047 1.106a.643.643 0 0 1 .019.865.666.666 0 0 1-.776.17Z"/><path stroke="#000" stroke-linecap="round" stroke-miterlimit="10" stroke-width=".509" d="m229.401 111.188 1.951.567c1.219.354 2.385.869 3.467 1.528l1.69 1.03c.331.202.533.557.533.941M230.141 110.242l1.932.521a11.989 11.989 0 0 1 4.003 1.931M228.148 112.17l2.225.326a5.466 5.466 0 0 1 2.319.918l2.356 1.642a.48.48 0 0 1-.149.858M222.453 109.248c-3.233.868-3.081 5.505-3.007 6.525a.203.203 0 0 1-.188.217l-3.136.267-3.898.331s-.817-5.065 2.451-7.749c.987-.81 2.343-1.402 4.206-1.575 1.283.641 3.137 1.541 3.589 1.742.112.051.1.21-.017.242ZM212.328 116.692c-.064.426-.047.825.072 1.18.023.068-.044.131-.112.107l-.914-.313c-3.629-1.256-15.436-5.524-22.034-9.996"/><path stroke="#000" stroke-linecap="round" stroke-miterlimit="10" stroke-width=".509" d="M220.224 108.029a19.71 19.71 0 0 0-4.029 2.844c-1.753 1.625-3.414 3.781-3.812 5.535M202.351 103.58s2.296-.366 5.214-.222M197.402 96.996s1.14.073 2.92 1.056M194.824 94.475s1.949.295 3.581 1.36"/><path fill="#fff" d="M221.153 36.06s-2.536 1.473-4.592 7.062c-2.272 6.171-1.878 9.524-1.878 9.524l9.173 2.092 4.634-1.236 4.877-9.6-.338-6.986-5.36-1.71-6.518.855h.002Z"/><path stroke="#000" stroke-linecap="round" stroke-miterlimit="10" stroke-width=".509" d="M221.153 36.06s-2.536 1.473-4.592 7.062c-2.272 6.171-1.878 9.524-1.878 9.524l9.173 2.092 4.634-1.236 4.877-9.6-.338-6.986-5.36-1.71-6.518.855h.002Z"/><path stroke="#000" stroke-linecap="round" stroke-miterlimit="10" stroke-width=".509" d="M220.816 41.542s1.556-.356 2.557.999M218.656 41.542s-.742-.17-1.531.17"/><path fill="#000" d="M231.927 57.479s-.618-1.494.686-3.606.64-3.983.64-3.983-3.003 1.336-3.248 5.132c-.243 3.797-1.278 7.666-10.746 8.233-9.47.567-9.368-3.267-9.12-5.104.371-2.743 3.288-4.161 3.876-5.784.587-1.621.739-3.849 3.374-4.117 1.923-.195 3.001 1.616 3.75 3.066.685 1.328 5.425 2.178 6.493.392.667-1.115 1.711-3.453 2.476-5.569l.137-.382.086-.25.107-.317c.298-.903.523-1.716.611-2.31.427-2.873-.433-5.937-3.267-6.364-3.072-.461-8.913 2.938-8.508-1.986a.45.45 0 0 1 .652-.36c.389.195 1.044.272 2.131-.161 2.251-.898 6.083-1.932 11.867 2.122 5.783 4.054 8.743 11.312-1.997 21.348Z"/><path fill="#000" d="M225.319 42.428a3.453 3.453 0 0 0-1.791-.41l-3.158.137c-.271.012-.53.12-.724.307l-.085.08c-.226.212-.53.328-.842.317h-.036a1.073 1.073 0 0 1-.55-.18 1.123 1.123 0 0 0-.818-.18l-2.677.438a.566.566 0 0 0-.476.554v1.353c0 .757.625 1.363 1.385 1.363l.08-.001a2.141 2.141 0 0 0 1.654-.94l.997-1.492a.437.437 0 0 1 .365-.193h.006c.184.003.346.12.405.292l.069.204a2.635 2.635 0 0 0 2.498 1.765l.089-.001a2.635 2.635 0 0 0 2.358-1.627l.447-1.095c.027-.071.112-.102.183-.068l9.421 4.594.326-.293-9.126-4.924Zm-1.339.907c-.315.78-1.164 2.39-2.737 2.13-1.206-.198-1.779-1.181-2.011-1.738a.624.624 0 0 0-.577-.387h-.031c-.207 0-.4.102-.514.271-.37.547-1.198 1.742-1.44 1.87-.593.314-1.045.271-1.383.2-.635-.136-.673-.752-.673-.752l-.034-1.122a.621.621 0 0 1 .541-.634l2.291-.315c.221-.03.447.003.648.1h.002c.159.076.333.117.511.12l.576.012c.245-.013.533-.232.74-.423.2-.183.457-.291.728-.3l3.163-.105h.012a.33.33 0 0 1 .333.33c0 .254-.048.505-.145.743Z"/><path fill="#000" d="M222.471 44.6c.006-.402-.162-.73-.374-.732-.213-.003-.39.32-.395.721-.006.402.162.73.374.733.213.002.39-.32.395-.722ZM217.753 44.6c.006-.402-.162-.73-.374-.732-.213-.003-.39.32-.395.721-.006.402.162.73.374.733.213.002.39-.32.395-.722Z"/><path stroke="#000" stroke-linecap="round" stroke-miterlimit="10" stroke-width=".509" d="m218.766 43.602-1.793 1.862a1.73 1.73 0 0 0-.151 2.226l.412.562"/><path stroke="#fff" stroke-linecap="round" stroke-miterlimit="10" stroke-width=".509" d="M215.588 51.778s1.589.365 3.457-.827"/><path stroke="#000" stroke-linecap="round" stroke-miterlimit="10" stroke-width=".509" d="m288.546 169.162-2.962 6.752-5.414 1.051-2.96-4.165-.785-1.104-1.823-2.565c-5.789-7.905 3.683-13.74 9.48-5.55a80.228 80.228 0 0 0 4.464 5.581Z"/><path fill="#CCDFFF" d="m311.697 173.357-3.593 3.25a6.172 6.172 0 0 1-1.604 1.045l-9.904 4.432a3.011 3.011 0 0 1-1.442.253l-5.14-.374a2.688 2.688 0 0 0-2.345 1.058 1.557 1.557 0 0 1-.955.594l-5.592 1.073a.615.615 0 0 1-.661-.316l-.436-.835a26.983 26.983 0 0 1-.961-2.037 28.328 28.328 0 0 1-2.113-8.224c-.041-.401.404-.673.752-.461l2.62 1.408c.89.477 2.004.129 2.451-.766l.947-1.896a9.517 9.517 0 0 1 1.96-2.649l1.492-1.422a.966.966 0 0 1 1.159-.45l5.619 1.893a29.757 29.757 0 0 0 8.915 1.553l5.863.119a4.44 4.44 0 0 1 2.992 1.238 1.029 1.029 0 0 1-.026 1.514h.002Z"/><path stroke="#000" stroke-linecap="round" stroke-miterlimit="10" stroke-width=".509" d="m311.697 173.357-3.593 3.25a6.172 6.172 0 0 1-1.604 1.045l-9.904 4.432a3.011 3.011 0 0 1-1.442.253l-5.14-.374a2.688 2.688 0 0 0-2.345 1.058 1.557 1.557 0 0 1-.955.594l-5.592 1.073a.615.615 0 0 1-.661-.316l-.436-.835a26.983 26.983 0 0 1-.961-2.037 28.328 28.328 0 0 1-2.113-8.224c-.041-.401.404-.673.752-.461l2.62 1.408c.89.477 2.004.129 2.451-.766l.947-1.896a9.517 9.517 0 0 1 1.96-2.649l1.492-1.422a.966.966 0 0 1 1.159-.45l5.619 1.893a29.757 29.757 0 0 0 8.915 1.553l5.863.119a4.44 4.44 0 0 1 2.992 1.238 1.029 1.029 0 0 1-.026 1.514h.002Z"/><path fill="#000" d="m311.697 173.359-3.593 3.249a6.15 6.15 0 0 1-1.604 1.046l-9.904 4.432a3 3 0 0 1-1.443.252l-5.14-.373a2.685 2.685 0 0 0-2.344 1.058 1.56 1.56 0 0 1-.955.594l-5.592 1.073a.615.615 0 0 1-.661-.316l-.437-.835a27.388 27.388 0 0 1-.96-2.038l6.979-.658c.686-.065 1.378-.08 2.068-.041l7.048.385c.426.024.853-.051 1.245-.217l9.382-3.983a6.608 6.608 0 0 0 1.744-1.085l4.391-3.793c.216.408.14.922-.224 1.25Z"/><path stroke="#000" stroke-linecap="round" stroke-miterlimit="10" stroke-width=".509" d="m284.777 180.96.574-1.325a1.558 1.558 0 0 1 1.161-.908l7.59-1.338a1.742 1.742 0 0 0 1.452-1.709v-4.72c0-.347.259-.639.607-.688l1.934-.268"/><path fill="#0564FF" d="M284.318 163.03a.492.492 0 0 1 .028.653c-2.326 2.873-6.457 4.627-9.743 5.447a33.312 33.312 0 0 1-6.916.939.556.556 0 0 1-.556-.428c-3.603-15.387-7.784-22.893-12.693-28.278a40.844 40.844 0 0 0-2.9-2.887c-1.278-1.227-2.758-2.331-4.26-3.28-.749-.472-1.047-.633-1.434-1.482-.472-1.037-.886-2.115-1.014-3.251-.159-1.391.114-2.791.443-4.151.297-1.229.652-2.469 1.354-3.525.597-.898 1.42-1.626 2.27-2.299 1.079-.855 2.226-1.645 3.488-2.215.5-.228 1.38-.71 1.944-.662.468.04 1.023.645 1.358.949.469.424.947.945 1.178 1.47.545 1.228 1.861 1.255 2.471 2.367.587 1.068 13.903 23.64 20.694 35.042 1.182 1.983 2.725 3.947 4.29 5.591h-.002Z"/><path stroke="#000" stroke-linecap="round" stroke-miterlimit="10" stroke-width=".509" d="M246.329 134.637c-.26-4.9 1.66-10.832 1.66-10.832"/><path stroke="#000" stroke-linecap="round" stroke-miterlimit="10" stroke-width=".509" d="M244.694 129.865s.518 3.353 1.635 4.771M260.287 149.77c-1.827-3.473-3.774-6.13-5.851-8.409-4.371-4.796-8.107-6.726-8.107-6.726"/><path fill="#fff" d="M234.786 51.384c-.935 1.593-2.599 2.365-3.718 1.728-1.122-.636-1.273-2.443-.34-4.033.612-1.045 1.54-1.737 2.423-1.907.461-.092.909-.04 1.294.178h.002c1.121.637 1.273 2.442.339 4.032v.002Z"/><path stroke="#000" stroke-linecap="round" stroke-miterlimit="10" stroke-width=".509" d="M231.913 50.678s.579-.256.579-.7c0-.254-.226-.352-.412-.392-.11-.022-.16-.135-.093-.215.322-.382 1.104-1.19 1.828-1.027 1.008.225.594 2.15-1.985 3.796"/><path fill="#fff" d="M216.744 116.288h19.617a.604.604 0 0 0 .575-.409l8.685-25.834a.739.739 0 0 1 .764-.495l26.078 2.202c.375.032.62.402.495.75l-8.433 23.969a1.7 1.7 0 0 1-1.609 1.128H218.34c-.683 0-1.34-.257-1.837-.719-.23-.214-.076-.594.24-.594l.001.002Z"/><path stroke="#000" stroke-linecap="round" stroke-miterlimit="10" stroke-width=".509" d="M216.744 116.288h19.617a.604.604 0 0 0 .575-.409l8.685-25.834a.739.739 0 0 1 .764-.495l26.078 2.202c.375.032.62.402.495.75l-8.433 23.969a1.7 1.7 0 0 1-1.609 1.128H218.34c-.683 0-1.34-.257-1.837-.719-.23-.214-.076-.594.24-.594l.001.002ZM246.414 90.922l-8.323 25.108"/><path fill="#0564FF" d="m258.923 106.524.098.009-.618 1.725-.291-.028c-1.901-.178-2.782-1.342-2.172-3.049l.302-.84.84-.116c.197-.027.395-.103.569-.22.176-.117.323-.272.425-.445.102-.173.153-.357.15-.533a.71.71 0 0 0-.171-.459.772.772 0 0 0-.438-.246 1.14 1.14 0 0 0-.574.043 1.425 1.425 0 0 0-.535.315 1.28 1.28 0 0 0-.333.496l-1.347 3.761-1.923-.182 1.369-3.827c.041-.115.09-.229.147-.343.666-1.341 2.27-2.276 3.758-2.135 1.358.127 2.186 1.108 2.089 2.322-.052.637-.35 1.289-.843 1.842a4.206 4.206 0 0 1-1.644 1.117c-.014.561.388.722 1.142.793Z"/><path fill="#F8FF6E" d="M91.838 98.843c-.41-.151-1.473-1.395-6.298-.998-1.613.132-6.203 1.545-12.036 3.351a.49.49 0 0 1-.323-.012l-13.43-5.332a1.09 1.09 0 0 0-.526-.072l-3.427.362a.168.168 0 0 0-.076.307l10.542 6.8a.1.1 0 0 1-.025.181c-3.597 1.09-7.364 2.192-11.02 3.167-.375.1-.775.03-1.096-.189l-7.472-5.113a.42.42 0 0 0-.354-.06l-1.445.387a.416.416 0 0 0-.223.661l6.337 7.969a.4.4 0 0 1 .047.425l-1.666 3.402a.265.265 0 0 0 .272.377l2.284-.27a.265.265 0 0 0 .188-.112l1.5-2.133c.216-.307.566-.492.946-.506 4.328-.147 9.456-.672 15.351-1.833.08-.015.15.054.131.132l-2.532 10.027c-.053.209.16.386.36.301l2.664-1.126a.78.78 0 0 0 .395-.368l5.104-10.178a.31.31 0 0 1 .203-.16c16.544-3.907 17.972-6.895 18.288-7.73.35-.924-2.256-1.504-2.667-1.653l.004-.004Z"/><path stroke="#000" stroke-linecap="round" stroke-miterlimit="10" stroke-width=".509" d="M91.838 98.843c-.41-.151-1.473-1.395-6.298-.998-1.613.132-6.203 1.545-12.036 3.351a.49.49 0 0 1-.323-.012l-13.43-5.332a1.09 1.09 0 0 0-.526-.072l-3.427.362a.168.168 0 0 0-.076.307l10.542 6.8a.1.1 0 0 1-.025.181c-3.597 1.09-7.364 2.192-11.02 3.167-.375.1-.775.03-1.096-.189l-7.472-5.113a.42.42 0 0 0-.354-.06l-1.445.387a.416.416 0 0 0-.223.661l6.337 7.969a.4.4 0 0 1 .047.425l-1.666 3.402a.265.265 0 0 0 .272.377l2.284-.27a.265.265 0 0 0 .188-.112l1.5-2.133c.216-.307.566-.492.946-.506 4.328-.147 9.456-.672 15.351-1.833.08-.015.15.054.131.132l-2.532 10.027c-.053.209.16.386.36.301l2.664-1.126a.78.78 0 0 0 .395-.368l5.104-10.178a.31.31 0 0 1 .203-.16c16.544-3.907 17.972-6.895 18.288-7.73.35-.924-2.256-1.504-2.667-1.653l.004-.004Z"/><path fill="#0564FF" d="M170.131 106.882c-3.6-7.721-12.959-12.9-23.3-12.9h-.047c-10.314.016-19.656 5.2-23.251 12.9a.916.916 0 0 0 0 .773c3.6 7.721 12.962 12.899 23.3 12.899h.046c10.315-.015 19.657-5.2 23.252-12.899a.916.916 0 0 0 0-.773Z"/><path fill="#fff" d="M147.792 97.058c-6.491-.575-11.911 4.752-11.333 11.143.442 4.896 4.447 8.838 9.421 9.276 6.488.569 11.9-4.752 11.326-11.137-.44-4.895-4.442-8.84-9.414-9.28v-.002Z"/><path stroke="#000" stroke-linecap="round" stroke-miterlimit="10" stroke-width=".509" d="M147.792 97.058c-6.491-.575-11.911 4.752-11.333 11.143.442 4.896 4.447 8.838 9.421 9.276 6.488.569 11.9-4.752 11.326-11.137-.44-4.895-4.442-8.84-9.414-9.28v-.002Z"/><path fill="#F8FF6E" d="M146.831 112.292c2.819 0 5.104-2.25 5.104-5.024 0-2.775-2.285-5.024-5.104-5.024s-5.104 2.249-5.104 5.024c0 2.774 2.285 5.024 5.104 5.024Z"/><path stroke="#000" stroke-linecap="round" stroke-miterlimit="10" stroke-width=".509" d="M146.831 112.292c2.819 0 5.104-2.25 5.104-5.024 0-2.775-2.285-5.024-5.104-5.024s-5.104 2.249-5.104 5.024c0 2.774 2.285 5.024 5.104 5.024Z"/><path fill="#0564FF" d="M134.188 173.466c.012-.086.022-.171.032-.258l.026-.209c.018-.151.033-.302.049-.453l.012-.137.029-.347.01-.153.021-.349c.002-.043.003-.083.007-.126.014-.321.019-.64.014-.954v-.059c-.002-.14-.007-.279-.014-.416v-.039c.012-.408.017-.804.017-1.186 0-3.449-2.073-7.01-6.442-7.01h-.024c-.768-.113-1.622-.032-2.564.114-2.423.127-4.974 1.672-5.297 1.728-.322-.056-2.872-1.601-5.297-1.728-.943-.144-1.796-.227-2.563-.114h-.024c-4.369 0-6.443 3.561-6.443 7.01 0 .382.005.778.018 1.186v.039a14.09 14.09 0 0 0-.014.416v.059c-.005.314 0 .631.014.954l.005.126c.005.115.012.232.02.349l.011.153c.008.116.017.231.029.347l.012.137c.014.151.031.301.048.453l.026.209.033.258.036.26.028.194.026.183c.992 10.175 4.402 23.606 8.076 23.606H114.141l.078.002c.015 0 .029 0 .044-.002.028 0 .056-.005.083-.009l.021-.001c.005 0 .009-.002.014-.004a.918.918 0 0 0 .129-.03c.041-.014.083-.029.123-.048.005-.003.01-.007.017-.008a.903.903 0 0 0 .1-.056l.04-.027c.025-.017.05-.036.074-.055.013-.012.029-.024.043-.035.024-.021.048-.043.072-.067l.04-.037c.031-.032.06-.066.09-.102.005-.007.012-.012.017-.02a2.6 2.6 0 0 0 .102-.138l.031-.049c.022-.036.045-.071.067-.109l.015-.025c.006-.009.009-.019.014-.029.068-.122.133-.255.195-.404a5.026 5.026 0 0 0 .349-2.314c-.03-.379-.045-.768-.045-1.161 0-4.367 1.873-7.921 4.21-8.06 2.337.139 4.211 3.693 4.211 8.06 0 .395-.016.782-.045 1.161a5.06 5.06 0 0 0 .348 2.314c.062.149.128.283.195.404.005.008.009.019.014.029l.016.025a1.852 1.852 0 0 0 .098.158c.033.049.067.095.102.138l.017.02c.029.036.058.07.09.102.012.014.025.025.039.037.024.024.049.046.073.067l.043.035a1.051 1.051 0 0 0 .115.082c.033.02.068.039.1.056.006.003.011.007.018.008a1.065 1.065 0 0 0 .15.055c.032.01.067.017.101.023.006 0 .009.002.014.004l.021.001a1.169 1.169 0 0 0 .128.011c.025 0 .051 0 .077-.002H126.025c3.674 0 7.083-13.431 8.076-23.606l.026-.183c.011-.065.019-.129.028-.194l.036-.26h-.003ZM51.643 168.678H19.35c-1.524 0-2.76 1.216-2.76 2.716v21.659c0 1.5 1.236 2.716 2.76 2.716h32.292c1.524 0 2.76-1.216 2.76-2.716v-21.659c0-1.5-1.236-2.716-2.76-2.716Z"/><path fill="#0564FF" d="M38.758 178.979h-6.522c-2.296 0-4.164-1.839-4.164-4.099v-7.125c0-2.26 1.868-4.099 4.164-4.099h6.522c2.296 0 4.164 1.839 4.164 4.099v7.125c0 2.26-1.868 4.099-4.164 4.099Zm-6.522-12.095a.88.88 0 0 0-.886.872v7.126c0 .48.396.873.886.873h6.522a.88.88 0 0 0 .886-.873v-7.126a.88.88 0 0 0-.886-.872h-6.522ZM50.58 167.648h-4.588a.677.677 0 0 0-.681.671v1.587c0 .371.305.671.681.671h4.588c.377 0 .682-.3.682-.671v-1.587a.677.677 0 0 0-.682-.671ZM25.002 167.648h-4.588a.677.677 0 0 0-.682.671v1.587c0 .371.306.671.682.671h4.588c.376 0 .681-.3.681-.671v-1.587a.677.677 0 0 0-.681-.671Z"/><path stroke="#000" stroke-linecap="round" stroke-miterlimit="10" stroke-width=".509" d="M35.496 190.809c4.82 0 8.726-3.845 8.726-8.589s-3.906-8.589-8.726-8.589-8.726 3.845-8.726 8.589 3.907 8.589 8.726 8.589Z"/><path fill="#F8FF6E" d="M39.572 180.503H37.54a.294.294 0 0 1-.297-.292v-2.001a.82.82 0 0 0-.826-.814h-1.839a.82.82 0 0 0-.826.814v2.001a.294.294 0 0 1-.297.292H31.42a.82.82 0 0 0-.826.814v1.809c0 .449.37.814.826.814h2.034c.164 0 .297.13.297.292v2.001c0 .449.369.814.826.814h1.839a.82.82 0 0 0 .826-.814v-2.001c0-.162.133-.292.297-.292h2.033a.82.82 0 0 0 .826-.814v-1.809a.82.82 0 0 0-.826-.814Z"/><path stroke="#000" stroke-linecap="round" stroke-miterlimit="10" stroke-width=".509" d="M39.572 180.503H37.54a.294.294 0 0 1-.297-.292v-2.001a.82.82 0 0 0-.826-.814h-1.839a.82.82 0 0 0-.826.814v2.001a.294.294 0 0 1-.297.292H31.42a.82.82 0 0 0-.826.814v1.809c0 .449.37.814.826.814h2.034c.164 0 .297.13.297.292v2.001c0 .449.369.814.826.814h1.839a.82.82 0 0 0 .826-.814v-2.001c0-.162.133-.292.297-.292h2.033a.82.82 0 0 0 .826-.814v-1.809a.82.82 0 0 0-.826-.814Z"/><path fill="#F8FF6E" d="m197.372 196.493-11.188-18.518c-3.653-6.047 2.906-13.074 9.337-10.003l3.267 1.56c.4.192.867.192 1.268 0l3.266-1.56c6.431-3.071 12.991 3.956 9.337 10.003l-11.187 18.518c-.925 1.531-3.178 1.531-4.102 0h.002Z"/><path stroke="#000" stroke-linecap="round" stroke-miterlimit="10" stroke-width=".509" d="m197.372 196.493-11.188-18.518c-3.653-6.047 2.906-13.074 9.337-10.003l3.267 1.56c.4.192.867.192 1.268 0l3.266-1.56c6.431-3.071 12.991 3.956 9.337 10.003l-11.187 18.518c-.925 1.531-3.178 1.531-4.102 0h.002Z"/></g><defs><clipPath id="a"><path fill="#fff" d="M.655 0h311.646v215.869H.655z"/></clipPath></defs></svg>