<svg width="401" height="269" viewBox="0 0 401 269" fill="none" 
  xmlns="http://www.w3.org/2000/svg">
  <path d="M71.0949 131.067L71.97 132.742C73.0837 134.814 74.7544 136.489 76.8227 137.605L78.4933 138.482L76.8227 139.359C74.7544 140.475 73.0837 142.149 71.97 144.222L71.0949 145.896L70.2199 144.222C69.1061 142.149 67.4356 140.475 65.3672 139.359L63.6967 138.482L65.3672 137.605C67.4356 136.489 69.1061 134.814 70.2199 132.742L71.0949 131.067Z" fill="white" fill-opacity="0.3"/>
  <path d="M236.802 51.6622L237.757 53.4162C238.95 55.5687 240.7 57.3226 242.768 58.4388L244.519 59.3955L242.768 60.3521C240.621 61.548 238.87 63.302 237.757 65.3748L236.802 67.1287L235.847 65.3748C234.654 63.2222 232.904 61.4683 230.836 60.3521L229.085 59.3955L230.836 58.4388C232.984 57.2429 234.734 55.489 235.847 53.4162L236.802 51.6622Z" fill="white" fill-opacity="0.3"/>
  <path opacity="0.34" d="M41.9833 267.386C50.734 235.417 67.5194 192.924 101.409 182.4C130.684 173.232 131.4 195.873 167.039 201.135C261.069 215.007 305.141 83.6221 356.532 104.191C389.227 117.266 409.115 160.715 395.83 209.427C388.273 237.25 373.317 256.543 363.612 267.226L41.9833 267.386Z" fill="#9889F0"/>
  <path d="M373.548 226.369L352.603 204.548C357.989 198.136 359.94 191.069 359.94 182.669C359.94 163.045 344 147.078 324.408 147.078C304.817 147.078 288.877 163.045 288.877 182.669C288.877 202.294 304.817 218.261 324.408 218.261C331.763 218.261 337.773 217.04 343.765 212.822C343.765 212.822 362.87 232.859 363.845 233.782C364.819 234.704 366.888 236.054 368.343 236.232C370.434 236.489 372.266 235.881 373.548 234.808C376.111 232.663 375.32 228.215 373.548 226.369ZM324.408 158.366C337.805 158.366 348.671 169.244 348.671 182.669C348.671 196.095 337.805 206.973 324.408 206.973C311.012 206.973 300.145 196.095 300.145 182.669C300.145 169.244 311.012 158.366 324.408 158.366Z" fill="url(#paint0_linear)"/>
  <path d="M28.059 267.286H334.413" stroke="#7E6CE8" stroke-width="2" stroke-miterlimit="10" stroke-linecap="round"/>
  <path d="M351.119 267.286H384.451" stroke="#7E6CE8" stroke-width="2" stroke-miterlimit="10" stroke-linecap="round"/>
  <path d="M3 267.286H16.0465" stroke="#7E6CE8" stroke-width="2" stroke-miterlimit="10" stroke-linecap="round"/>
  <path opacity="0.6" d="M82.197 71.4326V44.9642H108.37C108.37 45.044 108.37 45.1237 108.37 45.2034C108.37 59.6335 96.6754 71.4326 82.197 71.4326Z" fill="#A1BFF1"/>
  <path d="M120.621 38.1877H82.197V0C103.358 0.0797239 120.461 17.1406 120.621 38.1877Z" fill="#A1BFF1"/>
  <path d="M76.151 38.3472H49.9785C50.1376 23.9969 61.7521 12.3572 76.151 12.3572V38.3472Z" fill="url(#paint1_linear)"/>
  <path opacity="0.45" d="M76.151 71.4326C61.6725 71.4326 49.9785 59.7132 49.9785 45.2034C49.9785 45.1237 49.9785 45.044 49.9785 44.9642H76.151V71.4326Z" fill="#9889F0"/>
  <path d="M325 116.103V265.825H119V116.103C119 105.899 127.278 97.6073 137.467 97.6073H306.613C316.722 97.6073 325 105.899 325 116.103Z" fill="url(#paint2_linear)"/>
  <path d="M325 114.61V126H119V114.61C119 104.342 127.278 96 137.467 96H306.613C316.722 96 325 104.342 325 114.61Z" fill="#5C75C9"/>
  <path d="M147.943 116.116C150.139 116.116 151.92 114.331 151.92 112.129C151.92 109.928 150.139 108.143 147.943 108.143C145.746 108.143 143.965 109.928 143.965 112.129C143.965 114.331 145.746 116.116 147.943 116.116Z" fill="white"/>
  <path d="M161.466 116.116C163.663 116.116 165.444 114.331 165.444 112.129C165.444 109.928 163.663 108.143 161.466 108.143C159.27 108.143 157.489 109.928 157.489 112.129C157.489 114.331 159.27 116.116 161.466 116.116Z" fill="white"/>
  <path d="M174.99 116.116C177.187 116.116 178.968 114.331 178.968 112.129C178.968 109.928 177.187 108.143 174.99 108.143C172.794 108.143 171.013 109.928 171.013 112.129C171.013 114.331 172.794 116.116 174.99 116.116Z" fill="white"/>
  <path d="M253.828 203.592L264.886 203.592L264.886 149.698L253.828 149.698L253.828 203.592Z" fill="white"/>
  <path d="M205.053 203.583L216.111 203.583L216.111 181.022L205.053 181.022L205.053 203.583Z" fill="white"/>
  <path d="M179.922 203.591L190.98 203.591L190.98 172.499L179.922 172.499L179.922 203.591Z" fill="white"/>
  <path d="M229.594 203.645L240.651 203.645L240.651 161.312L229.594 161.312L229.594 203.645Z" fill="white"/>
  <path d="M204.584 230.722H179.922V244.275H204.584V230.722Z" fill="#5C75C9"/>
  <path opacity="0.31" d="M234.571 230.722H209.91V244.275H234.571V230.722Z" fill="#5C75C9"/>
  <path d="M264.558 231.28H239.897V244.833H264.558V231.28Z" fill="white"/>
  <path d="M0 171.089V210.074C0 216.85 5.48908 222.431 12.3306 222.431H60.8572L86.0752 243.638V189.425C86.0752 179.3 77.8813 171.009 67.6987 171.009H0V171.089Z" fill="#A1BFF1"/>
  <path d="M87.7455 221.235L56.7203 195.245L47.015 206.885L20.7628 184.881" stroke="white" stroke-width="7.4152" stroke-miterlimit="10" stroke-linecap="round" stroke-linejoin="round"/>
  <path d="M29.514 182.41L19.0132 183.366L19.8882 195.006" stroke="white" stroke-width="4.9435" stroke-miterlimit="10" stroke-linecap="round"/>
  <path d="M367.745 139.024L368.54 140.539C369.574 142.372 371.006 143.887 372.836 144.844L374.347 145.641L372.836 146.438C371.006 147.475 369.495 148.91 368.54 150.743L367.745 152.258L366.949 150.743C365.915 148.91 364.483 147.395 362.653 146.438L361.142 145.641L362.653 144.844C364.483 143.807 365.994 142.372 366.949 140.539L367.745 139.024Z" fill="white" fill-opacity="0.3"/>
  <path d="M363.551 225.983L342.606 204.162C347.991 197.75 349.943 190.683 349.943 182.284C349.943 162.659 334.003 146.692 314.411 146.692C294.82 146.692 278.88 162.659 278.88 182.284C278.88 201.908 294.82 217.875 314.411 217.875C321.766 217.875 327.776 216.655 333.768 212.436C333.768 212.436 352.873 232.473 353.848 233.396C354.822 234.319 356.891 235.668 358.346 235.846C360.437 236.103 362.269 235.496 363.551 234.422C366.114 232.278 365.323 227.829 363.551 225.983ZM314.411 157.98C327.808 157.98 338.674 168.858 338.674 182.284C338.674 195.709 327.808 206.587 314.411 206.587C301.014 206.587 290.148 195.709 290.148 182.284C290.148 168.858 301.014 157.98 314.411 157.98Z" fill="#56CCF2"/>
  <path d="M338.802 182.315C338.802 168.889 327.935 158.012 314.539 158.012C301.142 158.012 290.275 168.889 290.275 182.315C290.275 195.741 301.142 206.618 314.539 206.618C327.935 206.618 338.802 195.741 338.802 182.315Z" fill="url(#paint3_linear)" fill-opacity="0.5"/>
  <defs>
    <linearGradient id="paint0_linear" x1="374.84" y1="236.232" x2="288.685" y2="147.264" gradientUnits="userSpaceOnUse">
      <stop stop-color="#373282"/>
      <stop offset="1" stop-color="#2E419B" stop-opacity="0.9"/>
    </linearGradient>
    <linearGradient id="paint1_linear" x1="49.9702" y1="25.3512" x2="76.1467" y2="25.3512" gradientUnits="userSpaceOnUse">
      <stop stop-color="#D6E6FD"/>
      <stop offset="1" stop-color="#D2E3FD"/>
    </linearGradient>
    <linearGradient id="paint2_linear" x1="222.038" y1="118.399" x2="222.038" y2="250.697" gradientUnits="userSpaceOnUse">
      <stop stop-color="#D6E6FD"/>
      <stop offset="1" stop-color="#D2E3FD"/>
    </linearGradient>
    <linearGradient id="paint3_linear" x1="314.548" y1="164.02" x2="314.548" y2="202.247" gradientUnits="userSpaceOnUse">
      <stop stop-color="#D6E6FD"/>
      <stop offset="1" stop-color="#D2E3FD"/>
    </linearGradient>
  </defs>
</svg>
