<svg viewBox="0 0 497 310" fill="none" xmlns="http://www.w3.org/2000/svg"><path opacity=".34" d="M46.7 304.835c11-40.1 32.1-93.4 74.7-106.6 36.8-11.5 37.7 16.9 82.5 23.5 118.2 17.4 173.6-147.4 238.2-121.6 41.1 16.4 66.1 70.9 49.4 132-9.5 34.9-28.3 59.1-40.5 72.5l-404.3.2Z" fill="url(#a)"/><path d="M32.4 305h385.2M438.6 305h41.8M1 305h16.3" stroke="#5C75C9" stroke-opacity=".3" stroke-miterlimit="10" stroke-linecap="round"/><path d="M169.399 153.835v91.1c0 12.1-8.7 22.2-20.1 24.4-1.5.3-3.1.5-4.8.5-13.8 0-24.9-11.2-24.9-24.9v-66.2c0-6.9-2.8-13.1-7.3-17.6-4.5-4.5-10.7-7.3-17.6-7.3h74.7Z" fill="url(#b)"/><path d="M119.6 178.735v35.9H69.8v-35.9c0-13.8 11.2-24.9 24.9-24.9 6.9 0 13.1 2.8 17.6 7.3 4.5 4.5 7.3 10.7 7.3 17.6Z" fill="url(#c)"/><path d="M356.999 107.035v202h-106.2c-13.7 0-24.8-11.1-24.8-24.8V109.835c-.4-15.3-12.9-27.5-28.3-27.5h134.5c13.7-.1 24.8 11 24.8 24.7Z" fill="url(#d)"/><path d="m226 269.835-81.4.1c1.6 0 3.2-.2 4.8-.5 11.5-2.2 20.1-12.3 20.1-24.4v-134.5c0-15.6 12.7-28.3 28.3-28.3 14.9 0 27.1 11.5 28.2 26.1-.1.6 0 160.2 0 161.5Z" fill="#5C75C9"/><path d="M410.7 266.735v16.1c0 14.4-11.7 26.1-26.1 26.1H251.5c3.6-.4 9.1-1.8 13.5-5.2 5.6-4.4 9.1-11.2 9.1-18.8v-18.2h136.6Z" fill="url(#e)"/><path d="M339.3 127.735h-89.7v10.3h89.7v-10.3ZM339.3 173.835h-89.7v10.3h89.7v-10.3ZM339.3 221.535h-89.7v10.3h89.7v-10.3Z" fill="#A1BFF1"/><path d="m273.801 26.635 1.4 2.6c1.7 3.2 4.3 5.7 7.5 7.5l2.6 1.4-2.6 1.4c-3.2 1.7-5.7 4.3-7.5 7.5l-1.4 2.6-1.4-2.6c-1.7-3.2-4.3-5.7-7.5-7.5l-2.6-1.4 2.6-1.4c3.2-1.7 5.7-4.3 7.5-7.5l1.4-2.6ZM445.7 250.136l1 1.9c1.3 2.3 3.1 4.2 5.4 5.4l1.9 1-1.9 1c-2.3 1.3-4.2 3.1-5.4 5.4l-1 1.9-1-1.9c-1.3-2.3-3.1-4.2-5.4-5.4l-1.9-1 1.9-1c2.3-1.3 4.2-3.1 5.4-5.4l1-1.9ZM94.7 269.835l1.5 2.7c1.8 3.3 4.5 6 7.8 7.8l2.7 1.5-2.7 1.5c-3.3 1.8-6 4.5-7.8 7.8l-1.5 2.7-1.5-2.7c-1.8-3.3-4.5-6-7.8-7.8l-2.7-1.5 2.7-1.5c3.3-1.8 6-4.5 7.8-7.8l1.5-2.7Z" fill="#5C74C6" fill-opacity=".5"/><path opacity=".25" d="M296.214 200.215c-2.316 4 .571 9.007 5.193 9.007h91.595c4.622 0 7.508-5.007 5.192-9.007l-45.797-79.104c-2.311-3.992-8.074-3.992-10.385 0l-45.798 79.104Z" fill="url(#f)"/><path d="M303.903 200.215c-2.316 4 .57 9.007 5.192 9.007h91.595c4.622 0 7.509-5.007 5.193-9.007l-45.798-79.104c-2.311-3.992-8.074-3.992-10.385 0l-45.797 79.104Zm59.444-11.431a5.11 5.11 0 1 1-10.219 0 5.11 5.11 0 0 1 10.219 0Zm0-20.438a5.11 5.11 0 0 1-10.219 0v-10.219a5.11 5.11 0 1 1 10.219 0v10.219Z" fill="#fff"/><path d="M303.903 200.215c-2.316 4 .57 9.007 5.192 9.007h91.595c4.622 0 7.509-5.007 5.193-9.007l-45.798-79.104c-2.311-3.992-8.074-3.992-10.385 0l-45.797 79.104Zm59.444-11.431a5.11 5.11 0 1 1-10.219 0 5.11 5.11 0 0 1 10.219 0Zm0-20.438a5.11 5.11 0 0 1-10.219 0v-10.219a5.11 5.11 0 1 1 10.219 0v10.219Z" fill="url(#g)"/><path d="M306.247 200.215c-2.315 4 .571 9.007 5.193 9.007h91.595c4.622 0 7.508-5.007 5.192-9.007l-45.797-79.104c-2.311-3.992-8.074-3.992-10.385 0l-45.798 79.104Z" fill="#fff"/><path d="M306.247 200.215c-2.315 4 .571 9.007 5.193 9.007h91.595c4.622 0 7.508-5.007 5.192-9.007l-45.797-79.104c-2.311-3.992-8.074-3.992-10.385 0l-45.798 79.104Zm56.1-10.322a4 4 0 0 1-4 4h-2.219a4 4 0 0 1-4-4v-2.219a4 4 0 0 1 4-4h2.219a4 4 0 0 1 4 4v2.219Zm0-20.438a4 4 0 0 1-4 4h-2.219a4 4 0 0 1-4-4v-15.438a4 4 0 0 1 4-4h2.219a4 4 0 0 1 4 4v15.438Z" fill="url(#h)"/><defs><linearGradient id="a" x1="44.515" y1="295.663" x2="482.601" y2="190.045" gradientUnits="userSpaceOnUse"><stop stop-color="#D6E6FD"/><stop offset="1" stop-color="#D2E3FD"/></linearGradient><linearGradient id="b" x1="132.077" y1="449.616" x2="132.077" y2="187.503" gradientUnits="userSpaceOnUse"><stop stop-color="#D6E6FD"/><stop offset="1" stop-color="#D2E3FD"/></linearGradient><linearGradient id="c" x1="94.711" y1="264.858" x2="94.711" y2="37.693" gradientUnits="userSpaceOnUse"><stop stop-color="#5C75C9"/><stop offset="1" stop-color="#2E419B"/></linearGradient><linearGradient id="d" x1="277.343" y1="584.534" x2="277.343" y2="225.101" gradientUnits="userSpaceOnUse"><stop stop-color="#D6E6FD"/><stop offset="1" stop-color="#D2E3FD"/></linearGradient><linearGradient id="e" x1="282.038" y1="287.913" x2="538.956" y2="287.913" gradientUnits="userSpaceOnUse"><stop stop-color="#5C75C9"/><stop offset="1" stop-color="#2E419B"/></linearGradient><linearGradient id="f" x1="347.355" y1="207.463" x2="347.355" y2="101.403" gradientUnits="userSpaceOnUse"><stop stop-color="#5C75C9"/><stop offset="1" stop-color="#D2E3FD"/></linearGradient><linearGradient id="g" x1="352.367" y1="117.585" x2="357.902" y2="226.027" gradientUnits="userSpaceOnUse"><stop stop-color="#FD9271"/><stop offset="1" stop-color="#FED4C4"/></linearGradient><linearGradient id="h" x1="357.251" y1="203.596" x2="357.251" y2="96.364" gradientUnits="userSpaceOnUse"><stop stop-color="#FD9271"/><stop offset="1" stop-color="#FCA790"/></linearGradient></defs></svg>