<svg width="400" height="268" fill="none" 
  xmlns="http://www.w3.org/2000/svg">
  <path opacity=".34" d="M101.84 121.41c-6.48 14.7-61.3 17.74-76.2-9.24-5.55-9.98-6.3-25.23 1.2-32.8 12.88-12.95 47.78-1.4 65.18 19.4 4.63 5.64 12.96 15.52 9.82 22.64zM0 267c9.72-35.58 28.51-82.8 66.38-94.63 32.68-10.16 33.51 14.97 73.32 20.8C244.78 208.6 293.94 62.4 351.43 85.31c36.56 14.6 58.78 62.93 43.88 117.08-8.52 30.96-25.1 52.5-36.01 64.32L0 267z" fill="#9889F0"/>
  <path d="M36.1 266.77H327M342.82 266.77h31.56M12.31 266.77h12.32" stroke="#7E6CE8" stroke-width="2" stroke-miterlimit="10" stroke-linecap="round"/>
  <path d="M290.05 154.03v104.61c0 2.5-1.2 4.8-3.15 6.29a9.2 9.2 0 01-5.65 1.84H117.76a9.6 9.6 0 01-5.65-1.84 7.78 7.78 0 01-3.14-6.29v-104.6c0-2.5 1.2-4.72 3.14-6.3a9.01 9.01 0 015.65-1.84h163.5c2.12 0 4.07.74 5.64 1.85a7.92 7.92 0 013.15 6.28z" fill="#A1BFF1"/>
  <path opacity=".71" d="M286.8 264.74a8.63 8.63 0 01-5.64 2.03h-163.5a8.63 8.63 0 01-5.64-2.03l87.4-70.51 87.39 70.51z" fill="url(#paint0_linear)"/>
  <path d="M290.05 154.03v1.3l-3.7 2.95-.1.1-13.7 11-4.9 3.87-.28.19-2.23 1.75-1.66 1.39-5.19 4.16-52.4 42.05a10.43 10.43 0 01-12.68 0l-16.94-13.59-28.33-22.64-5.1-4.07-6.94-5.54-2.4-1.94-.47-.37-2.22-1.76-.28-.27-4.16-3.33-17.5-13.96v-1.29a7.56 7.56 0 013.15-6.19l.92-.74 2.04-1.1 17.96-7.59 5.47-2.3h122.38l6.48 2.58 13.52 5.27 5.28 3.14c.09.1.27.19.37.28.64.46 1.7 1.34 2.4 2.5a7 7 0 011.2 4.15z" fill="#fff"/>
  <path d="M290.05 154.03v1.3l-3.7 2.95-.1.1-13.7 11-4.9 3.87-.28.19-2.23 1.75-1.66 1.39-5.19 4.16-52.4 42.05a10.43 10.43 0 01-12.68 0l-16.94-13.59-28.33-22.64-5.1-4.07-6.94-5.54-2.4-1.94-.47-.37-2.22-1.76-.28-.27-4.16-3.33-17.5-13.96v-1.29a7.56 7.56 0 013.15-6.19l.92-.74 2.04-1.1 17.96-7.59 5.47-2.3h122.38l6.48 2.58 13.52 5.27 5.28 3.14c.09.1.27.19.37.28.64.46 1.7 1.34 2.4 2.5a7 7 0 011.2 4.15z" fill="url(#paint1_linear)"/>
  <path opacity=".26" d="M135.81 165.58v11.65l-4.81-4.16-.28-.28-2.78-2.5-19.07-15.15v-1.2c0-1.85.65-3.6 1.85-5l25.1 16.64zM290.05 154.03v1.3l-3.7 3.04-.1.1-16.1 13.03-2.6 2.03-4.07 3.23v-10.72l25.09-16.44a7.3 7.3 0 011.48 4.43z" fill="#000"/>
  <path opacity=".22" d="M263.38 176.67l-57.86 46.2c-.18.2-.37.28-.55.47-3.7 2.4-8.7 2.22-12.13-.83l-41.29-33.08-15.74-12.76V165.5l63.6 42.14 63.97-41.77v10.81z" fill="url(#paint2_linear)"/>
  <path d="M282.36 56.17c-2.31 0-4.53.55-6.57 1.48a13.2 13.2 0 00-4.07 2.95 15.08 15.08 0 00-4.45 10.63v103.32l-2.22 1.75-1.67 1.39-5.18 4.16-52.4 42.05a10.43 10.43 0 01-12.68 0l-16.94-13.59-28.33-22.64-5.1-4.07-6.94-5.54-2.4-1.94-.47-.37V71.97a15.8 15.8 0 0115.83-15.8h133.6z" fill="url(#paint3_linear)"/>
  <path d="M267.37 93.13v-22c0-8.3 6.75-15.06 15.09-15.06 8.33 0 15.09 6.75 15.09 15.07v22h-30.18z" fill="url(#paint4_linear)"/>
  <g opacity=".43">
    <path opacity=".45" d="M267.37 165.12v9.33l-2.23 1.76-1.66 1.39-5.19 4.16-52.4 42.04a10.43 10.43 0 01-12.68 0l-17.03-13.58-28.33-22.64-5.1-4.07-6.94-5.54-2.4-1.94-.47-.37v-9.34l.47.37 2.4 1.94 6.95 5.55 5.09 4.06 28.33 22.64 16.94 13.59a10.43 10.43 0 0012.68 0l52.4-42.05 5.19-4.16 1.66-1.38 2.32-1.76z" fill="#A1BFF1"/>
    <path opacity=".22" d="M267.37 93.13v-22c0-8.3 6.75-15.06 15.09-15.06 8.33 0 15.09 6.75 15.09 15.07v22h-30.18z" fill="url(#paint5_linear)"/>
  </g>
  <path opacity=".69" d="M160.93 173.8h79.33v-6.56h-79.33v6.56zM160.93 158.1h79.33v-6.56h-79.33v6.56z" fill="#A1BFF1"/>
  <path d="M200.43 106.16a6.48 6.48 0 10.01-12.95 6.48 6.48 0 000 12.95z" fill="url(#paint6_linear)"/>
  <path d="M200.9 129.08a25.9 25.9 0 0025.92-25.88 25.9 25.9 0 00-25.93-25.87 25.9 25.9 0 00-25.92 25.88 25.9 25.9 0 0025.92 25.87z" fill="#fff"/>
  <path d="M74.53 143.31l.9 1.72a12.07 12.07 0 004.88 4.87l1.72.9-1.72.9a12.07 12.07 0 00-4.88 4.87l-.9 1.72-.9-1.72a12.07 12.07 0 00-4.89-4.87l-1.71-.9 1.71-.9c2.08-1.18 3.8-2.8 4.88-4.87l.9-1.72zM241.5 0l.9 1.76a12.22 12.22 0 004.88 4.99l1.72.92-1.72.92a12.22 12.22 0 00-4.88 5l-.9 1.75-.9-1.76a12.22 12.22 0 00-4.88-4.99L234 7.67l1.72-.92c2.07-1.2 3.8-2.87 4.88-5l.9-1.75zM362.35 185.36l.9 1.76a12.22 12.22 0 004.88 4.99l1.72.92-1.72.93a12.22 12.22 0 00-4.88 4.99l-.9 1.75-.9-1.75a12.22 12.22 0 00-4.88-5l-1.72-.92 1.72-.92c2.08-1.2 3.8-2.87 4.88-5l.9-1.75z" fill="#fff" fill-opacity=".3"/>
  <path d="M60.95 6.01a25.02 25.02 0 0123.86 24.51 24.76 24.76 0 01-4.87 15.25L85 55.9H60.46C46.65 55.9 34.87 44.6 35 30.77A24.9 24.9 0 0160.95 6.01z" fill="url(#paint7_linear)"/>
  <path d="M69.96 6.01a25.02 25.02 0 0123.86 24.51 24.76 24.76 0 01-4.88 15.25L94 55.9H69.46c-13.8 0-25.58-11.3-25.46-25.13A24.9 24.9 0 0169.96 6.01z" fill="#56CCF2"/>
  <path d="M72.42 31.44l4.96-4.95a2.04 2.04 0 000-2.92 2.04 2.04 0 00-2.25-.45l.39.92-.4-.92c-.24.1-.47.26-.66.46l-4.96 4.95-4.97-4.95c-.18-.2-.4-.35-.66-.46l-.4.92.4-.92a2.04 2.04 0 00-2.26.45 2.03 2.03 0 00-.45 2.26l.92-.4-.92.4c.11.25.27.47.46.66l4.96 4.95-4.96 4.96a2.03 2.03 0 00-.02 2.9 1.97 1.97 0 001.47.63 1.97 1.97 0 001.47-.63l4.96-4.95 4.96 4.96a2.04 2.04 0 002.92 0 2.03 2.03 0 000-2.91l-4.96-4.96z" fill="#fff" stroke="#fff" stroke-width="2"/>
  <path d="M195.5 101.44v.1-.1a1.2 1.2 0 00-.88.4l-2.46 2.45a7.02 7.02 0 004.98 12c1.87 0 3.66-.74 4.98-2.06l2.46-2.45a1.25 1.25 0 10-1.78-1.77l-2.46 2.45a4.53 4.53 0 01-6.4-6.4l2.45-2.44a1.17 1.17 0 00.4-.9 1.2 1.2 0 00-.4-.88 1.22 1.22 0 00-.88-.4zm13.99 5.44l2.45-2.45a7.02 7.02 0 00-4.98-12c-1.87 0-3.66.74-4.98 2.06l-2.45 2.45a1.2 1.2 0 00-.4.89 1.2 1.2 0 00.4.88 1.2 1.2 0 001.78 0l2.45-2.45a4.54 4.54 0 016.4 6.4l-2.45 2.45a1.26 1.26 0 101.78 1.77zm-10.22 1.93c.15-.07.29-.17.4-.3l6.54-6.53a1.21 1.21 0 00.4-.89 1.19 1.19 0 00-.4-.88 1.19 1.19 0 00-1.37-.3 1.2 1.2 0 00-.4.3l-6.55 6.53a1.21 1.21 0 00-.4.89 1.19 1.19 0 00.4.89 1.19 1.19 0 001.38.29zM191.57 95.65h0c.23.23.55.36.87.38h.01c.33-.02.64-.15.88-.38a1.22 1.22 0 00.28-1.36 1.2 1.2 0 00-.28-.4l-3.24-3.23s0 0 0 0a1.24 1.24 0 00-1.37-.28 1.25 1.25 0 00-.77 1.16 1.25 1.25 0 00.38.88s0 0 0 0l3.24 3.23zm-5.72 5.34h4.63a1.26 1.26 0 00.89-2.14 1.26 1.26 0 00-.9-.37h-4.62a1.26 1.26 0 00-1.26 1.26 1.26 1.26 0 001.26 1.26zm11.08-7c.16.06.33.08.5.07a1.2 1.2 0 001.25-1.25v-4.62a1.26 1.26 0 00-2.52 0v4.62a1.2 1.2 0 00.77 1.18z" fill="#2E419B" stroke="#2E419B" stroke-width=".2"/>
  <defs>
    <linearGradient id="paint0_linear" x1="199.47" y1="180.59" x2="199.47" y2="294.71" gradientUnits="userSpaceOnUse">
      <stop stop-color="#5C74C6"/>
      <stop offset="1" stop-color="#A1BFF1" stop-opacity="0"/>
    </linearGradient>
    <linearGradient id="paint1_linear" x1="128" y1="47.91" x2="74.25" y2="169.41" gradientUnits="userSpaceOnUse">
      <stop offset="1" stop-color="#2E419B"/>
    </linearGradient>
    <linearGradient id="paint2_linear" x1="270.6" y1="195.29" x2="111.78" y2="195.29" gradientUnits="userSpaceOnUse">
      <stop stop-color="#DEE1E2"/>
      <stop offset="1" stop-color="#B4BCBE"/>
    </linearGradient>
    <linearGradient id="paint3_linear" x1="132.99" y1="141.03" x2="282.41" y2="141.03" gradientUnits="userSpaceOnUse">
      <stop stop-color="#D6E6FD"/>
      <stop offset="1" stop-color="#D2E3FD"/>
    </linearGradient>
    <linearGradient id="paint4_linear" x1="267.29" y1="59.26" x2="287.92" y2="87.25" gradientUnits="userSpaceOnUse">
      <stop stop-color="#373282"/>
      <stop offset="1" stop-color="#2E419B"/>
    </linearGradient>
    <linearGradient id="paint5_linear" x1="297.18" y1="93.04" x2="267.62" y2="56.02" gradientUnits="userSpaceOnUse">
      <stop stop-color="#373282" stop-opacity="0"/>
      <stop offset="1" stop-color="#2E419B"/>
    </linearGradient>
    <linearGradient id="paint6_linear" x1="200.44" y1="189.68" x2="200.44" y2="41.18" gradientUnits="userSpaceOnUse">
      <stop stop-color="#5C75C9"/>
      <stop offset="1" stop-color="#2E419B"/>
    </linearGradient>
    <linearGradient id="paint7_linear" x1="81.34" y1="46.03" x2="35.08" y2="19.14" gradientUnits="userSpaceOnUse">
      <stop stop-color="#373282"/>
      <stop offset="1" stop-color="#2E419B"/>
    </linearGradient>
  </defs>
</svg>
