<svg width="48" height="48" fill="none" xmlns="http://www.w3.org/2000/svg">
  <rect width="48" height="48" rx="10" fill="#FCE7F0"/>
  <path fill-rule="evenodd" clip-rule="evenodd" d="M11.854 14.254A3.6 3.6 0 0 1 14.4 13.2h8.4a1.2 1.2 0 0 1 0 2.4h-8.4a1.2 1.2 0 0 0-1.2 1.2v16.8a1.2 1.2 0 0 0 1.2 1.2h16.8a1.2 1.2 0 0 0 1.2-1.2v-8.4a1.2 1.2 0 1 1 2.4 0v8.4a3.6 3.6 0 0 1-3.6 3.6H14.4a3.6 3.6 0 0 1-3.6-3.6V16.8a3.6 3.6 0 0 1 1.054-2.546Z" fill="#E83E8C"/>
  <path fill-rule="evenodd" clip-rule="evenodd" d="M33.6 13.054c-.357 0-.7.142-.952.394L21.483 24.613l-.634 2.538 2.538-.635L34.55 15.352a1.345 1.345 0 0 0-.951-2.298Zm-2.649-1.303a3.746 3.746 0 1 1 5.297 5.298l-11.4 11.4a1.2 1.2 0 0 1-.557.315l-4.8 1.2a1.2 1.2 0 0 1-1.455-1.455l1.2-4.8a1.2 1.2 0 0 1 .315-.558l11.4-11.4Z" fill="#E83E8C"/>
</svg>
