<svg width="48" height="48" fill="none"
  xmlns="http://www.w3.org/2000/svg">
  <rect width="48" height="48" rx="10" fill="#F5FBE6"/>
  <path d="M24.5 37.2a1.04 1.04 0 01-1.1-1.1v-3.3h-5.5a1.1 1.1 0 010-2.2h5.5v-5.5h-1.65a4.95 4.95 0 110-9.9h1.65v-3.3a1.04 1.04 0 011.1-1.1 1.04 1.04 0 011.1 1.1v3.3H30a1.04 1.04 0 011.1 1.1 1.04 1.04 0 01-1.1 1.1h-4.4v5.5h1.65a4.95 4.95 0 110 9.9H25.6v3.3a1.04 1.04 0 01-1.1 1.1zm1.1-12.1v5.5h1.65a2.75 2.75 0 100-5.5H25.6zm-3.85-7.7a2.75 2.75 0 100 5.5h1.65v-5.5h-1.65z" fill="#6FCF97"/>
</svg>
