<svg width="150" height="140" fill="none" xmlns="http://www.w3.org/2000/svg"><path d="M0 24C0 10.745 10.745 0 24 0h102c13.255 0 24 10.745 24 24v92c0 13.255-10.745 24-24 24H24c-13.255 0-24-10.745-24-24V24z" fill="#fff"/><path fill-rule="evenodd" clip-rule="evenodd" d="M86.05 39.542a2.5 2.5 0 012.5-2.5h5.89c7.935 0 14.415 6.48 14.415 14.415v6.997a2.5 2.5 0 11-5 0v-6.997c0-5.174-4.242-9.415-9.415-9.415h-5.89a2.5 2.5 0 01-2.5-2.5zM64.525 39.54a2.5 2.5 0 01-2.499 2.502l-6.02.003h-.001c-5.186.007-9.387 4.212-9.387 9.397v7.012a2.5 2.5 0 01-5 0v-7.012c0-7.946 6.438-14.388 14.382-14.397l6.023-.003a2.5 2.5 0 012.502 2.498zM106.355 71.135a2.5 2.5 0 012.5 2.5V89.87c0 7.93-6.48 14.415-14.415 14.415h-5.89a2.5 2.5 0 110-5h5.89c5.173 0 9.415-4.245 9.415-9.415V73.635a2.5 2.5 0 012.5-2.5zM44.118 71.135a2.5 2.5 0 012.5 2.5v16.25c0 5.186 4.201 9.391 9.388 9.397l6.02.004a2.5 2.5 0 01-.003 5L56 104.282c-7.944-.009-14.382-6.45-14.382-14.396V73.635a2.5 2.5 0 012.5-2.5z" fill="#624DE3"/><path fill-rule="evenodd" clip-rule="evenodd" d="M34.875 73.635a2.5 2.5 0 012.5-2.5h75.721a2.5 2.5 0 110 5H37.375a2.5 2.5 0 01-2.5-2.5z" fill="#D0CAF7"/></svg>