<svg width="48" height="48" fill="none" xmlns="http://www.w3.org/2000/svg"><rect width="48" height="48" rx="10" fill="#DFF5FD"/><path fill-rule="evenodd" clip-rule="evenodd" d="M26.781 15.5a1 1 0 011-1h1.644a4.334 4.334 0 014.325 4.325v1.953a1 1 0 11-2 0v-1.953a2.335 2.335 0 00-2.325-2.325h-1.644a1 1 0 01-1-1zM21.379 15.5a1 1 0 01-1 1l-1.68.001a2.32 2.32 0 00-2.318 2.32v1.957a1 1 0 11-2 0V18.82a4.32 4.32 0 014.316-4.32l1.681-.001a1 1 0 011 1zM32.75 24.014a1 1 0 011 1v4.531a4.335 4.335 0 01-4.325 4.325h-1.644a1 1 0 010-2h1.644a2.335 2.335 0 002.325-2.325v-4.53a1 1 0 011-1zM15.382 24.014a1 1 0 011 1v4.535a2.32 2.32 0 002.317 2.32l1.68.002a1 1 0 11-.001 2l-1.68-.002a4.32 4.32 0 01-4.316-4.32v-4.535a1 1 0 011-1z" fill="#00B4F5"/><path fill-rule="evenodd" clip-rule="evenodd" d="M12.5 25.014a1 1 0 011-1h21.132a1 1 0 110 2H13.5a1 1 0 01-1-1z" fill="#00B4F5"/></svg>