<svg xmlns="http://www.w3.org/2000/svg" viewBox="0 0 512 512"><path d="M38.345 423.724H256V88.276H38.345C17.167 88.276 0 105.443 0 126.621V385.38c0 21.177 17.167 38.344 38.345 38.344z" fill="#73af00"/><path d="M473.655 423.724c21.177 0 38.345-17.167 38.345-38.345V126.621c0-21.177-17.167-38.345-38.345-38.345H256v335.448h217.655z" fill="#f5f5f5"/><g fill="#ff4b55"><path d="M298.609 223.906l-15.305 20.021-23.897-7.999c-1.336-.447-2.473 1.064-1.673 2.223l14.312 20.743-14.993 20.256c-.839 1.132.247 2.68 1.598 2.278l24.15-7.202 14.632 20.519c.818 1.148 2.626.593 2.66-.815l.613-25.194 24.035-7.575c1.344-.424 1.375-2.314.046-2.782l-23.77-8.369.223-25.201c.012-1.408-1.776-2.023-2.631-.903z"/><path d="M271.866 316.63c-33.459 0-60.6-27.142-60.6-60.631 0-33.428 27.142-60.63 60.6-60.63 12.448 0 23.928 3.829 33.495 10.308 1.465.992 3.137-.932 1.91-2.208-14.298-14.866-34.535-23.934-56.971-23.168-38.548 1.315-70.46 32.222-72.922 70.713-2.822 44.089 32.089 80.728 75.554 80.728 21.41 0 40.652-8.951 54.393-23.262 1.214-1.265-.462-3.16-1.912-2.177-9.577 6.494-21.076 10.327-33.547 10.327z"/></g></svg>