<svg xmlns="http://www.w3.org/2000/svg" viewBox="0 0 512 512"><path d="M512 126.621c0-21.177-17.167-38.345-38.345-38.345H38.345C17.167 88.276 0 105.443 0 126.621V256h512V126.621z" fill="#ff4b55"/><path d="M38.345 423.724h435.31c21.177 0 38.345-17.167 38.345-38.345V256H0v129.379c0 21.178 17.167 38.345 38.345 38.345z" fill="#464655"/><g fill="#ffe15a"><path d="M235.904 182.293l6.036 18.097 19.076.148c1.478.011 2.091 1.898.902 2.775l-15.346 11.332 5.754 18.188c.446 1.409-1.159 2.574-2.361 1.716l-15.52-11.093-15.52 11.093c-1.203.86-2.807-.307-2.361-1.716l5.754-18.188-15.346-11.332c-1.188-.878-.576-2.764.902-2.775l19.076-.148 6.036-18.097c.467-1.403 2.45-1.403 2.918 0zm81.583 153.651s-109.206-82.385-112.43-85.092c-4.983-4.185-8.828-11.586-9.012-20.598 0 0-11.777 12.064-9.471 24.552 2.667 14.436 10.943 19.586 21.61 26.574 7.496 4.911 67.087 42.495 101.875 64.419l7.428-9.855zm32.675 24.148c-1.423-1.016-12.861-9.47-28.73-21.227l-5.759 10.472c11.651 7.341 19.409 12.227 19.409 12.227s1.103 14.345 12.69 11.955c4.176-.864 7.538-9.749 2.39-13.427zm-94.299-38.039c-8.256 2.905-17.097 4.567-26.346 4.567-23.442 0-44.445-10.212-58.987-26.36l-12.928 11.635c4.333 4.812 8.96 9.347 14.175 13.217l-2.574 4.459 19.112 11.034 2.53-4.383a96.412 96.412 0 0027.638 7.383v5.084h22.069v-5.084a96.412 96.412 0 0027.638-7.383l2.53 4.383 7.595-4.385c-7.416-4.677-15.015-9.471-22.452-14.167z"/><path d="M325.951 236.138a96.397 96.397 0 00-7.383-27.637l4.383-2.53-11.034-19.113-4.459 2.574a97.507 97.507 0 00-20.201-20.2l2.574-4.459-19.112-11.034-2.53 4.383c-7.163-3.115-14.788-5.327-22.723-6.639l-2.9 17.404c37.656 6.237 66.4 38.862 66.4 78.286 0 21.228-8.377 40.465-21.942 54.717l13.953 10.535c2.23-2.442 4.504-4.847 6.482-7.511l4.459 2.574 11.034-19.112-4.383-2.53a96.414 96.414 0 007.383-27.637h5.083V236.14h-5.084v-.002z"/></g></svg>