<svg xmlns="http://www.w3.org/2000/svg" viewBox="0 0 512.1 512.1"><path d="M472.1 88.3H39.9c-22 0-39.9 17.8-39.9 39.9v255.7c0 22 17.8 39.9 39.9 39.9h432.3c22 0 39.9-17.8 39.9-39.9V128.1c-.1-22-17.9-39.8-40-39.8z" fill="#41479b"/><path d="M8.8 256h15.3l81.8-53.6V256H150v-53.6l81.8 53.6h15.3c4.9 0 8.8-4 8.8-8.8v-7l-70.2-46H256v-44.1h-70.2l70.2-46v-7c0-4.9-4-8.8-8.8-8.8h-15.3l-81.8 53.6V88.3H106v53.6L27.3 90.3c-9.2 3-16.8 9.3-21.7 17.5l64.6 42.3H0v44.1h70.2L0 240.2v7c0 4.8 4 8.8 8.8 8.8z" fill="#f5f5f5"/><g fill="#ff4b55"><path d="M256 158.9H141.2V88.3h-26.4v70.6H0v26.5h114.8V256h26.4v-70.6H256z"/><path d="M8.7 103.2L80.8 150H97L15 96.8c-2.2 1.9-4.4 4.1-6.3 6.4zm157.6 46.9l88.4-57.4c-1.5-2.6-4.2-4.4-7.5-4.4h-1.9l-95.2 61.8h16.2zm-76.8 44.1L0 251.5c1.5 2.7 5.5 4.5 8.8 4.5h1.7l95.2-61.8H89.5zm166.4 53.7l-82.7-53.7H157l93.9 60.9c2.8-1.3 4.7-4 5-7.2z"/></g><path d="M328.6 192.7c-1.2 15.8-6.1 116 57.5 138.7 63.6-22.7 58.7-122.9 57.5-138.7-7.7 3-35.6 12.2-57.5-3.4-21.9 15.5-49.8 6.4-57.5 3.4z" fill="#f5f5f5"/><g fill="#ffa028"><path d="M417.4 212.9c-3.5-2.7-9.9 2.3-17.2 1.8-6.7-.5-15-7.3-25.7-4.3-3-2.7-1.5-9.1-1.5-9.1-7.5 4.8-8 11.4-7.5 15-5.3 7-5 17.8-4 21 1.3 4.3 3.7 4.8 4.1 9.6.4 4.8 2.2 3.1 2.2 3.1 3.7-2.1 4.3-6 5.9-12.5 6.1.8 10-4.7 10-4.7-4 1.2-6.5-.9-7.9-2.9.2-.6.4-1.2.6-1.9 4.5-12.4 26.2-9 28.2-5.6 3.6 6.2 8.4 8.5 8.4 8.5 0-6.5-4.8-12.1-4.8-12.1 7.3-1.3 9.2-5.9 9.2-5.9zm-52.1 26.6c-.7 0-1.3-.6-1.3-1.3 0-.7.6-1.3 1.3-1.3.7 0 1.3.6 1.3 1.3 0 .7-.5 1.3-1.3 1.3z"/><path d="M396.1 292.2c4.2-1.3 3.7-9.5 8.3-15.2 4.2-5.3 14.5-8.2 18.2-18.7 3.9-.9 8.4 3.9 8.4 3.9.3-8.9-4.9-13.1-8.1-14.7-2.8-8.4-11.8-14.2-15.1-15.2-4.2-1.4-6.1.4-10.2-2s-3.8 0-3.8 0c-.4 4.3 2.6 7 7 11.9-4.1 4.6-1.9 10.9-1.9 10.9 1.2-4 4.5-4.8 6.8-4.8.4.5.8 1 1.2 1.6 7.6 10.8-7.4 26.6-11.4 26.3-7.2-.5-11.8 2.1-11.8 2.1 5.3 3.7 12.7 3 12.7 3-3 6.7-.3 10.9-.3 10.9zm7.6-57.9c.4-.6 1.2-.7 1.8-.3.6.4.7 1.2.3 1.8-.4.6-1.2.7-1.8.3-.5-.4-.7-1.2-.3-1.8z"/><path d="M339.2 234.8c-.6 4.4 7.1 7.4 10.3 13.9 3 6 1.3 16.6 9.3 24.4-.8 3.9-7 5.9-7 5.9 7.9 4 13.9 1.1 16.7-1.1 8.8 1 17.8-4.8 20.1-7.3 3-3.3 2.2-5.7 6.1-8.4 3.9-2.8 1.6-3.5 1.6-3.5-3.7-2.2-7.4-.6-13.8 1.3-2.4-5.6-9.1-6.3-9.1-6.3 3.1 2.8 2.5 6.1 1.5 8.2-.7.1-1.3.3-2 .4-13 2.4-21-18-19.1-21.4 3.5-6.3 3.1-11.6 3.1-11.6-5.6 3.3-8 10.3-8 10.3-4.8-5.5-9.7-4.8-9.7-4.8zm49.3 31.3c.4.6.2 1.4-.5 1.8-.6.4-1.4.2-1.8-.5-.4-.6-.2-1.4.5-1.8.7-.3 1.5-.1 1.8.5z"/></g><path d="M386.1 334.7l-.5-.2c-71.6-24.9-60.1-143-59.9-144.2l.2-2.1 2 .9c.3.2 33.6 14.9 57.3-2.9l.9-.7.9.7c23.8 17.8 57 3.1 57.3 2.9l2-.9.2 2.1c.1 1.2 11.7 119.3-59.9 144.2l-.5.2zm-57.5-142c-1.2 15.8-6.1 116 57.5 138.7 63.6-22.7 58.7-122.9 57.5-138.7-7.7 3-35.6 12.2-57.5-3.4-21.9 15.5-49.8 6.4-57.5 3.4z" fill="#cdce0c"/><path d="M346.2 295.8c8.7 15.8 21.4 29 39.9 35.6 18.5-6.6 31.2-19.8 39.9-35.6h-79.8z" fill="#82afff"/></svg>