<svg xmlns="http://www.w3.org/2000/svg" viewBox="0 0 511.997 511.997"><path d="M473.601 423.703H38.34c-21.175 0-38.34-17.165-38.34-38.34V126.634c0-21.175 17.165-38.34 38.34-38.34h435.261c21.175 0 38.34 17.165 38.34 38.34v258.729c.001 21.175-17.165 38.34-38.34 38.34z" fill="#4173cd"/><path d="M.057 317.789h511.94v17.653H.057zm0 35.31h511.94v17.653H.057z" fill="#ffe15a"/><path fill="#ff4b55" d="M65.282 175.949l-32.844-11.215 32.844-11.215 11.216-32.841 11.215 32.841 32.844 11.215-32.844 11.215-11.215 32.842z"/><path d="M76.498 126.58l9.713 28.441 28.441 9.713-28.441 9.713-9.713 28.441-9.713-28.441-28.441-9.713 28.441-9.713 9.713-28.441m0-11.807l-3.611 10.573-9.107 26.67-26.67 9.107-10.573 3.61 10.573 3.61 26.67 9.107 9.107 26.67 3.611 10.573 3.611-10.573 9.107-26.67 26.67-9.107 10.573-3.61-10.573-3.61-26.67-9.107-9.107-26.669-3.611-10.574z" fill="#f5f5f5"/></svg>