<svg xmlns="http://www.w3.org/2000/svg" viewBox="0 0 512 512"><path fill="#41479B" d="M473.7 422.8H38.3c-21.1 0-38.3-17-38.3-38V128c0-21 17.2-38 38.3-38h435.4c21.1 0 38.3 17 38.3 38v256.8c0 21-17.2 38-38.3 38Z"/><path fill="#F5F5F5" d="M150 143.2V90h-44v53.2L26.7 91.7A39 39 0 0 0 5 109l65 42.3H0v43.8h70.2L0 240.7v7a8.7 8.7 0 0 0 8.8 8.7h15.4l81.7-53.1v53.1h44.2v-53.1l81.7 53.1h15.4a8.9 8.9 0 0 0 8.8-8.8v-7l-70.2-45.5H256v-43.8h-70.2l70.2-45.6v-7a8.7 8.7 0 0 0-8.8-8.7h-15.4l-81.7 53.2Z"/><path fill="#FF4B55" d="M256 160H141.2V90h-26.4v70H0v26.3h114.8v70.1h26.4v-70H256V160Z"/><path fill="#FF4B55" d="M8.2 104.5 81 151.3h16.2L14.6 98.2c-2.4 1.8-4.5 4-6.4 6.3Zm158 46.8 88.5-57a8.7 8.7 0 0 0-7.5-4.3h-2l-95.1 61.3h16.2Zm-76.7 43.8L1.3 251.9a8.7 8.7 0 0 0 7.5 4.5h1.7l95.2-61.3H89.5Zm166.4 53.2-82.7-53.2H157l93.9 60.4c2.8-1.2 4.7-4 5-7.2Z"/><path fill="#288548" d="m408.2 242.7-21.8 50.2-21.7-50.2 21.7-50.3 21.8 50.3Z"/><path fill="#fff" d="M339.9 260.1s3.8 7.6 12.9 7.6c9 0 14.2-5.8 14.2-5.8l9.1 10.5s-5.8 3.5-5.8 7.5c0 0-3.9-3.5-2.6-6.4 0 0-2.6 2.4-4.5 3 0 0-.7-3.6.6-5.3 0 0-4.5 2.3-10.3 2.3-5.9 0-11.7-3.4-13-6.4-1.3-2.9-.6-7-.6-7Zm36.2-7.5c0 1.9-1.7 3.4-3.9 3.4H369c-2.2 0-4-1.5-4-3.4 0-2 1.8-3.5 4-3.5h3.2c2.2 0 3.9 1.5 3.9 3.5Zm20-4.7c0 2-1.7 3.5-3.8 3.5H389c-2.1 0-3.8-1.6-3.8-3.5 0-2 1.7-3.5 3.8-3.5h3.3c2.1 0 3.9 1.6 3.9 3.5Z"/><path fill="#6488BD" d="M378.6 255.2c-1.8 1-4.2.5-5.4-1l-1.4-2c-1.1-1.7-.6-3.8 1.2-4.9l.6-.3c1.8-1 4.2-.5 5.3 1.1l1.4 2c1.2 1.6.6 3.8-1.2 4.8l-.5.3Zm22-2.3c-1.8 1-4.2.5-5.4-1.1l-1.4-2a3.3 3.3 0 0 1 1.2-4.8l.6-.3c1.8-1 4.2-.5 5.3 1l1.4 2c1.2 1.7.6 3.8-1.2 4.9l-.5.3Z"/><path fill="#297F47" d="M386.3 254c-1.8 1-4.2.6-5.3-1l-1.4-2a3.3 3.3 0 0 1 1.2-4.8l.6-.3c1.8-1 4.2-.6 5.3 1l1.4 2c1.1 1.6.6 3.8-1.2 4.8l-.6.3Zm19 1.7c-2 0-3.8-1.6-3.7-3.6v-2.3c.2-2 2-3.4 4.1-3.4h.6c2.2.1 3.9 1.7 3.8 3.7v2.3c-.2 2-2 3.4-4 3.4h-.7Z"/><path fill="#689F9E" d="M386.4 249c8.4-.3 20.7 21.6 21.4 24.5.6 3-3.9 11-7.1 12.8-3.3 1.8-18.2 3.5-22 .6-4-2.9-4.6-10.5-5.2-12.8-.7-2.3-7.1-10.5-7.1-10.5l-7.1-1.1 2.5-2.4 8.5.6.6-2.3H367s5.8-8.7 19.4-9.3Z"/><path fill="#481918" d="M383.8 285.2c3.3-3.5 15-12.3 18.8-10.5 3.9 1.7 3.3 5.2-.6 8.7-4 3.5-18.2 1.8-18.2 1.8Z"/><path fill="#fff" d="M386.4 284h-38.8v31c0 21 8.7 32 15.9 37.8a94 94 0 0 0 23 11.1s15.8-5.2 22.9-11c7.1-5.9 15.9-17 15.9-38V284h-38.9Z"/><path fill="#3AB1D6" d="M414.9 343.4c-5.2 0-9 5.3-14.2 5.3-5.2 0-9.1-4.7-13.6-4.7s-8.4 4.7-13.6 4.7c-5.2 0-9-5.3-14.3-5.3-1 0-2.3.3-3.5.8 2.5 3.7 5.2 6.4 7.8 8.5a94 94 0 0 0 23 11s15.8-5.1 22.9-11c2.6-2.1 5.5-5 8-8.8-.8-.3-1.7-.5-2.5-.5Zm0-25c-5.2 0-9 5.2-14.2 5.2-5.2 0-9.1-4.6-13.6-4.6s-8.4 4.6-13.6 4.6c-5.2 0-9-5.2-14.3-5.2-3.5 0-8 3.3-11 4.8.4 3.7 1.1 7 2 10 2.6-1.6 5.2-3.2 8.4-3.2 6.5 0 11 5.3 15.5 5.3 4.6 0 8.5-4.1 13-4.1s8.4 4 13 4c4.4 0 9-5.2 15.5-5.2 2.7 0 5 1.2 7.2 2.5.9-3 1.6-6.3 2-10-3-1.6-6.8-4.1-9.9-4.1Zm0-25c-5.2 0-9 5.2-14.2 5.2-5.2 0-9.1-4.7-13.6-4.7s-8.4 4.7-13.6 4.7c-5.2 0-9-5.3-14.3-5.3-3.7 0-8.5 3.7-11.6 5v11.5c3.4-1.9 6.6-4.8 11-4.8 6.5 0 11 5.2 15.5 5.2 4.6 0 8.5-4 13-4s8.4 4 13 4c4.4 0 9-5.2 15.5-5.2 3.8 0 6.7 2.2 9.7 4v-11.3c-3-1.6-7.1-4.4-10.4-4.4Z"/><path fill="#288548" d="M350.9 334.9a41 41 0 0 0 7.2 12.6l28.3-28.6 28.4 28.6a43 43 0 0 0 7.2-12.6l-35.6-34.6L351 335Z"/><path fill="#74948F" d="M328.2 341c2 0 6.6 0 8.4.7 5.4 2.2 9 7.5 9 7.5s7.8 5.3 8.5 8.8c0 0 5.8 2.3 5.8 4.6 0 2.4-8.4 4.7-11 4.1-2.6-.6-9.7-2.3-12.3-1.2A35 35 0 0 1 323 368c-3.2-.6-7 0-9.7 0-2.6 0-5.8-2.4-9.7-3.5-3.9-1.2-13 1.2-14.2-2.3-1.3-3.5 9-7 12.9-7 3.9 0 15-13.4 25.9-14Z"/><path fill="#CFDCD9" d="M321 344s3.3.6 4 .6c.6 0 4.5-1.2 5.8-.6 1.3.6.6 2.3 2.6 3 1.9.5 2.6 1 1.3 2.8l-2.6 3.5s-7.2 1.2-9.8 2.4c-2.5 1.1-7.7 2.9-1.9 3.4 5.8.6 14.2 3 13 3.5-1.4.6-9.1 0-11.7 0-2.6 0-7.8 1.2-9 1.2-1.4 0-5.2.6-3.3 1.8 2 1.1-2.6-.6-5.2-1.2s-8.4-2.3-4.5-3.5c3.9-1.2 7.1-.6 9-.6 2 0 4.6-2.3 2.7-3-2-.5 1.9-4.6 5.8-5.2 3.9-.5 10.3-1.7 5.1-2.9-5.1-1.1-5.8-2.9-1.2-5.2Z"/><path fill="#CFDCD9" d="M325.6 355.7c2.6-.6 9 .5 8.4 1.7-.6 1.2-1.3 2.3-3.2 1.7-2-.5-5.2-3.4-5.2-3.4Z"/><path fill="#3C4544" d="M354 358c-.6-3.5-8.4-8.8-8.4-8.8s-3.4-5-8.5-7.3c-2 .6-2.7 2-.5 3.3 3.2 1.7 3.2 2.9 2 3.5a7.3 7.3 0 0 0-3.3 2.9c-.6 1.1 2-.6 5.2 0l5.8 1.1c2.6.6 5.2 3 3.9 3.5-1.3.6 1.3 1.2 2 3 .6 1.7-1.4 1.1-4 1.1s-9.7 0-10.3.6c-.7.6 12.3.6 12.3 1.8 0 1.1-7.2 0-9 .5a33 33 0 0 1-11 1.2c-2.7-.6-7.9-1.2-9.2-.6-1.3.6-4.5 1.2-.6 1.8 3.9.5 10.3.5 14.2 0 4-.6 6.5-3 10.4-1.8 2 .6 2.1 1.7 2.3 2.6l1.6.3c1.5.4 5-.3 7.8-1.4l2.8-1.8c.3-.3.4-.6.4-.8 0-2.4-5.8-4.7-5.8-4.7Z"/><path fill="#288548" d="M331.4 338.8s-1.3-5.3 0-5.9c1.3-.5 3.3 1.8 3.3 1.8s0-6.4 2-5.8c1.9.6 2.5 2.9 2.5 2.9s2-4.7 3.9-3.5c2 1.2 0 4.7 0 4.7s4.5 1.7 3.2 3.5c-1.3 1.7-7.7 1.7-9 2.3-1.3.6-.7 2.3.6 1.7 1.3-.5 7.8-2.9 7.1-.5-.6 2.3-2 2.9-4.5 2.9-2.6 0-7.1-1.2-7.1-1.2l-5.8 3.5-.7-.6 4.5-5.8Zm-11-5.9c.7 2.4 1.3 3 3.9 3 2.6 0 4.5 1.1 3.2 2.3-1.3 1.2-4.5 1.2-4.5 1.2l2 4.6-.7.6-2.6-4.7-2.6 3s-3.9-2.4-2.6-3.5c1.3-1.2 4-1.2 2.6-2.4-1.3-1.1-3.2-4.6.7-4 3.9.5-2.6 1.7-2.6 1.7l3.2-1.8Zm-38.8 24.5c.7-1.2 4.5-2.3 4.5-2.3s.7-4.7 2.6-4.7c2 0 3.9 3.5 3.9 3.5s.6-2.3 2-1.8c1.2.6 4.5 3.5 3.8 4.7-.6 1.2-1.3 5.2-3.9 5.8-2.5.6-5.1-3.5-5.1-3.5s-1.3.6-3.9.6c-2.6 0-3.9-2.3-3.9-2.3Zm58.9-9.3s2-5.3 3.9-4.7c2 .6 2 3 2 3s5.7-.6 8.3 1.1c2.6 1.8 2.6 5.2-.6 6.4-3.3 1.2-7.8-1.2-8.4-1.7-.7-.6-.7 6.4-3.3 6.4-2.6 0-3.9-3-3.2-4.7.6-1.7 0-3.5 0-3.5s-5.2 0-6.5 2.4c0 0 1.3-1.8 3.9-3l3.9-1.7Z"/><path fill="#D1BEA7" d="M337.3 264.2s-2-3.5-8.5-1.1a11.8 11.8 0 0 0-8.4 9.3c-.6 2.9 1.3 5.8-3.2 8.7-4.5 3-7.8 21-2.6 20.4 5.2-.6 6.5-1.2 9 .6 2.7 1.7 8.5 2.3 12.4-1.8 0 0 3.8 5.3 3.8 8.2 0 3-1.3 11 2.6 12.2 0 0 5.8-7 5.8-14s-1.9-14.5-8.4-18c0 0 2.6-1.8 4.6-4 1.9-2.4 3.2-1.8 7-1.8h10.4s-2.6-5.3-5.8-6.4c-3.2-1.2-9-4.1-14.9 0-5.8 4-9.7 7-9.7 7l-.6-4.1s1.3-2.4 3.9-4.7c2.5-2.3 2.5-5.8 2.5-7.5v-3Z"/><path fill="#937A61" d="M348.2 274.1c11 0 14.3 9.3 14.3 9.3h-11.7s-1.9-.5-3.2-.5c-1.3 0-5.8 2.9-7.8 6.4-2 3.5-11.6-.6-9.7-3.5 2-3 6.5-11.7 18.1-11.7Z"/><path fill="#AF987E" d="M325.6 285.2c.3-1 2.2-1.2 4.5-.8 2.5.5 4.9 2.4 7.2 3.1 5.8 1.7 12.2 9.3 12.2 16.3s-5.8 15.1-6.4 16.9c-.7 1.7-2 0-2.6-1.8-.7-1.7-.7-5.8-.7-9.3 0-3.5-2-8.7-5.1-10.5-3.3-1.7-11.7-4.6-9-14Zm-9.7 47.7c0 1.5 2 6.5 2 11.7l-.7 3.5c-.2 5-2 7.6-3.2 9.3 0 0-3.3-1.2-6.5-5.2-3.3-4.1-3.9-8.2-2-11.7 2-3.5 10.4-7.6 10.4-7.6Z"/><path fill="#D1BEA7" d="M312 326.5c.7 0 2.3 12.2 1.3 17-2 9.2-9.7 19.7-14.9 18.6-5.1-1.2-1.9-4.1-.6-6.4 1.3-2.4 3.2-7.6 2-11.7-1.4-4 12.2-17.5 12.2-17.5Z"/><path fill="#BA8F69" d="M322.4 299.7c2 3.5 6.4 6.4 11.6 1.2 0 0 2 8.7-2 14.6-3.8 5.8-18.7 21-18.7 21l-2-10 11-26.8Z"/><path fill="#BB6C3F" d="M312.6 280c4.6-1.8 11 1.1 11.7 4.6.6 3.5 1.3 11.6.6 15.1-.6 3.5 0 9.4-1.2 12.3-1.4 2.9-6.5 5.8-7.2 9.9-.6 4-4.5 7.5-10.3 13.4-5.8 5.8-14.9 15.1-17.5 14-2.6-1.2-5.8-22.2 2-40.3a80 80 0 0 1 22-29Z"/><path fill="#020202" d="M329.5 264.8c2.6-1.2 4.5-.6 2.6 1.2-2 1.7-5.2 0-2.6-1.2Z"/><path fill="#74948F" d="M444.7 341c-2.1 0-6.7 0-8.4.7-5.4 2.2-9.1 7.5-9.1 7.5s-7.8 5.3-8.4 8.8c0 0-5.8 2.3-5.8 4.6 0 2.4 8.4 4.7 11 4.1 2.5-.6 9.7-2.3 12.2-1.2a35 35 0 0 0 13.6 2.4c3.3-.6 7.1 0 9.7 0 2.6 0 5.9-2.4 9.8-3.5 3.8-1.2 12.9 1.2 14.2-2.3 1.3-3.5-9-7-13-7-3.8 0-14.8-13.4-25.8-14Z"/><path fill="#CFDCD9" d="m451.8 344-3.9.6c-.6 0-4.5-1.2-5.8-.6-1.3.6-.7 2.3-2.6 3-2 .5-2.6 1-1.3 2.8l2.6 3.5s7.1 1.2 9.7 2.4c2.6 1.1 7.8 2.9 2 3.4-5.9.6-14.3 3-13 3.5 1.3.6 9 0 11.7 0 2.6 0 7.7 1.2 9 1.2 1.3 0 5.2.6 3.3 1.8-2 1.1 2.6-.6 5.1-1.2 2.6-.6 8.5-2.3 4.6-3.5-4-1.2-7.2-.6-9.1-.6-2 0-4.5-2.3-2.6-3 2-.5-2-4.6-5.8-5.2-3.9-.5-10.4-1.7-5.2-2.9 5.2-1.1 5.8-2.9 1.3-5.2Z"/><path fill="#CFDCD9" d="M447.3 355.7c-2.6-.6-9.1.5-8.5 1.7.7 1.2 1.3 2.3 3.3 1.7a20 20 0 0 0 5.2-3.4Z"/><path fill="#3C4544" d="M418.8 358c.6-3.5 8.4-8.8 8.4-8.8s3.5-5 8.6-7.3c1.9.6 2.7 2 .5 3.3-3.2 1.7-3.2 2.9-2 3.5 1.3.5 2.6 1.7 3.3 2.9.6 1.1-2-.6-5.2 0l-5.8 1.1c-2.6.6-5.2 3-3.9 3.5 1.3.6-1.3 1.2-2 3-.6 1.7 1.4 1.1 4 1.1 2.5 0 9.6 0 10.3.6.6.6-12.3.6-12.3 1.8 0 1.1 7.1 0 9 .5a33 33 0 0 0 11 1.2c2.7-.6 7.8-1.2 9.1-.6 1.3.6 4.5 1.2.7 1.8-3.9.5-10.4.5-14.3 0-3.9-.6-6.4-3-10.3-1.8-2 .6-2.1 1.7-2.3 2.6l-1.6.3c-1.5.4-5.1-.3-7.8-1.4l-2.9-1.8-.3-.8c0-2.4 5.8-4.7 5.8-4.7Z"/><path fill="#288548" d="M441.4 338.8s1.3-5.3 0-5.9c-1.3-.5-3.2 1.8-3.2 1.8s0-6.4-2-5.8c-1.9.6-2.5 2.9-2.5 2.9s-2-4.7-4-3.5c-1.9 1.2 0 4.7 0 4.7s-4.4 1.7-3.1 3.5c1.2 1.7 7.7 1.7 9 2.3 1.3.6.7 2.3-.6 1.7-1.3-.5-7.8-2.9-7.2-.5.7 2.3 2 2.9 4.6 2.9 2.6 0 7-1.2 7-1.2l6 3.5.6-.6-4.6-5.8Zm11-5.9c-.6 2.4-1.3 3-3.8 3-2.6 0-4.6 1.1-3.3 2.3 1.3 1.2 4.5 1.2 4.5 1.2L448 344l.7.6 2.5-4.7 2.6 3s4-2.4 2.6-3.5c-1.3-1.2-3.9-1.2-2.6-2.4 1.3-1.1 3.3-4.6-.6-4-3.9.5 2.6 1.7 2.6 1.7l-3.3-1.8Zm38.9 24.5c-.7-1.2-4.6-2.3-4.6-2.3s-.6-4.7-2.6-4.7c-1.9 0-3.8 3.5-3.8 3.5s-.7-2.3-2-1.8c-1.3.6-4.5 3.5-3.8 4.7.6 1.2 1.2 5.2 3.8 5.8 2.6.6 5.2-3.5 5.2-3.5s1.3.6 3.9.6c2.6 0 3.9-2.3 3.9-2.3Zm-59-9.3s-1.9-5.3-3.8-4.7c-2 .6-2 3-2 3s-5.8-.6-8.4 1.1c-2.6 1.8-2.6 5.2.7 6.4 3.2 1.2 7.7-1.2 8.4-1.7.6-.6.6 6.4 3.2 6.4s3.9-3 3.2-4.7c-.6-1.7 0-3.5 0-3.5s5.2 0 6.5 2.4c0 0-1.3-1.8-3.9-3l-3.8-1.7Z"/><path fill="#D1BEA7" d="M435.6 264.2s2-3.5 8.4-1.1c6.5 2.3 7.8 6.4 8.4 9.3.7 2.9-1.3 5.8 3.3 8.7 4.5 3 7.7 21 2.6 20.4-5.2-.6-6.5-1.2-9 .6a10.1 10.1 0 0 1-12.4-1.8s-3.9 5.3-3.9 8.2c0 3 1.3 11-2.6 12.2 0 0-5.8-7-5.8-14s2-14.5 8.4-18c0 0-2.6-1.8-4.5-4-2-2.4-3.2-1.8-7.1-1.8H411s2.6-5.3 5.9-6.4c3.2-1.2 9-4.1 14.8 0 5.9 4 9.8 7 9.8 7l.6-4.1s-1.3-2.4-3.9-4.7c-2.6-2.3-2.6-5.8-2.6-7.5v-3Z"/><path fill="#937A61" d="M424.6 274.1a15 15 0 0 0-14.2 9.3H422s2-.5 3.3-.5c1.3 0 5.8 2.9 7.7 6.4 2 3.5 11.7-.6 9.7-3.5-1.9-3-6.4-11.7-18-11.7Z"/><path fill="#AF987E" d="M447.3 285.2c-.3-1-2.3-1.2-4.6-.8-2.5.5-4.8 2.4-7 3.1-5.9 1.7-12.4 9.3-12.4 16.3s5.8 15.1 6.5 16.9c.6 1.7 2 0 2.6-1.8.6-1.7.6-5.8.6-9.3 0-3.5 2-8.7 5.2-10.5 3.2-1.7 11.6-4.6 9-14Zm9.7 47.7c0 1.5-2.1 6.5-2 11.7l.7 3.5c.2 5 2 7.6 3.2 9.3 0 0 3.2-1.2 6.5-5.2 3.2-4.1 3.9-8.2 2-11.7-2-3.5-10.4-7.6-10.4-7.6Z"/><path fill="#D1BEA7" d="M460.9 326.5c-.7 0-2.3 12.2-1.3 17 1.9 9.2 9.7 19.7 14.8 18.6 5.2-1.2 2-4.1.7-6.4-1.3-2.4-3.3-7.6-2-11.7 1.3-4-12.2-17.5-12.2-17.5Z"/><path fill="#BA8F69" d="M450.5 299.7c-2 3.5-6.5 6.4-11.6 1.2 0 0-2 8.7 2 14.6a255 255 0 0 0 18.7 21l2-10-11-26.8Z"/><path fill="#BB6C3F" d="M460.2 280c-4.5-1.8-11 1.1-11.6 4.6a58.9 58.9 0 0 0-.7 15.1c.7 3.5 0 9.4 1.3 12.3 1.3 2.9 6.5 5.8 7.1 9.9.7 4 4.6 7.5 10.4 13.4 5.8 5.8 14.9 15.1 17.5 14 2.6-1.2 5.8-22.2-2-40.3a80 80 0 0 0-22-29Z"/><path fill="#020202" d="M443.4 264.8c-2.6-1.2-4.5-.6-2.6 1.2 2 1.7 5.2 0 2.6-1.2Z"/><path fill="#fff" d="M323.7 224s2.6 5.9 10.3 5.3c7.8-.6 13.6-2.4 15.6 4 0 0-4.6.6-6.5 3.5-2 3 3.2 10.5 3.2 10.5s-5.1 0-7-3c0 0-.7 5.3-4.6 8.8-1.6 1.5-5.8 1.8-5.8 1.8l6.4-11.7c1.3-2.3 2.6-5.2-3.2-1.7-5.8 3.5-13.6 6.4-18.1 1.7 0 0 18.8-7.5 22.6-9.3-6.4 0-7-.6-12.9 0-3.5.4-7.1 1.8-7.1 1.8s-.7-4.7 6.5-4.7c4.5 0-.7-1.2-1.3-3.5-.7-2.3 1.9-3.5 1.9-3.5Zm99 47.8s14.2-1.8 12.3-13.4c-2-11.7-11.7-19.8-9.7-26.8 0 0-4.6 1.1-5.9 4.6-2.5 7.6 5.7 13.8 7.2 15.8 2.6 3.5 3.9 7.5 3.9 7.5s-7.2-5.2-11 0c0 0 4.5-.5 6.4 1.2 2 1.8 3.2 4 1.3 6.4-2 2.4-4.5 4.7-4.5 4.7Zm40.7-39.6s6.5 2.3 6.5 5.8-3.2 4.7-8.4 4.7c0 0 2.6-1.8 3.3-4.1.6-2.3-1.4-6.4-1.4-6.4Z"/><path fill="#905F41" d="M363.8 228.1s9.7 5.8 12.3 6.4c2.6.6 13 0 13 0l1.9-4s5.1-1.2 8.4-1.2c3.2 0 7.1.6 7.1.6l1.3 3.4-5.2 10.5h-17.5c-2.5 0-8.4-1.7-9.7-4-1.3-2.4-6.4-5.3-7.7-7-1.3-1.8-8.4-6.4-4-4.7Z"/><path fill="#905F41" d="M390.3 234.4c0 .7-.6 1.3-1.3 1.3-.7 0-1.3-.6-1.3-1.3v-23c0-.8.6-1.4 1.3-1.4.7 0 1.3.6 1.3 1.3v23Zm-11.6.7c0 .6-.6 1.2-1.3 1.2-.8 0-1.3-.6-1.3-1.2v-21c0-.6.5-1.1 1.3-1.1.7 0 1.3.5 1.3 1.1v21Zm18.7 0c0 .6-.6 1.2-1.3 1.2-.7 0-1.3-.6-1.3-1.2v-21c0-.6.6-1.1 1.3-1.1.7 0 1.3.5 1.3 1.1v21Z"/><path fill="#fff" d="M381.3 220c0 .6-2.3 1.1-5.2 1.1-2.8 0-5.2-.5-5.2-1.1 0-.7 2.4-1.2 5.2-1.2 2.9 0 5.2.5 5.2 1.2Zm2.6 5.8c0 .6-3 1.1-6.9 1.1-3.7 0-6.8-.5-6.8-1.1 0-.7 3-1.2 6.8-1.2s6.9.5 6.9 1.2Zm9.7-7.9c0 .5-2.3.9-5.2.9-2.9 0-5.2-.4-5.2-.9s2.3-.9 5.2-.9c2.9 0 5.2.4 5.2 1Z"/><path fill="#fff" d="M401.3 217.6c0 .3-1.9.6-4.2.6-2.3 0-4.2-.3-4.2-.6s1.9-.6 4.2-.6c2.3 0 4.2.3 4.2.6Zm-9 5.8c0 .7-2 1.2-4.3 1.2s-4.2-.5-4.2-1.2c0-.6 2-1.1 4.2-1.1 2.4 0 4.3.5 4.3 1.1Zm9 0c0 .6-1.9 1-4.2 1-2.3 0-4.2-.4-4.2-1 0-.5 1.9-.9 4.2-.9 2.3 0 4.2.4 4.2 1Z"/><path fill="#8FD2E2" d="M365 245.6s5.3-.6 2.7-4.7c0 0 2.6-1.1 5.8 1.8 3.2 2.9 9 0 5.2-3.5 0 0 3.2-1.8 5.8.6 2.6 2.3 7.1 2.9 5.2-1.8 0 0 4.5-1.1 6.4 2.4 2 3.5 9.1 2.9 5.9-1.8 0 0 3.2-.6 4.5 1.8 1.3 2.3 2.6 2.9 2.6 2.9s2.6-3 5.1 0c2.6 2.9 1.3 5.8-3.2 6.4-4.5.6-6.5-4-6.5-4s-2 2.2-5.1 1.7c-3.3-.6-5.2-3-5.2-3s-3.8 1.8-5.8 1.8c-3.3 0-5.7-2.8-6.5-1.8-1.3 1.8-5.2 3.5-9 1.8 0 0-3.3 4.6-7.2 4.6-3.9 0-7.8-2-7.8-5.2 0-3 2-4 4-3.5 1.9.6 3.2 3.5 3.2 3.5Z"/><path fill="#288548" d="M356 257.8s-7 1.8-7.7 5.3c-.7 3.4-1.3 4-1.3 4s-3.3-1.1-5.2-3.5c-2-2.3-2.6-7.5-2-9.3a43 43 0 0 1 5.9-9.9c2.6-2.9 3.9-8.7 3.2-11-.6-2.4-3.9-4.7-3.9-4.7s8.5 0 9.7 4.6c1.3 4.7-1.2 8.2-1.2 8.2s1.2.6 3.2-1.7c0 0 .6 5.8-3.2 7 0 0-2.7 3.4-4 6.4-1.2 2.9-3.5 6.3-1.9 5.2 3.2-2.3 8.4-.6 8.4-.6ZM313.3 234s-2.6 3-2.6 4.7c0 1.7 2.6 5.8 6.5 7 0 0-11.7-4.1-11.7-7.6s5.2-4 7.8-4Zm105.5 3.5s1.3-8.7 8.4-8.1c7.1.6 17.5 2.3 19.4.6 2-1.8 1.3-5.3 1.3-5.3s3.9.6 4.5 2.3c.7 1.8-1.9 4.1-1.9 4.1s3.2-.6 5.2 1.2c2 1.7 3.8 4 3.8 4s-6.4-1.7-9.7-1.7a314 314 0 0 1-12.3-.6s9.1 4.7 14.3 6.4c5.1 1.8 9 3.5 15.5 1.8l-8.4 4.6c-2 1.2-5.2 1.2-9-.6a115 115 0 0 1-10.4-5.8 21.3 21.3 0 0 0 7.1 15.2s-5.8-1.2-8.4-3.5c-2.6-2.3-2.6-7.6-2.6-7.6s-3.2 4-7.8 3c0 0 2-1.2 3.3-4.1 1.3-3 3.2-5.3 1.3-7.6-2-2.4-4.6-4.7-7.8-4-3.2.5-5.8 5.7-5.8 5.7Zm-23.3 11.7c-5.8 2.3-9.7 5.8-9 14.5 0 0 3.2-5.8 6.4-7.5 0 0 0 5.2 2 9.9 2 4.6 7 8.1 11 8.7 0 0-4.6-6.4-4.6-11.6 0 0 3.9 8.7 10.4 14l.6-4.1s-2.6-2.4-3.2-5.3c0 0 3.9 4.7 9 4.7 5.3 0 9.1-3 9.8-7 0 0-2.6 1.2-7.1 1.7-4.6.6-9.7-1.7-13.6-6.4a20 20 0 0 1-4.6-8.7l-7.1-3Z"/></svg>