<svg xmlns="http://www.w3.org/2000/svg" viewBox="0 0 512 512"><path d="M0 387.466c1.077 20.215 17.807 36.277 38.292 36.277h435.359c21.18 0 38.349-17.169 38.349-38.349v-73.479H0v75.551z" fill="#73af00"/><path d="M473.651 88.257H38.292c-20.485 0-37.215 16.062-38.292 36.277v75.552h512v-73.479c0-21.18-17.169-38.35-38.349-38.35z" fill="#82afff"/><path fill="#ff4b55" d="M0 200.089h512v111.83H0z"/><g fill="#f5f5f5"><path d="M268.071 292.611c-19.812 0-35.885-16.072-35.885-35.903 0-19.795 16.072-35.903 35.885-35.903 7.372 0 14.17 2.267 19.835 6.104.867.588 1.857-.553 1.131-1.308-8.467-8.802-20.45-14.173-33.736-13.72-22.826.779-41.723 19.08-43.182 41.873-1.671 26.107 19.001 47.803 44.74 47.803 12.678 0 24.072-5.3 32.21-13.775.718-.748-.274-1.872-1.132-1.289-5.672 3.848-12.481 6.118-19.866 6.118z"/><path d="M299.486 234.608l3.723 10.468 10.035-4.77c.756-.36 1.545.429 1.185 1.185l-4.771 10.035 10.468 3.723c.789.28.789 1.396 0 1.676l-10.468 3.723 4.771 10.035c.36.756-.429 1.545-1.185 1.185l-10.035-4.77-3.723 10.469c-.28.789-1.396.789-1.676 0l-3.723-10.468-10.035 4.77c-.756.36-1.545-.429-1.185-1.185l4.77-10.035-10.468-3.723c-.789-.28-.789-1.396 0-1.676l10.468-3.723-4.77-10.035c-.36-.756.429-1.545 1.185-1.185l10.035 4.77 3.723-10.468c.281-.788 1.396-.788 1.676-.001z"/></g></svg>