<svg xmlns="http://www.w3.org/2000/svg" viewBox="0 0 512 512"><path d="M38.292 88.256c-20.485 0-37.215 16.061-38.292 36.277v262.933c1.077 20.215 17.807 36.277 38.292 36.277h164.766V88.256H38.292z" fill="#41479b"/><path d="M473.651 88.256H203.057v334.382h279.727C499.553 418.54 512 403.424 512 385.393V126.605c0-21.18-17.169-38.349-38.349-38.349z" fill="#f5f5f5"/><path d="M262.615 254.072a16.368 16.368 0 00-10.225 3.587l-17.604 14.084a16.366 16.366 0 01-10.225 3.587h-4.887v-2.811a7.818 7.818 0 017.818-7.818h8.126v-3.789a6.84 6.84 0 00-6.84-6.84h-3.789a5.314 5.314 0 00-5.314-5.314c-14.674 0-26.571 11.896-26.571 26.571h-10.201a16.36 16.36 0 01-10.223-3.587l-17.605-14.084a16.365 16.365 0 00-10.223-3.587H67.328c-2.612 0-3.92 3.157-2.073 5.005l26.832 26.832a18.308 18.308 0 0012.945 5.362h18.988l15.588 11.691a21.251 21.251 0 0012.754 4.251h19.486c3.345 0 6.496-1.575 8.502-4.251l2.125-2.834v12.4l-13.114 26.229c-1.3 2.599.59 5.657 3.496 5.657h42.908a3.909 3.909 0 003.909-3.909v-47.462l7.44 9.92a10.628 10.628 0 008.503 4.251h19.486c4.6 0 9.075-1.492 12.754-4.251l15.588-11.691h18.988c4.856 0 9.512-1.929 12.945-5.362l26.832-26.832c1.846-1.846.539-5.005-2.073-5.005h-77.522zm-57.856-86.105l2.54 7.618 8.031.062c1.04.008 1.471 1.335.635 1.952l-6.46 4.771 2.422 7.657c.313.991-.816 1.811-1.661 1.206l-6.533-4.669-6.533 4.669c-.845.605-1.974-.215-1.661-1.206l2.422-7.657-6.46-4.771c-.837-.618-.405-1.944.635-1.952l8.031-.062 2.54-7.618c.328-.987 1.723-.987 2.052 0zm-117.96 48.01l7.183 3.59 5.722-5.635c.74-.729 1.984-.096 1.83.933l-1.195 7.941 7.127 3.701c.923.479.704 1.857-.321 2.027l-7.921 1.318-1.318 7.921c-.171 1.025-1.548 1.244-2.027.321l-3.701-7.127-7.941 1.195c-1.029.155-1.662-1.088-.933-1.83l5.635-5.722-3.59-7.183c-.467-.928.52-1.915 1.45-1.45zm235.318 1.452l-3.59 7.183 5.634 5.722c.729.741.096 1.984-.933 1.83l-7.941-1.195-3.701 7.127c-.479.923-1.857.704-2.027-.321l-1.318-7.921-7.921-1.318c-1.025-.171-1.244-1.548-.321-2.027l7.127-3.701-1.195-7.941c-.155-1.029 1.088-1.662 1.83-.933l5.722 5.635 7.183-3.59c.929-.467 1.916.52 1.451 1.45zM141.003 180.24l5.263 6.066 7.443-3.016c.963-.391 1.869.67 1.333 1.562l-4.143 6.88 5.168 6.147c.669.796-.06 1.985-1.073 1.75l-7.823-1.814-4.249 6.815c-.55.882-1.907.556-1.996-.479l-.692-8.001-7.793-1.936c-1.009-.251-1.119-1.641-.161-2.047l7.395-3.131-.568-8.011c-.073-1.037 1.215-1.57 1.896-.785zm127.355.786l-.568 8.011 7.395 3.131c.958.405.848 1.797-.161 2.047l-7.793 1.936-.692 8.001c-.089 1.036-1.446 1.362-1.996.479l-4.249-6.815-7.823 1.814c-1.013.235-1.741-.955-1.073-1.75l5.168-6.147-4.143-6.88c-.536-.891.37-1.951 1.333-1.562l7.442 3.016 5.263-6.066c.681-.786 1.97-.253 1.897.785zm-96.082-10.062l3.978 6.976 7.888-1.505c1.021-.195 1.703 1.022 1.003 1.791l-5.405 5.939 3.869 7.036c.501.912-.446 1.936-1.394 1.507l-7.319-3.305-5.497 5.854c-.712.758-1.979.174-1.864-.86l.882-7.982-7.267-3.419c-.941-.443-.777-1.828.242-2.038l7.864-1.628 1.005-7.968c.133-1.029 1.501-1.301 2.015-.398zm124.754 25.615l-2.12 7.746 6.642 4.514c.86.584.481 1.927-.557 1.975l-8.022.377-2.24 7.712c-.29.999-1.684 1.053-2.052.081l-2.838-7.512-8.026.253c-1.04.033-1.522-1.276-.711-1.926l6.268-5.02-2.721-7.555c-.352-.978.744-1.842 1.612-1.271l6.712 4.41 6.344-4.923c.824-.638 1.984.137 1.709 1.139zm-184.888-1.14l6.344 4.923 6.712-4.41c.869-.571 1.964.292 1.612 1.271l-2.721 7.555 6.268 5.02c.811.65.329 1.959-.711 1.926l-8.026-.253-2.838 7.512c-.367.972-1.761.918-2.052-.081l-2.239-7.712-8.022-.377c-1.038-.049-1.417-1.392-.557-1.975l6.642-4.514-2.12-7.746c-.274-1.001.886-1.776 1.708-1.139zm125.059-24.074l1.005 7.968 7.864 1.628c1.019.211 1.182 1.596.242 2.038l-7.267 3.419.882 7.982c.114 1.033-1.153 1.618-1.864.86l-5.497-5.854-7.319 3.305c-.948.428-1.895-.597-1.394-1.507l3.869-7.036-5.405-5.939c-.7-.769-.018-1.986 1.003-1.791l7.888 1.505 3.978-6.976c.517-.906 1.884-.634 2.015.398z" fill="#ffe15a"/><path d="M72.189 126.167v22.852c0 9.45-7.689 17.138-17.138 17.138s-17.138-7.689-17.138-17.138v-22.852h34.276m5.712-11.425H32.199a5.713 5.713 0 00-5.713 5.713v28.565c0 15.776 12.789 28.565 28.565 28.565s28.565-12.789 28.565-28.565v-28.565a5.716 5.716 0 00-5.715-5.713z" fill="#ff4b55"/><path d="M72.189 126.167v22.852c0 9.45-7.689 17.138-17.138 17.138s-17.138-7.689-17.138-17.138v-22.852h34.276" fill="#f5f5f5"/><g fill="#ffe15a"><circle cx="32.16" cy="120.449" r="2.856"/><circle cx="77.857" cy="120.449" r="2.856"/><circle cx="32.16" cy="143.309" r="2.856"/><circle cx="77.857" cy="143.309" r="2.856"/><circle cx="55.01" cy="120.449" r="2.856"/><circle cx="72.15" cy="164.379" r="2.856"/><circle cx="38.19" cy="164.379" r="2.856"/></g><path d="M58.74 141.858v4.92c0 2.034-1.655 3.689-3.689 3.689s-3.689-1.655-3.689-3.689v-4.92h7.378m0-11.664v4.92c0 2.034-1.655 3.689-3.689 3.689s-3.689-1.655-3.689-3.689v-4.92h7.378m0 23.447v4.92c0 2.034-1.655 3.689-3.689 3.689s-3.689-1.655-3.689-3.689v-4.92h7.378m9.937-11.783v4.92a3.693 3.693 0 01-3.689 3.689 3.693 3.693 0 01-3.689-3.689v-4.92h7.378m-19.875 0v4.92c0 2.034-1.655 3.689-3.689 3.689s-3.689-1.655-3.689-3.689v-4.92h7.378" fill="#41479b"/></svg>