<svg xmlns="http://www.w3.org/2000/svg" viewBox="0 0 512 512"><path d="M38.345 423.724h102.898l70.621-20.966-70.621-20.966 70.621-20.966-70.621-20.966 70.621-20.966-70.621-20.966 70.621-20.966L141.242 256l70.621-20.966-70.621-20.966 70.621-20.966-70.621-20.966 70.621-20.966-70.621-20.966 70.621-20.966-70.621-20.966H38.345C17.167 88.276 0 105.443 0 126.621V385.38c0 21.177 17.167 38.344 38.345 38.344z" fill="#f5f5f5"/><path d="M141.241 130.207l70.621 20.966-70.621 20.966 70.621 20.966-70.621 20.966 70.621 20.966L141.241 256l70.621 20.966-70.621 20.966 70.621 20.966-70.621 20.966 70.621 20.966-70.621 20.966 70.621 20.966-70.621 20.966h332.414c21.177 0 38.345-17.167 38.345-38.345V126.621c0-21.177-17.167-38.345-38.345-38.345H141.242l70.621 20.966-70.622 20.965z" fill="#ff4b55"/></svg>