<svg xmlns="http://www.w3.org/2000/svg" viewBox="0 0 512 512"><path d="M473.655 88.277H38.345C17.527 88.277.597 104.87.028 125.549h511.946c-.571-20.681-17.501-37.272-38.319-37.272z" fill="#ffe15a"/><path d="M512 126.622c0-.36-.018-.715-.028-1.073H.028c-.01.358-.028.713-.028 1.073v36.199h512v-36.199z" fill="#ff4b55"/><path fill="#ffe15a" d="M0 162.821h512v37.27H0z"/><path fill="#ff4b55" d="M0 200.09h512v37.27H0z"/><path d="M0 237.361h512v37.27H0zm38.345 186.363h435.31c20.818 0 37.748-16.593 38.317-37.272H.028c.569 20.681 17.499 37.272 38.317 37.272z" fill="#ffe15a"/><path fill="#ff4b55" d="M0 274.641h512v37.27H0z"/><path fill="#ffe15a" d="M0 311.911h512v37.27H0z"/><path d="M511.972 386.453c.01-.358.028-.713.028-1.073v-36.2H0v36.199c0 .36.018.715.028 1.073h511.944z" fill="#ff4b55"/><path d="M8.828 256h238.345a8.829 8.829 0 008.828-8.828V97.104a8.828 8.828 0 00-8.823-8.828H38.345C17.167 88.277 0 105.444 0 126.622v120.552C0 252.048 3.953 256 8.828 256z" fill="#64466e"/><path d="M235.442 162.614h-20.327v-23.231h2.904v-5.807H188.98v5.807h2.904v23.231h-11.615v-23.231h2.903v-5.807h-29.039v5.807h2.904v23.231h-17.422v-29.038h2.904v-5.807h-29.038v5.807h2.904v29.038H98.962v-23.231h2.904v-5.807H72.828v5.807h2.904v23.231H64.116v-23.231h2.904v-5.807H37.982v5.807h2.904v23.231H17.655v5.807h2.904v52.269h40.654v-17.423a5.807 5.807 0 1111.614 0v17.423h29.039v-17.423a5.807 5.807 0 1111.614 0v17.423h5.808v-20.327a8.713 8.713 0 0117.424 0v20.327h5.808v-17.423a5.807 5.807 0 1111.614 0v17.423h29.035v-17.423a5.807 5.807 0 1111.614 0v17.423h40.654v-52.268h2.904v-5.807h-2.903v-.001h.004zm-177.134 23.23H46.694v-17.422a5.807 5.807 0 1111.614 0v17.422zm34.846 0H81.539v-17.422a5.807 5.807 0 1111.614 0l.001 17.422zm40.653-17.423h-11.615v-11.615a5.807 5.807 0 1111.614 0l.001 11.615zm40.654 17.423h-11.615v-17.422a5.807 5.807 0 1111.614 0l.001 17.422zm34.845 0h-11.615v-17.422a5.807 5.807 0 1111.614 0l.001 17.422z" fill="#f5f5f5"/></svg>