<svg xmlns="http://www.w3.org/2000/svg" viewBox="0 0 512 512"><path d="M38.345 423.721h132.322V88.273H38.345C17.167 88.273 0 105.44 0 126.618v258.759c0 21.177 17.167 38.344 38.345 38.344z" fill="#41479b"/><path fill="#ffe15a" d="M170.67 88.277h170.67v335.45H170.67z"/><path d="M473.655 423.721c21.177 0 38.345-17.167 38.345-38.345V126.618c0-21.177-17.167-38.345-38.345-38.345H341.334v335.448h132.321z" fill="#41479b"/><path d="M326.621 207.253s-24.564 0-42.987 18.423h12.281s-11.898 21.493-18.039 58.339l-12.665-2.068v-56.455l12.281 4.021L256 176.549l-21.493 52.966 12.281-4.095v56.527l-12.665 2.068c-6.141-36.845-18.039-58.339-18.039-58.339h12.281c-18.422-18.422-42.986-18.422-42.986-18.422 30.705 36.845 30.705 98.255 30.705 98.255l30.705-5.117v41.963h18.423v-41.963l30.705 5.117c-.001 0-.001-61.41 30.704-98.256z" fill="#464655"/></svg>