<svg xmlns="http://www.w3.org/2000/svg" viewBox="0 0 512 512"><path d="M38.345 423.724h435.31c21.177 0 38.345-17.167 38.345-38.345v-49.931H0v49.931c0 21.178 17.167 38.345 38.345 38.345z" fill="#73af00"/><path d="M512 126.621c0-21.177-17.167-38.345-38.345-38.345H38.345C17.167 88.276 0 105.443 0 126.621v208.828h512V126.621z" fill="#ff4b55"/><path d="M38.345 423.724h32.276V88.276H38.345C17.167 88.276 0 105.443 0 126.621V385.38c0 21.177 17.167 38.344 38.345 38.344z" fill="#f5f5f5"/><g fill="#ff4b55"><path d="M58.681 319.72h3.108v8.749h-3.108zM8.839 145.48h3.122v8.75H8.839zm-.006 26.317h1.568v4.438h1.554v4.376h4.66v-4.376h1.569v-4.438h1.523v-5.834h-1.523v-4.438h-1.569v-4.311h-4.66v4.311h-1.554v4.438H8.833v5.834zm3.122-4.375h1.539v-2.916h1.6v2.916h1.521v2.916h-1.521v2.98h-1.6v-2.98h-1.539v-2.916zM8.839 183.53h3.122v8.812H8.839zm24.912-38.05h3.123v8.75h-3.123zm-4.661 11.734v4.311h-1.554v4.438h-1.569v5.834h1.569v4.438h1.554v4.376h4.66v-4.376h3.123v4.376h4.676v-4.376h1.585v-4.438h1.523v-5.834h-1.523v-4.438h-1.585v-4.311h-4.676v4.311H33.75v-4.311h-4.66zm7.784 10.208h1.569v-2.916h1.569v2.916h1.537v2.916h-1.537v2.98h-1.569v-2.98h-1.569v-2.916zm-3.123 2.917h-1.537v2.98h-1.586v-2.98h-1.537v-2.916h1.537v-2.916h1.586v2.916h1.537v2.916zM8.839 286.06h3.122v5.832H8.839zm0-65.89h3.122v5.832H8.839zm24.912-36.64h3.123v8.812h-3.123zM8.839 319.72h3.122v8.749H8.839zm3.116-63.657v-4.437H8.833v8.812h3.122zM8.839 400.31h3.122v8.75H8.839zm49.842 0h3.108v8.75h-3.108zM8.839 357.83h3.122v8.75H8.839zm24.912 42.48h3.123v8.75h-3.123zm20.21-243.159v4.374h-1.537v4.438h-1.569v5.834h1.569v4.374h1.537v4.376h4.693v-4.376h1.554v-4.374h1.537v-5.834h-1.537v-4.438h-1.554v-4.374h-4.693zm4.693 13.188h-1.569v2.915h-1.57v-2.915h-1.554v-2.98h1.554v-2.854h1.569v2.854h1.569l.001 2.98zM58.681 103h3.108v8.75h-3.108zm-49.842 0h3.122v8.75H8.839zm49.842 80.53h3.108v8.812h-3.108zm0-38.05h3.108v8.75h-3.108zM33.751 103h3.123v8.75h-3.123zM21.308 378.32h3.091v7.292h-3.091zm7.782-122.257v-4.437h-3.123v8.812h3.123z"/><path d="M46.241 97.103v7.357h-3.107v7.292h-3.122v7.354h-3.139v7.292H33.75v-7.292h-3.123v-7.354h-3.091v-7.292H24.43v-7.357h-3.123v7.357h-3.123v7.292h-3.091v7.354h-3.139v7.292H8.833v7.357h3.122v7.292h3.139v7.354h3.091v7.354h3.123v7.292h3.091v-7.292h3.139v-7.354h3.091v-7.354h3.123v-7.292h3.123v7.292h3.139v7.354h3.091v7.354h3.138v7.292h3.108v-7.292h3.106v-7.354h3.122v-7.354h3.106v-7.292h3.108v-7.357h-3.092v-7.292h-3.123v-7.354h-3.122v-7.292H49.35v-7.357h-3.109zm-15.614 36.65h-3.091v7.292h-3.139v7.354h-3.09v-7.354h-3.123v-7.292h-3.091v-7.357h3.091v-7.292h3.123v-7.354h3.091v7.354h3.139v7.292h3.091l-.001 7.357zm21.83-14.647v7.292h3.122v7.357h-3.122v7.292h-3.106v7.354h-3.108v-7.354h-3.107v-7.292h-3.122v-7.357h3.122v-7.292h3.107v-7.354h3.108v7.354h3.106zM33.751 240.65h3.123v7.292h-3.123zm0 23.46h3.123v7.292h-3.123zM41.55 256v4.438h3.107v-8.812H41.55zm1.585 144.312v7.292h3.107v7.293h3.108v-7.293h3.106v-7.292h3.122v-7.354h3.123v-7.354h3.092v-7.292h-3.108v-7.357h-3.106v-7.292h-3.122v-7.354h-3.106v-7.292h-3.108v7.292h-3.138v7.354h-3.091v7.292h-3.139v7.357h-3.123v-7.357h-3.123v-7.292h-3.091v-7.354h-3.139v-7.292h-3.091v7.292h-3.123v7.354h-3.091v7.292h-3.139v7.357H8.833v7.292h3.122v7.354h3.139v7.354h3.091v7.292h3.123v7.293h3.123v-7.293h3.107v-7.292h3.091v-7.354h3.123v-7.354h3.123v7.354h3.139v7.354h3.121zm-12.508-14.709h-3.091v7.354h-3.139v7.354h-3.09v-7.354h-3.123v-7.354h-3.091v-7.292h3.091v-7.357h3.123v-7.292h3.091v7.292h3.139v7.357h3.091l-.001 7.292zm9.386-7.291h3.122v-7.357h3.107v-7.292h3.108v7.292h3.106v7.357h3.122v7.292h-3.122v7.354H49.35v7.354h-3.108v-7.354h-3.107v-7.354h-3.122v-7.292z"/><path d="M38.443 249.407h-1.569v2.219h-3.123v-2.219h-1.537v-2.918H29.09v4.376h1.537v2.219h1.587v5.832h-1.587v2.219H29.09v4.376h3.124v-2.916h1.537v-2.157h3.123v2.157h1.569v2.916h3.107v-4.376h-1.537v-2.219h-1.57v-5.832h1.57v-2.219h1.537v-4.376h-3.107zM46.24 126.4h3.108v7.357H46.24zm0 251.92h3.108v7.292H46.24zm-29.625-23.47v-4.374h1.569v-4.374h1.523v-5.897h-1.523v-4.374h-1.569v-4.376h-4.66v4.376h-1.554v4.374H8.833v5.897h1.568v4.374h1.554v4.374h4.66zm-4.66-13.189h1.569v-2.915h1.569v2.915h1.521v2.98h-1.521v2.916h-1.569v-2.916h-1.569v-2.98zM21.308 126.4h3.091v7.357h-3.091zm37.373 231.43h3.108v8.75h-3.108zm-17.131-2.98v-4.374h1.585v-4.374h1.523v-5.897h-1.523v-4.374H41.55v-4.376h-4.676v4.376h-3.123v-4.376h-4.66v4.376h-1.554v4.374h-1.569v5.897h1.569v4.374h1.554v4.374h4.66v-4.374h3.123v4.374h4.676zm-7.799-10.209h-1.537v2.916h-1.586v-2.916h-1.537v-2.98h1.537v-2.915h1.586v2.915h1.537v2.98zm3.123-2.98h1.569v-2.915h1.569v2.915h1.537v2.98h-1.537v2.916h-1.569v-2.916h-1.569v-2.98zm-3.123 16.169h3.123v8.75h-3.123zm0-38.11h3.123v8.749h-3.123zm24.93-33.66h3.108v5.832h-3.108zm-.027 68.79v-4.374h1.554v-4.374h1.537v-5.834h-1.537v-4.438h-1.554v-4.313h-4.693v4.313h-1.537v4.438h-1.569v5.834h1.569v4.374h1.537v4.374h4.693zm-4.693-13.124h1.554v-2.916h1.569v2.916h1.569v2.915h-1.569v2.98h-1.569v-2.98h-1.554v-2.915zM58.685 256v4.438h3.108v-8.812h-3.108zm-.004-35.83h3.108v5.832h-3.108z"/><path d="M61.793 204.008h-3.108v-7.292h-3.106v-7.357h-3.122v-7.292h-3.106v-7.354h-3.108v7.354h-3.138v7.292h-3.091v7.357h-3.139v7.291h-3.123v-7.292h-3.123v-7.357h-3.091v-7.292h-3.139v-7.354h-3.091v7.354h-3.123v7.292h-3.123v7.357h-3.107v7.291H8.833v7.354h3.122v7.354h3.107v7.292h3.123v7.293h3.123v-7.293h3.091v-7.292h3.139v-7.354h-3.139v-8.814h3.139v5.897h3.091v11.731h1.586v7.228l-4.676.063v5.834H24.4v4.374h-3.091v7.354h-3.123v-7.354h-3.123v-4.374h-3.107v-4.376H8.833v13.188h3.122v5.897h3.107v5.073h3.123v5.836h-3.123v5.199h-3.107v5.834H8.833v13.188h3.122v-4.439h3.107v-4.374h3.123v-7.292h3.123v7.292h3.091v4.374h3.139v5.897l4.676.063v7.228h-1.586v11.731h-3.091v5.897h-3.139v-8.877h3.139v-7.292h-3.139v-7.292h-3.091v-7.357h-3.123v7.357h-3.123v7.292h-3.107v7.292H8.833v7.354h3.122v7.292h3.139v7.357h3.091v7.354h3.123v7.292h3.091v-7.292h3.139v-7.354h3.091v-7.357h3.123v-7.292h3.123v7.292h3.139v7.357h3.122v7.354h3.107v7.292h3.108v-7.292h3.106v-7.354h3.122v-7.357h3.106v-7.292h3.108v-7.354h-3.108v-7.292h-3.106v-7.292h-3.122v-7.357h-3.106v7.357h-3.108v7.292h-3.138v7.292h3.138v8.877h-3.138v-5.897h-3.091v-11.731h-1.569v-7.292h4.691v-5.897h3.107v-4.374h3.108v-7.292h3.106v7.292h3.122v4.374h3.123v4.439h3.092v-13.188h-3.092v-5.834h-3.123v-5.199h-3.122v-5.832h3.122v-5.073h3.123v-5.897h3.092v-13.188h-3.092v4.376h-3.123v4.374h-3.122v7.354h-3.106v-7.354h-3.108v-4.374h-3.107v-5.834h-4.692v-7.292h1.569v-11.731h3.091v-5.897h3.138v8.813h-3.138v7.354h3.138v7.292h3.108v7.293h3.106v-7.293h3.122v-7.292h3.106v-7.354h3.108l.001-7.353zm-18.658 38.105v5.896h3.107v5.073h3.108v5.834h-3.108v5.199h-3.107v5.832h-4.691v6.912h-1.569v3.297h-3.123v-3.297h-1.537v-6.912h-4.676v-5.834H24.4v-5.199h-3.092v-5.835h3.091v-5.073h3.139v-5.897h4.676v-6.91h1.537v-3.362h3.123v3.297h1.569v6.975h4.692v.004z"/></g></svg>