<svg xmlns="http://www.w3.org/2000/svg" viewBox="0 0 512 512"><path d="M511.808 123.616c-1.472-19.776-18.112-35.328-38.208-35.328H38.272c-20.096 0-36.608 15.488-38.208 35.328H0v264.832h.128c1.472 19.776 18.048 35.264 38.144 35.264H473.6c20.224 0 36.672-15.616 38.208-35.328H512V123.616h-.192z" fill="#ff4b55"/><path fill="#41479b" d="M0 123.62h512v264.83H0z"/><circle cx="256" cy="256.03" r="114.82" fill="#f5f5f5"/><path d="M233.984 316.32l-17.728 3.008c-2.176.384-4.288-1.28-4.288-3.584v-6.72h22.016v7.296zm43.904 0l17.728 3.008c2.176.384 4.288-1.28 4.288-3.584v-6.72h-22.016v7.296z" fill="#82afff"/><g fill="#965032"><path d="M252.288 197.216h-1.472c-1.792 0-3.52-1.024-4.288-2.688l-2.688-5.376 2.496-1.216 2.688 5.376c.384.704 1.088 1.088 1.92 1.088h1.472v2.816h-.128zm-26.232 4.656l-4.522-9.044 2.405-1.202 4.522 9.044z"/><path d="M260.992 239.52l-7.488-7.488c-1.6-1.6-2.624-3.904-2.624-6.208v-2.496c0-.896-.192-1.92-.576-2.688l-1.92-3.712a2.215 2.215 0 00-1.984-1.28h-6.528c-1.92 0-3.584-1.088-4.48-2.816l-2.624-5.312 2.496-1.216 2.624 5.312a2.215 2.215 0 001.984 1.28h6.528c1.92 0 3.584 1.088 4.48 2.816l1.92 3.712c.576 1.216.896 2.624.896 3.904v2.496c0 1.6.576 3.072 1.792 4.224l2.816 2.816v-12.8c0-3.52-1.216-6.912-3.392-9.6a17.902 17.902 0 01-4.032-11.328v-10.624h2.688v10.624c0 3.52 1.216 6.912 3.392 9.6a17.902 17.902 0 014.032 11.328v19.456z"/><path d="M254.4 232.416h-4.096c-2.496 0-4.8-1.6-5.696-3.904l-1.024-2.816 2.624-1.024 1.024 2.816c.512 1.28 1.728 2.112 3.072 2.112h4.096v2.816zm-1.628-11.911l-2.46-1.084 15.443-35.018 2.46 1.084zM272 215.648h-13.312v-2.816h10.496V199.52H272z"/></g><path d="M246.784 228.832h-11.008c-3.008 0-5.504-2.496-5.504-5.504 0-3.008 2.496-5.504 5.504-5.504h11.008c3.008 0 5.504 2.496 5.504 5.504 0 3.136-2.496 5.504-5.504 5.504zm25.6 0h-11.008c-3.008 0-5.504-2.496-5.504-5.504 0-3.008 2.496-5.504 5.504-5.504h11.008c3.008 0 5.504 2.496 5.504 5.504 0 3.136-2.368 5.504-5.504 5.504zm11.008-11.008H268.8c-3.008 0-5.504-2.496-5.504-5.504 0-3.008 2.496-5.504 5.504-5.504h14.592c3.008 0 5.504 2.496 5.504 5.504 0 3.136-2.496 5.504-5.504 5.504zm3.712-14.592h-25.6c-3.008 0-5.504-2.496-5.504-5.504 0-3.008 2.496-5.504 5.504-5.504h25.6c3.008 0 5.504 2.496 5.504 5.504 0 3.008-2.496 5.504-5.504 5.504zm-14.72-14.592h-7.296c-3.008 0-5.504-2.496-5.504-5.504 0-3.008 2.496-5.504 5.504-5.504h7.296c3.008 0 5.504 2.496 5.504 5.504 0 3.008-2.368 5.504-5.504 5.504zm-47.552 7.296h-3.712c-3.008 0-5.504-2.496-5.504-5.504 0-3.008 2.496-5.504 5.504-5.504h3.712c3.008 0 5.504 2.496 5.504 5.504-.064 3.008-2.432 5.504-5.504 5.504zm25.664-3.712h-11.008c-3.008 0-5.504-2.496-5.504-5.504 0-3.008 2.496-5.504 5.504-5.504h11.008c3.008 0 5.504 2.496 5.504 5.504-.128 3.136-2.496 5.504-5.504 5.504zm-3.712 18.304h-22.016c-3.008 0-5.504-2.496-5.504-5.504 0-3.008 2.496-5.504 5.504-5.504h22.016c3.008 0 5.504 2.496 5.504 5.504 0 3.136-2.496 5.504-5.504 5.504zm64.128 76.608H201.024c-4.032 0-7.296 3.328-7.296 7.296s3.328 7.296 7.296 7.296h29.312c0 4.032 3.328 7.296 7.296 7.296h36.608c4.032 0 7.296-3.328 7.296-7.296h29.312c4.032 0 7.296-3.328 7.296-7.296.064-4.096-3.264-7.296-7.232-7.296z" fill="#73af00"/><path d="M328.896 222.112c-.32-.512-1.728.128-2.624-.192-11.072-4.096-25.92-11.584-35.584-16.704l-1.92-3.072-18.368-8.896c-1.216-.576-2.624-.128-3.2 1.024l-.896 1.6c-.704 1.216-.192 2.816 1.024 3.392l17.472 9.088 4.992-.384 19.2 9.92s13.12 6.72 13.824 7.232 1.088 3.2 2.432 3.008c.832-.32 4.864-3.584 3.648-6.016z" fill="#be7855"/><path d="M207.616 292.512s1.216 5.376.128 6.016c-1.088.576-7.232.576-7.104-.704.192-1.28 1.024-5.888 1.024-5.888l5.952.576zm10.112-2.88s-1.024 4.032 1.024 4.224 13.184.128 13.504-.192c.32-.32.704-1.088.704-1.088l-10.432-2.88h-4.8v-.064z" fill="#ffbe3c"/><path d="M206.272 239.264s-2.688 6.528-3.712 28.928c-.32 6.016.512 4.608-2.496 23.808l3.52 1.792c1.024.512 2.304.512 3.328-.128l3.392-2.112s-1.728-21.504 3.776-33.92c0 0 2.88 5.312 2.88 9.28s-.192 22.976-.192 22.976 6.4 1.088 9.28.832c0 0-1.792-41.408-3.712-51.072l-16.064-.384z" fill="#eaf3f5"/><path d="M206.912 236.512s-1.088.832-.512 2.688c0 0 8.384 3.584 16.192.512 0 0 .896-1.28-.192-2.816l-15.488-.384zm-11.2-19.776c-4.8 1.792-12.032 6.208-11.52 9.728s2.88 2.688 3.712 1.792 3.008-3.584 3.712-4.096c.704-.512 11.904-6.272 11.904-6.272l29.824-15.296s.192-1.472-1.472-2.688c-.192-.064-18.368 10.112-36.16 16.832z" fill="#965032"/><path d="M209.728 199.456l-.192 1.28s-.512 8.128 2.176 10.176c0 0 .576 1.728-.32 2.496-.896.832-9.984 5.376-9.984 5.376s-2.304 4.928-2.304 7.616c0 0-2.176-.896-1.984-1.92.192-1.088 1.472-3.904 1.088-5.312s-1.92-1.024-1.92-1.024-.704.832.512 1.28l-.384 1.728-4.928 2.88 1.088 1.28s.128 10.112 6.016 11.392c0 0 3.072.192 6.912-6.912 0 0 1.984 3.52 1.28 6.592 0 0 6.528 3.52 15.424.512l.128-6.208s1.408 9.472 6.08 8.576c0 0 12.992-4.992 10.816-6.912-4.992-4.416-11.072-.704-11.072-.704-.32-6.4-.832-14.72-1.728-15.616-1.408-1.472-5.632-.704-6.4-2.624-.832-1.92-.576-5.312.32-9.216s-3.712-6.592-3.712-6.592l-6.912 1.856z" fill="#ffbe3c"/><path d="M209.6 200.736s4.672 1.216 8.32-.32l1.6 4.032h.896s2.176-7.296-.704-7.296c0 0 0-2.432-5.12-2.304-4.416.064-6.016 3.008-4.992 5.888z" fill="#464655"/><path d="M304.896 292.512s-1.216 5.376-.128 6.016c1.088.576 7.232.576 7.104-.704-.192-1.28-1.024-5.888-1.024-5.888l-5.952.576zm-10.112-2.88s1.024 4.032-1.024 4.224c-2.048.192-13.184.128-13.504-.192-.32-.32-.704-1.088-.704-1.088l10.368-2.88h4.864v-.064z" fill="#965032"/><path d="M306.112 239.264s2.688 6.528 3.712 28.928c.32 6.016-.512 4.608 2.496 23.808l-3.52 1.792c-1.024.512-2.304.512-3.328-.128l-3.392-2.112s1.728-21.504-3.776-33.92c0 0-2.88 5.312-2.88 9.28s.192 22.976.192 22.976-6.4 1.088-9.28.832c0 0 1.792-41.408 3.712-51.072l16.064-.384z" fill="#eaf3f5"/><path d="M305.6 236.512s1.088.832.512 2.688c0 0-8.384 3.584-16.192.512 0 0-.896-1.28.192-2.816l15.488-.384z" fill="#be7855"/><path d="M302.784 199.456l.192 1.28s.512 8.128-2.176 10.176c0 0-.576 1.728.32 2.496.896.832 9.984 5.376 9.984 5.376s2.304 4.928 2.304 7.616c0 0 2.176-.896 1.984-1.92-.192-1.088-1.472-3.904-1.088-5.312.384-1.408 1.92-1.024 1.92-1.024s.704.832-.512 1.28l.384 1.728 4.928 2.88-1.088 1.28s-.128 10.112-6.016 11.392c0 0-3.072.192-6.912-6.912 0 0-1.984 3.52-1.28 6.592 0 0-6.528 3.52-15.424.512l-.128-6.208s-1.408 9.472-6.08 8.576c0 0-12.992-4.992-10.816-6.912 4.992-4.416 11.072-.704 11.072-.704.32-6.4.832-14.72 1.728-15.616 1.408-1.472 5.632-.704 6.4-2.624.832-1.92.576-5.312-.32-9.216s3.712-6.592 3.712-6.592l6.912 1.856z" fill="#965032"/><path d="M302.912 200.736s-4.672 1.216-8.32-.32l-1.6 4.032h-.896s-2.176-7.296.704-7.296c0 0 0-2.432 5.12-2.304 4.352.064 5.952 3.008 4.992 5.888z" fill="#464655"/><path d="M224.512 203.744c-.384-.896.32-1.216.32-1.216s4.608-2.496 5.184-2.496c.896.128 1.984 1.6 1.984 3.008 0 1.28 1.728 4.8 5.312 5.696 0 0-4.48 6.08-10.688 5.184-.128 0 .256-4.096-2.112-10.176z" fill="#eaf3f5"/><path d="M230.976 232.16c-1.408 0-2.496 1.216-2.496 2.624v30.272c0 7.296 3.392 33.024 27.52 40.32 24-7.296 27.52-33.024 27.52-40.32v-30.272c0-1.472-1.088-2.624-2.496-2.624h-50.048z" fill="#82afff"/><path d="M283.392 265.12v-30.272c0-1.472-1.088-2.624-2.496-2.624h-25.024v25.6L280 281.952c2.688-7.104 3.392-13.632 3.392-16.832z" fill="#ffe15a"/><path d="M228.48 265.12v-30.272c0-1.472 1.088-2.624 2.496-2.624H256v25.6l-24.128 24.128c-2.752-7.104-3.392-13.632-3.392-16.832z" fill="#eaf3f5"/><path fill="#8c5a28" d="M239.68 281.12l6.4 6.72h17.728l3.712-4.8-4.288 1.792h-14.336z"/><path d="M246.592 272.416l-1.024 9.792-4.416-1.728c.064.064 2.048-4.672 5.44-8.064z" fill="#f5f5f5"/><path d="M255.3 268.64h.704v16.704h-.704zm6.01 1.41h.704v15.232h-.704zm-12.03 0h.704v15.232h-.704z" fill="#8c5a28"/><path d="M257.792 283.616h-4.416c-.32 0-.512-.192-.512-.512v-2.368c0-.32.192-.512.512-.512h4.416c.32 0 .512.192.512.512v2.368c.128.32-.192.512-.512.512zm0-4.608h-4.416c-.32 0-.512-.192-.512-.512V276c0-.32.192-.512.512-.512h4.416c.32 0 .512.192.512.512v2.432c.128.32-.192.576-.512.576zm0-4.352h-4.416c-.32 0-.512-.192-.512-.512v-2.368c0-.32.192-.512.512-.512h4.416c.32 0 .512.192.512.512v2.368c.128.32-.192.512-.512.512zm5.696 8.96h-3.712c-.32 0-.512-.192-.512-.512v-2.368c0-.32.192-.512.512-.512h3.712c.32 0 .512.192.512.512v2.368c0 .32-.192.512-.512.512zm0-4.288h-3.712c-.32 0-.512-.192-.512-.512v-1.92c0-.32.192-.512.512-.512h3.712c.32 0 .512.192.512.512v1.92c0 .32-.192.512-.512.512zm0-4.224h-3.712c-.32 0-.512-.192-.512-.512v-1.408c0-.32.192-.512.512-.512h3.712c.32 0 .512.192.512.512v1.408a.505.505 0 01-.512.512zm-12.096 8.512h-3.712c-.32 0-.512-.192-.512-.512v-2.368c0-.32.192-.512.512-.512h3.712c.32 0 .512.192.512.512v2.368c.128.32-.192.512-.512.512zm0-4.288h-3.712c-.32 0-.512-.192-.512-.512v-1.92c0-.32.192-.512.512-.512h3.712c.32 0 .512.192.512.512v1.92c.128.32-.192.512-.512.512zm0-4.224h-3.712c-.32 0-.512-.192-.512-.512v-1.408c0-.32.192-.512.512-.512h3.712c.32 0 .512.192.512.512v1.408c.128.256-.192.512-.512.512z" fill="#f5f5f5"/><path d="M261.312 270.048v1.984l-2.88-1.024zm-12.032 0v1.984l-2.88-1.024zm6.016-1.408v1.92l-2.88-1.024z" fill="#ff4b55"/><path d="M277.696 287.136h-43.584c.576 1.216 1.408 2.496 2.176 3.712h39.296c.832-1.344 1.536-2.496 2.112-3.712z" fill="#4173cd"/><path d="M275.584 290.72h-39.296a36.131 36.131 0 006.4 7.296h26.432c2.56-2.176 4.672-4.672 6.464-7.296z" fill="#73af00"/><path d="M242.688 298.016c3.52 3.072 7.808 5.696 13.184 7.296 5.376-1.6 9.728-4.224 13.184-7.296h-26.368z" fill="#ffe15a"/><path d="M251.2 259.936s-.32.128-.576.128c-.192-.128-.704-.128-.384-1.024.128-.384.384-1.024.192-1.216s-.32-.384-.512-.576a16.256 16.256 0 01-1.28-1.472c-1.024-1.088-2.112-2.304-3.392-3.52-.704-.576-1.28-1.216-1.984-1.92-.704-.576-1.408-1.28-2.176-1.92-.384-.192-1.024-.384-1.472-.512-.512-.192-.832-.576-1.088-.896a18.843 18.843 0 01-1.984-1.92c-1.28-1.216-2.496-2.368-3.52-3.392s-1.792-1.792-2.304-2.432c-.512-.576-.512-1.472.128-1.984l1.6-1.6c.576-.512 1.472-.512 1.984 0 .576.576 1.408 1.408 2.432 2.368s2.112 2.304 3.328 3.584c.576.704 1.216 1.408 1.792 2.112.32.384.704.704.832 1.216.192.512.32 1.088.512 1.472.512.832 1.216 1.472 1.792 2.176s1.216 1.408 1.792 2.112c1.216 1.408 2.304 2.624 3.392 3.584.512.512 1.024.896 1.408 1.28l.576.576c.128.192.704-.128 1.216-.192.896-.192.896.192.896.384 0 .32-.128.576-.128.576l-3.072 3.008z" fill="#be7855"/><path d="M233.28 262.816c-.32 0-.576-.128-.832-.32-.576-.512-.704-1.28-.32-1.92l12.992-17.728c.384-.576 1.28-.704 1.92-.32.576.512.704 1.28.32 1.92l-12.992 17.728c-.256.448-.64.64-1.088.64z" fill="#965032"/><path fill="#f5f5f5" d="M243.712 241.76l6.784 4.48 2.88-4.032-6.272-5.056z"/><path d="M261.824 240.032l17.408 21.504s2.432.128 2.112-1.792l-17.984-21.12-1.536 1.408z" fill="#965032"/><path d="M257.92 243.04s4.928-.896 6.912-3.904l2.816 3.328s-4.608 3.2-4.992 6.72c-.064-.128-3.776-1.152-4.736-6.144z" fill="#eaf3f5"/><path d="M276.672 240.864c-.32 0-.576-.192-.832-.512-.512-.896-.576-1.792-.32-2.496.512-1.024 1.472-1.28 1.728-1.408.512-.128 1.024.192 1.088.576.128.512-.192 1.024-.576 1.088-.128 0-.384.192-.512.384s0 .576.192 1.024c.192.384.128 1.024-.384 1.216-.064.128-.256.128-.384.128zM262.4 254.112c0-.32-.192-.576-.512-.832-.896-.512-1.792-.576-2.496-.32-1.024.512-1.28 1.472-1.408 1.728-.128.512.192 1.024.576 1.088.512.128 1.024-.192 1.088-.576 0-.128.192-.384.384-.512s.576 0 1.024.192c.384.192 1.024.128 1.216-.384.128-.064.128-.256.128-.384z" fill="#965032"/><path fill="#eaf3f5" d="M277.312 238.816l-16.384 16.128 3.776 4.288 16.064-16.128z"/><path d="M194.112 215.712c1.088-.32 2.112 1.216 1.088 2.304s-3.904 3.008-4.672 2.816c-1.6-.32-2.752-3.712 3.584-5.12z" fill="#ffbe3c"/><path d="M318.272 217.248c-1.024-.32-1.92 1.216-1.024 2.304.896 1.088 3.584 3.008 4.416 2.816 1.536-.32 2.432-3.648-3.392-5.12z" fill="#965032"/><path d="M280.896 232.16c1.408 0 2.496 1.216 2.496 2.624v30.272c0 7.296-3.392 33.024-27.52 40.32-24-7.296-27.52-33.024-27.52-40.32v-30.272c0-1.472 1.088-2.624 2.496-2.624h50.048m0-1.856h-49.92c-2.432 0-4.288 1.984-4.288 4.48v30.272c0 1.728.192 11.008 4.928 20.928 4.992 10.624 13.184 17.92 23.872 21.12l.512.192.512-.192c10.688-3.2 18.88-10.496 23.872-21.12 4.672-9.92 4.928-19.2 4.928-20.928v-30.272c-.128-2.432-1.984-4.48-4.416-4.48z" fill="#464655"/><path d="M299.904 305.824c-7.808-2.624-16.128-1.408-24 3.776-10.112 6.72-16.704 6.72-19.904 6.72-3.2 0-9.92 0-19.904-6.72-7.872-5.184-16.192-6.528-24-3.776v7.808c4.928-2.304 11.776-3.328 19.904 2.112 11.904 7.872 20.416 7.872 24 7.872 3.584 0 12.096 0 24-7.872 8.128-5.376 14.976-4.416 19.904-2.112v-7.808z" fill="#eaf3f5"/><path d="M255.872 347.552c-51.52 0-93.376-41.92-93.376-93.376s41.92-93.376 93.376-93.376 93.44 41.856 93.44 93.312-41.92 93.44-93.44 93.44zm0-183.104c-49.472 0-89.728 40.192-89.728 89.728s40.192 89.728 89.728 89.728 89.728-40.256 89.728-89.792-40.192-89.664-89.728-89.664z" fill="#965032"/><g fill="#73af00"><path d="M153.792 261.92s-.384-11.392 10.624-11.392c0 0 .192 4.48-3.712 6.528-3.2 1.472-6.912 4.864-6.912 4.864z"/><path d="M174.976 261.92s.384-11.392-10.624-11.392c0 0-.192 4.48 3.712 6.528 3.328 1.472 6.912 4.864 6.912 4.864zm183.04-11.456s.384 11.392-10.624 11.392c0 0-.192-4.48 3.712-6.528 3.2-1.472 6.912-4.864 6.912-4.864z"/><path d="M336.832 250.464s-.384 11.392 10.624 11.392c0 0 .192-4.48-3.712-6.528-3.328-1.472-6.912-4.864-6.912-4.864zm-75.2 107.84s-11.392.384-11.392-10.624c0 0 4.48-.192 6.528 3.712 1.536 3.264 4.864 6.912 4.864 6.912z"/><path d="M261.632 337.056s-11.392-.384-11.392 10.624c0 0 4.48.192 6.528-3.712 1.536-3.264 4.864-6.912 4.864-6.912zm-11.456-182.912s11.392-.384 11.392 10.624c0 0-4.48.192-6.528-3.712-1.536-3.328-4.864-6.912-4.864-6.912z"/><path d="M250.176 175.328s11.392.384 11.392-10.624c0 0-4.48-.192-6.528 3.712-1.536 3.2-4.864 6.912-4.864 6.912zm-62.4 157.12s-8.384-7.808-.576-15.616c0 0 3.328 3.008 1.92 7.232-1.088 3.392-1.344 8.384-1.344 8.384z"/><path d="M202.816 317.408s-7.808-8.384-15.616-.576c0 0 3.008 3.328 7.232 1.92 3.392-1.088 8.384-1.344 8.384-1.344zm121.28-137.472s8.384 7.808.576 15.616c0 0-3.328-3.008-1.92-7.232 1.024-3.392 1.344-8.384 1.344-8.384z"/><path d="M309.12 194.912s7.808 8.384 15.616.576c0 0-3.008-3.328-7.232-1.92-3.52 1.152-8.384 1.344-8.384 1.344zm22.976 129.408s-7.808 8.384-15.616.576c0 0 3.008-3.328 7.232-1.92 3.52 1.152 8.384 1.344 8.384 1.344z"/><path d="M317.12 309.344s-8.384 7.808-.576 15.616c0 0 3.328-3.008 1.92-7.232-1.088-3.392-1.344-8.384-1.344-8.384zm-137.408-121.28s7.808-8.384 15.616-.576c0 0-3.008 3.328-7.232 1.92-3.52-1.152-8.384-1.344-8.384-1.344z"/><path d="M194.688 203.04s8.384-7.808.576-15.616c0 0-3.328 3.008-1.92 7.232 1.152 3.456 1.344 8.384 1.344 8.384zm-30.912 97.472s-4.672-10.432 5.376-14.592c0 0 1.92 4.096-1.024 7.424-2.24 2.688-4.352 7.168-4.352 7.168z"/><path d="M183.424 292.448s-4.032-10.688-14.208-6.528c0 0 1.472 4.224 5.888 4.608 3.584.192 8.32 1.92 8.32 1.92zm164.608-80.64s4.672 10.432-5.376 14.592c0 0-1.92-4.096 1.024-7.424 2.24-2.624 4.352-7.168 4.352-7.168z"/><path d="M328.384 219.936s4.032 10.688 14.208 6.528c0 0-1.472-4.224-5.888-4.608-3.584-.192-8.32-1.92-8.32-1.92zM300.288 348.32s-10.368 4.672-14.592-5.376c0 0 4.096-1.92 7.424 1.024 2.688 2.24 7.168 4.352 7.168 4.352z"/><path d="M292.096 328.736s-10.688 4.032-6.528 14.208c0 0 4.224-1.472 4.608-5.888.256-3.648 1.92-8.32 1.92-8.32zm-80.512-164.672s10.432-4.672 14.592 5.376c0 0-4.096 1.92-7.424-1.024-2.624-2.304-7.168-4.352-7.168-4.352z"/><path d="M219.712 183.648s10.688-4.032 6.528-14.208c0 0-4.224 1.472-4.608 5.888-.256 3.712-1.92 8.32-1.92 8.32zm2.368 169.088s-10.688-4.032-6.528-14.208c0 0 4.224 1.472 4.608 5.888.256 3.648 1.92 8.32 1.92 8.32z"/><path d="M230.208 333.152s-10.432-4.672-14.592 5.376c0 0 4.096 1.92 7.424-1.024 2.688-2.24 7.168-4.352 7.168-4.352zm59.52-173.44s10.688 4.032 6.528 14.208c0 0-4.224-1.472-4.608-5.888-.256-3.712-1.92-8.32-1.92-8.32z"/><path d="M281.6 179.232s10.432 4.672 14.592-5.376c0 0-4.096-1.92-7.424 1.024-2.688 2.368-7.168 4.352-7.168 4.352zm70.784 110.72s-4.032 10.688-14.208 6.528c0 0 1.472-4.224 5.888-4.608 3.712-.256 8.32-1.92 8.32-1.92z"/><path d="M332.8 281.824s-4.672 10.432 5.376 14.592c0 0 1.92-4.096-1.024-7.424-2.24-2.688-4.352-7.168-4.352-7.168zm-173.376-59.392s4.032-10.688 14.208-6.528c0 0-1.472 4.224-5.888 4.608-3.648.192-8.32 1.92-8.32 1.92z"/><path d="M179.008 230.56s4.672-10.432-5.376-14.592c0 0-1.92 4.096 1.024 7.424 2.24 2.624 4.352 7.168 4.352 7.168zm-22.08 51.2s-2.624-11.072 8.192-13.312c0 0 1.088 4.416-2.432 7.104-2.88 2.176-5.76 6.208-5.76 6.208z"/><path d="M177.728 277.664s-1.92-11.328-12.608-9.216c0 0 .704 4.48 4.928 5.632 3.456.96 7.68 3.584 7.68 3.584zm177.152-47.04s2.624 11.072-8.192 13.312c0 0-1.088-4.416 2.368-7.104 2.944-2.176 5.824-6.208 5.824-6.208z"/><path d="M334.08 234.848s1.92 11.328 12.608 9.216c0 0-.704-4.48-4.928-5.632-3.328-1.024-7.68-3.584-7.68-3.584zm-52.672 120.384s-11.072 2.624-13.312-8.192c0 0 4.416-1.088 7.104 2.432 2.176 2.752 6.208 5.76 6.208 5.76z"/><path d="M277.312 334.432s-11.328 1.92-9.216 12.608c0 0 4.48-.704 5.632-4.928.96-3.456 3.584-7.68 3.584-7.68zM230.4 157.216s11.072-2.624 13.312 8.192c0 0-4.416 1.088-7.104-2.432-2.176-2.816-6.208-5.76-6.208-5.76z"/><path d="M234.496 178.016s11.328-1.92 9.216-12.608c0 0-4.48.704-5.632 4.928-.96 3.392-3.584 7.68-3.584 7.68zm-30.592 166.208s-9.728-6.016-3.584-15.232c0 0 3.904 2.304 3.328 6.72-.448 3.648.256 8.512.256 8.512z"/><path d="M215.68 326.624s-9.28-6.72-15.424 2.496c0 0 3.584 2.688 7.488.512 3.136-1.792 7.936-3.008 7.936-3.008zm92.224-158.464s9.728 6.016 3.584 15.232c0 0-3.904-2.304-3.328-6.72.448-3.648-.256-8.512-.256-8.512z"/><path d="M296.128 185.76s9.28 6.72 15.424-2.496c0 0-3.584-2.688-7.488-.512-3.136 1.856-7.936 3.008-7.936 3.008zM344 308.128s-6.016 9.728-15.232 3.584c0 0 2.304-3.904 6.72-3.328 3.584.576 8.512-.256 8.512-.256z"/><path d="M326.272 296.352s-6.72 9.28 2.496 15.424c0 0 2.688-3.584.512-7.488-1.792-3.072-3.008-7.936-3.008-7.936zm-158.464-92.096s6.016-9.728 15.232-3.584c0 0-2.304 3.904-6.72 3.328-3.648-.576-8.512.256-8.512.256z"/><path d="M185.472 216.032s6.72-9.28-2.496-15.424c0 0-2.688 3.584-.512 7.488 1.856 3.136 3.008 7.936 3.008 7.936zm-11.264 101.632s-6.72-9.28 2.496-15.424c0 0 2.688 3.584.512 7.488-1.792 3.072-3.008 7.936-3.008 7.936z"/><path d="M191.808 305.952s-6.016-9.728-15.232-3.584c0 0 2.304 3.904 6.72 3.328 3.584-.576 8.512.256 8.512.256zM337.6 194.72s6.72 9.28-2.496 15.424c0 0-2.688-3.584-.512-7.488 1.792-3.136 3.008-7.936 3.008-7.936z"/><path d="M320 206.56s6.016 9.728 15.232 3.584c0 0-2.304-3.904-6.72-3.328-3.584.448-8.512-.256-8.512-.256zm-2.624 131.392s-9.28 6.72-15.424-2.496c0 0 3.584-2.688 7.488-.512 3.136 1.792 7.936 3.008 7.936 3.008z"/><path d="M305.6 320.224s-9.728 6.016-3.584 15.232c0 0 3.904-2.304 3.328-6.72-.576-3.584.256-8.512.256-8.512zM194.432 174.56s9.28-6.72 15.424 2.496c0 0-3.584 2.688-7.488.512-3.072-1.92-7.936-3.008-7.936-3.008z"/><path d="M206.208 192.16s9.728-6.016 3.584-15.232c0 0-3.904 2.304-3.328 6.72.512 3.584-.256 8.512-.256 8.512zM241.6 357.408s-11.328-1.92-9.216-12.608c0 0 4.48.704 5.632 4.928.96 3.52 3.584 7.68 3.584 7.68z"/><path d="M245.696 336.608s-11.072-2.624-13.312 8.192c0 0 4.416 1.088 7.104-2.368 2.24-2.88 6.208-5.824 6.208-5.824zm24.512-181.696s11.328 1.92 9.216 12.608c0 0-4.48-.704-5.632-4.928-1.024-3.328-3.584-7.68-3.584-7.68z"/><path d="M266.112 175.712s11.072 2.624 13.312-8.192c0 0-4.416-1.088-7.104 2.432-2.24 2.88-6.208 5.76-6.208 5.76zm91.072 94.848s-1.92 11.328-12.608 9.216c0 0 .704-4.48 4.928-5.632 3.392-1.088 7.68-3.584 7.68-3.584z"/><path d="M336.384 266.336s-2.624 11.072 8.192 13.312c0 0 1.088-4.416-2.432-7.104-2.816-2.24-5.76-6.208-5.76-6.208zm-181.696-24.384s1.92-11.328 12.608-9.216c0 0-.704 4.48-4.928 5.632-3.456.96-7.68 3.584-7.68 3.584z"/><path d="M175.488 246.048s2.624-11.072-8.192-13.312c0 0-1.088 4.416 2.432 7.104 2.752 2.176 5.76 6.208 5.76 6.208z"/></g></svg>