<svg xmlns="http://www.w3.org/2000/svg" viewBox="0 0 511.999 511.999"><path d="M511.221 118.893a38.024 38.024 0 00-2.235-7.197c-.727-1.72-1.577-3.377-2.538-4.958s-2.033-3.087-3.204-4.508a38.395 38.395 0 00-3.807-3.992 38.045 38.045 0 00-1.138-.985L13.7 414.749a38.18 38.18 0 0024.644 8.975h435.31c21.177 0 38.345-17.167 38.345-38.345V126.621a38.43 38.43 0 00-.778-7.728z" fill="#41479b"/><path d="M496.598 95.894a38.171 38.171 0 00-22.943-7.618H224.779L0 235.544v149.834c0 11.791 5.326 22.335 13.7 29.369L498.3 97.252a37.767 37.767 0 00-1.702-1.358z" fill="#f5f5f5"/><path d="M38.345 88.276a38.172 38.172 0 00-22.942 7.618 38.707 38.707 0 00-6.647 6.336 38.287 38.287 0 00-7.977 16.663A38.503 38.503 0 000 126.621v108.925l224.779-147.27H38.345z" fill="#ffe15a"/><path d="M202.274 229.137c-4.006-26.737-25.089-47.82-51.826-51.826l-9.207-18.415-9.207 18.415c-26.737 4.006-47.819 25.088-51.826 51.826l-18.415 9.207 18.415 9.207c4.006 26.737 25.089 47.82 51.826 51.826l9.207 18.415 9.207-18.415c26.737-4.006 47.819-25.088 51.826-51.826l18.415-9.207-18.415-9.207zm-61.033 62.173c-29.252 0-52.966-23.713-52.966-52.965s23.713-52.966 52.966-52.966 52.966 23.713 52.966 52.966-23.713 52.965-52.966 52.965z" fill="#464655"/><path fill="#ff4b55" d="M141.241 204.398l9.505 17.484 19.892-.51-10.388 16.972 10.388 16.972-19.892-.509-9.505 17.482-9.504-17.482-19.893.509 10.388-16.972-10.388-16.972 19.893.51z"/></svg>