<svg xmlns="http://www.w3.org/2000/svg" viewBox="0 0 512 512"><path d="M473.655 88.275H38.345C17.167 88.275 0 105.442 0 126.62v258.76c0 21.177 17.167 38.345 38.345 38.345h435.31c21.177 0 38.345-17.167 38.345-38.345V126.62c0-21.178-17.167-38.345-38.345-38.345z" fill="#73af00"/><path d="M251.41 135.207L65.354 248.458c-5.651 3.439-5.651 11.641 0 15.081L251.41 376.792a8.828 8.828 0 009.18 0L446.646 263.54c5.651-3.439 5.651-11.641 0-15.081L260.59 135.207a8.833 8.833 0 00-9.18 0z" fill="#ffe15a"/><circle cx="256" cy="255.999" r="70.62" fill="#41479b"/><path d="M195.4 219.872a70.117 70.117 0 00-7.605 18.077c39.149-2.946 97.062 8.006 133.922 43.773a70.079 70.079 0 004.59-19.522c-38.06-32.033-90.679-43.424-130.907-42.328zm63.525 60.227l1.88 5.638 5.943.046c.769.006 1.088.988.469 1.445l-4.781 3.531 1.793 5.666c.232.734-.604 1.341-1.229.893l-4.835-3.456-4.835 3.456c-.626.447-1.461-.159-1.229-.893l1.793-5.666-4.781-3.531c-.619-.457-.3-1.439.469-1.445l5.943-.046 1.88-5.638c.244-.731 1.276-.731 1.52 0zm23.099 14.584l.809 2.426 2.558.02a.345.345 0 01.202.622l-2.058 1.519.771 2.439a.345.345 0 01-.53.384l-2.081-1.487-2.081 1.487a.344.344 0 01-.529-.384l.771-2.439-2.058-1.519c-.267-.196-.129-.619.202-.622l2.558-.02.809-2.426c.107-.315.552-.315.657 0zm-33.086-25.295l.809 2.426 2.558.02a.345.345 0 01.202.622l-2.058 1.519.771 2.439a.344.344 0 01-.529.384l-2.081-1.487-2.081 1.487a.345.345 0 01-.53-.384l.771-2.439-2.058-1.519a.345.345 0 01.202-.622l2.558-.02.809-2.426c.107-.312.552-.312.657 0zm-44.808-2.942l.809 2.426 2.558.02a.345.345 0 01.202.622l-2.058 1.519.771 2.439a.345.345 0 01-.53.384l-2.081-1.487-2.081 1.487a.345.345 0 01-.529-.384l.771-2.439-2.058-1.519c-.267-.196-.129-.619.202-.622l2.558-.02.809-2.426c.108-.313.552-.313.657 0zm37.484 27.4l.809 2.426 2.558.02a.345.345 0 01.202.622l-2.058 1.519.771 2.439a.344.344 0 01-.529.384l-2.081-1.487-2.081 1.487a.345.345 0 01-.53-.384l.771-2.439-2.058-1.519a.345.345 0 01.202-.622l2.558-.02.809-2.426c.108-.314.553-.314.657 0zm-20.624-29.093l.662 1.984 2.092.017c.27.002.383.348.166.509l-1.683 1.242.631 1.994a.282.282 0 01-.433.314l-1.702-1.216-1.702 1.216a.282.282 0 01-.433-.314l.631-1.994-1.683-1.242a.282.282 0 01.166-.509l2.092-.017.662-1.984c.085-.256.448-.256.534 0zm62.829-40.959l.828 2.482 2.616.02c.339.002.479.435.206.637l-2.104 1.554.789 2.495a.352.352 0 01-.541.393l-2.129-1.522-2.129 1.522a.352.352 0 01-.541-.393l.789-2.495-2.104-1.554a.353.353 0 01.206-.637l2.616-.02.828-2.482a.352.352 0 01.67 0zm-76.807 28.821l.662 1.984 2.092.017c.27.002.383.348.166.509l-1.683 1.242.631 1.994a.282.282 0 01-.433.314l-1.702-1.216-1.702 1.216a.282.282 0 01-.433-.314l.631-1.994-1.683-1.242a.282.282 0 01.166-.509l2.092-.017.662-1.984a.281.281 0 01.534 0zm10.1 27.966l1.002 3.005 3.168.024c.41.003.58.526.25.77l-2.549 1.882.956 3.02a.427.427 0 01-.655.476l-2.578-1.843-2.578 1.843a.427.427 0 01-.655-.476l.956-3.02-2.549-1.882a.427.427 0 01.25-.77l3.168-.024 1.002-3.005c.133-.39.683-.39.812 0zm77.791 14.732l.631 1.891 1.993.015a.268.268 0 01.158.484l-1.603 1.184.601 1.9a.269.269 0 01-.413.299l-1.621-1.159-1.622 1.159a.269.269 0 01-.413-.299l.601-1.9-1.603-1.184a.268.268 0 01.158-.484l1.993-.015.63-1.891a.269.269 0 01.51 0zm6.974-14.43l.809 2.426 2.558.02a.345.345 0 01.202.622l-2.058 1.519.771 2.439a.344.344 0 01-.529.384l-2.081-1.487-2.081 1.487a.344.344 0 01-.529-.384l.771-2.439-2.058-1.519a.345.345 0 01.202-.622l2.558-.02.809-2.426a.346.346 0 01.656 0z" fill="#f5f5f5"/></svg>