<svg xmlns="http://www.w3.org/2000/svg" viewBox="0 0 512.004 512.004"><path d="M225.391 88.277H61.853l163.538 53.573zm286.61 61.793v-23.448a38.153 38.153 0 00-5.972-20.54l-134.28 43.988h140.252zm-61.736-61.793H286.726v53.573zM5.994 106.05A38.09 38.09 0 00.06 124.548v25.522h140.309L5.994 106.05zm506.007 134.102v-45.944H371.75zM.058 194.208v45.963l140.309-45.963zm286.668 61.793h163.539l-163.539-53.574zm-224.874 0h163.539v-53.574z" fill="#41479b"/><path d="M102.336 374.07c25.589 0 25.589-7.724 51.178-7.724 25.6 0 25.6 7.724 51.2 7.724s25.6-7.724 51.2-7.724 25.6 7.724 51.2 7.724c25.593 0 25.593-7.724 51.186-7.724 25.597 0 25.597 7.724 51.192 7.724 25.619 0 25.619-7.724 51.237-7.724 25.636 0 25.636 7.724 51.272 7.724v-23.172c-25.635 0-25.636-7.724-51.272-7.724-25.619 0-25.619 7.724-51.237 7.724-25.597 0-25.597-7.724-51.192-7.724-25.593 0-25.593 7.724-51.186 7.724-25.6 0-25.6-7.724-51.2-7.724s-25.6 7.724-51.2 7.724-25.6-7.724-51.2-7.724c-25.589 0-25.589 7.724-51.178 7.724-25.576 0-25.576-7.724-51.153-7.724-25.571 0-25.593 7.712-51.126 7.724v23.172c25.533-.012 25.554-7.724 51.126-7.724 25.577 0 25.577 7.724 51.153 7.724zm0-46.345c25.589 0 25.589-7.724 51.178-7.724 25.6 0 25.6 7.724 51.2 7.724s25.6-7.724 51.2-7.724 25.6 7.724 51.2 7.724c25.593 0 25.593-7.724 51.186-7.724 25.597 0 25.597 7.724 51.192 7.724 25.619 0 25.619-7.724 51.237-7.724 25.636 0 25.636 7.724 51.272 7.724v-23.172c-25.635 0-25.636-7.724-51.272-7.724-25.619 0-25.619 7.724-51.237 7.724-25.597 0-25.597-7.724-51.192-7.724-25.593 0-25.593 7.724-51.186 7.724-25.6 0-25.6-7.724-51.2-7.724s-25.6 7.724-51.2 7.724-25.6-7.724-51.2-7.724c-25.589 0-25.589 7.724-51.178 7.724-25.576 0-25.576-7.724-51.153-7.724-25.571 0-25.593 7.712-51.126 7.724v23.172c25.533-.012 25.554-7.724 51.126-7.724 25.577 0 25.577 7.724 51.153 7.724zm0-46.345c25.589 0 25.589-7.724 51.178-7.724 25.6 0 25.6 7.724 51.2 7.724s25.6-7.724 51.2-7.724 25.6 7.724 51.2 7.724c25.593 0 25.593-7.724 51.186-7.724 25.597 0 25.597 7.724 51.192 7.724 25.619 0 25.619-7.724 51.237-7.724 25.636 0 25.636 7.724 51.272 7.724v-25.379H.058v25.379c25.533-.012 25.554-7.724 51.126-7.724 25.576 0 25.576 7.724 51.152 7.724zm307.156 115.862c-25.597 0-25.597-7.724-51.192-7.724-25.593 0-25.593 7.724-51.186 7.724-25.6 0-25.6-7.724-51.2-7.724s-25.6 7.724-51.2 7.724-25.6-7.724-51.2-7.724c-25.589 0-25.589 7.724-51.178 7.724-25.576 0-25.576-7.724-51.153-7.724-24.948 0-25.587 7.337-49.31 7.706 4.992 15.379 19.429 26.5 36.472 26.5h435.31c17.043 0 31.48-11.122 36.471-26.5-23.767-.369-24.407-7.706-49.398-7.706-25.617 0-25.617 7.724-51.236 7.724zM269.3 256.001h17.426v-53.574l163.539 53.574h54.101l-190.348-61.793h32.428l165.555 53.731v-7.787L371.75 194.208h140.251v-8.828H269.3zm-57.865-61.793l-190.39 61.793h40.807l163.539-53.574v53.574h17.426V185.38H.058v8.828h140.309L.058 240.171v12.098l178.949-58.061zm300.566-35.311v-8.828H371.75l134.279-43.988a38.55 38.55 0 00-8.546-9.492l-164.857 53.48h-32.428l184.967-60.034a38.337 38.337 0 00-11.507-1.759h-23.391l-163.54 53.574V88.277H269.3v70.621h242.701v-.001zm-269.184-70.62h-17.426v53.574L61.853 88.277H38.346a38.167 38.167 0 00-19.011 5.049l174.931 56.744h-32.428l-151.83-49.279a38.496 38.496 0 00-4.014 5.259l134.374 44.02H.058v8.828h242.759V88.277z" fill="#f5f5f5"/><g fill="#ff4b55"><path d="M269.3 158.901H512v26.483H269.3zm-269.242 0h242.76v26.483H.058z"/><path d="M242.817 185.38v70.621H269.3V88.277h-26.483v70.62zm-31.382 8.828h-32.428L.058 252.269v3.732h20.987zm102.583 0l190.348 61.793h7.635v-8.062l-165.555-53.731z"/></g><path d="M102.336 304.553c25.589 0 25.589-7.724 51.178-7.724 25.6 0 25.6 7.724 51.2 7.724s25.6-7.724 51.2-7.724 25.6 7.724 51.2 7.724c25.593 0 25.593-7.724 51.186-7.724 25.597 0 25.597 7.724 51.192 7.724 25.619 0 25.619-7.724 51.237-7.724 25.636 0 25.636 7.724 51.272 7.724v-23.172c-25.635 0-25.636-7.724-51.272-7.724-25.619 0-25.619 7.724-51.237 7.724-25.597 0-25.597-7.724-51.192-7.724-25.593 0-25.593 7.724-51.186 7.724-25.6 0-25.6-7.724-51.2-7.724s-25.6 7.724-51.2 7.724-25.6-7.724-51.2-7.724c-25.589 0-25.589 7.724-51.178 7.724-25.576 0-25.576-7.724-51.153-7.724-25.571 0-25.593 7.712-51.126 7.724H0v23.172h.057c25.533-.012 25.554-7.724 51.126-7.724 25.577 0 25.577 7.724 51.153 7.724zm0 46.344c25.589 0 25.589-7.724 51.178-7.724 25.6 0 25.6 7.724 51.2 7.724s25.6-7.724 51.2-7.724 25.6 7.724 51.2 7.724c25.593 0 25.593-7.724 51.186-7.724 25.597 0 25.597 7.724 51.192 7.724 25.619 0 25.619-7.724 51.237-7.724 25.636 0 25.636 7.724 51.272 7.724v-23.172c-25.635 0-25.636-7.724-51.272-7.724-25.619 0-25.619 7.724-51.237 7.724-25.597 0-25.597-7.724-51.192-7.724-25.593 0-25.593 7.724-51.186 7.724-25.6 0-25.6-7.724-51.2-7.724s-25.6 7.724-51.2 7.724-25.6-7.724-51.2-7.724c-25.589 0-25.589 7.724-51.178 7.724-25.576 0-25.576-7.724-51.153-7.724-25.571 0-25.593 7.712-51.126 7.724H0v23.172h.057c25.533-.012 25.554-7.724 51.126-7.724 25.577 0 25.577 7.724 51.153 7.724zM1.875 397.225c23.723-.37 24.362-7.706 49.31-7.706 25.576 0 25.576 7.724 51.153 7.724 25.589 0 25.589-7.724 51.178-7.724 25.6 0 25.6 7.724 51.2 7.724s25.6-7.724 51.2-7.724 25.6 7.724 51.2 7.724c25.593 0 25.593-7.724 51.186-7.724 25.597 0 25.597 7.724 51.192 7.724 25.619 0 25.619-7.724 51.238-7.724 24.992 0 25.631 7.337 49.398 7.706a38.327 38.327 0 001.874-11.844v-11.31c-25.635 0-25.636-7.724-51.272-7.724-25.619 0-25.619 7.724-51.238 7.724-25.597 0-25.597-7.724-51.192-7.724-25.593 0-25.593 7.724-51.186 7.724-25.6 0-25.6-7.724-51.2-7.724s-25.6 7.724-51.2 7.724-25.6-7.724-51.2-7.724c-25.589 0-25.589 7.724-51.178 7.724-25.576 0-25.576-7.724-51.153-7.724-25.571 0-25.593 7.712-51.126 7.724H.002v11.31a38.242 38.242 0 001.873 11.844z" fill="#41479b"/><path d="M194.265 150.07L19.335 93.326a38.467 38.467 0 00-9.326 7.465l151.829 49.279h32.427zm138.36 0l164.859-53.48a38.223 38.223 0 00-12.32-6.553L300.197 150.07h32.428z" fill="#ff4b55"/><path d="M301.319 156.76l-13.023 6.732-5.143-11.965c-.531-1.235-2.66-1.455-3.592-.373l-10.607 12.338-11.091-17.201c-.744-1.153-2.865-1.153-3.608 0l-11.091 17.201-10.607-12.338c-.931-1.082-3.061-.862-3.592.373l-5.143 11.965-13.023-6.732c-1.721-.889-3.848.566-2.923 2.001l12.722 19.731h-.551c-1.476 0-2.674.928-2.674 2.073v5.853c0 1.145 1.197 2.073 2.674 2.073h72.021c1.476 0 2.674-.928 2.674-2.073v-5.853c0-1.145-1.197-2.073-2.674-2.073h-.551l12.722-19.731c.927-1.435-1.2-2.891-2.92-2.001zm100.383 255.077c18.541-9.549 25.212-23.871 27.64-29.192 3.679-8.06 20.748-14.56 20.748-14.56s-21.086.099-32.372 14.751c-10.404 13.507-29.137 14.669-47.202 25.005a147.137 147.137 0 00-5.334-6.35l56.292-68.143-68.143 56.292a147.087 147.087 0 00-8.264-6.837c1.794-4.664 5.334-11.873 12.285-20.083 13.475-15.917 14.157-31.702 14.365-37.546.316-8.854 13.597-21.393 13.597-21.393s-19.443 8.161-24.263 26.016c-4.44 16.452-21.287 24.694-34.02 41.14a145.612 145.612 0 00-7.362-3.851l25.914-84.448-41.402 78.061a144.796 144.796 0 00-10.263-3.167c-.124-4.999.393-13 3.665-23.219 6.358-19.863.947-34.707-1.098-40.186-3.097-8.301 4.375-24.967 4.375-24.967s-14.84 14.98-12.46 33.321c2.194 16.904-10.225 30.969-15.693 51.044-2.735-.31-5.489-.557-8.267-.715l-8.38-87.982-8.38 87.979c-3.598.204-7.153.563-10.677 1.022-2.029-4.567-4.625-12.169-5.515-22.89-1.727-20.783-12.406-32.428-16.392-36.707-6.039-6.483-5.513-24.74-5.513-24.74s-7.978 19.518 1.24 35.552c8.494 14.775 2.409 32.519 5.035 53.152a142.753 142.753 0 00-7.917 2.502l-41.402-78.061 25.914 84.448c-3.231 1.564-6.376 3.274-9.47 5.063-3.623-3.444-8.925-9.472-13.846-19.028-9.549-18.541-23.872-25.212-29.192-27.64-8.06-3.679-14.56-20.747-14.56-20.747s.098 21.086 14.751 32.371c13.507 10.404 14.669 29.138 25.004 47.203a147.863 147.863 0 00-6.35 5.334l-68.143-56.292 56.292 68.143a147.087 147.087 0 00-6.837 8.264c-4.664-1.794-11.874-5.335-20.083-12.285-15.917-13.475-31.702-14.157-37.547-14.366-8.854-.314-21.391-13.596-21.391-13.596s8.161 19.443 26.016 24.263c14.759 3.983 22.958 17.931 36.351 29.956h261.239c3.605-3.447 9.017-7.772 17.015-11.891zm43.165 11.888l27.316-14.487-47.21 14.487zM39.934 409.238l27.316 14.487h19.895z" fill="#ffe15a"/></svg>