<svg xmlns="http://www.w3.org/2000/svg" viewBox="0 0 512 512"><path d="M473.655 423.724H38.346c-21.177 0-38.345-17.167-38.345-38.345V126.622c0-21.177 17.167-38.345 38.345-38.345h435.309c21.177 0 38.345 17.167 38.345 38.345V385.38c0 21.177-17.167 38.344-38.345 38.344z" fill="#41479b"/><path d="M150.069 141.849V88.277h-44.138v53.573L26.845 90.035c-9.234 2.9-16.954 9.203-21.711 17.434l65.022 42.601H.001v44.138h70.153L.001 240.169v7.033a8.827 8.827 0 008.826 8.797H24.16l81.77-53.572V256h44.138v-53.573L231.838 256h15.333a8.829 8.829 0 008.828-8.828v-7.002l-70.155-45.963h70.155V150.07h-70.155l70.155-45.964v-7.002a8.828 8.828 0 00-8.823-8.828h-15.338l-81.769 53.573z" fill="#f5f5f5"/><g fill="#ff4b55"><path d="M255.999 158.897H141.241v-70.62h-26.483v70.62H0v26.483h114.758v70.621h26.483V185.38h114.758z"/><path d="M8.228 102.903l72.661 47.166h16.214l-82.495-53.55a38.61 38.61 0 00-6.38 6.384zm158.055 47.167l88.374-57.366c-1.536-2.599-4.246-4.427-7.485-4.427h-1.909l-95.194 61.793h16.214zm-76.809 44.138L1.269 251.462c1.519 2.663 4.273 4.537 7.559 4.537h1.665l95.195-61.793H89.474v.002zm166.385 53.658l-82.666-53.658H156.98l93.873 60.934c2.813-1.305 4.741-4.04 5.006-7.276z"/></g><path d="M387.75 171.125h-57.796v105.393c0 23.798 57.796 47.597 57.796 47.597s57.796-23.798 57.796-47.597V171.125H387.75z" fill="#73af00"/><path d="M353.913 251.543s-.324-1.119-.036-2.13c.289-1.011-.454-1.938-.614-2.815-.433-2.382 1.588-2.996 1.696-5.124 0 0 1.443 1.48.903 2.888-.541 1.408.794 1.624.614 2.959-.181 1.335-1.661 2.743-1.516 3.934l-1.047.288z" fill="#ff4b55"/><path d="M376.637 249.281c-1.181-1.476-3.252.114-4.768 1.27-.211.162-.39.286-.577.422l-5.592-8.259c.157-.236.27-.503.27-.807a1.49 1.49 0 10-2.98 0c0 .305.114.572.27.807l-5.769 8.519h-4.085s-.169 2.539 4.291 2.847a5.144 5.144 0 002.377 1.956c-.461.075-.833.431-.833.914v.597c0 .038.036.06.04.097h10.391c.004-.036.04-.059.04-.097v-.597c0-.488-.378-.852-.847-.919 1.739-.7 2.961-2.327 3.167-4.26.162-.12.313-.23.489-.363 1.097-.842 2.749-2.124 3.276-1.453.131.164.118.255.113.288-.06.39-.893.95-1.562 1.399-1.053.707-2.142 1.441-2.228 2.481a.538.538 0 00.49.581h.045a.537.537 0 00.535-.491c.043-.527.993-1.165 1.757-1.677.973-.657 1.892-1.273 2.024-2.127.061-.395-.052-.772-.334-1.128zm-9.559 1.95c-.308-1.174-1.034-2.302-1.941-2.71.48-.247.819-.734.819-1.311a1.49 1.49 0 10-2.98 0c0 .577.338 1.064.819 1.311-.907.407-1.634 1.535-1.941 2.71h-3.065l5.353-7.905c.111.026.219.068.339.068s.227-.042.339-.068l5.353 7.905h-3.095z" fill="#ffe15a"/><path d="M384.066 201.156s-5.383-1.593-7.791 17.247c0 0-13.174 16.751-13.599 17.742-.425.992-.035 8.11 1.382 7.543s3.967-3.86 3.825-6.269.945-3.752 2.018-4.958c2.018-2.266 13.387-12.536 13.812-14.803.424-2.265.353-16.502.353-16.502z" fill="#ffc8b9"/><g fill="#f5f5f5"><path d="M392.425 197.579s8.322-1.098 10.766 7.402c0 0-6.835 3.754-5.985 8.641s-.106 27.198-.106 27.198c-13.068 4.249-19.974-1.063-19.974-1.063s3.4-12.643 2.869-22.948c0 0-3.081-2.337-2.337-4.993.744-2.656 2.656-5.631 3.294-7.862s2.337-5.95 6.481-6.269c4.141-.318 4.992-.106 4.992-.106z"/><path d="M379.534 237.278s-6.516 24.649-4.249 58.221c0 0 20.328 2.691 31.378-1.346 0 0-5.737-40.16-11.262-55.884l-15.867-.991z"/></g><path d="M383.358 183.061v10.211a2.03 2.03 0 002.03 2.03h.182c.793 0 1.437.643 1.437 1.437v2.441s1.368 3.574 6.691-.608v-15.435l-10.34-.076z" fill="#ffc8b9"/><path d="M382.154 180.97c-.33.825.018 3.063 2.053 2.904 2.543-.199 5.613-.213 6.304 2.603.642 2.617.213 9.154 3.046 9.58 2.834.425 6.046-1.458 5.985-7.083-.053-4.958-3.294-10.89-7.827-9.987 0 0-4.02-2.816-6.375.354.002 0-2.477-.142-3.186 1.629z" fill="#8c5a28"/><path d="M403.19 204.981s2.9 19.104 2.762 20.682c-.141 1.629-10.27 17.282-9.704 18.983.567 1.7 1.133 3.967-1.983 4.817s-2.797-4.126-1.948-6.676 7.968-16.131 7.968-17.689-4.038-11.616-3.046-15.583c.993-3.968 5.951-4.534 5.951-4.534z" fill="#ffc8b9"/><path d="M341.163 191.262s-.324-1.119-.036-2.13c.289-1.011-.454-1.938-.613-2.815-.433-2.382 1.588-2.996 1.696-5.124 0 0 1.443 1.48.903 2.888-.542 1.408.794 1.624.614 2.959s-1.661 2.743-1.516 3.934l-1.048.288z" fill="#ff4b55"/><path d="M363.888 189c-1.181-1.476-3.252.114-4.768 1.27-.211.162-.39.286-.577.422l-5.592-8.259c.157-.236.27-.503.27-.807a1.49 1.49 0 10-2.98 0c0 .305.114.572.27.807l-5.769 8.519h-4.085s-.169 2.539 4.291 2.847a5.144 5.144 0 002.377 1.956c-.461.075-.833.431-.833.914v.597c0 .038.036.06.04.097h10.391c.004-.036.04-.058.04-.097v-.597c0-.488-.378-.852-.847-.919 1.739-.7 2.961-2.327 3.167-4.26.162-.12.313-.23.489-.363 1.097-.842 2.749-2.124 3.276-1.453.131.164.118.255.113.288-.06.39-.893.95-1.562 1.399-1.053.707-2.142 1.441-2.228 2.481a.54.54 0 00.49.582h.045a.537.537 0 00.535-.491c.043-.527.993-1.165 1.757-1.677.973-.657 1.892-1.273 2.024-2.127.061-.395-.052-.772-.334-1.129zm-9.559 1.951c-.308-1.174-1.034-2.302-1.941-2.71.48-.247.819-.734.819-1.311a1.49 1.49 0 10-2.98 0c0 .577.338 1.064.819 1.311-.907.407-1.634 1.535-1.941 2.71h-3.065l5.353-7.905c.111.026.218.068.339.068.12 0 .227-.042.339-.068l5.353 7.905h-3.095z" fill="#ffe15a"/><path d="M341.163 211.355s-.324-1.119-.036-2.13c.289-1.011-.454-1.938-.613-2.815-.433-2.382 1.588-2.996 1.696-5.124 0 0 1.443 1.48.903 2.888-.541 1.408.794 1.624.614 2.959s-1.661 2.743-1.516 3.934l-1.048.288z" fill="#ff4b55"/><path d="M363.888 209.094c-1.181-1.476-3.252.114-4.768 1.27-.211.162-.39.286-.577.422l-5.592-8.259c.157-.236.27-.503.27-.807a1.49 1.49 0 10-2.98 0c0 .305.114.572.27.807l-5.769 8.519h-4.085s-.169 2.539 4.291 2.847a5.144 5.144 0 002.377 1.956c-.461.075-.833.431-.833.914v.597c0 .038.036.06.04.097h10.391c.004-.036.04-.058.04-.097v-.597c0-.488-.378-.852-.847-.92 1.739-.7 2.961-2.327 3.167-4.26.162-.12.313-.23.489-.363 1.097-.842 2.749-2.124 3.276-1.453.131.164.118.255.113.288-.06.39-.893.95-1.562 1.399-1.053.707-2.142 1.441-2.228 2.481a.538.538 0 00.49.581h.045a.537.537 0 00.535-.491c.043-.527.993-1.165 1.757-1.677.973-.657 1.892-1.273 2.024-2.127.061-.393-.052-.77-.334-1.127zm-9.559 1.951c-.308-1.174-1.034-2.302-1.941-2.71.48-.247.819-.734.819-1.311a1.49 1.49 0 10-2.98 0c0 .577.338 1.064.819 1.311-.907.407-1.634 1.535-1.941 2.71h-3.065l5.353-7.905c.111.026.218.068.339.068.12 0 .227-.042.339-.068l5.353 7.905h-3.095z" fill="#ffe15a"/><path d="M341.163 231.449s-.324-1.119-.036-2.13c.289-1.011-.454-1.938-.613-2.815-.433-2.382 1.588-2.996 1.696-5.124 0 0 1.443 1.48.903 2.888-.542 1.408.794 1.624.614 2.959s-1.661 2.743-1.516 3.934l-1.048.288z" fill="#ff4b55"/><path d="M363.888 229.187c-1.181-1.476-3.252.114-4.768 1.27-.211.162-.39.286-.577.422l-5.592-8.259c.157-.236.27-.503.27-.807a1.49 1.49 0 10-2.98 0c0 .305.114.572.27.807l-5.769 8.519h-4.085s-.169 2.539 4.291 2.847a5.144 5.144 0 002.377 1.956c-.461.075-.833.431-.833.914v.597c0 .038.036.06.04.097h10.391c.004-.036.04-.058.04-.097v-.597c0-.488-.378-.852-.847-.919 1.739-.7 2.961-2.327 3.167-4.26.162-.12.313-.23.489-.363 1.097-.842 2.749-2.124 3.276-1.453.131.164.118.255.113.288-.06.39-.893.95-1.562 1.399-1.053.707-2.142 1.441-2.228 2.481a.54.54 0 00.49.582h.045a.537.537 0 00.535-.491c.043-.527.993-1.165 1.757-1.677.973-.657 1.892-1.273 2.024-2.127.061-.395-.052-.773-.334-1.129zm-9.559 1.952c-.308-1.174-1.034-2.302-1.941-2.71.48-.247.819-.734.819-1.311a1.49 1.49 0 10-2.98 0c0 .577.338 1.064.819 1.311-.907.407-1.634 1.535-1.941 2.71h-3.065l5.353-7.905c.111.026.218.068.339.068.12 0 .227-.042.339-.068l5.353 7.905h-3.095z" fill="#ffe15a"/><path d="M341.163 271.635s-.324-1.119-.036-2.13c.289-1.011-.454-1.938-.613-2.815-.433-2.382 1.588-2.996 1.696-5.124 0 0 1.443 1.48.903 2.888s.794 1.624.614 2.959-1.661 2.743-1.516 3.934l-1.048.288z" fill="#ff4b55"/><path d="M363.888 269.374c-1.181-1.476-3.252.114-4.768 1.27-.211.162-.39.286-.577.422l-5.592-8.258c.157-.236.27-.503.27-.807a1.49 1.49 0 10-2.98 0c0 .305.114.572.27.807l-5.769 8.519h-4.085s-.169 2.539 4.291 2.847a5.144 5.144 0 002.377 1.956c-.461.075-.833.431-.833.914v.597c0 .038.036.06.04.097h10.391c.004-.036.04-.058.04-.097v-.597c0-.488-.378-.852-.847-.919 1.739-.7 2.961-2.327 3.167-4.26.162-.12.313-.23.489-.363 1.097-.842 2.749-2.124 3.276-1.453.131.164.118.255.113.288-.06.389-.893.95-1.562 1.399-1.053.707-2.142 1.441-2.228 2.481a.54.54 0 00.49.582h.045a.537.537 0 00.535-.491c.043-.527.993-1.165 1.757-1.677.973-.657 1.892-1.273 2.024-2.127.061-.396-.052-.773-.334-1.13zm-9.559 1.951c-.308-1.174-1.034-2.302-1.941-2.71.48-.247.819-.734.819-1.311a1.49 1.49 0 10-2.98 0c0 .577.338 1.064.819 1.311-.907.407-1.634 1.535-1.941 2.71h-3.065l5.353-7.905c.111.026.218.068.339.068.12 0 .227-.042.339-.068l5.353 7.905h-3.095z" fill="#ffe15a"/><path d="M341.163 291.729s-.324-1.119-.036-2.13c.289-1.011-.454-1.938-.613-2.815-.433-2.382 1.588-2.996 1.696-5.124 0 0 1.443 1.48.903 2.888-.542 1.408.794 1.624.614 2.959-.181 1.335-1.661 2.743-1.516 3.934l-1.048.288z" fill="#ff4b55"/><path d="M363.888 289.467c-1.181-1.476-3.252.114-4.768 1.27-.211.162-.39.286-.577.422l-5.592-8.258c.157-.236.27-.503.27-.807a1.49 1.49 0 10-2.98 0c0 .305.114.572.27.807l-5.769 8.519h-4.085s-.169 2.539 4.291 2.847a5.144 5.144 0 002.377 1.956c-.461.075-.833.431-.833.914v.597c0 .038.036.06.04.097h10.391c.004-.036.04-.058.04-.097v-.597c0-.488-.378-.852-.847-.919 1.739-.7 2.961-2.327 3.167-4.26.162-.12.313-.23.489-.363 1.097-.842 2.749-2.124 3.276-1.453.131.164.118.255.113.288-.06.39-.893.95-1.562 1.399-1.053.707-2.142 1.441-2.228 2.481a.54.54 0 00.49.582h.045a.537.537 0 00.535-.491c.043-.527.993-1.165 1.757-1.677.973-.657 1.892-1.273 2.024-2.127.061-.395-.052-.774-.334-1.13zm-9.559 1.952c-.308-1.174-1.034-2.302-1.941-2.71.48-.247.819-.734.819-1.311a1.49 1.49 0 10-2.98 0c0 .577.338 1.064.819 1.311-.907.407-1.634 1.535-1.941 2.71h-3.065l5.353-7.905c.111.026.218.068.339.068.12 0 .227-.042.339-.068l5.353 7.905h-3.095z" fill="#ffe15a"/><path d="M411.071 191.262s-.324-1.119-.036-2.13c.289-1.011-.455-1.938-.613-2.815-.433-2.382 1.588-2.996 1.696-5.124 0 0 1.443 1.48.903 2.888-.542 1.408.794 1.624.614 2.959s-1.661 2.743-1.516 3.934l-1.048.288z" fill="#ff4b55"/><path d="M433.795 189c-1.181-1.476-3.252.114-4.768 1.27-.211.162-.39.286-.577.422l-5.592-8.259c.157-.236.27-.503.27-.807a1.49 1.49 0 10-2.98 0c0 .305.114.572.27.807l-5.769 8.519h-4.085s-.169 2.539 4.291 2.847a5.144 5.144 0 002.377 1.956c-.461.075-.833.431-.833.914v.597c0 .038.036.06.04.097h10.391c.004-.036.04-.058.04-.097v-.597c0-.488-.378-.852-.847-.919 1.739-.7 2.961-2.327 3.167-4.26.162-.12.313-.23.489-.363 1.097-.842 2.749-2.124 3.276-1.453.131.164.118.255.113.288-.06.39-.893.95-1.562 1.399-1.053.707-2.142 1.441-2.228 2.481a.54.54 0 00.49.582h.045a.537.537 0 00.535-.491c.043-.527.993-1.165 1.757-1.677.973-.657 1.892-1.273 2.024-2.127.061-.395-.05-.772-.334-1.129zm-9.558 1.951c-.308-1.174-1.034-2.302-1.941-2.71.48-.247.819-.734.819-1.311a1.49 1.49 0 00-2.98 0c0 .577.338 1.064.819 1.311-.907.407-1.634 1.535-1.941 2.71h-3.065l5.353-7.905c.111.026.218.068.339.068.12 0 .227-.042.339-.068l5.353 7.905h-3.095z" fill="#ffe15a"/><path d="M411.071 211.355s-.324-1.119-.036-2.13c.289-1.011-.455-1.938-.613-2.815-.433-2.382 1.588-2.996 1.696-5.124 0 0 1.443 1.48.903 2.888-.542 1.408.794 1.624.614 2.959s-1.661 2.743-1.516 3.934l-1.048.288z" fill="#ff4b55"/><path d="M433.795 209.094c-1.181-1.476-3.252.114-4.768 1.27-.211.162-.39.286-.577.422l-5.592-8.259c.157-.236.27-.503.27-.807a1.49 1.49 0 10-2.98 0c0 .305.114.572.27.807l-5.769 8.519h-4.085s-.169 2.539 4.291 2.847a5.144 5.144 0 002.377 1.956c-.461.075-.833.431-.833.914v.597c0 .038.036.06.04.097h10.391c.004-.036.04-.058.04-.097v-.597c0-.488-.378-.852-.847-.92 1.739-.7 2.961-2.327 3.167-4.26.162-.12.313-.23.489-.363 1.097-.842 2.749-2.124 3.276-1.453.131.164.118.255.113.288-.06.39-.893.95-1.562 1.399-1.053.707-2.142 1.441-2.228 2.481a.538.538 0 00.49.581h.045a.537.537 0 00.535-.491c.043-.527.993-1.165 1.757-1.677.973-.657 1.892-1.273 2.024-2.127.061-.393-.05-.77-.334-1.127zm-9.558 1.951c-.308-1.174-1.034-2.302-1.941-2.71.48-.247.819-.734.819-1.311a1.49 1.49 0 00-2.98 0c0 .577.338 1.064.819 1.311-.907.407-1.634 1.535-1.941 2.71h-3.065l5.353-7.905c.111.026.218.068.339.068.12 0 .227-.042.339-.068l5.353 7.905h-3.095z" fill="#ffe15a"/><path d="M411.071 231.449s-.324-1.119-.036-2.13c.289-1.011-.455-1.938-.613-2.815-.433-2.382 1.588-2.996 1.696-5.124 0 0 1.443 1.48.903 2.888-.542 1.408.794 1.624.614 2.959s-1.661 2.743-1.516 3.934l-1.048.288z" fill="#ff4b55"/><path d="M433.795 229.187c-1.181-1.476-3.252.114-4.768 1.27-.211.162-.39.286-.577.422l-5.592-8.259c.157-.236.27-.503.27-.807a1.49 1.49 0 10-2.98 0c0 .305.114.572.27.807l-5.769 8.519h-4.085s-.169 2.539 4.291 2.847a5.144 5.144 0 002.377 1.956c-.461.075-.833.431-.833.914v.597c0 .038.036.06.04.097h10.391c.004-.036.04-.058.04-.097v-.597c0-.488-.378-.852-.847-.919 1.739-.7 2.961-2.327 3.167-4.26.162-.12.313-.23.489-.363 1.097-.842 2.749-2.124 3.276-1.453.131.164.118.255.113.288-.06.39-.893.95-1.562 1.399-1.053.707-2.142 1.441-2.228 2.481a.54.54 0 00.49.582h.045a.537.537 0 00.535-.491c.043-.527.993-1.165 1.757-1.677.973-.657 1.892-1.273 2.024-2.127.061-.395-.05-.773-.334-1.129zm-9.558 1.952c-.308-1.174-1.034-2.302-1.941-2.71.48-.247.819-.734.819-1.311a1.49 1.49 0 00-2.98 0c0 .577.338 1.064.819 1.311-.907.407-1.634 1.535-1.941 2.71h-3.065l5.353-7.905c.111.026.218.068.339.068.12 0 .227-.042.339-.068l5.353 7.905h-3.095z" fill="#ffe15a"/><path d="M411.071 251.543s-.324-1.119-.036-2.13c.289-1.011-.455-1.938-.613-2.815-.433-2.382 1.588-2.996 1.696-5.124 0 0 1.443 1.48.903 2.888-.542 1.408.794 1.624.614 2.959-.181 1.335-1.661 2.743-1.516 3.934l-1.048.288z" fill="#ff4b55"/><path d="M433.795 249.281c-1.181-1.476-3.252.114-4.768 1.27-.211.162-.39.286-.577.422l-5.592-8.259c.157-.236.27-.503.27-.807a1.49 1.49 0 10-2.98 0c0 .305.114.572.27.807l-5.769 8.519h-4.085s-.169 2.539 4.291 2.847a5.144 5.144 0 002.377 1.956c-.461.075-.833.431-.833.914v.597c0 .038.036.06.04.097h10.391c.004-.036.04-.059.04-.097v-.597c0-.488-.378-.852-.847-.919 1.739-.7 2.961-2.327 3.167-4.26.162-.12.313-.23.489-.363 1.097-.842 2.749-2.124 3.276-1.453.131.164.118.255.113.288-.06.39-.893.95-1.562 1.399-1.053.707-2.142 1.441-2.228 2.481a.538.538 0 00.49.581h.045a.537.537 0 00.535-.491c.043-.527.993-1.165 1.757-1.677.973-.657 1.892-1.273 2.024-2.127.061-.395-.05-.772-.334-1.128zm-9.558 1.95c-.308-1.174-1.034-2.302-1.941-2.71.48-.247.819-.734.819-1.311a1.49 1.49 0 00-2.98 0c0 .577.338 1.064.819 1.311-.907.407-1.634 1.535-1.941 2.71h-3.065l5.353-7.905c.111.026.218.068.339.068.12 0 .227-.042.339-.068l5.353 7.905h-3.095z" fill="#ffe15a"/><path d="M411.071 271.635s-.324-1.119-.036-2.13c.289-1.011-.455-1.938-.613-2.815-.433-2.382 1.588-2.996 1.696-5.124 0 0 1.443 1.48.903 2.888-.542 1.408.794 1.624.614 2.959s-1.661 2.743-1.516 3.934l-1.048.288z" fill="#ff4b55"/><path d="M433.795 269.374c-1.181-1.476-3.252.114-4.768 1.27-.211.162-.39.286-.577.422l-5.592-8.258c.157-.236.27-.503.27-.807a1.49 1.49 0 10-2.98 0c0 .305.114.572.27.807l-5.769 8.519h-4.085s-.169 2.539 4.291 2.847a5.144 5.144 0 002.377 1.956c-.461.075-.833.431-.833.914v.597c0 .038.036.06.04.097h10.391c.004-.036.04-.058.04-.097v-.597c0-.488-.378-.852-.847-.919 1.739-.7 2.961-2.327 3.167-4.26.162-.12.313-.23.489-.363 1.097-.842 2.749-2.124 3.276-1.453.131.164.118.255.113.288-.06.389-.893.95-1.562 1.399-1.053.707-2.142 1.441-2.228 2.481a.54.54 0 00.49.582h.045a.537.537 0 00.535-.491c.043-.527.993-1.165 1.757-1.677.973-.657 1.892-1.273 2.024-2.127.061-.396-.05-.773-.334-1.13zm-9.558 1.951c-.308-1.174-1.034-2.302-1.941-2.71.48-.247.819-.734.819-1.311a1.49 1.49 0 00-2.98 0c0 .577.338 1.064.819 1.311-.907.407-1.634 1.535-1.941 2.71h-3.065l5.353-7.905c.111.026.218.068.339.068.12 0 .227-.042.339-.068l5.353 7.905h-3.095z" fill="#ffe15a"/><path d="M411.071 291.729s-.324-1.119-.036-2.13c.289-1.011-.455-1.938-.613-2.815-.433-2.382 1.588-2.996 1.696-5.124 0 0 1.443 1.48.903 2.888-.542 1.408.794 1.624.614 2.959-.181 1.335-1.661 2.743-1.516 3.934l-1.048.288z" fill="#ff4b55"/><path d="M433.795 289.467c-1.181-1.476-3.252.114-4.768 1.27-.211.162-.39.286-.577.422l-5.592-8.258c.157-.236.27-.503.27-.807a1.49 1.49 0 10-2.98 0c0 .305.114.572.27.807l-5.769 8.519h-4.085s-.169 2.539 4.291 2.847a5.144 5.144 0 002.377 1.956c-.461.075-.833.431-.833.914v.597c0 .038.036.06.04.097h10.391c.004-.036.04-.058.04-.097v-.597c0-.488-.378-.852-.847-.919 1.739-.7 2.961-2.327 3.167-4.26.162-.12.313-.23.489-.363 1.097-.842 2.749-2.124 3.276-1.453.131.164.118.255.113.288-.06.39-.893.95-1.562 1.399-1.053.707-2.142 1.441-2.228 2.481a.54.54 0 00.49.582h.045a.537.537 0 00.535-.491c.043-.527.993-1.165 1.757-1.677.973-.657 1.892-1.273 2.024-2.127.061-.395-.05-.774-.334-1.13zm-9.558 1.952c-.308-1.174-1.034-2.302-1.941-2.71.48-.247.819-.734.819-1.311a1.49 1.49 0 00-2.98 0c0 .577.338 1.064.819 1.311-.907.407-1.634 1.535-1.941 2.71h-3.065l5.353-7.905c.111.026.218.068.339.068.12 0 .227-.042.339-.068l5.353 7.905h-3.095z" fill="#ffe15a"/><g fill="#f5f5f5"><path d="M445.546 171.125v105.393c0 23.798-57.796 47.597-57.796 47.597s-57.796-23.798-57.796-47.597V171.125h115.592m3.4-3.4H326.554v108.793c0 11.128 10.265 23.111 30.511 35.616 14.518 8.967 28.79 14.878 29.39 15.125l1.294.533 1.294-.533c.6-.247 14.872-6.158 29.39-15.125 20.246-12.505 30.511-24.488 30.511-35.616V171.125l.002-3.4z"/><path d="M449.437 295.262l15.412 10.629c-17.901 22.963-45.794 37.772-77.1 37.772-31.305 0-59.198-14.81-77.1-37.772l15.412-10.629c14.498 18.089 36.756 29.703 61.687 29.703 24.933 0 47.191-11.614 61.689-29.703m-.674-4.594l-1.978 2.468c-14.48 18.067-35.998 28.429-59.034 28.429s-44.554-10.362-59.034-28.429l-1.978-2.468-2.604 1.796-15.412 10.629-2.967 2.046 2.216 2.842c19.363 24.836 48.442 39.082 79.78 39.082s60.418-14.244 79.78-39.082l2.216-2.842-2.967-2.046-15.412-10.629-2.606-1.796z"/></g><path d="M387.75 343.664c31.305 0 59.198-14.81 77.1-37.772l-15.412-10.629c-14.498 18.089-36.756 29.703-61.687 29.703s-47.189-11.614-61.687-29.703l-15.412 10.629c17.9 22.961 45.793 37.772 77.098 37.772z" fill="#ffe15a"/></svg>