<svg xmlns="http://www.w3.org/2000/svg" viewBox="0 0 512 512"><path d="M473.655 423.724H38.345C17.167 423.724 0 406.557 0 385.379V126.621c0-21.177 17.167-38.345 38.345-38.345h435.31c21.177 0 38.345 17.167 38.345 38.345V385.38c0 21.177-17.167 38.344-38.345 38.344z" fill="#ffe15a"/><path d="M512 300.138L16.509 95.106C6.536 102.03 0 113.559 0 126.621v23.448l512 211.862v-61.793z" fill="#f5f5f5"/><path d="M512 385.379v-23.448L0 150.069v61.793l495.491 205.031C505.465 409.969 512 398.44 512 385.379z" fill="#464655"/><g fill="#ff4b55"><path d="M305.589 240.326l.007-.25-.338-3.478c-.067-1.134-.328-2.515-.672-4.125-.266-1.623-.78-3.439-1.44-5.443-1.326-3.977-3.367-8.725-6.891-13.322-.426-.568-.93-1.129-1.394-1.694 1.999-2.292 3.949-4.958 5.788-8.175 0 0-10.08.462-21.401-4.478-3.737-1.946-7.796-3.543-12.248-4.589l-2.112-8.447a4.06 4.06 0 00-3.937-3.074h-2.92v-4.058h14.206l-4.058-8.118 4.058-8.118H258.03v-4.059h-4.06v24.353h-2.92a4.058 4.058 0 00-3.937 3.074l-2.066 8.265c-2.742.584-5.473 1.325-8.124 2.452-2.169.868-4.267 1.956-6.315 3.174-10.413 3.997-19.257 3.624-19.257 3.624 1.838 3.215 3.785 5.88 5.783 8.171-.405.492-.854.934-1.246 1.44-2.765 3.755-4.973 7.977-6.658 12.46-1.603 4.353-2.514 9.878-2.819 13.917l-.008 3.905c-.041 1.226.099 2.441.228 3.66.16 2.457.703 4.855 1.215 7.271 1.266 4.758 3.118 9.387 5.643 13.638 5.054 8.513 12.762 15.224 21.405 19.385 4.465 1.967 8.683 3.466 13.716 4.181 2.681.499 4.351.491 6.337.664l.361.026.181.013.589.015.845-.035 1.684-.076c1.118-.075 2.236-.061 3.331-.224 8.832-.969 16.793-4.403 23.009-8.862 6.215-4.539 10.679-10.073 13.737-15.349 3.106-5.281 4.708-10.391 5.696-14.577.472-2.09.823-4 .951-5.796.201-1.778.318-3.234.265-4.185l-.007-3.156zm-73.769 28.605c-2.82-2.198-5.369-4.818-7.693-7.708-2.237-2.959-4.024-6.297-5.427-9.846-1.323-3.473-2.051-7.648-2.409-11.051-.099-4.723.122-7.944 1.024-11.971.983-3.825 2.417-7.569 4.412-11.023.116-.2.273-.37.392-.567 9.227 7.208 18.969 6.695 25.763 3.197v7.938c2.241 0 4.058 4.543 4.058 10.147s-1.817 10.147-4.058 10.147v4.058c7.613 10.15 4.12 18.713-.558 23.706-2.123-.461-4.326-1.081-6.386-1.892-3.195-1.242-6.229-3.033-9.118-5.135zm63.883-29.061l-.321 3.092c-.062 1.109-.307 2.159-.59 3.322-.202 1.173-.631 2.593-1.182 4.203-1.099 3.154-2.752 6.92-5.626 10.528a40.598 40.598 0 01-11.325 9.99c-3.594 2.133-7.818 3.576-12.281 4.601-4.52-5.037-7.703-13.428-.258-23.353v-4.058c-2.241 0-4.059-4.543-4.059-10.147s1.817-10.147 4.059-10.147v-7.938c6.802 3.502 16.559 4.013 25.796-3.221.158.266.351.536.5.8 2.456 4.292 3.67 8.42 4.431 11.782.363 1.697.63 3.211.693 4.556.14 1.331.242 2.457.184 3.384l-.021 2.606z"/><path d="M256 300.959c-14.987 0-28.582-5.838-38.727-15.326-1.863-1.741-4.81-1.53-6.47.406l-15.542 18.133c-1.652 1.928-.282 4.905 2.255 4.905h9.775l13.031 6.516a4.06 4.06 0 005.193-1.379l4.194-6.292a68.75 68.75 0 0026.29 5.214 68.75 68.75 0 0026.29-5.214l4.194 6.292a4.059 4.059 0 005.193 1.379l13.031-6.516h9.775c2.538 0 3.908-2.977 2.255-4.905l-15.542-18.133c-1.66-1.937-4.607-2.147-6.47-.406-10.143 9.489-23.737 15.326-38.725 15.326zm-56.824-16.235H178.88l4.058-36.531s-14.207-7.104-12.719-27.956c.181-2.536 2.325-4.516 4.867-4.516h3.464c2.392 0 4.397 1.734 4.793 4.093.854 5.091 3.511 13.448 11.772 16.202l4.061 48.708zm113.649 0h20.295l-4.059-36.531s14.207-7.104 12.719-27.956c-.181-2.536-2.325-4.516-4.867-4.516h-3.464c-2.392 0-4.397 1.734-4.793 4.093-.854 5.091-3.511 13.448-11.772 16.202l-4.059 48.708z"/></g><path d="M201.205 288.782h-24.353a2.028 2.028 0 110-4.058h24.353a2.03 2.03 0 010 4.058zm133.944 0h-24.353a2.028 2.028 0 110-4.058h24.353a2.028 2.028 0 110 4.058z" fill="#ffe15a"/></svg>