<svg xmlns="http://www.w3.org/2000/svg" viewBox="0 0 511.999 511.999"><path d="M473.651 88.257H38.292c-20.485 0-37.215 16.061-38.292 36.277v262.933c1.042 19.56 16.739 35.23 36.311 36.226h439.32c20.259-1.031 36.368-17.783 36.368-38.298V126.606c.001-21.18-17.168-38.349-38.348-38.349z" fill="#73af00"/><path d="M40.27 88.206l215.759 141.359L471.787 88.206zm431.517 335.587L256.029 282.434 40.27 423.793z" fill="#ff4b55"/><path d="M473.651 88.257h-1.941L307.731 195.689c-13.902-11.938-31.94-19.198-51.702-19.198-19.763 0-37.801 7.259-51.702 19.198L40.349 88.257h-2.057c-17.356 0-32.011 11.532-36.74 27.35l178.527 116.965c-2.272 7.392-3.507 15.24-3.507 23.377s1.235 15.984 3.507 23.377L1.527 396.307c4.522 15.255 18.27 26.545 34.783 27.385h3.96l164.056-107.484c13.902 11.938 31.94 19.198 51.702 19.198 19.763 0 37.801-7.259 51.702-19.198l164.056 107.484h3.844c16.537-.841 30.3-12.161 34.802-27.449L331.979 279.326a79.441 79.441 0 003.507-23.377 79.441 79.441 0 00-3.507-23.377l178.43-116.901c-4.708-15.851-19.379-27.414-36.758-27.414z" fill="#f5f5f5"/><path fill="#ff4b55" d="M250.309 230.541l-11.972.31 6.251-10.217-6.251-10.216 11.972.31 5.72-10.527 5.721 10.527 11.971-.31-6.252 10.216 6.252 10.217-11.971-.31-5.721 10.527z"/><path d="M256.029 202.977l4.944 9.093 10.347-.265-5.403 8.829 5.403 8.829-10.347-.265-4.944 9.093-4.944-9.093-10.347.265 5.403-8.829-5.403-8.829 10.347.265 4.944-9.093m0-5.544l-2.327 4.28-4.169 7.67-8.727-.224-4.87-.125 2.543 4.156 4.558 7.446-4.558 7.446-2.543 4.156 4.87-.125 8.727-.224 4.169 7.67 2.327 4.28 2.327-4.28 4.169-7.67 8.727.224 4.87.125-2.543-4.156-4.558-7.446 4.558-7.446 2.543-4.156-4.87.125-8.727.224-4.169-7.67-2.327-4.28z" fill="#73af00"/><path fill="#ff4b55" d="M217.431 289.057l-11.971.31 6.25-10.216-6.25-10.217 11.971.311 5.72-10.527 5.721 10.527 11.97-.311-6.25 10.217 6.25 10.216-11.97-.31-5.721 10.527z"/><path d="M223.151 261.493l4.944 9.093 10.347-.265-5.403 8.829 5.403 8.829-10.347-.265-4.944 9.093-4.944-9.093-10.347.265 5.403-8.829-5.403-8.829 10.347.265 4.944-9.093m0-5.544l-2.327 4.28-4.169 7.67-8.727-.224-4.87-.125 2.543 4.156 4.558 7.446-4.558 7.446-2.543 4.155 4.87-.125 8.727-.224 4.169 7.67 2.327 4.28 2.327-4.28 4.169-7.67 8.727.224 4.87.125-2.543-4.156-4.558-7.446 4.558-7.446 2.543-4.156-4.87.125-8.727.224-4.169-7.67-2.327-4.279z" fill="#73af00"/><path fill="#ff4b55" d="M283.187 289.057l-11.972.31 6.251-10.216-6.251-10.217 11.972.311 5.719-10.527 5.721 10.527 11.972-.311-6.251 10.217 6.251 10.216-11.972-.31-5.721 10.527z"/><path d="M288.906 261.493l4.944 9.093 10.347-.265-5.403 8.829 5.403 8.829-10.347-.265-4.944 9.093-4.944-9.093-10.347.265 5.403-8.829-5.403-8.829 10.347.265 4.944-9.093m0-5.544l-2.327 4.28-4.169 7.67-8.727-.224-4.87-.125 2.543 4.156 4.558 7.446-4.558 7.446-2.543 4.156 4.87-.125 8.727-.224 4.169 7.67 2.327 4.28 2.327-4.28 4.169-7.67 8.727.224 4.87.125-2.543-4.156-4.558-7.446 4.558-7.446 2.543-4.156-4.87.125-8.727.224-4.169-7.67-2.327-4.28z" fill="#73af00"/></svg>