<svg xmlns="http://www.w3.org/2000/svg" viewBox="0 0 512 512"><path d="M473.654 423.724H38.345C17.167 423.724 0 406.557 0 385.379V126.621c0-21.177 17.167-38.345 38.345-38.345h435.309c21.177 0 38.345 17.167 38.345 38.345v258.758c0 21.178-17.168 38.345-38.345 38.345z" fill="#41479b"/><path fill="#ff4b55" d="M0 167.721h512v176.55H0z"/><path fill="#f5f5f5" d="M372.816 322.933v-12.516h-4.172v-8.344h-4.173v-8.344h-4.172v-8.344h-12.516v-25.031h-.001l4.173-4.173v-12.516h-4.172v-8.343h-4.172v-12.517h-4.171v-8.344h-4.172v-8.344h-4.172v-4.171h-8.345v4.171h-4.172v8.344h-4.172v8.344h-4.171v12.517h-4.172v8.343h-25.033V231.15h-4.171v-12.517h-4.172v-12.516h-4.172v-8.343h-4.172v-8.344h-4.172v-4.173h-2.086v-4.172h-4.172v4.172h-2.087v4.173h-4.171v8.344h-4.172v8.343h-4.172v12.516h-4.172v12.517h-4.172v12.515h-25.032v-8.343h-4.172v-12.517h-4.172v-8.344h-4.172v-8.344h-4.172v-4.171h-8.344v4.171h-4.172v8.344h-4.172v8.344h-4.172v12.517h-4.172v8.343h-4.172v12.516l4.17 4.173h.002v25.031h-12.515v8.344h-4.172v8.344h-4.173v8.344h-4.172v12.516h-4.172v12.516h241.975v-12.516z"/></svg>