<svg xmlns="http://www.w3.org/2000/svg" viewBox="0 0 512 512"><path fill="#f5f5f5" d="M114.76 88.277h282.48v335.45H114.76z"/><path d="M38.345 88.273C17.167 88.273 0 105.44 0 126.618v258.759c0 21.177 17.167 38.345 38.345 38.345h76.414V88.273H38.345zm435.31 0h-76.414v335.448h76.414c21.177 0 38.345-17.167 38.345-38.345V126.618c0-21.178-17.167-38.345-38.345-38.345zM309.569 294.757l52.383-29.932-12.02-6.01a8.827 8.827 0 01-4.802-9.063l3.911-29.322-22.177 6.452c-4.899 1.426-9.983-1.588-11.085-6.569l-2.124-9.6-20.823 24.37c-2.886 3.378-8.386.798-7.633-3.581l8.893-51.708-13.615 3.723a8.824 8.824 0 01-10.116-4.36l-14.337-26.871v-.04l-.01.02-.011-.02v.04l-14.337 26.871a8.83 8.83 0 01-10.118 4.36l-13.615-3.723 8.893 51.708c.753 4.378-4.747 6.959-7.634 3.582l-20.823-24.37-2.124 9.6c-1.102 4.982-6.186 7.994-11.085 6.569l-22.177-6.452 3.911 29.322a8.828 8.828 0 01-4.802 9.063l-12.02 6.009 52.383 29.933a12.745 12.745 0 015.615 15.53l-4.478 11.977 44.885-3.832a4.172 4.172 0 014.525 4.279l-1.414 48.044h8.828L259 322.71a4.172 4.172 0 014.525-4.279l44.906 3.834-4.478-11.977a12.748 12.748 0 015.616-15.531z" fill="#ff4b55"/></svg>