<svg xmlns="http://www.w3.org/2000/svg" viewBox="0 0 512 512"><path fill="#41479B" d="M511.22 120.6a38.2 38.2 0 0 0-2.23-7.13 37.37 37.37 0 0 0-5.75-9.38 38.42 38.42 0 0 0-4.94-4.92L13.7 413.64a38.4 38.4 0 0 0 24.64 8.89h435.31c21.18 0 38.35-17 38.35-37.98v-256.3c0-2.62-.27-5.18-.78-7.65Z"/><path fill="#F5F5F5" d="M496.6 97.82a38.46 38.46 0 0 0-22.94-7.55H224.77L0 236.14v148.4a37.75 37.75 0 0 0 13.7 29.1L498.3 99.15c-.55-.46-1.12-.91-1.7-1.34Z"/><path fill="#FFE15A" d="M38.34 90.27a38.45 38.45 0 0 0-32.79 18.29A37.66 37.66 0 0 0 0 128.26v107.88L224.78 90.27H38.34Z"/><path fill="#464655" d="M202.28 229.8c-4-26.49-25.09-47.37-51.82-51.34l-9.21-18.24-9.2 18.24c-26.75 3.97-47.83 24.85-51.84 51.33l-18.41 9.12 18.42 9.12c4 26.48 25.08 47.36 51.82 51.33l9.2 18.24 9.22-18.24c26.73-3.97 47.81-24.85 51.82-51.33l18.42-9.12-18.42-9.12Zm-61.03 61.57c-29.25 0-52.97-23.48-52.97-52.46 0-28.97 23.72-52.46 52.97-52.46s52.96 23.49 52.96 52.46c0 28.98-23.7 52.46-52.96 52.46Z"/><path fill="#FF4B55" d="m141.25 205.29 9.5 17.32 19.9-.5-10.4 16.8 10.4 16.81-19.9-.5-9.5 17.31-9.5-17.31-19.9.5 10.39-16.8-10.39-16.82 19.9.5 9.5-17.31Z"/></svg>