<svg xmlns="http://www.w3.org/2000/svg" viewBox="0 0 512 512"><path d="M0 385.378c0 21.177 17.167 38.345 38.345 38.345h435.311c21.165 0 38.324-17.148 38.344-38.307v-45.555H0v45.517z" fill="#ffe15a"/><path fill="#73af00" d="M0 255.996h512v83.86H0z"/><path fill="#f5f5f5" d="M0 172.136h512v83.86H0z"/><path d="M473.656 88.273H38.345C17.167 88.273 0 105.44 0 126.618v45.517h512V126.58c-.02-21.159-17.179-38.307-38.344-38.307z" fill="#41479b"/><path fill="#ff4b55" d="M214.07 88.276h83.86v335.45h-83.86z"/><path d="M76.499 99.57l7.366 22.087 23.282.181c1.804.014 2.551 2.316 1.1 3.388l-18.73 13.83 7.022 22.198c.544 1.719-1.414 3.143-2.881 2.093l-18.941-13.538-18.941 13.538c-1.468 1.049-3.425-.374-2.881-2.093l7.022-22.198-18.727-13.831c-1.451-1.071-.703-3.373 1.1-3.388l23.282-.181 7.366-22.087c.569-1.71 2.99-1.71 3.561.001z" fill="#ffe15a"/></svg>