<svg xmlns="http://www.w3.org/2000/svg" viewBox="0 0 512 512"><path d="M473.651 88.256H38.292c-20.485 0-37.215 16.06-38.292 36.277v262.933c1.077 20.215 17.807 36.277 38.292 36.277h435.359c21.18 0 38.349-17.169 38.349-38.349V126.605c0-21.18-17.169-38.349-38.349-38.349z" fill="#f5f5f5"/><g fill="#464655"><path d="M38.292 88.256a38.187 38.187 0 00-24.623 8.955l242.36 158.788V88.256H38.292zm460.031 8.999L256.029 255.999H512V126.605c0-11.78-5.317-22.316-13.677-29.35z"/><path d="M0 387.465c.584 10.964 5.775 20.701 13.669 27.321l242.36-158.787H0v131.466zm473.651 36.277c9.399 0 18.003-3.387 24.673-8.999L256.029 255.999v167.743h217.622z"/></g><path d="M277.217 243.639v28.251c0 11.684-9.505 21.189-21.189 21.189s-21.189-9.505-21.189-21.189v-28.251h42.378m7.063-14.126h-56.503a7.063 7.063 0 00-7.063 7.063v35.314c0 19.503 15.811 35.314 35.314 35.314s35.314-15.811 35.314-35.314v-35.314a7.061 7.061 0 00-7.062-7.063z" fill="#ff4b55"/><path d="M277.217 243.639v28.251c0 11.684-9.505 21.189-21.189 21.189s-21.189-9.505-21.189-21.189v-28.251h42.378" fill="#f5f5f5"/><g fill="#ffe15a"><circle cx="227.72" cy="236.569" r="3.531"/><circle cx="284.23" cy="236.569" r="3.531"/><circle cx="227.72" cy="264.819" r="3.531"/><circle cx="284.23" cy="264.819" r="3.531"/><circle cx="255.97" cy="236.569" r="3.531"/><circle cx="255.97" cy="300.429" r="3.531"/><circle cx="277.17" cy="290.869" r="3.531"/><circle cx="235.18" cy="290.869" r="3.531"/></g><path d="M260.591 263.038v6.082a4.566 4.566 0 01-4.561 4.561 4.566 4.566 0 01-4.561-4.561v-6.082h9.122m0-14.421v6.082a4.566 4.566 0 01-4.561 4.561 4.566 4.566 0 01-4.561-4.561v-6.082h9.122m0 28.988v6.082a4.566 4.566 0 01-4.561 4.561 4.566 4.566 0 01-4.561-4.561v-6.082h9.122m12.286-14.567v6.082c0 2.515-2.046 4.561-4.561 4.561s-4.562-2.046-4.562-4.561v-6.082h9.123m-24.573 0v6.082c0 2.515-2.046 4.561-4.561 4.561s-4.561-2.046-4.561-4.561v-6.082h9.122" fill="#41479b"/><path d="M290.22 229.513h-68.032a4.156 4.156 0 01-4.155-4.155v-2.597a4.156 4.156 0 014.155-4.155h68.032a4.156 4.156 0 014.155 4.155v2.597a4.155 4.155 0 01-4.155 4.155z" fill="#ffe15a"/><path fill="#ff4b55" d="M256.203 221.335l-5.453 2.726 5.453 2.725 5.454-2.725z"/><g fill="#4173cd"><ellipse cx="273.93" cy="224.059" rx="4.09" ry="2.727"/><ellipse cx="238.48" cy="224.059" rx="4.09" ry="2.727"/></g><g fill="#f5f5f5"><circle cx="265.75" cy="224.059" r="1.363"/><circle cx="282.11" cy="224.059" r="1.363"/><circle cx="246.66" cy="224.059" r="1.363"/><circle cx="230.3" cy="224.059" r="1.363"/></g><path d="M218.033 222.697v2.726l2.727 1.363 5.452-2.725-5.452-2.726zm76.342 2.726v-2.726l-2.727-1.362-5.453 2.726 5.453 2.725z" fill="#ff4b55"/><path d="M238.059 200.872c-.87-.428-1.904-.164-2.774.509.447-.661.703-1.543.654-2.502-.099-1.95-1.399-3.47-2.902-3.392-1.504.076-2.642 1.719-2.544 3.669.053 1.036.457 1.928 1.038 2.546-1.174-.573-2.459-.518-3.243.268-1.065 1.064-.809 3.047.573 4.428 1.381 1.382 3.364 1.638 4.429.573.297-.297.468-.673.563-1.081.217.571.552 1.065 1.083 1.326 1.351.665 3.145-.215 4.008-1.967.861-1.752.466-3.711-.885-4.377zm-4.008 1.967c-.2.406-.317.822-.386 1.232-.203-.537-.489-1.067-.949-1.528-.079-.079-.175-.117-.259-.19.299.124.61.212.939.195.441-.023.833-.211 1.19-.47-.19.24-.39.468-.535.761zm39.064 2.41c.863 1.751 2.657 2.632 4.008 1.967.531-.262.865-.757 1.083-1.326.096.407.266.784.563 1.081 1.065 1.065 3.047.809 4.429-.573 1.381-1.381 1.638-3.364.573-4.428-.786-.786-2.069-.841-3.243-.268.582-.618.985-1.51 1.038-2.546.099-1.95-1.04-3.593-2.544-3.669-1.504-.076-2.803 1.442-2.902 3.392-.049.96.207 1.841.654 2.502-.871-.673-1.905-.937-2.774-.509-1.353.666-1.748 2.625-.885 4.377zm4.357-3.172c.356.26.748.448 1.19.47.329.017.64-.072.939-.195-.083.072-.18.11-.259.19-.46.46-.746.991-.949 1.528a4.359 4.359 0 00-.386-1.232c-.144-.292-.345-.52-.535-.761z" fill="#f5f5f5"/><path d="M305.789 192.863c-3.928-1.398-12.189-2.146-15.334 4.993a2.726 2.726 0 001.395 3.594c1.332.588 2.863.006 3.514-1.281l1.027 1.217a27.403 27.403 0 00-1.302 5.323c-1.403 5.815-6.801 6.446-9.07 6.446-3.659 0-5.729-3.922-5.749-3.962a2.744 2.744 0 00-4.119-.908c-1.494 1.174-6.141 4.346-9.647 4.904-1.691.271-3.07-.011-4.002-.809-.755-.644-1.022-1.453-1.022-1.951 0-1.222 1.503-2.727 2.727-2.727.927 0 1.282.594 1.282.594a2.728 2.728 0 104.931-2.328c-.529-1.118-1.986-2.843-4.38-3.467a28.992 28.992 0 003.621-8.431l-8.18-2.727s2.727-8.18-5.453-8.18-5.453 8.18-5.453 8.18l-8.18 2.727a28.941 28.941 0 003.62 8.431c-2.394.625-3.851 2.35-4.38 3.467a2.728 2.728 0 001.298 3.632 2.729 2.729 0 003.631-1.299s.359-.599 1.285-.599c1.224 0 2.727 1.504 2.727 2.727 0 .498-.267 1.308-1.022 1.951-.931.799-2.311 1.081-4.002.809-3.507-.56-8.154-3.73-9.647-4.904a2.747 2.747 0 00-4.119.908c-.02.04-2.089 3.962-5.749 3.962-2.269 0-7.667-.631-9.07-6.446a27.315 27.315 0 00-1.301-5.323l1.027-1.217c.651 1.288 2.182 1.869 3.514 1.281a2.725 2.725 0 001.395-3.594c-3.144-7.138-11.407-6.39-15.334-4.993a2.726 2.726 0 00.202 5.203c3.34.897 4.839 7.282 5.101 9.447.012.093.03.192.05.285 1.524 6.667 7.05 10.811 14.416 10.811 4.223 0 7.142-2.391 8.837-4.372 2.388 1.574 6.232 3.768 9.82 4.337.689.109 1.362.166 2.02.166 2.463 0 4.679-.759 6.38-2.21 1.839-1.568 2.936-3.85 2.936-6.099 0 2.25 1.097 4.531 2.935 6.099 1.699 1.451 3.917 2.21 6.38 2.21.658 0 1.331-.056 2.02-.166 3.588-.569 7.431-2.763 9.82-4.337 1.695 1.981 4.614 4.372 8.837 4.372 7.367 0 12.892-4.143 14.416-10.811.02-.093.038-.192.05-.285.26-2.165 1.76-8.549 5.1-9.447a2.724 2.724 0 002.015-2.527 2.73 2.73 0 00-1.814-2.676z" fill="#ffe15a"/><g fill="#4173cd"><ellipse transform="rotate(157.473 210.236 202.26)" cx="210.235" cy="202.259" rx="2.727" ry="4.09"/><ellipse transform="rotate(22.527 301.822 202.242)" cx="301.818" cy="202.246" rx="2.727" ry="4.09"/><ellipse cx="256.03" cy="199.529" rx="4.09" ry="5.453"/></g></svg>