<svg xmlns="http://www.w3.org/2000/svg" viewBox="0 0 512 512"><path d="M473.651 88.257H38.292c-20.485 0-37.215 16.06-38.292 36.277v47.595h512v-45.522c0-21.18-17.169-38.35-38.349-38.35z" fill="#ffe15a"/><path fill="#f5f5f5" d="M0 172.119h512v83.87H0z"/><path fill="#ff4b55" d="M0 255.999h512v83.87H0z"/><path d="M0 387.466c1.077 20.215 17.807 36.277 38.292 36.277h435.359c21.18 0 38.349-17.169 38.349-38.349v-45.522H0v47.594z" fill="#4173cd"/><path d="M250.668 252.486L13.669 97.213C5.775 103.833.584 113.57 0 124.534v262.933c.584 10.964 5.775 20.701 13.669 27.321l236.999-155.275c2.53-1.659 2.53-5.368 0-7.027z" fill="#73af00"/><g fill="#f5f5f5"><path d="M48.839 256c0-31.923 20.867-58.934 49.695-68.237 1.515-.489 1.304-2.702-.275-2.908a69.859 69.859 0 00-9.065-.598c-39.623 0-71.743 32.121-71.743 71.743s32.121 71.743 71.743 71.743c3.075 0 6.097-.21 9.065-.598 1.579-.207 1.79-2.419.275-2.908-28.828-9.303-49.695-36.314-49.695-68.237z"/><path d="M98.901 201.202l1.975 5.922 6.242.049c.808.007 1.143 1.037.493 1.517l-5.021 3.708 1.883 5.952c.244.77-.633 1.408-1.291.938l-5.079-3.63-5.079 3.63c-.658.47-1.535-.168-1.291-.938l1.883-5.952-5.021-3.708c-.65-.48-.315-1.512.493-1.517l6.242-.049 1.975-5.922c.255-.767 1.34-.767 1.596 0zm0 30.01l1.975 5.922 6.242.049c.808.007 1.143 1.037.493 1.517l-5.021 3.708 1.883 5.952c.244.77-.633 1.408-1.291.938l-5.079-3.63-5.079 3.63c-.658.47-1.535-.168-1.291-.938l1.883-5.952-5.021-3.708c-.65-.48-.315-1.512.493-1.517l6.242-.049 1.975-5.922c.255-.767 1.34-.767 1.596 0zm0 30.009l1.975 5.922 6.242.049c.808.007 1.143 1.037.493 1.517l-5.021 3.708 1.883 5.952c.244.77-.633 1.408-1.291.938l-5.079-3.63-5.079 3.63c-.658.47-1.535-.168-1.291-.938l1.883-5.952-5.021-3.708c-.65-.48-.315-1.512.493-1.517l6.242-.049 1.975-5.922c.255-.767 1.34-.767 1.596 0zm0 30.008l1.975 5.922 6.242.049c.808.007 1.143 1.037.493 1.517l-5.021 3.708 1.883 5.952c.244.77-.633 1.408-1.291.938l-5.079-3.63-5.079 3.63c-.658.47-1.535-.168-1.291-.938l1.883-5.952-5.021-3.708c-.65-.48-.315-1.512.493-1.517l6.242-.049 1.975-5.922c.255-.765 1.34-.765 1.596 0z"/></g></svg>