<svg xmlns="http://www.w3.org/2000/svg" viewBox="0 0 512 512"><path d="M473.655 423.724H38.345C17.167 423.724 0 406.557 0 385.379V126.621c0-21.177 17.167-38.345 38.345-38.345h435.31c21.177 0 38.345 17.167 38.345 38.345V385.38c0 21.177-17.167 38.344-38.345 38.344z" fill="#41479b"/><path d="M8.828 256h15.334l81.77-53.574V256h44.138v-53.574L231.839 256h15.334a8.829 8.829 0 008.828-8.828v-7.002l-70.154-45.963H256v-44.138h-70.155L256 104.106v-7.002a8.828 8.828 0 00-8.823-8.828h-15.338l-81.77 53.574V88.276h-44.138v53.574L26.844 90.034c-9.234 2.9-16.954 9.203-21.713 17.434l65.024 42.601H0v44.138h70.155L0 240.17v7.002A8.829 8.829 0 008.828 256z" fill="#f5f5f5"/><g fill="#ff4b55"><path d="M256 158.897H141.241V88.276h-26.482v70.621H0v26.482h114.759V256h26.482v-70.621H256z"/><path d="M8.227 102.902l72.662 47.167h16.214l-82.496-53.55a38.565 38.565 0 00-6.38 6.383zm158.056 47.167l88.374-57.366c-1.536-2.599-4.246-4.427-7.485-4.427h-1.909l-95.194 61.793h16.214zm-76.809 44.138L1.269 251.463C2.79 254.125 5.542 256 8.828 256h1.665l95.196-61.793H89.474zm166.386 53.658l-82.666-53.658H156.98l93.874 60.935c2.812-1.305 4.741-4.04 5.006-7.277z"/></g><g fill="#f5f5f5"><path d="M377.129 150.113l3.237 9.708 10.233.079c.792.007 1.121 1.017.483 1.489l-8.232 6.079 3.086 9.757c.239.756-.621 1.382-1.267.92l-8.326-5.951-8.326 5.951c-.646.461-1.505-.164-1.267-.92l3.086-9.757-8.232-6.079c-.638-.471-.309-1.483.483-1.489l10.233-.079 3.238-9.708c.257-.752 1.32-.752 1.571 0zm-43.512 11.939l6.906 7.552 9.38-4.089c.727-.317 1.439.473 1.047 1.163l-5.048 8.902 6.788 7.658c.526.594-.006 1.515-.782 1.356l-10.026-2.05-5.185 8.822c-.402.683-1.442.462-1.532-.326l-1.149-10.168-9.993-2.205c-.775-.171-.885-1.229-.163-1.557l9.316-4.235-.991-10.185c-.076-.79.896-1.222 1.432-.638zm-34.895 28.607l9.38 4.089 6.906-7.552c.535-.585 1.507-.152 1.43.637l-.991 10.185 9.316 4.235c.722.328.61 1.386-.163 1.557l-9.993 2.205-1.149 10.168c-.089.788-1.13 1.009-1.532.326l-5.185-8.822-10.026 2.05c-.777.159-1.309-.762-.782-1.356l6.788-7.658-5.048-8.902c-.39-.688.322-1.479 1.049-1.162zm-20.243 40.326l10.233-.079 3.237-9.708c.25-.753 1.314-.753 1.566 0l3.237 9.708 10.233.079c.792.007 1.121 1.017.483 1.489l-8.232 6.079 3.086 9.757c.239.756-.621 1.382-1.267.92l-8.326-5.951-8.326 5.951c-.646.461-1.505-.164-1.267-.92l3.086-9.757-8.232-6.079c-.632-.472-.303-1.484.489-1.489zm-2.089 45.072l9.316-4.235-.991-10.185c-.077-.789.895-1.221 1.43-.637l6.906 7.552 9.38-4.089c.727-.317 1.439.473 1.047 1.163l-5.048 8.902 6.788 7.658c.526.594-.006 1.515-.782 1.356l-10.026-2.05-5.185 8.822c-.402.683-1.442.462-1.532-.326l-1.149-10.168-9.993-2.205c-.773-.172-.883-1.23-.161-1.558zm16.422 42.026l6.788-7.658-5.048-8.902c-.391-.69.321-1.48 1.047-1.163l9.38 4.089 6.906-7.552c.535-.585 1.507-.152 1.43.637l-.991 10.185 9.316 4.235c.722.328.61 1.386-.163 1.557l-9.993 2.205-1.149 10.168c-.089.788-1.13 1.009-1.532.326l-5.185-8.822-10.026 2.05c-.774.159-1.306-.762-.78-1.355zm32.096 31.713l3.086-9.757-8.232-6.079c-.638-.471-.309-1.483.483-1.489l10.233-.079 3.237-9.708c.25-.753 1.314-.753 1.566 0l3.237 9.708 10.233.079c.792.007 1.121 1.017.483 1.489l-8.232 6.079 3.086 9.757c.239.756-.621 1.382-1.267.92l-8.326-5.951-8.326 5.951c-.639.461-1.499-.164-1.261-.92zm42.221 15.917l-1.149-10.168-9.993-2.205c-.775-.171-.885-1.229-.163-1.557l9.316-4.235-.991-10.185c-.077-.789.895-1.221 1.43-.637l6.906 7.552 9.38-4.089c.727-.317 1.439.473 1.047 1.163l-5.048 8.902 6.788 7.658c.526.594-.006 1.515-.782 1.356l-10.026-2.05-5.185 8.822c-.401.681-1.441.46-1.53-.327zm45.044-2.633l-5.185-8.822-10.026 2.05c-.777.159-1.309-.763-.782-1.356l6.788-7.658-5.048-8.901c-.391-.69.321-1.48 1.047-1.163l9.38 4.089 6.906-7.552c.535-.585 1.507-.152 1.43.637l-.991 10.185 9.316 4.235c.722.328.61 1.386-.163 1.557l-9.993 2.205-1.149 10.168c-.088.788-1.128 1.01-1.53.326zm40.08-20.725l-8.326-5.951-8.326 5.951c-.646.461-1.505-.164-1.267-.92l3.086-9.757-8.232-6.079c-.638-.471-.309-1.483.483-1.489l10.233-.079 3.237-9.708c.25-.753 1.314-.753 1.566 0l3.238 9.708 10.233.079c.792.007 1.121 1.017.483 1.489l-8.232 6.079 3.086 9.757c.243.755-.618 1.38-1.262.92zm28.184-35.237l-10.026-2.05-5.185 8.822c-.402.683-1.442.462-1.532-.326l-1.149-10.168-9.993-2.205c-.775-.171-.885-1.229-.163-1.557l9.316-4.235-.991-10.185c-.077-.789.895-1.222 1.43-.637l6.906 7.552 9.38-4.089c.727-.317 1.439.473 1.047 1.163l-5.048 8.901 6.788 7.658c.529.594-.003 1.515-.78 1.356zm11.416-43.652l-9.993 2.205-1.149 10.168c-.089.788-1.13 1.009-1.532.326l-5.185-8.822-10.026 2.05c-.777.159-1.309-.762-.782-1.356l6.788-7.658-5.048-8.902c-.391-.69.321-1.48 1.047-1.163l9.38 4.089 6.906-7.552c.535-.585 1.507-.152 1.43.637l-.991 10.185 9.316 4.235c.724.329.613 1.387-.161 1.558zm-7.327-44.523l-8.232 6.079 3.086 9.757c.239.756-.621 1.382-1.267.92l-8.326-5.951-8.326 5.951c-.646.461-1.505-.164-1.267-.92l3.086-9.757-8.232-6.079c-.638-.471-.309-1.483.483-1.489l10.233-.079 3.238-9.708c.25-.753 1.314-.753 1.566 0l3.238 9.708 10.233.079c.796.007 1.125 1.019.487 1.489zm-24.801-37.693l-5.048 8.902 6.788 7.658c.526.594-.006 1.515-.782 1.356l-10.026-2.05-5.185 8.822c-.402.683-1.442.462-1.532-.326l-1.149-10.168-9.993-2.205c-.775-.171-.885-1.229-.163-1.557l9.316-4.235-.991-10.185c-.077-.789.895-1.222 1.43-.637l6.906 7.552 9.38-4.089c.728-.318 1.44.473 1.049 1.162zm-37.989-24.346l-.991 10.185 9.316 4.235c.722.328.61 1.386-.163 1.557l-9.993 2.205-1.149 10.168c-.089.788-1.13 1.009-1.532.326l-5.185-8.822-10.026 2.05c-.777.159-1.309-.762-.782-1.356l6.788-7.658-5.048-8.902c-.391-.69.321-1.48 1.047-1.163l9.38 4.089 6.906-7.552c.537-.585 1.509-.151 1.432.638z"/><path d="M377.129 150.113l3.237 9.708 10.233.079c.792.007 1.121 1.017.483 1.489l-8.232 6.079 3.086 9.757c.239.756-.621 1.382-1.267.92l-8.326-5.951-8.326 5.951c-.646.461-1.505-.164-1.267-.92l3.086-9.757-8.232-6.079c-.638-.471-.309-1.483.483-1.489l10.233-.079 3.238-9.708c.257-.752 1.32-.752 1.571 0z"/></g></svg>