<svg xmlns="http://www.w3.org/2000/svg" viewBox="0 0 512 512"><path d="M473.655 423.724H38.345C17.167 423.724 0 406.557 0 385.379V126.621c0-21.177 17.167-38.345 38.345-38.345h435.31c21.177 0 38.345 17.167 38.345 38.345V385.38c0 21.177-17.167 38.344-38.345 38.344z" fill="#f5f5f5"/><path d="M142.247 273.341s.245 4.682-3.698 8.871c-3.943 4.191-1.972 9.612 3.204 12.077 0 0-3.572 8.502 1.726 12.075 3.345 2.258 7.886 1.972 7.886 1.972s2.465 10.105.493 16.511c-1.972 6.408.739 24.891 45.838 14.294 0 0 .409 11.829 18.483 21.03 18.071 9.201 14.532 30.995 14.532 30.995s24.876 14.402 52.37-19.639c27.495-34.04 29.458-38.623 49.097-46.478 0 0-30.767-31.422-19.638-58.916 1.465-3.624 3.122-7.426 4.849-11.336 3.186 10.348 9.48 25.459 20.723 34.248 3.498 2.721 7.815 3.58 11.988 4.418 4.48.9 8.346 1.677 10.167 4.439 1.601 2.46 1.747 6.799.509 12.803-13.368 14.583-26.287 18.47-26.468 18.516l-3.109.839 6.536 21.557-19.506 17.945.348 1.739c2.414 12.029 9.839 13.624 12.908 13.768.184 0 .369.021.553.021 7.098 0 14.319-5.973 16.611-13.849 3.969-13.603 16.918-15.158 17.062-15.158l1.964-.225.654-1.862c.287-.819 7.017-20.212 10.33-39.972 1.332-7.993 1.586-14.356 1.314-19.923.103-.192.22-.299.322-.493l-.338-.177c-1.25-21.07-12.679-26.678-23.966-31.88-9.622-4.467-13.399-8.804-15.268-12.244.388.01.718.113 1.112.113 3.069 0 6.301-.348 9.574-1.268 9.123-2.537 16.509-8.776 21.95-18.534 3.314-5.973 27.965-73.604 30.767-81.295l1.943-5.34-31.821 6.792 2.424-19.352-41.241 14.545.982 2.946c.143.388 13.277 39.83 12.008 63.907-.348 6.322-2.332 10.903-5.953 13.603-4.552 3.362-10.722 3.183-13.944 2.836 7.178-19.071 11.806-39.108 4.963-57.047-11.336-29.721-61.535-56.952-99.502-53.024-37.967 3.928-69.436 13.102-79.91 51.071s-7.554 48-6.244 54.546c1.309 6.546-23.351 35.442-18.892 44.361 2.956 5.913 13.308 5.174 13.308 5.174zm181.997-34.336c.66-1.557 1.32-3.107 1.961-4.684 1.163.207 2.887.452 5.421.452 4.296 0 9.921-.819 14.606-4.317 5.175-3.866 8.019-10.024 8.449-18.308 1.166-21.602-8.244-53.454-11.353-63.294l25.857-9.103-6.28 50.161 6.219.777 4.299-34.322 22.868-4.874c-10.903 29.867-26.226 71.128-28.415 75.057-4.602 8.244-10.719 13.481-18.166 15.548-11.182 3.169-21.835-1.311-25.466-3.093zm15.512 119.291l3.191 10.53c-.082.256-.238.392-.314.654-1.493 5.115-6.301 9.308-10.577 9.308h-.287c-3.886-.163-5.749-3.948-6.628-7.037l14.615-13.455zm33.787-54.334c-.253 2.823-.526 5.682-1.085 9.037-2.659 15.895-7.774 32.015-9.492 37.191-3.519.823-10.781 3.311-15.964 10.346l-7.991-26.303c6.371-2.531 21.294-10.893 34.532-30.271zm-52.081-58.398c.12-.274.238-.524.355-.798 2.362 1.12 6.349 2.766 11.668 3.805 1.478 4.398 4.94 11.757 19.866 18.667 10.351 4.779 19.058 8.832 20.444 24.83-1.954 3.593-4.094 6.089-6.18 9.039-.305-2.541-.895-4.823-2.092-6.641-3.273-4.971-9.063-6.137-14.197-7.16-3.62-.736-7.037-1.411-9.348-3.212-13.21-10.315-18.872-31.282-20.516-38.53zm-163.443-46.405s.984-22.178 10.845-40.909l150.824 69.991-12.817 27.602-148.852-56.684z" fill="#464655"/></svg>