<svg xmlns="http://www.w3.org/2000/svg" viewBox="0 0 512 512"><path fill="#ff4b55" d="M0 203.029h512v105.94H0z"/><path d="M473.651 88.257H38.292c-20.485 0-37.215 16.062-38.292 36.277v21.109h512v-19.037c0-21.179-17.169-38.349-38.349-38.349z" fill="#41479b"/><path fill="#f5f5f5" d="M0 145.639h512v57.39H0z"/><path d="M0 387.466c1.077 20.215 17.807 36.277 38.292 36.277h435.359c21.18 0 38.349-17.169 38.349-38.349v-19.037H0v21.109z" fill="#41479b"/><g fill="#f5f5f5"><path d="M0 308.969h512v57.39H0z"/><ellipse cx="138.41" cy="255.999" rx="41.3" ry="44.14"/></g><path fill="#3cc8ff" d="M117.05 238.909h42.719v21.36H117.05z"/><path fill="#ffe15a" d="M122.746 251.058l.488 4.713 1.919-4.331-.992 4.632 3.164-3.526-2.376 4.099 4.098-2.375-3.525 3.164 4.632-.994-4.33 1.921 4.712.487-4.712.487 4.33 1.92-4.632-.993 3.525 3.165-4.098-2.376 2.376 4.099-3.164-3.526.992 4.633-1.919-4.332-.488 4.712-.488-4.712-1.919 4.332.992-4.633-3.164 3.526 2.375-4.099-4.099 2.376 3.526-3.165-4.631.993 4.33-1.92-4.712-.487 4.712-.487-4.33-1.921 4.631.994-3.526-3.164 4.099 2.375-2.375-4.099 3.164 3.526-.992-4.632 1.919 4.331z"/><path fill="#41479b" d="M146.953 290.176h-17.087l-15.664-12.816v-18.512h49.838v18.512z"/><path d="M155.497 253.152h-.001a.71.71 0 00-1.422 0h-.001c0 2.471-1.432 5.89-3.188 8.337-2.452-3.097-3.375-6.687-3.722-8.948a1.605 1.605 0 00-2.308-1.189c-.47.235-.787.694-.867 1.213-1.09 6.983-4.382 9.951-6.514 11.171-3.192-3.086-4.243-8.079-4.59-11.031a1.66 1.66 0 00-2.397-1.29 1.675 1.675 0 00-.832.981c-4.466 13.615-16.877 14.994-16.877 14.994v4.272h49.838v-7.12c-5.695-1.422-7.119-11.39-7.119-11.39z" fill="#73af00"/><g fill="#f0aa00"><path d="M162.617 240.336c-5.696-2.848-5.696-5.696-5.696-5.696s-7.12-2.848-12.816-2.848c0 0 1.424-2.848-1.424-2.848h-8.544c-2.848 0-1.424 2.848-1.424 2.848-5.696 0-12.816 2.848-12.816 2.848s0 2.848-5.696 5.696-5.696 9.256-5.696 9.256a2.135 2.135 0 004.27 0c0-.244-.05-.473-.125-.691l.125-.021 14.239-9.967h22.784l14.239 9.967.125.021a2.11 2.11 0 00-.125.691 2.135 2.135 0 004.27 0c.005.001.005-6.408-5.69-9.256z"/><path d="M166.889 257.424c-1.424 0-5.696 0-5.696-4.272s5.696-4.272 5.696-4.272l-8.544-2.848c-2.848 9.967 2.848 9.967 2.848 22.783 0 11.48-12.816 18.511-17.088 18.511s-5.696 2.848-5.696 2.848-1.424-2.848-5.696-2.848-17.088-7.031-17.088-18.511c0-12.816 5.696-12.816 2.848-22.783l-8.544 2.848s5.696 0 5.696 4.272-4.272 4.272-5.696 4.272-7.12 0-7.12 7.12 7.12 15.664 17.088 21.36 5.696 11.392 18.511 11.392 8.544-5.696 18.511-11.392c9.967-5.696 17.088-14.239 17.088-21.36.002-7.12-5.695-7.12-7.118-7.12z"/></g><g fill="#73af00"><path d="M135.562 235.136l-3.444-1.548a2.843 2.843 0 00-1.816-.175c-2.22.513-7.728 2.201-11.827 6.924l4.272 1.424 12.815-6.625zm5.695 0l3.444-1.548a2.843 2.843 0 011.816-.175c2.22.513 7.728 2.201 11.827 6.924l-4.272 1.424-12.815-6.625z"/><path d="M138.913 236.064l2.597-2.597a.355.355 0 10-.503-.503l-2.597 2.597-2.597-2.597a.355.355 0 10-.503.503l2.597 2.597-2.597 2.597a.355.355 0 10.504.503l2.597-2.597 2.597 2.597a.355.355 0 10.504-.503l-2.599-2.597z"/></g><path d="M166.889 248.88c0-2.422-2.289-3.47-4.272-3.924v-1.128c-2.681-.252-4.176-1.258-6.776-3.029a76.486 76.486 0 00-3.507-2.289c-5.007-3.041-8.855-3.481-11.077-3.375v2.353h-5.696v-2.353c-2.221-.106-6.07.333-11.077 3.375a75.94 75.94 0 00-3.507 2.289c-2.599 1.77-4.094 2.778-6.776 3.029v1.128c-1.983.454-4.272 1.501-4.272 3.924l4.272-1.424v.649c4.041-.298 6.352-1.848 9.181-3.775.959-.653 2.045-1.394 3.32-2.167 3.252-1.977 5.779-2.588 7.435-2.732v2.331h8.544v-2.331c1.655.145 4.183.756 7.435 2.732a73.41 73.41 0 013.32 2.167c2.828 1.927 5.139 3.478 9.181 3.775v-.649l4.272 1.424z" fill="#f5f5f5"/><path d="M155.497 226.435v-1.762h-3.966c.693-.595 1.119-1.296 1.119-2.135 0-3.934-8.951-4.984-14.239-4.984s-14.239 1.049-14.239 4.984c0 .84.426 1.541 1.119 2.135h-3.966v1.762c-3.486.778-6.336 2.649-6.486 2.749l1.579 2.369c.039-.026 3.957-2.609 7.754-2.609v-1.424h28.479v1.424c3.797 0 7.715 2.582 7.754 2.609l1.579-2.369c-.151-.1-3.001-1.972-6.487-2.749zm-11.391-2.156v-1.081c0-.697-.656-1.208-1.331-1.04l-4.365 1.091-4.365-1.091a1.071 1.071 0 00-1.331 1.04v1.081c-3.199-.47-5.091-1.253-5.606-1.741.77-.732 4.543-2.135 11.302-2.135 6.758 0 10.531 1.405 11.302 2.135-.516.488-2.408 1.271-5.606 1.741z" fill="#3cc8ff"/><path d="M138.588 242.298l.361 1.081 1.14.009c.148.001.209.19.09.277l-.917.678.344 1.087a.154.154 0 01-.236.171l-.928-.663-.928.663c-.12.086-.28-.031-.236-.171l.344-1.087-.917-.678c-.119-.087-.057-.276.09-.277l1.14-.009.361-1.081a.154.154 0 01.292 0zm-5.583.364l.472 1.038 1.136-.11a.154.154 0 01.119.266l-.841.77.456 1.045a.153.153 0 01-.216.195l-.992-.562-.853.757c-.11.098-.283-.001-.253-.146l.228-1.118-.983-.577a.154.154 0 01.061-.285l1.133-.128.245-1.114c.029-.144.227-.164.288-.031zm-5.732 1.528l.686.912 1.084-.354a.153.153 0 01.173.234l-.654.934.672.921a.153.153 0 01-.169.237l-1.09-.334-.669.924c-.086.119-.276.06-.278-.087l-.02-1.14-1.085-.351c-.14-.045-.142-.244-.002-.291l1.078-.371-.002-1.14a.153.153 0 01.276-.094zm-5.745 2.422l.8.812 1.027-.494a.154.154 0 01.203.21l-.525 1.012.788.824a.154.154 0 01-.136.258l-1.126-.187-.541 1.004a.154.154 0 01-.287-.05l-.17-1.128-1.122-.204c-.146-.026-.173-.223-.041-.289l1.02-.51-.152-1.13a.154.154 0 01.262-.128zm22.35-3.95l-.472 1.038-1.136-.11a.154.154 0 00-.119.266l.841.77-.456 1.045a.153.153 0 00.216.195l.992-.562.853.757c.11.098.283-.001.253-.146l-.228-1.118.983-.577a.154.154 0 00-.061-.285l-1.133-.128-.245-1.114c-.03-.144-.227-.164-.288-.031zm5.732 1.528l-.686.912-1.084-.354a.153.153 0 00-.173.234l.654.934-.672.921a.153.153 0 00.169.237l1.09-.334.669.924c.086.119.276.06.278-.087l.02-1.14 1.085-.351c.14-.045.142-.244.002-.291l-1.078-.371.002-1.14c.001-.149-.188-.212-.276-.094zm5.745 2.422l-.8.812-1.027-.494a.154.154 0 00-.203.21l.525 1.012-.788.824a.154.154 0 00.136.258l1.126-.187.541 1.004c.07.13.265.096.287-.05l.17-1.128 1.122-.204c.146-.026.173-.223.041-.289l-1.02-.51.152-1.13a.154.154 0 00-.262-.128z" fill="#f5f5f5"/><path fill="#8c5a28" d="M128.575 276.469l7.254 4.851h8.765l4.051-3.471-3.116 1.246h-10.324z"/><path d="M133.515 270.21l-.7 7.061-3.186-1.216c-.001-.001 1.465-3.403 3.886-5.845z" fill="#f5f5f5"/><path d="M139.8 267.419h.471v12.02h-.471zm4.36 1.01h.471v11.01h-.471zm-8.7 0h.471v11.01h-.471z" fill="#8c5a28"/><path d="M141.478 278.294h-2.877a.542.542 0 01-.542-.542v-1.453c0-.299.243-.542.542-.542h2.877c.299 0 .542.243.542.542v1.453c0 .3-.243.542-.542.542zm0-3.382h-2.877a.542.542 0 01-.542-.542v-1.453c0-.299.243-.542.542-.542h2.877c.299 0 .542.243.542.542v1.453a.542.542 0 01-.542.542zm0-3.114h-2.877a.542.542 0 01-.542-.542v-1.453c0-.299.243-.542.542-.542h2.877c.299 0 .542.243.542.542v1.453a.542.542 0 01-.542.542zm4.09 6.496h-2.343a.542.542 0 01-.542-.542v-1.453c0-.299.243-.542.542-.542h2.343c.299 0 .542.243.542.542v1.453c0 .3-.243.542-.542.542zm0-3.114h-2.343a.542.542 0 01-.542-.542v-1.055c0-.299.243-.542.542-.542h2.343c.299 0 .542.243.542.542v1.055a.542.542 0 01-.542.542zm0-3.086h-2.343a.542.542 0 01-.542-.542v-.712c0-.299.243-.542.542-.542h2.343c.299 0 .542.243.542.542v.712c0 .3-.243.542-.542.542zm-8.701 6.2h-2.343a.542.542 0 01-.542-.542v-1.453c0-.299.243-.542.542-.542h2.343c.299 0 .542.243.542.542v1.453c0 .3-.243.542-.542.542zm0-3.114h-2.343a.542.542 0 01-.542-.542v-1.055c0-.299.243-.542.542-.542h2.343c.299 0 .542.243.542.542v1.055a.542.542 0 01-.542.542zm0-3.086h-2.343a.542.542 0 01-.542-.542v-.712c0-.299.243-.542.542-.542h2.343c.299 0 .542.243.542.542v.712c0 .3-.243.542-.542.542zm-.937-3.662v1.421l2.094-.724zm8.695 0v1.421l2.094-.724zm-4.355-1.022v1.421l2.093-.724z" fill="#f5f5f5"/><path fill="#8c5a28" d="M134.709 257.801l2.519 1.685h3.046l1.407-1.206-1.083.433h-3.586z"/><path d="M136.425 255.626l-.243 2.453-1.107-.423c-.001.001.509-1.181 1.35-2.03z" fill="#f5f5f5"/><path d="M138.61 254.649h.163v4.177h-.163zm1.51.35h.163v3.824h-.163zm-3.02 0h.163v3.824h-.163z" fill="#8c5a28"/><path d="M139.19 258.435h-1a.189.189 0 01-.189-.189v-.504c0-.104.084-.189.189-.189h1c.104 0 .189.084.189.189v.504a.188.188 0 01-.189.189zm0-1.176h-1a.189.189 0 01-.189-.189v-.504c0-.104.084-.189.189-.189h1c.104 0 .189.084.189.189v.504a.188.188 0 01-.189.189zm0-1.081h-1a.189.189 0 01-.189-.189v-.504c0-.104.084-.189.189-.189h1c.104 0 .189.084.189.189v.504a.189.189 0 01-.189.189zm1.422 2.257h-.814a.189.189 0 01-.189-.189v-.504c0-.104.084-.189.189-.189h.814c.104 0 .189.084.189.189v.504a.19.19 0 01-.189.189zm0-1.082h-.814a.189.189 0 01-.189-.189v-.366c0-.104.084-.189.189-.189h.814c.104 0 .189.084.189.189v.366a.191.191 0 01-.189.189zm0-1.073h-.814a.189.189 0 01-.189-.189v-.247c0-.104.084-.189.189-.189h.814c.104 0 .189.084.189.189v.247a.19.19 0 01-.189.189zm-3.023 2.155h-.814a.189.189 0 01-.189-.189v-.504c0-.104.084-.189.189-.189h.814c.104 0 .189.084.189.189v.504a.19.19 0 01-.189.189zm0-1.082h-.814a.189.189 0 01-.189-.189v-.366c0-.104.084-.189.189-.189h.814c.104 0 .189.084.189.189v.366a.19.19 0 01-.189.189zm0-1.073h-.814a.189.189 0 01-.189-.189v-.247c0-.104.084-.189.189-.189h.814c.104 0 .189.084.189.189v.247a.189.189 0 01-.189.189zm-.326-1.272v.494l.728-.251zm3.021 0v.494l.727-.251zm-1.513-.355v.494l.727-.252zm-5.846-4.348h-1.848a1.215 1.215 0 01-1.212-1.212c0-.667.545-1.212 1.212-1.212h1.848c.667 0 1.212.545 1.212 1.212a1.215 1.215 0 01-1.212 1.212zm14.056 0h-1.219a1.212 1.212 0 010-2.424h1.219a1.212 1.212 0 010 2.424zm8.658 1.824h-1.074a.693.693 0 01-.693-.693v-.115c0-.383.31-.693.693-.693h1.074c.383 0 .693.31.693.693v.115c0 .383-.31.693-.693.693z" fill="#f5f5f5"/></svg>