<svg xmlns="http://www.w3.org/2000/svg" viewBox="0 0 512 512"><path d="M0 385.38c0 21.176 17.167 38.345 38.345 38.345h435.311c21.165 0 38.324-17.148 38.344-38.307v-73.509H0v73.471z" fill="#41479b"/><path d="M473.656 88.275H38.345C17.167 88.275 0 105.443 0 126.62v73.471h512v-73.509c-.02-21.158-17.179-38.307-38.344-38.307z" fill="#ff4b55"/><path fill="#f5f5f5" d="M0 200.089h512v111.81H0z"/><path d="M194.21 203.029h24.717v28.25H194.21zm49.43 0h24.717v28.25H243.64zm-24.71 28.25h24.717v28.25H218.93zm74.15-28.25h24.717v28.25H293.08zm-24.72 28.25h24.717v28.25H268.36z" fill="#ff4b55"/><path d="M218.93 203.029h24.717v28.25H218.93zm49.43 0h24.717v28.25H268.36zm-74.15 28.25h24.717v28.25H194.21zm49.43 0h24.717v28.25H243.64zm49.44 0h24.717v28.25H293.08z" fill="#f5f5f5"/><path d="M243.64 259.529h24.717v28.25H243.64zm-24.71 28.25h24.717v28.25H218.93zm49.43 0h24.717v28.25H268.36z" fill="#ff4b55"/><path d="M218.93 259.529h24.717v28.25H218.93zm49.43 0h24.717v28.25H268.36zm-24.72 28.25h24.717v28.25H243.64z" fill="#f5f5f5"/><g fill="#ff4b55"><path d="M317.793 203.035v79.448c0 34.128-27.666 61.793-61.793 61.793s-61.793-27.666-61.793-61.793v-79.448h123.586m4.413-4.415H189.792v83.862c0 36.507 29.7 66.207 66.207 66.207s66.207-29.701 66.207-66.207V198.62z"/><path d="M218.924 287.779V259.53h-24.717v22.953c0 1.789.118 3.546.267 5.297l24.45-.001z"/></g><path d="M317.526 287.779h-24.45v28.248h14.774a61.375 61.375 0 009.676-28.248zm-113.377 28.249h14.774V287.78h-24.45a61.383 61.383 0 009.676 28.248z" fill="#f5f5f5"/><path d="M293.075 287.779h24.45c.149-1.749.267-3.508.267-5.297V259.53h-24.717v28.249zm-74.151 44.054v-15.805H204.15c3.957 6.105 8.972 11.439 14.774 15.805zm88.925-15.805h-14.774v15.806c5.801-4.367 10.815-9.701 14.774-15.806z" fill="#ff4b55"/><path d="M218.924 331.833c7.195 5.415 15.567 9.345 24.717 11.202v-27.007h-24.717v15.805zm49.434 11.201c9.15-1.857 17.523-5.788 24.717-11.202v-15.805h-24.717v27.007z" fill="#f5f5f5"/><path d="M268.358 316.028h-24.717v27.008A62.043 62.043 0 00256 344.277c4.233 0 8.365-.43 12.359-1.241v-27.008h-.001z" fill="#ff4b55"/><path d="M211.27 156.29a180.927 180.927 0 00-16.489-1.779 189.969 189.969 0 00-12.398 11.15l11.823 28.545a161.574 161.574 0 0124.247-7.867l-7.183-30.049zm59.732-4.686a184.805 184.805 0 00-15.003-6.765 185.653 185.653 0 00-15.003 6.765l2.41 30.803a161.163 161.163 0 0125.186 0l2.41-30.803zm58.614 14.057a190.81 190.81 0 00-12.398-11.15c-5.609.346-11.111.947-16.489 1.779l-7.184 30.049a161.46 161.46 0 0124.247 7.867l11.824-28.545z" fill="#4173cd"/><path d="M240.996 151.604a183.1 183.1 0 00-15.894-4.346 187.354 187.354 0 00-13.832 9.033l7.183 30.049a161.442 161.442 0 0124.952-3.933l-2.409-30.803zm59.733 4.686a187.453 187.453 0 00-13.832-9.033 183.718 183.718 0 00-15.894 4.346l-2.41 30.803a161.322 161.322 0 0124.952 3.933l7.184-30.049z" fill="#41479b"/><path d="M241.96 163.925a179.702 179.702 0 00-27.817 4.385l-1.437-6.011a186.473 186.473 0 0128.771-4.535l.483 6.161zm.965 12.32a167.663 167.663 0 00-25.907 4.084l-1.437-6.009a173.602 173.602 0 0126.862-4.234c.159 2.051.321 4.107.482 6.159z" fill="#ff4b55"/><path d="M285.326 178.32a167.55 167.55 0 00-6.482-1.022c-3.562-.492-6.215-3.516-5.906-6.915.308-3.398 3.713-5.863 7.59-5.327 2.325.32 4.646.685 6.959 1.097 3.859.682 6.357 4.082 5.604 7.406-.75 3.332-4.218 5.386-7.765 4.761z" fill="#ffe15a"/><path d="M320.157 188.497a167.924 167.924 0 00-25.175-8.168l1.437-6.009a173.739 173.739 0 0126.103 8.468l-2.365 5.709z" fill="#ff4b55"/><path d="M317.952 169.958c-.873 2.407-3.817 3.552-6.599 2.647-2.781-.906-4.483-3.55-3.779-6.012.704-2.462 3.686-3.765 6.636-2.806 2.953.957 4.616 3.764 3.742 6.171zm-113.528-3.364c.703 2.464-1 5.109-3.779 6.012-2.781.9-5.725-.245-6.599-2.647-.874-2.408.79-5.214 3.742-6.171 2.95-.956 5.934.346 6.636 2.806zm50.165-4.046c.006 2.047-1.834 3.714-4.114 3.784-2.279.073-4.222-1.481-4.342-3.52-.119-2.04 1.719-3.806 4.111-3.883 2.393-.075 4.336 1.572 4.345 3.619zm11.276.263c-.121 2.044-2.065 3.593-4.342 3.52-2.279-.07-4.119-1.737-4.114-3.784.009-2.045 1.953-3.697 4.344-3.619 2.393.073 4.229 1.842 4.112 3.883zm-5.858 9.268c-.057 2.047-1.85 3.657-4.008 3.657-2.156-.001-3.949-1.609-4.008-3.657-.056-2.041 1.737-3.755 4.008-3.75 2.271-.005 4.064 1.707 4.008 3.75z" fill="#ffe15a"/></svg>