<svg xmlns="http://www.w3.org/2000/svg" viewBox="0 0 512 512"><path d="M473.655 423.724H38.345C17.167 423.724 0 406.557 0 385.379V126.621c0-21.177 17.167-38.345 38.345-38.345h435.31c21.177 0 38.345 17.167 38.345 38.345V385.38c0 21.177-17.167 38.344-38.345 38.344z" fill="#82afff"/><path d="M477.496 88.468L0 335.448v17.655l496.865-257a38.146 38.146 0 00-19.369-7.635zM34.504 423.532L512 176.552v-17.655l-496.865 257a38.146 38.146 0 0019.369 7.635z" fill="#ffe15a"/><path d="M496.865 96.104L0 353.103v32.276c0 12.451 5.939 23.512 15.135 30.517l496.865-257V126.62c0-12.451-5.939-23.512-15.135-30.516z" fill="#ff4b55"/><path d="M92.619 122.978l12.718 38.135 40.199.311c2.248.018 3.18 2.886 1.372 4.222l-32.339 23.881 12.126 38.328c.678 2.143-1.762 3.916-3.591 2.609l-32.705-23.377-32.705 23.377c-1.828 1.308-4.269-.466-3.591-2.609l12.126-38.328-32.339-23.881c-1.809-1.335-.876-4.204 1.372-4.222l40.199-.311 12.718-38.135c.713-2.132 3.728-2.132 4.44 0z" fill="#ffe15a"/></svg>