<svg xmlns="http://www.w3.org/2000/svg" viewBox="0 0 512 512"><path d="M473.654 423.72H38.345C17.167 423.72 0 406.553 0 385.375V126.617c0-21.176 17.167-38.345 38.345-38.345h435.309c21.177 0 38.345 17.169 38.345 38.345v258.758c0 21.178-17.168 38.345-38.345 38.345z" fill="#73af00"/><path fill="#ffe15a" d="M0 220.688h512v23.54H0z"/><path fill="#464655" d="M0 244.227h512v23.54H0z"/><path fill="#f5f5f5" d="M0 267.767h512v23.54H0z"/><path fill="#ffe15a" d="M220.69 88.277h23.54v335.45h-23.54z"/><path fill="#464655" d="M244.23 88.277h23.54v335.45h-23.54z"/><path fill="#f5f5f5" d="M267.77 88.277h23.54v335.45h-23.54z"/><circle cx="256" cy="255.997" r="88.28" fill="#ff4b55"/><path d="M248.421 271.181s-1.031 7.217 5.98 17.938h13.608l-3.093-12.989-16.495-4.949z" fill="#73af00"/><path d="M247.459 222.868s-22.266 36.425 10.446 58.142l3.436-20.618 2.199-26.666-3.436-11.409-12.645.551z" fill="#a561cd"/><path d="M247.459 222.867s-2.545 4.237-4.653 10.612c2.866 2.996 10.701 6.708 20.335 5.08l.399-4.834-3.437-11.409-12.644.551z" fill="#73af00"/><path d="M243.197 217.645s.274-7.285 7.423-7.285c8.935 0 16.22 2.061 27.765 25.978 0 0-10.269 10.08-16.769-3.849-1.924-4.124-2.612-9.071-2.612-9.071s-7.972 2.749-13.47-.413l-2.337-5.36z" fill="#a561cd"/><path d="M246.771 221.081l-1.65-4.398s-9.209-1.512-5.361 9.622c0 0 .275-2.199 2.612-1.924 2.338.275 4.811-1.513 4.399-3.3z" fill="#ffe15a"/><g fill="#73af00"><path d="M262.165 262.866s-9.689 7.593-4.26 25.428c2.887 9.484 14.432 19.896 14.432 19.896s8.556-22.37 5.773-31.029c-1.638-5.097-15.945-14.295-15.945-14.295z"/><path d="M280.584 291.594s-25.016-23.848-26.666-42.61 9.169-15.784 11.134-14.57c4.673 2.886 16.494 14.982 15.532 57.18z"/></g><path d="M277.48 297.057h-41.418a1.557 1.557 0 01-1.558-1.558v-3.07c0-.861.697-1.558 1.558-1.558h41.418c.861 0 1.558.697 1.558 1.558v3.07a1.56 1.56 0 01-1.558 1.558z" fill="#b34900"/><path d="M267.389 291.181c-1.442.599-4.33 1.341-3.608 3.917.553 1.974 4.33 1.752 3.608 4.021-.488 1.533-8.159 1.674-11.134 1.237-1.822-.268-5.773-1.341-5.223-5.876.551-4.535 2.199-5.234 4.262-6.048 2.045-.808 10.99-.629 12.302.481.669.566.885 1.814-.207 2.268z" fill="#ffe15a"/><g fill="#73af00"><path d="M256.812 177.133l2.009 6.025 6.35.05c.822.007 1.163 1.056.502 1.544l-5.109 3.773 1.916 6.055c.248.783-.644 1.432-1.313.954L256 191.842l-5.166 3.693c-.669.478-1.561-.17-1.313-.954l1.916-6.055-5.109-3.773c-.661-.489-.32-1.538.502-1.544l6.35-.05 2.009-6.025c.259-.78 1.362-.78 1.623-.001zm0 140.854l2.009 6.025 6.35.05c.822.007 1.163 1.056.502 1.544l-5.109 3.773 1.916 6.055c.248.783-.644 1.432-1.313.954L256 332.695l-5.166 3.693c-.669.478-1.561-.17-1.313-.954l1.916-6.055-5.109-3.773c-.661-.489-.32-1.538.502-1.544l6.35-.05 2.009-6.025c.259-.78 1.362-.78 1.623 0z"/><path d="M256.812 177.133l2.009 6.025 6.35.05c.822.007 1.163 1.056.502 1.544l-5.109 3.773 1.916 6.055c.248.783-.644 1.432-1.313.954L256 191.842l-5.166 3.693c-.669.478-1.561-.17-1.313-.954l1.916-6.055-5.109-3.773c-.661-.489-.32-1.538.502-1.544l6.35-.05 2.009-6.025c.259-.78 1.362-.78 1.623-.001zm0 140.854l2.009 6.025 6.35.05c.822.007 1.163 1.056.502 1.544l-5.109 3.773 1.916 6.055c.248.783-.644 1.432-1.313.954L256 332.695l-5.166 3.693c-.669.478-1.561-.17-1.313-.954l1.916-6.055-5.109-3.773c-.661-.489-.32-1.538.502-1.544l6.35-.05 2.009-6.025c.259-.78 1.362-.78 1.623 0zm-49.078-126.398l1.76 6.102-5.204 3.64c-.674.471-.36 1.529.462 1.556l6.347.212 1.855 6.074c.241.787 1.343.814 1.623.042l2.163-5.971 6.35.114c.822.014 1.19-1.025.541-1.53l-5.011-3.902 2.069-6.006c.268-.777-.608-1.449-1.289-.988l-5.259 3.56-5.07-3.823c-.657-.496-1.566.129-1.337.92zm79.848 116.031l1.76 6.102-5.204 3.64c-.674.471-.36 1.529.462 1.556l6.347.212 1.855 6.074c.241.787 1.343.814 1.623.042l2.163-5.971 6.35.114c.822.014 1.19-1.025.541-1.53l-5.011-3.902 2.07-6.004c.268-.777-.608-1.449-1.289-.988l-5.259 3.56-5.07-3.823c-.656-.498-1.565.129-1.338.918zm-109.697-75.596l5.07 3.823-1.976 6.036c-.256.781.63 1.439 1.304.968l5.204-3.641 5.13 3.744c.664.484 1.564-.154 1.323-.941l-1.855-6.073 5.146-3.721c.666-.482.335-1.535-.487-1.549l-6.35-.113-1.949-6.045c-.253-.782-1.355-.793-1.623-.017l-2.069 6.004-6.35-.014c-.823-.002-1.174 1.044-.518 1.539zm133.516 44.864l5.07 3.823-1.976 6.036c-.256.781.63 1.439 1.304.968l5.204-3.641 5.13 3.744c.664.484 1.564-.154 1.323-.941l-1.855-6.073 5.146-3.721c.666-.482.335-1.535-.487-1.549l-6.35-.113-1.949-6.045c-.253-.782-1.355-.793-1.623-.017l-2.069 6.004-6.35-.014c-.822-.004-1.174 1.043-.518 1.539zm-10.489-85.299l-1.76 6.102 5.204 3.64c.674.471.36 1.529-.462 1.556l-6.347.212-1.855 6.074c-.241.787-1.343.814-1.623.042l-2.163-5.971-6.35.114c-.822.014-1.19-1.025-.541-1.53l5.011-3.902-2.07-6.004c-.268-.777.608-1.449 1.289-.988l5.259 3.56 5.07-3.823c.657-.498 1.566.127 1.338.918zM221.063 307.62l-1.76 6.102 5.204 3.64c.674.471.36 1.529-.462 1.556l-6.347.212-1.855 6.074c-.241.787-1.343.814-1.623.042l-2.163-5.971-6.35.114c-.822.014-1.19-1.025-.541-1.53l5.011-3.902-2.07-6.004c-.268-.777.608-1.449 1.289-.988l5.259 3.56 5.07-3.823c.657-.498 1.566.129 1.338.918zm109.698-75.596l-5.07 3.823 1.976 6.036c.256.781-.63 1.439-1.304.968l-5.204-3.641-5.13 3.744c-.664.484-1.564-.154-1.323-.941l1.855-6.073-5.146-3.721c-.666-.482-.335-1.535.487-1.549l6.35-.113 1.949-6.045c.253-.782 1.355-.793 1.623-.017l2.069 6.004 6.35-.014c.823-.002 1.175 1.044.518 1.539zm-133.517 44.864l-5.07 3.823 1.976 6.036c.256.781-.63 1.439-1.304.968l-5.204-3.641-5.13 3.744c-.664.484-1.564-.154-1.323-.941l1.855-6.073-5.146-3.721c-.666-.482-.335-1.535.487-1.549l6.35-.113 1.949-6.045c.253-.782 1.355-.793 1.623-.017l2.069 6.004 6.35-.014c.824-.004 1.175 1.043.518 1.539z"/></g></svg>