<svg xmlns="http://www.w3.org/2000/svg" viewBox="0 0 512 512"><path d="M473.655 423.724H38.345C17.167 423.724 0 406.557 0 385.379V126.621c0-21.177 17.167-38.345 38.345-38.345h435.31c21.177 0 38.345 17.167 38.345 38.345V385.38c0 21.177-17.167 38.344-38.345 38.344z" fill="#41479b"/><path d="M8.828 256h15.334l81.77-53.574V256h44.138v-53.574L231.839 256h15.334a8.829 8.829 0 008.828-8.828v-7.002l-70.154-45.963H256v-44.138h-70.155L256 104.106v-7.002a8.827 8.827 0 00-8.825-8.828h-15.337l-81.769 53.574V88.276h-44.138v53.574L26.844 90.034c-9.234 2.9-16.954 9.203-21.711 17.434l65.023 42.601H0v44.138h70.155L0 240.17v7.002A8.829 8.829 0 008.828 256z" fill="#f5f5f5"/><g fill="#ff4b55"><path d="M256 158.897H141.241V88.276h-26.482v70.621H0v26.482h114.759V256h26.482v-70.621H256z"/><path d="M8.227 102.902l72.662 47.167h16.214l-82.496-53.55a38.565 38.565 0 00-6.38 6.383zm158.056 47.167l88.374-57.366c-1.536-2.599-4.246-4.427-7.485-4.427h-1.909l-95.194 61.793h16.214zm-76.809 44.138L1.269 251.463C2.79 254.125 5.542 256 8.828 256h1.665l95.196-61.793H89.474zm166.386 53.658l-82.666-53.658H156.98l93.874 60.935c2.812-1.305 4.741-4.04 5.006-7.277z"/></g><path d="M330.707 352.392l-4.143-9.669 2.071 4.835-2.095-4.823c.873-.385 21.38-9.741 21.38-37.254h10.519c0 34.626-26.599 46.424-27.732 46.911z" fill="#e67346"/><path d="M334.819 328.867l-7.437-7.437c14.219-14.219 21.608-18.119 22.404-18.518l4.705 9.409-2.353-4.705 2.393 4.684c-.066.035-6.726 3.582-19.712 16.567z" fill="#eb7d4b"/><path d="M438.796 352.392l4.143-9.669-2.071 4.835 2.095-4.823c-.873-.385-21.38-9.741-21.38-37.254h-10.519c0 34.626 26.599 46.424 27.732 46.911z" fill="#e67346"/><path d="M434.684 328.867l7.437-7.437c-14.219-14.219-21.608-18.119-22.404-18.518l-4.705 9.409 2.353-4.705-2.393 4.684c.066.035 6.726 3.582 19.712 16.567z" fill="#eb7d4b"/><path d="M384.736 168.734h-56.102v84.152c0 17.531 3.507 63.114 56.102 80.646 52.595-17.532 56.102-63.114 56.102-80.646v-84.152h-56.102z" fill="#4173cd"/><path d="M409.28 189.772h-30.144a14.026 14.026 0 01-8.761-3.073l-11.769-9.416a7.018 7.018 0 00-4.381-1.537h-1.046a7.012 7.012 0 00-7.012 7.012h-5.259a5.26 5.26 0 000 10.518h5.259a3.507 3.507 0 013.507 3.507v17.532c0 6.528 4.48 11.966 10.519 13.529v11.015h7.012l2.63-10.519h32.434l3.507 3.507v7.012h3.507V228.34h3.507v10.519h3.507v-11.491c2.088-1.215 3.507-3.45 3.507-6.04V200.29c-.005-5.808-4.714-10.518-10.524-10.518z" fill="#c8c8c8"/><path fill="#73af00" d="M346.166 235.354l7.014 21.038h63.114l7.012-21.038z"/><path d="M422.092 249.379c-9.348 0-9.348 7.012-18.696 7.012-9.345 0-9.345-7.012-18.691-7.012-9.344 0-9.344 7.012-18.689 7.012-9.347 0-9.347-7.012-18.695-7.012-9.327 0-9.351 6.98-18.638 7.01.113 3.906.447 8.683 1.31 13.963 7.992-.653 8.466-6.947 17.329-6.947 9.347 0 9.347 7.012 18.695 7.012 9.344 0 9.344-7.012 18.689-7.012s9.345 7.012 18.691 7.012c9.348 0 9.348-7.012 18.696-7.012 8.887 0 9.354 6.307 17.385 6.948.862-5.279 1.197-10.057 1.31-13.963-9.331-.016-9.343-7.011-18.696-7.011z" fill="#f5f5f5"/><path d="M422.092 263.405c-9.348 0-9.348 7.012-18.696 7.012-9.345 0-9.345-7.012-18.691-7.012-9.344 0-9.344 7.012-18.689 7.012-9.347 0-9.347-7.012-18.695-7.012-8.863 0-9.336 6.294-17.329 6.947a90.688 90.688 0 003.225 13.367c5.115-1.786 6.607-6.29 14.103-6.29 9.347 0 9.347 7.012 18.695 7.012 9.344 0 9.344-7.012 18.689-7.012s9.345 7.012 18.691 7.012c9.348 0 9.348-7.012 18.696-7.012 7.523 0 9.01 4.521 14.156 6.301a90.868 90.868 0 003.229-13.377c-8.029-.642-8.496-6.948-17.384-6.948z" fill="#4173cd"/><path d="M422.092 277.43c-9.348 0-9.348 7.012-18.696 7.012-9.345 0-9.345-7.012-18.691-7.012-9.344 0-9.344 7.012-18.689 7.012-9.347 0-9.347-7.012-18.695-7.012-7.496 0-8.989 4.503-14.103 6.29a79.59 79.59 0 004.655 11.317c2.371-1.778 4.707-3.582 9.448-3.582 9.347 0 9.347 7.012 18.695 7.012 9.344 0 9.344-7.012 18.689-7.012s9.345 7.012 18.691 7.012c9.348 0 9.348-7.012 18.696-7.012 4.768 0 7.109 1.819 9.494 3.604a79.462 79.462 0 004.662-11.328c-5.146-1.78-6.633-6.301-14.156-6.301z" fill="#f5f5f5"/><path d="M422.092 291.455c-9.348 0-9.348 7.012-18.696 7.012-9.345 0-9.345-7.012-18.691-7.012-9.344 0-9.344 7.012-18.689 7.012-9.347 0-9.347-7.012-18.695-7.012-4.74 0-7.078 1.803-9.448 3.582a73.023 73.023 0 006.613 10.705c.847-.16 1.774-.26 2.835-.26 9.347 0 9.347 7.012 18.695 7.012 9.344 0 9.344-7.012 18.689-7.012s9.345 7.012 18.691 7.012c9.348 0 9.348-7.012 18.696-7.012 1.081 0 2.026.102 2.887.267a72.955 72.955 0 006.607-10.689c-2.384-1.787-4.725-3.605-9.494-3.605z" fill="#4173cd"/><path d="M424.979 305.748a15.159 15.159 0 00-2.887-.267c-9.348 0-9.348 7.012-18.696 7.012-9.345 0-9.345-7.012-18.691-7.012-9.344 0-9.344 7.012-18.689 7.012-9.347 0-9.347-7.012-18.695-7.012-1.06 0-1.987.1-2.835.26 5.683 7.628 13.391 14.781 23.823 20.6 7.104-1.048 7.894-6.835 16.394-6.835 8.52 0 9.294 5.812 16.442 6.841 10.438-5.817 18.149-12.97 23.834-20.599z" fill="#f5f5f5"/><g fill="#ff965a"><path d="M382.99 249.38h3.507v59.61h-3.507z"/><path d="M374.21 258.14h21.04v3.507h-21.04zm0 21.04h21.04v3.507h-21.04z"/></g><path fill="#ffe15a" d="M374.21 261.64h21.04v13.87h-21.04z"/><path fill="#ff4b55" d="M382.983 249.379v7.013l-10.52-3.506z"/><g fill="#ff965a"><path d="M406.36 249.38h3.507v41.2h-3.507z"/><path d="M397.59 258.14h21.04v3.507h-21.04zm0 21.04h21.04v3.507h-21.04z"/></g><path fill="#ffe15a" d="M397.59 261.64h21.04v13.87h-21.04z"/><path fill="#ff4b55" d="M406.358 249.379v7.013l-10.519-3.506z"/><g fill="#ff965a"><path d="M359.46 249.38h3.507v40.905h-3.507z"/><path d="M350.7 258.14h21.04v3.507H350.7zm0 21.04h21.04v3.507H350.7z"/></g><path fill="#ffe15a" d="M350.7 261.64h21.04v13.87H350.7z"/><path fill="#ff4b55" d="M359.462 249.379v7.013l-10.52-3.506z"/><path d="M402.268 287.949c0 9.666-7.865 17.532-17.532 17.532s-17.532-7.865-17.532-17.532h-6.985l-23.747-5.363-.773 3.421 10.467 2.364v3.084l7.717 3.086c3.042 14.244 15.714 24.963 30.852 24.963 14.987 0 27.543-10.513 30.744-24.544h11.331v-10.519l-24.542 3.508z" fill="#ff965a"/><path d="M440.838 168.734v84.152c0 17.531-3.507 63.114-56.102 80.646-52.595-17.532-56.102-63.114-56.102-80.646v-84.152h112.204m3.505-3.507H325.125v87.659c0 41.576 20.776 71.398 58.499 83.972l1.109.37 1.109-.37c37.724-12.575 58.499-42.397 58.499-83.972v-84.152l.002-3.507z" fill="#f5f5f5"/><path d="M384.736 351.063c-25.807 0-49.741-8.646-64.021-23.127l9.985-9.848c11.702 11.864 31.903 18.949 54.037 18.949s42.335-7.084 54.037-18.949l9.985 9.848c-14.282 14.481-38.216 23.127-64.023 23.127z" fill="#ff965a"/></svg>