<svg xmlns="http://www.w3.org/2000/svg" viewBox="0 0 512 512"><path d="M0 385.379c0 21.177 17.167 38.345 38.345 38.345h435.31c21.177 0 38.345-17.167 38.345-38.345v-49.931H0v49.931zM473.655 88.276H38.345C17.167 88.276 0 105.443 0 126.621v49.931h512v-49.931c0-21.178-17.167-38.345-38.345-38.345z" fill="#ff4b55"/><path fill="#f5f5f5" d="M0 176.55h512v158.9H0z"/><path d="M314.196 233.458l-56.036 22.873c-.022-.057-.049-.108-.075-.162l54.118-27.103a62.956 62.956 0 00-7.755-11.919l-46.657 38.585c-.046-.058-.073-.132-.126-.186l42.77-42.813a63.05 63.05 0 00-10.048-8.153l-33.113 50.686c-.075-.051-.142-.109-.224-.151l27.055-54.151a62.373 62.373 0 00-13.825-4.988l-13.749 58.966c-.174-.042-.341-.107-.53-.107s-.354.065-.53.107l-13.749-58.966a62.305 62.305 0 00-13.825 4.988l27.055 54.151c-.081.042-.149.1-.224.151l-33.113-50.686a63.116 63.116 0 00-10.048 8.153l42.77 42.813c-.052.054-.078.127-.126.186l-46.657-38.585a62.925 62.925 0 00-7.755 11.919l54.118 27.103c-.026.055-.053.106-.075.162l-56.036-22.873a62.403 62.403 0 00-3.721 13.035l59.658 10.329c-.008.052-.026.099-.031.152l-60.218-6.273a63.588 63.588 0 00-.329 6.463c0 3.774.351 7.463.989 11.052L256 261.818l61.847 6.398c.638-3.591.989-7.279.989-11.052 0-2.183-.113-4.338-.329-6.463l-60.219 6.273c-.004-.053-.023-.1-.031-.152l59.657-10.329a62.31 62.31 0 00-3.718-13.035z" fill="#ffb955"/><path d="M195.27 273.315a62.315 62.315 0 001.484 4.793h118.494a62.315 62.315 0 001.484-4.793c-5.805-.75-6.526-4.515-13.598-4.515-7.851 0-7.851 4.654-15.703 4.654-7.851 0-7.851-4.654-15.703-4.654-7.853 0-7.853 4.654-15.708 4.654-7.849 0-7.849-4.654-15.699-4.654-7.857 0-7.857 4.654-15.712 4.654-7.861 0-7.861-4.654-15.723-4.654-7.081 0-7.801 3.766-13.616 4.515zm106.012 11.776c-7.558-.001-7.559-4.654-15.118-4.654-7.561 0-7.561 4.654-15.122 4.654s-7.561-4.654-15.122-4.654c-7.563 0-7.563 4.654-15.125 4.654-7.559 0-7.559-4.654-15.117-4.654-7.565 0-7.565 4.654-15.13 4.654-6.712 0-7.484-3.652-12.846-4.482a62.576 62.576 0 004.558 9.137h107.481a62.628 62.628 0 004.567-9.16c-5.523.776-6.244 4.504-13.026 4.505zm6.01 8.349c-1.463-.767-3.196-1.367-5.903-1.367-7.561 0-7.561 4.654-15.122 4.654s-7.561-4.654-15.122-4.654c-7.563 0-7.563 4.654-15.125 4.654-7.559 0-7.559-4.654-15.117-4.654-7.565 0-7.565 4.654-15.13 4.654-7.571 0-7.571-4.654-15.14-4.654-2.717 0-4.454.602-5.92 1.372a63.246 63.246 0 006.653 7.938h89.271a63.308 63.308 0 006.655-7.943zm-12.571 13.193c-2.284-1.324-4.121-2.924-8.557-2.924-7.561 0-7.561 4.654-15.122 4.654s-7.561-4.654-15.122-4.654c-7.563 0-7.563 4.654-15.125 4.654-7.559 0-7.559-4.654-15.117-4.654-4.377 0-6.225 1.556-8.468 2.87a62.903 62.903 0 0010.014 6.44h57.551a62.897 62.897 0 009.946-6.386zm-53.818 8.713c-2.478 0-4.139.502-5.525 1.174A62.736 62.736 0 00256 320h.012c-7.551-.003-7.553-4.654-15.109-4.654zm15.153 4.653a62.704 62.704 0 0020.594-3.488c-1.382-.666-3.039-1.165-5.504-1.165-7.551 0-7.565 4.636-15.09 4.653z" fill="#4173cd"/><path d="M264.266 249.207l-19.912-5.754a2.63 2.63 0 01-1.906-2.494c-.092-7.373-.412-33.336-.412-37.323 0-4.654 4.654-11.636 13.964-11.636h7.34c.695 0 .905.946.266 1.219-3.362 1.441-7.605 4.444-7.605 10.417 0 7.092 6.753 10.132 9.971 11.178a2.395 2.395 0 011.666 2.282v29.578a2.64 2.64 0 01-3.372 2.533zm-17.564 26.048c.73-.442 1.596.296 1.267 1.084-1.949 4.679-6.726 13.407-15.243 13.407-11.636 0-13.964-9.309-13.964-16.291V224.09c0-1.014.822-1.835 1.835-1.835h3.311c1.014 0 1.835.822 1.835 1.835v47.038c.003 6.292 13.235 8.804 20.959 4.127zm17.619 0c-.73-.442-1.596.296-1.267 1.084 1.949 4.679 6.726 13.407 15.243 13.407 11.636 0 13.964-9.309 13.964-16.291V224.09a1.835 1.835 0 00-1.835-1.835h-3.311a1.835 1.835 0 00-1.835 1.835v47.038c-.002 6.292-13.235 8.804-20.959 4.127z" fill="#ff4b55"/><path d="M280.477 267.636h-48.953c-.62 0-1.123-.503-1.123-1.123v-.081c0-.62.503-1.123 1.123-1.123h48.953c.62 0 1.123.503 1.123 1.123v.081c0 .621-.503 1.123-1.123 1.123zm-45.132-8.785l2.52-3.36a1.165 1.165 0 00-.233-1.63 1.168 1.168 0 00-1.629.234l-.981 1.308v-.903a1.164 1.164 0 10-2.328 0v.819l-.917-1.223a1.164 1.164 0 10-1.862 1.396l2.52 3.36-2.52 3.36a1.165 1.165 0 00.929 1.862c.354 0 .703-.161.931-.466l2.112-2.817 2.112 2.817a1.16 1.16 0 001.627.234 1.164 1.164 0 00.233-1.63l-2.514-3.361zm21.721 0l2.52-3.36a1.165 1.165 0 00-.233-1.63 1.168 1.168 0 00-1.629.234l-.981 1.308v-.903a1.164 1.164 0 10-2.328 0v.819l-.917-1.223a1.164 1.164 0 10-1.862 1.396l2.52 3.36-2.52 3.36a1.165 1.165 0 00.929 1.862c.354 0 .703-.161.931-.466l2.112-2.817 2.112 2.817a1.16 1.16 0 001.627.234 1.164 1.164 0 00.233-1.63l-2.514-3.361zm-10.86 0l2.52-3.36a1.165 1.165 0 00-.233-1.63 1.168 1.168 0 00-1.629.234l-.981 1.308v-.903a1.164 1.164 0 10-2.328 0v.819l-.917-1.223a1.164 1.164 0 10-1.862 1.396l2.52 3.36-2.52 3.36a1.165 1.165 0 00.929 1.862c.354 0 .703-.161.931-.466l2.112-2.817 2.112 2.817a1.16 1.16 0 001.627.234 1.164 1.164 0 00.233-1.63l-2.514-3.361zm21.721 0l2.52-3.36a1.165 1.165 0 00-.233-1.63 1.168 1.168 0 00-1.629.234l-.981 1.308v-.903a1.164 1.164 0 10-2.328 0v.819l-.917-1.223a1.164 1.164 0 10-1.862 1.396l2.52 3.36-2.52 3.36a1.165 1.165 0 00.929 1.862c.354 0 .703-.161.931-.466l2.112-2.817 2.112 2.817a1.16 1.16 0 001.627.234 1.164 1.164 0 00.233-1.63l-2.514-3.361zm10.86 0l2.52-3.36a1.165 1.165 0 00-.233-1.63 1.168 1.168 0 00-1.629.234l-.981 1.308v-.903a1.164 1.164 0 10-2.328 0v.819l-.917-1.223a1.164 1.164 0 10-1.862 1.396l2.52 3.36-2.52 3.36a1.165 1.165 0 00.929 1.862c.354 0 .703-.161.931-.466l2.112-2.817 2.112 2.817a1.16 1.16 0 001.627.234 1.164 1.164 0 00.233-1.63l-2.514-3.361zm-45.591 15.973c1.721.753 11.832.861 14.413-1.828s2.044-3.872 2.044-3.872l-12.263.107-4.194 5.593zm45.116 0c-1.721.753-11.832.861-14.413-1.828s-2.044-3.872-2.044-3.872l12.263.107 4.194 5.593z" fill="#aa4650"/></svg>