<svg xmlns="http://www.w3.org/2000/svg" viewBox="0 0 512 512"><path d="M473.655 423.724H38.345C17.167 423.724 0 406.557 0 385.379V126.621c0-21.177 17.167-38.345 38.345-38.345h435.31c21.177 0 38.345 17.167 38.345 38.345V385.38c0 21.177-17.167 38.344-38.345 38.344z" fill="#f5f5f5"/><g fill="#ff4b55"><path d="M512 229.517H282.483V88.276h-52.966v141.241H0v52.966h229.517v141.241h52.966V282.483H512z"/><path d="M150.07 146.833c-8.744.879-17.31 1.76-25.888 2.642.882-8.579 1.762-17.145 2.643-25.888a93.961 93.961 0 01-24.129 0c.879 8.744 1.76 17.31 2.643 25.888-8.579-.881-17.146-1.762-25.888-2.642a93.954 93.954 0 010 24.128c8.744-.879 17.31-1.76 25.888-2.642-.882 8.579-1.763 17.145-2.643 25.888a93.961 93.961 0 0124.129 0c-.879-8.743-1.761-17.31-2.643-25.888 8.579.881 17.145 1.762 25.888 2.642a93.954 93.954 0 010-24.128zm282.482 0c-8.744.879-17.31 1.76-25.888 2.642.882-8.579 1.762-17.145 2.643-25.888a93.961 93.961 0 01-24.129 0c.879 8.744 1.76 17.31 2.643 25.888-8.579-.881-17.146-1.762-25.888-2.642a93.954 93.954 0 010 24.128c8.744-.879 17.31-1.76 25.888-2.642-.882 8.579-1.763 17.145-2.643 25.888a93.961 93.961 0 0124.129 0c-.879-8.743-1.761-17.31-2.643-25.888 8.579.881 17.145 1.762 25.888 2.642a94.044 94.044 0 010-24.128zM150.07 341.039c-8.744.879-17.31 1.76-25.888 2.642.882-8.579 1.762-17.145 2.643-25.888a93.961 93.961 0 01-24.129 0c.879 8.743 1.76 17.31 2.643 25.888-8.579-.881-17.146-1.762-25.888-2.642a93.954 93.954 0 010 24.128c8.744-.879 17.31-1.76 25.888-2.642-.882 8.579-1.763 17.145-2.643 25.888a93.961 93.961 0 0124.129 0c-.879-8.743-1.761-17.31-2.643-25.888 8.579.881 17.145 1.762 25.888 2.642a93.954 93.954 0 010-24.128zm282.482 0c-8.744.879-17.31 1.76-25.888 2.642.882-8.579 1.762-17.145 2.643-25.888a93.961 93.961 0 01-24.129 0c.879 8.743 1.76 17.31 2.643 25.888-8.579-.881-17.146-1.762-25.888-2.642a93.954 93.954 0 010 24.128c8.744-.879 17.31-1.76 25.888-2.642-.882 8.579-1.763 17.145-2.643 25.888a93.961 93.961 0 0124.129 0c-.879-8.743-1.761-17.31-2.643-25.888 8.579.881 17.145 1.762 25.888 2.642a94.044 94.044 0 010-24.128z"/></g></svg>