<svg xmlns="http://www.w3.org/2000/svg" viewBox="0 0 512 512"><path d="M473.655 423.724H38.345C17.167 423.724 0 406.557 0 385.379V126.621c0-21.177 17.167-38.345 38.345-38.345h435.31c21.177 0 38.345 17.167 38.345 38.345V385.38c0 21.177-17.167 38.344-38.345 38.344z" fill="#f5f5f5"/><path d="M0 385.379c0 21.177 17.167 38.345 38.345 38.345h435.31c21.165 0 38.324-17.148 38.344-38.307v-76.451H0v76.413zm353.102-173.517v-17.655h-17.655v-44.138h8.828v-17.655h-52.966v17.655h8.828v44.138h-26.483v-61.793h8.828v-17.655h-52.966v17.655h8.828v61.793h-26.483v-44.138h8.828v-17.655h-52.966v17.655h8.828v44.138h-17.656v17.655h8.828v70.621h-8.828v17.655h194.207v-17.655h-8.827v-70.621z" fill="#ff4b55"/><path d="M273.654 291.31h-35.31V256c0-9.751 7.904-17.655 17.655-17.655 9.751 0 17.655 7.904 17.655 17.655v35.31zm-17.655-123.586a8.829 8.829 0 00-8.828 8.828v26.483h17.655v-26.483a8.827 8.827 0 00-8.827-8.828zm61.793 8.828a8.829 8.829 0 00-8.828 8.828v17.655h17.655V185.38a8.826 8.826 0 00-8.827-8.828zm-123.586 0a8.829 8.829 0 00-8.828 8.828v17.655h17.655V185.38a8.827 8.827 0 00-8.827-8.828zM326.62 291.31h-35.31v-26.483c0-9.751 7.904-17.655 17.655-17.655 9.751 0 17.655 7.904 17.655 17.655v26.483zm-105.931 0h-35.31v-26.483c0-9.751 7.904-17.655 17.655-17.655 9.751 0 17.655 7.904 17.655 17.655v26.483z" fill="#464655"/><path d="M280.275 322.207a4.414 4.414 0 00-1.965-3.672l-17.897-11.932v-3.737l15.215-7.608a4.413 4.413 0 001.974-5.922 4.41 4.41 0 00-5.922-1.974l-15.681 7.84-15.681-7.84a4.412 4.412 0 00-5.922 1.974 4.413 4.413 0 001.974 5.922l15.215 7.608v3.737l-17.897 11.932a4.415 4.415 0 000 7.344l17.897 11.932v37.362H233.93v6.759a4.411 4.411 0 004.414 4.414 4.413 4.413 0 003.901-2.345h9.341v8.828h-9.418a4.41 4.41 0 00-3.823-2.207 4.411 4.411 0 00-4.414 4.414v6.621h17.655v4.414c0 2.44 1.974 4.414 4.414 4.414s4.414-1.974 4.414-4.414v-68.259l17.897-11.932a4.42 4.42 0 001.964-3.673zm-24.276 7.935l-11.905-7.935 11.905-7.935 11.905 7.935-11.905 7.935z" fill="#ffe15a"/></svg>