<svg xmlns="http://www.w3.org/2000/svg" viewBox="0 0 512 512"><path d="M473.655 423.724H38.345C17.167 423.724 0 406.557 0 385.379V126.621c0-21.177 17.167-38.345 38.345-38.345h435.31c21.177 0 38.345 17.167 38.345 38.345V385.38c0 21.177-17.167 38.344-38.345 38.344z" fill="#ff4b55"/><path d="M459.034 141.241v229.517H52.966V141.241h406.068" fill="#ffe15a"/><path d="M52.966 141.241L256 256 52.966 370.759zm406.068 0L256 256l203.034 114.759z" fill="#73af00"/><circle cx="256" cy="256" r="35.31" fill="#ff4b55"/><path d="M258.231 230.127l5.523 16.558 17.454.136c2.26.018 3.197 2.901 1.379 4.244l-14.041 10.369 5.266 16.642c.682 2.155-1.771 3.937-3.61 2.623L256 270.55l-14.2 10.151c-1.838 1.314-4.291-.468-3.61-2.623l5.266-16.642-14.041-10.369c-1.818-1.343-.881-4.226 1.379-4.244l17.454-.136 5.523-16.558c.713-2.146 3.745-2.146 4.46-.002zm-.912-130.135l3.263 9.783 10.313.079c1.335.01 1.889 1.715.814 2.507l-8.297 6.126 3.111 9.833c.403 1.273-1.047 2.326-2.133 1.549l-8.39-5.995-8.391 5.997c-1.086.777-2.536-.277-2.133-1.549l3.111-9.833-8.297-6.126c-1.074-.793-.521-2.497.814-2.507l10.313-.079 3.263-9.783c.424-1.268 2.216-1.268 2.639-.002zm116.138 0l3.263 9.783 10.313.079c1.335.01 1.889 1.715.814 2.507l-8.297 6.126 3.111 9.833c.403 1.273-1.047 2.326-2.133 1.549l-8.391-5.997-8.391 5.997c-1.086.777-2.536-.277-2.133-1.549l3.111-9.833-8.297-6.126c-1.074-.793-.521-2.497.814-2.507l10.313-.079 3.263-9.783c.426-1.266 2.217-1.266 2.64 0zm-232.276 0l3.263 9.783 10.313.079c1.335.01 1.889 1.715.814 2.507l-8.297 6.126 3.111 9.833c.403 1.273-1.047 2.326-2.133 1.549l-8.391-5.997-8.391 5.997c-1.086.777-2.536-.277-2.133-1.549l3.111-9.833-8.297-6.126c-1.074-.793-.521-2.497.814-2.507l10.313-.079 3.263-9.783c.425-1.266 2.217-1.266 2.64 0zm116.138 282.001l3.263 9.783 10.313.079c1.335.01 1.889 1.715.814 2.507l-8.297 6.126 3.111 9.833c.403 1.273-1.047 2.326-2.133 1.549l-8.39-5.995-8.391 5.997c-1.086.777-2.536-.277-2.133-1.549l3.111-9.833-8.297-6.126c-1.074-.793-.521-2.497.814-2.507l10.313-.079 3.263-9.783c.424-1.269 2.216-1.269 2.639-.002zm116.138 0l3.263 9.783 10.313.079c1.335.01 1.889 1.715.814 2.507l-8.297 6.126 3.111 9.833c.403 1.273-1.047 2.326-2.133 1.549l-8.391-5.997-8.391 5.997c-1.086.777-2.536-.277-2.133-1.549l3.111-9.833-8.297-6.126c-1.074-.793-.521-2.497.814-2.507l10.313-.079 3.263-9.783c.426-1.267 2.217-1.267 2.64 0zm-232.276 0l3.263 9.783 10.313.079c1.335.01 1.889 1.715.814 2.507l-8.297 6.126 3.111 9.833c.403 1.273-1.047 2.326-2.133 1.549l-8.391-5.997-8.391 5.997c-1.086.777-2.536-.277-2.133-1.549l3.111-9.833-8.297-6.126c-1.074-.793-.521-2.497.814-2.507l10.313-.079 3.263-9.783c.425-1.267 2.217-1.267 2.64 0zm-23.112-148.062H96V256c0 12.189 9.88 22.069 22.069 22.069s22.069-9.88 22.069-22.069-9.88-22.069-22.069-22.069z" fill="#ffe15a"/><path fill="#ff4b55" d="M140.138 278.069l-12.131-2.351L118.069 256l19.717 9.938z"/></svg>