<svg xmlns="http://www.w3.org/2000/svg" viewBox="0 0 512 512"><path d="M473.655 423.723H38.345C17.167 423.723 0 406.556 0 385.378V126.62c0-21.177 17.167-38.345 38.345-38.345h435.31c21.177 0 38.345 17.167 38.345 38.345v258.759c0 21.177-17.167 38.344-38.345 38.344z" fill="#41479b"/><path d="M256.057 167.723c-33.549 17.651-56.175 59.69-56.175 88.276s22.626 70.626 56.175 88.276c33.549-17.651 56.175-59.69 56.175-88.276s-22.625-70.626-56.175-88.276z" fill="#3cc8ff"/><path d="M263.302 225.772c5.42-2.857 14.674-6.001 25.19-2.142 0 0-10.127-11.281-24.181-2.09 3.781-4.585 9.459-10.261 15.608-11.842 0 0-12.237-4.57-19.641 11.75 1.434-8.231 1.173-21.191-12.094-28.714 0 0 7.419 15.919 8.147 29.129-.431-2.344-1.294-4.794-3.572-7.17-7.015-7.319-13.114-7.929-13.114-7.929s9.726 10.778 14.505 20.975c-2.753-3.294-7.605-7.512-15.42-7.252-18.3.61-22.264 11.59-22.264 11.59 7.586-3.194 19.625-4.785 28.958-3.996-12.049 2.123-16.33 17.134-16.33 17.134 9.675-12.064 20.235-14.024 24.451-14.311-7.702 6.371-7.233 18.104-7.233 18.104 1.79-6.605 8.724-14.133 12.103-17.507 9.098 9.843 10.175 20.907 10.175 20.907s1.991-3.329 1.073-10.104c-.868-6.396-4.882-10.595-7.945-13.062 16.064 2.214 26.546 13.866 26.546 13.866-5.256-15.335-18.409-17.331-24.962-17.336z" fill="#73af00"/><path d="M473.655 88.275H38.345c-20.482 0-37.21 16.06-38.287 36.273v262.903c1.077 20.214 17.805 36.273 38.287 36.273h435.31c21.177 0 38.345-17.167 38.345-38.345V126.62c0-21.178-17.167-38.345-38.345-38.345zm20.748 317.793H17.714V105.93h476.69l-.001 300.138z" fill="#ff4b55"/><path fill="#ff965a" d="M238.126 277.332l8.093-13.976 66.483-1.472-4.414 18.391z"/><path d="M202.307 273.654c6.664 26.153 26.631 56.353 53.75 70.621 27.119-14.268 47.086-44.468 53.75-70.621h-107.5z" fill="#4173cd"/><path d="M211.919 300.137s19.255-.953 30.823 3.797c2.89 1.186 3.264 5.09.654 6.807-5.635 3.708-13.822 10.09-13.822 15.88l-17.655-26.484zm33.84 35.31c-.736-7.357 5.773-12.707 14.712-16.184 11.586-4.505 5.241-11.678-.552-16.367-6.909-5.592 2.023-7.172 39.54-7.908l-18.391 28.69-25.011 20.598-10.298-8.829z" fill="#ffe15a"/><path d="M256.057 349.267l-2.056-1.086c-35.014-18.414-58.535-62.535-58.535-92.181s23.521-73.768 58.535-92.181l2.056-1.086 2.056 1.086c35.012 18.414 58.535 62.535 58.535 92.181s-23.521 73.768-58.535 92.181l-2.056 1.086zm0-176.518c-31.057 17.535-51.763 56.759-51.763 83.25s20.707 65.716 51.763 83.25c31.057-17.535 51.763-56.759 51.763-83.25s-20.706-65.716-51.763-83.25z" fill="#ff4b55"/><g fill="#a54b37"><path d="M274.816 306.388c-.405 0-.81-.108-1.173-.337-11.996-7.539-18.874-20.018-18.874-34.237v-40.642a2.207 2.207 0 114.414 0v40.642c0 12.668 6.125 23.785 16.806 30.496a2.208 2.208 0 01-1.173 4.078z"/><circle cx="256.98" cy="231.309" r="4.828"/></g></svg>