<svg xmlns="http://www.w3.org/2000/svg" viewBox="0 0 512 512"><path d="M473.885 88.279H38.115C17.045 88.403 0 105.517 0 126.617v129.385h512V126.617c0-21.1-17.045-38.214-38.115-38.338z" fill="#ffe15a"/><path d="M0 385.376c0 21.177 17.167 38.345 38.345 38.345h435.31c21.177 0 38.345-17.167 38.345-38.345V256.003H0v129.373z" fill="#73af00"/><path d="M38.345 423.721h129.379V88.279H38.115C17.045 88.403 0 105.517 0 126.617v258.759c0 21.177 17.167 38.345 38.345 38.345z" fill="#ff4b55"/><path d="M82.197 211.962l-9.731 29.18-30.759.238c-1.686.013-2.386 2.165-1.028 3.167l24.744 18.272-9.278 29.326c-.509 1.608 1.322 2.937 2.694 1.958l25.024-17.887 25.024 17.887c1.372.981 3.202-.35 2.694-1.958l-9.278-29.326 24.744-18.272c1.356-1.002.658-3.154-1.028-3.167l-30.759-.238-9.731-29.18c-.536-1.6-2.798-1.6-3.332 0z" fill="#464655"/></svg>