<svg xmlns="http://www.w3.org/2000/svg" viewBox="0 0 512 512"><path d="M473.7 88.3H38.3C17.2 88.3 0 105.4 0 126.6v258.8c0 21.2 17.2 38.3 38.3 38.3h435.3c21.2 0 38.3-17.2 38.3-38.3V126.6c.1-21.2-17.1-38.3-38.2-38.3z" fill="#f5f5f5"/><path d="M0 130.2h512v41.9H0v-41.9zm11 117H0v50.7h512V256H23.8L11 247.2zM0 385.4c0 21.2 17.2 38.3 38.3 38.3h435.3c21.2 0 38.3-17.2 38.3-38.3v-3.6H0v3.6z" fill="#ff4b55"/><g fill="#41479b"><path d="M0 172.1h512V214H0v-41.9zm0 125.8h512v41.9H0v-41.9z"/><path d="M8.8 256h238.3c4.9 0 8.8-4 8.8-8.8V97.1c0-4.9-4-8.8-8.8-8.8H38.3C17.2 88.3 0 105.4 0 126.6v120.6c0 4.8 4 8.8 8.8 8.8z"/></g><path d="M8.8 256h15.3l81.8-53.6V256H150v-53.6l81.8 53.6h15.3c4.9 0 8.9-3.8 8.9-8.6l-.1-7.2-70.2-46H256v-44.1h-70.2l70.2-46 .1-6.9c0-5.2-4-8.9-8.9-8.9h-15.3l-81.8 53.6V88.3H106v53.6L26.8 90c-9.2 2.9-17 9.2-21.7 17.4l65 42.6H0v44.1h70.2L0 240.2v7c0 4.8 4 8.8 8.8 8.8z" fill="#f5f5f5"/><g fill="#ff4b55"><path d="M256 158.9H141.2V88.3h-26.4v70.6H0v26.5h114.8V256h26.4v-70.6H256z"/><path d="M8.2 102.9l72.7 47.2h16.2L14.6 96.5c-2.4 1.9-4.5 4-6.4 6.4zm158.1 47.2l88.5-57.5c-1.5-2.6-4.3-4.3-7.6-4.3h-1.9l-95.2 61.8h16.2zm-76.8 44.1L1.1 251.6c1.5 2.7 4.4 4.5 7.7 4.5l1.7-.1 95.2-61.8H89.5zm166.4 53.7l-82.7-53.7H157l93.9 60.9c2.8-1.3 4.7-4 5-7.2z"/></g></svg>