<svg xmlns="http://www.w3.org/2000/svg" viewBox="0 0 512 512"><path d="M473.655 88.276H38.345C17.167 88.276 0 105.443 0 126.621v73.471h512v-73.471c0-21.178-17.167-38.345-38.345-38.345zM0 385.379c0 21.177 17.167 38.345 38.345 38.345h435.31c21.177 0 38.345-17.167 38.345-38.345v-73.471H0v73.471z" fill="#4173cd"/><path fill="#f5f5f5" d="M0 200.09h512V311.9H0z"/><path d="M257.277 241.579l3.159 9.473 9.985.077c1.293.01 1.828 1.66.789 2.428l-8.033 5.932 3.012 9.521c.389 1.233-1.013 2.252-2.066 1.501L256 264.703l-8.124 5.806c-1.052.751-2.455-.268-2.066-1.501l3.012-9.521-8.033-5.932c-1.039-.768-.504-2.418.789-2.428l9.985-.077 3.159-9.473c.411-1.225 2.145-1.225 2.555.002zm-90.173 25.423l3.159 9.473 9.985.077c1.293.01 1.828 1.66.789 2.428l-8.033 5.932 3.012 9.521c.39 1.233-1.013 2.252-2.066 1.501l-8.124-5.806-8.124 5.806c-1.052.751-2.455-.268-2.066-1.501l3.012-9.521-8.033-5.932c-1.041-.768-.504-2.418.789-2.428l9.985-.077 3.159-9.473c.412-1.227 2.147-1.227 2.556 0zm0-50.846l3.159 9.473 9.985.077c1.293.01 1.828 1.66.789 2.428l-8.033 5.932 3.012 9.521c.39 1.233-1.013 2.252-2.066 1.501l-8.124-5.806-8.124 5.806c-1.052.751-2.455-.268-2.066-1.501l3.012-9.521-8.033-5.932c-1.041-.768-.504-2.418.789-2.428l9.985-.077 3.159-9.473c.412-1.227 2.147-1.227 2.556 0zm180.344 50.846l3.159 9.473 9.985.077c1.293.01 1.828 1.66.789 2.428l-8.033 5.932 3.012 9.521c.389 1.233-1.013 2.252-2.066 1.501l-8.124-5.806-8.124 5.806c-1.052.751-2.455-.268-2.066-1.501l3.012-9.521-8.033-5.932c-1.041-.768-.504-2.418.789-2.428l9.985-.077 3.159-9.473c.413-1.227 2.148-1.227 2.556 0zm0-50.846l3.159 9.473 9.985.077c1.293.01 1.828 1.66.789 2.428l-8.033 5.932 3.012 9.521c.389 1.233-1.013 2.252-2.066 1.501l-8.124-5.806-8.124 5.806c-1.052.751-2.455-.268-2.066-1.501l3.012-9.521-8.033-5.932c-1.041-.768-.504-2.418.789-2.428l9.985-.077 3.159-9.473c.413-1.227 2.148-1.227 2.556 0z" fill="#4173cd"/></svg>