<svg xmlns="http://www.w3.org/2000/svg" viewBox="0 0 512 512"><path d="M473.655 88.276H38.345C17.167 88.276 0 105.443 0 126.621v73.471h512v-73.471c0-21.178-17.167-38.345-38.345-38.345z" fill="#fab446"/><path d="M0 385.379c0 21.177 17.167 38.345 38.345 38.345h435.31c21.177 0 38.345-17.167 38.345-38.345v-73.471H0v73.471z" fill="#73af00"/><path fill="#f5f5f5" d="M0 200.09h512V311.9H0z"/><g fill="#41479b"><path d="M256 303.448c-26.164 0-47.448-21.284-47.448-47.448s21.284-47.448 47.448-47.448 47.448 21.284 47.448 47.448-21.284 47.448-47.448 47.448zm0-86.069c-21.298 0-38.621 17.323-38.621 38.621s17.323 38.621 38.621 38.621 38.621-17.323 38.621-38.621-17.323-38.621-38.621-38.621z"/><circle cx="256" cy="256" r="5.379"/><path d="M256 256.807l-13.67 1.38-29.364-1.38v-1.614l29.364-1.38 13.67 1.38zm0 0l13.67 1.38 29.364-1.38v-1.614l-29.364-1.38-13.67 1.38z"/><path d="M255.193 256l-1.38-13.67 1.38-29.364h1.614l1.38 29.364-1.38 13.67zm0 0l-1.38 13.67 1.38 29.364h1.614l1.38-29.364-1.38-13.67z"/><path d="M255.43 256.57l-10.642-8.689L225 226.141l1.141-1.141 21.74 19.788 8.689 10.642z"/><path d="M255.43 256.57l8.689 10.642L285.859 287l1.141-1.141-19.788-21.74-10.642-8.689z"/><path d="M255.43 255.43l8.689-10.642L285.859 225l1.141 1.141-19.788 21.74-10.642 8.689z"/><path d="M255.43 255.43l-10.642 8.689L225 285.859l1.141 1.141 21.74-19.788 8.689-10.642z"/><path d="M256.309 256.746l-12.102 6.506-27.656 9.962-.618-1.491 26.601-12.512 13.157-3.957z"/><path d="M256.309 256.746l13.157-3.957 26.601-12.512-.618-1.491-27.656 9.962-12.102 6.506z"/><path d="M255.254 256.309l-6.506-12.102-9.962-27.656 1.491-.618 12.512 26.601 3.957 13.157z"/><path d="M255.254 256.309l3.957 13.157 12.512 26.601 1.491-.618-9.962-27.656-6.506-12.102z"/><path d="M255.691 256.746l-13.157-3.957-26.601-12.512.618-1.491 27.656 9.962 12.102 6.506zm0 0l12.102 6.506 27.656 9.962.618-1.491-26.601-12.512-13.157-3.957z"/><path d="M255.254 255.691l3.957-13.157 12.512-26.601 1.491.618-9.962 27.656-6.506 12.102zm0 0l-6.506 12.102-9.962 27.656 1.491.618 12.512-26.601 3.957-13.157z"/></g><circle cx="256" cy="256" r="7.256" fill="#f5f5f5"/><circle cx="256" cy="256" r="4.351" fill="#41479b"/></svg>