<svg xmlns="http://www.w3.org/2000/svg" viewBox="0 0 512.001 512.001"><path d="M473.655 88.276H38.345C17.167 88.276 0 105.444 0 126.621v73.471h512v-73.471c0-21.177-17.167-38.345-38.345-38.345z" fill="#73af00"/><path d="M0 385.38c0 21.177 17.167 38.345 38.345 38.345h435.31c21.177 0 38.345-17.167 38.345-38.345v-73.471H0v73.471z" fill="#ff4b55"/><g fill="#f5f5f5"><path d="M0 200.089h512v111.81H0zm1.388-5.913h.078c.767 0 1.389-.621 1.389-1.388v-3.008c0-.767.621-1.388 1.389-1.388h5.827c.767 0 1.389.621 1.389 1.388v3.008c0 .767.621 1.388 1.389 1.388h11.502c.767 0 1.388-.621 1.388-1.388v-5.939c0-.767-.621-1.388-1.388-1.388h-5.79c-.767 0-1.388.621-1.388 1.388v.153c0 .767.621 1.388 1.388 1.388h2.935c.767 0 1.389.621 1.389 1.388v.151c0 .767-.621 1.388-1.389 1.388h-5.792a1.388 1.388 0 01-1.389-1.388v-3.081c0-.767-.622-1.388-1.389-1.388H1.388c-.767 0-1.388.621-1.388 1.388v5.939c0 .766.621 1.389 1.388 1.389zm5.749 0h.079c.767 0 1.388-.621 1.388-1.388v-.079c0-.767-.621-1.388-1.388-1.388h-.079c-.767 0-1.389.622-1.389 1.388v.079a1.39 1.39 0 001.389 1.388zm-5.749-11.645h34.423c.767 0 1.389-.621 1.389-1.388v-.152c0-.767-.621-1.388-1.389-1.388H1.388c-.767 0-1.388.621-1.388 1.388v.152c0 .767.621 1.388 1.388 1.388zm34.423 11.645h-5.79a1.388 1.388 0 01-1.389-1.388v-5.939c0-.767.621-1.388 1.389-1.388h8.647c.767 0 1.389-.622 1.389-1.388v-3.081c0-.767.621-1.388 1.388-1.388h.077c.767 0 1.389.621 1.389 1.388v8.94c0 .767.621 1.388 1.388 1.388h.079c.767 0 1.388-.621 1.388-1.388v-8.94c0-.767.621-1.388 1.388-1.388h.077c.767 0 1.389.621 1.389 1.388v8.94c0 .767.621 1.388 1.388 1.388h.115c.767 0 1.389-.621 1.389-1.388v-8.94c0-.767.621-1.388 1.388-1.388h.042c.767 0 1.388.621 1.388 1.388v11.797c0 .767-.621 1.388-1.388 1.388H41.447a1.387 1.387 0 01-1.388-1.388v-3.008c0-.767-.621-1.388-1.389-1.388h-5.79c-.767 0-1.389.621-1.389 1.388v.151c0 .767.621 1.388 1.389 1.388h2.933c.767 0 1.389.622 1.389 1.388v.079a1.392 1.392 0 01-1.391 1.389zm22.807 0h.115c.767 0 1.389-.621 1.389-1.388v-3.008c0-.767.621-1.388 1.388-1.388h5.754c.767 0 1.389.621 1.389 1.388v3.008c0 .767.621 1.388 1.388 1.388h11.502c.767 0 1.388-.621 1.388-1.388v-5.939c0-.767-.621-1.388-1.388-1.388h-5.79c-.767 0-1.389.621-1.389 1.388v.153c0 .767.621 1.388 1.389 1.388h2.935c.767 0 1.388.621 1.388 1.388v.151c0 .767-.621 1.388-1.388 1.388h-5.792a1.387 1.387 0 01-1.388-1.388v-3.081c0-.767-.621-1.388-1.388-1.388H58.618c-.767 0-1.388.621-1.388 1.388v5.939a1.39 1.39 0 001.388 1.389zm5.713 0h.078c.767 0 1.388-.621 1.388-1.388v-.079c0-.767-.621-1.388-1.388-1.388h-.078c-.767 0-1.388.622-1.388 1.388v.079c0 .765.621 1.388 1.388 1.388zm-5.713-11.645h34.387c.767 0 1.389-.621 1.389-1.388v-.152c0-.767-.621-1.388-1.389-1.388H58.618c-.767 0-1.388.621-1.388 1.388v.152c0 .767.622 1.388 1.388 1.388zm34.388 11.645h-5.827a1.388 1.388 0 01-1.389-1.388v-5.939c0-.767.621-1.388 1.389-1.388h8.648c.767 0 1.388-.622 1.388-1.388v-3.081c0-.767.621-1.388 1.389-1.388h.115c.767 0 1.388.621 1.388 1.388v8.94c0 .767.621 1.388 1.389 1.388h.115c.767 0 1.389-.621 1.389-1.388v-8.94c0-.767.621-1.388 1.389-1.388h.042c.767 0 1.388.621 1.388 1.388v8.94c0 .767.621 1.388 1.389 1.388h.115c.767 0 1.389-.621 1.389-1.388v-8.94c0-.767.621-1.388 1.388-1.388h.078c.767 0 1.388.621 1.388 1.388v11.797c0 .767-.621 1.388-1.388 1.388H98.604a1.388 1.388 0 01-1.389-1.388v-3.008c0-.767-.621-1.388-1.388-1.388h-5.754c-.767 0-1.388.621-1.388 1.388v.151c0 .767.621 1.388 1.388 1.388h2.935c.767 0 1.389.622 1.389 1.388v.079a1.393 1.393 0 01-1.391 1.389zm22.808 0h.077c.767 0 1.388-.621 1.388-1.388v-3.008c0-.767.621-1.388 1.388-1.388h5.792c.767 0 1.388.621 1.388 1.388v3.008c0 .767.622 1.388 1.389 1.388h11.538c.767 0 1.389-.621 1.389-1.388v-5.939c0-.767-.621-1.388-1.389-1.388h-5.79c-.767 0-1.389.621-1.389 1.388v.153c0 .767.621 1.388 1.389 1.388h2.935c.767 0 1.389.621 1.389 1.388v.151c0 .767-.621 1.388-1.389 1.388h-5.827a1.387 1.387 0 01-1.388-1.388v-3.081c0-.767-.621-1.388-1.388-1.388h-11.502c-.767 0-1.388.621-1.388 1.388v5.939a1.388 1.388 0 001.388 1.389zm5.712 0h.078c.767 0 1.388-.621 1.388-1.388v-.079c0-.767-.621-1.388-1.388-1.388h-.078c-.767 0-1.388.622-1.388 1.388v.079a1.388 1.388 0 001.388 1.388zm-5.712-11.645h34.424c.767 0 1.389-.621 1.389-1.388v-.152c0-.767-.621-1.388-1.389-1.388h-34.424c-.767 0-1.388.621-1.388 1.388v.152a1.386 1.386 0 001.388 1.388zm34.424 11.645h-5.827a1.388 1.388 0 01-1.389-1.388v-5.939c0-.767.621-1.388 1.389-1.388h8.646c.767 0 1.388-.622 1.388-1.388v-3.081c0-.767.622-1.388 1.389-1.388h.079c.767 0 1.388.621 1.388 1.388v8.94c0 .767.622 1.388 1.389 1.388h.115c.767 0 1.389-.621 1.389-1.388v-8.94c0-.767.621-1.388 1.388-1.388h.116c.767 0 1.388.621 1.388 1.388v8.94c0 .767.622 1.388 1.388 1.388h.042c.767 0 1.389-.621 1.389-1.388v-8.94c0-.767.621-1.388 1.388-1.388h.078c.767 0 1.388.621 1.388 1.388v11.797c0 .767-.622 1.388-1.388 1.388h-11.54a1.388 1.388 0 01-1.389-1.388v-3.008c0-.767-.621-1.388-1.388-1.388h-5.79c-.767 0-1.389.621-1.389 1.388v.151c0 .767.621 1.388 1.389 1.388h2.973c.767 0 1.389.622 1.389 1.388v.079a1.388 1.388 0 01-1.388 1.389zm22.769 0h.077c.767 0 1.388-.621 1.388-1.388v-3.008c0-.767.622-1.388 1.388-1.388h5.79c.767 0 1.389.621 1.389 1.388v3.008c0 .767.621 1.388 1.389 1.388h11.54c.767 0 1.388-.621 1.388-1.388v-5.939c0-.767-.621-1.388-1.388-1.388h-5.827c-.767 0-1.389.621-1.389 1.388v.153c0 .767.622 1.388 1.389 1.388h2.935c.767 0 1.388.621 1.388 1.388v.151c0 .767-.621 1.388-1.388 1.388h-5.79a1.387 1.387 0 01-1.388-1.388v-3.081c0-.767-.622-1.388-1.389-1.388h-11.502c-.767 0-1.389.621-1.389 1.388v5.939a1.391 1.391 0 001.389 1.389zm5.713 0h.077c.767 0 1.388-.621 1.388-1.388v-.079c0-.767-.621-1.388-1.388-1.388h-.077c-.767 0-1.389.622-1.389 1.388v.079a1.39 1.39 0 001.389 1.388zm-5.713-11.645h34.387c.767 0 1.388-.621 1.388-1.388v-.152c0-.767-.621-1.388-1.388-1.388h-34.387c-.767 0-1.389.621-1.389 1.388v.152a1.39 1.39 0 001.389 1.388zm34.388 11.645h-5.827a1.387 1.387 0 01-1.388-1.388v-5.939c0-.767.621-1.388 1.388-1.388h8.721c.767 0 1.389-.622 1.389-1.388v-3.081c0-.767.621-1.388 1.388-1.388h.078c.767 0 1.388.621 1.388 1.388v8.94c0 .767.621 1.388 1.388 1.388h.042c.767 0 1.389-.621 1.389-1.388v-8.94c0-.767.621-1.388 1.388-1.388h.116c.767 0 1.388.621 1.388 1.388v8.94c0 .767.621 1.388 1.388 1.388h.079c.767 0 1.388-.621 1.388-1.388v-8.94c0-.767.622-1.388 1.389-1.388h.077c.767 0 1.388.621 1.388 1.388v11.797c0 .767-.621 1.388-1.388 1.388h-11.501a1.387 1.387 0 01-1.388-1.388v-3.008c0-.767-.621-1.388-1.389-1.388h-5.827c-.767 0-1.389.621-1.389 1.388v.151c0 .767.622 1.388 1.389 1.388h2.935c.767 0 1.388.622 1.388 1.388v.079a1.387 1.387 0 01-1.387 1.389zm22.805 0h.079c.767 0 1.388-.621 1.388-1.388v-3.008c0-.767.621-1.388 1.388-1.388h5.79c.767 0 1.388.621 1.388 1.388v3.008c0 .767.622 1.388 1.389 1.388h11.54c.767 0 1.388-.621 1.388-1.388v-5.939c0-.767-.621-1.388-1.388-1.388h-5.827c-.767 0-1.389.621-1.389 1.388v.153c0 .767.622 1.388 1.389 1.388h2.97c.767 0 1.388.621 1.388 1.388v.151c0 .767-.622 1.388-1.388 1.388h-5.79a1.387 1.387 0 01-1.388-1.388v-3.081c0-.767-.621-1.388-1.389-1.388h-11.54c-.767 0-1.389.621-1.389 1.388v5.939a1.393 1.393 0 001.391 1.389zm5.75 0h.042c.767 0 1.389-.621 1.389-1.388v-.079c0-.767-.622-1.388-1.389-1.388h-.042c-.767 0-1.388.622-1.388 1.388v.079a1.388 1.388 0 001.388 1.388zm-5.75-11.645h34.425c.767 0 1.388-.621 1.388-1.388v-.152c0-.767-.622-1.388-1.388-1.388H230.2c-.767 0-1.389.621-1.389 1.388v.152a1.389 1.389 0 001.389 1.388zm34.426 11.645h-5.827a1.387 1.387 0 01-1.388-1.388v-5.939c0-.767.621-1.388 1.388-1.388h8.684c.767 0 1.388-.622 1.388-1.388v-3.081c0-.767.622-1.388 1.389-1.388h.077c.767 0 1.388.621 1.388 1.388v8.94c0 .767.622 1.388 1.388 1.388h.079c.767 0 1.388-.621 1.388-1.388v-8.94c0-.767.622-1.388 1.389-1.388h.077c.767 0 1.388.621 1.388 1.388v8.94c0 .767.622 1.388 1.388 1.388h.077c.767 0 1.388-.621 1.388-1.388v-8.94c0-.767.622-1.388 1.389-1.388h.079c.767 0 1.389.621 1.389 1.388v11.797c0 .767-.622 1.388-1.389 1.388h-11.502a1.388 1.388 0 01-1.389-1.388v-3.008c0-.767-.621-1.388-1.388-1.388h-5.827c-.767 0-1.389.621-1.389 1.388v.151c0 .767.622 1.388 1.389 1.388h2.97c.767 0 1.388.622 1.388 1.388v.079a1.379 1.379 0 01-1.381 1.389zm22.769 0h.079c.767 0 1.389-.621 1.389-1.388v-3.008c0-.767.621-1.388 1.389-1.388h5.79c.767 0 1.389.621 1.389 1.388v3.008c0 .767.622 1.388 1.388 1.388h11.54c.767 0 1.389-.621 1.389-1.388v-5.939c0-.767-.621-1.388-1.389-1.388h-5.792c-.767 0-1.388.621-1.388 1.388v.153c0 .767.621 1.388 1.388 1.388h2.9c.767 0 1.389.621 1.389 1.388v.151c0 .767-.622 1.388-1.389 1.388h-5.754a1.388 1.388 0 01-1.389-1.388v-3.081c0-.767-.621-1.388-1.388-1.388h-11.54c-.767 0-1.389.621-1.389 1.388v5.939a1.388 1.388 0 001.388 1.389zm5.749 0h.042c.767 0 1.389-.621 1.389-1.388v-.079c0-.767-.622-1.388-1.389-1.388h-.042c-.767 0-1.388.622-1.388 1.388v.079c0 .765.621 1.388 1.388 1.388zm-5.749-11.645h34.425c.767 0 1.388-.621 1.388-1.388v-.152c0-.767-.622-1.388-1.388-1.388h-34.425c-.767 0-1.389.621-1.389 1.388v.152c0 .767.622 1.388 1.389 1.388zm34.425 11.645h-5.79a1.387 1.387 0 01-1.388-1.388v-5.939c0-.767.621-1.388 1.388-1.388h8.646c.767 0 1.388-.622 1.388-1.388v-3.081c0-.767.622-1.388 1.389-1.388h.079c.767 0 1.388.621 1.388 1.388v8.94c0 .767.621 1.388 1.389 1.388h.077c.767 0 1.389-.621 1.389-1.388v-8.94c0-.767.621-1.388 1.389-1.388h.079c.767 0 1.389.621 1.389 1.388v8.94c0 .767.621 1.388 1.388 1.388h.078c.767 0 1.388-.621 1.388-1.388v-8.94c0-.767.622-1.388 1.389-1.388h.079c.767 0 1.389.621 1.389 1.388v11.797c0 .767-.622 1.388-1.389 1.388h-11.505a1.388 1.388 0 01-1.389-1.388v-3.008c0-.767-.621-1.388-1.388-1.388h-5.826c-.767 0-1.389.621-1.389 1.388v.151c0 .767.622 1.388 1.389 1.388h2.97c.767 0 1.388.622 1.388 1.388v.079a1.383 1.383 0 01-1.384 1.389zm22.769 0h.079c.767 0 1.389-.621 1.389-1.388v-3.008c0-.767.621-1.388 1.388-1.388h5.826c.767 0 1.389.621 1.389 1.388v3.008c0 .767.621 1.388 1.388 1.388h11.505c.767 0 1.388-.621 1.388-1.388v-5.939c0-.767-.621-1.388-1.388-1.388h-5.792c-.767 0-1.389.621-1.389 1.388v.153c0 .767.621 1.388 1.389 1.388h2.973c.767 0 1.388.621 1.388 1.388v.151c0 .767-.621 1.388-1.388 1.388h-5.865a1.387 1.387 0 01-1.388-1.388v-3.081c0-.767-.622-1.388-1.389-1.388H344.59c-.767 0-1.389.621-1.389 1.388v5.939a1.388 1.388 0 001.388 1.389zm5.713 0h.116c.767 0 1.388-.621 1.388-1.388v-.079c0-.767-.621-1.388-1.388-1.388h-.116c-.767 0-1.388.622-1.388 1.388v.079a1.388 1.388 0 001.388 1.388zm-5.713-11.645h34.424c.767 0 1.389-.621 1.389-1.388v-.152c0-.767-.621-1.388-1.389-1.388h-34.424c-.767 0-1.389.621-1.389 1.388v.152c0 .767.622 1.388 1.389 1.388zm34.426 11.645h-5.79a1.388 1.388 0 01-1.389-1.388v-5.939c0-.767.621-1.388 1.389-1.388h8.646c.767 0 1.389-.622 1.389-1.388v-3.081c0-.767.621-1.388 1.389-1.388h.079c.767 0 1.389.621 1.389 1.388v8.94c0 .767.621 1.388 1.388 1.388h.077c.767 0 1.389-.621 1.389-1.388v-8.94c0-.767.622-1.388 1.389-1.388h.079c.767 0 1.389.621 1.389 1.388v8.94c0 .767.621 1.388 1.389 1.388h.115c.767 0 1.388-.621 1.388-1.388v-8.94c0-.767.622-1.388 1.389-1.388h.04c.767 0 1.389.621 1.389 1.388v11.797c0 .767-.622 1.388-1.389 1.388h-11.502a1.388 1.388 0 01-1.389-1.388v-3.008c0-.767-.621-1.388-1.389-1.388h-5.754c-.767 0-1.389.621-1.389 1.388v.151c0 .767.621 1.388 1.389 1.388h2.899c.767 0 1.389.622 1.389 1.388v.079c0 .766-.621 1.389-1.388 1.389zm22.805 0h.042c.767 0 1.389-.621 1.389-1.388v-3.008c0-.767.621-1.388 1.389-1.388h5.792c.767 0 1.389.621 1.389 1.388v3.008c0 .767.621 1.388 1.388 1.388h11.538c.767 0 1.389-.621 1.389-1.388v-5.939c0-.767-.622-1.388-1.389-1.388h-5.752c-.767 0-1.389.621-1.389 1.388v.153c0 .767.622 1.388 1.389 1.388h2.933c.767 0 1.389.621 1.389 1.388v.151c0 .767-.621 1.388-1.389 1.388h-5.825a1.388 1.388 0 01-1.389-1.388v-3.081c0-.767-.621-1.388-1.389-1.388H401.82c-.767 0-1.389.621-1.389 1.388v5.939a1.39 1.39 0 001.389 1.389zm5.712 0h.079c.767 0 1.388-.621 1.388-1.388v-.079c0-.767-.621-1.388-1.388-1.388h-.079c-.767 0-1.388.622-1.388 1.388v.079a1.387 1.387 0 001.388 1.388zm-5.712-11.645h34.462c.767 0 1.389-.621 1.389-1.388v-.152c0-.767-.621-1.388-1.389-1.388H401.82c-.767 0-1.389.621-1.389 1.388v.152a1.388 1.388 0 001.389 1.388zm34.461 11.645h-5.865a1.388 1.388 0 01-1.389-1.388v-5.939c0-.767.622-1.388 1.389-1.388h8.647c.767 0 1.389-.622 1.389-1.388v-3.081c0-.767.622-1.388 1.389-1.388h.115c.767 0 1.388.621 1.388 1.388v8.94c0 .767.622 1.388 1.389 1.388h.077c.767 0 1.389-.621 1.389-1.388v-8.94c0-.767.621-1.388 1.388-1.388h.042c.767 0 1.389.621 1.389 1.388v8.94c0 .767.621 1.388 1.389 1.388h.115c.767 0 1.388-.621 1.388-1.388v-8.94c0-.767.621-1.388 1.389-1.388h.079c.767 0 1.389.621 1.389 1.388v11.797c0 .767-.621 1.388-1.389 1.388h-11.54a1.388 1.388 0 01-1.389-1.388v-3.008c0-.767-.621-1.388-1.389-1.388h-5.79c-.767 0-1.389.621-1.389 1.388v.151c0 .767.621 1.388 1.389 1.388h3.008c.767 0 1.389.622 1.389 1.388v.079a1.385 1.385 0 01-1.386 1.389zm22.732 0h.079c.767 0 1.389-.621 1.389-1.388v-3.008c0-.767.621-1.388 1.389-1.388h5.79c.767 0 1.389.621 1.389 1.388v3.008c0 .767.621 1.388 1.389 1.388h11.54c.767 0 1.389-.621 1.389-1.388v-5.939c0-.767-.621-1.388-1.389-1.388h-5.754c-.767 0-1.388.621-1.388 1.388v.153c0 .767.622 1.388 1.388 1.388h2.935c.767 0 1.388.621 1.388 1.388v.151c0 .767-.622 1.388-1.388 1.388h-5.865a1.388 1.388 0 01-1.389-1.388v-3.081c0-.767-.621-1.388-1.388-1.388h-11.502c-.767 0-1.389.621-1.389 1.388v5.939a1.388 1.388 0 001.387 1.389zm5.713 0h.079c.767 0 1.389-.621 1.389-1.388v-.079c0-.767-.621-1.388-1.389-1.388h-.079c-.767 0-1.388.622-1.388 1.388v.079c0 .765.621 1.388 1.388 1.388zm-5.713-11.645h34.388c.767 0 1.389-.621 1.389-1.388v-.152c0-.767-.621-1.388-1.389-1.388h-34.388c-.767 0-1.389.621-1.389 1.388v.152a1.39 1.39 0 001.389 1.388zm34.388 11.645h-5.79a1.388 1.388 0 01-1.389-1.388v-5.939c0-.767.621-1.388 1.389-1.388h8.721c.767 0 1.389-.622 1.389-1.388v-3.081c0-.767.621-1.388 1.388-1.388h.004c.767 0 1.389.621 1.389 1.388v8.94c0 .767.621 1.388 1.388 1.388h.152c.767 0 1.389-.621 1.389-1.388v-8.94c0-.767.621-1.388 1.389-1.388h.004c.767 0 1.389.621 1.389 1.388v8.94c0 .767.622 1.388 1.389 1.388h.079c.767 0 1.389-.621 1.389-1.388v-8.94c0-.767.622-1.388 1.389-1.388h.151c.767 0 1.389.621 1.389 1.388v11.797c0 .767-.622 1.388-1.389 1.388h-11.502a1.387 1.387 0 01-1.388-1.388v-3.008c0-.767-.622-1.388-1.389-1.388h-5.864c-.767 0-1.388.621-1.388 1.388v.151c0 .767.621 1.388 1.388 1.388h2.933c.767 0 1.389.622 1.389 1.388v.079a1.388 1.388 0 01-1.388 1.389z"/><path d="M1.388 203.035h22.963c.767 0 1.388-.621 1.388-1.388v-3.081c0-.767-.621-1.388-1.388-1.388H1.388c-.767 0-1.388.622-1.388 1.388v3.081c0 .767.621 1.388 1.388 1.388zm28.634 0h22.927c.767 0 1.388-.621 1.388-1.388v-3.081c0-.767-.621-1.388-1.388-1.388H30.022c-.767 0-1.389.622-1.389 1.388v3.081a1.388 1.388 0 001.389 1.388zm28.596 0h22.927c.767 0 1.388-.621 1.388-1.388v-3.081c0-.767-.621-1.388-1.388-1.388H58.618c-.767 0-1.388.622-1.388 1.388v3.081c0 .767.622 1.388 1.388 1.388zm28.561 0h23c.767 0 1.388-.621 1.388-1.388v-3.081c0-.767-.621-1.388-1.388-1.388h-23c-.767 0-1.389.622-1.389 1.388v3.081c0 .767.622 1.388 1.389 1.388zm28.635 0h22.963c.767 0 1.389-.621 1.389-1.388v-3.081c0-.767-.621-1.388-1.389-1.388h-22.963c-.767 0-1.388.622-1.388 1.388v3.081a1.386 1.386 0 001.388 1.388zm28.596 0h22.963c.767 0 1.388-.621 1.388-1.388v-3.081c0-.767-.622-1.388-1.388-1.388H144.41c-.767 0-1.389.622-1.389 1.388v3.081c0 .767.623 1.388 1.389 1.388zm28.597 0h22.963c.767 0 1.388-.621 1.388-1.388v-3.081c0-.767-.621-1.388-1.388-1.388h-22.963c-.767 0-1.389.622-1.389 1.388v3.081a1.39 1.39 0 001.389 1.388zm28.561 0h23c.767 0 1.388-.621 1.388-1.388v-3.081c0-.767-.621-1.388-1.388-1.388h-23c-.767 0-1.388.622-1.388 1.388v3.081a1.386 1.386 0 001.388 1.388zm28.632 0h22.965c.767 0 1.388-.621 1.388-1.388v-3.081c0-.767-.621-1.388-1.388-1.388H230.2c-.767 0-1.389.622-1.389 1.388v3.081a1.389 1.389 0 001.389 1.388zm28.597 0h22.965c.767 0 1.389-.621 1.389-1.388v-3.081c0-.767-.622-1.388-1.389-1.388h-22.965c-.767 0-1.388.622-1.388 1.388v3.081c0 .767.621 1.388 1.388 1.388zm28.598 0h22.965c.767 0 1.389-.621 1.389-1.388v-3.081c0-.767-.621-1.388-1.389-1.388h-22.965c-.767 0-1.389.622-1.389 1.388v3.081c0 .767.622 1.388 1.389 1.388zm28.635 0h22.927c.767 0 1.389-.621 1.389-1.388v-3.081c0-.767-.622-1.388-1.389-1.388H316.03c-.767 0-1.388.622-1.388 1.388v3.081a1.387 1.387 0 001.388 1.388zm28.559 0h22.965c.767 0 1.388-.621 1.388-1.388v-3.081c0-.767-.621-1.388-1.388-1.388h-22.965c-.767 0-1.389.622-1.389 1.388v3.081c0 .767.622 1.388 1.389 1.388zm28.635 0h22.925c.767 0 1.389-.621 1.389-1.388v-3.081c0-.767-.622-1.388-1.389-1.388h-22.925c-.767 0-1.389.622-1.389 1.388v3.081a1.389 1.389 0 001.389 1.388zm28.596 0h22.927c.767 0 1.389-.621 1.389-1.388v-3.081c0-.767-.622-1.388-1.389-1.388H401.82c-.767 0-1.389.622-1.389 1.388v3.081a1.388 1.388 0 001.389 1.388zm28.597 0h22.965c.767 0 1.389-.621 1.389-1.388v-3.081c0-.767-.621-1.388-1.389-1.388h-22.965c-.767 0-1.389.622-1.389 1.388v3.081a1.388 1.388 0 001.389 1.388zm28.596 0h22.965c.767 0 1.389-.621 1.389-1.388v-3.081c0-.767-.621-1.388-1.389-1.388h-22.965c-.767 0-1.389.622-1.389 1.388v3.081a1.39 1.39 0 001.389 1.388zm28.599 0h23c.767 0 1.389-.621 1.389-1.388v-3.081c0-.767-.622-1.388-1.389-1.388h-23c-.767 0-1.389.622-1.389 1.388v3.081a1.387 1.387 0 001.389 1.388zm22.999 114.791h-.077c-.767 0-1.388.621-1.388 1.388v3.008a1.39 1.39 0 01-1.389 1.389h-5.827a1.39 1.39 0 01-1.389-1.389v-3.008c0-.767-.621-1.388-1.389-1.388H487.65c-.767 0-1.388.621-1.388 1.388v5.939c0 .767.621 1.389 1.388 1.389h5.79c.767 0 1.388-.622 1.388-1.389v-.152c0-.767-.621-1.388-1.388-1.388h-2.935a1.39 1.39 0 01-1.389-1.389v-.151c0-.767.622-1.388 1.389-1.388h5.792c.767 0 1.388.621 1.388 1.388v3.081a1.39 1.39 0 001.389 1.389h11.538a1.39 1.39 0 001.389-1.389v-5.939a1.39 1.39 0 00-1.39-1.389zm-5.748 0h-.079c-.767 0-1.389.621-1.389 1.388v.079c0 .767.621 1.389 1.389 1.389h.079a1.39 1.39 0 001.389-1.389v-.079c0-.766-.622-1.388-1.389-1.388zm5.748 11.644h-34.423c-.767 0-1.389.621-1.389 1.388v.153c0 .767.622 1.388 1.389 1.388h34.423c.767 0 1.389-.622 1.389-1.388v-.153c0-.766-.622-1.388-1.389-1.388zm-34.422-11.644h5.79c.767 0 1.389.621 1.389 1.388v5.939c0 .767-.621 1.389-1.389 1.389h-8.647c-.767 0-1.388.621-1.388 1.388v3.081c0 .767-.622 1.388-1.389 1.388h-.077a1.389 1.389 0 01-1.389-1.388v-8.94c0-.767-.621-1.388-1.388-1.388h-.079c-.767 0-1.389.621-1.389 1.388v8.94c0 .767-.622 1.388-1.388 1.388h-.078a1.389 1.389 0 01-1.389-1.388v-8.94c0-.767-.621-1.388-1.389-1.388h-.115c-.767 0-1.389.621-1.389 1.388v8.94c0 .767-.621 1.388-1.389 1.388h-.042a1.388 1.388 0 01-1.388-1.388v-11.797c0-.767.621-1.388 1.388-1.388h11.502c.767 0 1.389.621 1.389 1.388v3.008c0 .767.621 1.389 1.388 1.389h5.79c.767 0 1.388-.622 1.388-1.389v-.151c0-.767-.621-1.388-1.388-1.388h-2.933a1.39 1.39 0 01-1.389-1.389v-.079a1.387 1.387 0 011.388-1.389zm-22.807 0h-.115c-.767 0-1.388.621-1.388 1.388v3.008a1.39 1.39 0 01-1.389 1.389h-5.754a1.39 1.39 0 01-1.389-1.389v-3.008c0-.767-.621-1.388-1.388-1.388h-11.502c-.767 0-1.389.621-1.389 1.388v5.939a1.39 1.39 0 001.389 1.389h5.79a1.39 1.39 0 001.389-1.389v-.152c0-.767-.622-1.388-1.389-1.388h-2.935a1.388 1.388 0 01-1.388-1.389v-.151c0-.767.621-1.388 1.388-1.388h5.792c.767 0 1.388.621 1.388 1.388v3.081a1.39 1.39 0 001.389 1.389h11.502a1.39 1.39 0 001.389-1.389v-5.939a1.392 1.392 0 00-1.39-1.389zm-5.713 0h-.077c-.767 0-1.389.621-1.389 1.388v.079a1.39 1.39 0 001.389 1.389h.077a1.39 1.39 0 001.389-1.389v-.079a1.39 1.39 0 00-1.389-1.388zm5.713 11.644h-34.387c-.767 0-1.389.621-1.389 1.388v.153c0 .767.622 1.388 1.389 1.388h34.387c.767 0 1.389-.622 1.389-1.388v-.153a1.39 1.39 0 00-1.389-1.388zm-34.388-11.644h5.827c.767 0 1.389.621 1.389 1.388v5.939a1.39 1.39 0 01-1.389 1.389h-8.647c-.767 0-1.389.621-1.389 1.388v3.081c0 .767-.621 1.388-1.389 1.388h-.115a1.389 1.389 0 01-1.389-1.388v-8.94c0-.767-.622-1.388-1.389-1.388h-.115c-.767 0-1.389.621-1.389 1.388v8.94c0 .767-.621 1.388-1.388 1.388h-.042a1.388 1.388 0 01-1.388-1.388v-8.94c0-.767-.622-1.388-1.389-1.388h-.115c-.767 0-1.389.621-1.389 1.388v8.94c0 .767-.621 1.388-1.388 1.388h-.078a1.388 1.388 0 01-1.388-1.388v-11.797c0-.767.622-1.388 1.388-1.388h11.575c.767 0 1.389.621 1.389 1.388v3.008c0 .767.621 1.389 1.389 1.389h5.754a1.39 1.39 0 001.389-1.389v-.151c0-.767-.621-1.388-1.389-1.388h-2.935a1.39 1.39 0 01-1.389-1.389v-.079a1.39 1.39 0 011.389-1.389zm-22.808 0h-.077c-.767 0-1.389.621-1.389 1.388v3.008c0 .767-.621 1.389-1.388 1.389h-5.792a1.39 1.39 0 01-1.389-1.389v-3.008c0-.767-.622-1.388-1.389-1.388h-11.538c-.767 0-1.389.621-1.389 1.388v5.939c0 .767.621 1.389 1.389 1.389h5.79a1.39 1.39 0 001.389-1.389v-.152c0-.767-.621-1.388-1.389-1.388h-2.935a1.39 1.39 0 01-1.389-1.389v-.151c0-.767.622-1.388 1.389-1.388h5.827c.767 0 1.389.621 1.389 1.388v3.081c0 .767.621 1.389 1.388 1.389h11.502a1.39 1.39 0 001.389-1.389v-5.939a1.387 1.387 0 00-1.388-1.389zm-5.712 0h-.077c-.767 0-1.389.621-1.389 1.388v.079a1.39 1.39 0 001.389 1.389h.077c.767 0 1.388-.622 1.388-1.389v-.079a1.387 1.387 0 00-1.388-1.388zm5.712 11.644h-34.424c-.767 0-1.389.621-1.389 1.388v.153c0 .767.621 1.388 1.389 1.388h34.424c.767 0 1.389-.622 1.389-1.388v-.153a1.388 1.388 0 00-1.389-1.388zm-34.424-11.644h5.827c.767 0 1.389.621 1.389 1.388v5.939a1.39 1.39 0 01-1.389 1.389h-8.646c-.767 0-1.388.621-1.388 1.388v3.081c0 .767-.622 1.388-1.389 1.388h-.079a1.388 1.388 0 01-1.388-1.388v-8.94c0-.767-.622-1.388-1.389-1.388h-.115c-.767 0-1.389.621-1.389 1.388v8.94c0 .767-.621 1.388-1.388 1.388h-.116a1.388 1.388 0 01-1.388-1.388v-8.94c0-.767-.622-1.388-1.389-1.388h-.042c-.767 0-1.389.621-1.389 1.388v8.94c0 .767-.621 1.388-1.389 1.388h-.077a1.388 1.388 0 01-1.388-1.388v-11.797c0-.767.621-1.388 1.388-1.388h11.54c.767 0 1.389.621 1.389 1.388v3.008c0 .767.621 1.389 1.388 1.389h5.79c.767 0 1.388-.622 1.388-1.389v-.151c0-.767-.621-1.388-1.388-1.388h-2.973a1.39 1.39 0 01-1.389-1.389v-.079a1.39 1.39 0 011.389-1.389zm-22.769 0h-.077c-.767 0-1.389.621-1.389 1.388v3.008c0 .767-.622 1.389-1.388 1.389h-5.79a1.388 1.388 0 01-1.388-1.389v-3.008c0-.767-.622-1.388-1.389-1.388h-11.54c-.767 0-1.388.621-1.388 1.388v5.939c0 .767.621 1.389 1.388 1.389h5.827a1.39 1.39 0 001.389-1.389v-.152c0-.767-.622-1.388-1.389-1.388h-2.935a1.388 1.388 0 01-1.388-1.389v-.151c0-.767.621-1.388 1.388-1.388h5.79c.767 0 1.388.621 1.388 1.388v3.081a1.39 1.39 0 001.389 1.389h11.502a1.39 1.39 0 001.389-1.389v-5.939a1.39 1.39 0 00-1.389-1.389zm-5.713 0h-.077c-.767 0-1.388.621-1.388 1.388v.079c0 .767.622 1.389 1.388 1.389h.077a1.39 1.39 0 001.389-1.389v-.079a1.39 1.39 0 00-1.389-1.388zm5.713 11.644h-34.388c-.767 0-1.388.621-1.388 1.388v.153c0 .767.621 1.388 1.388 1.388h34.388c.767 0 1.389-.622 1.389-1.388v-.153a1.39 1.39 0 00-1.389-1.388zm-34.388-11.644h5.827c.767 0 1.389.621 1.389 1.388v5.939a1.39 1.39 0 01-1.389 1.389h-8.721c-.767 0-1.389.621-1.389 1.388v3.081c0 .767-.621 1.388-1.388 1.388h-.077a1.389 1.389 0 01-1.389-1.388v-8.94c0-.767-.622-1.388-1.389-1.388h-.042c-.767 0-1.389.621-1.389 1.388v8.94c0 .767-.621 1.388-1.389 1.388h-.115a1.388 1.388 0 01-1.388-1.388v-8.94c0-.767-.622-1.388-1.389-1.388h-.079c-.767 0-1.388.621-1.388 1.388v8.94c0 .767-.622 1.388-1.389 1.388h-.077a1.389 1.389 0 01-1.389-1.388v-11.797c0-.767.622-1.388 1.389-1.388h11.502c.767 0 1.388.621 1.388 1.388v3.008a1.39 1.39 0 001.389 1.389h5.827a1.39 1.39 0 001.389-1.389v-.151c0-.767-.621-1.388-1.389-1.388h-2.935a1.388 1.388 0 01-1.388-1.389v-.079c0-.767.621-1.389 1.388-1.389zm-22.805 0h-.079c-.767 0-1.388.621-1.388 1.388v3.008c0 .767-.621 1.389-1.388 1.389h-5.79a1.388 1.388 0 01-1.388-1.389v-3.008c0-.767-.622-1.388-1.389-1.388h-11.54c-.767 0-1.388.621-1.388 1.388v5.939c0 .767.621 1.389 1.388 1.389h5.827a1.39 1.39 0 001.389-1.389v-.152c0-.767-.622-1.388-1.389-1.388h-2.97a1.388 1.388 0 01-1.388-1.389v-.151c0-.767.622-1.388 1.388-1.388h5.79c.767 0 1.388.621 1.388 1.388v3.081a1.39 1.39 0 001.389 1.389h11.54a1.39 1.39 0 001.389-1.389v-5.939a1.393 1.393 0 00-1.391-1.389zm-5.75 0h-.042c-.767 0-1.389.621-1.389 1.388v.079c0 .767.621 1.389 1.389 1.389h.042c.767 0 1.388-.622 1.388-1.389v-.079a1.387 1.387 0 00-1.388-1.388zm5.75 11.644h-34.424c-.767 0-1.388.621-1.388 1.388v.153c0 .767.622 1.388 1.388 1.388H281.8c.767 0 1.389-.622 1.389-1.388v-.153a1.39 1.39 0 00-1.389-1.388zm-34.426-11.644h5.827c.767 0 1.388.621 1.388 1.388v5.939c0 .767-.621 1.389-1.388 1.389h-8.684c-.767 0-1.388.621-1.388 1.388v3.081c0 .767-.621 1.388-1.389 1.388h-.077a1.389 1.389 0 01-1.389-1.388v-8.94c0-.767-.621-1.388-1.388-1.388h-.079c-.767 0-1.388.621-1.388 1.388v8.94c0 .767-.622 1.388-1.389 1.388h-.077a1.388 1.388 0 01-1.388-1.388v-8.94c0-.767-.622-1.388-1.388-1.388h-.078c-.767 0-1.388.621-1.388 1.388v8.94c0 .767-.621 1.388-1.389 1.388h-.079a1.389 1.389 0 01-1.389-1.388v-11.797c0-.767.621-1.388 1.389-1.388h11.502c.767 0 1.389.621 1.389 1.388v3.008c0 .767.621 1.389 1.388 1.389h5.827a1.39 1.39 0 001.389-1.389v-.151c0-.767-.622-1.388-1.389-1.388h-2.97a1.388 1.388 0 01-1.388-1.389v-.079a1.38 1.38 0 011.383-1.389zm-22.769 0h-.079c-.767 0-1.389.621-1.389 1.388v3.008c0 .767-.621 1.389-1.388 1.389h-5.79a1.388 1.388 0 01-1.388-1.389v-3.008c0-.767-.622-1.388-1.388-1.388h-11.54c-.767 0-1.388.621-1.388 1.388v5.939c0 .767.621 1.389 1.388 1.389h5.792c.767 0 1.388-.622 1.388-1.389v-.152c0-.767-.621-1.388-1.388-1.388h-2.899a1.39 1.39 0 01-1.389-1.389v-.151c0-.767.622-1.388 1.389-1.388h5.754c.767 0 1.389.621 1.389 1.388v3.081c0 .767.621 1.389 1.388 1.389h11.54a1.39 1.39 0 001.389-1.389v-5.939a1.392 1.392 0 00-1.391-1.389zm-5.749 0h-.042c-.767 0-1.389.621-1.389 1.388v.079a1.39 1.39 0 001.389 1.389h.042c.767 0 1.388-.622 1.388-1.389v-.079c0-.766-.621-1.388-1.388-1.388zm5.749 11.644H190.18c-.767 0-1.388.621-1.388 1.388v.153c0 .767.621 1.388 1.388 1.388h34.424c.767 0 1.389-.622 1.389-1.388v-.153a1.387 1.387 0 00-1.388-1.388zm-34.425-11.644h5.79c.767 0 1.388.621 1.388 1.388v5.939c0 .767-.621 1.389-1.388 1.389h-8.646c-.767 0-1.388.621-1.388 1.388v3.081c0 .767-.621 1.388-1.389 1.388h-.079a1.388 1.388 0 01-1.388-1.388v-8.94c0-.767-.621-1.388-1.388-1.388h-.078c-.767 0-1.388.621-1.388 1.388v8.94c0 .767-.621 1.388-1.389 1.388h-.079a1.389 1.389 0 01-1.389-1.388v-8.94c0-.767-.621-1.388-1.388-1.388h-.077c-.767 0-1.388.621-1.388 1.388v8.94c0 .767-.622 1.388-1.389 1.388h-.079a1.389 1.389 0 01-1.389-1.388v-11.797c0-.767.622-1.388 1.389-1.388h11.505c.767 0 1.389.621 1.389 1.388v3.008c0 .767.621 1.389 1.388 1.389h5.825a1.39 1.39 0 001.389-1.389v-.151c0-.767-.621-1.388-1.389-1.388h-2.97a1.388 1.388 0 01-1.388-1.389v-.079a1.38 1.38 0 011.383-1.389zm-22.769 0h-.079c-.767 0-1.389.621-1.389 1.388v3.008c0 .767-.621 1.389-1.388 1.389h-5.826a1.39 1.39 0 01-1.389-1.389v-3.008c0-.767-.621-1.388-1.388-1.388h-11.505c-.767 0-1.389.621-1.389 1.388v5.939c0 .767.621 1.389 1.389 1.389h5.792a1.39 1.39 0 001.389-1.389v-.152c0-.767-.621-1.388-1.389-1.388h-2.973a1.39 1.39 0 01-1.389-1.389v-.151c0-.767.621-1.388 1.389-1.388h5.865c.767 0 1.388.621 1.388 1.388v3.081a1.39 1.39 0 001.389 1.389h11.502a1.39 1.39 0 001.389-1.389v-5.939a1.388 1.388 0 00-1.388-1.389zm-5.713 0h-.116c-.767 0-1.388.621-1.388 1.388v.079c0 .767.621 1.389 1.388 1.389h.116c.767 0 1.388-.622 1.388-1.389v-.079a1.387 1.387 0 00-1.388-1.388zm5.713 11.644h-34.424c-.767 0-1.389.621-1.389 1.388v.153c0 .767.621 1.388 1.389 1.388h34.424c.767 0 1.389-.622 1.389-1.388v-.153c0-.766-.622-1.388-1.389-1.388zm-34.426-11.644h5.79c.767 0 1.389.621 1.389 1.388v5.939c0 .767-.621 1.389-1.389 1.389h-8.646c-.767 0-1.388.621-1.388 1.388v3.081c0 .767-.621 1.388-1.389 1.388h-.079a1.389 1.389 0 01-1.389-1.388v-8.94c0-.767-.621-1.388-1.388-1.388h-.078c-.767 0-1.388.621-1.388 1.388v8.94c0 .767-.621 1.388-1.389 1.388h-.079a1.389 1.389 0 01-1.389-1.388v-8.94c0-.767-.621-1.388-1.389-1.388h-.115c-.767 0-1.388.621-1.388 1.388v8.94c0 .767-.621 1.388-1.388 1.388h-.04a1.389 1.389 0 01-1.389-1.388v-11.797c0-.767.621-1.388 1.389-1.388h11.502c.767 0 1.389.621 1.389 1.388v3.008c0 .767.621 1.389 1.388 1.389h5.754a1.39 1.39 0 001.389-1.389v-.151c0-.767-.621-1.388-1.389-1.388h-2.899a1.39 1.39 0 01-1.389-1.389v-.079a1.387 1.387 0 011.387-1.389zm-22.805 0h-.042c-.767 0-1.389.621-1.389 1.388v3.008c0 .767-.621 1.389-1.388 1.389h-5.792a1.388 1.388 0 01-1.388-1.389v-3.008c0-.767-.621-1.388-1.388-1.388H87.254c-.767 0-1.388.621-1.388 1.388v5.939c0 .767.621 1.389 1.388 1.389h5.752a1.39 1.39 0 001.389-1.389v-.152c0-.767-.621-1.388-1.389-1.388h-2.933a1.388 1.388 0 01-1.388-1.389v-.151c0-.767.621-1.388 1.388-1.388H95.9c.767 0 1.389.621 1.389 1.388v3.081c0 .767.621 1.389 1.388 1.389h11.505a1.39 1.39 0 001.389-1.389v-5.939a1.392 1.392 0 00-1.391-1.389zm-5.712 0h-.079c-.767 0-1.389.621-1.389 1.388v.079c0 .767.621 1.389 1.389 1.389h.079c.767 0 1.388-.622 1.388-1.389v-.079a1.387 1.387 0 00-1.388-1.388zm5.712 11.644H75.719c-.767 0-1.388.621-1.388 1.388v.153c0 .767.621 1.388 1.388 1.388h34.462c.767 0 1.389-.622 1.389-1.388v-.153a1.39 1.39 0 00-1.39-1.388zm-34.461-11.644h5.865c.767 0 1.389.621 1.389 1.388v5.939c0 .767-.621 1.389-1.389 1.389h-8.648c-.767 0-1.388.621-1.388 1.388v3.081c0 .767-.621 1.388-1.389 1.388h-.115a1.388 1.388 0 01-1.388-1.388v-8.94c0-.767-.621-1.388-1.389-1.388h-.077c-.767 0-1.389.621-1.389 1.388v8.94c0 .767-.621 1.388-1.388 1.388h-.043a1.389 1.389 0 01-1.389-1.388v-8.94c0-.767-.621-1.388-1.388-1.388h-.115c-.767 0-1.389.621-1.389 1.388v8.94c0 .767-.621 1.388-1.388 1.388h-.079a1.388 1.388 0 01-1.388-1.388v-11.797c0-.767.621-1.388 1.388-1.388h11.54c.767 0 1.389.621 1.389 1.388v3.008c0 .767.621 1.389 1.388 1.389h5.79c.767 0 1.388-.622 1.388-1.389v-.151c0-.767-.621-1.388-1.388-1.388H75.72a1.388 1.388 0 01-1.388-1.389v-.079a1.386 1.386 0 011.387-1.389zm-22.733 0h-.079c-.767 0-1.388.621-1.388 1.388v3.008c0 .767-.621 1.389-1.389 1.389h-5.79a1.39 1.39 0 01-1.389-1.389v-3.008c0-.767-.621-1.388-1.388-1.388H30.022c-.767 0-1.389.621-1.389 1.388v5.939c0 .767.621 1.389 1.389 1.389h5.754c.767 0 1.388-.622 1.388-1.389v-.152c0-.767-.621-1.388-1.388-1.388h-2.935a1.39 1.39 0 01-1.389-1.389v-.151c0-.767.622-1.388 1.389-1.388h5.865c.767 0 1.389.621 1.389 1.388v3.081c0 .767.621 1.389 1.388 1.389h11.502c.767 0 1.388-.622 1.388-1.389v-5.939a1.386 1.386 0 00-1.387-1.389zm-5.712 0h-.079c-.767 0-1.388.621-1.388 1.388v.079c0 .767.621 1.389 1.388 1.389h.079c.767 0 1.388-.622 1.388-1.389v-.079c0-.766-.621-1.388-1.388-1.388zm5.712 11.644H18.599c-.767 0-1.389.621-1.389 1.388v.153c0 .767.622 1.388 1.389 1.388h34.387c.767 0 1.388-.622 1.388-1.388v-.153a1.387 1.387 0 00-1.388-1.388zm-34.387-11.644h5.79c.767 0 1.389.621 1.389 1.388v5.939c0 .767-.621 1.389-1.389 1.389H15.67c-.767 0-1.389.621-1.389 1.388v3.081c0 .767-.621 1.388-1.389 1.388h-.004a1.389 1.389 0 01-1.389-1.388v-8.94c0-.767-.621-1.388-1.389-1.388h-.154c-.767 0-1.389.621-1.389 1.388v8.94c0 .767-.621 1.388-1.389 1.388h-.003a1.388 1.388 0 01-1.388-1.388v-8.94c0-.767-.622-1.388-1.389-1.388h-.081c-.767 0-1.389.621-1.389 1.388v8.94c0 .767-.621 1.388-1.388 1.388h-.152A1.388 1.388 0 010 331.011v-11.797c0-.767.621-1.388 1.388-1.388H12.89c.767 0 1.389.621 1.389 1.388v3.008c0 .767.621 1.389 1.389 1.389h5.864c.767 0 1.388-.622 1.388-1.389v-.151c0-.767-.621-1.388-1.388-1.388H18.6a1.39 1.39 0 01-1.389-1.389v-.079a1.388 1.388 0 011.388-1.389zm492.012-8.86h-22.963c-.767 0-1.388.622-1.388 1.389v3.081c0 .767.621 1.388 1.388 1.388h22.963c.767 0 1.389-.621 1.389-1.388v-3.081a1.39 1.39 0 00-1.389-1.389zm-28.633 0h-22.927c-.767 0-1.388.622-1.388 1.389v3.081c0 .767.621 1.388 1.388 1.388h22.927c.767 0 1.389-.621 1.389-1.388v-3.081a1.39 1.39 0 00-1.389-1.389zm-28.596 0h-22.927a1.39 1.39 0 00-1.389 1.389v3.081c0 .767.622 1.388 1.389 1.388h22.927c.767 0 1.389-.621 1.389-1.388v-3.081a1.39 1.39 0 00-1.389-1.389zm-28.561 0h-23c-.767 0-1.388.622-1.388 1.389v3.081c0 .767.622 1.388 1.388 1.388h23c.767 0 1.389-.621 1.389-1.388v-3.081a1.39 1.39 0 00-1.389-1.389zm-28.635 0h-22.963a1.39 1.39 0 00-1.389 1.389v3.081c0 .767.621 1.388 1.389 1.388h22.963c.767 0 1.389-.621 1.389-1.388v-3.081a1.389 1.389 0 00-1.389-1.389zm-28.596 0h-22.963c-.767 0-1.388.622-1.388 1.389v3.081c0 .767.621 1.388 1.388 1.388h22.963c.767 0 1.389-.621 1.389-1.388v-3.081a1.39 1.39 0 00-1.389-1.389zm-28.597 0H316.03c-.767 0-1.388.622-1.388 1.389v3.081c0 .767.621 1.388 1.388 1.388h22.963c.767 0 1.389-.621 1.389-1.388v-3.081a1.39 1.39 0 00-1.389-1.389zm-28.561 0h-23a1.39 1.39 0 00-1.389 1.389v3.081c0 .767.622 1.388 1.389 1.388h23c.767 0 1.389-.621 1.389-1.388v-3.081c0-.767-.621-1.389-1.389-1.389zm-28.632 0h-22.965c-.767 0-1.388.622-1.388 1.389v3.081c0 .767.621 1.388 1.388 1.388H281.8c.767 0 1.389-.621 1.389-1.388v-3.081a1.39 1.39 0 00-1.389-1.389zm-28.597 0h-22.965a1.39 1.39 0 00-1.389 1.389v3.081c0 .767.621 1.388 1.389 1.388h22.965c.767 0 1.388-.621 1.388-1.388v-3.081c0-.767-.621-1.389-1.388-1.389zm-28.598 0H201.64c-.767 0-1.388.622-1.388 1.389v3.081c0 .767.621 1.388 1.388 1.388h22.965c.767 0 1.389-.621 1.389-1.388v-3.081a1.39 1.39 0 00-1.389-1.389zm-28.635 0h-22.927a1.39 1.39 0 00-1.389 1.389v3.081c0 .767.622 1.388 1.389 1.388h22.927c.767 0 1.388-.621 1.388-1.388v-3.081a1.388 1.388 0 00-1.388-1.389zm-28.559 0h-22.965a1.39 1.39 0 00-1.389 1.389v3.081c0 .767.621 1.388 1.389 1.388h22.965c.767 0 1.389-.621 1.389-1.388v-3.081a1.39 1.39 0 00-1.389-1.389zm-28.635 0h-22.925a1.39 1.39 0 00-1.389 1.389v3.081c0 .767.621 1.388 1.389 1.388h22.925c.767 0 1.389-.621 1.389-1.388v-3.081a1.39 1.39 0 00-1.389-1.389zm-28.596 0H87.254c-.767 0-1.388.622-1.388 1.389v3.081c0 .767.621 1.388 1.388 1.388h22.927c.767 0 1.389-.621 1.389-1.388v-3.081a1.39 1.39 0 00-1.39-1.389zm-28.597 0H58.618c-.767 0-1.388.622-1.388 1.389v3.081c0 .767.621 1.388 1.388 1.388h22.965c.767 0 1.389-.621 1.389-1.388v-3.081a1.39 1.39 0 00-1.389-1.389zm-28.597 0H30.022a1.39 1.39 0 00-1.389 1.389v3.081c0 .767.621 1.388 1.389 1.388h22.965c.767 0 1.388-.621 1.388-1.388v-3.081a1.39 1.39 0 00-1.389-1.389zm-28.598 0h-23c-.767 0-1.388.622-1.388 1.389v3.081c0 .767.621 1.388 1.388 1.388h23c.767 0 1.389-.621 1.389-1.388v-3.081a1.388 1.388 0 00-1.389-1.389z"/></g><g fill="#ff4b55"><path d="M248.698 214.275a7.548 7.548 0 007.334-2.026c2.898 2.934 7.647 3.004 10.649.141 1.956-1.886 2.759-4.75 2.06-7.334-2.548 4.121-7.925 5.448-12.046 2.863-.21-.141-.489-.28-.663-.419-3.875 2.863-9.357 2.095-12.291-1.745-.106-.211-.314-.49-.454-.698-1.048 4.05 1.396 8.239 5.411 9.218zm16.268 81.58c9.386-5.153 17.219-13.272 21.514-23.966 7.314-18.33 2.708-39.02-11.283-52.44-.481-.461-1.212.156-.863.724 13.799 22.503 8.363 52.074-12.99 68.278l1.021-65.367a2.894 2.894 0 00-1.071-2.291l-3.473-2.807a2.887 2.887 0 00-3.642.01l-3.422 2.797a2.885 2.885 0 00-1.059 2.28l.992 65.414c-21.356-16.195-26.804-45.794-13.026-68.312.348-.568-.383-1.185-.863-.723-13.964 13.42-18.599 34.109-11.286 52.438 4.295 10.692 12.127 18.812 21.516 23.965-5.975 2.047-12.255 3.134-18.605 2.952-.671-.019-.806.925-.163 1.119 8.068 2.449 16.366 2.617 24.168.868l3.063 5.943a.57.57 0 001.012.001l3.084-5.941c7.802 1.746 16.103 1.575 24.177-.874.642-.194.508-1.138-.163-1.119-6.358.184-12.653-.902-18.638-2.949z"/><path d="M303.171 235.086a40.513 40.513 0 00-22.28-19.111c-.595-.209-1.059.577-.573.978 20.966 17.271 25.169 48.032 8.954 70.302-.839 1.118-1.747 2.305-2.62 3.281 19.907-10.684 27.275-35.546 16.519-55.45zm-80.416 52.169c-16.213-22.27-12.044-53.03 8.918-70.301.487-.401.022-1.186-.573-.978-9.485 3.334-17.408 10.135-22.243 19.11-10.824 19.904-3.386 44.765 16.552 55.449-.942-.976-1.85-2.162-2.654-3.28z"/></g></svg>