<svg xmlns="http://www.w3.org/2000/svg" viewBox="0 0 512 512"><path d="M473.655 88.275H38.345C17.167 88.275 0 105.442 0 126.62v258.76c0 21.177 17.167 38.345 38.345 38.345h435.31c21.177 0 38.345-17.167 38.345-38.345V126.62c0-21.178-17.167-38.345-38.345-38.345z" fill="#82c3d2"/><g fill="#ffe15a"><path d="M59.516 128.447c-.799-3.382-.998-4.63.52-6.147a1.894 1.894 0 10-2.679-2.679c-3.072 3.073-2.339 6.262-1.544 9.638-2.422-.791-4.934-.204-6.28 1.494-.668.847-1.96 3.223.461 7.017a1.9 1.9 0 002.616.582 1.893 1.893 0 00.577-2.616c-.908-1.429-.935-2.31-.681-2.632.3-.381 1.23-.582 2.204-.237.629.218 2.091.973 2.091 3.253a5.64 5.64 0 01-2.31 4.575c-1.471 1.088-3.375 1.395-5.21.825-2.266-.692-3.849-3.079-3.849-5.806 0-1.951.418-3.923 1.186-5.651.122-.255 3.018-6.254 3.764-8.49 1.475-4.423-.024-6.647-1.047-7.576-1.369-1.247-3.37-1.558-5.092-.803-.262.116-.478.284-.705.44-.227-.157-.444-.324-.705-.44-1.721-.755-3.721-.445-5.092.803-1.023.929-2.522 3.154-1.047 7.576.746 2.236 3.641 8.235 3.738 8.435a14.153 14.153 0 011.212 5.707c0 2.728-1.582 5.114-3.849 5.806-1.842.569-3.74.266-5.21-.825a5.638 5.638 0 01-2.31-4.575c0-2.28 1.462-3.034 2.091-3.253.977-.344 1.902-.145 2.204.237.254.322.227 1.203-.681 2.632a1.893 1.893 0 103.193 2.034c2.421-3.794 1.129-6.169.461-7.017-1.347-1.698-3.858-2.286-6.28-1.494.796-3.375 1.528-6.566-1.544-9.638a1.894 1.894 0 10-2.679 2.679c1.517 1.517 1.32 2.764.52 6.147-.481 2.027-1.077 4.555-1.077 7.671 0 2.074.728 4.056 1.955 5.685h-.061c-1.047 0-1.895.847-1.895 1.895s.847 1.895 1.895 1.895h.061c-1.227 1.628-1.955 3.611-1.955 5.684 0 3.116.596 5.644 1.075 7.672.799 3.383.998 4.63-.52 6.147a1.894 1.894 0 102.68 2.679c3.072-3.073 2.339-6.263 1.544-9.638 2.422.788 4.934.204 6.28-1.494.668-.847 1.96-3.223-.461-7.017a1.893 1.893 0 10-3.193 2.034c.908 1.429.935 2.31.681 2.632-.301.377-1.227.577-2.204.237-.629-.218-2.091-.973-2.091-3.253 0-1.821.842-3.49 2.31-4.574 1.471-1.088 3.373-1.399 5.21-.825 2.266.692 3.849 3.079 3.849 5.806 0 1.951-.418 3.923-1.212 5.707l-12.411 27.92a17.734 17.734 0 00-1.538 7.246c0 3.233 1.47 6.185 3.784 7.987-2.313 1.802-3.784 4.754-3.784 7.987 0 2.513.519 4.952 1.538 7.246l12.409 27.919a14.153 14.153 0 011.212 5.707c0 2.728-1.582 5.114-3.849 5.806-1.842.574-3.74.267-5.21-.825a5.638 5.638 0 01-2.31-4.574c0-2.28 1.462-3.034 2.091-3.253.977-.341 1.902-.145 2.204.237.254.322.227 1.203-.681 2.632a1.893 1.893 0 103.193 2.034c2.421-3.794 1.129-6.169.461-7.017-1.347-1.699-3.858-2.283-6.28-1.494.796-3.375 1.528-6.566-1.544-9.638a1.894 1.894 0 10-2.679 2.679c1.517 1.517 1.32 2.764.52 6.147-.479 2.026-1.075 4.554-1.075 7.67 0 2.073.728 4.056 1.955 5.685h-.061a1.894 1.894 0 00-1.895 1.895c0 1.047.847 1.895 1.895 1.895h.061c-1.227 1.629-1.955 3.611-1.955 5.685 0 3.116.596 5.644 1.075 7.672.799 3.383.998 4.63-.52 6.147a1.894 1.894 0 102.68 2.679c3.072-3.073 2.339-6.263 1.544-9.638 2.422.788 4.934.204 6.28-1.494.668-.847 1.96-3.223-.461-7.017a1.893 1.893 0 10-3.193 2.034c.908 1.429.935 2.31.681 2.632-.301.381-1.227.58-2.204.237-.629-.218-2.091-.973-2.091-3.253 0-1.821.842-3.49 2.31-4.574 1.471-1.088 3.373-1.399 5.21-.825 2.266.692 3.849 3.079 3.849 5.806 0 1.951-.418 3.923-1.212 5.707l-12.41 27.924a17.73 17.73 0 00-1.538 7.246c0 3.233 1.47 6.185 3.784 7.987-2.313 1.801-3.784 4.754-3.784 7.987 0 2.513.519 4.952 1.538 7.246l12.409 27.919a14.153 14.153 0 011.212 5.707c0 2.728-1.582 5.115-3.849 5.806-1.842.574-3.74.263-5.21-.825a5.638 5.638 0 01-2.31-4.574c0-2.28 1.462-3.034 2.091-3.253.977-.341 1.902-.145 2.204.237.254.322.227 1.203-.681 2.632a1.893 1.893 0 103.193 2.034c2.421-3.794 1.129-6.169.461-7.017-1.347-1.703-3.858-2.285-6.28-1.494.796-3.375 1.528-6.566-1.544-9.638a1.894 1.894 0 10-2.679 2.679c1.517 1.517 1.32 2.764.52 6.147-.479 2.026-1.075 4.553-1.075 7.669a9.514 9.514 0 003.802 7.58 9.513 9.513 0 00-3.802 7.58c0 3.116.596 5.644 1.075 7.672.799 3.382.998 4.63-.52 6.147a1.894 1.894 0 102.68 2.679c3.072-3.073 2.339-6.263 1.544-9.639 2.422.788 4.934.204 6.28-1.494.668-.847 1.96-3.223-.461-7.017a1.9 1.9 0 00-2.616-.582 1.893 1.893 0 00-.577 2.616c.908 1.429.935 2.31.681 2.632-.301.381-1.227.577-2.204.237-.629-.218-2.091-.973-2.091-3.253a5.64 5.64 0 012.31-4.575c1.471-1.088 3.373-1.395 5.21-.825 2.266.692 3.849 3.079 3.849 5.806 0 1.951-.418 3.923-1.186 5.651-.122.255-3.018 6.254-3.764 8.49-1.475 4.423.024 6.647 1.047 7.576a4.677 4.677 0 003.154 1.214c.653 0 1.315-.137 1.939-.41.262-.116.478-.284.705-.44.227.157.444.324.705.44.623.274 1.287.41 1.939.41a4.685 4.685 0 003.154-1.214c1.023-.929 2.522-3.154 1.047-7.576-.746-2.236-3.641-8.234-3.738-8.435a14.153 14.153 0 01-1.212-5.707c0-2.728 1.582-5.114 3.849-5.806 1.843-.57 3.74-.263 5.21.825a5.638 5.638 0 012.31 4.575c0 2.28-1.462 3.034-2.091 3.253-.973.341-1.905.145-2.204-.237-.254-.322-.227-1.203.681-2.632a1.893 1.893 0 00-.577-2.616 1.906 1.906 0 00-2.616.582c-2.421 3.794-1.129 6.169-.461 7.017 1.347 1.698 3.858 2.283 6.28 1.494-.796 3.375-1.528 6.566 1.544 9.639.37.37.855.555 1.34.555s.97-.185 1.34-.555c.74-.74.74-1.94 0-2.679-1.517-1.517-1.32-2.764-.52-6.147.479-2.028 1.075-4.556 1.075-7.672a9.515 9.515 0 00-3.801-7.58 9.513 9.513 0 003.801-7.58c0-3.116-.596-5.644-1.075-7.672-.799-3.382-.998-4.63.52-6.147A1.894 1.894 0 1057.358 347c-3.072 3.073-2.339 6.262-1.544 9.638-2.422-.791-4.934-.209-6.28 1.494-.668.847-1.96 3.223.461 7.017a1.9 1.9 0 002.616.582 1.893 1.893 0 00.577-2.616c-.908-1.429-.935-2.31-.681-2.632.3-.381 1.23-.577 2.204-.237.629.218 2.091.973 2.091 3.253 0 1.821-.842 3.49-2.31 4.574-1.471 1.088-3.375 1.399-5.21.825-2.266-.692-3.849-3.079-3.849-5.806 0-1.95.418-3.923 1.212-5.707l12.409-27.919a17.73 17.73 0 001.538-7.246c0-3.233-1.47-6.185-3.784-7.987 2.314-1.802 3.784-4.754 3.784-7.987 0-2.513-.519-4.952-1.538-7.246l-12.409-27.919a14.153 14.153 0 01-1.212-5.707c0-2.728 1.582-5.114 3.849-5.806 1.843-.569 3.74-.263 5.21.825a5.638 5.638 0 012.31 4.574c0 2.28-1.462 3.034-2.091 3.253-.973.344-1.905.145-2.204-.237-.254-.322-.227-1.203.681-2.632a1.893 1.893 0 00-.577-2.616 1.906 1.906 0 00-2.616.582c-2.421 3.794-1.129 6.169-.461 7.017 1.347 1.698 3.858 2.283 6.28 1.494-.796 3.375-1.528 6.566 1.544 9.638.37.37.855.555 1.34.555s.97-.185 1.34-.555c.74-.74.74-1.94 0-2.679-1.517-1.517-1.32-2.764-.52-6.147.479-2.028 1.075-4.556 1.075-7.672 0-2.074-.728-4.056-1.955-5.685h.061a1.894 1.894 0 001.895-1.895 1.894 1.894 0 00-1.895-1.895h-.061c1.227-1.629 1.955-3.61 1.955-5.685 0-3.116-.596-5.644-1.075-7.672-.799-3.383-.998-4.63.52-6.147a1.894 1.894 0 10-2.679-2.679c-3.072 3.073-2.339 6.263-1.544 9.638-2.422-.788-4.934-.204-6.28 1.494-.668.847-1.96 3.223.461 7.017a1.902 1.902 0 002.616.582 1.893 1.893 0 00.577-2.616c-.908-1.429-.935-2.31-.681-2.632.3-.381 1.23-.577 2.204-.237.629.218 2.091.973 2.091 3.253 0 1.821-.842 3.49-2.31 4.574-1.471 1.088-3.375 1.395-5.21.825-2.266-.692-3.849-3.079-3.849-5.806 0-1.951.418-3.923 1.212-5.707l12.409-27.919a17.73 17.73 0 001.538-7.246c0-3.233-1.47-6.185-3.784-7.987 2.314-1.801 3.784-4.754 3.784-7.987 0-2.513-.519-4.952-1.538-7.246l-12.409-27.919a14.153 14.153 0 01-1.212-5.707c0-2.728 1.582-5.114 3.849-5.806 1.843-.569 3.74-.263 5.21.825a5.638 5.638 0 012.31 4.574c0 2.28-1.462 3.034-2.091 3.253-.973.341-1.905.141-2.204-.237-.254-.322-.227-1.203.681-2.632a1.893 1.893 0 00-.577-2.616 1.903 1.903 0 00-2.616.581c-2.421 3.794-1.129 6.169-.461 7.017 1.347 1.698 3.858 2.283 6.28 1.494-.796 3.375-1.528 6.566 1.544 9.638.37.37.855.555 1.34.555a1.894 1.894 0 001.34-3.234c-1.517-1.517-1.32-2.764-.52-6.147.479-2.028 1.075-4.556 1.075-7.672 0-2.074-.728-4.056-1.955-5.685h.061c1.047 0 1.895-.847 1.895-1.895s-.847-1.895-1.895-1.895h-.061c1.227-1.629 1.955-3.61 1.955-5.685-.004-3.114-.6-5.642-1.078-7.67zm-19.23-8.076c-.673-2.02-.438-3.171.006-3.575.29-.274.73-.263 1.009-.137.342.151.342.392.342.511 0 1.047.847 1.895 1.895 1.895a1.894 1.894 0 001.895-1.895c0-.118 0-.359.342-.511.274-.126.711-.137 1.009.137.445.404.68 1.555.006 3.575-.49 1.465-2.263 5.279-3.251 7.349-.968-2.022-2.76-5.874-3.253-7.349zm3.251 78.186c.544.739 1.159 1.427 1.907 1.987-.748.561-1.363 1.248-1.907 1.987-.544-.739-1.159-1.427-1.907-1.987.748-.562 1.363-1.248 1.907-1.987zm0 113.69c.544.739 1.159 1.427 1.907 1.987-.748.561-1.363 1.248-1.907 1.987-.544-.739-1.159-1.427-1.907-1.987.748-.56 1.363-1.245 1.907-1.987zm3.251 82.162c.673 2.02.438 3.171-.006 3.575-.298.27-.735.259-1.009.137-.342-.152-.342-.392-.342-.511 0-1.047-.847-1.895-1.895-1.895s-1.895.847-1.895 1.895c0 .118 0 .359-.342.511-.278.122-.718.134-1.009-.137-.445-.404-.679-1.555-.006-3.575.49-1.465 2.263-5.279 3.251-7.349.967 2.021 2.759 5.873 3.253 7.349zm-1.362-23.328a9.406 9.406 0 00-1.889 1.981 9.405 9.405 0 00-1.889-1.981 9.406 9.406 0 001.889-1.981 9.331 9.331 0 001.889 1.981zm10.162-43.153l-12.052 27.116-12.052-27.116a14.153 14.153 0 01-1.212-5.707c0-2.728 1.582-5.115 3.849-5.806 1.841-.57 3.742-.263 5.21.825a5.638 5.638 0 012.31 4.575c0 2.28-1.462 3.034-2.091 3.253-.977.341-1.906.145-2.204-.237-.254-.322-.227-1.203.681-2.632a1.893 1.893 0 00-.577-2.616 1.906 1.906 0 00-2.616.582c-2.42 3.794-1.129 6.169-.461 7.017 1.372 1.732 3.953 2.328 6.421 1.465.281-.098.566-.218.847-.362v4.792l-.003-.003a1.894 1.894 0 00-3.786.11c0 1.236.864 3.38 3.79 4.044v3.535c0 1.047.847 1.895 1.895 1.895a1.894 1.894 0 001.895-1.895v-3.535c2.925-.664 3.79-2.808 3.79-4.044 0-1.047-.845-1.957-1.891-1.957-1.047 0-1.891.785-1.891 1.832l-.008.011v-4.783c.281.143.566.264.847.362 2.468.862 5.048.266 6.421-1.465.668-.847 1.96-3.223-.461-7.017a1.9 1.9 0 00-2.616-.582 1.893 1.893 0 00-.577 2.616c.908 1.429.935 2.31.681 2.632-.3.381-1.228.577-2.204.237-.629-.218-2.091-.973-2.091-3.253a5.64 5.64 0 012.31-4.575c1.471-1.088 3.375-1.399 5.21-.825 2.266.692 3.849 3.079 3.849 5.806 0 1.949-.418 3.923-1.213 5.705zm0-27.386a14.153 14.153 0 011.212 5.707c0 2.728-1.582 5.114-3.849 5.806-1.839.574-3.742.263-5.21-.825a5.638 5.638 0 01-2.31-4.574c0-2.28 1.462-3.034 2.091-3.253.975-.341 1.905-.145 2.204.237.254.322.227 1.203-.681 2.632a1.893 1.893 0 103.193 2.034c2.421-3.794 1.129-6.169.461-7.017-1.373-1.732-3.953-2.321-6.421-1.465a6.987 6.987 0 00-.847.361v-4.793l.003.006a1.895 1.895 0 003.786-.111c0-1.236-.864-3.38-3.79-4.044v-3.535a1.894 1.894 0 00-1.895-1.895 1.894 1.894 0 00-1.895 1.895v3.535c-2.925.664-3.79 2.808-3.79 4.044 0 1.047.845 1.957 1.891 1.957 1.047 0 1.891-.785 1.891-1.832.001-.003.007-.008.007-.008l.001 4.78a6.832 6.832 0 00-.847-.361c-2.468-.855-5.049-.267-6.421 1.465-.668.847-1.96 3.223.461 7.017a1.903 1.903 0 002.616.582 1.893 1.893 0 00.577-2.616c-.908-1.429-.935-2.31-.681-2.632.298-.381 1.227-.577 2.204-.237.629.218 2.091.973 2.091 3.253 0 1.821-.842 3.49-2.31 4.574-1.471 1.088-3.371 1.399-5.21.825-2.266-.692-3.849-3.079-3.849-5.806 0-1.951.418-3.923 1.212-5.707l12.052-27.116 12.053 27.117zM45.426 257.39a9.406 9.406 0 00-1.889 1.981 9.405 9.405 0 00-1.889-1.981 9.406 9.406 0 001.889-1.981 9.355 9.355 0 001.889 1.981zm10.162-43.152l-12.052 27.116-12.052-27.116a14.153 14.153 0 01-1.212-5.707c0-2.728 1.582-5.114 3.849-5.806 1.841-.57 3.742-.263 5.21.825a5.638 5.638 0 012.31 4.575c0 2.28-1.462 3.034-2.091 3.253-.977.344-1.906.145-2.204-.237-.254-.322-.227-1.203.681-2.632a1.893 1.893 0 10-3.193-2.036c-2.42 3.794-1.129 6.169-.461 7.017 1.372 1.732 3.953 2.324 6.421 1.465.281-.098.566-.218.847-.361v4.792l-.003-.006a1.895 1.895 0 00-3.786.111c0 1.236.864 3.38 3.79 4.044v3.535c0 1.047.847 1.895 1.895 1.895a1.894 1.894 0 001.895-1.895v-3.535c2.925-.664 3.79-2.808 3.79-4.044 0-1.047-.845-1.958-1.891-1.958-1.047 0-1.891.785-1.891 1.832-.001.003-.007.008-.007.008l-.001-4.78c.281.143.566.264.847.361 2.468.858 5.048.267 6.421-1.465.668-.847 1.96-3.223-.461-7.017a1.893 1.893 0 10-3.193 2.036c.908 1.429.935 2.31.681 2.632-.3.381-1.228.582-2.204.237-.629-.218-2.091-.973-2.091-3.253a5.64 5.64 0 012.31-4.575c1.471-1.088 3.375-1.395 5.21-.825 2.266.692 3.849 3.079 3.849 5.806 0 1.951-.418 3.923-1.213 5.708zm0-27.388a14.153 14.153 0 011.212 5.707c0 2.728-1.582 5.114-3.849 5.806-1.839.574-3.742.263-5.21-.825a5.638 5.638 0 01-2.31-4.575c0-2.28 1.462-3.034 2.091-3.253.975-.341 1.905-.145 2.204.237.254.322.227 1.203-.681 2.632a1.893 1.893 0 103.193 2.035c2.421-3.794 1.129-6.169.461-7.017-1.373-1.732-3.953-2.324-6.421-1.465a6.684 6.684 0 00-.847.361v-4.792l.003.003a1.894 1.894 0 003.786-.11c0-1.236-.864-3.38-3.79-4.044v-3.535a1.894 1.894 0 00-1.895-1.895 1.894 1.894 0 00-1.895 1.895v3.535c-2.925.664-3.79 2.808-3.79 4.044 0 1.047.845 1.958 1.891 1.958 1.047 0 1.891-.785 1.891-1.832l.008-.011v4.783a6.684 6.684 0 00-.847-.361c-2.468-.858-5.049-.267-6.421 1.465-.668.847-1.96 3.223.461 7.017a1.902 1.902 0 002.616.581 1.893 1.893 0 00.577-2.616c-.908-1.429-.935-2.31-.681-2.632.298-.381 1.227-.577 2.204-.237.629.218 2.091.973 2.091 3.253a5.64 5.64 0 01-2.31 4.575c-1.471 1.088-3.371 1.399-5.21.825-2.266-.692-3.849-3.079-3.849-5.806 0-1.951.418-3.923 1.212-5.707l12.052-27.116 12.053 27.117zm-13.941-43.151a9.406 9.406 0 001.889-1.981 9.38 9.38 0 001.889 1.981 9.406 9.406 0 00-1.889 1.981 9.237 9.237 0 00-1.889-1.981z"/><circle cx="270.74" cy="235.029" r="45.606"/><path d="M274.167 176.882a3.421 3.421 0 01-6.842 0c0-1.889 3.421-10.262 3.421-10.262s3.421 8.373 3.421 10.262zm-6.841 116.303a3.421 3.421 0 016.842 0c0 1.889-3.421 10.262-3.421 10.262s-3.421-8.372-3.421-10.262zm61.572-54.731a3.421 3.421 0 010-6.842c1.889 0 10.262 3.421 10.262 3.421s-8.373 3.421-10.262 3.421zm-116.303-6.841a3.421 3.421 0 010 6.842c-1.889 0-10.262-3.421-10.262-3.421s8.373-3.421 10.262-3.421zm101.69-35.28a3.42 3.42 0 11-4.838-4.838c1.336-1.335 9.675-4.838 9.675-4.838s-3.5 8.34-4.837 9.676zm-87.076 77.401a3.42 3.42 0 114.838 4.838c-1.336 1.337-9.675 4.837-9.675 4.837s3.501-8.339 4.837-9.675zm82.239 4.837a3.42 3.42 0 114.838-4.838c1.337 1.336 4.838 9.675 4.838 9.675s-8.341-3.501-9.676-4.837zm-77.402-87.076a3.42 3.42 0 11-4.838 4.838c-1.337-1.336-4.838-9.675-4.838-9.675s8.34 3.502 9.676 4.837zm19.608-11.496a3.42 3.42 0 11-6.321 2.617c-.723-1.746-.767-10.79-.767-10.79s6.365 6.427 7.088 8.173zm38.187 110.069a3.42 3.42 0 116.321-2.617c.723 1.746.767 10.79.767 10.79s-6.366-6.426-7.088-8.173zm35.94-74.127a3.42 3.42 0 11-2.617-6.321c1.746-.723 10.789-.767 10.789-.767s-6.426 6.364-8.172 7.088zm-110.068 38.185a3.42 3.42 0 112.617 6.321c-1.746.723-10.79.767-10.79.767s6.427-6.364 8.173-7.088zm80.448-71.509A3.421 3.421 0 01289.84 180c.723-1.746 7.087-8.172 7.087-8.172s-.043 9.044-.766 10.789zm-50.828 104.834a3.421 3.421 0 016.321 2.617c-.723 1.746-7.087 8.172-7.087 8.172s.043-9.045.766-10.789zm77.829-27.003a3.421 3.421 0 012.617-6.321c1.746.723 8.172 7.087 8.172 7.087s-9.043-.042-10.789-.766zM218.33 209.62a3.421 3.421 0 01-2.617 6.321c-1.746-.723-8.172-7.087-8.172-7.087s9.045.042 10.789.766zm44.428-32.288a3.42 3.42 0 11-6.71 1.334c-.369-1.853 1.353-10.732 1.353-10.732s4.988 7.545 5.357 9.398zm15.979 115.403a3.42 3.42 0 116.71-1.334c.369 1.853-1.353 10.732-1.353 10.732s-4.989-7.544-5.357-9.398zm49.712-65.691a3.42 3.42 0 01-4.022-2.688 3.42 3.42 0 012.688-4.022c1.853-.369 10.732 1.353 10.732 1.353s-7.545 4.988-9.398 5.357zm-115.404 15.98a3.42 3.42 0 111.334 6.71c-1.853.369-10.732-1.353-10.732-1.353s7.545-4.988 9.398-5.357zm92.853-54.441a3.42 3.42 0 11-5.688-3.802c1.049-1.57 8.545-6.632 8.545-6.632s-1.807 8.862-2.857 10.434zm-70.303 92.901a3.421 3.421 0 015.688 3.802c-1.049 1.57-8.545 6.632-8.545 6.632s1.808-8.861 2.857-10.434zm81.603-11.299a3.42 3.42 0 113.802-5.688c1.571 1.049 6.632 8.545 6.632 8.545s-8.863-1.808-10.434-2.857zm-92.902-70.303a3.42 3.42 0 11-3.802 5.688c-1.571-1.05-6.632-8.545-6.632-8.545s8.864 1.808 10.434 2.857zm16.987-15.101a3.422 3.422 0 01-.943 4.745 3.422 3.422 0 01-4.745-.943c-1.049-1.571-2.857-10.433-2.857-10.433s7.496 5.062 8.545 6.631zm58.927 100.505a3.422 3.422 0 01.943-4.745 3.422 3.422 0 014.745.943c1.049 1.571 2.857 10.433 2.857 10.433s-7.495-5.06-8.545-6.631zm20.789-79.716a3.422 3.422 0 01-4.745-.943 3.422 3.422 0 01.943-4.745c1.57-1.049 10.433-2.857 10.433-2.857s-5.06 7.496-6.631 8.545zm-100.504 58.927a3.422 3.422 0 014.745.943 3.422 3.422 0 01-.943 4.745c-1.571 1.049-10.433 2.857-10.433 2.857s5.06-7.495 6.631-8.545zm64.952-85.83a3.42 3.42 0 11-6.71-1.334c.369-1.853 5.357-9.397 5.357-9.397s1.721 8.877 1.353 10.731zm-29.4 112.734a3.42 3.42 0 116.71 1.334c-.369 1.853-5.357 9.397-5.357 9.397s-1.721-8.877-1.353-10.731zm71.067-41.667a3.42 3.42 0 111.334-6.71c1.853.369 9.398 5.357 9.398 5.357s-8.879 1.721-10.732 1.353zM214.38 220.333a3.42 3.42 0 11-1.334 6.71c-1.853-.369-9.398-5.357-9.398-5.357s8.879-1.721 10.732-1.353z"/><path d="M378.027 247.033a2.615 2.615 0 00-3.42 1.41v.006l-.151.358c-1.977 4.618-6.067 11.367-10.197 17.716 3.847-12.383 7.363-25.609 7.609-26.539a2.615 2.615 0 00-5.048-1.374c-1.795 6.432-5.466 14.897-8.853 22.063.621-7.99.738-15.392.746-15.928a2.62 2.62 0 00-2.504-2.652c-1.331.041-2.615 1.012-2.72 2.426-3.349 46.068-47.678 66.676-51.995 68.572-2.258.225-12.777 1.41-22.324 4.725-1.084.376-2.004.753-2.922 1.127a2.642 2.642 0 00-1.092-.177c-29.302 2.12-52.666-9.9-69.458-35.652-12.687-19.458-16.666-39.882-16.705-40.086-.268-1.42-1.628-2.335-3.054-2.084a2.613 2.613 0 00-2.084 3.054c.106.564 1.852 9.479 6.66 21.212-6.433-10.155-10.916-22.457-12.494-28.864-.032-.128-.114-.225-.162-.343-.073-.181-.136-.363-.245-.52-.077-.111-.178-.192-.269-.289-.143-.151-.28-.299-.455-.412-.1-.065-.212-.097-.321-.148-.193-.09-.382-.179-.597-.218-.149-.029-.301-.01-.456-.013-.157-.002-.305-.042-.465-.014-.035.006-.062.03-.097.038-.034.007-.066-.004-.1.003-.14.034-.247.122-.375.177-.163.071-.33.124-.473.223-.141.097-.246.223-.363.344-.117.12-.239.226-.331.365-.093.141-.143.3-.209.457-.063.153-.136.297-.169.462-.034.169-.019.343-.018.52 0 .141-.039.276-.014.42.01.061.03.124.041.184v.01l.01.038c1.618 9.533 5.474 19.415 8.961 26.951-5.537-6.283-10.164-13.523-11.804-17.809-.047-.125-.142-.212-.206-.324-.097-.173-.182-.35-.313-.493-.093-.102-.206-.168-.312-.253-.159-.128-.31-.257-.494-.345-.118-.056-.246-.074-.371-.113-.193-.058-.38-.122-.585-.135-.161-.011-.321.03-.484.051-.151.019-.3 0-.45.047-.029.009-.049.032-.076.042-.028.009-.056.003-.084.014-.142.054-.243.159-.37.234-.149.088-.308.161-.435.275-.13.117-.22.262-.322.401-.097.131-.205.248-.277.394-.075.153-.103.319-.146.484-.043.161-.1.311-.111.48-.012.169.03.338.052.509.019.148-.001.295.045.441 2.846 9.18 9.69 20.102 15.052 27.796-4.468-3.443-7.752-7.167-8.705-8.291l-.307-.367a2.613 2.613 0 00-4.056 3.299c.049.062.245.307.572.69 3.924 4.67 8.199 9.027 12.072 12.705l-5.298-2.258a2.612 2.612 0 00-3.29 1.098 2.618 2.618 0 00.697 3.402c.515.383 9.898 7.392 18.02 11.534-.766.046-1.665-.01-2.671-.087-1.228-.118-2.436.761-2.735 2.007a2.615 2.615 0 001.548 3.019c.2.082 2.675 1.103 5.731 2.191a2.611 2.611 0 00-1.515 1.665 2.61 2.61 0 001.195 3.019c.274.159 3.972 2.279 8.546 4.158a2.619 2.619 0 00.708 3.581c.794.546 18.559 12.602 39.307 12.602 1.362 0 2.738-.051 4.122-.163a2.615 2.615 0 002.399-2.815c-.115-1.441-1.364-2.529-2.817-2.396-13.034 1.063-25.591-3.831-33.059-7.571.986-.241 1.553-.46 1.694-.516a2.622 2.622 0 001.591-2.902 2.615 2.615 0 00-2.521-2.141c-3.032-.062-7.231-1.538-10.848-3.122 1.366-.684 2.164-1.339 2.234-1.395a2.626 2.626 0 00.851-2.702 2.618 2.618 0 00-2.104-1.89c-1.111-.184-2.495-.542-3.946-.981 1.41-.812 2.01-1.706 2.24-2.161a2.622 2.622 0 00.023-2.304 2.608 2.608 0 00-1.809-1.426c-.684-.148-1.459-.398-2.296-.725a2.622 2.622 0 00-.235-3.918c-.054-.041-2.084-1.635-5.158-4.286a2.613 2.613 0 001.121-4.082c-.058-.072-2.091-2.628-4.893-6.51.925.718 1.849 1.452 2.773 2.046.435.276.927.414 1.415.414.662 0 1.315-.25 1.818-.736.207-.2.369-.43.497-.675 1.587 1.695 3.254 3.234 5.005 4.547.228.171.505.168.761.254.742 1.244 1.514 2.49 2.324 3.736 15.883 24.438 38.278 37.528 65.138 38.314-2.473 1.502-5.158 3.054-9.409 4.71-.928.362-1.748.724-2.572 1.087-.398.078-.771.222-1.084.469-7.42 3.435-10.492 6.829-11.738 9.203-1.244 2.36-.171 4.781 1.348 6.038a2.644 2.644 0 001.676.587c.414 0 .828-.092 1.203-.281.925-.46 1.543-1.436 1.502-2.462.107-.118.562-.495 1.987-.542 1.039-.087 3.226.148 5.778.353 2.428.2 5.34.427 8.436.586-1.937 2.258-4.188 4.875-4.188 4.875a2.613 2.613 0 00-.375 2.835 2.629 2.629 0 002.447 1.486 333.16 333.16 0 014.393-.132 4.439 4.439 0 002.426 1.634c1.799.46 3.591-.26 4.942-1.113a6.446 6.446 0 002.854 1.164c1.826.25 3.518-.281 4.74-.884a6.303 6.303 0 003.454 1.027h.043c2.04-.01 3.826-.996 5.09-1.962a6.424 6.424 0 003.009.915c1.873.066 3.425-.654 4.457-1.329 3.686.74 6.863-.996 8.963-2.912.958.557 1.869.695 2.595.659 1.867-.066 3.289-1.201 4.202-2.217 4.179.505 7.178-.266 8.911-2.324.946-1.119 1.329-2.38 1.433-3.53 11.594-.066 12.643-6.396 12.728-7.178a2.61 2.61 0 00-.602-1.966 2.609 2.609 0 00-1.839-.925l-30.396-1.828a2.59 2.59 0 00-2.702 2.003c-.006.021-.523 1.951-2.145 3.495-2.181 2.083-5.695 3.183-9.516 3.766a2.62 2.62 0 00-.169-1.054c-.521-1.348-2.038-2.003-3.382-1.497-6.275 2.435-16.435 2.129-24.383 1.576 1.219-.996 2.687-1.983 3.86-2.627a2.62 2.62 0 001.313-2.779c-.152-.809-.737-1.372-1.442-1.734 2.21-1.116 4.022-2.194 5.741-3.242 2.984-1.828 5.803-3.55 10.937-5.333 9.91-3.443 21.379-4.49 21.494-4.501.26-.02.516-.087.759-.184.408-.169 32.758-13.721 47.999-44.991a29.64 29.64 0 01-.647 2.564 2.618 2.618 0 004.276 2.692c-.963 2.539-1.834 4.536-2.545 5.716a2.62 2.62 0 001.66 3.908 82.95 82.95 0 01-3.569 4.859 2.618 2.618 0 00.082 3.357c-2.049 2.145-3.864 3.913-5.244 5.037a2.614 2.614 0 00-.781 2.994c-1.331.761-2.424 1.298-3.182 1.527a2.613 2.613 0 00-.764 4.628 81.384 81.384 0 01-5.249 1.22 2.617 2.617 0 00-.787 4.837c.082.046.975.552 2.343 1.134-5.059 2.038-14.094 4.7-28.919 6.161a2.618 2.618 0 00-2.345 2.861c.14 1.436 1.382 2.432 2.86 2.35 28.142-2.784 36.832-9.828 37.187-10.131.812-.68 1.134-1.788.812-2.799a2.61 2.61 0 00-1.288-1.523c8.991-2.83 12.851-5.962 13.052-6.13a2.622 2.622 0 00.585-3.341c-.654-1.109-2.015-1.589-3.203-1.109-.334.128-.868.26-1.543.393 6.034-4.132 12.439-9.053 15.256-11.249a28.26 28.26 0 001.341-1.053 2.613 2.613 0 00.345-3.652 2.62 2.62 0 00-3.647-.404c-.408.322-.833.654-1.272.996-1.3.966-2.963 2.059-4.777 3.182 6.848-7.775 13.741-16.204 15.711-18.625l.534-.659a2.613 2.613 0 00-.396-3.673 2.607 2.607 0 00-3.676.388l-.006.005-.002.006c-.049.056-.27.332-.643.792a141.316 141.316 0 01-6.378 7.233c6.976-12.643 12.258-25.088 13.032-26.932l.082-.2a2.602 2.602 0 00-1.408-3.406zm-122.59 88.168l.714.093a12.336 12.336 0 00-2.155 2.685c-1.242-.1-2.369-.186-3.252-.227 1.217-.796 2.783-1.658 4.693-2.551z"/></g></svg>