<svg xmlns="http://www.w3.org/2000/svg" viewBox="0 0 512 512"><path d="M0 385.379c0 21.177 17.167 38.345 38.345 38.345h435.31c21.177 0 38.345-17.167 38.345-38.345v-73.471H0v73.471z" fill="#73af00"/><path d="M473.655 88.276H38.345C17.167 88.276 0 105.443 0 126.621v73.471h512v-73.471c0-21.178-17.167-38.345-38.345-38.345z" fill="#464655"/><path fill="#c8414b" d="M0 200.09h512V311.9H0z"/><g fill="#f5f5f5"><path d="M0 194.21h512v17.655H0zm0 105.93h512v17.655H0z"/><path d="M303.268 181.618c7.108-14.657 14.525-48.61 14.525-48.61s-22.072 26.845-29.182 41.501c-1.49 3.072-.858 6.605 1.294 8.995l-80.967 166.934 5.496 2.666 80.967-166.934c3.212.211 6.378-1.48 7.867-4.552z"/><path d="M208.732 181.618c-7.108-14.657-14.525-48.61-14.525-48.61s22.072 26.845 29.181 41.501c1.49 3.072.858 6.605-1.294 8.995l80.968 166.934-5.496 2.666-80.968-166.934c-3.211.211-6.377-1.48-7.866-4.552z"/></g><path d="M300.138 256c0 48.754-36.012 88.276-44.138 88.276S211.862 304.754 211.862 256s36.012-88.276 44.138-88.276 44.138 39.522 44.138 88.276z" fill="#c8414b"/><path d="M291.31 298.591c5.199-12.631 8.828-27.14 8.828-42.591s-3.628-29.959-8.828-42.591c-5.199 12.631-8.828 27.14-8.828 42.591s3.629 29.959 8.828 42.591zm-70.62-85.182c-5.199 12.631-8.828 27.14-8.828 42.591 0 15.45 3.628 29.959 8.828 42.591 5.199-12.631 8.828-27.14 8.828-42.591s-3.629-29.959-8.828-42.591z" fill="#464655"/><g fill="#f5f5f5"><ellipse cx="256" cy="256" rx="8.828" ry="13.241"/><path d="M257.324 167.724v75.034c2.407-5.01 6.676-19.815 6.676-37.517 0-17.703-4.269-32.507-6.676-37.517zm-2.648 0c-2.407 5.01-6.676 19.814-6.676 37.517s4.269 32.508 6.676 37.517v-75.034zm2.648 101.517v75.034c2.407-5.01 6.676-19.815 6.676-37.517 0-17.703-4.269-32.507-6.676-37.517zm-2.648 0c-2.407 5.01-6.676 19.814-6.676 37.517s4.269 32.508 6.676 37.517v-75.034z"/></g></svg>