<svg xmlns="http://www.w3.org/2000/svg" viewBox="0 0 512 512"><path d="M473.885 88.279H38.115C17.045 88.403 0 105.517 0 126.617v73.478h512v-73.478c0-21.1-17.045-38.214-38.115-38.338z" fill="#73af00"/><path d="M0 385.376c0 21.177 17.167 38.345 38.345 38.345h435.31c21.177 0 38.345-17.167 38.345-38.345v-73.465H0v73.465z" fill="#ff4b55"/><path fill="#f5f5f5" d="M0 200.1h512v111.81H0z"/><path d="M12.831 413.993l128.41-101.931-.003-112.12L12.824 98.007C4.958 105.03 0 115.243 0 126.617v258.759c0 11.379 4.96 21.594 12.831 28.617z" fill="#464655"/></svg>