<svg xmlns="http://www.w3.org/2000/svg" viewBox="0 0 512 512"><path d="M473.655 88.276H38.345C17.167 88.276 0 105.443 0 126.621v32.276h512v-32.276c0-21.178-17.167-38.345-38.345-38.345zM0 385.379c0 21.177 17.167 38.345 38.345 38.345h435.31c21.177 0 38.345-17.167 38.345-38.345v-32.276H0v32.276z" fill="#ff4b55"/><path fill="#f5f5f5" d="M0 158.9h512v194.21H0z"/><path d="M274.862 315.379l81.581-16.317c5.888-1.177 8.516-8.107 4.89-12.894a8.13 8.13 0 00-5.233-3.126l-86.911-13.551a4.448 4.448 0 01-3.7-5.126c.391-2.414 2.838-3.951 5.262-3.633l60.259 7.929c4.897.644 7.902-5.207 4.523-8.812l-4.838-5.16a12.572 12.572 0 00-6.785-3.746l-50.338-9.749 42.921 3.092c3.29.237 5.196-3.652 2.993-6.108l-2.201-2.453a9.354 9.354 0 00-5.048-2.909l-42.613-8.905 30.284-.876c2.678-.077 4.04-3.252 2.25-5.246l-1.358-1.513a8.48 8.48 0 00-3.97-2.486l-27.01-7.755h21.226c2.1 0 3.512-2.152 2.677-4.078l-.715-1.651a7.657 7.657 0 00-4.559-4.205l-19.629-6.678 9.654-.031c2.869-.009 4.793-2.951 3.652-5.583a10.045 10.045 0 00-4.593-4.924L256 167.724l-21.534 11.165a10.045 10.045 0 00-4.593 4.924c-1.141 2.633.783 5.574 3.652 5.582l9.654.032-19.629 6.678a7.649 7.649 0 00-4.559 4.205l-.716 1.651c-.835 1.927.577 4.078 2.677 4.078h21.226l-27.009 7.755a8.48 8.48 0 00-3.97 2.486l-1.358 1.513c-1.789 1.994-.427 5.169 2.25 5.246l30.284.876-42.613 8.905a9.35 9.35 0 00-5.048 2.909l-2.201 2.453c-2.204 2.455-.298 6.345 2.993 6.108l42.921-3.092-50.338 9.749a12.572 12.572 0 00-6.785 3.746l-4.838 5.16c-3.379 3.604-.374 9.457 4.523 8.812l60.259-7.929c2.424-.319 4.872 1.219 5.262 3.633a4.449 4.449 0 01-3.7 5.126l-86.911 13.551a8.136 8.136 0 00-5.233 3.126c-3.626 4.786-.998 11.715 4.89 12.894l81.581 16.317v10.182a20.958 20.958 0 01-6.138 14.819l-12.723 12.722h75.449l-12.724-12.724a20.958 20.958 0 01-6.138-14.819v-10.184h-.001z" fill="#73af00"/></svg>