<svg xmlns="http://www.w3.org/2000/svg" viewBox="0 0 512 512"><path d="M473.655 88.277H38.345c-18.486 0-33.914 13.084-37.537 30.495h510.386c-3.624-17.412-19.053-30.495-37.539-30.495z" fill="#ff4b55"/><path d="M.808 118.772a38.447 38.447 0 00-.808 7.85v22.645h512v-22.645c0-2.69-.28-5.315-.808-7.85H.808z" fill="#f5f5f5"/><path fill="#ff4b55" d="M0 149.26h512v30.495H0z"/><path fill="#f5f5f5" d="M0 179.76h512v30.495H0z"/><path fill="#ff4b55" d="M0 229.518h8.826l.002 11.236H512v-30.496H0z"/><path fill="#f5f5f5" d="M8.826 229.518H0v41.729h512v-30.493H8.828z"/><path fill="#ff4b55" d="M0 271.25h512v30.495H0z"/><path fill="#f5f5f5" d="M0 301.74h512v30.495H0z"/><path fill="#ff4b55" d="M0 332.24h512v30.495H0z"/><path d="M0 385.38c0 2.69.28 5.315.807 7.849h510.386c.527-2.535.807-5.159.807-7.849v-22.646H0v22.646z" fill="#f5f5f5"/><path d="M38.337 423.724h435.327c18.483-.003 33.908-13.086 37.529-30.495H.807c3.622 17.409 19.046 30.492 37.53 30.495z" fill="#ff4b55"/><path d="M8.828 240.754h132.414a8.829 8.829 0 008.828-8.828V97.104a8.828 8.828 0 00-8.823-8.828H38.345C17.167 88.277 0 105.444 0 126.622v105.304a8.829 8.829 0 008.828 8.828z" fill="#41479b"/><path d="M72.512 127.737l-8.428 25.27-26.638.206c-2.554.02-3.614 3.279-1.559 4.797l21.429 15.825-8.035 25.398c-.77 2.435 2.003 4.45 4.081 2.965l21.674-15.489 21.672 15.49c2.078 1.485 4.851-.53 4.081-2.965l-8.035-25.398 21.429-15.825c2.055-1.517.995-4.778-1.559-4.797l-26.638-.206-8.428-25.27c-.81-2.424-4.237-2.424-5.046-.001z" fill="#f5f5f5"/></svg>