<svg xmlns="http://www.w3.org/2000/svg" viewBox="0 0 511.999 511.999"><path d="M473.655 88.275H38.345C17.167 88.275 0 105.442 0 126.62v258.759c0 21.175 17.165 38.342 38.339 38.345H473.66c21.174-.003 38.339-17.17 38.339-38.345V126.62c.001-21.178-17.166-38.345-38.344-38.345z" fill="#ff4b55"/><path d="M441.379 158.896v194.207H70.621V158.896h370.758" fill="#73af00"/><path d="M238.378 256.025c0-33.425 22.767-61.417 53.587-69.525 1.026-.27.952-1.754-.1-1.889a66.738 66.738 0 00-8.533-.566c-39.785 0-71.992 32.202-71.992 71.98 0 39.606 32.207 71.896 71.992 71.896 2.898 0 5.745-.209 8.544-.569 1.052-.136 1.125-1.619.1-1.889-30.826-8.121-53.598-36.154-53.598-69.438z" fill="#f5f5f5"/></svg>