<svg xmlns="http://www.w3.org/2000/svg" viewBox="0 0 512 512"><path d="M473.655 423.724H38.345C17.167 423.724 0 406.557 0 385.379V126.621c0-21.177 17.167-38.345 38.345-38.345h435.31c21.177 0 38.345 17.167 38.345 38.345V385.38c0 21.177-17.167 38.344-38.345 38.344z" fill="#41479b"/><path d="M16.513 416.896L512 211.868v-61.793L9.117 410.187a38.57 38.57 0 007.396 6.709z" fill="#f5f5f5"/><path d="M497.983 96.982L4.451 403.311a38.34 38.34 0 004.665 6.874L512 150.074V126.62c0-11.941-5.46-22.605-14.017-29.638z" fill="#ff9b55"/><path fill="#f5f5f5" d="M145.903 210.175l57.131-7.135-57.131-7.134 28.955-17.76-36.027 8.809 21.926-29.913-29.913 21.925 8.808-36.026-17.758 28.955-7.135-57.132-7.135 57.132-17.759-28.955 8.809 36.026-29.914-21.925 21.926 29.913-36.027-8.809 28.955 17.76-57.131 7.134 57.131 7.135-28.955 17.759 36.027-8.809-21.926 29.913 29.914-21.925-8.809 36.026 17.759-28.954 7.135 57.131 7.135-57.131 17.758 28.954-8.808-36.026 29.913 21.925-21.926-29.913 36.027 8.809z"/></svg>