<svg xmlns="http://www.w3.org/2000/svg" viewBox="0 0 512 512"><path d="M473.655 423.724H38.345C17.167 423.724 0 406.557 0 385.379V126.621c0-21.177 17.167-38.345 38.345-38.345h435.31c21.177 0 38.345 17.167 38.345 38.345V385.38c0 21.177-17.167 38.344-38.345 38.344z" fill="#73af00"/><g fill="#ffe15a"><path d="M351.049 224.986c-.236-1.508-2.423-1.433-2.595.084-5.266 46.402-44.626 82.453-92.452 82.453-47.811 0-87.185-36.051-92.452-82.451-.172-1.517-2.359-1.593-2.595-.084a92.275 92.275 0 00-1.132 14.315c0 53.067 43.07 96.151 96.18 96.151 53.128 0 96.18-43.083 96.18-96.151a92.92 92.92 0 00-1.134-14.317z"/><path d="M254.81 185.272l-6.955 20.854-21.983.17c-1.205.009-1.705 1.547-.735 2.263l17.685 13.059-6.631 20.96c-.363 1.149.945 2.1 1.926 1.399L256 231.196l17.885 12.783c.981.701 2.289-.249 1.926-1.399l-6.631-20.96 17.685-13.059c.97-.716.47-2.254-.735-2.263l-21.983-.17-6.955-20.854c-.383-1.145-2.001-1.145-2.382-.002z"/></g></svg>