<svg xmlns="http://www.w3.org/2000/svg" viewBox="0 0 512 512"><path d="M473.655 423.724H38.345C17.167 423.724 0 406.557 0 385.379V126.621c0-21.177 17.167-38.345 38.345-38.345h435.31c21.177 0 38.345 17.167 38.345 38.345V385.38c0 21.177-17.167 38.344-38.345 38.344z" fill="#4173cd"/><path d="M216.518 344.275c-.742 13.188 7.988 14.813 12.717 14.884s11.895 2.15 18.56 3.511c6.665 1.362 8.814-4.157 8.814-4.157 3.942 5.16 7.787 3.584 7.787 3.584 3.153-3.153 11.562-4.73 14.858-4.946 3.296-.215 2.508-4.729 2.508-4.729 3.454-1.921 5.791-4.122 7.462-6.347.072.032.135.082.206.113 5.661 2.436 10.033-2.723 10.964-4.658.576-1.197 1.631-1.726 2.385-1.984l.267 2.987c2.436-3.511 7.74-2.221 7.74-2.221-5.447-8.384-10.964-4.514-10.964-4.514l2.138 2.031c-3.244 1.635-5.17 8.108-9.949 6.21-.408-.162-.754-.395-1.118-.609 1.929-3.825 1.992-7.433 1.476-9.495-.931-3.726-6.665-4.586-9.459-.788-1.953 2.655-.717 6.756 2.114 9.832-1.495 1.043-3.404 2.013-5.911 2.709-7.74 2.15-19.349-8.026-27.374-8.456-8.026-.43-15.049 6.306-19.062 10.606s-9.398.491-9.316-2.293m63.417-10.895c1.505-.644 2.15.502 2.365 2.365.09.781-.339 2.059-1.391 3.432-1.658-2.549-1.929-5.386-.974-5.797z" fill="#73af00"/><g fill="#f5f5f5"><path d="M239.247 360.181l-4.279 2.202 1.195-2.957zm-3.992-1.021l-3.956 2.036 1.105-2.733zm-3.69-.743l-2.924 1.649.755-2.093zm32.831 3.681l-4.658 1.211 1.816-2.624zm-3.234-1.724l-4.339.983 1.754-2.371zm-3.027-1.588l-2.977 1.548.824-2.065z"/><ellipse transform="rotate(144.875 197.949 202.013)" cx="197.952" cy="202.014" rx="2.02" ry="2.637"/><ellipse transform="rotate(35.125 314.037 202.026)" cx="314.048" cy="202.017" rx="2.02" ry="2.637"/><path d="M283.693 245.695v51.433c0 15.271-12.424 27.694-27.694 27.694s-27.694-12.424-27.694-27.694v-51.433h55.388m15.826-19.782h-87.04a3.956 3.956 0 00-3.956 3.956v67.258c0 26.22 21.256 47.477 47.476 47.477s47.476-21.256 47.476-47.477v-67.258a3.956 3.956 0 00-3.956-3.956z"/></g><path d="M228.305 245.695h-19.782v-10.954a8.829 8.829 0 018.828-8.828h10.954v19.782zM246.1 225.91h19.782v19.782H246.1zm-37.58 39.57h19.782v19.782H208.52zm75.18 0h19.782v19.782H283.7zm19.775-19.785h-19.781v-19.782h10.954a8.829 8.829 0 018.828 8.828v10.954h-.001zm-30.645 95.783l-7.611-18.267a27.5 27.5 0 01-9.219 1.611c-3.235 0-6.33-.587-9.219-1.611l-7.61 18.267c5.238 1.99 10.895 3.127 16.83 3.127s11.591-1.139 16.829-3.127zm-51.853-12.376l15.473-12.377a27.657 27.657 0 01-7.677-14.643l-19.071 5.449c1.835 8.201 5.8 15.578 11.275 21.571zm81.319-21.572l-19.071-5.449a27.65 27.65 0 01-7.677 14.643l15.473 12.377c5.474-5.992 9.439-13.369 11.275-21.571z" fill="#ff4b55"/><path d="M214.46 229.87h7.913v11.869h-7.913zm0 39.56h7.913v11.869h-7.913zm3.96 39.57h7.913v11.869h-7.913zm67.25 0h7.913v11.869h-7.913zm3.96-79.13h7.913v11.869h-7.913z" fill="#ffe15a"/><path d="M214.46 249.52h7.913v11.869h-7.913zm75.17 0h7.913v11.869h-7.913zm-75.17 39.24h7.913v11.869h-7.913zm17.05 34.99h7.913v11.869h-7.913zm41.05 0h7.913v11.869h-7.913zm17.07-34.99h7.913v11.869h-7.913z" fill="#ff4b55"/><path fill="#ffe15a" d="M252.04 229.87h7.913v11.869h-7.913z"/><path d="M233.25 229.87h7.913v11.869h-7.913zm37.26 0h7.913v11.869h-7.913z" fill="#ff4b55"/><path d="M289.63 269.43h7.913v11.869h-7.913zm-37.59 59.35h7.913v11.869h-7.913zm3.959-75.543c7.636 0 13.847 6.211 13.847 13.847s-6.212 13.847-13.847 13.847c-7.636 0-13.847-6.211-13.847-13.847s6.211-13.847 13.847-13.847m0-1.979c-8.74 0-15.826 7.085-15.826 15.826s7.085 15.826 15.826 15.826c8.74 0 15.826-7.085 15.826-15.826 0-8.74-7.086-15.826-15.826-15.826z" fill="#ffe15a"/><path d="M253.609 265.972c-3.924 0-6.374 1.105-7.907 2.477.63-3.107 1.941-6.434 4.692-6.434a.99.99 0 000-1.978c-2.728 0-4.425 1.9-5.487 4.284-.652-12.974-2.667-13.023-3.414-13.023a.99.99 0 00-.989.989c0 .476.332.87.779.966.413.494.767 2.158 1.054 4.465-1.28-2.718-3.14-4.689-5.871-4.689a.99.99 0 000 1.978c2.701 0 4.36 3.295 5.35 7.254-1.898-2.707-4.762-4.696-8.975-4.696a.99.99 0 000 1.978c4.376 0 6.887 2.524 8.335 5.441-1.697-1.437-4.117-2.474-7.594-2.474a.99.99 0 000 1.978c9.411 0 9.559 8.855 9.56 9.234 0 .143.098.245.153.369.05.108.052.242.135.324l.002.003c.179.179.426.29.698.29h.002c.102-.001.168-.079.26-.108a.9.9 0 00.61-.598c.033-.097.116-.167.117-.275.004-.236.17-5.777 8.49-5.777a.988.988 0 100-1.978zm4.863 0c3.924 0 6.374 1.105 7.907 2.477-.63-3.107-1.941-6.434-4.692-6.434a.99.99 0 010-1.978c2.728 0 4.425 1.9 5.487 4.284.652-12.974 2.667-13.023 3.414-13.023a.99.99 0 01.989.989c0 .476-.332.87-.779.966-.413.494-.767 2.158-1.054 4.465 1.28-2.718 3.14-4.689 5.871-4.689.546 0 .989.445.989.989s-.443.989-.989.989c-2.701 0-4.36 3.295-5.35 7.254 1.898-2.707 4.762-4.696 8.975-4.696a.99.99 0 010 1.978c-4.376 0-6.887 2.524-8.335 5.441 1.697-1.437 4.117-2.474 7.594-2.474a.99.99 0 010 1.978c-9.411 0-9.559 8.855-9.56 9.234 0 .143-.098.245-.153.369-.05.108-.052.242-.135.324l-.002.003a.985.985 0 01-.698.29h-.002c-.102-.001-.168-.079-.26-.108a.9.9 0 01-.61-.598c-.033-.097-.116-.167-.117-.275-.003-.236-.17-5.777-8.49-5.777a.99.99 0 010-1.978z" fill="#73af00"/><path d="M240.733 271.04c1.764 6.814 7.901 11.869 15.266 11.869 7.366 0 13.501-5.055 15.266-11.869h-30.532z" fill="#ff4b55"/><path d="M255.999 282.91c7.366 0 13.501-5.055 15.266-11.869h-15.266v11.869zm0 6.181c7.636 0 13.847 6.211 13.847 13.847s-6.212 13.847-13.847 13.847c-7.636 0-13.847-6.211-13.847-13.847s6.211-13.847 13.847-13.847m0-1.978c-8.74 0-15.826 7.085-15.826 15.826s7.085 15.826 15.826 15.826c8.74 0 15.826-7.085 15.826-15.826s-7.086-15.826-15.826-15.826z" fill="#ffe15a"/><path d="M253.609 301.826c-3.924 0-6.374 1.105-7.907 2.477.63-3.107 1.941-6.434 4.692-6.434a.99.99 0 000-1.978c-2.728 0-4.425 1.9-5.487 4.284-.652-12.974-2.667-13.023-3.414-13.023a.99.99 0 00-.989.989c0 .476.332.87.779.966.413.494.767 2.158 1.054 4.465-1.28-2.718-3.14-4.689-5.871-4.689a.99.99 0 000 1.978c2.701 0 4.36 3.295 5.35 7.254-1.898-2.707-4.762-4.696-8.975-4.696a.99.99 0 000 1.978c4.376 0 6.887 2.524 8.335 5.441-1.697-1.437-4.117-2.474-7.594-2.474a.99.99 0 000 1.978c9.411 0 9.559 8.855 9.56 9.234 0 .143.098.245.153.369.05.108.052.242.135.324l.002.003c.179.179.426.29.698.29h.002c.102-.001.168-.079.26-.108a.9.9 0 00.61-.598c.033-.097.116-.167.117-.275.004-.236.17-5.777 8.49-5.777a.989.989 0 100-1.978zm4.863 0c3.924 0 6.374 1.105 7.907 2.477-.63-3.107-1.941-6.434-4.692-6.434a.99.99 0 010-1.978c2.728 0 4.425 1.9 5.487 4.284.652-12.974 2.667-13.023 3.414-13.023a.99.99 0 01.989.989c0 .476-.332.87-.779.966-.413.494-.767 2.158-1.054 4.465 1.28-2.718 3.14-4.689 5.871-4.689a.99.99 0 010 1.978c-2.701 0-4.36 3.295-5.35 7.254 1.898-2.707 4.762-4.696 8.975-4.696a.99.99 0 010 1.978c-4.376 0-6.887 2.524-8.335 5.441 1.697-1.437 4.117-2.474 7.594-2.474a.99.99 0 010 1.978c-9.411 0-9.559 8.855-9.56 9.234 0 .143-.098.245-.153.369-.05.108-.052.242-.135.324l-.002.003a.985.985 0 01-.698.29h-.002c-.102-.001-.168-.079-.26-.108a.9.9 0 01-.61-.598c-.033-.097-.116-.167-.117-.275-.003-.236-.17-5.777-8.49-5.777a.99.99 0 010-1.978z" fill="#73af00"/><path d="M240.733 306.895c1.764 6.814 7.901 11.869 15.266 11.869 7.366 0 13.501-5.055 15.266-11.869h-30.532z" fill="#ff4b55"/><path d="M255.999 318.764c7.366 0 13.501-5.055 15.266-11.869h-15.266v11.869z" fill="#ffe15a"/><path d="M200.609 237.782v-7.913h-19.781v7.913h3.957v87.04h-3.957v7.913h19.781v-7.913h-3.956v-87.04zm130.561 0v-7.913h-19.782v7.913h3.957v87.04h-3.957v7.913h19.782v-7.913h-3.957v-87.04z" fill="#f5f5f5"/><path d="M299.519 225.913h-87.04a7.913 7.913 0 010-15.826h87.04a7.913 7.913 0 010 15.826z" fill="#ffe15a"/><path d="M258.966 220.968h-5.934a2.967 2.967 0 010-5.934h5.934a2.967 2.967 0 010 5.934z" fill="#ff4b55"/><path d="M288.639 220.968h-5.934a2.967 2.967 0 010-5.934h5.934a2.968 2.968 0 010 5.934zm-59.346 0h-5.934a2.967 2.967 0 010-5.934h5.934a2.967 2.967 0 010 5.934z" fill="#73af00"/><path d="M311.554 193.685l-5.77 1.978.556 5.504c-6.372 7.241-9.57 7.708-10.887 7.25-1.63-.563-2.381-2.886-2.684-4.666l2.381 2.381c11.869-11.869 5.069-29.302 5.069-29.302-3.338.618-4.822 3.709-4.822 3.709-3.091-.247-6.305 0-6.305 0-.247 2.72.742 6.552.742 6.552-6.785 1.399-9.578 5.076-9.578 5.076 1.164 3.258 4.881 6.051 4.881 6.051-1.112 2.72.247 5.934.247 5.934 1.698 0 3.167-.512 4.206-1.014-4.431 5.524-6.517 5.656-7.224 5.39-2.141-.794-2.684-7.117-2.383-11.353a.99.99 0 00-.631-.993 1.001 1.001 0 00-1.134.313l-3.412 4.35c-14.238-18.969-2.98-30.322-2.98-30.322v-7.913h-3.956v3.956h-3.391v-3.956h-3.391v3.956h-3.391v-3.956h-3.391v3.956h-3.391v-3.956h-3.391v3.956h-3.391v-3.956h-3.956v7.913s11.257 11.351-2.98 30.322l-3.412-4.35a.99.99 0 00-1.765.68c.301 4.236-.239 10.558-2.383 11.353-.71.257-2.799.13-7.239-5.409 1.041.51 2.522 1.034 4.243 1.034 0 0 1.359-3.214.247-5.934 0 0 3.716-2.793 4.881-6.051 0 0-2.793-3.677-9.578-5.076 0 0 .989-3.832.742-6.552 0 0-3.214-.247-6.305 0 0 0-1.484-3.091-4.822-3.709 0 0-6.801 17.432 5.069 29.302l2.354-2.354c-.306 1.778-1.057 4.079-2.679 4.64-1.324.459-4.511-.008-10.867-7.226l.558-5.527-5.77-1.978c-2.967-8.984-10.056-7.913-10.056-7.913 4.698 4.039 5.687 14.342 5.687 14.342l12.199 11.869.66-1.896c-.273-1.585-.697-2.825-1.154-3.829 3.827 3.535 6.934 4.888 9.393 4.026 2.414-.836 3.438-3.564 3.871-5.623 3.245 4.01 5.852 5.94 8.029 5.94a3.46 3.46 0 001.225-.221c3.111-1.151 3.711-6.639 3.755-10.306l2.143 2.732v7.281h15.826a3.956 3.956 0 117.912 0h15.826v-7.281l2.143-2.732c.044 3.667.646 9.155 3.755 10.306.392.147.8.221 1.225.221 2.177 0 4.783-1.932 8.029-5.94.433 2.059 1.457 4.787 3.871 5.623 2.471.862 5.588-.499 9.429-4.057-.461 1.01-.893 2.259-1.169 3.861l.66 1.896 12.199-11.869s.989-10.303 5.687-14.342c-.006-.004-7.095-1.075-10.062 7.909z" fill="#ffe15a"/><path d="M241.162 220.968a2.967 2.967 0 010-5.934 2.966 2.966 0 110 5.934zm29.673 0a2.967 2.967 0 010-5.934 2.968 2.968 0 010 5.934z" fill="#f5f5f5"/><path d="M300.508 220.968a2.967 2.967 0 010-5.934 2.968 2.968 0 010 5.934zm-89.019 0a2.967 2.967 0 010-5.934 2.966 2.966 0 110 5.934z" fill="#ff4b55"/><g fill="#f5f5f5"><circle cx="256" cy="186.35" r="3.956"/><ellipse transform="rotate(165.836 216.291 192.855)" cx="216.291" cy="192.855" rx="2.556" ry="2.967"/><ellipse transform="rotate(14.164 295.744 192.854)" cx="295.745" cy="192.853" rx="2.556" ry="2.967"/><path d="M208.522 264.186c-3.737-.707-8.716-1.223-14.182-.646-5.353.564-11.605 2.228-17.47 6.212v25.061c8.189-19.793 26.451-15.967 31.651-14.397v-16.23h.001zm94.953 0c3.737-.707 8.716-1.223 14.182-.646 5.353.564 11.605 2.228 17.47 6.212v25.061c-8.189-19.793-26.451-15.967-31.651-14.397v-16.23h-.001z"/></g><path d="M234.411 331.147s-4.263 6.69-6.421 7.338c0 0-2.925 2.131-3.519 1.916l10.264-11.897-.324 2.643z" fill="#ff4b55"/><path d="M234.036 335.009c-2.006-.215-3.583.931-4.586 2.293s-3.705 1.81-3.985.041c-.252-1.591 5.353-6.563 5.353-6.563s-.931-1.676-3.491-1.024c-2.434.62-4.828 4.536-4.828 4.536s-2.433-.952-4.388.676l-8.367 9.571s10.278 8.78 23.361-4.157l-2.221-.717c.715-2.72 3.152-4.656 3.152-4.656z" fill="#73af00"/><g fill="#f5f5f5"><circle cx="221.69" cy="337.48" r=".971"/><path d="M180.828 168.185a101.646 101.646 0 0135.607 6.295v-12.397a101.596 101.596 0 00-35.607-5.519v11.621zm98.909-13.486a101.688 101.688 0 00-47.476 0V142.83a101.688 101.688 0 0147.476 0v11.869z"/><path d="M236.217 145.655a101.64 101.64 0 00-28.301 6.795l1.707 11.746c8.552-3.415 17.503-5.598 26.594-6.599v-11.942zm-59.345 36.08c5.39-1.505 10.878-2.614 16.433-3.224v-11.943c-5.548.515-11.036 1.534-16.433 2.946v12.221zm154.298-13.55a101.646 101.646 0 00-35.607 6.295v-12.397a101.596 101.596 0 0135.607-5.519v11.621z"/><path d="M275.78 145.655a101.64 101.64 0 0128.301 6.795l-1.707 11.746c-8.552-3.415-17.503-5.598-26.594-6.599v-11.942zm59.346 36.08c-5.39-1.505-10.878-2.614-16.433-3.224v-11.943c5.548.515 11.036 1.534 16.433 2.946v12.221z"/></g></svg>