<svg xmlns="http://www.w3.org/2000/svg" viewBox="0 0 512 512"><path d="M473.655 423.724H38.345C17.167 423.724 0 406.557 0 385.379V126.621c0-21.177 17.167-38.345 38.345-38.345h435.31c21.177 0 38.345 17.167 38.345 38.345V385.38c0 21.177-17.167 38.344-38.345 38.344z" fill="#82afff"/><path d="M254.837 136.575l-6.801 20.392-21.495.167c-1.178.009-1.667 1.513-.719 2.214l17.292 12.769-6.484 20.494c-.355 1.123.924 2.054 1.882 1.368l17.487-12.5 17.489 12.5c.959.685 2.238-.244 1.882-1.368l-6.484-20.494 17.292-12.769c.948-.7.459-2.204-.719-2.214l-21.495-.167-6.801-20.392c-.372-1.118-1.954-1.118-2.326 0zm0 182.062l-6.801 20.392-21.495.167c-1.178.009-1.667 1.513-.719 2.214l17.292 12.769-6.484 20.494c-.355 1.123.924 2.054 1.882 1.368l17.487-12.5 17.489 12.5c.959.685 2.238-.244 1.882-1.368l-6.484-20.494 17.292-12.769c.948-.7.459-2.204-.719-2.214l-21.495-.167-6.801-20.392c-.372-1.118-1.954-1.118-2.326 0zm120.594-63.795l-20.392-6.801-.167-21.495c-.009-1.178-1.513-1.667-2.214-.719l-12.769 17.292-20.494-6.484c-1.123-.355-2.053.924-1.368 1.882l12.5 17.489-12.5 17.489c-.685.959.244 2.238 1.368 1.882l20.494-6.484 12.769 17.292c.7.948 2.204.459 2.214-.719l.167-21.495 20.392-6.801c1.117-.373 1.117-1.955 0-2.328zm-238.862 0l20.392-6.801.167-21.495c.009-1.178 1.513-1.667 2.214-.719l12.769 17.292 20.494-6.484c1.123-.355 2.054.924 1.368 1.882l-12.5 17.489 12.5 17.489c.685.959-.244 2.238-1.368 1.882l-20.494-6.484-12.769 17.292c-.7.948-2.204.459-2.214-.719l-.167-21.495-20.392-6.801c-1.117-.373-1.117-1.955 0-2.328z" fill="#f5f5f5"/></svg>