<svg xmlns="http://www.w3.org/2000/svg" viewBox="0 0 512 512"><path d="M473.655 88.273H341.333v335.448h132.322c21.177 0 38.345-17.167 38.345-38.345V126.618c0-21.178-17.167-38.345-38.345-38.345z" fill="#ff4b55"/><path fill="#ffe15a" d="M170.67 88.277h170.67v335.45H170.67z"/><path d="M38.345 88.273C17.167 88.273 0 105.44 0 126.618v258.759c0 21.177 17.167 38.345 38.345 38.345h132.322V88.273H38.345z" fill="#41479b"/><path fill="#ffcd5a" d="M291.673 312.915l-4.391 3.58-20.011-24.542 4.391-3.58z"/><path fill="#ffbe5a" d="M282.648 297.397l-8.783 7.155-8.803-10.805 8.784-7.155z"/><path fill="#ffcd5a" d="M242.795 288.374l4.391 3.58-20.01 24.543-4.392-3.58z"/><path fill="#ffbe5a" d="M240.592 286.593l8.784 7.155-8.803 10.806-8.783-7.156z"/><path fill="#ffe15a" d="M250.14 297.584l-14.163 28.326 19.828 14.163v-39.657z"/><path fill="#ffcd5a" d="M261.471 297.584l14.163 28.326-19.829 14.163v-39.657z"/><path d="M216.148 297.584v-73.65h8.498v56.653c0 8.497-8.498 16.997-8.498 16.997z" fill="#ffbe5a"/><path d="M210.482 311.747v-87.814h8.498v70.817c-.001 8.498-8.498 16.997-8.498 16.997z" fill="#ffcd5a"/><path d="M204.817 323.078v-99.144h8.498v82.148c0 8.497-8.498 16.996-8.498 16.996z" fill="#ffe15a"/><path d="M224.646 226.766v53.821c0 14.164 20.537 12.275 31.159 22.661 10.623-10.387 31.159-8.498 31.159-22.661v-53.821h-62.318z" fill="#ff4b55"/><path d="M224.646 257.926v22.662c0 14.164 20.537 12.275 31.159 22.661 10.623-10.387 31.159-8.498 31.159-22.662v-22.662l-62.318.001z" fill="#41479b"/><g fill="#ffe15a"><path d="M255.805 294.75l-8.498-5.665v-2.833l2.833-2.832v-16.997l-8.498-5.665 8.498-11.331h2.832l2.833 2.834 2.833-2.834h2.833l8.498 11.331-8.498 5.665v16.997l2.832 2.832v2.833z"/><path d="M244.474 229.599s-11.33 2.833-11.33 14.164c0 11.33 11.33 16.996 11.33 16.996l5.665-8.498c-16.996-5.666-5.665-22.662-5.665-22.662zm22.662 0s11.33 2.833 11.33 14.164c0 11.33-11.33 16.996-11.33 16.996l-5.665-8.498c16.995-5.666 5.665-22.662 5.665-22.662z"/><path d="M227.478 257.926l5.665 2.832 5.666-2.832-5.666-2.833zm45.323 0l5.665 2.832 5.666-2.832-5.666-2.833zm-16.996-26.911l2.06 2.11 2.947-.036-.034 2.948 2.109 2.06-2.109 2.06.034 2.947-2.947-.035-2.06 2.11-2.059-2.11-2.949.035.036-2.947-2.109-2.06 2.109-2.06-.036-2.948 2.949.036zm-19.237 39.282l2.042 2.272 2.84-1.126c1.471-.583 2.851 1.016 2.059 2.386l-1.529 2.645 1.949 2.354c1.009 1.218-.086 3.026-1.633 2.696l-2.988-.638-1.636 2.581c-.847 1.336-2.904.853-3.069-.721l-.318-3.039-2.959-.758c-1.533-.393-1.709-2.498-.264-3.14l2.792-1.24-.193-3.049c-.097-1.582 1.85-2.4 2.907-1.223zm37.729 6.458c.625-3.222 3.283-5.503 6.382-5.847-.636-.342-1.312-.625-2.057-.769a7.318 7.318 0 00-2.786 14.368c.746.145 1.479.136 2.195.056-2.745-1.477-4.358-4.586-3.734-7.808zm-29.823-49.989l5.665-28.327-11.33-8.498 2.833-2.833h5.665s2.833-2.833 8.498-2.833c5.665 0 11.33 2.833 11.33 11.33s2.833 31.159 2.833 31.159h-25.494v.002z"/></g><path d="M224.646 215.435c-6.258 0-11.33 5.073-11.33 11.33h22.662c-.001-6.257-5.075-11.33-11.332-11.33z" fill="#ffaa5a"/><path d="M221.813 226.766h-16.996v-18.855a6.64 6.64 0 016.639-6.639h3.718a6.64 6.64 0 016.639 6.639v18.855zm73.65 70.818v-73.65h-8.498v56.653c0 8.497 8.498 16.997 8.498 16.997z" fill="#ffbe5a"/><path d="M301.128 311.747v-87.814h-8.498v70.817c0 8.498 8.498 16.997 8.498 16.997z" fill="#ffcd5a"/><path d="M306.794 323.078v-99.144h-8.498v82.148c-.001 8.497 8.498 16.996 8.498 16.996z" fill="#ffe15a"/><path d="M286.965 215.435c6.258 0 11.33 5.073 11.33 11.33h-22.662c.001-6.257 5.074-11.33 11.332-11.33z" fill="#ffaa5a"/><path d="M289.798 226.766h16.996v-18.855a6.64 6.64 0 00-6.639-6.639h-3.717a6.64 6.64 0 00-6.639 6.639l-.001 18.855z" fill="#ffbe5a"/><path fill="#ffaa5a" d="M318.97 256.821l3.63 2.21-39.669 65.142-3.629-2.21z"/><path fill="#ffe15a" d="M295.078 311.573l-7.075 8.85-6.92-5.532 7.074-8.85z"/><path fill="#ffcd5a" d="M317.717 256.084l6.05 3.681-8.498 13.961-6.05-3.681z"/><g fill="#73af00"><path d="M194.253 260.052l39.985 61.851-2.38 1.538-39.984-61.851z"/><path d="M219.413 289.383c-1.016 1.152-1.69 2.899-1.86 4.913-1.397-1.41-3.001-2.308-4.495-2.549-.394 1.461-.234 3.293.479 5.145-1.907-.672-3.775-.775-5.242-.321.413 2.088 2.114 4.354 4.721 5.909 2.606 1.556 5.409 1.976 7.442 1.348l.582-.376c1.407-1.597 2.174-4.324 1.826-7.339-.351-3.015-1.72-5.496-3.453-6.73z"/></g><circle cx="220.75" cy="303.647" r="2.833" fill="#ff4b55"/><path d="M208.648 272.731c-1.016 1.152-1.69 2.899-1.86 4.913-1.397-1.41-3.001-2.308-4.495-2.549-.394 1.461-.234 3.293.479 5.145-1.907-.672-3.775-.775-5.242-.321.413 2.088 2.114 4.354 4.721 5.909 2.606 1.556 5.409 1.976 7.442 1.348l.582-.376c1.407-1.597 2.174-4.324 1.826-7.339-.35-3.016-1.719-5.497-3.453-6.73z" fill="#73af00"/><circle cx="209.99" cy="286.997" r="2.833" fill="#ff4b55"/><path d="M197.884 256.079c-1.016 1.152-1.69 2.899-1.86 4.913-1.397-1.41-3.001-2.308-4.495-2.549-.394 1.461-.234 3.293.479 5.145-1.907-.672-3.775-.775-5.242-.321.413 2.088 2.114 4.354 4.721 5.909 2.606 1.556 5.409 1.976 7.442 1.348l.582-.376c1.407-1.597 2.174-4.324 1.826-7.339-.352-3.016-1.72-5.497-3.453-6.73z" fill="#73af00"/><circle cx="199.22" cy="270.347" r="2.833" fill="#ff4b55"/><g fill="#ffe15a"><path d="M226.293 306.052l7.075 8.851-6.921 5.533-7.075-8.85zm12.517-127.435h2.833v19.829h-2.833z"/><path d="M235.97 181.447h8.498v2.833h-8.498z"/></g><path fill="#ff875a" d="M238.809 189.941l8.498 6.374v-9.206h-5.665z"/><path d="M241.642 178.61v2.833h2.833v2.833h-2.833v2.833h5.665s2.833-2.833 8.498-2.833 11.33 2.833 11.33 11.33c0 8.498 2.833 31.159 2.833 31.159h5.665c0-6.258 5.073-11.33 11.33-11.33.984 0 1.922.164 2.833.401v-6.066a8.498 8.498 0 0116.996 0v67.023l3.658-6.009-1.209-.736 8.498-13.962 1.209.736 1.815 1.106 3.025 1.841-8.498 13.962-1.21-.736-7.288 11.974v38.113s-6.764-6.783-8.212-14.287c-1.035-1.33-2.227-3.026-3.276-4.952l-3.242 5.326 3.014 2.409-7.075 8.851-1.879-1.502-3.202 5.261-3.629-2.21 3.485-5.726-1.692-1.353 2.409-3.013-7.433-9.116-2.197 1.79-6.609-8.11c-1.759.707-3.498 1.484-5.171 2.372l13.547 27.095-19.829 14.164-19.829-14.164 13.547-27.095a46.6 46.6 0 00-3.055-1.492l-5.891 7.23-2.197-1.79-7.433 9.116 2.409 3.013-2.406 1.923 3.288 5.086-2.379 1.538-3.133-4.846-2.287 1.828-7.075-8.851 3.179-2.541-1.685-2.607-.119.002c-.926 0-1.833-.413-2.372-1.248a2.77 2.77 0 01-.409-1.135 9.436 9.436 0 01-1.635-.242c-1.053 1.941-2.253 3.65-3.294 4.989-1.447 7.505-8.212 14.287-8.212 14.287v-36.135c-.856-.269-1.719-.611-2.568-1.118-2.606-1.556-4.308-3.822-4.721-5.909a6.658 6.658 0 011.961-.276c1.03 0 2.15.199 3.282.597-.369-.96-.584-1.91-.655-2.81l-2.786-4.31-.119.002c-.926 0-1.833-.413-2.372-1.248a2.787 2.787 0 01-.41-1.135c-1.568-.094-3.286-.574-4.943-1.562-2.606-1.556-4.308-3.822-4.721-5.909a6.663 6.663 0 011.961-.276c1.03 0 2.15.198 3.282.597-.713-1.853-.873-3.684-.479-5.145 1.494.241 3.098 1.139 4.495 2.549.17-2.014.844-3.761 1.859-4.913 1.734 1.234 3.102 3.715 3.45 6.731.222 1.918-.046 3.681-.605 5.15.335.213.638.484.867.84.563.871.543 1.918.113 2.783l2.786 4.31c.108.06.214.132.322.199v-66.321a8.498 8.498 0 0116.996 0v6.066c.91-.236 1.848-.401 2.833-.401 6.258 0 11.33 5.073 11.33 11.33h8.498l5.665-28.327-2.833-2.124-5.665-4.249v6.374h-2.833v-14.164h-2.833v-2.833h2.833v-2.833h2.844m45.467 128.741l1.046-1.309.557.445 4.566-7.501c-.398-1.387-.653-2.81-.653-4.237v-.498c-2.472-3.252-5.665-8.455-5.665-13.666 0 5.966-3.662 9.074-8.674 11.462l4.36 5.351-2.195 1.788 6.658 8.165m-62.345-.1l1.514-1.21 1.046 1.309 6.658-8.167-2.195-1.788 3.605-4.424c-6.051-2.527-10.752-5.623-10.752-12.387 0 3.793-1.693 7.578-3.567 10.616.89 1.306 1.561 2.976 1.785 4.91.222 1.918-.046 3.681-.605 5.15.335.213.638.484.867.84.563.871.543 1.917.113 2.783l1.531 2.368m16.873-130.767h-2.833a2.124 2.124 0 00-2.124 2.124v.708h-.708a2.124 2.124 0 00-2.124 2.124v2.833c0 1.173.951 2.124 2.124 2.124h.708v12.039c0 1.173.951 2.124 2.124 2.124h2.833a2.124 2.124 0 002.124-2.124v-2.124l2.266 1.699 1.761 1.321-5.062 25.306h-4.799c-1.022-6.413-6.591-11.33-13.288-11.33-.235 0-.47.008-.708.022v-3.563c0-5.857-4.766-10.623-10.623-10.623s-10.623 4.766-10.623 10.623v49.575c-.767-2.115-2.014-3.885-3.577-4.998a2.121 2.121 0 00-2.824.325c-.654.743-1.192 1.647-1.593 2.667-.93-.504-1.887-.844-2.831-.996a2.125 2.125 0 00-2.388 1.543c-.249.922-.332 1.934-.254 2.989a10.407 10.407 0 00-.498-.012c-.92 0-1.791.125-2.588.371a2.126 2.126 0 00-1.458 2.442c.55 2.776 2.686 5.514 5.716 7.321a13.39 13.39 0 004.457 1.685 4.853 4.853 0 003.243 2.44l1.548 2.395-.154-.001c-.92 0-1.791.125-2.588.371a2.126 2.126 0 00-1.458 2.442c.55 2.776 2.686 5.514 5.716 7.321.484.289.988.545 1.532.776v34.648a2.124 2.124 0 003.629 1.499c.289-.289 6.952-7.042 8.689-14.879a40.301 40.301 0 001.974-2.834 4.887 4.887 0 002.643 1.565l.092.141-1.678 1.342a2.124 2.124 0 00-.333 2.987l7.075 8.851a2.124 2.124 0 002.986.333l.452-.361 1.857 2.873a2.124 2.124 0 002.937.63l1.374-.888-.311.623a2.125 2.125 0 00.665 2.679l19.829 14.164a2.122 2.122 0 002.47 0l19.829-14.164a2.123 2.123 0 00.665-2.679l-12.597-25.195a53.434 53.434 0 011.674-.753l5.609 6.883a2.122 2.122 0 002.99.304l.551-.448 5.006 6.141-1.338 1.674a2.126 2.126 0 00.333 2.987l.232.185-2.514 4.129a2.125 2.125 0 00.71 2.919l3.629 2.21a2.126 2.126 0 002.921-.711l1.947-3.199a2.125 2.125 0 002.979-.339l7.075-8.851c.26-.326.409-.705.452-1.09 2.308 6.903 7.838 12.507 8.1 12.769a2.127 2.127 0 002.316.464 2.125 2.125 0 001.313-1.963v-37.514l5.937-9.752a2.123 2.123 0 002.252-.976l8.498-13.962a2.116 2.116 0 00.249-1.607 2.131 2.131 0 00-.96-1.313l-3.025-1.841-1.814-1.105-1.212-.737a2.12 2.12 0 00-2.917.712l-7.007 11.512v-56.722c0-5.857-4.766-10.623-10.623-10.623s-10.623 4.766-10.623 10.623v3.563a12.008 12.008 0 00-.708-.022c-6.697 0-12.266 4.917-13.288 11.33h-1.827c-.67-5.577-2.59-22.173-2.59-29.035 0-9.92-6.951-13.455-13.455-13.455-4.817 0-7.925 1.836-9.258 2.833h-.07c.078-.222.121-.46.121-.708v-2.833a2.124 2.124 0 00-2.124-2.124h-.708v-.708a2.13 2.13 0 00-2.129-2.121zM223.55 291.199a30.647 30.647 0 001.426-2.831c1.771 2.377 4.319 4.067 7.031 5.405l-1.86 2.283a2.126 2.126 0 00.304 2.989l.546.446-3.785 4.642a2.126 2.126 0 00-1.551-.122 4.82 4.82 0 00-.981-3.386c.378-1.519.48-3.138.294-4.756a13.364 13.364 0 00-1.424-4.67zm58.029 1.523c1.871-1.091 3.688-2.473 5.066-4.33 1.085 2.477 2.511 4.73 3.861 6.569.017 1.183.179 2.401.491 3.694l-3.225 5.299c-.186.034-.37.094-.543.179l-3.785-4.642.546-.446a2.123 2.123 0 00.304-2.989l-2.715-3.334zm-41.003 13.956c.617 0 1.228-.267 1.649-.782l3.583-4.396-9.697 19.394a1.97 1.97 0 00-.086-.145l-2.244-3.473.905-.724a2.124 2.124 0 00.333-2.986l-1.338-1.674 5.006-6.141.551.448c.391.324.866.479 1.338.479zm54.274 1.993l.462-.76c.406.598.836 1.194 1.288 1.788.04.179.082.356.127.534a2.126 2.126 0 00-.323-.32l-1.554-1.242z" fill="#ffaa5a"/></svg>