<svg xmlns="http://www.w3.org/2000/svg" viewBox="0 0 512 512"><path d="M473.655 88.276H38.345C17.167 88.276 0 105.443 0 126.621v63.539h512v-63.539c0-21.178-17.167-38.345-38.345-38.345z" fill="#5aa587"/><path d="M0 385.379c0 21.177 17.167 38.345 38.345 38.345h435.31c21.177 0 38.345-17.167 38.345-38.345V321.84H0v63.539z" fill="#ffe15a"/><path fill="#464655" d="M0 204.1h512v103.79H0z"/><path d="M0 200.092v4.01h512v-13.943H0zm0 111.816v9.933h512v-13.943H0z" fill="#f5f5f5"/><path d="M12.828 413.993l193.27-153.417c2.946-2.339 2.946-6.812 0-9.151L12.828 98.007C4.959 105.03 0 115.244 0 126.621V385.38c0 11.376 4.959 21.59 12.828 28.613z" fill="#ff4b55"/><path d="M81.814 198.577l12.905 38.695 40.789.317c2.281.018 3.226 2.929 1.391 4.284l-32.813 24.231 12.303 38.891c.687 2.175-1.788 3.974-3.644 2.647l-33.185-23.72-33.185 23.72c-1.856 1.326-4.332-.472-3.644-2.647l12.303-38.891-32.812-24.231c-1.835-1.355-.889-4.266 1.391-4.284l40.789-.317 12.905-38.695c.724-2.163 3.785-2.163 4.507 0z" fill="#ffe15a"/><g fill="#f5f5f5"><path d="M77.196 270.447l-3.19 3.21H47.328l7.281-26.717 2.975-1.487-4.776 23.82c-.04.294.02.587.215.822a.91.91 0 00.744.352h23.429zm6.4 4.443c-1.155.861-2.564 1.351-4.032 1.351s-2.877-.489-4.032-1.351l4.032-4.032 4.032 4.032zm28.205-1.233H85.123l-3.19-3.21h23.428a.91.91 0 00.744-.352 1.04 1.04 0 00.215-.822l-4.776-23.82 2.975 1.487 7.282 26.717z"/><path d="M104.168 268.49H80.543v-24.369c3.954-3.347 14.386-1.057 18.809.313l4.816 24.056zm-25.583-24.369v24.369H54.961l4.815-24.055c4.424-1.371 14.856-3.66 18.809-.314z"/></g><g fill="#464655"><path d="M114.033 274.381L106.301 246a.977.977 0 00-.509-.607l-5.167-2.583c-.02-.02-.04-.02-.078-.02-.02 0-.02-.02-.039-.04-.627-.215-14.934-4.874-20.943-.313-6.009-4.561-20.317.098-20.943.313l-.039.04c-.04 0-.058 0-.078.02l-5.167 2.583a.978.978 0 00-.509.607l-7.732 28.381a.984.984 0 00.157.842c.195.235.489.392.783.392h27.402c1.624 1.624 3.817 2.583 6.126 2.583 2.31 0 4.502-.959 6.126-2.583h27.402c.294 0 .587-.157.783-.392a.987.987 0 00.157-.842zm-33.49-30.26c3.954-3.347 14.386-1.057 18.809.313l4.815 24.055H80.543v-24.368zm-20.767.314c4.424-1.37 14.856-3.66 18.809-.313v24.369H54.961l4.815-24.056zm-12.448 29.222l7.281-26.717 2.975-1.487-4.776 23.82c-.04.294.02.587.215.822a.91.91 0 00.744.352h23.428l-3.19 3.21H47.328zm32.236 2.584a6.746 6.746 0 01-4.032-1.351l4.032-4.032 4.032 4.032a6.748 6.748 0 01-4.032 1.351zm5.559-2.584l-3.19-3.21h23.428a.91.91 0 00.744-.352 1.04 1.04 0 00.215-.822l-4.776-23.82 2.975 1.487 7.281 26.717H85.123z"/><path d="M104.034 218.558a2.51 2.51 0 01-3.211-.285l-1.302-1.302v3.187l-7.967 7.967h-3.187l-12.746 12.747h-3.187L47.926 265.38a2.252 2.252 0 00-.544 2.306l1.153 3.459-4.78 4.78h-3.187l-9.743 9.743a1.994 1.994 0 000 2.819l6.43 6.43c.928.928 2.45.87 3.304-.127l14.35-17.272 1.593-4.78 3.187-3.187 6.374 9.56 4.78-4.78-5.099-7.648 1.27-1.27a3.16 3.16 0 000-4.471l-.951-.951.895-.895c6.801 5.828 14.967 7.335 22.742 4.002l-2.663-6.214c-6.424 2.753-11.67.45-15.319-2.549l13.464-13.464-.531-2.656 3.718-3.718h3.187l23.901-23.901-11.423 7.962z"/><path d="M56.501 215.378l-3.187 3.187a2.255 2.255 0 000 3.187l.531.531-5.311 1.063-14.34 14.34 7.967 7.967 14.34-14.34 1.062-5.312 2.125 2.125 1.593-1.593 53 53 3.187-3.187-53-53 1.593-1.593-6.374-6.374a2.252 2.252 0 00-3.186-.001z"/></g></svg>