<svg xmlns="http://www.w3.org/2000/svg" viewBox="0 0 512 512"><path d="M38.345 88.276C17.167 88.276 0 105.443 0 126.621v217.655l388.414-256H38.345z" fill="#41479b"/><path d="M473.655 423.724c21.177 0 38.345-17.167 38.345-38.345V167.724l-388.414 256h350.069z" fill="#73af00"/><path d="M473.655 88.276h-90.516L0 339.298v46.081c0 21.177 17.167 38.345 38.345 38.345h90.516L512 172.702v-46.081c0-21.178-17.167-38.345-38.345-38.345z" fill="#f5f5f5"/><path d="M473.655 88.276h-42.2L0 370.953v14.426c0 21.177 17.167 38.345 38.345 38.345h42.2L512 141.047v-14.426c0-21.178-17.167-38.345-38.345-38.345z" fill="#ff4b55"/><g fill="#ffe15a"><path d="M90.207 145.894c8.691 0 16.557 3.521 22.254 9.214l3.125-21.686-17.235 13.561-8.145-20.362-8.145 20.362-17.235-13.561 3.125 21.686c5.699-5.694 13.565-9.214 22.256-9.214zm-22.272 53.74c-5.693-5.697-9.214-13.565-9.214-22.254 0-8.691 3.521-16.557 9.214-22.254L46.249 152l13.561 17.235-20.362 8.145 20.362 8.145-13.561 17.235 21.686-3.126zm73.031-22.255l-20.362-8.145L134.165 152l-21.686 3.125c5.693 5.697 9.214 13.565 9.214 22.254 0 8.69-3.521 16.557-9.214 22.254l21.686 3.125-13.561-17.235 20.362-8.144zm-50.759 31.486c-8.691 0-16.557-3.521-22.254-9.214l-3.125 21.686 17.235-13.561 8.145 20.362 8.145-20.362 17.235 13.561-3.125-21.686c-5.699 5.694-13.565 9.214-22.256 9.214z"/><circle cx="90.21" cy="177.38" r="25.709"/></g></svg>