<svg xmlns="http://www.w3.org/2000/svg" viewBox="0 0 512 512"><path d="M473.655 423.724H38.345C17.167 423.724 0 406.557 0 385.379V126.621c0-21.177 17.167-38.345 38.345-38.345h435.31c21.177 0 38.345 17.167 38.345 38.345V385.38c0 21.177-17.167 38.344-38.345 38.344z" fill="#41479b"/><path d="M353.582 253.845l-25.316-5.626c-3.636-33.916-30.566-60.832-64.481-64.471l-5.629-25.33c-.448-2.017-3.862-2.017-4.31 0l-5.615 25.27c-33.93 3.629-60.855 30.604-64.493 64.531l-25.319 5.626a2.208 2.208 0 00-.001 4.31l25.319 5.626c3.637 33.921 30.563 60.865 64.486 64.499l5.622 25.301a2.208 2.208 0 004.311.001l5.631-25.34c33.912-3.639 60.842-30.547 64.479-64.46l25.318-5.626a2.21 2.21 0 00-.002-4.311zm-29.785-6.62l-48.291-10.731-10.726-48.264c30.702 3.961 55.061 28.292 59.017 58.995zm-76.575-59.003l-10.728 48.274-48.276 10.728c3.96-30.702 28.303-55.043 59.004-59.002zm-9.58 52.54L252.879 256h-83.81l68.573-15.238zm-49.422 24.016l48.276 10.728 10.73 48.286c-30.705-3.957-55.048-28.312-59.006-59.014zM256 342.931l-15.238-68.574L256 259.121v83.81zm0-90.052v-83.81l15.238 68.574L256 252.879zm8.788 70.854l10.717-48.228 48.29-10.731c-3.955 30.697-28.311 54.993-59.007 58.959zm9.57-52.495L259.121 256h83.81l-68.573 15.238zm-133.117-13.031H17.655a2.207 2.207 0 110-4.414h123.586a2.207 2.207 0 110 4.414zm353.104 0H370.759a2.207 2.207 0 110-4.414h123.586a2.207 2.207 0 110 4.414zM256 143.448a2.207 2.207 0 01-2.207-2.207v-35.31a2.207 2.207 0 114.414 0v35.31c0 1.22-.988 2.207-2.207 2.207zm0 264.828a2.207 2.207 0 01-2.207-2.207v-35.31a2.207 2.207 0 114.414 0v35.31a2.207 2.207 0 01-2.207 2.207z" fill="#f5f5f5"/></svg>