<svg xmlns="http://www.w3.org/2000/svg" viewBox="0 0 512 512"><path d="M473.654 423.724H38.345C17.167 423.724 0 406.557 0 385.379V126.621c0-21.177 17.167-38.345 38.345-38.345h435.309c21.177 0 38.345 17.167 38.345 38.345v258.758c0 21.178-17.168 38.345-38.345 38.345z" fill="#41479b"/><path fill="#ffe15a" d="M0 238.341h512v35.31H0z"/><path fill="#f5f5f5" d="M119.172 308.966l5.141 20.539 14.721-15.217-5.817 20.357 20.357-5.817-15.216 14.722 20.538 5.14-20.538 5.141 15.216 14.721-20.357-5.817 5.817 20.357-14.721-15.216-5.141 20.538-5.141-20.538-14.721 15.216 5.818-20.357-20.358 5.817 15.217-14.721-20.539-5.141 20.539-5.14-15.217-14.722 20.358 5.817-5.818-20.357 14.721 15.217z"/></svg>