<svg xmlns="http://www.w3.org/2000/svg" viewBox="0 0 512 512"><path d="M473.655 423.724H38.345C17.167 423.724 0 406.557 0 385.379V126.621c0-21.177 17.167-38.345 38.345-38.345h435.31c21.177 0 38.345 17.167 38.345 38.345V385.38c0 21.177-17.167 38.344-38.345 38.344z" fill="#41479b"/><path d="M8.828 256h15.334l81.77-53.574V256h44.138v-53.574L231.839 256h15.334a8.828 8.828 0 008.828-8.828v-7.002l-70.155-45.963H256v-44.138h-70.155L256 104.106v-7.002a8.827 8.827 0 00-8.828-8.828h-15.334l-81.77 53.574V88.276H105.93v53.574L26.844 90.034c-9.234 2.9-16.954 9.203-21.711 17.434l65.023 42.601H0v44.138h70.155L0 240.17v7.002A8.829 8.829 0 008.828 256z" fill="#f5f5f5"/><g fill="#ff4b55"><path d="M256 158.897H141.241V88.276h-26.482v70.621H0v26.482h114.759V256h26.482v-70.621H256z"/><path d="M8.227 102.902l72.662 47.167h16.214l-82.496-53.55a38.565 38.565 0 00-6.38 6.383zm158.056 47.167l88.374-57.366c-1.536-2.599-4.246-4.427-7.485-4.427h-1.909l-95.194 61.793h16.214zm-76.809 44.138L1.269 251.463C2.79 254.125 5.543 256 8.828 256h1.665l95.196-61.793H89.474zm166.386 53.658l-82.666-53.658H156.98l93.874 60.935c2.812-1.305 4.741-4.04 5.006-7.277zm139.614 120.248c-.358 0-.719-.113-1.026-.328L384 360.319l-10.449 7.466a1.767 1.767 0 01-2.711-1.974l3.875-12.242-10.327-7.62a1.77 1.77 0 01-.633-1.965 1.773 1.773 0 011.668-1.224l12.841-.104 4.061-12.181c.242-.715.918-1.207 1.677-1.207s1.436.491 1.677 1.207l4.061 12.181 12.841.104c.763.009 1.431.5 1.668 1.224a1.77 1.77 0 01-.633 1.965l-10.327 7.62 3.875 12.242a1.778 1.778 0 01-.647 1.965c-.314.224-.68.337-1.043.337z"/></g><path d="M384 331.034l4.461 13.378 14.102.109-11.345 8.377 4.254 13.445L384 358.144l-11.473 8.201 4.254-13.445-11.345-8.377 14.102-.109 4.462-13.38m0-3.531a3.532 3.532 0 00-3.35 2.414l-3.663 10.984-11.578.09a3.531 3.531 0 00-2.07 6.372l9.314 6.878-3.492 11.039a3.532 3.532 0 003.367 4.596c.719 0 1.439-.22 2.053-.659l9.42-6.733 9.42 6.733a3.537 3.537 0 004.13-.015 3.533 3.533 0 001.291-3.922l-3.492-11.039 9.314-6.878a3.53 3.53 0 00-2.07-6.372l-11.578-.09-3.663-10.984a3.54 3.54 0 00-3.353-2.414z" fill="#f5f5f5"/><path d="M395.474 225.793c-.362 0-.719-.113-1.026-.328L384 217.992l-10.449 7.474a1.794 1.794 0 01-1.026.328c-.362 0-.728-.113-1.038-.337a1.78 1.78 0 01-.647-1.965l3.875-12.242-10.327-7.629a1.774 1.774 0 01-.633-1.965 1.776 1.776 0 011.668-1.224l12.841-.095 4.061-12.181c.242-.715.918-1.207 1.677-1.207s1.436.491 1.677 1.207l4.061 12.181 12.841.095c.759.009 1.431.5 1.668 1.224a1.775 1.775 0 01-.633 1.965l-10.327 7.629 3.875 12.242a1.778 1.778 0 01-.647 1.965c-.314.224-.68.336-1.043.336z" fill="#ff4b55"/><path d="M384 188.713l4.461 13.378 14.102.109-11.345 8.377 4.254 13.446L384 215.822l-11.473 8.201 4.254-13.446-11.345-8.377 14.102-.109L384 188.713m0-3.531a3.532 3.532 0 00-3.35 2.414l-3.663 10.984-11.578.09a3.531 3.531 0 00-2.07 6.372l9.314 6.878-3.492 11.039a3.532 3.532 0 003.367 4.596c.719 0 1.439-.22 2.053-.659l9.42-6.733 9.42 6.733a3.537 3.537 0 004.13-.015 3.533 3.533 0 001.291-3.922l-3.492-11.039 9.314-6.878c1.223-.903 1.73-2.486 1.26-3.932s-1.811-2.429-3.33-2.44l-11.578-.09-3.663-10.984a3.538 3.538 0 00-3.353-2.414z" fill="#f5f5f5"/><path d="M457.267 269.931c-.362 0-.719-.113-1.026-.328l-10.447-7.474-10.449 7.474a1.794 1.794 0 01-1.026.328c-.362 0-.728-.113-1.038-.337a1.78 1.78 0 01-.647-1.965l3.875-12.242-10.327-7.629a1.774 1.774 0 01-.633-1.965 1.776 1.776 0 011.668-1.224l12.841-.095 4.061-12.181c.242-.715.918-1.207 1.677-1.207s1.436.491 1.677 1.207l4.061 12.181 12.841.095c.759.009 1.431.5 1.668 1.224a1.775 1.775 0 01-.633 1.965l-10.327 7.629 3.875 12.242a1.778 1.778 0 01-.647 1.965 1.802 1.802 0 01-1.044.337z" fill="#ff4b55"/><path d="M445.793 232.851l4.461 13.378 14.102.109-11.345 8.377 4.254 13.446-11.473-8.201-11.473 8.201 4.254-13.445-11.345-8.377 14.102-.109 4.463-13.379m0-3.531a3.532 3.532 0 00-3.35 2.414l-3.663 10.984-11.578.09a3.531 3.531 0 00-2.07 6.372l9.314 6.878-3.492 11.039a3.532 3.532 0 005.421 3.937l9.42-6.733 9.42 6.733a3.536 3.536 0 004.129-.015 3.533 3.533 0 001.291-3.922l-3.492-11.039 9.314-6.878c1.223-.903 1.73-2.486 1.26-3.932s-1.811-2.429-3.33-2.44l-11.578-.09-3.663-10.984a3.538 3.538 0 00-3.353-2.414z" fill="#f5f5f5"/><path d="M333.681 287.586c-.362 0-.719-.113-1.026-.328l-10.447-7.474-10.449 7.474a1.794 1.794 0 01-1.026.328c-.362 0-.728-.113-1.038-.337a1.78 1.78 0 01-.647-1.965l3.875-12.242-10.327-7.629a1.774 1.774 0 01-.633-1.965 1.776 1.776 0 011.668-1.224l12.841-.095 4.061-12.181c.242-.715.918-1.207 1.677-1.207s1.436.491 1.677 1.207l4.061 12.181 12.841.095c.759.009 1.431.5 1.668 1.224a1.775 1.775 0 01-.633 1.965l-10.327 7.629 3.875 12.242a1.778 1.778 0 01-.647 1.965 1.795 1.795 0 01-1.044.337z" fill="#ff4b55"/><path d="M322.207 250.506l4.461 13.378 14.102.109-11.345 8.377 4.254 13.446-11.473-8.201-11.473 8.201 4.254-13.446-11.345-8.377 14.102-.109 4.463-13.378m0-3.531a3.532 3.532 0 00-3.35 2.414l-3.663 10.984-11.578.09a3.531 3.531 0 00-2.07 6.372l9.314 6.878-3.492 11.039a3.532 3.532 0 005.421 3.937l9.42-6.733 9.42 6.733a3.536 3.536 0 004.129-.015 3.533 3.533 0 001.291-3.922l-3.492-11.039 9.314-6.878c1.223-.903 1.73-2.486 1.26-3.932s-1.811-2.429-3.33-2.44l-11.578-.09-3.663-10.984a3.538 3.538 0 00-3.353-2.414z" fill="#f5f5f5"/></svg>