<svg xmlns="http://www.w3.org/2000/svg" viewBox="0 0 512 512"><path d="M473.655 423.724H38.345C17.167 423.724 0 406.557 0 385.38V126.622c0-21.177 17.167-38.345 38.345-38.345h435.31c21.177 0 38.345 17.167 38.345 38.345V385.38c0 21.177-17.167 38.344-38.345 38.344z" fill="#ffe15a"/><path d="M8.828 256h238.345a8.829 8.829 0 008.828-8.828V97.104a8.828 8.828 0 00-8.825-8.828H38.345C17.167 88.277 0 105.444 0 126.622v120.552C0 252.048 3.953 256 8.828 256z" fill="#41479b"/><path d="M8.828 256h15.334l81.77-53.574V256h44.138v-53.574L231.839 256h15.334a8.829 8.829 0 008.828-8.828v-7.002l-70.154-45.963H256V150.07h-70.155L256 104.107v-7.002a8.827 8.827 0 00-8.825-8.828h-15.337l-81.769 53.574V88.277h-44.138v53.574L26.844 90.035c-9.234 2.9-16.954 9.203-21.711 17.434l65.023 42.601H0v44.138h70.155L0 240.171v7.002A8.828 8.828 0 008.828 256z" fill="#f5f5f5"/><g fill="#ff4b55"><path d="M256 158.898H141.241V88.277h-26.482v70.621H0v26.482h114.759V256h26.482v-70.62H256z"/><path d="M8.227 102.903l72.662 47.167h16.214L14.607 96.52a38.565 38.565 0 00-6.38 6.383zm158.056 47.167l88.374-57.366c-1.536-2.599-4.246-4.427-7.485-4.427h-1.909l-95.194 61.793h16.214zm-76.809 44.138L1.269 251.464C2.79 254.126 5.542 256 8.828 256h1.665l95.196-61.793H89.474zm166.386 53.658l-82.666-53.658H156.98l93.874 60.935c2.812-1.305 4.741-4.04 5.006-7.277z"/></g><circle cx="128" cy="172.141" r="26.483" fill="#41479b"/><path d="M129.788 150.668l4.425 13.266 13.984.108c1.811.014 2.561 2.325 1.105 3.4l-11.25 8.307 4.218 13.333c.546 1.726-1.419 3.154-2.892 2.101L128 183.053l-11.377 8.131c-1.473 1.053-3.438-.375-2.892-2.101l4.218-13.333-11.25-8.307c-1.457-1.076-.706-3.386 1.105-3.4l13.984-.108 4.425-13.266c.572-1.718 3.002-1.718 3.575-.001zm-73.287 10.807l2.379 7.133 7.519.058c.973.008 1.377 1.25.594 1.828l-6.048 4.467 2.268 7.168c.294.928-.764 1.696-1.555 1.13l-6.116-4.372-6.116 4.372c-.792.566-1.848-.202-1.555-1.13l2.268-7.168-6.048-4.467c-.783-.578-.38-1.821.594-1.828l7.519-.058 2.379-7.133c.305-.924 1.61-.924 1.918 0zm145.585 0l2.379 7.133 7.519.058c.973.008 1.377 1.25.594 1.828l-6.048 4.467 2.268 7.168c.294.928-.764 1.696-1.555 1.13l-6.116-4.372-6.116 4.372c-.792.566-1.848-.202-1.555-1.13l2.268-7.168-6.048-4.467c-.783-.578-.38-1.821.594-1.828l7.519-.058 2.379-7.133c.304-.924 1.61-.924 1.918 0zm-73.011-53.58l2.379 7.133 7.519.058c.973.008 1.377 1.25.594 1.828l-6.049 4.466 2.268 7.168c.294.928-.764 1.696-1.555 1.13l-6.116-4.372-6.116 4.372c-.792.566-1.848-.202-1.555-1.13l2.268-7.168-6.048-4.467c-.783-.578-.38-1.821.594-1.828l7.519-.058 2.379-7.133c.304-.923 1.611-.923 1.919.001zm0 108.421l2.379 7.133 7.519.058c.973.008 1.377 1.25.594 1.828l-6.049 4.466 2.268 7.168c.294.928-.764 1.696-1.555 1.13l-6.116-4.372-6.116 4.372c-.792.566-1.848-.202-1.555-1.13l2.268-7.168-6.048-4.467c-.783-.578-.38-1.821.594-1.828l7.519-.058 2.379-7.133c.304-.922 1.611-.922 1.919.001z" fill="#ffe15a"/></svg>