<svg xmlns="http://www.w3.org/2000/svg" viewBox="0 0 512 512"><path d="M473.655 423.724H38.345C17.167 423.724 0 406.557 0 385.379V126.621c0-21.177 17.167-38.345 38.345-38.345h435.31c21.177 0 38.345 17.167 38.345 38.345V385.38c0 21.177-17.167 38.344-38.345 38.344z" fill="#4173cd"/><path d="M256 384c-70.578 0-128-57.422-128-128s57.422-128 128-128 128 57.422 128 128-57.422 128-128 128zm0-229.517c-55.979 0-101.517 45.539-101.517 101.517S200.022 357.517 256 357.517 357.517 311.978 357.517 256 311.979 154.483 256 154.483z" fill="#f5f5f5"/><g fill="#ffdc00"><path d="M256 375.172c-65.711 0-119.172-53.461-119.172-119.172S190.289 136.828 256 136.828 375.172 190.289 375.172 256 321.711 375.172 256 375.172zm0-229.517c-60.845 0-110.345 49.5-110.345 110.345S195.155 366.345 256 366.345 366.345 316.845 366.345 256 316.845 145.655 256 145.655z"/><circle cx="141.24" cy="256" r="8.828"/><circle cx="370.76" cy="256" r="8.828"/><circle cx="256" cy="141.24" r="8.828"/><circle cx="174.85" cy="174.85" r="8.828"/><circle cx="337.15" cy="174.85" r="8.828"/><circle cx="362.02" cy="212.08" r="8.828"/><circle cx="212.08" cy="149.98" r="8.828"/><circle cx="149.98" cy="212.08" r="8.828"/><circle cx="299.92" cy="149.98" r="8.828"/><circle cx="368.55" cy="233.61" r="8.828"/><circle cx="233.61" cy="143.45" r="8.828"/><circle cx="160.59" cy="192.24" r="8.828"/><circle cx="319.76" cy="160.59" r="8.828"/><circle cx="351.42" cy="192.24" r="8.828"/><circle cx="192.24" cy="160.59" r="8.828"/><circle cx="143.45" cy="233.61" r="8.828"/><circle cx="278.39" cy="143.45" r="8.828"/></g><path d="M370.759 260.414a4.411 4.411 0 01-4.414-4.414c0-60.845-49.5-110.345-110.345-110.345S145.655 195.155 145.655 256c0 2.44-1.974 4.414-4.414 4.414s-4.414-1.974-4.414-4.414c0-65.711 53.461-119.172 119.172-119.172S375.172 190.289 375.172 256a4.411 4.411 0 01-4.413 4.414z" fill="#ffa000"/><path d="M280.526 388.414h-49.054c-10.482 0-18.656-9.079-17.558-19.503l15.603-148.221h52.966l15.602 148.221c1.097 10.424-7.076 19.503-17.559 19.503z" fill="#b4b4b4"/><path d="M282.232 220.69h-52.671a4.547 4.547 0 01-4.52-4.055l-3.29-30.302c-.567-5.222 3.523-9.781 8.776-9.781h50.945c5.252 0 9.343 4.558 8.776 9.781l-3.268 30.098a4.775 4.775 0 01-4.748 4.259z" fill="#aaa"/><path d="M258.045 186.833l16.364 47.079 49.831 1.015c2.051.042 2.899 2.648 1.263 3.889l-39.717 30.111 14.433 47.705c.595 1.964-1.623 3.575-3.308 2.403L256 290.567l-40.911 28.468c-1.684 1.172-3.902-.439-3.308-2.403l14.433-47.705-39.718-30.111c-1.635-1.239-.788-3.847 1.263-3.889l49.831-1.015 16.364-47.079c.676-1.938 3.416-1.938 4.091 0z" fill="#f5f5f5"/></svg>