<svg xmlns="http://www.w3.org/2000/svg" viewBox="0 0 512 512"><path d="M473.655 423.724H38.345C17.167 423.724 0 406.557 0 385.379V126.621c0-21.177 17.167-38.345 38.345-38.345h435.31c21.177 0 38.345 17.167 38.345 38.345V385.38c0 21.177-17.167 38.344-38.345 38.344z" fill="#f5f5f5"/><path d="M0 123.59h512v35.31H0zM0 353.1h512v35.31H0zm248.503-124.261l12.427 16.256 19.403-6.495c1.085-.363 2.008.864 1.358 1.805l-11.62 16.842 12.173 16.447c.681.919-.201 2.176-1.298 1.849l-19.608-5.847-11.88 16.66c-.664.931-2.132.481-2.159-.662l-.498-20.456-19.516-6.151c-1.091-.344-1.117-1.879-.038-2.259l19.3-6.795-.181-20.461c-.01-1.144 1.442-1.642 2.137-.733zm-64.014 90.763c-35.095 0-63.564-28.469-63.564-63.596 0-35.062 28.469-63.595 63.564-63.595 13.057 0 25.099 4.015 35.134 10.813 1.537 1.041 3.29-.979 2.004-2.316-14.997-15.593-36.224-25.105-59.758-24.301-40.434 1.379-73.906 33.798-76.49 74.172-2.959 46.245 33.658 84.678 79.25 84.678 22.457 0 42.641-9.389 57.054-24.401 1.273-1.326-.484-3.315-2.006-2.283-10.047 6.808-22.108 10.829-35.188 10.829z" fill="#ff4b55"/></svg>