<svg xmlns="http://www.w3.org/2000/svg" viewBox="0 0 512 512"><path d="M473.655 88.275H132.414v335.448h341.241c21.177 0 38.345-17.167 38.345-38.345V126.62c0-21.178-17.167-38.345-38.345-38.345z" fill="#73af00"/><path d="M38.345 88.275C17.167 88.275 0 105.442 0 126.62v258.76c0 21.177 17.167 38.345 38.345 38.345h94.069V88.275H38.345zm373.708 213.913c-40.632 36.196-102.833 32.477-138.956-8.227-36.054-40.629-32.405-103.01 8.226-139.204l.178-.157c.96-.844.032-2.377-1.16-1.913-40.07 15.604-68.479 54.579-68.479 100.214 0 59.444 48.071 107.587 107.373 107.587 41.023 0 76.574-23.083 94.633-56.969.602-1.131-.81-2.231-1.766-1.377l-.049.046zm-52.266-129.599l14.12 15.841 19.56-8.232c2.532-1.066 4.964 1.705 3.578 4.077L386.342 202.6l13.873 16.058c1.796 2.079-.088 5.248-2.772 4.663l-20.735-4.516-10.986 18.156c-1.422 2.35-5.018 1.538-5.292-1.196l-2.112-21.116-20.662-4.838c-2.675-.627-3.014-4.297-.498-5.402l19.43-8.533-1.784-21.145c-.232-2.738 3.156-4.193 4.983-2.142z" fill="#f5f5f5"/></svg>