<svg xmlns="http://www.w3.org/2000/svg" viewBox="0 0 512 512"><path d="M503.172 256H256v158.897a8.829 8.829 0 01-8.828 8.828h226.483c21.177 0 38.345-17.167 38.345-38.345V247.172a8.829 8.829 0 01-8.828 8.828zM8.828 256H256V97.103a8.829 8.829 0 018.828-8.828H38.345C17.167 88.276 0 105.443 0 126.621v138.207A8.829 8.829 0 018.828 256z" fill="#f5f5f5"/><path d="M473.655 88.276H264.828A8.829 8.829 0 00256 97.104V256h247.172a8.829 8.829 0 008.828-8.828V126.621c0-21.178-17.167-38.345-38.345-38.345z" fill="#ff4b55"/><path d="M256 414.897V256H8.828A8.829 8.829 0 000 264.828V385.38c0 21.177 17.167 38.345 38.345 38.345h208.828a8.83 8.83 0 008.827-8.828zm-124.6-280.41l8.416 25.234 26.6.206c3.444.026 4.872 4.422 2.101 6.467l-21.398 15.801 8.023 25.362c1.038 3.284-2.7 5.999-5.502 3.997L128 196.087l-21.641 15.468c-2.802 2.003-6.54-.714-5.502-3.997l8.023-25.362-21.398-15.801c-2.771-2.046-1.342-6.441 2.101-6.467l26.6-.206 8.416-25.234c1.09-3.267 5.712-3.267 6.801-.001z" fill="#4173cd"/><path d="M387.4 302.211l8.416 25.234 26.6.206c3.444.026 4.872 4.422 2.101 6.467l-21.398 15.801 8.023 25.362c1.038 3.284-2.7 5.999-5.502 3.997L384 363.811l-21.641 15.468c-2.802 2.003-6.54-.714-5.502-3.997l8.023-25.362-21.398-15.801c-2.771-2.046-1.342-6.441 2.101-6.467l26.6-.206 8.416-25.234c1.09-3.268 5.712-3.268 6.801-.001z" fill="#ff4b55"/></svg>