<svg xmlns="http://www.w3.org/2000/svg" viewBox="0 0 512 512"><path d="M473.655 423.724H38.345C17.167 423.724 0 406.557 0 385.378V126.62c0-21.177 17.167-38.345 38.345-38.345h435.31c21.177 0 38.345 17.167 38.345 38.345v258.76c0 21.177-17.167 38.344-38.345 38.344z" fill="#ff4b55"/><path d="M38.345 88.275C17.167 88.275 0 105.442 0 126.62v258.76c0 21.177 17.167 38.345 38.345 38.345h147.034V88.275H38.345z" fill="#73af00"/><circle cx="185.45" cy="255.999" r="79.38" fill="#ffe15a"/><path d="M211.932 229.516v35.31c0 14.603-11.88 26.483-26.483 26.483s-26.483-11.88-26.483-26.483v-35.31h52.966m8.827-17.655h-70.621a8.829 8.829 0 00-8.828 8.828v44.138c0 24.376 19.762 44.138 44.138 44.138s44.138-19.762 44.138-44.138v-44.138a8.827 8.827 0 00-8.827-8.828z" fill="#ff4b55"/><path d="M211.932 229.516v35.31c0 14.603-11.88 26.483-26.483 26.483s-26.483-11.88-26.483-26.483v-35.31h52.966" fill="#f5f5f5"/><g fill="#ffe15a"><circle cx="150.07" cy="220.689" r="4.414"/><circle cx="220.69" cy="220.689" r="4.414"/><circle cx="150.07" cy="255.999" r="4.414"/><circle cx="220.69" cy="255.999" r="4.414"/><circle cx="185.38" cy="220.689" r="4.414"/><circle cx="211.88" cy="288.549" r="4.414"/><circle cx="159.4" cy="288.549" r="4.414"/></g><path d="M191.149 253.761v7.602c0 3.144-2.558 5.702-5.702 5.702s-5.702-2.558-5.702-5.702v-7.602h11.404m0-18.021v7.602c0 3.144-2.558 5.702-5.702 5.702s-5.702-2.558-5.702-5.702v-7.602h11.404m0 36.229v7.602c0 3.144-2.558 5.702-5.702 5.702s-5.702-2.558-5.702-5.702v-7.602h11.404m15.357-18.208v7.602c0 3.144-2.558 5.702-5.702 5.702s-5.702-2.558-5.702-5.702v-7.602h11.404m-30.712 0v7.602c0 3.144-2.558 5.702-5.702 5.702s-5.702-2.558-5.702-5.702v-7.602h11.404" fill="#41479b"/></svg>