<svg xmlns="http://www.w3.org/2000/svg" viewBox="0 0 512.001 512.001"><path d="M221.446 407.367c2.225-.676 2.226-3.826.002-4.504l-46.34-14.162c-2.223-.679-2.222-3.828.002-4.504l46.322-14.105c2.226-.676 2.226-3.828 0-4.504l-46.322-14.105c-2.225-.678-2.226-3.826-.002-4.505l46.339-14.161c2.223-.679 2.222-3.828-.002-4.504l-46.335-14.109c-2.225-.676-2.226-3.826-.002-4.505l46.34-14.162c2.223-.68 2.222-3.828-.002-4.504l-46.336-14.108c-2.225-.679-2.226-3.826-.002-4.505l46.34-14.162c2.223-.68 2.222-3.829-.002-4.505l-46.336-14.108c-2.225-.676-2.226-3.826-.002-4.505l46.34-14.162c2.223-.68 2.222-3.828-.002-4.505l-46.322-14.103c-2.226-.679-2.226-3.828 0-4.506l46.322-14.104c2.225-.676 2.226-3.826.002-4.504l-46.34-14.162c-2.223-.68-2.222-3.827.002-4.505l46.336-14.109c2.225-.676 2.226-3.826.002-4.504l-46.34-14.162c-2.223-.68-2.222-3.828.002-4.505l46.335-14.108c2.225-.678 2.226-3.827.002-4.505l-53.386-16.312a2.297 2.297 0 00-.689-.104H38.345C17.167 88.276 0 105.443 0 126.621V385.38c0 21.177 17.167 38.345 38.345 38.345h129.028c.233 0 .463-.034.686-.102l53.387-16.256z" fill="#f5f5f5"/><path d="M473.655 88.276H167.372c.233 0 .465.035.689.104l53.386 16.312c2.223.679 2.222 3.828-.002 4.505l-46.335 14.108c-2.225.678-2.226 3.826-.002 4.505l46.34 14.162c2.223.679 2.222 3.828-.002 4.504l-46.336 14.109c-2.225.679-2.226 3.826-.002 4.505l46.34 14.162c2.223.679 2.222 3.828-.002 4.504l-46.322 14.104c-2.226.679-2.226 3.828 0 4.506l46.322 14.103c2.225.679 2.226 3.826.002 4.505l-46.34 14.162c-2.223.68-2.222 3.829.002 4.505l46.336 14.108c2.225.676 2.226 3.826.002 4.505l-46.34 14.162c-2.223.68-2.222 3.827.002 4.505l46.336 14.108c2.225.676 2.226 3.826.002 4.504l-46.34 14.162c-2.223.68-2.222 3.829.002 4.505l46.335 14.109c2.225.676 2.226 3.826.002 4.504l-46.339 14.161c-2.223.68-2.222 3.828.002 4.505l46.322 14.105c2.226.676 2.226 3.828 0 4.504l-46.322 14.105c-2.225.676-2.226 3.826-.002 4.504l46.34 14.162c2.223.679 2.222 3.828-.002 4.504l-53.386 16.256a2.38 2.38 0 01-.686.102h306.282c21.177 0 38.345-17.167 38.345-38.345V126.62c-.001-21.177-17.168-38.344-38.346-38.344z" fill="#873250"/></svg>