<svg xmlns="http://www.w3.org/2000/svg" viewBox="0 0 512 512"><path d="M38.345 423.724h435.31c21.177 0 38.345-17.167 38.345-38.345V126.621c0-21.177-17.167-38.345-38.345-38.345H38.345C17.167 88.276 0 105.443 0 126.621V385.38c0 21.177 17.167 38.344 38.345 38.344z" fill="#f5f5f5"/><path d="M482.574 141.43a3.312 3.312 0 00-4.224 2.017c-2.185 6.168-4.552 11.697-7.004 16.92-6.239 6.173-14.008 10.777-21.507 12.14-12.138 2.207-18.023 8.092-18.023 8.092-21.333-6.253-25.379 5.517-30.162 10.667-2.678 2.883-6.15 3.884-9.279 3.916-11.425-6.231-19.121-13.827-19.264-13.969a3.308 3.308 0 00-4.681-.025 3.308 3.308 0 00-.025 4.681c.969.981 19.576 19.424 43.448 23.258-6.93 2.04-12.036 3.471-12.036 3.471s-7.724 0-30.897 18.759c-23.172 18.759-39.357 20.598-49.655 20.231-10.3-.367-18.024-4.046-29.058 4.414s-25.379 6.989-34.207 6.989-23.172 1.471-34.207-6.989c-11.034-8.46-18.759-4.781-29.058-4.414-10.298.367-26.483-1.471-49.655-20.231s-30.897-18.759-30.897-18.759-5.107-1.431-12.036-3.471c23.871-3.834 42.478-22.278 43.448-23.258a3.31 3.31 0 00-4.706-4.656c-.143.14-7.839 7.736-19.264 13.969-3.129-.032-6.601-1.033-9.279-3.916-4.782-5.15-8.828-16.92-30.162-10.667 0 0-5.885-5.885-18.023-8.092-7.498-1.363-15.268-5.967-21.507-12.14-2.451-5.224-4.818-10.752-7.004-16.92a3.312 3.312 0 00-4.224-2.017 3.306 3.306 0 00-2.017 4.224c.066.186.142.345.209.532.322 1.693 7.038 35.57 31.601 59.058 17.299 16.541 34.076 41.781 41.196 55.908 23.172 45.977 67.31 107.77 155.586 107.77s132.414-61.793 155.586-107.77c7.121-14.127 23.897-39.368 41.196-55.908 24.562-23.487 31.277-57.365 31.601-59.058.066-.186.142-.345.209-.532a3.31 3.31 0 00-2.019-4.224z" fill="#ff4b55"/></svg>