<svg xmlns="http://www.w3.org/2000/svg" viewBox="0 0 512 512"><path fill="#41479B" d="M473.7 422.8H38.3c-21.1 0-38.3-17-38.3-38V128c0-21 17.2-38 38.3-38h435.4c21.1 0 38.3 17 38.3 38v256.8c0 21-17.2 38-38.3 38Z"/><path fill="#F5F5F5" d="M150 143.2V90h-44v53.2L26.7 91.7A39 39 0 0 0 5 109l65 42.3H0v43.8h70.2L0 240.7v7a8.7 8.7 0 0 0 8.8 8.7h15.4l81.7-53.1v53.1h44.2v-53.1l81.7 53.1h15.4a8.9 8.9 0 0 0 8.8-8.8v-7l-70.2-45.5H256v-43.8h-70.2l70.2-45.6v-7a8.7 8.7 0 0 0-8.8-8.7h-15.4l-81.7 53.2Z"/><path fill="#FF4B55" d="M256 160H141.2V90h-26.4v70H0v26.3h114.8v70.1h26.4v-70H256V160Z"/><path fill="#FF4B55" d="M8.2 104.5 81 151.3h16.2L14.6 98.2c-2.4 1.8-4.5 4-6.4 6.3Zm158 46.8 88.5-57a8.7 8.7 0 0 0-7.5-4.3h-2l-95.1 61.3h16.2Zm-76.7 43.8L1.3 251.9a8.7 8.7 0 0 0 7.5 4.5h1.7l95.2-61.3H89.5Zm166.4 53.2-82.7-53.2H157l93.9 60.4c2.8-1.2 4.7-4 5-7.2Z"/><path fill="#29DBFF" d="M450 245.2c-.1 40-6.5 83-58.5 103.4-52-20.5-58.4-63.4-58.5-103.4h117Z"/><path fill="#FFDA44" d="M450 245.2c0-15-.8-29.6-.5-42.4-19.4-8.6-45-10.4-58.1-10.4-13 0-38.6 1.8-58.1 10.4.3 12.8-.5 27.4-.5 42.4H450Z"/><path fill="#BF521B" d="m378.4 303.5.3 9.3-11.5.2 4.4 11.9H356c-16.2-18.2-21-38.2-22.4-61.3l8.2-8.7 7.5 12.8 9.7-11.5 6.3 7 .7 14.2 12.4 26.1Z"/><path fill="#474747" d="m438.8 292.7-7.7 16.5h-42.3l-26.3-17.5 23.1 9.4h22.6l3.3-5.8 6.5.1 1.8-2.7h19Z"/></svg>