<svg xmlns="http://www.w3.org/2000/svg" viewBox="0 0 512 512"><path d="M473.654 423.724H38.345C17.167 423.724 0 406.557 0 385.379V126.621c0-21.177 17.167-38.345 38.345-38.345h435.309c21.177 0 38.345 17.167 38.345 38.345v258.758c0 21.178-17.168 38.345-38.345 38.345z" fill="#73af00"/><path fill="#ffe15a" d="M0 167.721h512v176.55H0z"/><path d="M11.527 99.226C4.417 106.187 0 115.886 0 126.621v258.758c0 10.735 4.417 20.435 11.527 27.395L176.552 256 11.527 99.226z" fill="#ff4b55"/><path d="M278.298 215.768l9.047 27.126 28.594.222c3.702.029 5.237 4.753 2.259 6.953l-23.002 16.986 8.626 27.263c1.117 3.53-2.902 6.45-5.914 4.297l-23.263-16.628-23.263 16.628c-3.011 2.153-7.031-.767-5.914-4.297l8.626-27.263-23.002-16.986c-2.978-2.199-1.443-6.924 2.259-6.953l28.594-.222 9.047-27.126c1.167-3.513 6.135-3.513 7.306 0zm132.001 0l9.047 27.126 28.594.222c3.702.029 5.237 4.753 2.259 6.953l-23.002 16.986 8.626 27.263c1.117 3.53-2.902 6.45-5.914 4.297l-23.263-16.628-23.263 16.628c-3.011 2.153-7.031-.767-5.914-4.297l8.626-27.263-23.002-16.986c-2.978-2.199-1.443-6.924 2.259-6.953l28.594-.222 9.047-27.126c1.166-3.513 6.134-3.513 7.306 0z" fill="#464655"/></svg>