<svg xmlns="http://www.w3.org/2000/svg" viewBox="0 0 512 512"><path d="M473.654 423.724H38.345C17.167 423.724 0 406.556 0 385.379V126.621c0-21.177 17.167-38.345 38.345-38.345h435.309c21.177 0 38.345 17.167 38.345 38.345v258.758c0 21.177-17.168 38.345-38.345 38.345z" fill="#f5f5f5"/><path fill="#ff4b55" d="M512 238.345H273.655V88.276h-35.311v150.069H0v35.31h238.344v150.069h35.311V273.655H512z"/><path d="M165.137 167.355c1.482-2.965-6.714-12.568-6.28-14.744.435-2.176 1.406-5.51-2.076-18.13-3.481-12.62-13.94-15.669-26.56-16.974s-29.304 7.745-33.072 17.624c-2.274 5.962-.736 12.622 1.65 18.961-1.071.116-3.122.175-4.634-.942-1.204-.897-1.863-2.421-1.978-4.522-.422-8.003 3.944-21.112 3.991-21.241l.327-.979-13.707-4.834.806 6.432-10.577-2.258.646 1.774c.931 2.557 9.124 25.035 10.227 27.02 1.809 3.243 4.264 5.318 7.296 6.161 1.088.306 2.162.422 3.182.422.131 0 .241-.034.37-.038-.621 1.143-1.877 2.584-5.075 4.07-3.752 1.729-7.55 3.593-7.966 10.596l-.113.058c.034.065.073.1.107.164-.09 1.85-.006 3.965.437 6.622 1.101 6.568 3.338 13.014 3.434 13.285l.217.619.653.075c.047 0 4.352.516 5.671 5.038.761 2.617 3.161 4.604 5.521 4.604.061 0 .122-.007.183-.007 1.02-.047 3.488-.578 4.29-4.576l.116-.578-6.483-5.965 2.173-7.165-1.034-.279c-.061-.015-4.354-1.308-8.798-6.154-.412-1.996-.363-3.438.169-4.256.605-.918 1.89-1.176 3.379-1.475 1.387-.279 2.822-.564 3.985-1.469 3.737-2.921 5.828-7.944 6.888-11.383.574 1.3 1.124 2.563 1.611 3.767 3.699 9.139-6.527 19.582-6.527 19.582 6.527 2.611 7.18 4.133 16.319 15.448s17.406 6.527 17.406 6.527-1.176-7.244 4.83-10.302c6.007-3.058 6.143-6.989 6.143-6.989 14.99 3.522 15.891-2.621 15.235-4.751-.655-2.129.164-5.487.164-5.487s1.51.095 2.621-.655c1.761-1.187.574-4.013.574-4.013 1.72-.82 2.376-2.621 1.065-4.014-1.311-1.393-1.229-2.948-1.229-2.948s3.441.244 4.423-1.721zm-73.378-8.666c-2.475-.686-4.508-2.428-6.038-5.167-.727-1.305-5.821-15.02-9.444-24.947l7.601 1.62 1.429 11.407 2.067-.258-2.088-16.672 8.595 3.026c-1.034 3.271-4.161 13.857-3.774 21.037.142 2.754 1.088 4.8 2.808 6.085 1.557 1.163 3.427 1.434 4.855 1.434.842 0 1.415-.082 1.802-.15.213.524.433 1.039.652 1.557-1.207.594-4.748 2.082-8.465 1.028zm8.167 43.094c-.292 1.026-.911 2.284-2.202 2.339h-.095c-1.421 0-3.019-1.394-3.516-3.094-.025-.087-.077-.132-.105-.217l1.06-3.5 4.858 4.472zm-4.61-12.47l-2.656 8.743c-1.722-2.338-4.137-3.165-5.306-3.438-.572-1.72-2.271-7.079-3.155-12.361a39.026 39.026 0 01-.361-3.004c4.4 6.44 9.36 9.219 11.478 10.06zm-.987-16.665c-.768.598-1.903.823-3.107 1.067-1.707.34-3.63.727-4.718 2.38-.397.605-.594 1.363-.695 2.207-.694-.981-1.405-1.811-2.055-3.005.46-5.318 3.354-6.664 6.795-8.253 4.961-2.296 6.112-4.743 6.603-6.205a16.388 16.388 0 003.879-1.265l.118.265c-.547 2.412-2.429 9.38-6.82 12.809zm11.669-9.389l-4.259-9.174 50.13-23.263c3.277 6.226 3.605 13.597 3.605 13.597l-49.476 18.84zm332.795 4.096c1.482-2.965-6.714-12.568-6.28-14.744.435-2.176 1.406-5.51-2.076-18.13-3.481-12.62-13.94-15.669-26.56-16.974s-29.304 7.745-33.072 17.624c-2.274 5.962-.736 12.622 1.65 18.961-1.071.116-3.122.175-4.634-.942-1.204-.897-1.863-2.421-1.978-4.522-.422-8.003 3.944-21.112 3.991-21.241l.327-.979-13.707-4.834.806 6.432-10.577-2.258.646 1.774c.931 2.557 9.124 25.035 10.227 27.02 1.809 3.243 4.264 5.318 7.296 6.161 1.088.306 2.163.422 3.182.422.131 0 .241-.034.37-.038-.621 1.143-1.877 2.584-5.075 4.07-3.752 1.729-7.55 3.593-7.966 10.596l-.113.058c.034.065.073.1.107.164-.09 1.85-.006 3.965.437 6.622 1.101 6.568 3.339 13.014 3.434 13.285l.217.619.653.075c.047 0 4.352.516 5.671 5.038.761 2.617 3.161 4.604 5.521 4.604.061 0 .122-.007.183-.007 1.02-.047 3.488-.578 4.29-4.576l.116-.578-6.483-5.965 2.173-7.165-1.034-.279c-.061-.015-4.354-1.308-8.798-6.154-.412-1.996-.363-3.438.169-4.256.605-.918 1.89-1.176 3.379-1.475 1.387-.279 2.822-.564 3.985-1.469 3.737-2.921 5.828-7.944 6.888-11.383.574 1.3 1.124 2.563 1.611 3.767 3.699 9.139-6.527 19.582-6.527 19.582 6.527 2.611 7.18 4.133 16.319 15.448 9.139 11.314 17.407 6.527 17.407 6.527s-1.176-7.244 4.83-10.302c6.007-3.058 6.143-6.989 6.143-6.989 14.99 3.522 15.891-2.621 15.235-4.751-.655-2.129.164-5.487.164-5.487s1.51.095 2.621-.655c1.761-1.187.574-4.013.574-4.013 1.72-.82 2.376-2.621 1.065-4.014-1.311-1.393-1.229-2.948-1.229-2.948s3.439.244 4.422-1.721zm-73.379-8.666c-2.475-.686-4.508-2.428-6.038-5.167-.727-1.305-5.821-15.02-9.444-24.947l7.601 1.62 1.429 11.407 2.067-.258-2.088-16.672 8.595 3.026c-1.034 3.271-4.161 13.857-3.774 21.037.142 2.754 1.088 4.8 2.808 6.085 1.557 1.163 3.427 1.434 4.855 1.434.842 0 1.415-.082 1.802-.15.213.524.433 1.039.652 1.557-1.208.594-4.748 2.082-8.465 1.028zm8.166 43.094c-.292 1.026-.911 2.284-2.202 2.339h-.095c-1.421 0-3.019-1.394-3.516-3.094-.025-.087-.077-.132-.105-.217l1.06-3.5 4.858 4.472zm-4.61-12.47l-2.656 8.743c-1.723-2.338-4.137-3.165-5.306-3.438-.572-1.72-2.271-7.079-3.155-12.361a39.026 39.026 0 01-.361-3.004c4.401 6.44 9.361 9.219 11.478 10.06zm-.985-16.665c-.768.598-1.903.823-3.107 1.067-1.707.34-3.63.727-4.718 2.38-.397.605-.594 1.363-.695 2.207-.694-.981-1.405-1.811-2.055-3.005.46-5.318 3.354-6.664 6.795-8.253 4.961-2.296 6.112-4.743 6.603-6.205a16.388 16.388 0 003.879-1.265l.118.265c-.548 2.412-2.43 9.38-6.82 12.809zm11.668-9.389l-4.259-9.174 50.13-23.263c3.277 6.226 3.605 13.597 3.605 13.597l-49.476 18.84zM165.137 352.734c1.482-2.965-6.714-12.568-6.28-14.744.435-2.176 1.406-5.51-2.076-18.13-3.481-12.62-13.94-15.669-26.56-16.974s-29.304 7.745-33.072 17.624c-2.274 5.962-.736 12.622 1.65 18.961-1.071.116-3.122.175-4.634-.942-1.204-.897-1.863-2.421-1.978-4.522-.422-8.003 3.944-21.112 3.991-21.241l.327-.979-13.707-4.834.806 6.432-10.577-2.258.646 1.774c.931 2.557 9.124 25.035 10.227 27.02 1.809 3.243 4.264 5.318 7.296 6.161 1.088.306 2.162.422 3.182.422.131 0 .241-.034.37-.038-.621 1.143-1.877 2.584-5.075 4.069-3.752 1.729-7.55 3.593-7.966 10.596l-.113.059c.034.065.073.1.107.164-.09 1.85-.006 3.965.437 6.622 1.101 6.568 3.338 13.014 3.434 13.285l.217.619.653.075c.047 0 4.352.516 5.671 5.038.761 2.617 3.161 4.604 5.521 4.604.061 0 .122-.007.183-.007 1.02-.047 3.488-.578 4.29-4.576l.116-.578-6.483-5.965 2.173-7.165-1.034-.279c-.061-.015-4.354-1.308-8.798-6.154-.412-1.996-.363-3.438.169-4.256.605-.918 1.89-1.176 3.379-1.475 1.387-.279 2.822-.564 3.985-1.469 3.737-2.921 5.828-7.944 6.888-11.383.574 1.3 1.124 2.563 1.611 3.767 3.699 9.139-6.527 19.582-6.527 19.582 6.527 2.611 7.18 4.133 16.319 15.448s17.406 6.527 17.406 6.527-1.176-7.244 4.83-10.302c6.007-3.058 6.143-6.989 6.143-6.989 14.99 3.522 15.891-2.621 15.235-4.751-.655-2.129.164-5.487.164-5.487s1.51.095 2.621-.655c1.761-1.187.574-4.013.574-4.013 1.72-.819 2.376-2.621 1.065-4.014s-1.229-2.948-1.229-2.948 3.441.244 4.423-1.721zm-73.378-8.666c-2.475-.686-4.508-2.428-6.038-5.167-.727-1.305-5.821-15.02-9.444-24.947l7.601 1.62 1.429 11.407 2.067-.258-2.088-16.672 8.595 3.026c-1.034 3.271-4.161 13.857-3.774 21.037.142 2.754 1.088 4.8 2.808 6.086 1.557 1.163 3.427 1.434 4.855 1.434.842 0 1.415-.082 1.802-.15.213.524.433 1.039.652 1.557-1.207.592-4.748 2.081-8.465 1.027zm8.167 43.094c-.292 1.026-.911 2.284-2.202 2.339h-.095c-1.421 0-3.019-1.394-3.516-3.094-.025-.087-.077-.132-.105-.217l1.06-3.5 4.858 4.472zm-4.61-12.47l-2.656 8.743c-1.722-2.338-4.137-3.165-5.306-3.438-.572-1.72-2.271-7.079-3.155-12.361a39.026 39.026 0 01-.361-3.004c4.4 6.44 9.36 9.219 11.478 10.06zm-.987-16.664c-.768.598-1.903.823-3.107 1.067-1.707.34-3.63.727-4.718 2.38-.397.605-.594 1.363-.695 2.207-.694-.981-1.405-1.811-2.055-3.005.46-5.318 3.354-6.664 6.795-8.253 4.961-2.296 6.112-4.743 6.603-6.205a16.388 16.388 0 003.879-1.265l.118.265c-.547 2.411-2.429 9.379-6.82 12.809zm11.669-9.39l-4.259-9.174 50.13-23.263c3.277 6.226 3.605 13.597 3.605 13.597l-49.476 18.84zm332.795 4.096c1.482-2.965-6.714-12.568-6.28-14.744.435-2.176 1.406-5.51-2.076-18.13-3.481-12.62-13.94-15.669-26.56-16.974s-29.304 7.745-33.072 17.624c-2.274 5.962-.736 12.622 1.65 18.961-1.071.116-3.122.175-4.634-.942-1.204-.897-1.863-2.421-1.978-4.522-.422-8.003 3.944-21.112 3.991-21.241l.327-.979-13.707-4.834.806 6.432-10.577-2.258.646 1.774c.931 2.557 9.124 25.035 10.227 27.02 1.809 3.243 4.264 5.318 7.296 6.161 1.088.306 2.163.422 3.182.422.131 0 .241-.034.37-.038-.621 1.143-1.877 2.584-5.075 4.069-3.752 1.729-7.55 3.593-7.966 10.596l-.113.059c.034.065.073.1.107.164-.09 1.85-.006 3.965.437 6.622 1.101 6.568 3.339 13.014 3.434 13.285l.217.619.653.075c.047 0 4.352.516 5.671 5.038.761 2.617 3.161 4.604 5.521 4.604.061 0 .122-.007.183-.007 1.02-.047 3.488-.578 4.29-4.576l.116-.578-6.483-5.965 2.173-7.165-1.034-.279c-.061-.015-4.354-1.308-8.798-6.154-.412-1.996-.363-3.438.169-4.256.605-.918 1.89-1.176 3.379-1.475 1.387-.279 2.822-.564 3.985-1.469 3.737-2.921 5.828-7.944 6.888-11.383.574 1.3 1.124 2.563 1.611 3.767 3.699 9.139-6.527 19.582-6.527 19.582 6.527 2.611 7.18 4.133 16.319 15.448 9.139 11.314 17.407 6.527 17.407 6.527s-1.176-7.244 4.83-10.302c6.007-3.058 6.143-6.989 6.143-6.989 14.99 3.522 15.891-2.621 15.235-4.751-.655-2.129.164-5.487.164-5.487s1.51.095 2.621-.655c1.761-1.187.574-4.013.574-4.013 1.72-.819 2.376-2.621 1.065-4.014s-1.229-2.948-1.229-2.948 3.439.244 4.422-1.721zm-73.379-8.666c-2.475-.686-4.508-2.428-6.038-5.167-.727-1.305-5.821-15.02-9.444-24.947l7.601 1.62 1.429 11.407 2.067-.258-2.088-16.672 8.595 3.026c-1.034 3.271-4.161 13.857-3.774 21.037.142 2.754 1.088 4.8 2.808 6.086 1.557 1.163 3.427 1.434 4.855 1.434.842 0 1.415-.082 1.802-.15.213.524.433 1.039.652 1.557-1.208.592-4.748 2.081-8.465 1.027zm8.166 43.094c-.292 1.026-.911 2.284-2.202 2.339h-.095c-1.421 0-3.019-1.394-3.516-3.094-.025-.087-.077-.132-.105-.217l1.06-3.5 4.858 4.472zm-4.61-12.47l-2.656 8.743c-1.723-2.338-4.137-3.165-5.306-3.438-.572-1.72-2.271-7.079-3.155-12.361a39.026 39.026 0 01-.361-3.004c4.401 6.44 9.361 9.219 11.478 10.06zm-.985-16.664c-.768.598-1.903.823-3.107 1.067-1.707.34-3.63.727-4.718 2.38-.397.605-.594 1.363-.695 2.207-.694-.981-1.405-1.811-2.055-3.005.46-5.318 3.354-6.664 6.795-8.253 4.961-2.296 6.112-4.743 6.603-6.205a16.388 16.388 0 003.879-1.265l.118.265c-.548 2.411-2.43 9.379-6.82 12.809zm11.668-9.39l-4.259-9.174 50.13-23.263c3.277 6.226 3.605 13.597 3.605 13.597l-49.476 18.84z" fill="#464655"/></svg>