<svg xmlns="http://www.w3.org/2000/svg" viewBox="0 0 512 512"><path d="M0 126.62v258.76c0 21.177 17.167 38.345 38.345 38.345h435.31c9.386 0 17.98-3.377 24.644-8.975L13.7 97.251C5.326 104.285 0 114.828 0 126.62z" fill="#ffe15a"/><path d="M473.655 88.275H38.345a38.179 38.179 0 00-24.644 8.977L498.3 414.748c8.374-7.034 13.7-17.578 13.7-29.369V126.62c0-21.178-17.167-38.345-38.345-38.345z" fill="#ff4b55"/><g fill="#ffbe55"><path d="M272.821 232.352c.988-.794 1.805-1.777 1.495-2.604-.258-.686-1.533-1.323-2.883-1.997-2.506-1.252-5.853-2.97-6.964-7.084-.132-.013-.255-.001-.392-.026-1.1-.204-1.786.174-2.582 2.759-.146.471-.456 1.228-.867 2.094.824.546 2.882 1.815 4.887 2.271 3.972.899 6.418 2.434 7.306 4.587zm-15.414-1.75c1.186 1.082 2.275 2.31 3.346 3.681.062.079.128.158.191.236 2.661-2.04 6.042-2.052 8.397-1.667-.683-.708-2.013-1.402-4.533-1.976-2.337-.53-4.601-1.853-5.72-2.572a18.21 18.21 0 01-1.681 2.298zm13.484 11.709c1.246.721 3.751 2.343 5.92 4.683.32-1.8.225-4.19-1.466-6.293-1.445.8-2.991 1.306-4.454 1.61zm-20.739-21.03l-.418.508c-2.081 2.545-4.442 5.319-6.698 7.581 1.373-.648 2.991-1.122 4.669-1.375.6-.961 2.428-3.51 4.674-6.581-.542-.346-1.617-.872-2.227-.133zm-8.159 12.896c.01.017.152.191.55.341.691.266 1.972.358 3.308-.258 3.89-1.81 7.818-.82 11.679 2.916.011.011.007.029.018.04s.029.008.039.019c.023.023 1.322 1.326 3.665 2.52a47.814 47.814 0 01-3.011-3.507c-1.4-1.789-2.611-3.332-4.052-4.252-3.657-2.322-10.027-.287-11.828 1.614-.298.313-.368.518-.368.567zm30.245 2.311s-.009.001-.012.003c-.201.094-.419.14-.644.145-.01 0-.02.007-.03.007-.023 0-.043-.021-.067-.022a1.607 1.607 0 01-.491-.077c-.054-.02-4.994-1.76-8.01.424.844.949 1.8 1.825 2.867 2.624 1.482.034 6.614-.054 9.537-2.785 1.476-1.378 1.601-2.884 1.353-4.068-1.091 1.706-3.022 3.044-4.503 3.749zm-45.048-1.625c-.249-.361-.522-.674-.736-1.101-.352-.703-.537-1.449-.724-2.193-1.135 1.816-2.33 4.642-1.603 7.77.855-2.024 2.146-3.562 3.063-4.476z"/><path d="M254.778 228.773c1.438-1.502 3.208-4.836 3.663-6.315.437-1.427 1.768-5.767 6.206-4.963.988.183 1.72-.445 2.167-.999-1.079-1.231-2.49-2.03-3.715-2.059-.915-.087-1.966.495-2.78 1.589-3.992 5.379-7.03 9.535-8.675 11.852 1.106.129 2.149.451 3.134.895zm-10.307-9.682c-2.475 3.304-5.076 5.167-6.973 6.528-2.5 1.793-3.118 2.401-2.968 3.79.031.282.152.491.404.691.332.264.811.452 1.355.591.033-.017.054-.045.089-.06 2.985-1.215 8.93-8.479 10.886-10.867l.423-.516c2.071-2.506 4.988-1.503 6.583-.415.551-.747 1.106-1.5 1.661-2.25-2.884-3.477-7.65-2.569-11.46 2.508zm25.171-1.067a6.835 6.835 0 01-2.009 1.917c.794 2.636 3.011 3.846 5.227 4.95 1.315.655 2.553 1.31 3.446 2.236.748-2.678.651-4.809-.384-6.289-1.519-2.171-4.748-2.699-6.28-2.814zm-11.668 95.757l.348.395c4.394 5.001 8.544 9.832 11.308 13.9-.083-2.197-.233-4.472-.498-6.053a1.336 1.336 0 01-.017-.155c-1.41-1.822-2.929-3.52-4.531-4.956-4.683-4.185-7.323-8.384-8.8-11.62-.251 2.784.066 6.076 2.19 8.489zm-2.248-16.143a13.146 13.146 0 01-.991-2.155c-.002-.007 0-.013-.003-.02-.023-.009-.046-.018-.07-.025-.957 1.658-2.71 2.801-4.584 2.805h-.009c-.145 0-.274-.056-.415-.068-.244 1.078-.323 2.296.359 2.947.768.74 2.328.73 3.144.522.396-1.688.834-2.884.89-3.022a1.594 1.594 0 011.679-.984zm-3.125 7.297c-.169.011-.324.039-.501.039-.477 0-.973-.064-1.471-.162-.294 1.102-.396 2.346.337 3.095.458.468 1.128.649 1.677.683-.12-1.262-.149-2.502-.042-3.655zm-59.397-71.132l-.008.004c-3.208 1.074-7.017.811-10.349.158 1.943 2.996 2.686 6.607 2.773 9.964 4.185-5.459 8.818-7.959 12.135-9.144-1.706-.152-3.245-.468-4.551-.982zm75.627 79.411c-.724-.056-2.357-.263-4.296-.852.683.722 1.366 1.444 2.179 2.172 5.342 4.776 9.686 12.049 12.523 17.657 1.011-3.619 3.389-6.723 5.945-9.078-7.138-.472-12.722-5.443-16.351-9.899zm-36.124-58.45a12.338 12.338 0 01-3.765-1.529c-.855 2.721-1.453 5.241-1.782 7.542 1.77-.163 3.108-.148 4.019-.074a40.04 40.04 0 011.528-5.939zm-50.412-7.785c.383-3.775.178-9.802-4.01-13.423-.013-.002-.025.003-.04.001-.129-.017-12.103-1.743-20.095 6.42-3.006 3.071-4.961 5.475-6.53 7.405-2.129 2.621-3.657 4.502-6.136 5.958 7.5 2.673 25.682 7.178 36.811-6.361zm111.245-48.385c3.345 1.796 8.993 3.911 13.934 1.43.007-.012.007-.025.013-.038.063-.104 6.234-10.514 1.751-21.023-1.687-3.953-3.162-6.678-4.348-8.866-1.605-2.966-2.761-5.101-3.16-7.95-5.331 5.916-16.448 20.988-8.19 36.447zm-4.568 125.531c-3.01 2.31-7.26 6.583-7.029 12.111.01.014.026.021.036.036.068.1 7.023 10.002 18.445 10.231 4.308.087 7.391-.137 9.875-.32 3.368-.249 5.783-.42 8.54.378-3.202-7.287-12.385-23.595-29.867-22.436zm-24.878-18.065c-.03-.063-.004-.131-.025-.195l-2.183 1.863c1.429.889 2.938 1.433 4.228 1.773-1.286-1.973-1.994-3.387-2.02-3.441zm-9.005-21.304a17.096 17.096 0 01-1.8-.211c-.458.74-1.462 2.847.021 5.504.552.99 1.481 2.23 2.775 2.534.772.175 1.658-.084 2.598-.586-1.915-3.096-3.068-5.825-3.594-7.241zm32.661-56.199a167.488 167.488 0 008.277-6.645c1.077-6.831 5.062-13.193 8.629-17.72-3.628.503-7.348-.387-10.483-1.727 4.195 11.23-4.888 23.672-6.592 25.866.054.079.116.146.169.226zm-28.226 76.985l2.892-2.47c-1.88-.648-3.682-1.707-5.155-3.317.22 1.016.829 3.11 2.263 5.787zm-35.676-44.302c.365-3.085 1.176-6.521 2.438-10.271-.809-.92-1.518-2.041-2.082-3.38-1.493 3.454-3.65 9.106-4.482 14.581a54.593 54.593 0 014.126-.93zm55.943-38.925c.364 2.074.127 4.461-.871 7.223.6 1.067 1.107 2.552 1.108 4.166 1.265-.269 1.358-1.035 1.75-5.214l.167-1.727c.158-1.586-.127-2.796-.849-3.591-.373-.412-.837-.664-1.305-.857zm-.347 27.304c1.038-.215 2.354-.666 3.405-1.636 1.591-1.469 3.353-4.58 3.064-5.978-.035-.174-.079-.287-.383-.395-1.154-.412-1.502-.263-1.5-.258-.071.054-.202.345-.279.516-.2.441-.47 1.041-1.074 1.436-.921.6-1.791.76-2.593.764.234 2.228-.206 4.254-.64 5.551zm-58.547-14.004a14.64 14.64 0 011.226-4.06c-2.906-1.087-9.474-3.208-14.839-2.47-7.578 1.02-13.341.171-16.998-.811 1.751 1.805 4.759 3.682 9.468 3.487 11.679-.234 18.375 2.408 21.143 3.854zm-14.661-.457c-2.764 2.165-4.802 4.767-6.195 6.988 4.294-2.226 9.806-4.447 13.452-5.842-1.964-.499-4.38-.909-7.257-1.146zm78.645 3.039a7.684 7.684 0 011.652.381c-.025-.124-.045-.233-.077-.382-.195-.9-.447-2.144-.383-3.953-.001-.012-.008-.021-.008-.033 0-.011.006-.021.006-.033.001-.038-.006-.058-.003-.096a6.24 6.24 0 00-1.23-4.043c-.219 2.159-.501 3.79-1.269 4.937.455.722.992 1.841 1.312 3.222zm4.124-6.589c.053.234.102.47.138.713 9.359-1.27 16.006-10.684 19.839-18.223-8.146 8.623-17.298 15.545-19.977 17.51zm-38.934 63.439h.002c.799-.004 1.614-.605 1.962-1.4a10.146 10.146 0 01-1.517-2.04c-.299-.535-.494-1.049-.673-1.557-.631.383-1.33.929-1.643 1.631-.235.52-.225 1.065.029 1.714.296.753.854 1.652 1.84 1.652zm-33.678-31.903c.637-5.751 2.733-11.704 4.39-15.682-1.036.789-2.329 1.598-3.927 2.364-.179.397-3.405 7.625-4.631 14.783a84.118 84.118 0 014.168-1.465zm56.592 50.021a20.89 20.89 0 005.092-.104c-2.844-.97-5.679-2.255-8.001-3.412a36.482 36.482 0 002.909 3.516zm-22.838-29.493c-7.686-2.919-13.749-11.19-15.922-21.709-.639 4.083-.68 9.139 1.494 13.675 2.356 4.918 7.022 8.375 13.716 10.41a8.55 8.55 0 01.712-2.376zm40.894-48.335c-.17.036-.354.034-.525.066 2.135 2.336 10.717 12.724 13.041 30.852 1.597.611 3.085 1.238 4.346 1.874-.834-7.376-4.173-26.035-16.862-32.792zm-82.235 30.645c.666-5.517 2.606-11.189 3.926-14.551a40.248 40.248 0 01-4.458 1.097c-2.88 4.826-4.626 12.064-5.429 16.15a119.537 119.537 0 015.961-2.696zm51.708 28.705c-.8.467-1.546.77-2.232.938 1.782 3.527 5.092 4.73 7.903 5.043-2.272-1.8-4.124-3.892-5.671-5.981z"/><path d="M237.527 234.923c.395-.182.886-.323 1.335-.484-.008-.083-.029-.159-.03-.245-1.871-.038-4.317-.341-5.889-1.593-.917-.733-1.466-1.714-1.589-2.841-.372-3.399 1.889-5.022 4.281-6.735.975-.701 2.082-1.512 3.232-2.541-3.501-.239-6.641.934-8.59 3.468-1.929 2.505-2.298 5.717-.966 8.38 1.817 3.643 5.738 3.276 8.216 2.591zm-4.317 3.552c-.932-.107-1.835-.397-2.707-.788-.136 1.826-.023 4.305 1.164 5.76.03-.817.13-1.646.37-2.464a9.088 9.088 0 011.173-2.508zm11.968 1.099c3.802.299 6.72-.668 8.458-1.486-2.918-2.081-5.038-1.585-6.442-.93-2.255 1.049-4.779.983-6.485 0-.63.286-1.312.57-2.109.799-1.783.895-2.942 2.167-3.455 3.798-.162.513-.189 1.02-.227 1.523.033-.028.034-.079.07-.105 3.658-2.622 7.084-3.8 10.19-3.599zm17.365 44.023c-1.305.514-2.653.894-4.042 1.081.92 2.195 2.738 5.93 5.615 9.436 1.501-2.526-.266-7.96-1.573-10.517zm-30.345-36.122c-3.393-1-4.704-4.113-4.945-7.328-.73 1.527-1.121 3.436-.39 5.558 1.472 4.256 4.687 5.497 6.577 5.891.021-.495.043-.989.081-1.481-.01-.011-.025-.014-.035-.025-.441-.486-.924-1.43-1.288-2.615zm-11.358-8.287c-.116-.05-.245-.039-.35-.117-.018-.012-.751-.5-2.116-1.12-4.803 2.592-7.5 7.88-8.733 11.03 8.703-2.109 11.462-6.068 12.001-6.993a11.712 11.712 0 01-.802-2.8zm56.233 35.117c1.614-3.497 1.962-7.502 1.108-11.937-1.931 8.889-6.652 16.132-12.768 19.818.279.561.588 1.255.91 2.078 2.401-1.05 8.01-4.027 10.75-9.959zm3.854-33.675c.194-.521.483-1.06.906-1.511a7.12 7.12 0 00-.917-2.368c-.476.126-1.01.218-1.618.279-.042.003-.083.006-.125.007a7.916 7.916 0 01-1.293 1.75c.487.615.907 1.231 1.215 1.866.084.046.186.018.263.079.13.094.727.448 1.569-.102zm4.543 9.235c1.651 4.334 2.68 8.28 3.089 11.762 1.3.339 2.686.712 4.125 1.117-.825-6.136-3.405-12.589-4.931-16.007-.678 1.216-1.5 2.311-2.283 3.128zm-.263 10.913c-.425-2.691-1.235-5.682-2.424-8.935-1.353.661-2.682.943-3.661 1.069.002.169.018.334.018.504 0 .406-.033.801-.044 1.204.039.065.094.114.124.186a38.59 38.59 0 011.644 4.946c.503.112 2.094.472 4.343 1.026zm10.811 2.935c1.364.412 2.731.844 4.063 1.292-2.018-12.932-7.313-21.527-10.268-25.401a5.183 5.183 0 01-.534 2.077c-.044.093-.135.136-.193.216.014.175.043.348.039.529.118.116.233.236.312.392.229.446 5.665 11.121 6.581 20.895z"/></g><path d="M256.241 281.641c10.866 0 19.704-12.661 19.704-28.225 0-.853-.028-1.694-.079-2.529-2.112-3.175-5.804-5.388-6.898-5.995-6.514-.117-10.861-3.017-12.715-4.552-1.843 1.069-5.842 2.817-11.315 2.421-2.218-.141-4.759.728-7.593 2.658a39.524 39.524 0 00-.809 7.997c0 15.564 8.84 28.225 19.705 28.225zm-77.116 19.942c.291-.079 3.222-.874 7.513-1.227 19.873-4.479 43.208-18.734 47.414-21.372-.413-.657-.886-1.273-1.224-1.981-2.091-4.374-2.425-9.044-2.076-13.116-2.994-.191-12.125.236-29.301 9.059a1.61 1.61 0 01-1.656-.122 1.595 1.595 0 01-.655-1.527c.05-.354.863-5.911 2.719-11.819-9.869 2.069-30.705 23.097-42.175 34.685a652.806 652.806 0 01-5.771 5.792c-.228.225-.47.437-.714.653-1.45 1.281-2.947 2.604-1.887 10.234.978 7.043 10.14 7.764 16.957 7.809h.499c2.145 0 7.31 1.785 16.257 4.942 8.687 3.066 18.534 6.54 24.909 7.734 3.05.566 5.912 1.078 8.552 1.548 8.058 1.44 13.881 2.475 16.929 3.736 3.699 1.532 7.778 9.09 11.313 16.055l.679 1.327c2.082 4.019 2.474 9.049 1.017 13.122-.707 1.985-.202 3.025.05 3.382.247.35.536.474.71.474.822 0 1.415 0 2.072-2.08.83-2.625 1.038-2.879 4.529-7.102l.954-1.152c3.598-4.364-.007-13.318-1.739-17.624l-.244-.604c-1.231-3.079-.141-6.312.914-9.436.717-2.126 1.459-4.323 1.459-6.424 0-.458-.122-.766-.412-1.041-1.677-1.589-7.362-1.286-11.517-1.074-1.532.083-2.983.158-4.227.158-6.432 0-16.753-6.428-31.762-16.238-7.442-4.855-16.264-5.276-22.251-4.797-2.479.541-4.914.936-7.262 1.149a1.607 1.607 0 01-1.716-1.302 1.594 1.594 0 011.143-1.821zm183.584-104.925c-2.7.57-3.025.508-8.457-.482l-1.431-.258c-5.581-1.027-11.608 6.528-14.511 10.143l-.409.508c-2.082 2.58-5.431 3.208-8.669 3.819-2.207.416-4.489.844-6.322 1.876-.397.221-.607.482-.705.87-.566 2.234 2.479 7.048 4.704 10.563.82 1.294 1.596 2.526 2.205 3.607 3.147 5.604 2.592 17.753 1.386 35.647-.628 9.341 3.793 17.603 7.237 22.529a67.73 67.73 0 013.998 4.959 1.595 1.595 0 01-.252 2.155 1.592 1.592 0 01-2.169-.087c-.197-.2-2.026-2.063-4.202-5.159-8.735-9.729-19.46-16.161-23.921-18.601.116 1.27.161 2.134.168 2.316a1.593 1.593 0 01-1.596 1.656c-.353 0-.705-.117-.994-.345-4.235-3.372-19.798-7.471-27.185-9.184.651 4.559.114 8.739-1.625 12.487-1.785 3.846-4.532 6.552-7.116 8.456 13.55 16.742 45.638 23.895 64.958 28.182 4.974 1.102 9.272 2.056 12.431 2.97.31.092.614.195.919.303 1.828.637 3.711 1.298 9.853-3.366 5.665-4.302 1.862-12.681-1.494-18.61l-.244-.433c-1.048-1.868-2.02-7.247-3.645-16.593-1.579-9.078-3.368-19.368-5.45-25.513-1.001-2.95-1.96-5.708-2.846-8.25-2.684-7.713-4.625-13.289-5.015-16.555-.474-3.974 4.115-11.225 8.455-17.711l.834-1.257c2.49-3.786 6.684-6.586 10.946-7.31 2.074-.353 2.735-1.306 2.923-1.697.183-.387.152-.698.068-.849-.402-.711-.691-1.24-2.827-.786zm-208.083-1.082c1.862 2.035 1.976 2.343 3.894 7.485l.52 1.389c1.985 5.304 11.55 6.653 16.145 7.297l.637.092c3.281.47 5.534 3.025 7.713 5.501 1.485 1.685 3.02 3.424 4.841 4.472.399.228.73.279 1.109.162 2.214-.653 4.793-5.729 6.676-9.436.697-1.368 1.356-2.667 1.978-3.744 3.206-5.562 13.931-11.296 29.929-19.405 8.817-4.472 13.726-13.169 16.064-18.626a48.359 48.359 0 011.822-5.08c.331-.77 1.19-1.132 1.983-.886a1.602 1.602 0 011.034 1.913c-.063.245-.62 2.343-1.878 5.309-4.28 14.562-4.088 35.19-3.802 43.496 3.226-3.532 6.293-4.332 8.406-4.332 2.333 0 4.468 1.022 6.174 2.814 1.788-2.318 3.826-2.767 5.311-2.755 2.696.066 4.93 1.796 6.353 3.594 1.559.079 5.078.494 7.642 2.69 3.533-17.342-4.588-41.982-10.071-58.578-1.716-5.196-3.2-9.686-4.131-13.263a16.142 16.142 0 01-.212-.949c-.387-1.894-.787-3.852-7.924-6.744-6.599-2.692-11.851 4.876-15.236 10.784l-.249.437c-1.071 1.859-5.203 5.447-12.413 11.625-6.989 5.991-14.913 12.786-19.128 17.711a947.627 947.627 0 00-5.612 6.627c-5.269 6.265-9.078 10.793-11.693 12.802-3.179 2.446-11.77 2.205-19.582 1.785l-1.469-.075c-2.462-.108-4.904-.843-7.096-1.985l-.182-.045-.107-.13c-1.713-.936-3.283-2.091-4.489-3.51-.791-.931-1.494-1.322-2.046-1.502l-1.756.39c-.355.636-.515 1.186.845 2.67z" fill="#ffd7aa"/><path d="M368.321 195.884c-1.271-2.268-3.208-2.991-6.265-2.355-2.091.441-2.091.437-7.231-.495l-1.436-.263c-7.456-1.356-14.285 7.189-17.572 11.287l-.406.503c-1.342 1.664-3.859 2.134-6.773 2.684-2.458.466-5.003.945-7.294 2.23-1.152.649-1.929 1.64-2.24 2.871-.9 3.57 2.151 8.392 5.102 13.056.787 1.244 1.533 2.425 2.118 3.466 2.916 5.196 1.934 19.77.986 33.867-.372 5.529.811 10.655 2.563 15.04-9.06-7.797-17.748-12.198-19.156-12.887-1.25-8.465-4.959-23.398-15.756-30.861 14.04-6.222 20.713-27.388 21.031-28.429a1.595 1.595 0 00-.809-1.894 1.59 1.59 0 00-2.003.479c-3.668 4.979-8.384 9.812-12.836 13.905 2.725-7.7 8.778-14.423 11.403-17.07a15.55 15.55 0 001.352-1.314 1.601 1.601 0 00-.045-2.205c-.214-.216-.502-.269-.779-.337 1.632-4.508 3.147-11.85-.097-19.455-1.743-4.086-3.257-6.886-4.474-9.132-2.183-4.032-3.179-5.87-2.879-10.126a1.594 1.594 0 00-.888-1.544 1.59 1.59 0 00-1.767.237c-.222.196-20.818 18.855-12.996 39.512-.236.083-.489.131-.671.326a1.598 1.598 0 00-.031 2.138c8.776 10.013-.949 24.012-3.177 26.947-.05-.033-.097-.076-.148-.108 0-1.998-.541-3.667-1.683-4.93-1.004-1.109-2.252-1.695-3.356-2.008 4.168-18.191-3.954-42.866-9.969-61.074-1.699-5.146-3.168-9.586-4.075-13.068-.066-.258-.118-.516-.172-.778-.618-3.029-1.785-5.8-9.854-9.07-9.931-4.019-16.917 8.159-19.209 12.161l-.244.425c-.851 1.478-6.38 6.216-11.726 10.796-7.078 6.066-15.101 12.943-19.478 18.057-2.02 2.364-3.896 4.597-5.628 6.653-4.949 5.882-8.855 10.526-11.196 12.328-2.507 1.93-13.376 1.344-17.462 1.123l-1.497-.079c-3.666-.162-7.337-1.901-9.583-4.547-1.641-1.934-3.709-2.921-5.675-2.759-1.396.129-2.611.861-3.247 1.964-1.298 2.251-.934 4.286 1.18 6.586 1.441 1.577 1.441 1.577 3.255 6.441l.522 1.398c2.65 7.081 13.484 8.604 18.691 9.341l.628.087c2.115.303 3.809 2.226 5.771 4.451 1.388 1.572 2.888 3.114 4.653 4.369-.108.054-.234.058-.33.138a1.603 1.603 0 00-.51 1.71c.018.054 1.122 3.04 4.082 5.617-4.668.228-10.003-1.558-12.142-2.38-.339-.15-.691-.291-1.053-.425a1.598 1.598 0 00-2.028.907c-.11.274-.113.556-.071.829-4.79.224-12.113 1.646-17.871 7.521-3.11 3.179-5.118 5.646-6.728 7.63-2.891 3.558-4.213 5.18-8.258 6.532a1.592 1.592 0 00-1.088 1.41c-.044.649.31 1.257.895 1.539.164.079 9.667 4.594 20.705 4.594 6.974 0 14.558-1.813 20.79-7.673.166.179.301.39.544.48a1.602 1.602 0 001.988-.791c4.612-9.335 10.97-12.692 14.671-13.895-3.299 4.2-4.75 8.168-4.831 8.403a1.596 1.596 0 002.545 1.739c2.409-2.051 8.275-4.693 13.249-6.723-3.008 4.12-4.313 8.491-4.588 9.498-1.047 1.681-1.95 3.619-2.726 5.629-9.717.351-27.849 17.853-45.619 35.806-2.157 2.18-4.1 4.14-5.743 5.758-.19.188-.387.362-.589.541-2.313 2.047-4.134 4.439-2.935 13.068 1.478 10.617 15.523 10.593 20.132 10.563h.489c1.702 0 8.561 2.421 15.192 4.759 8.798 3.108 18.769 6.624 25.387 7.859 3.058.574 5.931 1.086 8.579 1.556 7.564 1.348 13.538 2.418 16.266 3.544 2.919 1.206 7.834 10.897 9.686 14.546l.691 1.356c1.689 3.254 2.014 7.31.846 10.577-.853 2.388-.691 4.681.445 6.295.809 1.144 2.051 1.831 3.322 1.831 2.599 0 4.178-1.332 5.118-4.31.643-2.035.643-2.035 3.944-6.028l.957-1.161c4.81-5.828.726-15.972-1.238-20.849l-.242-.599c-.792-1.985.025-4.414.973-7.223.801-2.371 1.626-4.822 1.626-7.447 0-1.323-.487-2.484-1.408-3.362-2.671-2.534-8.375-2.226-13.884-1.943-1.471.079-2.865.155-4.058.155-5.962 0-18.19-7.988-30.014-15.714-4.437-2.9-9.247-4.377-13.752-5.043 17.908-6.13 35.383-16.947 38.743-19.081 2.622 2.986 6.122 5.357 10.622 6.983a6.151 6.151 0 00-1.278 1.805c-.59 1.306-.604 2.759-.038 4.206a6.348 6.348 0 001.457 2.193c-1.024 3.583-.02 5.561 1.034 6.606-1.15 3.567-.154 5.665.934 6.783 1.142 1.17 2.728 1.668 4.125 1.668.184 0 .334-.057.51-.074.476 1.459 1.14 2.888 2.257 4.159l.348.391c4.824 5.487 12.896 14.67 13.848 18.955.179.799.93 1.314 1.727 1.244a1.596 1.596 0 001.431-1.572c.002-.237.035-3.927-.134-7.689 3.544 5.75 5.991 11.454 6.81 13.46.099.27.21.545.329.82a1.597 1.597 0 002.067.849c.267-.109.469-.296.634-.509 3.448 3.335 9.503 7.691 17.728 7.855 4.441.071 7.62-.146 10.171-.329 4.57-.337 6.655-.487 10.41 1.532a1.6 1.6 0 002.282-1.881c-.09-.283-8.65-26.692-30.685-28.074.022-.252.081-.503-.024-.75a1.583 1.583 0 00-1.937-.907c-5.452 1.668-10.194-.075-13.961-2.867 4.874-.303 8.257-1.981 8.434-2.068a1.599 1.599 0 00-.554-3.016c-7.142-.753-18.034-7.277-18.142-7.343-.043-.025-.095-.01-.14-.031.021-.024.041-.051.06-.076.611.057 1.213.086 1.791.086a17.66 17.66 0 003.593-.353 1.6 1.6 0 00.376-3c-2.178-1.071-4.064-2.519-5.707-4.116 1.967-2.388 1.783-5.993.966-9.178a26.171 26.171 0 002.86-1.425c14.127 17.779 45.855 24.849 66.955 29.535 4.921 1.09 9.172 2.035 12.238 2.921.254.075.501.162.755.249 1.005.35 2.016.628 3.193.628 2.242 0 5.09-1.011 9.642-4.465 8.542-6.49 1.629-18.714-.644-22.729l-.237-.425c-.832-1.481-2.078-8.646-3.283-15.573-1.6-9.195-3.412-19.613-5.575-25.991-1.003-2.963-1.966-5.729-2.852-8.275-2.521-7.243-4.512-12.96-4.86-15.889-.376-3.128 5.663-12.157 7.936-15.552l.849-1.278c2.018-3.071 5.393-5.334 8.81-5.912 2.5-.428 4.423-1.694 5.271-3.478.599-1.264.589-2.68-.033-3.786zm-2.853 2.412c-.188.391-.849 1.344-2.923 1.697-4.263.724-8.456 3.524-10.946 7.31l-.834 1.257c-4.34 6.486-8.928 13.738-8.455 17.711.391 3.266 2.332 8.841 5.015 16.555.886 2.542 1.845 5.301 2.846 8.25 2.082 6.145 3.871 16.434 5.45 25.513 1.624 9.345 2.596 14.724 3.645 16.593l.244.433c3.356 5.929 7.158 14.308 1.494 18.61-6.141 4.664-8.023 4.002-9.853 3.366a17.944 17.944 0 00-.919-.303c-3.16-.915-7.458-1.868-12.431-2.97-19.319-4.287-51.407-11.441-64.958-28.182 2.584-1.903 5.33-4.61 7.116-8.456 1.739-3.747 2.275-7.927 1.625-12.487 7.386 1.713 22.949 5.811 27.185 9.184a1.605 1.605 0 001.716.174c.555-.282.898-.861.874-1.485a52.454 52.454 0 00-.168-2.316c4.46 2.44 15.186 8.872 23.921 18.601 2.176 3.095 4.004 4.959 4.202 5.159a1.59 1.59 0 002.169.087 1.596 1.596 0 00.252-2.155 67.73 67.73 0 00-3.998-4.959c-3.445-4.926-7.865-13.188-7.237-22.529 1.206-17.895 1.762-30.044-1.386-35.647-.609-1.081-1.386-2.313-2.205-3.607-2.223-3.516-5.269-8.33-4.704-10.563.098-.387.308-.649.705-.87 1.833-1.032 4.115-1.46 6.322-1.876 3.236-.611 6.586-1.24 8.669-3.819l.409-.508c2.904-3.616 8.93-11.171 14.511-10.143l1.431.258c5.431.99 5.756 1.053 8.457.482 2.136-.454 2.425.075 2.827.79.083.147.115.459-.068.845zm-55.167 147.887c-2.484.183-5.567.408-9.875.32-11.423-.228-18.377-10.131-18.445-10.231-.01-.014-.026-.022-.036-.036-.231-5.528 4.019-9.802 7.029-12.111 17.482-1.159 26.665 15.148 29.868 22.436-2.758-.798-5.174-.628-8.541-.378zm-31.062-13.992c-2.837-5.609-7.181-12.881-12.523-17.657-.813-.727-1.496-1.45-2.179-2.172 1.939.589 3.572.796 4.296.852 3.629 4.456 9.213 9.427 16.352 9.899-2.558 2.356-4.936 5.46-5.946 9.078zm-28.608-27.379c.497.098.994.162 1.471.162.177 0 .331-.028.501-.039-.107 1.153-.078 2.395.043 3.656-.548-.034-1.219-.216-1.677-.683-.735-.752-.632-1.994-.338-3.096zm2.528-3.169c-.815.209-2.376.217-3.144-.522-.681-.651-.602-1.87-.359-2.947.141.013.27.068.415.068h.004c1.877-.003 3.631-1.145 4.588-2.805.023.009.046.018.07.025.002.007 0 .013.003.02.277.789.617 1.497.991 2.155a1.591 1.591 0 00-1.677.982c-.057.141-.495 1.337-.891 3.024zm-73.459 3.068c2.348-.212 4.782-.607 7.262-1.149 5.987-.479 14.809-.059 22.251 4.797 15.009 9.811 25.33 16.238 31.762 16.238 1.244 0 2.696-.075 4.227-.158 4.154-.212 9.839-.516 11.517 1.074.289.275.412.583.412 1.041 0 2.101-.74 4.298-1.459 6.424-1.055 3.125-2.145 6.357-.914 9.436l.244.604c1.732 4.306 5.338 13.26 1.739 17.624l-.954 1.152c-3.49 4.223-3.699 4.477-4.529 7.102-.658 2.08-1.25 2.08-2.072 2.08-.172 0-.462-.125-.71-.474-.252-.358-.757-1.398-.05-3.382 1.457-4.073 1.065-9.103-1.017-13.122l-.679-1.327c-3.534-6.965-7.614-14.525-11.313-16.055-3.048-1.26-8.871-2.296-16.929-3.736-2.639-.47-5.502-.982-8.552-1.548-6.376-1.194-16.222-4.668-24.909-7.734-8.947-3.158-14.112-4.942-16.257-4.942h-.499c-6.817-.045-15.979-.766-16.957-7.809-1.06-7.63.437-8.953 1.887-10.234.244-.216.484-.428.714-.653a626.783 626.783 0 005.771-5.792c11.47-11.587 32.306-32.616 42.175-34.685-1.856 5.908-2.669 11.464-2.719 11.819a1.598 1.598 0 002.311 1.649c17.176-8.823 26.307-9.25 29.301-9.059-.35 4.073-.015 8.743 2.076 13.116.339.708.811 1.324 1.224 1.981-4.206 2.637-27.541 16.893-47.414 21.372-4.291.353-7.223 1.149-7.513 1.227a1.595 1.595 0 00-1.142 1.826c.148.81.905 1.367 1.715 1.297zm5.92-60.782c-.087-3.358-.83-6.969-2.773-9.964 3.332.653 7.142.916 10.349-.158l.008-.004c1.306.514 2.845.83 4.551.982-3.317 1.185-7.95 3.686-12.135 9.144zm-34 3.454c1.568-1.93 3.524-4.335 6.53-7.405 7.992-8.163 19.967-6.436 20.095-6.42.013.002.025-.003.04-.001 4.189 3.622 4.393 9.649 4.01 13.423-11.129 13.537-29.311 9.034-36.812 6.361 2.479-1.457 4.009-3.336 6.137-5.958zm157.62-68.419c4.483 10.509-1.689 20.919-1.751 21.023-.008.012-.007.025-.013.038-4.941 2.481-10.59.367-13.934-1.43-8.258-15.459 2.859-30.531 8.191-36.448.399 2.85 1.554 4.984 3.16 7.95 1.185 2.188 2.66 4.913 4.347 8.867zm-15.067 23.501c3.135 1.34 6.855 2.23 10.483 1.727-3.567 4.529-7.552 10.89-8.629 17.72a168.709 168.709 0 01-8.277 6.645c-.052-.081-.115-.148-.169-.226 1.703-2.192 10.787-14.636 6.592-25.866zm-34.649 103.077c-1.434-2.676-2.044-4.769-2.263-5.786 1.473 1.61 3.275 2.669 5.155 3.317l-2.892 2.469zm4.544.322c.022.064-.004.134.025.195.026.054.734 1.469 2.02 3.439-1.29-.34-2.799-.884-4.228-1.773l2.183-1.861zm.517 11.05c1.602 1.436 3.121 3.133 4.531 4.956.002.05.009.104.017.154.264 1.581.414 3.857.498 6.054-2.764-4.07-6.915-8.899-11.308-13.9l-.348-.395c-2.124-2.413-2.44-5.704-2.188-8.488 1.475 3.236 4.115 7.434 8.798 11.619zm-8.5-24.331c-1.294-.303-2.223-1.544-2.775-2.534-1.483-2.657-.479-4.764-.021-5.504.593.105 1.194.17 1.8.211.526 1.415 1.679 4.145 3.593 7.241-.939.503-1.825.761-2.597.586zm7.015-78.147c1.225.029 2.636.828 3.715 2.059-.447.553-1.18 1.182-2.167.999-4.437-.803-5.769 3.537-6.206 4.963-.456 1.479-2.226 4.813-3.663 6.315-.985-.444-2.028-.767-3.134-.895 1.645-2.318 4.682-6.473 8.675-11.852.813-1.093 1.864-1.677 2.78-1.589zm-8.914 17.561c1.441.919 2.653 2.463 4.052 4.252a48.059 48.059 0 003.011 3.507c-2.343-1.195-3.641-2.498-3.665-2.52-.011-.011-.028-.008-.039-.019s-.006-.029-.018-.04c-3.861-3.736-7.788-4.726-11.679-2.916-1.335.616-2.617.524-3.308.258-.397-.15-.538-.324-.55-.341 0-.05.071-.254.364-.566 1.805-1.902 8.174-3.937 11.832-1.615zm-11.15-2.63c2.257-2.261 4.617-5.036 6.698-7.581l.418-.508c.61-.739 1.685-.211 2.226.131-2.247 3.072-4.074 5.62-4.674 6.581-1.678.255-3.296.73-4.668 1.377zm21.772 1.506c2.52.574 3.85 1.268 4.533 1.976-2.355-.385-5.737-.373-8.397 1.667-.062-.079-.128-.158-.191-.236-1.07-1.372-2.159-2.599-3.346-3.681a17.796 17.796 0 001.679-2.298c1.119.721 3.384 2.043 5.722 2.572zm-4.18-5.381c.412-.866.723-1.622.867-2.094.794-2.583 1.481-2.963 2.582-2.759.137.024.259.012.392.026 1.111 4.114 4.458 5.832 6.964 7.084 1.351.674 2.625 1.311 2.883 1.997.31.828-.508 1.81-1.495 2.604-.888-2.151-3.332-3.687-7.306-4.589-2.005-.454-4.063-1.723-4.887-2.269zm-23.282 19.927c2.834-1.931 5.375-2.801 7.593-2.658 5.473.395 9.471-1.352 11.315-2.421 1.854 1.535 6.201 4.435 12.715 4.552 1.095.607 4.787 2.82 6.898 5.995.052.836.079 1.677.079 2.529 0 15.564-8.839 28.225-19.704 28.225s-19.704-12.661-19.704-28.225a39.31 39.31 0 01.808-7.997zm39.465 1.575c-2.169-2.34-4.674-3.964-5.92-4.683 1.462-.305 3.009-.811 4.454-1.609 1.691 2.103 1.787 4.493 1.466 6.292zm-1.423-10.192c-2.923 2.731-8.055 2.819-9.537 2.785a19.317 19.317 0 01-2.867-2.624c3.016-2.184 7.957-.444 8.01-.424.162.061.327.071.491.077.023.001.043.022.067.022.01 0 .02-.007.03-.007.225-.004.444-.051.644-.145.004-.002.009-.001.009-.001 1.485-.706 3.416-2.044 4.507-3.754.247 1.188.122 2.693-1.354 4.071zm.919-9.674c-.893-.926-2.131-1.58-3.446-2.236-2.217-1.106-4.433-2.314-5.227-4.95a6.86 6.86 0 002.009-1.917c1.532.115 4.761.644 6.281 2.815 1.033 1.478 1.131 3.609.383 6.288zm-22.039-8.293c-1.596-1.088-4.511-2.091-6.583.415l-.423.516c-1.955 2.388-7.901 9.653-10.886 10.867-.034.014-.056.043-.089.06-.544-.14-1.023-.328-1.355-.591-.252-.2-.372-.408-.404-.691-.15-1.389.468-1.997 2.968-3.79 1.897-1.361 4.498-3.224 6.973-6.528 3.81-5.078 8.576-5.985 11.457-2.507-.553.749-1.108 1.501-1.658 2.249zm-14.111-1.49c-4.993-.683-9.583.983-12.412 4.654-1.174 1.526-1.849 3.258-2.168 5.027-.192.079-.409.083-.565.239-.401.408-.824.924-1.246 1.494-2.803-1.1-10.389-3.731-16.911-2.846-7.541 1.021-13.11.024-16.356-.92 3.474-1.118 6.036-6.14 8.511-11.008.668-1.314 1.3-2.559 1.895-3.595 2.973-5.155 16.003-11.762 28.606-18.153 5.302-2.688 9.29-6.678 12.23-10.705-2.292 14.447-1.845 30.219-1.584 35.813zm-14.428 14.225c.188.743.373 1.49.724 2.193.214.427.488.74.736 1.101-.916.915-2.207 2.452-3.063 4.477-.727-3.129.468-5.956 1.603-7.771zm-1.526 16.02c.564 1.337 1.273 2.46 2.082 3.38-1.261 3.75-2.072 7.187-2.438 10.271-1.235.223-2.61.529-4.127.93.833-5.476 2.99-11.127 4.483-14.581zm2.957 13.186c.329-2.3.926-4.82 1.782-7.542a12.313 12.313 0 003.765 1.529 40.056 40.056 0 00-1.527 5.939c-.911-.072-2.25-.088-4.02.074zm-6.378-13.314c-1.656 3.978-3.753 9.931-4.39 15.682a84.738 84.738 0 00-4.169 1.463c1.227-7.157 4.452-14.386 4.631-14.783 1.599-.763 2.892-1.571 3.928-2.362zm-11.141 1.518c1.233-3.15 3.929-8.438 8.733-11.03 1.364.62 2.099 1.108 2.116 1.12.105.079.234.067.35.117.138.922.407 1.858.802 2.801-.54.924-3.298 4.884-12.001 6.992zm23.799 2.618c-1.889-.395-5.105-1.635-6.577-5.891-.733-2.122-.341-4.032.39-5.558.242 3.215 1.553 6.327 4.945 7.328.364 1.184.847 2.129 1.288 2.616.01.011.024.014.035.025-.038.491-.06.986-.081 1.48zm-2.936-13.91c.872.391 1.774.68 2.707.788a9.038 9.038 0 00-1.173 2.509c-.238.818-.34 1.649-.37 2.464-1.189-1.457-1.301-3.933-1.164-5.761zm-1.192-5.358c-1.333-2.663-.963-5.875.966-8.38 1.95-2.536 5.089-3.708 8.59-3.468-1.15 1.028-2.257 1.839-3.232 2.541-2.392 1.714-4.653 3.337-4.281 6.735.122 1.128.672 2.11 1.589 2.841 1.571 1.252 4.018 1.556 5.889 1.593.001.085.022.162.03.245-.449.16-.94.302-1.335.484-2.479.687-6.4 1.054-8.216-2.591zm5.833 9.423c.514-1.631 1.673-2.904 3.455-3.798a14.941 14.941 0 002.109-.799c1.705.983 4.228 1.049 6.485 0 1.404-.654 3.526-1.151 6.442.93-1.738.819-4.657 1.785-8.458 1.486-3.106-.2-6.532.978-10.191 3.598-.035.025-.036.077-.07.105.039-.502.066-1.007.228-1.522zm23.357 42.927c1.389-.188 2.737-.567 4.042-1.081 1.306 2.556 3.073 7.99 1.575 10.516-2.88-3.506-4.697-7.242-5.617-9.435zm19.678-22.312c.854 4.436.506 8.44-1.108 11.937-2.74 5.931-8.349 8.908-10.751 9.959a25.42 25.42 0 00-.91-2.078c6.118-3.684 10.839-10.928 12.769-19.818zm.916-7.748c.011-.403.044-.798.044-1.204 0-.17-.017-.334-.018-.504.979-.126 2.308-.408 3.661-1.069 1.19 3.253 1.999 6.243 2.424 8.935a211.9 211.9 0 00-4.344-1.025 38.59 38.59 0 00-1.644-4.946c-.029-.074-.085-.121-.123-.187zm-.001-13.966c-.308-.634-.728-1.251-1.215-1.866a7.962 7.962 0 001.293-1.75c.042-.001.083-.003.125-.007a10.495 10.495 0 001.618-.279c.333.537.728 1.373.917 2.368-.423.45-.712.99-.906 1.511-.843.55-1.44.195-1.568.104-.076-.062-.18-.034-.264-.081zm13.588 22.088c-1.44-.405-2.826-.778-4.125-1.117-.408-3.481-1.437-7.427-3.089-11.762.785-.818 1.605-1.912 2.282-3.128 1.527 3.419 4.107 9.872 4.932 16.007zm-3.599-20.847c.058-.079.149-.124.193-.216.375-.78.507-1.453.534-2.077 2.955 3.874 8.249 12.469 10.268 25.401a133.878 133.878 0 00-4.063-1.292c-.916-9.773-6.351-20.448-6.582-20.897a1.52 1.52 0 00-.312-.392c.005-.18-.023-.352-.038-.527zm14.472 24.36c-2.324-18.129-10.905-28.516-13.041-30.852.171-.032.356-.03.525-.066 12.689 6.759 16.028 25.415 16.861 32.791-1.26-.636-2.748-1.261-4.345-1.873zm-14.413-33.933a9.557 9.557 0 00-.138-.713c2.679-1.966 11.831-8.887 19.977-17.511-3.833 7.541-10.479 16.953-19.839 18.224zm-3.077 1.759c-.002.038.004.058.003.096 0 .011-.006.021-.006.033s.007.022.008.033c-.063 1.809.189 3.052.383 3.953.032.149.053.258.077.382a7.745 7.745 0 00-1.652-.381c-.321-1.383-.856-2.5-1.314-3.222.768-1.146 1.05-2.778 1.269-4.937a6.234 6.234 0 011.232 4.043zm-2.313 7.786c.077-.171.209-.462.279-.516-.002-.004.345-.154 1.5.258.303.108.348.221.383.395.289 1.398-1.473 4.51-3.064 5.978-1.052.97-2.367 1.421-3.405 1.636.433-1.298.873-3.324.642-5.554.802-.003 1.672-.162 2.593-.764.602-.392.872-.993 1.072-1.433zm-1.975-13.377c-.392 4.179-.484 4.945-1.75 5.214-.002-1.613-.509-3.098-1.108-4.165.999-2.762 1.235-5.149.871-7.223.468.194.931.445 1.305.857.722.794 1.006 2.005.849 3.591l-.167 1.726zm-74.494.595c5.366-.738 11.933 1.383 14.839 2.47a14.63 14.63 0 00-1.226 4.06c-2.769-1.446-9.464-4.086-21.144-3.853-4.707.195-7.715-1.681-9.468-3.487 3.658.982 9.42 1.829 16.999.81zm-1.048 6.073c2.878.237 5.293.649 7.257 1.146-3.647 1.395-9.159 3.616-13.452 5.842 1.392-2.223 3.43-4.824 6.195-6.988zm6.496 16.272c-1.32 3.362-3.26 9.034-3.926 14.551-1.873.789-3.84 1.665-5.961 2.696.804-4.086 2.549-11.324 5.429-16.15a40.304 40.304 0 004.458-1.097zm22.987 24.208c-2.175-4.536-2.134-9.592-1.494-13.675 2.173 10.519 8.236 18.791 15.922 21.709a8.553 8.553 0 00-.712 2.375c-6.694-2.034-11.361-5.492-13.716-10.409zm12.484 16.042c.313-.703 1.012-1.248 1.643-1.631.178.508.374 1.022.673 1.557.447.801.967 1.457 1.517 2.04-.348.796-1.163 1.396-1.962 1.4h-.002c-.986 0-1.544-.898-1.839-1.652-.255-.649-.265-1.193-.03-1.714zm24.782 21.485a36.604 36.604 0 01-2.909-3.516c2.322 1.156 5.158 2.442 8.001 3.412a20.79 20.79 0 01-5.092.104zm-14.703-17.54c.686-.168 1.432-.471 2.232-.938 1.547 2.09 3.399 4.182 5.671 5.981-2.811-.313-6.121-1.515-7.903-5.043zM154.628 192.368c.178-.015.508.017.907.146.552.18 1.254.57 2.046 1.502 1.206 1.419 2.776 2.574 4.489 3.51.099.054.189.122.289.175 2.191 1.142 4.633 1.877 7.096 1.985l1.469.075c7.811.42 16.403.662 19.582-1.785 2.615-2.009 6.424-6.536 11.693-12.802a984.702 984.702 0 015.612-6.627c4.215-4.926 12.138-11.72 19.128-17.711 7.21-6.178 11.341-9.764 12.413-11.625l.249-.437c3.384-5.908 8.638-13.476 15.236-10.784 7.137 2.891 7.537 4.851 7.924 6.744.064.32.131.637.212.949.932 3.578 2.415 8.067 4.131 13.263 5.483 16.596 13.604 41.236 10.071 58.578-2.564-2.195-6.083-2.61-7.642-2.69-1.421-1.798-3.657-3.528-6.353-3.594-1.485-.012-3.523.437-5.311 2.755-1.707-1.792-3.842-2.814-6.174-2.814-2.113 0-5.18.8-8.406 4.332-.286-8.307-.479-28.934 3.802-43.496 1.259-2.966 1.816-5.064 1.878-5.309a1.6 1.6 0 00-1.034-1.913c-.792-.245-1.652.117-1.983.886a48.422 48.422 0 00-1.822 5.08c-2.338 5.459-7.247 14.154-16.064 18.626-15.998 8.109-26.723 13.842-29.929 19.405-.622 1.078-1.281 2.376-1.978 3.744-1.882 3.706-4.462 8.782-6.676 9.436-.378.117-.71.066-1.109-.162-1.821-1.048-3.356-2.787-4.841-4.472-2.18-2.475-4.433-5.031-7.713-5.501l-.637-.092c-4.596-.644-14.161-1.993-16.145-7.297l-.52-1.389c-1.918-5.142-2.033-5.45-3.894-7.485-1.361-1.483-1.201-2.036-.847-2.671.029-.053.049-.104.079-.158.089-.147.343-.335.772-.377z" fill="#464655"/></svg>