<svg xmlns="http://www.w3.org/2000/svg" viewBox="0 0 512 512"><path d="M473.655 423.724H38.345C17.167 423.724 0 406.557 0 385.378V126.62c0-21.177 17.167-38.345 38.345-38.345h435.31c21.177 0 38.345 17.167 38.345 38.345v258.76c0 21.177-17.167 38.344-38.345 38.344z" fill="#f5f5f5"/><path d="M473.655 88.275H38.345C17.167 88.275 0 105.442 0 126.62v129.379h512V126.62c0-21.178-17.167-38.345-38.345-38.345z" fill="#ff4b55"/><g fill="#f5f5f5"><path d="M0 255.999h512v158.897a8.829 8.829 0 01-8.828 8.828H8.828A8.829 8.829 0 010 414.896V255.999zm72.569-83.737c0-29.028 21.3-53.091 49.113-57.543 1.51-.242 1.578-2.319.088-2.663a60.413 60.413 0 00-21.793-1c-29.998 4.086-53.186 30.046-53.61 60.318-.483 34.566 27.383 62.712 61.785 62.712 4.683 0 9.23-.547 13.606-1.554 1.489-.342 1.414-2.424-.094-2.666-27.802-4.447-49.095-28.462-49.095-57.604z"/><path d="M122.14 187.794l-2.613 7.836-8.259.064c-1.069.009-1.513 1.373-.652 2.008l6.644 4.907-2.492 7.875c-.322 1.02.839 1.863 1.708 1.241l6.72-4.803 6.72 4.803c.87.622 2.03-.222 1.708-1.241l-2.492-7.875 6.644-4.907c.861-.636.417-1.999-.652-2.008l-8.259-.064-2.613-7.836c-.339-1.013-1.774-1.013-2.112 0zm40.827 0l-2.613 7.836-8.259.064c-1.069.009-1.513 1.373-.652 2.008l6.644 4.907-2.492 7.875c-.322 1.02.839 1.863 1.708 1.241l6.72-4.803 6.72 4.803c.87.622 2.03-.222 1.708-1.241l-2.492-7.875 6.644-4.907c.861-.636.417-1.999-.652-2.008l-8.259-.064-2.613-7.836c-.339-1.013-1.773-1.013-2.112 0zm-20.229-63.005l-2.613 7.836-8.259.064c-1.069.008-1.513 1.373-.652 2.008l6.644 4.907-2.492 7.875c-.322 1.02.839 1.863 1.708 1.241l6.72-4.803 6.72 4.803c.87.622 2.03-.222 1.708-1.241l-2.492-7.875 6.644-4.907c.861-.636.417-1.999-.652-2.008l-8.259-.064-2.613-7.836c-.339-1.014-1.774-1.014-2.112 0zm-32.552 24.139l-2.613 7.836-8.259.064c-1.069.008-1.513 1.373-.652 2.008l6.644 4.907-2.492 7.875c-.322 1.02.839 1.863 1.708 1.241l6.72-4.803 6.72 4.803c.87.622 2.03-.222 1.708-1.241l-2.492-7.875 6.645-4.907c.861-.636.417-1.999-.652-2.008l-8.259-.064-2.613-7.836c-.34-1.015-1.775-1.015-2.113 0zm64.828 0l-2.613 7.836-8.259.064c-1.069.008-1.513 1.373-.652 2.008l6.644 4.907-2.492 7.875c-.322 1.02.839 1.863 1.708 1.241l6.72-4.803 6.72 4.803c.87.622 2.03-.222 1.708-1.241l-2.492-7.875 6.644-4.907c.861-.636.417-1.999-.652-2.008l-8.259-.064-2.613-7.836c-.339-1.015-1.774-1.015-2.112 0z"/></g></svg>