<svg xmlns="http://www.w3.org/2000/svg" viewBox="0 0 512 512"><path d="M473.885 88.279H38.115C17.045 88.403 0 105.517 0 126.617v129.385h512V126.617c0-21.1-17.045-38.214-38.115-38.338z" fill="#ff4b55"/><path d="M0 385.376c0 21.177 17.167 38.345 38.345 38.345h435.31c21.177 0 38.345-17.167 38.345-38.345V256.003H0v129.373z" fill="#41479b"/><path d="M13.704 414.749l233.895-153.241c3.966-2.599 3.966-8.412 0-11.009L13.696 97.252C5.325 104.286 0 114.828 0 126.617v258.759c0 11.794 5.329 22.338 13.704 29.373z" fill="#f5f5f5"/><circle cx="90.5" cy="221.93" r="27.719" fill="#ffe15a"/><path d="M124.39 247.608c.11 3.363.476 6.833.829 10.187 1.385 13.163 2.582 24.533-10.06 28.943-2.988 1.042-7.06 1.626-10.996 2.19-5.651.81-10.711 1.534-13.654 3.585-2.943-2.05-8.002-2.775-13.654-3.585-3.936-.564-8.009-1.149-10.996-2.19-12.642-4.41-11.445-15.78-10.06-28.943.353-3.354.718-6.824.829-10.187.393-11.918-2.12-23.596-3.885-30.197 2.941 1.207 7.018 2.296 12.017 2.208 2.154-.043 4.573-.35 7.133-.674 5.844-.745 12.467-1.583 17.768.512l.85.378.85-.378c5.3-2.095 11.924-1.257 17.768-.512 2.56.324 4.979.631 7.133.674 4.999.088 9.077-1.002 12.017-2.208-1.77 6.601-4.282 18.28-3.889 30.197z" fill="#8cd7ff"/><path d="M129.007 247.455c-.557-16.894 5.207-33.843 5.266-34.012l-3.633-2.551c-.047.039-5.511 4.277-14.291 4.108-1.908-.036-4.207-.329-6.642-.639-6.113-.774-13.009-1.651-19.199.486-6.19-2.136-13.085-1.259-19.199-.486-2.434.309-4.734.602-6.642.639-8.78.169-14.243-4.07-14.291-4.108l-3.633 2.551c.057.169 5.823 17.118 5.266 34.012-.105 3.199-.461 6.583-.807 9.856-1.389 13.206-2.964 28.175 13.133 33.791 3.411 1.188 7.721 1.714 11.862 2.4 12.433 2.06 14.31 5.236 14.31 5.236s1.877-3.177 14.31-5.236c4.141-.686 8.451-1.212 11.862-2.4 16.098-5.615 14.524-20.585 13.133-33.791-.343-3.273-.7-6.657-.805-9.856zm-4.617.153c.11 3.363.476 6.833.829 10.187 1.385 13.163 2.582 24.533-10.06 28.943-2.988 1.042-7.06 1.626-10.996 2.19-5.651.81-10.711 1.534-13.654 3.585-2.943-2.05-8.002-2.775-13.654-3.585-3.936-.564-8.009-1.149-10.996-2.19-12.642-4.41-11.445-15.78-10.06-28.943.353-3.354.718-6.824.829-10.187.393-11.918-2.12-23.596-3.885-30.197 2.941 1.207 7.018 2.296 12.017 2.208 2.154-.043 4.573-.35 7.133-.674 5.844-.745 12.467-1.583 17.768.512l.85.378.85-.378c5.3-2.095 11.924-1.257 17.768-.512 2.56.324 4.979.631 7.133.674 4.999.088 9.077-1.002 12.017-2.208-1.77 6.601-4.282 18.28-3.889 30.197z" fill="#ff4b55"/><path fill="#f5f5f5" d="M114.33 276.007v-10.183h1.745v-3.002h-4.268v-10.459h4.268l-19.518-13.826v-5.202h2.715l-8.764-6.208-8.762 6.208h2.713v5.202l-19.518 13.826h4.269v10.459h-4.269v3.002h1.746v10.183h-2.55v4.396h52.744v-4.396z"/><g fill="#41aa5a"><path d="M65.193 234.334c-.622 1.474-.516 3.036.145 4.185 1.286-.328 2.478-1.341 3.101-2.814.622-1.474.516-3.036-.145-4.185-1.285.327-2.478 1.34-3.101 2.814z"/><path d="M68.216 234.797c.407 1.547 1.446 2.719 2.671 3.225.818-1.044 1.143-2.575.736-4.122s-1.446-2.719-2.671-3.225c-.817 1.044-1.143 2.574-.736 4.122zm4.698-2.573c1.5.557 3.055.384 4.175-.328-.383-1.27-1.448-2.418-2.947-2.975-1.5-.557-3.055-.384-4.175.328.383 1.27 1.447 2.418 2.947 2.975z"/><path d="M74.321 229.585c1.464-.644 2.461-1.852 2.769-3.142-1.16-.644-2.722-.727-4.186-.084-1.464.644-2.46 1.852-2.769 3.142 1.158.645 2.721.728 4.186.084zm-9.842 1.335c1.305-.926 2.038-2.308 2.081-3.635-1.265-.398-2.813-.165-4.118.76-1.305.925-2.038 2.308-2.081 3.635 1.265.397 2.814.164 4.118-.76z"/><path d="M63.389 228.986c2.008 1.15 4.159 1.462 5.759 1-.412-1.614-1.769-3.311-3.777-4.461-2.008-1.15-4.159-1.462-5.759-1 .412 1.615 1.77 3.312 3.777 4.461z"/></g><path d="M71.86 231.343c0-.78-.621-1.408-1.395-1.437-.029-.774-.655-1.395-1.437-1.395s-1.408.621-1.437 1.395a1.44 1.44 0 00-1.395 1.437c0 .78.621 1.407 1.395 1.437.029.774.655 1.395 1.437 1.395s1.408-.621 1.437-1.395a1.44 1.44 0 001.395-1.437z" fill="#ffe15a"/><circle cx="69.03" cy="231.35" r=".85" fill="#f5f5f5"/><path d="M67.34 229.912c0-.642-.511-1.158-1.146-1.181a1.185 1.185 0 00-1.181-1.146c-.642 0-1.158.511-1.181 1.146a1.185 1.185 0 00-1.146 1.181c0 .642.511 1.158 1.146 1.181.024.636.54 1.146 1.181 1.146.642 0 1.158-.511 1.181-1.146a1.184 1.184 0 001.146-1.181z" fill="#ffe15a"/><circle cx="65.01" cy="229.91" r=".698" fill="#f5f5f5"/><path d="M71.676 227.91a.855.855 0 00-.826-.851c-.018-.458-.388-.826-.851-.826s-.834.369-.851.826c-.458.018-.826.388-.826.851s.369.834.826.851c.018.458.388.826.851.826s.834-.369.851-.826a.854.854 0 00.826-.851z" fill="#ffe15a"/><circle cx="70" cy="227.91" r=".503" fill="#f5f5f5"/><path d="M68.494 226.462a.855.855 0 00-.826-.851.854.854 0 00-.851-.826.855.855 0 00-.851.826.854.854 0 00-.826.851c0 .462.369.834.826.851a.854.854 0 00.851.826.855.855 0 00.851-.826.853.853 0 00.826-.851z" fill="#ffe15a"/><g fill="#f5f5f5"><circle cx="66.814" cy="226.46" r=".503"/><path d="M105.406 239.159h16.021a8.778 8.778 0 00-5.535-4.907c.182-1.166.294-2.461.294-3.85 0-4.839-1.239-8.761-2.769-8.761s-2.769 3.923-2.769 8.761c0 1.388.111 2.684.294 3.85a8.775 8.775 0 00-5.536 4.907z"/></g><path d="M90.508 317.796c-33.754 0-61.216-27.46-61.216-61.216h11.55c0 27.386 22.28 49.665 49.665 49.665s49.665-22.279 49.665-49.665h11.552c0 33.755-27.46 61.216-61.216 61.216z" fill="#ffe15a"/><path d="M113.196 201.882h-9.983a1.815 1.815 0 100-3.63H90.508a1.815 1.815 0 100 3.63H67.821a2.722 2.722 0 100 5.444h8.167a1.814 1.814 0 10.001 3.63h16.335a1.815 1.815 0 00.001-3.63h20.872a2.722 2.722 0 10-.001-5.444z" fill="#c87878"/></svg>