<svg xmlns="http://www.w3.org/2000/svg" viewBox="0 0 512 512"><path d="M473.664 423.744H38.336C17.152 423.744 0 406.592 0 385.408V126.592c0-21.184 17.152-38.336 38.336-38.336h435.328c21.184 0 38.336 17.152 38.336 38.336v258.752c0 21.184-17.152 38.4-38.336 38.4z" fill="#41479b"/><path fill="#f5f5f5" d="M256 178.432L109.44 256 256 333.568 402.56 256z"/><path fill="#73af00" d="M207.296 305.856h95.552l66.496-35.2-29.888-29.952h-10.432l-7.744 7.744-5.504-5.504h-11.008l-42.176 42.176H209.6l-12.032-17.792h-15.296l-6.016 8.384h-6.784l-4.032 8z"/><path d="M257.152 213.696l3.52 10.496 11.072.064c1.408 0 2.048 1.856.896 2.688l-8.896 6.656 3.328 10.56c.448 1.344-1.152 2.496-2.304 1.664l-9.024-6.464-9.024 6.464c-1.152.832-2.752-.32-2.304-1.664l3.328-10.56-8.896-6.592c-1.152-.832-.576-2.688.896-2.688l11.072-.064 3.52-10.496c.448-1.408 2.368-1.408 2.816-.064z" fill="#ffe15a"/><path d="M473.664 88.256H38.336C17.152 88.256 0 105.408 0 126.592v258.752c0 21.184 17.152 38.336 38.336 38.336h435.328c21.184 0 38.336-17.152 38.336-38.336V126.592c0-21.12-17.152-38.336-38.336-38.336zm-456 17.664h229.504v65.28l-143.424 75.968h-86.08V105.92zm229.504 300.16H17.664V264.832h86.08l143.424 75.904v65.344zM124.8 256L256 186.56 387.2 256 256 325.44 124.8 256zm369.536 150.08H264.832V340.8l143.424-75.904h86.08V406.08zm0-158.912h-86.08l-143.424-75.904v-65.28h229.504v141.184z" fill="#ff4b55"/></svg>