<svg xmlns="http://www.w3.org/2000/svg" viewBox="0 0 512 512"><path d="M473.885 88.276H38.115C17.045 88.399 0 105.515 0 126.615v258.759c0 21.177 17.167 38.345 38.345 38.345h435.31c21.177 0 38.345-17.167 38.345-38.345V126.615c0-21.1-17.045-38.216-38.115-38.339z" fill="#41479b"/><path d="M498.304 97.249l-484.6 317.496a38.183 38.183 0 0024.641 8.972h435.31c21.177 0 38.345-17.167 38.345-38.345V126.614c0-11.789-5.325-22.33-13.696-29.365z" fill="#73af00"/><path d="M512 97.103a8.829 8.829 0 00-8.828-8.828h-15.339L0 407.891v7.006a8.829 8.829 0 008.828 8.828h15.339L512 104.109v-7.006z" fill="#ffe15a"/><path d="M44.429 115.778l-4.726 14.169-14.936.116c-1.432.011-2.026 1.839-.874 2.69l12.015 8.873-4.505 14.241c-.433 1.366 1.123 2.495 2.289 1.663l12.152-8.685 12.152 8.685c1.165.833 2.72-.297 2.289-1.663l-4.505-14.241 12.015-8.873c1.152-.851.558-2.679-.874-2.69l-14.936-.116-4.726-14.169c-.454-1.359-2.376-1.359-2.83 0zm113.781 0l-4.726 14.169-14.936.116c-1.432.011-2.026 1.839-.874 2.69l12.015 8.873-4.505 14.241c-.433 1.366 1.123 2.495 2.289 1.663l12.152-8.685 12.152 8.685c1.165.833 2.72-.297 2.289-1.663l-4.505-14.241 12.015-8.873c1.152-.851.558-2.679-.874-2.69l-14.936-.116-4.726-14.169c-.455-1.359-2.377-1.359-2.83 0zm-56.89 50.698l-4.726 14.169-14.936.116c-1.432.011-2.026 1.839-.874 2.69l12.015 8.873-4.505 14.241c-.433 1.366 1.123 2.495 2.289 1.663l12.152-8.685 12.152 8.685c1.165.833 2.72-.297 2.289-1.663l-4.505-14.241 12.015-8.873c1.152-.851.558-2.679-.874-2.69l-14.936-.116-4.726-14.169c-.456-1.359-2.377-1.359-2.83 0zm-56.891 50.698l-4.726 14.169-14.936.116c-1.432.011-2.026 1.839-.874 2.69l12.015 8.873-4.505 14.241c-.433 1.366 1.123 2.495 2.289 1.663l12.152-8.685 12.152 8.685c1.165.833 2.72-.297 2.289-1.663l-4.505-14.241 12.015-8.873c1.152-.851.558-2.679-.874-2.69l-14.936-.116-4.726-14.169c-.454-1.359-2.376-1.359-2.83 0zm113.781 0l-4.726 14.169-14.936.116c-1.432.011-2.026 1.839-.874 2.69l12.015 8.873-4.505 14.241c-.433 1.366 1.123 2.495 2.289 1.663l12.152-8.685 12.152 8.685c1.165.833 2.72-.297 2.289-1.663l-4.505-14.241 12.015-8.873c1.152-.851.558-2.679-.874-2.69l-14.936-.116-4.726-14.169c-.455-1.359-2.377-1.359-2.83 0z" fill="#f5f5f5"/></svg>