<svg xmlns="http://www.w3.org/2000/svg" viewBox="0 0 512 512"><path d="M473.654 88.276H38.345C17.167 88.276 0 105.443 0 126.62v73.471h511.999V126.62c0-21.177-17.168-38.344-38.345-38.344z" fill="#73af00"/><path d="M511.999 311.908H0v73.471c0 21.177 17.167 38.345 38.345 38.345h435.309c21.177 0 38.345-17.167 38.345-38.345v-73.471z" fill="#ff4b55"/><path fill="#f5f5f5" d="M0 200.09h512V311.9H0z"/><path d="M258.225 230.484l5.507 16.513 17.407.135c2.253.018 3.188 2.893 1.375 4.232l-14.003 10.34 5.25 16.597c.68 2.148-1.767 3.926-3.601 2.615l-14.162-10.121-14.162 10.122c-1.834 1.311-4.28-.467-3.601-2.615l5.25-16.597-14.003-10.34c-1.813-1.338-.878-4.215 1.375-4.232l17.407-.135 5.507-16.513c.717-2.138 3.741-2.138 4.454-.001z" fill="#464655"/><g fill="#f5f5f5"><path d="M136.486 133.86c.693 4.441 3.378 5.835 5.713 5.654 2.752-.214 5.166-2.731 5.166-5.388v-15.243a1.387 1.387 0 012.772 0v15.308a5.53 5.53 0 002.434 4.587c.931.63 2.015.956 3.107.956.695 0 1.394-.132 2.06-.398l1.385-.554c.128 12.794-.651 24.04-.665 24.246a2.772 2.772 0 005.53.395c.064-.902.918-13.216.662-26.851l.838-.334a2.778 2.778 0 012.265.095 7.92 7.92 0 009.139-1.483l.5-.498a8.273 8.273 0 002.007-8.509l-2.36-7.08a2.783 2.783 0 003.294-1.41 2.772 2.772 0 00-1.239-3.719l-5.543-2.772a2.77 2.77 0 00-3.868 3.356l4.459 13.378a2.758 2.758 0 01-.669 2.836l-.498.498a2.38 2.38 0 01-2.743.444c-1.796-.897-3.841-1.066-5.76-.576-.39-8.895-1.347-17.753-3.389-23.876a2.768 2.768 0 00-3.507-1.751 2.768 2.768 0 00-1.752 3.505c1.996 5.988 2.867 15.115 3.176 24.19l-3.317 1.327v-15.308a6.936 6.936 0 00-6.929-6.929 6.936 6.936 0 00-6.929 6.929v13.416l-2.827-13.965a2.76 2.76 0 00-3.265-2.168 2.772 2.772 0 00-2.166 3.266l2.919 14.426zm5.335-23.291a2.771 2.771 0 002.772-2.772v-2.771a2.771 2.771 0 10-5.544 0v2.772a2.773 2.773 0 002.772 2.771zm27.715-2.772h2.772a2.771 2.771 0 100-5.544h-2.772a2.771 2.771 0 100 5.544z"/><path d="M151.481 144.22l-13.857 8.314a2.77 2.77 0 102.852 4.752l13.857-8.314a2.77 2.77 0 10-2.852-4.752z"/><path d="M188.845 149.123l.065-.044c.233.937.632 1.843 1.279 2.604 1.126 1.326 2.815 1.992 4.723 1.835 2.707-.198 4.547-1.434 5.764-3.031.185.127.381.244.585.346 1.498.755 3.23.698 4.879-.157 4.189-2.157 5.091-7.148 4.963-9.757-.074-1.521-1.368-2.595-2.886-2.625a2.781 2.781 0 00-2.653 2.877c.001.035.064 3.324-1.948 4.544-.328-.458-.717-1.486-.863-2.336a2.778 2.778 0 00-2.954-2.306 2.78 2.78 0 00-2.552 2.763c-.001.403-.09 3.959-2.836 4.257-.319-.436-.324-2.271-.011-3.627a2.772 2.772 0 00-4.255-2.934l-1.547 1.053c-.735-16.072-2.426-34.8-2.447-35.04a2.763 2.763 0 00-3.011-2.509 2.772 2.772 0 00-2.51 3.012c.024.256 1.982 21.924 2.585 38.473-.141.135-.288.282-.427.412-1.096-2.763-3.268-4.503-6.067-4.769-3.949-.349-8.227 2.338-9.761 6.176-1.322 3.302-.49 6.547 2.119 8.266 1.876 1.237 4.706 1.626 8.266.378-.868 3.053-2.451 6.15-4.508 8.544-1.842 2.146-4.918 4.622-8.854 4.512-2.291-.089-4.052-.839-5.382-2.295-3.209-3.505-2.933-9.849-2.93-9.917a2.77 2.77 0 00-2.614-2.912c-1.536-.162-2.836 1.086-2.921 2.614-.019.352-.42 8.687 4.352 13.93 2.349 2.584 5.471 3.968 9.278 4.117.185.008.371.011.557.011 4.637 0 9.134-2.273 12.717-6.45 3.371-3.925 5.66-9.256 6.346-14.205-.009 9.481-5.721 20.174-13.298 24.885-3.217 1.997-8.232 3.8-13.881 1.015-6.964-3.437-6.134-11.396-6.098-11.722a2.77 2.77 0 00-2.406-3.093 2.776 2.776 0 00-3.093 2.406c-.062.495-1.394 12.179 9.145 17.378 2.707 1.337 5.537 2.001 8.391 2.001 3.665 0 7.363-1.096 10.869-3.277 9.223-5.732 15.917-18.187 15.917-29.614.004-1.785-.03-3.737-.087-5.789zm-16.711 2.857c-.495-.328-.108-1.375-.024-1.583.584-1.461 2.409-2.726 3.868-2.726.074 0 .15.002.223.011.354.032 1.295.121 1.699 2.214.043.222.079.449.108.682-3.089 1.813-5.159 1.871-5.874 1.402zm-28.913 25.489a2.778 2.778 0 00-3.789.982 5.785 5.785 0 01-.468.658 4.323 4.323 0 01-.089-.227c-1.155-3.083-.333-7.832.083-9.402a2.775 2.775 0 00-1.966-3.389c-1.475-.378-2.993.482-3.389 1.96-.202.749-1.906 7.478.082 12.777 1.272 3.389 3.224 4.244 4.64 4.36.126.011.25.017.373.017 2.984 0 4.969-3.007 5.522-3.959a2.77 2.77 0 00-.999-3.777z"/><path d="M194.365 127.198c.599 0 1.203-.192 1.71-.593l13.972-10.969c.193-.151.316-.35.457-.536 2.012-1.214 3.374-3.399 3.374-5.916a6.936 6.936 0 00-6.929-6.929 6.936 6.936 0 00-6.929 6.929c0 2.138.993 4.029 2.519 5.3l-9.889 7.764a2.772 2.772 0 001.715 4.95zm12.585-19.401a1.387 1.387 0 010 2.772 1.387 1.387 0 010-2.772zm-3.28 16.772a2.767 2.767 0 00-3.507 1.751c-.297.887-1.636 5.459 1.08 8.173 1.054 1.056 2.44 1.583 4.141 1.58 1.137 0 2.414-.233 3.828-.706a2.768 2.768 0 001.752-3.505 2.766 2.766 0 00-3.507-1.751c-1.548.514-2.204.43-2.262.484-.163-.412-.055-1.649.228-2.534a2.765 2.765 0 00-1.753-3.492zm31.718-11.456a2.77 2.77 0 003.437-1.884l1.618-5.543a2.771 2.771 0 10-5.321-1.553l-1.617 5.543a2.772 2.772 0 001.883 3.437zm-16.153-.325a2.771 2.771 0 102.8-4.786c-.557-.324-.482-1.242-.461-1.423.083-.728.516-1.615 1.272-1.852a2.771 2.771 0 10-1.648-5.293c-2.763.861-4.777 3.418-5.131 6.515-.331 2.882.884 5.502 3.168 6.839zm-21.985 44.894a2.771 2.771 0 00-.52 5.494c.146.214.52.947.52 2.82a2.771 2.771 0 105.544 0c-.001-8.219-5.318-8.314-5.544-8.314zm47.019-11.474c.348.057.694.084 1.042.084 2.177 0 4.377-1.099 6.557-3.277a2.772 2.772 0 00-3.919-3.919c-1.657 1.66-2.549 1.694-2.778 1.643-.53-.076-1.009-.766-1.116-.956a2.772 2.772 0 00-4.94 2.512c.171.343 1.772 3.363 5.154 3.913zm47.108-19.476a2.254 2.254 0 01-.047-.121c-.491-1.44-2.061-2.222-3.498-1.732a2.768 2.768 0 00-1.753 3.505c.216.65 1.451 3.908 4.509 4.32.204.028.407.041.609.041 1.92 0 3.721-1.242 5.361-3.7a2.772 2.772 0 00-4.612-3.074c-.221.325-.41.574-.569.761z"/><path d="M285.936 177.083c0-11.819-.52-22.906-1.24-32.62 3.936 6.825 7.476 13.721 9.731 19.737a2.774 2.774 0 003.568 1.623 2.774 2.774 0 001.622-3.57c-3.508-9.352-9.813-20.489-16.028-30.376-1.515-14.93-3.211-24.405-3.242-24.574-.274-1.507-1.714-2.525-3.222-2.23a2.77 2.77 0 00-2.231 3.221c.022.12.896 5.002 1.939 13.217a445.908 445.908 0 00-5.768-8.356l.136.043c1.46.487 3.021-.3 3.507-1.751a2.77 2.77 0 00-1.752-3.505l-8.314-2.772a2.757 2.757 0 00-3.125 1.006 2.744 2.744 0 00-.405.85c-1.66-1.227-3.787-2.223-5.784-1.388-1.208.501-2.648 1.762-2.648 4.931 0 2.433.928 5.064 1.912 7.851 1.632 4.622 2.654 8.022.926 9.643-.956.896-1.909 1.234-2.84.999-1.709-.433-3.401-2.709-4.527-6.09-.049-.147-.151-.253-.221-.385.583-4.294.329-9.465-.845-15.333a2.765 2.765 0 00-3.262-2.174 2.771 2.771 0 00-2.174 3.262c1.81 9.05 1.267 16.434-1.452 19.749-1.052 1.283-2.368 1.878-4.145 1.878-.562 0-.945-.179-1.326-.617-2.187-2.52-2.177-10.65-1.472-15.621a2.774 2.774 0 00-2.744-3.162c-4.769 0-6.577 5.423-8.172 10.209-.7 2.103-2.004 6.014-2.913 6.42-1.678 0-2.762-4.926-2.772-8.317a2.773 2.773 0 00-2.772-2.766h-.004a2.767 2.767 0 00-2.767 2.769c0 6.392 2.177 13.857 8.314 13.857 4.569 0 6.421-4.98 7.97-9.608.269 3.681 1.1 7.495 3.144 9.849 1.436 1.656 3.342 2.53 5.514 2.53 3.421 0 6.336-1.351 8.43-3.905.38-.462.706-.993 1.03-1.529 1.61 2.287 3.583 3.796 5.807 4.357a7.936 7.936 0 001.959.249c2.14 0 4.231-.883 6.036-2.579.375-.353.64-.738.926-1.118a7.46 7.46 0 002.047.309c2.246 0 4.406-.904 5.747-1.764a2.764 2.764 0 00.839-3.81 2.78 2.78 0 00-3.816-.863c-.023.011-1.875 1.075-3.137.825.003-3.038-1.096-6.265-2.1-9.108-.572-1.619-1.158-3.277-1.433-4.633.228.192.452.393.651.587a2.77 2.77 0 003.917 0c.179-.179.282-.396.403-.606 2.873 3.958 8.781 12.274 14.859 21.86 1.16 11.783 2.179 26.815 2.179 43.3a2.771 2.771 0 002.772 2.772 2.773 2.773 0 002.768-2.773zm2.771-60.972a2.771 2.771 0 105.544 0c0-3.262-2.552-8.531-3.064-9.554a2.772 2.772 0 10-4.958 2.48c.999 1.999 2.478 5.629 2.478 7.074zm-12.611 61.275a2.769 2.769 0 00-3.72 1.22 7.897 7.897 0 01-1.149 1.645c-.124-1.101.171-3.302.729-5.126a2.772 2.772 0 00-1.224-3.188 2.763 2.763 0 00-3.385.414l-5.543 5.543a2.772 2.772 0 003.919 3.919l.141-.141c.239 1.112.698 2.127 1.483 2.912 1.039 1.039 2.295 1.589 3.601 1.589.253 0 .508-.022.761-.062 3.139-.509 5.094-3.97 5.619-5.017a2.765 2.765 0 00-1.232-3.708z"/><path d="M275.023 155.085h-19.532c.173-.69.352-1.347.533-1.973 7.789-1.619 12.418-4.132 13.78-7.489.471-1.164.962-3.516-1.042-6.219-1.806-2.435-4.358-3.529-7.006-2.988-3.938.799-7.447 5.042-9.965 11.836-7.823 1.34-12.832 4.148-16.002 6.92-1.124-11.357-5.534-18.103-5.747-18.424a2.77 2.77 0 10-4.612 3.074c.05.076 5.077 7.765 5.077 20.634 0 12.65-10.087 22.172-16.629 22.172-3.112 0-4.473-3.699-5.073-6.826 6.404-4.489 12.056-9.683 13.304-14.674 1.689-6.753-.437-11.73-1.843-15.023a23.479 23.479 0 01-.205-.482c.06.054.116.111.173.166a2.772 2.772 0 003.917-3.919c-1.62-1.621-4.766-4.168-7.626-2.972-1.208.501-2.648 1.762-2.648 4.931 0 1.432.598 2.831 1.291 4.455 1.248 2.921 2.799 6.556 1.562 11.502-.732 2.927-4.328 6.479-9.071 10.005-.509-.608-1.244-1.017-2.097-1.017h-.004a2.768 2.768 0 00-2.767 2.769c0 .499.022 1.032.054 1.579-5.931 3.841-12.642 7.396-17.831 9.757a2.771 2.771 0 002.294 5.045c1.558-.708 8.954-4.154 16.553-8.863 1.399 4.751 4.364 9.112 10.016 9.112 6.648 0 14.191-5.437 18.543-13.554.525.928 1.13 1.816 1.849 2.646 6.976 8.044 20.601 8.136 21.178 8.136a2.77 2.77 0 00.199-5.534c-.022-.002-2.23-.246-3.459-1.681-.742-.866-1.038-2.057-.907-3.64.285-3.415 11.3-5.967 21.011-6.12a2.775 2.775 0 002.57-1.843l2.772-7.795a2.768 2.768 0 00-.348-2.525 2.757 2.757 0 00-2.262-1.178zm-12.166-13.235c.053-.011.124-.028.211-.028.265 0 .683.13 1.241.883.106.141.443.622.358.833-.318.785-2.231 2.081-6.218 3.256 1.753-3.42 3.468-4.754 4.408-4.944zm-16.736 36.432c-2.816-.915-5.685-2.366-7.671-4.663-2.183-2.525-2.989-5.719-2.461-9.76.079-.212.26-.631.578-1.175 3.903-.358 14.328 1.181 15.051 4.167-3.215 1.642-5.585 3.949-5.858 7.231-.137 1.645.03 3.039.361 4.2zm59.072-63.047l-2.772-8.314a2.77 2.77 0 00-3.209-1.833 2.768 2.768 0 00-2.178 2.985c1.912 19.124 5.529 56.419 5.529 60.695 0 3.84-6.831 11.402-17.868 16.921a2.772 2.772 0 102.48 4.959c10.081-5.042 20.931-14.038 20.931-21.879 0-4.095-2.833-33.558-4.455-50.107a2.773 2.773 0 001.542-3.427zm23.126 25.007a2.77 2.77 0 004.645-2.644c-.497-1.949-.662-4.384-.399-5.38 1.388.043 2.677-.945 2.881-2.377a2.772 2.772 0 00-2.35-3.137c-1.833-.249-3.442.289-4.566 1.54-.728.812-1.161 1.854-1.397 2.975l-3.21-3.21a2.772 2.772 0 00-3.919 3.919l8.315 8.314zm6.235 2.89l-10.393 7.448a2.769 2.769 0 103.228 4.503l10.393-7.448a2.773 2.773 0 00.639-3.868 2.767 2.767 0 00-3.867-.635zm-.921 10.424a2.772 2.772 0 00.243 3.676c.119.201.659 1.261.562 3.989a2.771 2.771 0 005.54.2c.202-5.656-1.65-7.724-2.455-8.35a2.769 2.769 0 00-3.89.485z"/><path d="M357.82 173.965a2.771 2.771 0 002.772-2.772c0-4.089-.21-8.654-.554-13.404 2.748 4.503 5.031 8.654 6.495 12.07a2.766 2.766 0 003.638 1.456 2.77 2.77 0 001.454-3.637c-2.537-5.921-7.279-13.764-12.68-21.863-1.087-10.173-2.507-20.139-3.61-27.289a2.684 2.684 0 001.731-.43c.875-.561 1.286-1.535 1.227-2.504.071.273.148.546.307.797.019.028 1.8 2.969 1.01 6.785a2.772 2.772 0 005.429 1.121c1.251-6.055-1.639-10.688-1.762-10.882a2.78 2.78 0 00-3.827-.85c-.879.561-1.294 1.535-1.237 2.506-.072-.274-.151-.55-.312-.801l-4.676-7.275a2.772 2.772 0 00-5.061 1.979c.039.217 2.156 12.38 4.034 27.038-2.125-3-4.249-5.934-6.31-8.734-.335-4.193-.671-8.07-.961-11.275a2.772 2.772 0 001.689-3.898l-2.772-5.543a2.774 2.774 0 00-3.249-1.423 2.775 2.775 0 00-1.988 2.94c.331 3.307.674 6.969 1.013 10.815a794.242 794.242 0 00-4.762-6.217 2.772 2.772 0 00-.567-4.582l-5.543-2.772a2.777 2.777 0 00-3.395.736 2.774 2.774 0 00-.008 3.475c.15.186 6.973 8.74 15.136 19.781 1.416 18.312 2.358 37.359 1.027 41.353-.244.73-.669 1.591-1.068 1.621-1.675.233-5.673-3.513-7.681-7.527-1.158-2.312-2.822-2.552-3.712-2.511-2.978.184-4.141 3.462-6.253 9.41-1.514 4.263-3.395 9.562-5.507 11.73-1.144-1.398-2.624-6.09-3.446-10.912.386 1.066 1.384 1.837 2.583 1.837a2.771 2.771 0 002.772-2.772c0-4.132-2.891-35.609-4.505-52.859a2.77 2.77 0 001.591-3.445l-2.772-8.314a2.773 2.773 0 00-5.389 1.14c1.884 19.77 5.416 57.959 5.525 63.23-.007-.047-.017-.095-.023-.141-.215-1.516-1.63-2.554-3.135-2.351a2.772 2.772 0 00-2.35 3.137c.809 5.665 2.877 15.405 7.64 16.991.376.127.883.241 1.476.241 1.092 0 2.481-.387 3.9-1.807 3.019-3.018 5.061-8.771 6.863-13.846.407-1.148.889-2.506 1.344-3.67 2.542 3.713 6.978 8.335 11.473 7.973 1.58-.114 4.455-.963 5.932-5.397 1.474-4.422.892-19.84-.102-34.601a454.343 454.343 0 016.902 9.933c.864 8.299 1.483 16.615 1.483 23.444a2.768 2.768 0 002.771 2.765z"/><path d="M378.852 159.388c-1.963-14.626-4.698-31.568-6.431-41.966a2.733 2.733 0 002.322-.492 2.77 2.77 0 00.522-3.884l-5.023-6.582a2.773 2.773 0 00-4.934 2.157c.05.285 4.992 28.735 8.049 51.504 1.167 8.702-.537 16.477-4.563 20.797-2.588 2.774-6.016 4.03-10.165 3.789-1.524-.082-2.845 1.066-2.941 2.593a2.773 2.773 0 002.592 2.94c.468.03.929.043 1.387.043 5.226 0 9.762-1.917 13.182-5.586 5.221-5.605 7.409-14.831 6.003-25.313zm-30.489 18.269c-1.018 1.107-.94 2.85.137 3.894.15.146.33.433.331.574.001.078-.111.311-.419.62a2.772 2.772 0 003.92 3.919c1.758-1.757 2.08-3.54 2.04-4.728-.085-2.558-1.827-4.209-2.175-4.514-1.131-.987-2.816-.867-3.834.235z"/></g></svg>