<svg xmlns="http://www.w3.org/2000/svg" viewBox="0 0 512 512"><path d="M473.655 88.275H38.345C17.167 88.275 0 105.442 0 126.62v258.76c0 21.177 17.167 38.345 38.345 38.345h435.31c21.177 0 38.345-17.167 38.345-38.345V126.62c0-21.178-17.167-38.345-38.345-38.345z" fill="#f5f5f5"/><path d="M305.009 182.531c-40.563-27.042-95.35-15.986-122.374 24.506-13.555 20.211-8.045 47.674 12.235 61.195 20.265 13.521 47.64 8.03 61.161-12.252 13.521-20.281 40.914-25.704 61.178-12.254 20.298 13.521 25.757 40.984 12.217 61.195 27.042-40.559 16.111-95.347-24.417-122.39" fill="#ff4b55"/><path d="M182.634 207.038c-13.555 20.211-8.045 47.674 12.235 61.195 20.265 13.521 47.64 8.03 61.161-12.252 13.521-20.281 40.914-25.704 61.178-12.254 20.298 13.521 25.757 40.984 12.217 61.195-27.006 40.632-81.775 51.549-122.338 24.507-40.526-27.039-51.494-81.827-24.453-122.391" fill="#41479b"/><path d="M349.92 149.189l16.035 24.102a4.414 4.414 0 01-1.219 6.112l-4.066 2.723a4.414 4.414 0 01-6.129-1.22l-16.055-24.096a4.415 4.415 0 011.223-6.119l4.086-2.728a4.414 4.414 0 016.125 1.226zm24.74 37.161l16.087 24.087a4.414 4.414 0 01-1.237 6.134l-4.084 2.699a4.413 4.413 0 01-6.103-1.23l-16.078-24.062a4.414 4.414 0 011.217-6.122l4.075-2.724a4.414 4.414 0 016.123 1.218zm-7.571-48.619l40.829 61.273a4.413 4.413 0 01-1.225 6.12l-4.102 2.734a4.414 4.414 0 01-6.121-1.224l-40.843-61.269a4.415 4.415 0 011.227-6.123l4.115-2.739a4.418 4.418 0 016.12 1.228zm17.122-11.44l16.07 24.149a4.412 4.412 0 01-1.241 6.127l-4.087 2.7a4.412 4.412 0 01-6.105-1.234l-16.082-24.117a4.415 4.415 0 011.224-6.122l4.099-2.732a4.413 4.413 0 016.122 1.229zm24.756 37.24l16.045 24.099a4.413 4.413 0 01-1.22 6.115l-4.075 2.724a4.414 4.414 0 01-6.127-1.223l-16.045-24.099a4.414 4.414 0 011.22-6.115l4.075-2.724a4.411 4.411 0 016.127 1.223zM132.721 293.982l40.824 61.207a4.413 4.413 0 01-1.222 6.12l-4.088 2.73a4.414 4.414 0 01-6.123-1.222l-40.824-61.207a4.412 4.412 0 011.222-6.12l4.089-2.73a4.413 4.413 0 016.122 1.222zm-17.139 11.448l16.028 24.041a4.413 4.413 0 01-1.217 6.116l-4.066 2.722a4.414 4.414 0 01-6.126-1.217l-16.047-24.035a4.413 4.413 0 011.22-6.122l4.086-2.728a4.414 4.414 0 016.122 1.223zm24.769 37.174l16.046 24.102a4.412 4.412 0 01-1.222 6.115l-4.078 2.727a4.414 4.414 0 01-6.126-1.222l-16.056-24.097a4.413 4.413 0 011.222-6.118l4.088-2.73a4.413 4.413 0 016.126 1.223zm-41.909-25.729l40.798 61.21a4.416 4.416 0 01-1.219 6.118l-4.077 2.726a4.414 4.414 0 01-6.125-1.22l-40.822-61.202a4.415 4.415 0 011.224-6.122l4.102-2.734a4.412 4.412 0 016.119 1.224zm22.852-106.434l40.818-61.257a4.414 4.414 0 016.124-1.224l4.087 2.729a4.415 4.415 0 011.222 6.12l-40.834 61.223a4.414 4.414 0 01-6.108 1.231l-4.071-2.695a4.413 4.413 0 01-1.238-6.127zm-17.147-11.433l40.825-61.269a4.414 4.414 0 016.126-1.222l4.077 2.726a4.413 4.413 0 011.22 6.116l-40.814 61.272a4.413 4.413 0 01-6.124 1.224l-4.088-2.729a4.413 4.413 0 01-1.222-6.118zM86.99 187.624l40.829-61.33a4.415 4.415 0 016.127-1.224l4.077 2.726a4.414 4.414 0 011.222 6.114l-40.804 61.339a4.415 4.415 0 01-6.123 1.228l-4.1-2.734a4.415 4.415 0 01-1.228-6.119zm251.503 167.564l16.047-24.035a4.414 4.414 0 016.126-1.217l4.066 2.722a4.413 4.413 0 011.216 6.116l-16.028 24.04a4.414 4.414 0 01-6.123 1.223l-4.086-2.728a4.413 4.413 0 01-1.218-6.121zm24.75-37.047l16.073-24.154a4.414 4.414 0 016.123-1.227l4.096 2.73a4.415 4.415 0 011.223 6.124l-16.107 24.116a4.413 4.413 0 01-6.109 1.227l-4.062-2.692a4.414 4.414 0 01-1.237-6.124zm-7.617 48.557l16.057-24.098a4.414 4.414 0 016.122-1.225l4.104 2.737a4.415 4.415 0 011.225 6.119l-16.047 24.1a4.414 4.414 0 01-6.12 1.228l-4.115-2.739a4.416 4.416 0 01-1.226-6.122zm24.777-37.235l16.066-24.042a4.415 4.415 0 016.119-1.22l4.102 2.734a4.413 4.413 0 011.221 6.125l-16.066 24.043a4.414 4.414 0 01-6.118 1.22l-4.103-2.734a4.414 4.414 0 01-1.221-6.126zm-7.632 48.618l16.075-24.056a4.414 4.414 0 016.103-1.23l4.086 2.7a4.414 4.414 0 011.239 6.131l-16.063 24.088a4.415 4.415 0 01-6.121 1.224l-4.098-2.732a4.413 4.413 0 01-1.221-6.125zm24.783-37.112l16.035-24.085a4.414 4.414 0 016.127-1.223l4.072 2.722a4.414 4.414 0 011.218 6.119l-16.049 24.053a4.413 4.413 0 01-6.11 1.229l-4.06-2.69a4.415 4.415 0 01-1.233-6.125z" fill="#464655"/></svg>