<svg xmlns="http://www.w3.org/2000/svg" viewBox="0 0 512 512"><path d="M473.655 88.276H38.346c-21.177 0-38.345 17.167-38.345 38.345v73.471h511.998v-73.508c-.02-21.16-17.179-38.308-38.344-38.308z" fill="#464655"/><path d="M512 311.908H.001v73.471c0 21.177 17.167 38.345 38.345 38.345h435.309c21.165 0 38.324-17.148 38.344-38.307v-73.508H512v-.001z" fill="#73af00"/><path fill="#ff4b55" d="M0 200.09h512V311.9H0z"/><path d="M95.398 233.164l5.247 11.381 12.169-2.994a.917.917 0 011.038 1.302l-5.626 11.198 9.928 7.648a.916.916 0 01-.371 1.623l-12.263 2.583.211 12.531a.917.917 0 01-1.5.723l-9.665-7.977-9.665 7.977a.917.917 0 01-1.5-.723l.211-12.531-12.263-2.583a.917.917 0 01-.371-1.623l9.928-7.648-5.626-11.198a.917.917 0 011.038-1.302l12.169 2.994 5.247-11.381c.327-.71 1.338-.71 1.664 0zM0 194.21h512v15.01H0zm0 108.58h512v15.01H0z" fill="#f5f5f5"/><path d="M233.2 252.388L13.055 97.812C5.056 104.84.001 115.137.001 126.621v258.758c0 11.484 5.055 21.781 13.054 28.809L233.2 259.613c2.504-1.758 2.504-5.467 0-7.225z" fill="#41479b"/><path d="M73.561 214.847l19.831 20.297 25.624-12.192c3.317-1.579 6.735 1.974 5.03 5.228l-13.175 25.132 19.513 20.602c2.527 2.667.204 7.016-3.418 6.399l-27.973-4.765-13.564 24.925c-1.756 3.227-6.61 2.361-7.142-1.273l-4.114-28.077-27.896-5.197c-3.612-.673-4.288-5.556-.995-7.186l25.432-12.588-3.678-28.138c-.477-3.643 3.957-5.794 6.525-3.167z" fill="#ffe15a"/></svg>