<svg xmlns="http://www.w3.org/2000/svg" viewBox="0 0 512 512"><path d="M473.655 88.276H38.345C17.167 88.276 0 105.443 0 126.621v73.471h512v-73.471c0-21.178-17.167-38.345-38.345-38.345z" fill="#ff4b55"/><path d="M0 385.379c0 21.177 17.167 38.345 38.345 38.345h435.31c21.177 0 38.345-17.167 38.345-38.345v-73.471H0v73.471z" fill="#464655"/><path fill="#f5f5f5" d="M0 200.09h512V311.9H0z"/><path d="M150.03 223.314l7.36 22.068 23.262.18c3.011.023 4.26 3.866 1.837 5.656l-18.713 13.82 7.017 22.179c.908 2.871-2.361 5.247-4.811 3.496l-18.925-13.527-18.925 13.527c-2.451 1.751-5.719-.625-4.811-3.496l7.017-22.179-18.713-13.82c-2.423-1.789-1.174-5.633 1.837-5.656l23.263-.18 7.36-22.068c.951-2.857 4.992-2.857 5.945 0zm217.887 0l7.36 22.068 23.262.18c3.011.023 4.26 3.866 1.837 5.656l-18.713 13.82 7.017 22.179c.908 2.871-2.361 5.247-4.811 3.496l-18.925-13.527-18.925 13.527c-2.451 1.751-5.719-.625-4.811-3.496l7.017-22.179-18.713-13.82c-2.423-1.789-1.174-5.633 1.837-5.656l23.262-.18 7.36-22.068c.952-2.857 4.993-2.857 5.946 0z" fill="#73af00"/></svg>