<svg xmlns="http://www.w3.org/2000/svg" viewBox="0 0 512.064 512.064"><path d="M473.792 423.776H38.336C17.216 423.776 0 406.688 0 385.44V126.624c0-21.184 17.216-38.336 38.336-38.336h435.392c21.184 0 38.336 17.216 38.336 38.336v258.88c.064 21.184-17.152 38.272-38.272 38.272z" fill="#ff4b55"/><path d="M14.592 415.584l272.832-154.048c4.288-2.432 4.288-8.576 0-11.008L14.592 96.48A38.205 38.205 0 000 126.56v258.88c0 12.224 5.696 23.104 14.592 30.144z" fill="#ffe15a"/><path d="M12.224 413.472l183.552-151.424c3.776-3.072 3.776-9.024 0-12.096L12.224 98.592C4.736 105.632 0 115.616 0 126.624v258.88c0 11.072 4.736 20.928 12.224 27.968z" fill="#464655"/><path d="M55.104 214.496l.832 31.808-29.824 11.072c-2.88 1.088-2.688 5.12.192 6.016l30.528 9.024 1.28 31.808c.128 3.008 4.096 4.224 5.824 1.728l17.984-26.176 30.592 8.512c2.88.832 5.184-2.624 3.392-4.992L96.576 258.08l17.6-26.496c1.728-2.496-.832-5.824-3.712-4.672l-30.016 10.624L60.8 212.512c-1.856-2.368-5.696-.96-5.696 1.984z" fill="#f5f5f5"/></svg>