<svg xmlns="http://www.w3.org/2000/svg" viewBox="0 0 512 512"><path d="M473.885 88.279H38.115C17.045 88.403 0 105.517 0 126.617v28.75h512v-28.75c0-21.1-17.045-38.214-38.115-38.338zM0 222.46h512v67.09H0z" fill="#73af00"/><path fill="#ffe15a" d="M0 155.37h512v67.09H0z"/><path d="M0 385.376c0 21.177 17.167 38.345 38.345 38.345h435.31c21.177 0 38.345-17.167 38.345-38.345v-28.739H0v28.739z" fill="#73af00"/><path fill="#ffe15a" d="M0 289.55h512v67.09H0z"/><path d="M8.828 289.548h185.379a8.829 8.829 0 008.828-8.828V97.107a8.829 8.829 0 00-8.828-8.828H38.115C17.045 88.403 0 105.517 0 126.617v154.102a8.828 8.828 0 008.828 8.829z" fill="#ff4b55"/><path d="M99.335 135.639l-12.758 38.252-40.322.312c-2.21.018-3.127 2.838-1.348 4.151l32.438 23.954-12.163 38.446c-.666 2.108 1.734 3.851 3.531 2.566l32.806-23.447 32.806 23.448c1.799 1.286 4.199-.458 3.531-2.566l-12.163-38.445 32.438-23.954c1.779-1.313.862-4.135-1.348-4.151l-40.322-.312-12.761-38.252c-.7-2.098-3.666-2.098-4.365-.002z" fill="#f5f5f5"/></svg>