<svg xmlns="http://www.w3.org/2000/svg" viewBox="0 0 512 512"><path d="M473.655 423.724H38.345C17.167 423.724 0 406.557 0 385.379V126.621c0-21.177 17.167-38.345 38.345-38.345h435.31c21.177 0 38.345 17.167 38.345 38.345V385.38c0 21.177-17.167 38.344-38.345 38.344z" fill="#41479b"/><path d="M8.828 256h15.334l81.77-53.574V256h44.138v-53.574L231.839 256h15.334a8.829 8.829 0 008.828-8.828v-7.002l-70.154-45.963H256v-44.138h-70.155L256 104.106v-7.002a8.827 8.827 0 00-8.825-8.828h-15.337l-81.769 53.574V88.276h-44.138v53.574L26.844 90.034c-9.234 2.9-16.954 9.203-21.711 17.434l65.023 42.601H0v44.138h70.155L0 240.17v7.002A8.829 8.829 0 008.828 256z" fill="#f5f5f5"/><g fill="#ff4b55"><path d="M256 158.897H141.241V88.276h-26.482v70.621H0v26.482h114.759V256h26.482v-70.621H256z"/><path d="M8.227 102.902l72.662 47.167h16.214l-82.496-53.55a38.565 38.565 0 00-6.38 6.383zm158.056 47.167l88.374-57.366c-1.536-2.599-4.246-4.427-7.485-4.427h-1.909l-95.194 61.793h16.214zm-76.809 44.138L1.269 251.463C2.79 254.125 5.542 256 8.828 256h1.665l95.196-61.793H89.474zm166.386 53.658l-82.666-53.658H156.98l93.874 60.935c2.812-1.305 4.741-4.04 5.006-7.277z"/></g><path d="M344.073 205.977a1.928 1.928 0 00-1.928 1.928v32.774c0 65.547 46.269 77.114 46.269 77.114s46.269-11.567 46.269-77.114v-32.774a1.928 1.928 0 00-1.928-1.928h-88.682z" fill="#ffe15a"/><path d="M429.864 210.797v29.881c0 55.751-34.461 69.813-41.448 72.089-7.026-2.291-41.451-16.369-41.451-72.089v-29.881h82.899m2.891-4.82h-88.682a1.928 1.928 0 00-1.928 1.928v32.774c0 65.547 46.269 77.114 46.269 77.114s46.269-11.567 46.269-77.114v-32.774a1.928 1.928 0 00-1.928-1.928z" fill="#f5f5f5"/><path d="M393.589 267.04h-9.863s-7.954 7.954-9.778 25.426a1.656 1.656 0 00.608 1.468c1.673 1.311 6.372 4.339 14.101 4.339s12.428-3.028 14.101-4.339c.441-.345.665-.91.608-1.468-1.823-17.472-9.777-25.426-9.777-25.426z" fill="#73af00"/><g fill="#ff4b55"><path d="M393.589 265.396h-9.863v-8.219a4.946 4.946 0 014.931-4.931 4.946 4.946 0 014.931 4.931v8.219h.001z"/><path d="M393.589 268.683h-9.863a1.644 1.644 0 110-3.288h9.863a1.645 1.645 0 010 3.288z"/></g><path d="M426.464 232.338c-.291 0-4.579.02-9.041.787v-2.57a46.509 46.509 0 017.517-2.622.822.822 0 00-.376-1.6c-.248.057-3.561.854-7.171 2.425a4.875 4.875 0 00-.956-2.635c2.946-2.28 5.455-3.729 5.502-3.755a.823.823 0 00-.813-1.429c-.199.114-2.831 1.632-5.887 4.019a4.897 4.897 0 00-5.584.07c.843-4.23 2.575-6.061 2.599-6.084a.821.821 0 00-1.165-1.159c-.098.098-1.695 1.747-2.707 5.452-1.012-3.706-2.609-5.355-2.707-5.452a.821.821 0 00-1.166 1.16c.023.023 1.756 1.855 2.599 6.084a4.895 4.895 0 00-5.584-.07c-3.055-2.388-5.687-3.905-5.887-4.019a.821.821 0 10-.813 1.429c.046.026 2.556 1.474 5.503 3.754a4.89 4.89 0 00-.957 2.636c-3.609-1.572-6.923-2.368-7.171-2.425a.822.822 0 00-.376 1.6c.063.014 3.752.903 7.517 2.622v2.57c-4.461-.768-8.749-.787-9.041-.787a.821.821 0 100 1.644c.071 0 4.564.018 9.041.812v2.659c-2.466-.074-5.217.271-7.765 1.547a.82.82 0 10.735 1.47c2.269-1.133 4.769-1.429 7.029-1.353v10.17a19.09 19.09 0 01-.366 3.708l-1.261 6.304a.822.822 0 001.612.323l1.261-6.304c.265-1.325.399-2.68.399-4.03v-10.048c1.233.138 2.34.36 3.231.583l.627 8.14a3.528 3.528 0 001.327 2.486l-2.666 3.998c-1.428 2.143.107 5.012 2.682 5.012h4.391c2.574 0 4.11-2.87 2.682-5.012l-2.666-3.998a3.526 3.526 0 001.327-2.486l.626-8.14a24.78 24.78 0 013.231-.583v10.047c0 1.35.134 2.705.399 4.03l1.261 6.304a.823.823 0 001.612-.323l-1.261-6.304a18.99 18.99 0 01-.366-3.708v-10.17c2.26-.076 4.761.22 7.029 1.353a.824.824 0 001.102-.368.82.82 0 00-.367-1.102c-2.547-1.273-5.298-1.619-7.765-1.546v-2.66c4.477-.794 8.97-.812 9.041-.812a.822.822 0 00.003-1.644zm-10.685 1.103c-.982.213-1.949.466-2.86.769a4.58 4.58 0 00-.145-.942 20.931 20.931 0 013.006-1.909v2.082h-.001zm0-4.391v.455c-1.302.647-2.584 1.397-3.732 2.248a4.503 4.503 0 00-.829-.871c1.229-1.362 2.596-2.624 3.941-3.737.387.538.62 1.194.62 1.905zm-3.287-3.287c.49 0 .951.115 1.369.308-1.42 1.193-2.86 2.55-4.149 4.022a4.327 4.327 0 00-.509-.135v-.087c0-.374.013-.729.026-1.082.137-1.688 1.538-3.026 3.263-3.026zm-8.219 0c1.724 0 3.126 1.337 3.261 3.027.013.353.026.707.026 1.082v.087a4.38 4.38 0 00-.509.135c-1.289-1.472-2.729-2.829-4.149-4.022a3.252 3.252 0 011.371-.309zm-3.288 3.287c0-.713.233-1.368.62-1.907 1.345 1.113 2.711 2.376 3.94 3.737-.316.252-.59.546-.829.872-1.148-.851-2.429-1.601-3.732-2.248l.001-.454zm0 2.31a21.043 21.043 0 013.006 1.909 4.458 4.458 0 00-.145.941 27.906 27.906 0 00-2.86-.769v-2.081h-.001zm0 6.209v-2.441c1.03.233 2.024.515 2.935.854l.162 2.105a25.282 25.282 0 00-3.097-.518zm14.794.001c-1.153.12-2.204.31-3.097.518l.162-2.105c.911-.339 1.906-.62 2.935-.854v2.441z" fill="#d35a10"/><path d="M374.535 254.529h-3.692l-14.109-12.541a5.536 5.536 0 01-1.694-5.483l3.934-15.737c.348-1.393 2.082-1.873 3.096-.857l6.385 6.385c.346.346.815.541 1.305.541h4.773v27.693l.002-.001z" fill="#ffa033"/><path d="M371.889 223.051l-2.265 10.197a11.09 11.09 0 00.203 5.586l4.708 15.695h3.692l4.708-15.695c.544-1.814.615-3.737.203-5.586l-2.265-10.197a4.597 4.597 0 00-4.488-3.599h-.01a4.591 4.591 0 00-4.486 3.599z" fill="#ff9480"/><path d="M376.381 223.143c-1.02 0-1.846.826-1.846 1.846v29.539h3.692v-29.539a1.847 1.847 0 00-1.846-1.846z" fill="#ffa0e4"/></svg>