<svg xmlns="http://www.w3.org/2000/svg" viewBox="0 0 512 512"><path d="M473.885 88.279H38.115C17.045 88.402 0 105.517 0 126.617v258.759c0 21.177 17.167 38.345 38.345 38.345h435.31c21.177 0 38.345-17.167 38.345-38.345V126.617c0-21.1-17.045-38.215-38.115-38.338z" fill="#82afff"/><path d="M8.828 256.003h238.345a8.829 8.829 0 008.828-8.828V97.106a8.829 8.829 0 00-8.828-8.828H38.115C17.045 88.402 0 105.517 0 126.617v120.557a8.829 8.829 0 008.828 8.829z" fill="#41479b"/><path d="M8.828 256.003h15.334l81.77-53.574v53.574h44.138v-53.574l81.77 53.574h15.334a8.829 8.829 0 008.828-8.828v-7.002l-70.155-45.963H256v-44.138h-70.155L256 104.108v-7.002a8.829 8.829 0 00-8.828-8.828h-15.334l-81.77 53.574V88.279H105.93v53.574l-79.093-51.82c-9.231 2.9-16.951 9.204-21.707 17.436l65.025 42.603H0v44.138h70.155L0 240.173v7.002a8.829 8.829 0 008.828 8.828z" fill="#f5f5f5"/><g fill="#ff4b55"><path d="M256 158.899H141.241v-70.62h-26.482v70.62H0v26.483h114.759v70.621h26.482v-70.621H256z"/><path d="M8.226 102.904l72.664 47.168h16.213L14.606 96.52a38.61 38.61 0 00-6.38 6.384zm158.057 47.168l88.374-57.366c-1.536-2.599-4.246-4.427-7.485-4.427h-1.909l-95.194 61.793h16.214zM89.474 194.21L1.269 251.464c1.519 2.663 4.273 4.537 7.559 4.537h1.665l95.196-61.793H89.474v.002zm166.386 53.658l-82.666-53.658H156.98l93.874 60.935c2.812-1.306 4.741-4.04 5.006-7.277z"/></g><path d="M218.666 353.365l-4.726 14.169-14.936.116c-1.432.011-2.026 1.839-.874 2.69l12.015 8.873-4.505 14.241c-.433 1.366 1.123 2.495 2.289 1.663l12.152-8.685 12.152 8.685c1.165.833 2.72-.297 2.289-1.663l-4.505-14.241 12.015-8.873c1.152-.851.558-2.679-.874-2.69l-14.936-.116-4.726-14.169c-.454-1.359-2.377-1.359-2.83 0zM448.735 243.02l-4.726 14.169-14.936.116c-1.432.011-2.026 1.839-.874 2.69l12.015 8.873-4.505 14.241c-.433 1.366 1.123 2.495 2.289 1.663l12.152-8.685 12.152 8.685c1.165.833 2.72-.297 2.289-1.663l-4.505-14.241 12.015-8.873c1.152-.851.558-2.679-.874-2.69l-14.936-.116-4.726-14.169c-.454-1.359-2.377-1.359-2.83 0zm0-119.173l-4.726 14.169-14.936.116c-1.432.011-2.026 1.839-.874 2.69l12.015 8.873-4.505 14.241c-.433 1.366 1.123 2.495 2.289 1.663l12.152-8.685 12.152 8.685c1.165.833 2.72-.297 2.289-1.663l-4.505-14.241 12.015-8.873c1.152-.851.558-2.679-.874-2.69l-14.936-.116-4.726-14.169c-.454-1.358-2.377-1.358-2.83 0zM277.812 278.818l4.665 14.189-11.915 9.007c-1.142.864-.529 2.685.904 2.68l14.936-.052 4.885 14.115c.469 1.354 2.39 1.332 2.828-.032l4.566-14.222 14.934-.284c1.432-.028 2.005-1.862.844-2.699l-12.115-8.737 4.345-14.291c.417-1.37-1.151-2.483-2.306-1.636l-12.053 8.822-12.248-8.548c-1.176-.819-2.718.327-2.27 1.688zm-1.104 61.241l4.665 14.189-11.915 9.007c-1.142.864-.529 2.685.904 2.68l14.936-.052 4.885 14.115c.469 1.354 2.39 1.332 2.828-.032l4.566-14.222 14.934-.284c1.432-.028 2.005-1.862.844-2.699l-12.115-8.737 4.345-14.291c.417-1.37-1.151-2.483-2.306-1.636l-12.053 8.822-12.248-8.548c-1.175-.819-2.718.328-2.27 1.688zm64.552-15.448l4.665 14.189-11.915 9.007c-1.142.864-.529 2.685.904 2.68l14.936-.052 4.885 14.115c.469 1.354 2.39 1.332 2.828-.032l4.566-14.222 14.934-.284c1.432-.028 2.005-1.862.844-2.699l-12.115-8.737 4.345-14.291c.417-1.37-1.151-2.483-2.306-1.636l-12.053 8.822-12.248-8.548c-1.175-.819-2.718.327-2.27 1.688zm-1.103-133.517l4.665 14.189-11.915 9.007c-1.142.864-.529 2.685.904 2.68l14.936-.052 4.885 14.115c.469 1.354 2.39 1.332 2.828-.032l4.566-14.222 14.934-.284c1.432-.028 2.005-1.862.844-2.699l-12.115-8.737 4.345-14.291c.417-1.37-1.151-2.483-2.306-1.636l-12.053 8.822-12.248-8.548c-1.176-.819-2.718.327-2.27 1.688zm54.62-18.207l4.665 14.189-11.915 9.007c-1.142.864-.529 2.685.904 2.68l14.936-.052 4.885 14.115c.469 1.354 2.39 1.332 2.828-.032l4.566-14.222 14.934-.284c1.432-.028 2.005-1.862.844-2.699l-12.115-8.737 4.345-14.291c.417-1.37-1.151-2.483-2.306-1.636l-12.053 8.822-12.248-8.548c-1.175-.819-2.718.327-2.27 1.688z" fill="#ffe15a"/></svg>