<svg xmlns="http://www.w3.org/2000/svg" viewBox="0 0 512 512"><path d="M473.655 88.275H38.345C17.167 88.275 0 105.442 0 126.62v258.76c0 21.177 17.167 38.345 38.345 38.345h435.31c21.177 0 38.345-17.167 38.345-38.345V126.62c0-21.178-17.167-38.345-38.345-38.345z" fill="#82afff"/><g fill="#f5f5f5"><path d="M255.25 321.654c44.902 0 81.431-36.532 81.431-81.431s-36.53-81.431-81.431-81.431-81.431 36.532-81.431 81.431c-.001 44.899 36.529 81.431 81.431 81.431zm9.29-154.345l6.999-2.579a76.844 76.844 0 0127.145 11.651c-.695-.07-2.532-.258-2.849-.364-.392-.13-.998 2.494-.998 2.494l3.212 1.278.876-3.226c3.336 2.295 6.451 4.876 9.382 7.654l-4.722 4.722h-.834l-.679-2.665-2.583-4.643-9.124-3.289-6.309 3.054 3.581 7.753a60.085 60.085 0 00-30.296-9.37v-10.806l6.43 2.03-2.673-4.712-3.757 1.608v-4.824c2.791.075 5.538.303 8.248.669l-3.158 1.053 2.109 2.512zm42.256 59.602l1.537-.651.387-3.783c1.647 4.952 2.598 10.206 2.798 15.657h-14.162l.522-2.262 4.002-.348 3.313-5.641-.094-1.058-3.393 4.35-2.072.509-1.321-1.553 1.554-2.641-3.381-2.494-3.037 2.663c-.818-2.952-1.932-5.78-3.373-8.414l1.647-.599 1.321-.788-.011-1.554.847-1.053-.49-.3c-.362.172-2.251.721-2.251.721l-.655 2.126-.94.572a39.804 39.804 0 00-4.85-6.641l7.809-7.809.067.11 1.902-1.143-.295-.643 2.321-2.321a56.357 56.357 0 0111.913 19.719l-1.944-2.889-1.002.374 1.331 7.784zm-10.295 51.61l-4.224-4.224-1.594-4.226-.82 1.812-1.634-1.634 1.675-5.135-1.085-3.726-.077.01c1.148-1.809 2.183-3.695 3.03-5.686l.02-.002c.262 0 1.218-1.218 1.218-1.218l2.349.26 6.072-2.4-2.332-2.211-1.373-1.226-1.064-2.166-1.902-3.313c.03-.372.038-.749.057-1.124h16.704c-.517 13.964-6.113 26.621-15.02 36.209zm-81.054-2.672l2.091-3.654-4.501-15.731-3.549-8.76 3.219-1.393.87-2.61 2.174-.063c.759 8.84 4.436 16.839 10.054 23.075l-9.222 9.222-1.136-.086zm5.024-38.563l-.045.849h-.567c.019-.321.022-.647.049-.966l.563.117zm53.608 32.972l-.715-.388-9.109 3.522-4.721-1.817-2.197.607v-3.002l2.273-.686 1.378.332 2.901 1.135-1.749-3.198 3.748 3.142 1.798.41-.547-2.397 1.219-3.961 4.247-2.591.367 2.385-5.181 2.816.994 1.983 5.388-1.088.085 2.688c-.057.035-.12.069-.179.108zm-21.468-15.686l-.162-.348-.978.056a14.488 14.488 0 01-3.541-1.482l3.635-.441 1.597-4.286v6.556c-.182-.025-.372-.023-.551-.055zm-15.265-8.942l-3.551-.547 1.811-2.773h1.063c.128 1.144.352 2.247.677 3.32zm19.991-14.448l.979.297 1.231 1.493-2.21 2.21v-4zm6.586 26.542l-1.695 1.984-2.825 1.405-.947-1.66-.57 3.3-.547.214v-4.163c.396-.044.802-.052 1.19-.12l1.352 1.695 1.122-1.397-.088-.934c.623-.199 1.259-.364 1.853-.625l1.155.301zm-1.271-21.951l-.045 2.259-.082.103h-2.236l2.363-2.362zm1.341 7.777l2.703-.086 1.474 1.228-.491.884-2.063-1.178-1.13.884.567 1.694-.023.075-4.739-4.739h3.157l.545 1.238zm-1.788 6.58l-2.582-.278-1.824 4.728c-.15.026-.309.025-.46.046v-9.364l4.866 4.868zm-13.406-11.996l-.181-.761-1.813.761h-.802l.265-1.101 1.171-1.134-.929-.211-.966 1.373-1.004.46.118.615h-1.054l.634-2.467 1.856-1.646 4.114 4.114h-1.409v-.003zm-7.747 4.177l.428.504.289-.504h1.493l-1.942 2.101a14.356 14.356 0 01-.474-2.101h.206zm2.311 6.356l2.699-4.662-.706-.631 1.19-.614.149-.45h1.9l-.436.234-.181.626 1.472-.1-1.095 1.095-1.113.234-.231 1.11-3.426 3.425c-.071-.093-.154-.173-.222-.267zm9.799-22.414l-.78-.12.604 2.505.177.138v6.406l-3.51-3.509 2.463-1.331-2.225-3.686c1.036-.41 2.135-.674 3.271-.839v.436zm-32.958 16.058l-.042.794-.175 1.06c-.067-.611-.09-1.235-.127-1.855l.344.001zm2.043 4.959l2.598 2.611 2.131-1.484 5.02 4.212 5.4.95 1.51-4.248a18.8 18.8 0 001.729 2.578l-4.639 4.639.746-1.901-2.762-.449.884 3.243.131.109-6.237 6.236c-4.064-4.569-6.996-10.165-8.274-16.374l1.763-.122zm21.338 7.569a18.578 18.578 0 009.577 3.964v4.829l-.047.114.047-.015v3.611l-1.216.244-.705 4.533 1.921-.223v1.438l-3.042.84-1.013.977a35.353 35.353 0 01-17.398-8.434l11.876-11.878zm35.222 17.229l3.064.65 3.014.093 1.657 1.657-5.063-.184-3.262-1.774c.201-.145.393-.296.59-.442zm2.936-8.305l-.914-.914 1.86-.142c-.299.366-.632.702-.946 1.056zm4.789-40.284c-1.421.021-2.798.04-2.921.04-.262 0-2.308 1.749-2.308 1.749l-1.564 2.025-.471-2.471 1.108-2.524-.854-.782-3.828 2.436-.812-.41 2.99-2.99.658.217 1.906-.448-.969-1.363 2.276-2.276c1.842 2.071 3.467 4.338 4.789 6.797zm-11.198-6.293l-.183-.585-1.239.195-.77 1.491-3.405.335c.249.499 1.309 2.569 1.405 2.755l-4.225 4.225a18.715 18.715 0 00-2.879-1.892l.523-.281-.621-2.098-.423-.774-1.885 2.061c-1.365-.497-2.802-.812-4.294-.98V204.83a35.293 35.293 0 0121.453 8.897l-3.457 3.459zm-22.172 4.455a18.608 18.608 0 00-3.893.855l.625-1.451-3.257 2.56.006.01a18.74 18.74 0 00-3.058 1.99l-11.876-11.875a35.293 35.293 0 0121.453-8.897v16.808zm-13.2 6.248l-5.614.982.196-2.133-4.653-1.606-7.442 1.556c1.532-3.697 3.687-7.06 6.306-10.006l11.207 11.207zm-18.021.187l2.337.489-2.801.775c.138-.43.309-.843.464-1.264zm-6.258 10.058h-.362l.38-.351c-.007.117-.011.235-.018.351zm4.453 40.155l8.621-8.62a39.554 39.554 0 0016.736 8.963l-2.969 2.861 6.391 8.445 4.247.234v6.322c-11.153-.41-21.485-4.038-30.08-10.036l1.38-.896-4.326-7.273zm37.201 12.112l5.385.297.137 1.235 3.276 3.59c-2.858.562-5.804.861-8.798.971v-6.093zm34.207-10.934l2.005 2.005c-.959.89-1.923 1.773-2.942 2.598l.937-4.603zm2.004-80.494l-1.223 1.223-1.45-3.168-2.636-1.402s-2.455-2.166-3.733-3.5a56.482 56.482 0 019.042 6.847zm-9.61-7.194l1.845 6.455 4.31 3.752.168.274-8.519 8.518c-6.546-5.897-15.042-9.631-24.405-10.122v-16.704a55.956 55.956 0 0126.601 7.827zm-30.776 8.879c-9.363.491-17.859 4.225-24.405 10.122l-11.806-11.806c9.587-8.908 22.247-14.504 36.211-15.019v16.703zm-27.358 13.072c-4.474 4.968-7.719 11.049-9.236 17.794l-3.67 6.61h-13.919c.515-13.964 6.111-26.623 15.018-36.21l11.807 11.806zm-14.918 28.581l-3.966 8.524-5.61-2.087-1.053 3.734c-.734-3.292-1.149-6.694-1.277-10.173h11.905l.001.002zm-4.183 42.281l.648.574-8.111 8.111a77.421 77.421 0 01-13.778-20.137l2.157 1.26 14.387 12.801 4.697-2.609zm3.779 3.348l1.964 1.741 6.369-1.21c9.629 7.289 21.471 11.754 34.346 12.196v16.704c-19.72-.531-37.59-8.461-50.969-21.142l8.29-8.289zm46.855 12.729c3.539-.121 7.014-.49 10.374-1.197l.389 2.573 9.952 7.339 11.206-6.217 3.217-6.782-.211-4.196 2.116-4.964-.516-.404c.914-.759 1.768-1.586 2.635-2.396l1.926 1.924.586 3.637 2.186-.866 7.111 7.111c-13.379 12.681-31.25 20.611-50.969 21.142v-16.704h-.002zm44.857-16.456l-.399-4.754-.535.024a60.226 60.226 0 0014.436-37.173H332.4c-.531 19.719-8.461 37.588-21.14 50.967l-9.066-9.064zm13.501-46.079a60.073 60.073 0 00-8.515-28.892l7.1 6.641 5.697-4.893-8.744-13.181-5.771-4.437.015-.425 5.781-5.781c12.68 13.379 20.609 31.249 21.14 50.967h-16.703v.001zm-62.533-58.357c-15.115.519-28.815 6.582-39.162 16.244l-11.807-11.806c13.379-12.681 31.25-20.611 50.969-21.142v16.704zm-42.115 19.198c-9.661 10.347-15.723 24.046-16.243 39.161H178.1c.531-19.719 8.461-37.588 21.14-50.967l11.807 11.806zm-16.243 43.336a60.104 60.104 0 003.309 17.773l-.63 2.237-16.32-.359c-1.841-6.26-2.878-12.847-3.062-19.651h16.703z"/><path d="M198.993 336.966l15.076-2.44c1.348-.218 1.907-1.846.973-2.842-3.626-3.874-10.833-11.898-15.007-18.728-5.742-9.396-15.852-17.142-15.852-17.142s1.932 25.842 21.42 34.716c0 0-19.314-4.872-31.668-8.178-12.354-3.306-15.735-6.944-15.735-6.944s9.648 24.689 40.793 21.558z"/><path d="M184.029 308.083c-.522-6.439-5.228-22.899-14.098-36.505 0 0 .011 33.068 11.752 44.269 0 0-16.62-15.943-26.538-23.251-9.286-6.841-13.398-14.616-13.398-14.616s2.495 20.896 16.008 31.319c9.134 7.047 29.406 12.006 29.406 12.006s-2.61-6.786-3.132-13.222z"/><path d="M152.188 283.373l10.154 8.782c1.059.916 2.709.193 2.731-1.207.055-3.532.271-8.893 1.035-12.273 1.218-5.394 2.724-22.909-3.423-35.64 0 0-7.431 22.816-1.623 41.817 0 0-9.123-14.505-18.444-25.491-4.872-5.742-6.801-12.512-6.801-12.512s-.159 22.779 16.371 36.524z"/><path d="M149.401 260.898c.796 1.073 2.447.846 2.902-.409 1.335-3.683 3.925-10.306 7.366-16.612 6.264-11.484 3.375-25 3.375-25s-10.056 17.237-12.971 36.392a183.21 183.21 0 00-.647-2.81c-2.76-11.602-13.495-40.542-13.495-40.542s-3.776 15.893.943 28.48c2.424 6.459 9.2 16.012 12.527 20.501z"/><path d="M147.33 235.49c.303 1.155 1.92 1.184 2.264.04.961-3.19 2.959-7.587 7.117-11.837 7.83-8.003 13.767-19.114 16.801-29.045 0 0-16.706 13.404-21.974 22.442 0 0 .521-12.429-1.266-21.411-1.523-7.656 1.713-15.031 1.713-15.031s-10.586 10.161-9.021 28.778c.986 11.713 3.005 20.876 4.366 26.064z"/><path d="M157.91 203.576c3.169-2.905 8.719-7.853 14.07-10.856 7.105-3.986 12.724-16.844 13.963-19.705 0 0-19.797 16.201-25.186 21.401 0 0 3.263-14.485 5.351-20.749 2.088-6.264 1.827-8.352 3.654-10.962 0 0-9.526 8.352-12.137 15.007-2.145 5.47-1.734 17.903-2.026 24.767-.054 1.244 1.394 1.938 2.311 1.097z"/><path d="M177.939 174.451c5.568-4.524 14.442-17.748 14.442-17.748-2.199 1.256-11.136 4.35-18.617 12.006-7.482 7.656-9.048 18.095-9.048 18.095s7.655-7.829 13.223-12.353zm126.433 166.343c-16.355-3.219-30.362-5.568-46.781-1.297-.808.21-1.564.452-2.342.681-.779-.227-1.534-.47-2.342-.681-16.418-4.27-30.425-1.922-46.781 1.297-14.742 2.901-28.857.391-28.857.391s10.24 10.398 33.556 10.398c10.172 0 22.955-8.562 31.021-9.018 1.986-.113 3.948.008 5.891.225-17.32 7.065-25.315 17.78-25.472 17.987a2.084 2.084 0 00.402 2.92c.377.289.82.428 1.26.428.63 0 1.255-.286 1.664-.823.637-.839 13.431-14.073 29.658-18.963 16.227 4.89 29.022 18.125 29.658 18.963a2.088 2.088 0 003.326-2.525c-.157-.207-8.152-10.922-25.472-17.987 1.943-.216 3.905-.337 5.891-.225 8.066.457 20.85 9.018 31.021 9.018 23.316 0 33.556-10.398 33.556-10.398s-14.115 2.508-28.857-.391zm.522-10.266c19.488-8.874 21.42-34.716 21.42-34.716s-10.111 7.746-15.852 17.142c-4.173 6.829-11.381 14.854-15.006 18.728-.932.996-.374 2.624.973 2.842l15.076 2.441c31.146 3.132 40.791-21.56 40.791-21.56s-3.382 3.639-15.735 6.944c-12.354 3.307-31.667 8.179-31.667 8.179z"/><path d="M355.353 292.596c-9.918 7.308-26.538 23.251-26.538 23.251 11.742-11.201 11.752-44.269 11.752-44.269-8.87 13.607-13.576 30.067-14.098 36.505-.522 6.438-3.132 13.224-3.132 13.224s20.27-4.959 29.406-12.006c13.513-10.424 16.008-31.319 16.008-31.319s-4.112 7.773-13.398 14.614z"/><path d="M349.438 284.854c5.807-19.003-1.623-41.817-1.623-41.817-6.147 12.732-4.641 30.247-3.423 35.64.764 3.38.98 8.74 1.035 12.273.022 1.4 1.672 2.123 2.731 1.207l10.154-8.782c16.53-13.746 16.371-36.523 16.371-36.523s-1.929 6.77-6.801 12.512c-9.322 10.983-18.444 25.49-18.444 25.49z"/><path d="M360.426 255.27c-2.915-19.155-12.971-36.392-12.971-36.392s-2.889 13.516 3.375 25c3.439 6.306 6.03 12.929 7.366 16.612.455 1.256 2.106 1.482 2.902.409 3.328-4.489 10.103-14.041 12.526-20.502 4.719-12.587.943-28.48.943-28.48s-10.735 28.94-13.495 40.542a179.667 179.667 0 00-.646 2.811z"/><path d="M360.225 195.678c-1.786 8.982-1.266 21.411-1.266 21.411-5.267-9.038-21.974-22.442-21.974-22.442 3.034 9.93 8.972 21.041 16.801 29.045 4.158 4.25 6.156 8.647 7.117 11.837.344 1.143 1.961 1.114 2.264-.04 1.362-5.186 3.38-14.351 4.365-26.065 1.566-18.617-9.021-28.778-9.021-28.778s3.237 7.377 1.714 15.032z"/><path d="M349.742 194.417c-5.389-5.202-25.186-21.401-25.186-21.401 1.24 2.861 6.858 15.72 13.963 19.705 5.351 3.001 10.901 7.95 14.07 10.856.916.84 2.365.147 2.311-1.096-.292-6.863.119-19.297-2.026-24.767-2.61-6.655-12.137-15.007-12.137-15.007 1.827 2.61 1.566 4.698 3.654 10.962 2.088 6.263 5.351 20.748 5.351 20.748z"/><path d="M332.559 174.451c5.568 4.523 13.224 12.353 13.224 12.353s-1.566-10.44-9.048-18.095c-7.481-7.656-16.419-10.75-18.617-12.006 0 0 8.873 13.224 14.441 17.748zm-34.115 43.039l-3.549 2.337 3.786.592 4.137 4.575 2.317-1.491-2.779-5.683zm5.603 19.489l1.314.503 3.328-8.938-.914-1.241-1.436.718-2.283 8.092zm-33.399-15.157l-1.044-1.108-2.349 3 .584.908zm24.044-6.981l.635-2.042-2.101.426-.594.168-.623.834 2.271 2.634.92-.783zm-42.183 47.828l.033-1.271-1.599 2.315.457.782z"/></g></svg>