<svg xmlns="http://www.w3.org/2000/svg" viewBox="0 0 512.002 512.002"><path d="M0 200.09h185.38v37.27H0zm185.379-74.541h326.593c-.569-20.68-17.5-37.272-38.317-37.272H38.345C17.167 88.276 0 105.444 0 126.621v36.2h185.379v-37.272zM38.345 423.725h435.31c20.818 0 37.748-16.593 38.317-37.272H.028c.569 20.679 17.499 37.272 38.317 37.272z" fill="#f5f5f5"/><path d="M185.379 125.549v37.272H512v-36.2c0-.36-.018-.715-.028-1.073l-326.593.001z" fill="#4173cd"/><path fill="#f5f5f5" d="M0 162.821v37.271h512v-37.271H185.379z"/><path fill="#4173cd" d="M185.38 200.09H512v37.27H185.38z"/><path fill="#f5f5f5" d="M0 237.364v37.273h512v-37.273H185.379z"/><path fill="#4173cd" d="M0 274.64h512v37.27H0z"/><path fill="#f5f5f5" d="M0 311.91h512v37.27H0z"/><path d="M0 385.38c0 .36.018.715.028 1.073h511.946c.01-.358.028-.713.028-1.073v-36.2H0v36.2z" fill="#4173cd"/><path fill="#ffe15a" d="M63.976 111.643l14.767 68.332 23.107-9.571z"/><path fill="#ffcd5a" d="M63.976 111.643l26.32 63.546-11.553 4.786z"/><path fill="#ffe15a" d="M121.404 250.289l-14.768-68.332-23.107 9.571z"/><path fill="#ffcd5a" d="M121.404 250.289l-26.321-63.546 11.553-4.786z"/><path fill="#ffe15a" d="M162.013 152.252L93.681 167.02l9.571 23.107z"/><path fill="#ffcd5a" d="M162.013 152.252l-63.547 26.321-4.785-11.553z"/><path fill="#ffe15a" d="M23.367 209.681l68.332-14.768-9.572-23.108z"/><path fill="#ffcd5a" d="M23.367 209.681l63.546-26.322 4.786 11.554z"/><path fill="#ffe15a" d="M121.404 111.643l-37.875 58.761 23.107 9.571z"/><path fill="#ffcd5a" d="M121.404 111.643l-26.321 63.546-11.554-4.785z"/><path fill="#ffe15a" d="M63.976 250.289l37.874-58.761-23.107-9.571z"/><path fill="#ffcd5a" d="M63.976 250.289l26.32-63.546 11.554 4.785z"/><path fill="#ffe15a" d="M162.013 209.681l-58.761-37.876-9.571 23.108z"/><path fill="#ffcd5a" d="M162.013 209.681l-63.547-26.322 4.786-11.554z"/><path fill="#ffe15a" d="M23.367 152.252l58.76 37.875 9.572-23.107z"/><path fill="#ffcd5a" d="M23.367 152.252l63.546 26.321-4.786 11.554z"/><path fill="#ffe15a" d="M92.69 105.932l-12.506 68.781h25.011z"/><path fill="#ffcd5a" d="M92.69 105.932v68.781H80.184z"/><path fill="#ffe15a" d="M92.69 256.001l12.505-68.782H80.184z"/><path fill="#ffcd5a" d="M92.69 256.001v-68.782h12.505z"/><path fill="#ffe15a" d="M167.724 180.966l-68.781-12.505v25.01z"/><path fill="#ffcd5a" d="M167.724 180.966H98.943v-12.505z"/><path fill="#ffe15a" d="M17.655 180.966l68.781 12.505v-25.01z"/><path fill="#ffcd5a" d="M17.655 180.966h68.781v12.505z"/><path fill="#ffe15a" d="M145.747 127.909l-57.479 39.793 17.686 17.686z"/><path fill="#ffcd5a" d="M145.747 127.909l-48.636 48.636-8.843-8.843z"/><path fill="#ffe15a" d="M39.633 234.023l57.478-39.792-17.686-17.686z"/><path fill="#ffcd5a" d="M39.633 234.023l48.635-48.635 8.843 8.843z"/><path fill="#ffe15a" d="M145.747 234.023l-39.793-57.478-17.686 17.686z"/><path fill="#ffcd5a" d="M145.747 234.023l-48.636-48.635 8.843-8.843z"/><path fill="#ffe15a" d="M39.633 127.909l39.792 57.479 17.686-17.686z"/><path fill="#ffcd5a" d="M39.633 127.909l48.635 48.636-8.843 8.843z"/><circle cx="92.69" cy="180.97" r="25.01" fill="#ffe15a"/></svg>