<svg xmlns="http://www.w3.org/2000/svg" viewBox="0 0 512 512"><path d="M473.651 88.256H38.292c-20.485 0-37.215 16.061-38.292 36.277v262.933c1.077 20.215 17.807 36.277 38.292 36.277h435.359c21.18 0 38.349-17.169 38.349-38.349V126.605c0-21.18-17.169-38.349-38.349-38.349z" fill="#464655"/><path d="M0 387.465a38.174 38.174 0 003.144 13.272l246.328-135.909H512v-17.657H249.472L3.144 111.261A38.118 38.118 0 000 124.531v5.166l228.923 126.3L0 382.3v5.165z" fill="#ffe15a"/><path d="M512 282.485H256.029L14.713 415.625a38.172 38.172 0 0023.579 8.117h435.359c21.18 0 38.349-17.169 38.349-38.349V282.485z" fill="#73af00"/><path d="M473.651 88.256H38.292a38.17 38.17 0 00-23.579 8.117l241.316 133.14H512V126.605c0-21.18-17.169-38.349-38.349-38.349z" fill="#ff4b55"/><g fill="#ffe15a"><path d="M76.461 206.481c-25.208-7.93-44.239 10.387-48.588 19.815-3.684 7.988-10.526 44.172 23.583 49.942 34.108 5.771 33.724-26.415 33.724-26.415-1.538 5.129-4.296 19.747-28.917 19.747-9.235 0-22.504-13.721-20.003-28.852 2.353-14.237 15.071-21.521 24.685-21.927 9.103-.384 30.325 5.899 30.325 31.738 0 29.043-29.933 32.314-29.933 32.314v17.537c26.056-2.555 40.801-16.987 44.705-40.107 3.887-23.016-3.951-45.729-29.581-53.792z"/><path d="M48.549 249.548a4.398 4.398 0 00-.927 2.655l-.074 4.717-.918 1.601a1.214 1.214 0 102.107 1.206l.941-1.647 3.766-1.364a4.467 4.467 0 002.555-2.378c.984-2.197 3.098-6.232 6.522-10.441 3.424 4.209 5.538 8.244 6.522 10.441a4.465 4.465 0 002.554 2.378l3.768 1.364.941 1.647a1.214 1.214 0 102.107-1.206l-.918-1.601-.074-4.717a4.398 4.398 0 00-.927-2.655c-3.155-4.007-6.512-7.159-9.82-9.946 2.643-2.484 5.632-4.856 9.395-6.687a2.07 2.07 0 001.101-2.343 2.083 2.083 0 00-2.911-1.402c-2.523 1.175-6.86 3.491-11.739 7.047-4.88-3.557-9.216-5.871-11.739-7.047a2.084 2.084 0 00-2.911 1.402 2.073 2.073 0 001.1 2.343c3.764 1.831 6.753 4.204 9.396 6.687-3.304 2.787-6.661 5.938-9.817 9.946z"/></g></svg>