<svg xmlns="http://www.w3.org/2000/svg" viewBox="0 0 512 512"><path d="M473.655 88.275H256v335.448h217.655c21.177 0 38.345-17.167 38.345-38.345V126.62c0-21.178-17.167-38.345-38.345-38.345z" fill="#f5f5f5"/><path d="M38.345 88.275C17.167 88.275 0 105.442 0 126.62v258.76c0 21.177 17.167 38.345 38.345 38.345H256V88.275H38.345z" fill="#ffe15a"/><path d="M408.267 174.751l-.587 1.173c1.895.97 2.978 2.074 2.978 3.25l-.295-5.831a2.54 2.54 0 01-2.096 1.408zm-45.829 1.173l-.587-1.173a2.552 2.552 0 01-2.098-1.408l-.294 5.831c0-1.173 1.084-2.279 2.979-3.25zm-.419-6.259a2.56 2.56 0 012.56 2.56c0 .512-.189.962-.448 1.362l.674 1.347c1.932-.679 4.312-1.256 7.027-1.703l-.288-1.152c-1.058-.314-1.845-1.256-1.845-2.415a2.56 2.56 0 115.12 0c0 .722-.303 1.367-.783 1.833l.342 1.367a79.644 79.644 0 014.474-.426 6.35 6.35 0 01-.193-1.494 6.4 6.4 0 0112.8 0c0 .518-.077 1.013-.193 1.494 1.554.105 3.049.247 4.474.426l.342-1.367a2.544 2.544 0 01-.783-1.833 2.56 2.56 0 115.12 0c0 1.16-.787 2.101-1.845 2.415l-.288 1.152c2.714.446 5.095 1.023 7.027 1.703l.674-1.347c-.259-.401-.448-.85-.448-1.362a2.56 2.56 0 012.56-2.56c.921 0 1.693.513 2.143 1.244l-.196-3.904c-2.528-2.87-12.746-5.02-24.987-5.02s-22.458 2.148-24.986 5.02l-.196 3.904c.45-.731 1.221-1.244 2.142-1.244z" fill="#ebebeb"/><path d="M389.056 139.55a5.072 5.072 0 001.123-3.165c0-2.383-1.635-4.367-3.84-4.939v-3.134c.751-.446 1.28-1.23 1.28-2.167a2.56 2.56 0 10-5.12 0c0 .937.529 1.721 1.28 2.167v3.134c-2.205.57-3.84 2.556-3.84 4.939 0 1.202.431 2.292 1.123 3.165 1.302-.356 2.628-.605 3.997-.605s2.694.248 3.997.605z" fill="#e6b432"/><path d="M374.332 152.51l-.227-.909c-1.058-.314-1.845-1.256-1.845-2.415a2.56 2.56 0 115.12 0c0 .722-.303 1.367-.783 1.833l.289 1.154a75.766 75.766 0 018.174-.427 3.84 3.84 0 110-7.68 3.84 3.84 0 010 7.68c2.908 0 5.67.153 8.174.427l.289-1.154a2.544 2.544 0 01-.783-1.833 2.56 2.56 0 115.12 0c0 1.16-.787 2.101-1.845 2.415l-.227.909a42.63 42.63 0 013.597.7l1.887-3.774c-3.265-5.059-7.484-8.589-12.216-9.885-1.302-.356-2.628-.605-3.997-.605-1.368 0-2.694.248-3.997.605-4.733 1.295-8.951 4.825-12.216 9.885l1.887 3.774a43.58 43.58 0 013.599-.7z" fill="#ebebeb"/><path d="M382.499 362.135v-5.59c0-.599.084-1.175.214-1.734-.068-.044-.143-.075-.214-.116-.756-.439-1.623-.71-2.56-.71s-1.804.27-2.56.71c-1.524.887-2.56 2.519-2.56 4.41 0 1.377.551 2.622 1.434 3.541 1.098-.606 2.343-.981 3.685-.981.904 0 1.757.184 2.561.47zm5.12-20.239c-1.524.887-2.56 2.519-2.56 4.41 0 1.377.551 2.622 1.434 3.541 1.098-.606 2.343-.981 3.686-.981s2.586.375 3.686.981a5.094 5.094 0 001.434-3.541c0-1.89-1.036-3.523-2.56-4.41a5.078 5.078 0 00-2.56-.71 5.058 5.058 0 00-2.56.71z" fill="#e6b432"/><path d="M386.494 349.846c-1.88 1.037-3.283 2.817-3.78 4.966a7.679 7.679 0 00-.214 1.734v5.59c-.804-.286-1.657-.47-2.56-.47-1.343 0-2.588.375-3.686.981-2.37 1.308-3.994 3.8-3.994 6.699v10.24h15.36v-10.24c0-.903-.184-1.756-.47-2.56h10.71v-10.24c0-2.898-1.624-5.391-3.994-6.699-1.098-.606-2.343-.981-3.686-.981s-2.588.374-3.686.98z" fill="#ff4b57"/><path d="M387.619 246.896l4.374 4.375 1.496-1.496c.355-.355.797-.538 1.254-.641l21.651-21.656 13.868 13.868 9.05-9.05-3.62-3.62-1.811 1.81-3.62-3.62 1.81-1.81-1.81-1.811 3.62-3.62 1.811 1.81 1.81-1.81 3.62 3.62-1.81 1.811 3.62 3.62 9.05-9.05-13.871-13.871 9.492-9.495a3.847 3.847 0 01-1.26-.836l-5.12-5.12a3.824 3.824 0 01-.849-1.297l-53.333 53.347c.341.435.577.958.577 1.554l.001 2.988zm-5.872 15.237l-7.241-7.241-22.507 22.514a5.12 5.12 0 007.243 7.24l17.592-17.597 4.913-4.916z" fill="#e6b432"/><path d="M311.864 288.704c.142-.402.235-.828.235-1.279a3.84 3.84 0 10-3.84 3.84c.451 0 .877-.092 1.279-.235a26.05 26.05 0 012.326-2.326zm-2.326 36.077a3.823 3.823 0 00-1.279-.235 3.84 3.84 0 103.84 3.84c0-.45-.092-.877-.235-1.279a26.184 26.184 0 01-2.326-2.326zm38.402-33.75c.402.142.828.235 1.279.235a3.84 3.84 0 10-3.84-3.84c0 .451.092.877.235 1.279.825.725 1.6 1.501 2.326 2.326zm-2.561 37.354a3.84 3.84 0 003.84 3.84 3.815 3.815 0 002.932-1.387 58.101 58.101 0 01-6.727-2.903c-.017.151-.045.297-.045.45z" fill="#d2d2d2"/><path d="M340.033 324.678a2.538 2.538 0 01-.987-1.561 6.361 6.361 0 01-1.347.149c-3.04 0-5.581-2.135-6.23-4.983a3.825 3.825 0 01-2.73 1.143 3.822 3.822 0 01-2.73-1.143c-.648 2.848-3.189 4.983-6.23 4.983-3.529 0-6.4-2.87-6.4-6.4 0-3.041 2.136-5.581 4.983-6.23a3.825 3.825 0 01-1.143-2.73c0-1.069.438-2.035 1.143-2.73-2.847-.648-4.983-3.189-4.983-6.23 0-3.53 2.871-6.4 6.4-6.4 3.04 0 5.581 2.135 6.23 4.983a3.825 3.825 0 012.73-1.143c1.069 0 2.035.438 2.73 1.143.648-2.848 3.189-4.983 6.23-4.983 3.529 0 6.4 2.87 6.4 6.4 0 3.041-2.136 5.581-4.983 6.23a3.825 3.825 0 011.143 2.73 3.822 3.822 0 01-1.143 2.73c2.847.648 4.983 3.189 4.983 6.23 0 1.35-.425 2.599-1.141 3.633.024.017.053.018.077.035 1.656 1.199 3.565 2.314 5.685 3.333a25.635 25.635 0 001.758-2.509 25.401 25.401 0 003.451-9.027c.253-1.44.409-2.912.409-4.424 0-6.466-2.43-12.364-6.399-16.875a25.919 25.919 0 00-2.326-2.326c-4.511-3.969-10.408-6.399-16.875-6.399s-12.364 2.43-16.875 6.399a25.919 25.919 0 00-2.326 2.326c-3.969 4.511-6.399 10.408-6.399 16.875 0 6.467 2.43 12.364 6.399 16.875a25.919 25.919 0 002.326 2.326c4.511 3.969 10.408 6.399 16.875 6.399a25.48 25.48 0 0016.22-5.813c-1.781-.941-3.442-1.941-4.925-3.016zm8.497-21.951c.435 1.657.69 3.387.69 5.178s-.255 3.521-.69 5.178a11.487 11.487 0 00-3.679-5.178 11.487 11.487 0 003.679-5.178zm-14.612-14.612a11.487 11.487 0 00-5.178 3.679 11.493 11.493 0 00-5.178-3.679c1.657-.435 3.386-.69 5.178-.69s3.52.255 5.178.69zm-24.969 14.612a11.482 11.482 0 003.679 5.178 11.493 11.493 0 00-3.679 5.178 20.339 20.339 0 01-.69-5.178c0-1.792.255-3.52.69-5.178zm14.612 24.969a11.487 11.487 0 005.178-3.679 11.485 11.485 0 005.178 3.679c-1.657.435-3.386.69-5.178.69s-3.521-.256-5.178-.69z" fill="#e6b432"/><path d="M324.899 307.906a3.84 3.84 0 10-7.68 0 3.84 3.84 0 007.68 0zm7.68 0a3.84 3.84 0 107.68 0 3.84 3.84 0 00-7.68 0zm-3.84-3.841a3.84 3.84 0 100-7.68 3.84 3.84 0 000 7.68zm0 7.68a3.84 3.84 0 100 7.68 3.84 3.84 0 000-7.68z" fill="#f0c814"/><g fill="#d2d2d2"><path d="M446.345 195.421a3.8 3.8 0 001.26.836 3.821 3.821 0 004.169-.838c1.331-1.331 1.411-3.361.381-4.857l1.416-5.661c.201.051.393.122.609.122a2.56 2.56 0 10-2.56-2.56c0 .216.073.408.122.609l-5.661 1.416c-1.496-1.031-3.527-.95-4.857.381a3.837 3.837 0 00-.849 4.134c.188.471.467.915.849 1.297l5.121 5.121zm-63.846 60.224v-11.74c0-.596.236-1.119.577-1.554l-53.333-53.347a3.834 3.834 0 01-.849 1.297l-5.12 5.12a3.8 3.8 0 01-1.26.836l9.492 9.495-13.871 13.871 9.05 9.05 3.62-3.62-1.81-1.811 3.62-3.62 1.81 1.81 1.811-1.81 3.62 3.62-1.81 1.811 1.81 1.81-3.62 3.62-1.811-1.81-3.62 3.62 9.05 9.05 13.868-13.868 21.651 21.656c.457.103.898.286 1.254.641l5.871 5.873zm5.873 6.488l4.914 4.915 17.592 17.597c1 1 2.309 1.5 3.622 1.5 1.31 0 2.62-.5 3.62-1.5a5.117 5.117 0 00.001-7.24l-22.507-22.514-7.242 7.242zm-.753-7.988v1.5l4.374-4.374-4.374-4.375zm72.961 36.886c.402.142.828.235 1.279.235a3.84 3.84 0 10-3.84-3.84c0 .451.092.877.235 1.279.825.725 1.6 1.501 2.326 2.326zm1.279 33.514c-.451 0-.877.092-1.279.235a25.919 25.919 0 01-2.326 2.326 3.823 3.823 0 00-.235 1.279 3.84 3.84 0 103.84-3.84z"/><path d="M424.504 288.704c.142-.402.235-.828.235-1.279a3.84 3.84 0 10-3.84 3.84c.451 0 .877-.092 1.279-.235a26.05 26.05 0 012.326-2.326zm-3.605 43.522a3.84 3.84 0 003.84-3.84c0-.154-.028-.3-.045-.45a57.838 57.838 0 01-6.726 2.904 3.816 3.816 0 002.931 1.386z"/></g><path d="M460.58 324.781c3.969-4.511 6.399-10.408 6.399-16.875 0-6.467-2.43-12.364-6.399-16.875a25.919 25.919 0 00-2.326-2.326c-4.511-3.969-10.408-6.399-16.875-6.399s-12.364 2.43-16.875 6.399a25.919 25.919 0 00-2.326 2.326c-3.969 4.511-6.399 10.408-6.399 16.875 0 1.519.158 3 .413 4.448a25.401 25.401 0 003.447 9.004c.541.871 1.12 1.711 1.758 2.509 2.118-1.018 4.025-2.132 5.681-3.33.025-.019.056-.02.082-.038a6.356 6.356 0 01-1.141-3.633c0-3.041 2.136-5.581 4.983-6.23a3.825 3.825 0 01-1.143-2.73c0-1.069.438-2.035 1.143-2.73-2.847-.648-4.983-3.189-4.983-6.23 0-3.53 2.871-6.4 6.4-6.4 3.04 0 5.581 2.135 6.23 4.983a3.825 3.825 0 012.73-1.143c1.068 0 2.035.438 2.73 1.143.649-2.848 3.189-4.983 6.23-4.983 3.529 0 6.4 2.87 6.4 6.4 0 3.041-2.136 5.581-4.983 6.23a3.825 3.825 0 011.143 2.73 3.822 3.822 0 01-1.143 2.73c2.847.648 4.983 3.189 4.983 6.23 0 3.53-2.871 6.4-6.4 6.4-3.04 0-5.581-2.135-6.23-4.983a3.825 3.825 0 01-2.73 1.143 3.823 3.823 0 01-2.73-1.143c-.649 2.848-3.189 4.983-6.23 4.983-.463 0-.914-.055-1.351-.149a2.531 2.531 0 01-.989 1.565c-1.482 1.074-3.14 2.073-4.921 3.012a25.48 25.48 0 0016.22 5.813c6.467 0 12.364-2.43 16.875-6.399a26.073 26.073 0 002.327-2.327zm-38.991-11.697a20.339 20.339 0 01-.69-5.178c0-1.792.255-3.521.69-5.178a11.482 11.482 0 003.679 5.178 11.482 11.482 0 00-3.679 5.178zm19.79-21.29a11.493 11.493 0 00-5.178-3.679c1.657-.435 3.386-.69 5.178-.69s3.521.255 5.178.69a11.5 11.5 0 00-5.178 3.679zm19.791 10.933c.435 1.657.69 3.387.69 5.178s-.255 3.521-.69 5.178a11.487 11.487 0 00-3.679-5.178 11.487 11.487 0 003.679-5.178zm-24.969 24.969a11.487 11.487 0 005.178-3.679 11.485 11.485 0 005.178 3.679c-1.657.435-3.386.69-5.178.69s-3.521-.256-5.178-.69z" fill="#e6b432"/><path d="M445.219 307.906a3.84 3.84 0 107.68 0 3.84 3.84 0 00-7.68 0zm-7.68 0a3.84 3.84 0 10-7.68 0 3.84 3.84 0 007.68 0zm3.84-3.841a3.84 3.84 0 100-7.68 3.84 3.84 0 000 7.68zm0 7.68a3.84 3.84 0 100 7.68 3.84 3.84 0 000-7.68z" fill="#f0c814"/><path d="M328.894 190.3c.382-.382.661-.825.849-1.297a3.84 3.84 0 00-.849-4.134c-1.331-1.331-3.361-1.411-4.857-.381l-5.661-1.416c.051-.201.122-.393.122-.609a2.56 2.56 0 10-2.56 2.56c.216 0 .408-.073.609-.122l1.416 5.661c-1.031 1.496-.95 3.527.381 4.857a3.827 3.827 0 004.169.838 3.847 3.847 0 001.26-.836l5.121-5.121z" fill="#f7b518"/><path d="M430.08 324.68c.541-.391.864-.959.989-1.565a2.529 2.529 0 00-.416-2.01 2.549 2.549 0 00-3.492-.608c-.026.018-.056.019-.082.038-1.655 1.198-3.563 2.312-5.681 3.33-7.506 3.611-17.667 6.019-28.658 6.798v-35.958c11.172 15.257 22.054 23.457 26.9 26.652a25.401 25.401 0 01-3.447-9.004c-6.196-5.126-14.957-13.736-23.453-26.718V268.24c.181-.399.366-.788.546-1.192l-4.914-4.915 7.241-7.241 1.496-1.496c1-1 1-2.62 0-3.62-.644-.644-1.539-.828-2.367-.641-.457.103-.897.286-1.254.641l-1.496 1.496-4.374 4.374v-11.74c0-.596-.236-1.119-.577-1.554-.469-.598-1.165-1.006-1.983-1.006-.819 0-1.514.408-1.983 1.006-.341.435-.577.958-.577 1.554v11.74l-5.87-5.87c-.355-.355-.797-.538-1.254-.641-.828-.186-1.722-.003-2.367.641-1 1-1 2.62 0 3.62l1.496 1.496 7.241 7.241-4.914 4.915c.18.405.365.792.546 1.192v17.374c-8.487 12.956-17.25 21.576-23.449 26.714a25.38 25.38 0 01-3.451 9.027c4.846-3.194 15.727-11.394 26.9-26.652v35.958c-10.991-.778-21.152-3.187-28.659-6.797-2.12-1.02-4.029-2.134-5.685-3.333-.024-.018-.053-.019-.077-.035a2.554 2.554 0 00-3.498.605 2.526 2.526 0 00-.414 2.014c.125.604.448 1.171.986 1.561 1.484 1.075 3.144 2.076 4.926 3.015.155.082.309.162.466.243a57.61 57.61 0 006.727 2.903c7.27 2.631 15.932 4.351 25.228 4.966v18.891c.756-.439 1.623-.71 2.56-.71s1.804.27 2.56.71v-18.667c.851.018 1.702.036 2.56.036s1.709-.019 2.56-.036v5.867c.756-.439 1.623-.71 2.56-.71s1.804.27 2.56.71v-6.091c9.297-.615 17.96-2.335 25.229-4.966a57.838 57.838 0 006.726-2.904c.157-.081.311-.161.466-.243 1.783-.935 3.441-1.937 4.923-3.01zm-45.021 6.265c-.856 0-1.709-.018-2.56-.038v-43.691a148.231 148.231 0 002.56-4.185 146.815 146.815 0 002.56 4.185v43.691c-.85.021-1.703.038-2.56.038z" fill="#ff4b55"/><g fill="#e6b432"><path d="M385.059 184.456c14.138 0 25.6 2.42 25.6 5.405v-10.687c0-1.174-1.084-2.28-2.978-3.25l.587-1.173a2.552 2.552 0 002.098-1.408c.172-.34.295-.708.295-1.118 0-.492-.175-.926-.417-1.316-.451-.73-1.221-1.244-2.143-1.244a2.56 2.56 0 00-2.56 2.56c0 .512.189.962.448 1.362l-.674 1.347c-1.932-.679-4.312-1.256-7.027-1.703l.288-1.152c1.058-.314 1.845-1.256 1.845-2.415a2.56 2.56 0 10-5.12 0c0 .722.303 1.367.783 1.833l-.342 1.367a79.644 79.644 0 00-4.474-.426 6.35 6.35 0 00.193-1.494 6.4 6.4 0 00-12.8 0c0 .518.077 1.013.193 1.494a78.368 78.368 0 00-4.474.426l-.342-1.367c.48-.466.783-1.111.783-1.833a2.56 2.56 0 10-5.12 0c0 1.16.787 2.101 1.845 2.415l.288 1.152c-2.714.446-5.095 1.023-7.027 1.703l-.674-1.347c.259-.401.448-.85.448-1.362a2.56 2.56 0 00-2.56-2.56c-.921 0-1.693.513-2.143 1.244-.241.391-.417.824-.417 1.316 0 .409.121.778.294 1.118a2.55 2.55 0 002.098 1.408l.587 1.173c-1.895.97-2.978 2.074-2.978 3.25v10.687c-.003-2.985 11.459-5.405 25.597-5.405zm-25.6 5.689l.032-.013c-.008-.086-.032-.202-.032-.271v.284z"/><path d="M410.659 190.145v-.285c0 .07-.024.186-.032.271l.032.014z"/></g><path d="M364.579 195.266c0 .512-.189.962-.448 1.362l.97 1.941c1.694-.84 4.008-1.561 6.775-2.114l-.333-1.333c-1.058-.314-1.845-1.256-1.845-2.415a2.56 2.56 0 115.12 0c0 .722-.303 1.367-.783 1.833l.37 1.476a70.047 70.047 0 018.094-.706v-2.319a3.816 3.816 0 01-1.28-2.844 3.84 3.84 0 117.68 0c0 1.133-.5 2.141-1.28 2.844v2.319c2.895.092 5.624.338 8.094.706l.37-1.476a2.544 2.544 0 01-.783-1.833 2.56 2.56 0 115.12 0c0 1.16-.787 2.101-1.845 2.415l-.333 1.333c2.767.553 5.082 1.276 6.775 2.114l.97-1.941c-.259-.401-.448-.85-.448-1.362a2.56 2.56 0 012.56-2.56c.612 0 1.152.245 1.592.604.57-1.399.873-2.51.936-3.176.008-.086.032-.202.032-.271 0-2.985-11.462-5.405-25.6-5.405s-25.6 2.42-25.6 5.405c0 .07.024.186.032.271.062.666.365 1.777.935 3.176.44-.359.98-.604 1.592-.604a2.56 2.56 0 012.561 2.56z" fill="#ebebeb"/><path d="M359.459 195.266c0 1.354 1.06 2.435 2.391 2.526l1.105 2.209c-.599.587-.937 1.205-.937 1.847 0 .738.445 1.447 1.23 2.11l3.89 6.668c0-2.828 8.023-5.12 17.92-5.12s17.92 2.292 17.92 5.12l3.89-6.668c.786-.663 1.23-1.37 1.23-2.11 0-.642-.337-1.26-.937-1.847l1.105-2.209c1.331-.092 2.392-1.172 2.392-2.526 0-.801-.391-1.487-.968-1.956-.44-.359-.98-.604-1.592-.604a2.56 2.56 0 00-2.56 2.56c0 .512.189.962.448 1.362l-.97 1.941c-1.694-.84-4.008-1.561-6.775-2.114l.333-1.333c1.058-.314 1.845-1.256 1.845-2.415a2.56 2.56 0 10-5.12 0c0 .722.303 1.367.783 1.833l-.37 1.476a70.047 70.047 0 00-8.094-.706v-2.319a3.816 3.816 0 001.28-2.844 3.84 3.84 0 10-7.68 0c0 1.133.5 2.141 1.28 2.844v2.319a70.513 70.513 0 00-8.094.706l-.37-1.476c.48-.466.783-1.111.783-1.833a2.56 2.56 0 10-5.12 0c0 1.16.787 2.101 1.845 2.415l.333 1.333c-2.767.553-5.082 1.276-6.775 2.114l-.97-1.941c.259-.401.448-.85.448-1.362a2.56 2.56 0 00-2.56-2.56c-.612 0-1.152.245-1.592.604-.576.469-.967 1.154-.967 1.956z" fill="#e6b432"/><ellipse cx="385.06" cy="210.63" rx="17.92" ry="5.12" fill="#ebebeb"/><g fill="#e6b432"><path d="M410.046 167.005l-4.507-10.14c0-.64-.491-1.25-1.35-1.815l3.639-7.279a2.56 2.56 0 10-4.58-2.29l-1.977 3.955-1.887 3.774a42.71 42.71 0 00-3.597-.7l.227-.909c1.058-.314 1.845-1.256 1.845-2.415a2.56 2.56 0 10-5.12 0c0 .722.303 1.367.783 1.833l-.289 1.154a75.766 75.766 0 00-8.174-.427c-2.908 0-5.67.153-8.174.427l-.289-1.154c.48-.466.783-1.111.783-1.833a2.56 2.56 0 10-5.12 0c0 1.16.787 2.101 1.845 2.415l.227.909a42.736 42.736 0 00-3.598.7l-1.887-3.774-1.977-3.955a2.56 2.56 0 10-4.58 2.29l3.639 7.279c-.858.565-1.35 1.175-1.35 1.815l-4.507 10.14c2.528-2.87 12.746-5.02 24.987-5.02 12.242 0 22.46 2.149 24.988 5.02z"/><circle cx="385.06" cy="147.91" r="3.84"/></g></svg>