<svg xmlns="http://www.w3.org/2000/svg" viewBox="0 0 512 512"><path d="M473.655 88.276H38.345C17.167 88.276 0 105.443 0 126.621V256h512V126.621c0-21.178-17.167-38.345-38.345-38.345z" fill="#f5f5f5"/><path d="M0 385.379c0 21.177 17.167 38.345 38.345 38.345h435.31c21.177 0 38.345-17.167 38.345-38.345V256H0v129.379z" fill="#73af00"/><g fill="#ff4b55"><path d="M389.491 186.436s6.102 16.737 6.625 17.609l.697-1.395 4.184-21.793 10.809-20.224-3.138.349-24.583 11.855s-14.645 16.04-14.819 16.563c-.174.523 20.225-2.964 20.225-2.964z"/><path d="M398.151 346.486c-.813-.117-12.902.465-12.902.465l-3.951-13.25-2.266-25.047 4.271-1.133 5.318 2.528 1.918-10.025s-4.62-5.056-5.492-5.405-11.332-2.702-11.332-2.702l-14.035-18.568 16.737-9.327 13.076-17.958 3.138-16.214-2.615-13.425-5.947-9.956-.156-.504c-.042-.053-.189-.153-.282-.231l-1.112-1.862-.018 1.086c-2.579-1.611-7.858-4.413-9.223-5.096-1.743-.872-10.984-2.441-12.902-1.046-1.918 1.395-10.809 5.579-12.378 8.543s-2.615 13.599-2.615 13.599 2.615 5.928 5.928 7.322c3.313 1.395 9.763 2.964 10.809 2.615.903-.301 11.137-3.325 13.929-4.597l1.239 2.505-.523 7.148-5.753 4.01-10.635 4.184s-16.214-4.533-16.911-4.359c-.697.174-20.747-5.928-20.747-5.928l-18.829-4.359 6.276-3.138 17.086-1.22s3.313-19.352 3.836-19.701 11.681-9.24 11.681-9.24l9.24-2.266-5.579-23.654 8.369-25.803-21.852 6.276-34.636 8.6-22.083-1.395-19.527 6.276-12.553 11.391-7.207 9.763-2.557 15.575-1.628 20.69-6.044 11.391-6.848 5.368c-.768-2.027-4.367-9.784-4.367-9.784l8.717-2.092-2.266-5.753-6.102-4.533 1.918-6.974 6.974 3.836 1.918 1.395 1.22-7.148-7.671-10.809 1.22-5.405 9.24 4.882-1.046-12.553-8.194-5.056.523-6.974 8.95 2.674-.93-6.625-9.763-7.091 9.53-15.342-11.623.582-.93-4.999-3.021-1.163s-16.157 6.858-17.319 6.625c-1.162-.232-14.063-1.975-15.575-1.628-1.511.349-6.857 1.743-6.857 1.743l-1.512 5.928-9.879-1.628-14.645-1.22-4.417 5.405 6.974 2.79s-1.626 12.32-1.162 13.25c.465.929 4.649 6.974 4.649 6.974l-9.53 13.017 9.763 1.395 13.483-2.092-.466 3.255 17.9-1.86-3.953 2.092-5.114 15.342-14.878 30.22-5.23 26.849-8.369-8.717-5.579-23.014-8.369-22.665s-1.743-6.974-2.79-7.148c-1.046-.174-5.579-1.046-5.579-1.046l-5.753 4.707-7.322-1.046-4.184 5.753 4.707 7.322s-7.846 3.138-7.846 4.01.523 5.928 1.046 6.102 12.378-.174 12.378-.174l7.148 12.727-5.579 14.645 2.79 5.579 4.882.697 4.533-5.23 15.691 46.899s-1.22 6.102-2.092 6.625-5.056 5.23-4.01 5.23 7.497.872 8.194.523 9.763-7.322 9.763-7.322 14.296-10.984 15.168-10.112 14.471 9.24 14.471 9.24l-6.276 21.619-14.819 21.619-9.24-5.579-6.625-9.415-4.882 1.569-1.743 2.964.697 6.276s-5.056 4.01-5.056 4.882.523 7.148.523 7.148 3.313 1.569 3.487 2.441 1.918 7.148 1.918 7.148l3.487 1.22 6.625-4.01h10.984l6.799 1.046 14.471-4.533 21.096 1.046-1.918-4.01s-8.543-4.359-11.507-5.23c-2.964-.872-5.928-1.569-5.928-1.569l-1.22-6.102 20.747-24.583 7.671-1.569 2.615 6.451s8.601-2.092 8.601-2.79v-8.834c0-.697-1.86-6.508-1.86-6.508l-.063-.533 6.571-1.095 22.781-10.925 8.02 9.646 9.996 4.766-12.437 22.316-10.694 7.207-7.671-3.487-10.694-7.904-4.184 2.558.93 7.904-6.276-.465-2.79 5.579 4.649 6.741-1.628 5.347s1.162 4.882 2.325 4.882c1.162 0 8.136-2.558 8.136-2.558l20.457-1.628 14.878-4.882 15.575 1.162s3.022-10.461 2.325-10.461-.93-.233-2.79-.233c-1.859 0-8.369.233-8.369.233l-.233-2.324 5.114-9.298 19.759-16.505 5.812 1.162 2.092 3.021 5.812-4.416-.233-7.439-5.113-5.346-5.115-6.045 1.628-9.066 8.833 4.184s13.948 9.763 15.109 10.229c1.162.465 28.128 7.438 28.128 7.438l5.579 13.25-2.79 20.921-8.601-2.557-8.136-10.461s-2.325-1.163-3.487-.93-3.951 4.882-3.951 4.882l2.79 6.509-3.72 1.162-3.487 2.325-.697 4.882 3.254 3.021v6.276c0 .697 1.86 3.254 2.558 3.487.697.232 6.044.929 7.322.814 1.279-.117 10.809-4.068 10.809-4.068s17.899.349 18.365.233 15.924-3.487 15.924-3.487l8.717 1.395s5.812-4.417 5.579-4.999c-.231-.574-6.043-6.037-6.856-6.153zm-33.417-125.878c-4.707.523-7.148 1.918-7.497-.697s-.349-7.846.174-8.02c.523-.174 5.928-3.313 6.102-2.79.174.523 5.579 3.138 5.579 3.138l3.292 6.653c-1.737.923-4.416 1.356-7.65 1.716zm-237.633-42.714s1.918-9.938 2.441-9.938 7.671-2.615 7.671-2.615l-21.27-13.773s3.661 16.911 4.01 18.306c.348 1.394 7.148 8.02 7.148 8.02z"/></g><g fill="#464655"><path d="M181.202 157.441c.074.017.498.111 1.146.239l-.16.697a2.086 2.086 0 002.04 2.56c.951 0 1.814-.653 2.035-1.623l.224-.974c1.507.186 3.166.331 4.769.331 1.354 0 2.662-.098 3.787-.36s1.827-1.384 1.566-2.506c-.262-1.128-1.376-1.847-2.509-1.569-3.31.779-9.763-.371-11.965-.872-1.103-.262-2.244.441-2.506 1.569a2.095 2.095 0 001.573 2.508z"/><path d="M388.332 191.217l5.272 16.098a2.093 2.093 0 001.988 1.438h.093a2.096 2.096 0 001.945-1.618c3.858-16.53 11.577-42.677 17.034-46.948a2.088 2.088 0 00.618-2.506 2.087 2.087 0 00-2.285-1.198c-1.117.207-27.582 5.362-45.995 32.979a2.094 2.094 0 00.006 2.332c.477.703 1.326 1.03 2.161.877l15.333-3.17a108.71 108.71 0 00-3.99 11.403c-6.982-4.249-14.856-5.005-20.317-3.591-6.232 1.634-11.471 5.607-14.376 10.902-2.226 4.058-2.814 8.515-1.615 12.226 1.393 4.31 5.108 9.671 11.366 11.779 4.146 1.408 10.845 1.72 19.677-3.746 0 .042.007.082.006.122-.06 3.487-1.849 6.33-5.326 8.461-6.909 4.234-19.022 4.516-26.996.616-10.515-5.133-26.324-8.055-35.156-9.38 5.476-1.746 12.097-2.238 20.053-.416.108.028.213-.015.321-.007.053.004.094.062.148.062.058 0 .103-.062.161-.067.481-.039.947-.185 1.3-.527.006-.006.007-.013.011-.019.002-.002.006-.001.006-.001.01-.01.007-.024.014-.032.338-.352.487-.802.529-1.274.01-.113.023-.2.015-.312-.006-.095.033-.185.013-.279-.024-.12-2.343-11.997 4.04-20.181 3.836-4.92 10.11-7.606 18.647-7.992.135-.007.246-.083.375-.115.185-.043.369-.071.536-.163.152-.085.259-.218.386-.338.106-.099.237-.159.323-.284.019-.025.02-.057.036-.084.014-.023.042-.033.056-.057.038-.065.029-.141.06-.21.095-.209.16-.418.182-.639.011-.106.011-.203.004-.309a2.02 2.02 0 00-.156-.676c-.022-.055-.011-.117-.04-.17-.169-.332-16.585-33.159 10.162-55.078a2.097 2.097 0 00.341-2.882 2.098 2.098 0 00-2.869-.447c-26.408 18.54-62.906 20.54-77.372 20.54-25.801 0-42.102 9.715-49.838 29.694-.803 2.077-1.373 4.538-1.85 7.175.258-3.697-.418-6.937-2.086-9.647-2.381-3.864-6.023-5.482-7.66-6.044a89.613 89.613 0 00-.035-2.808c2.826-.435 6.18 1.759 7.286 2.69.387.327.87.501 1.356.501.321 0 .646-.076.942-.228a2.09 2.09 0 001.144-2.01c-.684-9.729-7.284-14.457-11.812-16.056 3.992-3.174 8.247-8.363 10.854-16.829a2.087 2.087 0 00-.684-2.239 2.088 2.088 0 00-2.332-.207c-.071.04-4.33 2.346-10.732 4.247l.585-7.603a2.09 2.09 0 00-.964-1.923 2.078 2.078 0 00-2.152-.054c-.108.06-10.82 6.072-21.745 9.246-8.246-2.073-18.978-3.687-23.047.551-.981 1.018-1.894 2.675-1.667 5.241-7.02-1.465-23.136-3.863-32.919 2.463a2.086 2.086 0 00-.877 2.321 2.097 2.097 0 001.964 1.526c3.105.076 7.905.79 9.908 2.114-.883 2.381-2.343 7.426-1.068 12.291-4.246 1.23-8.701 1.42-14.119-1.511l4.723-1.159a2.092 2.092 0 00.46-3.891c-.12-.065-12.03-6.26-21.935-16.672a2.113 2.113 0 00-2.196-.534 2.09 2.09 0 00-1.4 1.771c-.085.839-1.86 20.632 13.171 32.369a2.086 2.086 0 002.133.261 2.091 2.091 0 001.242-1.749l.583-7.476c7.499 4.49 13.708 4.061 19.033 2.442a12.993 12.993 0 002.588 2.877c.171.143.408.298.647.455-3.423 8.014-10.22 10.079-10.511 10.159a2.102 2.102 0 00-1.515 1.868 2.091 2.091 0 001.231 2.059c.506.223 11.455 4.958 23.727.588l-.193 1.4a2.08 2.08 0 00.482 1.64c.386.458.951.725 1.547.736.052 0 .191.006.408.006 1.409 0 6.083-.107 11.382-1.324-.8 7.486-5.362 16.407-10.214 25.82-6.568 12.751-13.888 27.132-13.771 41.654-2.506-3.244-5.626-8.301-7.169-15.017-.534-2.332-.888-4.424-1.209-6.336-.782-4.626-1.458-8.625-4.192-12.384-3.092-4.249-7.464-13.735-7.274-18.916.18-4.789-2.958-7.606-6.146-8.276-.23-.047-.447.012-.675-.015-.755-1.521-2.799-4.434-7.497-4.769-1.13-.152-2.155.785-2.237 1.94a2.09 2.09 0 001.937 2.233c1.639.116 2.655.742 3.279 1.366-1.535.789-2.777 2.105-3.642 3.79-2.801-1.614-5.631-2.018-7.796-1.523-.561.127-.985.43-1.469.659-1.417-.739-5.191-2.146-9.739.746a2.09 2.09 0 00-.643 2.888 2.09 2.09 0 002.888.643c1.624-1.031 3.011-1.166 4.029-1.036-.746 1.382-1.17 2.904-1.097 4.322.145 2.817 1.773 5.002 4.29 5.928-3.002.572-5.546 1.966-6.905 3.852-.22.306-.265.653-.423.977-1.912.198-4.853 1.484-6.712 5.415a2.09 2.09 0 103.782 1.788c.829-1.749 1.803-2.443 2.531-2.76 1.987 6.554 8.448 5.062 12.345 4.149l1.561-.354c2.185-.436 6.037 5.944 7.072 10.084.719 2.877-.512 6.397-4.392 12.553-2.356 3.748-1.678 6.462-.692 8.079.02.033.052.051.072.082a5.582 5.582 0 01-2.439.185c-1.126-.228-2.201.643-2.356 1.788a2.091 2.091 0 001.79 2.354c.534.076 1.038.109 1.515.109 2.433 0 4.054-.831 5.028-1.511 1.361.582 2.761.801 3.796.721 2.886-.239 4.839-2.767 6.159-5.906 3.849 21.222 12.694 40.928 14.231 44.252-.31 7.519-8.426 9.283-8.777 9.361a2.09 2.09 0 00-1.662 1.858 2.086 2.086 0 001.286 2.125c3.531 1.443 6.62 2.022 9.303 2.022 8.276 0 12.651-5.459 14.029-7.562 6.112-2.129 13.277-7.113 16.074-9.152 4.664 3.495 8.541 5.432 9.836 6.038-2.253 22.184-15.26 37.17-19.065 41.099-2.577-1.476-8.268-5.121-10.147-9.464-1.778-4.104-5.075-5.26-7.764-5.02-.903-1.166-2.929-3.341-5.772-3.655-1.397-.147-3.517.109-5.672 2.266a2.09 2.09 0 000 2.958 2.09 2.09 0 002.958.006c1.182-1.182 1.986-1.111 2.248-1.074.806.086 1.585.669 2.2 1.27-1.525 1.3-2.47 3.119-2.317 5.105.108 1.395.631 2.707 1.368 3.927-1.524.793-3.36 2.094-4.569 4.152-.043.074-.093.191-.138.273-2.497.159-6.994 1.922-7.694 7.742a2.09 2.09 0 002.082 2.343 2.093 2.093 0 002.076-1.842c.25-2.084 1.26-3.087 2.206-3.588-.024.858.047 1.751.355 2.684.722 2.196 2.429 3.977 4.977 5.361a9.93 9.93 0 00-.468 2.761c-1.345.679-3.329 1.944-4.345 4.098-.76 1.608-.807 3.405-.139 5.203a2.088 2.088 0 001.961 1.362 2.09 2.09 0 001.961-2.821c-.365-.975-.177-1.58-.002-1.951.308-.659.924-1.213 1.551-1.643.776 1.393 1.948 2.454 3.516 2.972.716.234 1.46.349 2.207.349 2.489 0 5.012-1.259 6.631-3.448 1.937-2.626 5.726-1.122 5.972-1.018 7.922 2.877 18.625.708 25.103-2.931 3.593-2.022 16.253-.931 23.392.239a2.223 2.223 0 001.613-.403c.458-.354.749-.877.807-1.454.722-7.224-8.625-9.142-16.136-10.684-2.046-.419-3.993-.818-5.83-1.602-.733-4.238 10.281-19.668 20.775-27.383 2.572-1.89 4.642-2.648 5.679-2.092 1.482.812 1.953 4.593 1.803 6.892-.004.061.031.113.032.173a2 2 0 00.125.669c.034.094.06.181.106.268.029.056.032.117.066.17.12.184.282.319.444.451.032.026.043.069.077.094.008.006.018.004.018.004.271.193.569.307.884.359.081.013.157.001.238.004.234.012.46-.012.69-.082.054-.015.111.001.164-.019.17-.066.354-.16.527-.231 1.116-.572 3.007.066 4.33.744-.246.763-.395 1.559-.324 2.423.087 1.079.423 2.152.946 3.182-2.073-.234-4.012 0-5.416 1.079-.501.384-.896.868-1.295 1.346-2.945.291-6.628 2.147-7.503 6.532a2.094 2.094 0 002.054 2.502c.975 0 1.849-.686 2.049-1.684.21-1.047.746-1.681 1.336-2.158-.018.764.064 1.521.29 2.234.409 1.294 1.515 3.224 4.327 4.303-.253.43-.471.889-.664 1.357-2.094.673-5.248 2.845-5.248 7.454a2.092 2.092 0 004.184 0c0-.814.202-1.405.468-1.894.067.302.116.614.224.896.506 1.324 2.029 3.808 6.295 3.808 1.406 0 3.105-.267 5.165-.937 4.993-1.619 8.532-1.788 11.954-1.956 4.092-.196 7.957-.387 13.387-2.904 7.823-3.634 17.514-2.402 22.591-1.341 2.751.567 5.443-.785 6.551-3.307.381-.86.63-1.613.893-2.378 2.367.284 2.857 2.584 2.921 3.092a2.093 2.093 0 002.076 1.864c.071 0 .145-.006.218-.011a2.095 2.095 0 001.866-2.3c-.226-2.186-1.846-6.108-6.182-6.789.055-1.484-.234-2.706-.961-3.606-.796-.981-2.378-2.01-5.479-1.373-3.209.664-4.685.796-5.351.736.1-.408.338-1.133.891-2.37 1.869-4.206 14.277-15.299 22.403-21.94 1.959-.441 4.444-.469 5.017.185.202.223.202.992-.256 2.207a2.087 2.087 0 00.673 2.392c.722.562 1.73.588 2.482.065.324-.228 7.914-5.618 7.761-12.182-.079-3.318-2.013-6.2-5.751-8.565-3.168-1.999-4.988-4.314-5.412-6.876-.444-2.678.698-5.055 1.461-6.321a43.6 43.6 0 019 5.77c17.668 14.609 32.702 16.935 40.823 16.897 1.704 3.764 6.706 16.605 2.436 29.795-2.272-.403-6.734-1.853-9.796-6.957-2.977-4.958-6.549-6.2-9.025-6.364-3.849-.3-7.933 1.89-11.142 5.9a2.092 2.092 0 00.215 2.844 2.09 2.09 0 002.852-.011c.534-.507 1.528-1.122 1.956-.79l.434 1.209c.232.67.469 1.346.751 1.999-1.664.245-3.266.926-4.516 2.343-.824.934-1.343 2.012-1.717 3.122-3.832.685-5.92 3.592-6.008 3.726a2.078 2.078 0 00.569 2.877c.356.245.766.365 1.169.365.668 0 1.324-.316 1.732-.905.04-.054.813-1.102 2.196-1.689.173.788.456 1.55.885 2.244a5.598 5.598 0 002.91 2.358 15.069 15.069 0 00-.377 1.975c-.044.015-.09.008-.135.025-5.01 2.109-3.988 8.337-2.749 11.332a2.088 2.088 0 002.727 1.133 2.096 2.096 0 001.141-2.73c-.015-.04-1.191-3.115-.435-4.866.02.046.024.097.045.143.866 1.956 2.536 3.35 4.828 4.038 1.128.338 2.207.479 3.239.479 3.424 0 6.332-1.586 8.777-2.925 1.905-1.041 3.705-1.994 5.124-1.896 1.033.098 2.215.284 3.511.484 4.893.762 11.599 1.798 18.254-.343 1.239-.397 2.361-.785 3.389-1.139 5.407-1.853 7.428-2.545 10.733-.664 4.002 2.289 9.161.751 11.82-2.054a6.42 6.42 0 001.571-2.852c1.365.543 2.471 1.13 2.648 1.458a2.092 2.092 0 103.94 1.406c.392-1.095.297-2.222-.269-3.258-1.383-2.518-5.431-3.87-7.458-4.407-3.348-4.551-8.452-5.966-16.885-4.632a1.026 1.026 0 01-.885-.25c-3.079-2.489-3.756-15.424-4.16-23.145-.324-6.178-.545-9.763-1.493-11.485.484-.398 3.133-.447 4.783.757.796.588.875 1.117.684 1.716l-.093.25a2.092 2.092 0 001.185 2.691c1.065.408 2.272-.093 2.705-1.155.063-.147.117-.3.167-.447.747-2.12 3.802-11.72.202-17.8-1.618-2.73-4.253-4.359-7.835-4.844-9.125-1.23-16.081-7.061-20.757-17.222 7.085-2.489 27.944-11.944 31.844-38.04 2.591-17.347-3.626-27.062-9.3-32.156-.271-.244-.565-.429-.842-.659.164-.213.373-.388.447-.664.027-.094 1.461-5.371 3.971-11.455zm-14.772-3.729c11.924-15.517 26.547-22.425 34.455-25.215-5.187 9.344-10.129 26.822-12.705 36.803l-4.353-13.294c-.017-.052-.071-.074-.09-.124 1.276-2.518 2.711-4.956 4.293-7.015a2.09 2.09 0 00-.384-2.931 2.089 2.089 0 00-2.934.382c-1.975 2.568-3.715 5.613-5.217 8.69l-13.065 2.704zm-247.691-12.444c-6.445-6.827-8.124-15.686-8.508-21.068 5.514 5.11 11.076 8.936 14.828 11.267l-3.334.819c-.637-.511-1.262-.983-1.928-1.581-.853-.768-2.174-.692-2.953.158a2.093 2.093 0 00.158 2.958c.747.671 1.457 1.187 2.179 1.762l-.442 5.685zm157.812 69.014c-3.91-10.434-15.711-35.414-44.621-56.314.023-.061.038-.141.061-.201.371-.958.855-1.783 1.27-2.689 43.77 11.186 70.413 29.383 81.056 37.855-21.744-1.603-33.246 13.374-37.766 21.349zm47.385-41.369c-4.621 5.94-5.428 13.175-5.337 18.06-9.598-8.035-36.577-27.593-83.499-39.727.607-1.053 1.334-1.969 2.013-2.94.151.035.297.089.456.099 57.73-2.481 89.939 9.916 101.735 15.758-6.618 1.342-11.833 4.205-15.368 8.75zm-46.008-42.17c12.76 0 42.219-1.53 67.627-14.122-10.906 16.427-6.986 34.866-3.904 43.976-11.701-5.993-43.389-18.441-101.186-16.448 8.338-8.93 20.665-13.406 37.463-13.406zm-49.07 44.578c.521-4.729 1.041-9.227 1.862-13.016 27.784 20.596 38.974 45.492 42.284 54.519-6.824-1.53-13.005-1.034-18.333 1.713-4.36 2.251-7.402 5.558-9.487 8.588-.929-10.528-4.405-29.314-17.1-44.106-.041-.047-.098-.068-.142-.111.34-2.544.641-5.094.916-7.587zm-2.643 63.871c-9.722-2.266-13.806-12.063-13.994-12.525a2.097 2.097 0 00-1.943-1.313c-.51 0-1.007.191-1.397.54-6.985 6.282-15.531 7.938-19.797 8.374 3.372-10.591 12.855-16.094 25.612-23.499l.588-.343c3.18-1.846 5.474-4.648 7.268-7.944-.001 5.265.28 11.13 1.247 16.067a2.092 2.092 0 002.457 1.65 2.097 2.097 0 001.651-2.457c-2.093-10.677-.768-26.737-.575-28.9 12.168 16.426 13.779 37.153 13.961 43.913-7.138-1.235-11.115-6.782-11.157-6.839a2.08 2.08 0 00-1.714-.905h-.008c-.681 0-1.319.327-1.71.883-3.093 4.379-1.886 9.778-.489 13.298zm-7.41-57.241c-1.621-1.994-3.801-4.189-5.961-5.153.488-1.949.946-4.023 1.362-6.202 2.239 1.839 5.627 5.626 4.599 11.355zm-9.424 7.479c.627.092 4.439.829 6.023 5.724a9.148 9.148 0 00-5.969.99c-.337-1.962-.403-4.2-.054-6.714zm7.471 10.729c.605.466 1.408.523 2.097.225-1.214 2.253-2.739 4.116-4.616 5.516-1.026-1.035-2.534-2.887-3.671-5.569 3.101-2.258 5.88-.396 6.19-.172zm7.211-30.842a2.08 2.08 0 001.485-1.498 300.472 300.472 0 00-.851 7.044c-.876 7.955-1.832 16.57-4.543 23.11-.769-8.792-6.507-12.028-9.867-12.612.179-.607.341-1.205.569-1.838.297-.826.59-1.715.877-2.653 1.912 1.206 4.554 4.471 6.035 6.744.39.599 1.048.953 1.754.953.049 0 .098 0 .147-.006a2.095 2.095 0 001.749-1.204c5.007-10.77-1.734-18.45-6.425-21.347.118-.767.236-1.533.343-2.312 2.72 1.279 5.622 3.91 6.668 5.026a2.089 2.089 0 002.059.593zm-3.473-13.343c1.193 1.94 1.695 4.326 1.504 7.126-1.699-1.41-3.942-2.934-6.24-3.746.247-2.378.433-4.765.54-7.121 1.27.634 2.982 1.771 4.196 3.741zm1.511-14.215c-1.718-.75-3.784-1.259-5.905-1.027-.213-2.327-.553-4.493-1.027-6.453 2.2 1.034 5.36 3.195 6.932 7.48zm-13.5-31.098l-.403 5.238c-3.246.723-6.817 1.266-10.6 1.354-.567-.196-1.357-.461-2.276-.757 5.386-1.992 10.223-4.281 13.279-5.835zm-61.138 33.817c-.43-.36-.809-.74-1.139-1.139.412-.163.82-.327 1.22-.484 2.904-1.166 5.644-2.266 8.281-2.413 5.926-.365 7.655 1.977 8.042 2.697.395.736.332 1.384.098 1.705-.986 1.341-2.567 2.146-4.7 2.408-4.872.555-10.672-1.831-11.802-2.774zm14.699 13.273a2.053 2.053 0 00-2.155-.169c-7.178 3.585-14.321 3.133-18.857 2.228 2.724-1.857 5.917-4.969 8.052-9.884 2.446.887 5.485 1.602 8.491 1.602.697 0 1.393-.044 2.076-.126 3.274-.397 5.889-1.809 7.565-4.075 1.261-1.716 1.343-4.086.213-6.178-.877-1.623-3.795-5.366-11.951-4.882-3.326.18-6.519 1.46-9.608 2.702-.495.196-.992.397-1.485.588-1.122-4.952 1.384-10.412 1.419-10.483a2.106 2.106 0 00-.152-2.055c-1.163-1.749-3.479-2.838-5.914-3.52 11.278-2.359 25.757 1.536 25.934 1.586.774.202 1.586-.022 2.114-.621a2.09 2.09 0 00.386-2.168c-.842-2.12-.879-3.596-.115-4.392 3.253-3.389 18.566-.039 28.391 3.416.234.082.495.06.727.12 9.682-.152 18.143-2.92 23.153-4.991-5.655 12.28-15.274 14.007-15.726 14.084a2.09 2.09 0 00-1.738 2.381c.174 1.144 1.245 1.945 2.387 1.754.221-.035 2.265-.391 5.05-1.73 4.143 11.462.898 36.942-3.502 49.163-4.924 13.681.538 22.369 3.882 26.098-13.214 7.688-23.544 14.22-26.436 27.64-.004.012-.014.02-.018.032-.07.218-.777 2.57-1.593 6.764-5.121-3.403-14.664-17.372-9.527-33.745 1.4-4.468 3.046-8.838 4.637-13.065 4.729-12.552 9.182-24.418 5.866-35.531 1.294-.928 2.506-1.969 3.554-3.19 3.648-4.249 4.922-9.682 3.789-16.149-.196-1.144-1.278-1.918-2.422-1.699a2.086 2.086 0 00-1.697 2.419c.918 5.247-.011 9.398-2.841 12.7-5.47 6.386-16.593 7.704-21.455 7.971l.36-2.615a2.091 2.091 0 00-.854-1.98zm18.781 95.394c-3.603 4.405-10.916 10.263-13.756 12.477-2.622-2.5-5.248-5.468-7.562-8.945 10.705-1.815 17.13-8.46 19.539-11.54.802.682 1.566 1.23 2.24 1.59.195.105.405.116.611.152a146.75 146.75 0 00-.801 6.045c-.089.076-.194.127-.271.221zm-25.462-38.132c1.685.474 6.055 1.59 10.087 1.59.738 0 1.399-.136 2.092-.222a35.439 35.439 0 00.339 7.414c-3.336 2.172-11.11 2.355-15.308 2.175.561-3.663 1.524-7.324 2.79-10.957zm5.237-12.486c1.542.369 4.565.983 7.618.983.792 0 1.58-.047 2.347-.147-.492 1.419-.995 2.826-1.451 4.276-.481 1.532-.812 3.034-1.079 4.521-.015.003-.031-.002-.046.001-3.105.767-8.434-.341-11.155-1.082a137.844 137.844 0 013.766-8.552zm4.781-9.51c.541-1.05 1.074-2.09 1.604-3.127 1.821.439 5.411 1.261 7.925 1.574-.359.96-.713 1.913-1.081 2.894-.556 1.475-1.114 2.994-1.673 4.504a2.02 2.02 0 00-.79.083c-2.479.766-6.353.243-8.862-.279.96-1.912 1.926-3.802 2.877-5.649zm6.637-13.652c1.506.57 3.917 1.329 6.351 1.329.076 0 .146-.033.223-.034-.63 2.188-1.387 4.444-2.206 6.743-1.165-.013-4.582-.692-7.467-1.361a137.583 137.583 0 003.099-6.677zm2.891-7.996c1.183.083 2.279.138 3.204.138.913 0 1.64-.06 2.301-.141a41.534 41.534 0 01-.737 4.959c-1.588.47-4.183-.139-6.105-.85.513-1.389.96-2.758 1.337-4.106zm-19.651 58.844c4.007 0 9.612-.456 13.483-2.255a38.428 38.428 0 002.008 5.582c-7.188 4.994-15.218 6.143-18.059 6.379a44.88 44.88 0 01-.646-5.385c-.084-1.46-.028-2.927.057-4.395a67.43 67.43 0 003.157.074zm17.437 7.058c1.08 1.835 2.23 3.477 3.385 4.852-1.779 2.358-8.051 9.567-18.857 10.738a44.103 44.103 0 01-3.562-8.82c3.646-.357 11.604-1.768 19.034-6.77zm7.136-74.734a24.32 24.32 0 01.668 4.617c-.531.17-2.516.186-4.659.074.172-1.074.27-2.129.314-3.169a33.185 33.185 0 003.677-1.522zm-28.174 116.373a2.117 2.117 0 00-1.248 1.063c-.172.343-3.715 7.23-13.065 5.884 3.307-2.179 6.336-5.846 6.336-11.453 0-.31-.068-.616-.202-.894-.137-.289-13.746-29.318-15.613-55.284a2.092 2.092 0 00-2.076-1.94h-.011a2.09 2.09 0 00-2.084 1.918c-.542 6.532-2.705 13.942-4.947 14.127-.825.087-2.756-.534-3.481-1.727-.54-.888-.316-2.125.659-3.672 3.806-6.048 6.097-11.043 4.909-15.8-.994-3.982-5.644-14.454-11.994-13.169l-1.656.376c-5.397 1.28-6.786 1.007-7.456-1.433-.167-.61-.076-1.106.289-1.613.915-1.274 3.258-2.229 5.833-2.376 4.83-.262 6.756 1.798 6.808 1.858a2.099 2.099 0 002.602.518 2.092 2.092 0 001.018-2.446c-.082-.267-2.059-6.554-10.47-7.578-1.888-.228-2.343-1.444-2.394-2.413-.082-1.608.935-3.514 2.778-3.934 3.307-.736 9.478 2.07 12.152 12.766.28 1.128 1.441 1.777 2.536 1.525a2.095 2.095 0 001.523-2.539c-1.369-5.474-3.587-9.227-6.067-11.756.042-.077.108-.135.142-.22 1.003-2.55 3.068-3.079 4.561-2.778 1.425.3 2.918 1.515 2.825 4.026-.259 6.931 5.219 17.614 8.07 21.532 2.157 2.964 2.7 6.173 3.448 10.618.335 1.983.703 4.151 1.259 6.577 2.774 12.073 10.066 19.388 11.78 20.978 2.264 14.521 10.444 24.662 17.944 31.115-3.23 2.293-9.652 6.567-14.708 8.144zm18.589-10.458c2.415-1.901 6.671-5.378 10.238-8.855-.3 4.075-.52 8.552-.54 13.635-.002.594-.052 1.161-.07 1.746-2.067-1.11-5.651-3.241-9.628-6.526zm129.23-13.944l3.644-10.791a88.352 88.352 0 0110.077 4.297l-6.959 9.715a42.959 42.959 0 00-6.762-3.221zm-4.001-1.238a38.936 38.936 0 00-5.934-1.065l1.354-11.805c.487.092.985.143 1.468.246 2.338.504 4.58 1.116 6.775 1.778l-3.663 10.846zm-10.126-1.242a42.156 42.156 0 00-6.257.541l-1.15-13.22c2.957-.04 5.907.085 8.813.412l-1.406 12.267zm-11.591-12.506l1.207 13.888c-2.159.548-4.339 1.286-6.532 2.159l-3.692-15.064c2.961-.455 5.974-.794 9.017-.983zm-6.438 40.192c-1.678-.591-3.251-1.393-4.738-2.282l7.479-14.196c.175.2.365.371.511.615.744 1.253.855 2.904.332 4.909-.695 2.666-1.943 6.591-3.584 10.954zm-9.271-13.913a67.409 67.409 0 018.474-4.822l-7.427 14.097a45.774 45.774 0 01-6.326-5.962 124.485 124.485 0 005.279-3.313zm2.558-24.592l3.938 16.072a70.336 70.336 0 00-6.089 3.325l-6.059-17.577c2.618-.67 5.378-1.281 8.21-1.82zm-12.256 2.914l6.386 18.524c.029.083.11.12.148.196a119.616 119.616 0 01-7.554 4.536l-6.186-21a160.43 160.43 0 017.206-2.256zm-11.162 3.647l6.359 21.589c.004.014.021.022.025.036a137.399 137.399 0 01-7.891 3.741l-6.918-21.593c.088-.15.185-.344.271-.484 1.148-.517 4.046-1.777 8.154-3.289zm-11.087 9.163l5.706 17.809c-4.355 1.728-7.757 2.829-9.45 3.335-1.088-6.923 1.186-15.117 3.744-21.144zm-1.233 38.273c1.417-3.405.998-7.601-1.28-12.809-.041-.093-.082-.185-.12-.284 3.511-1.026 13.78-4.377 25.596-10.9 2.111 2.556 8.356 9.385 16.728 12.383-4.754 11.627-11.851 24.661-19.001 25.818-5.993.948-9.238-2.626-12.371-6.108-2.732-3.029-5.835-6.462-10.238-4.141-.343.181-.601.413-.9.62a16.036 16.036 0 00-1.366-.698c1.201-1.049 2.282-2.268 2.952-3.881zm70.836-28.353c.614 3.808 3.073 7.1 7.315 9.785 2.476 1.564 3.754 3.285 3.8 5.116.049 1.956-1.228 3.993-2.675 5.644a4.294 4.294 0 00-.69-1.018c-2.669-2.964-8.474-1.629-9.613-1.33a2.083 2.083 0 00-.79.397c-2.144 1.743-21.044 17.244-23.954 23.787-1.09 2.452-2.029 4.996-.558 6.822 1.534 1.907 4.468 1.695 9.698.61a4.99 4.99 0 01.992-.12c.25 0 .373 0 .373.028.177.3.295 1.983-1.4 5.807-.308.692-1.087 1.057-1.869.899-5.582-1.155-16.288-2.485-25.207 1.645-4.689 2.174-7.998 2.332-11.828 2.517-3.526.169-7.519.365-13.043 2.157-1.272.408-5.492 1.612-6.263-.392-.646-1.685.611-4.633 1.944-5.498 8.234.32 11.59.323 11.59.323a2.092 2.092 0 000-4.184c-.035 0-3.506 0-12.12-.349-1.487-.06-4.067-.419-4.622-2.174-.414-1.302.316-3.181 1.629-4.184 1.139-.883 4.977.087 8.728 1.705 1.191.751 2.43 1.356 3.631 1.754 1.018.365 2.144-.152 2.577-1.144a2.085 2.085 0 00-.905-2.669 44.426 44.426 0 00-3.424-1.705c-2.435-1.651-4.364-4.015-4.514-5.863-.054-.664.079-1.536 1.626-2.348 1.343-.703 2.305.06 5.178 3.242 3.337 3.699 7.894 8.723 16.149 7.432 16.073-2.604 27.386-43.319 27.492-43.729.814-3.122.553-5.846-.782-8.096-.771-1.301-1.763-2.146-2.71-2.792 7.892-2.84 16.789-3.811 25.923-.647-1.044 1.918-2.249 5.03-1.678 8.572zm14.059-6.861l7.153-9.985a93.229 93.229 0 017.352 4.587l-9.176 9.482c-.713-.555-1.405-1.033-2.127-1.631a53.131 53.131 0 00-3.202-2.453zm17.933 12.239l9.19-7.321a103.45 103.45 0 014.81 4.957l-7.431 5.281a62.482 62.482 0 01-6.569-2.917zm-3.994-2.165a79.552 79.552 0 01-5.267-3.427l9.265-9.574a100.35 100.35 0 016.082 4.969l-10.08 8.032zm15.542 6.677l5.197-3.694a90.037 90.037 0 014.076 5.278c-2.586-.152-5.737-.636-9.273-1.584zm43.426-70.993c-3.697 24.751-23.531 32.956-29.437 34.87-4.964-11.168-13.195-20.563-18.673-23.402a2.106 2.106 0 00-2.819.894 2.096 2.096 0 00.896 2.823c4.173 2.163 12.623 10.962 17.503 22.986 5.266 12.972 13.686 20.328 25.022 21.864 2.28.305 3.847 1.231 4.794 2.823 1.389 2.343 1.319 5.863.809 8.957-2.669-1.695-7.015-2.239-9.382-.425-1.476 1.128-1.899 2.921-1.133 4.794.518 1.269.757 5.824.989 10.232.668 12.755 1.515 22.785 5.705 26.179 1.209.981 2.667 1.384 4.173 1.128 8.27-1.308 11.289.447 13.259 3.492.12.185.484.746-.495 1.788-1.487 1.569-4.607 2.49-6.707 1.302-4.95-2.834-8.423-1.64-14.168.338-1.005.343-2.105.719-3.318 1.117-5.705 1.842-11.588.926-16.323.185-1.389-.213-2.654-.408-3.756-.512-2.697-.256-5.154 1.085-7.532 2.387-2.879 1.575-5.598 3.084-8.802 2.109-1.487-.447-1.97-1.193-2.207-1.721-.703-1.573-.183-3.854.318-5.305 1.794-.316 3.407-.257 5.183-.073 2.561.256 5.475.562 9.148-.79a2.09 2.09 0 001.239-2.686c-.401-1.085-1.597-1.623-2.689-1.237-2.76 1.007-4.857.807-7.268.551-2.198-.224-4.678-.474-7.658.316-.455.12-1.141.191-1.667-.66-.692-1.111-.662-3.166.755-4.767 1.089-1.237 3.201-1.198 5.151-.785 1.092.61 2.482 1.111 4.277 1.454 1.024.218 2.04-.398 2.376-1.384a2.095 2.095 0 00-1.046-2.545c-.158-.076-1.803-.883-3.997-1.438-1.155-.839-1.567-2.022-2.185-3.791l-.466-1.302c-.278-.742-.634-1.302-1.024-1.727 1.005-.436 1.988-.632 2.945-.572 2.152.147 4.075 1.608 5.716 4.348 5.429 9.044 14.432 9.148 14.814 9.148.87 0 1.649-.54 1.956-1.352 6.766-17.881-2.28-35.169-2.669-35.898-.007-.011-.018-.018-.024-.029-.006-.01-.003-.021-.009-.031-.803-1.389-20.113-34.03-60.996-42.84-29.451-6.369-65.039 10.249-66.54 10.962a2.067 2.067 0 00-.864.751c-4.234 6.543-11.292 23.907-6.089 35.8 1.773 4.054 2.196 7.257 1.254 9.529-.632 1.521-1.864 2.741-3.958 3.869-.28-2.615-1.183-6.02-3.874-7.502-2.632-1.438-6.054-.638-10.177 2.392-9.761 7.176-23.687 24.125-22.417 31.464.31 1.803 1.441 3.084 3.179 3.607 1.681.501 3.751.931 5.931 1.378 4.309.888 9.393 1.929 11.648 3.797-6.086-.779-17.876-1.858-22.537.757-5.497 3.095-14.947 5.067-21.526 2.686-2.392-.997-7.747-1.786-10.861 2.43-1.161 1.575-2.983 2.005-4.16 1.608-1.367-.447-1.654-1.869-1.654-2.98 0-4.854 4.672-5.23 6.102-5.23a2.092 2.092 0 000-4.184c-3.204 0-5.841 1.044-7.65 2.82-1.672-.874-2.753-1.907-3.145-3.099-.536-1.629.234-3.318.744-4.179.969-1.646 2.684-2.52 3.734-2.943 2.376 2.231 5.139 3.828 6.526 4.436a2.111 2.111 0 002.756-1.079 2.095 2.095 0 00-1.079-2.756c-2.801-1.226-7.925-5.007-8.167-8.178-.09-1.161.981-2.044 2.087-2.321.798-.202 2.808-.36 4.019 2.435 3.059 7.078 13.007 12.057 13.43 12.264a2.099 2.099 0 002.332-.323c.885-.807 21.722-20.05 21.843-51.53.072-19.03 2.718-30.901 3.701-34.677 3.698-.178 13.151-1.316 21.64-7.826 2.457 4.353 8.693 12.803 20.17 13.092h.052a2.1 2.1 0 001.82-1.063 2.089 2.089 0 00-.054-2.152c-.041-.065-3.255-5.208-2.522-9.643 2.637 2.545 7.439 5.987 14.283 6.232h.076c.362 0 .687-.118.986-.284.136-.075.256-.134.37-.241.268-.232.463-.529.587-.872.011-.032.044-.047.054-.081.028-.093 2.923-9.207 11.186-13.473 5.277-2.73 11.64-2.899 18.938-.495.18.058.361.056.541.065.041.003.072.039.113.039.032 0 .065-.011.097-.013.054-.002.105-.014.159-.021.093-.011.185-.011.278-.036.064-.017.11-.062.171-.084.138-.051.263-.113.387-.191.109-.068.21-.139.303-.225.099-.09.181-.19.262-.298.082-.109.151-.217.21-.341.028-.056.074-.097.096-.158.278-.761 4.606-12.06 15.396-18.728.039.007.069.031.109.034.258.028 26.04 2.882 40.309 9.85 4.351 2.125 9.66 3.176 14.914 3.176 5.933 0 11.793-1.341 16.105-3.982 4.707-2.882 7.239-7.023 7.322-11.959.171-10.123-6.059-17.914-12.008-20.098-3.732-1.367-7.326-.545-9.598 2.228-2.828 3.443-2.661 7.905.398 10.613 3.174 2.812 9.036 3.258 14.901-1.929a19.157 19.157 0 011.605 4.374c-6.616 4.573-12.788 6.097-17.827 4.398-4.787-1.613-7.641-5.759-8.719-9.099-.847-2.621-.371-5.879 1.302-8.93 2.354-4.294 6.642-7.524 11.763-8.858 5.34-1.4 14.098-.196 20.712 5.742 4.901 4.41 10.265 12.914 7.947 28.42zm-19.156-19.549c-4.11 3.869-7.894 3.956-9.761 2.3-1.373-1.215-1.348-3.111.063-4.822.836-1.018 1.871-1.362 2.877-1.362.725 0 1.436.18 2.046.403 1.656.61 3.32 1.82 4.775 3.481z"/></g></svg>