<svg width="28" height="10" viewBox="0 0 28 10" fill="none" xmlns="http://www.w3.org/2000/svg">
<path d="M2.44057 9.52372L3.05988 7.55108H6.30327L6.92259 9.52372H9.36315L6.19317 0.128451H3.16998L0 9.52372H2.44057ZM3.60121 5.82617L4.64258 2.49562H4.71598L5.76194 5.82617H3.60121Z" fill="white"/>
<path d="M18.4614 3.5324C18.232 1.28451 16.5575 0 14.2867 0C11.7819 0 9.83223 1.72032 9.83223 4.82608C9.83223 7.91808 11.7361 9.65217 14.2867 9.65217C16.8649 9.65217 18.2916 7.89973 18.4614 6.23446L16.1676 6.22069C16.007 7.12444 15.3281 7.66118 14.3326 7.66118C12.993 7.66118 12.1489 6.69321 12.1489 4.82608C12.1489 3.03236 12.9747 1.99099 14.3464 1.99099C15.3786 1.99099 16.0529 2.59196 16.1676 3.5324H18.4614Z" fill="white"/>
<path d="M19.7608 9.52372H22.0316V5.74818H25.7338V9.52372H28V0.128451H25.7338V3.8994H22.0316V0.128451H19.7608V9.52372Z" fill="white"/>
</svg>
