<svg width="35" height="13" viewBox="0 0 35 13" fill="none" xmlns="http://www.w3.org/2000/svg">
<path d="M7.05176 12.9963V7.37158H12.7973L13.4142 8.20488L14.0518 7.37158H34.9098V12.6084C34.9098 12.6084 34.3658 12.9891 33.7351 12.9963H22.185L21.4885 12.1092V12.9963H19.2117V11.4842C19.2117 11.4842 18.8998 11.6961 18.2276 11.6961H17.4513V12.9999H14.0033L13.3864 12.1487L12.7627 12.9999H7.05176V12.9963Z" fill="white"/>
<path d="M0.342773 3.13327L1.63882 0.0012207H3.88091L4.61557 1.75402V0.0012207H7.40172L7.83836 1.26912L8.26113 0.0012207H20.7676V0.636969C20.7676 0.636969 21.4261 0.0012207 22.5038 0.0012207L26.5617 0.0155879L27.286 1.74683V0.0012207H29.6182L30.2593 0.996148V0.0012207H32.6122V5.62597H30.2593L29.6459 4.62745V5.62597H26.2221L25.879 4.7388H24.9573L24.6177 5.62597H22.2959C21.3671 5.62597 20.7711 5.001 20.7711 5.001V5.62597H17.2641L16.5676 4.7388V5.62597H3.54824L3.20516 4.7388H2.28684L1.94377 5.62597H0.342773V3.13327Z" fill="white"/>
<path d="M2.09615 0.694336L0.349609 4.90751H1.48625L1.80853 4.06344H3.68329L4.00557 4.90751H5.16993L3.42339 0.694336H2.09615ZM2.74418 1.6749L3.31596 3.14753H2.17239L2.74418 1.6749Z" fill="#016FD0"/>
<path d="M5.2876 4.90751V0.694336L6.90592 0.70152L7.84504 3.41692L8.76336 0.694336H10.3678V4.90751H9.35247V1.80061L8.27474 4.90392H7.38414L6.30295 1.80061V4.90392H5.2876V4.90751Z" fill="#016FD0"/>
<path d="M11.0649 4.90751V0.694336H14.3778V1.63539H12.0907V2.35734H14.3259V3.24451H12.0907V3.9916H14.3778V4.90751H11.0649Z" fill="#016FD0"/>
<path d="M14.9668 0.694336V4.90751H15.9821V3.40973H16.4084L17.6282 4.90751H18.8688L17.5312 3.35586C18.0787 3.30916 18.647 2.82068 18.647 2.06281C18.647 1.17564 17.9747 0.697928 17.2262 0.697928L14.9668 0.694336ZM15.9821 1.63539H17.143C17.4203 1.63539 17.6247 1.86167 17.6247 2.07718C17.6247 2.35734 17.3614 2.51897 17.1569 2.51897H15.9821V1.63539Z" fill="#016FD0"/>
<path d="M20.0991 4.90751H19.063V0.694336H20.0991V4.90751Z" fill="#016FD0"/>
<path d="M22.5591 4.90758H22.3339C21.2492 4.90758 20.5942 4.024 20.5942 2.82075C20.5942 1.58876 21.2457 0.697998 22.6111 0.697998H23.7339V1.69652H22.5695C22.015 1.69652 21.62 2.14549 21.62 2.83153C21.62 3.64686 22.0705 3.98808 22.715 3.98808H22.9819L22.5591 4.90758Z" fill="#016FD0"/>
<path d="M24.77 0.694336L23.0234 4.90751H24.1601L24.4824 4.06344H26.3571L26.6794 4.90751H27.8438L26.0937 0.694336H24.77ZM25.4145 1.6749L25.9863 3.14753H24.8428L25.4145 1.6749Z" fill="#016FD0"/>
<path d="M27.9585 4.90751V0.694336H29.2511L30.9006 3.34149V0.694336H31.9159V4.90751H30.6649L28.9738 2.19211V4.90751H27.9585Z" fill="#016FD0"/>
<path d="M7.74805 12.2779V8.0647H11.0644V9.00575H8.77726V9.7277H11.0124V10.6149H8.77726V11.362H11.0644V12.2779H7.74805Z" fill="#016FD0"/>
<path d="M23.9907 12.2779V8.0647H27.3071V9.00575H25.0199V9.7277H27.2447V10.6149H25.0199V11.362H27.3071V12.2779H23.9907Z" fill="#016FD0"/>
<path d="M11.1929 12.2779L12.8078 10.1982L11.1548 8.0647H12.4335L13.4177 9.38289L14.4053 8.0647H15.6355L14.0033 10.1695L15.6216 12.2743H14.3429L13.3865 10.9776L12.4543 12.2743L11.1929 12.2779Z" fill="#016FD0"/>
<path d="M15.7427 8.0647V12.2779H16.7858V10.9489H17.8566C18.761 10.9489 19.4472 10.4497 19.4472 9.48346C19.4472 8.68249 18.91 8.06829 17.9882 8.06829H15.7427V8.0647ZM16.7858 9.01652H17.912C18.2031 9.01652 18.4145 9.2033 18.4145 9.50142C18.4145 9.78158 18.2066 9.98631 17.9085 9.98631H16.7858V9.01652Z" fill="#016FD0"/>
<path d="M19.8843 8.0647V12.2779H20.8996V10.7801H21.3259L22.5457 12.2779H23.7863L22.4521 10.7262C22.9996 10.6795 23.568 10.191 23.568 9.43317C23.568 8.546 22.8957 8.06829 22.1472 8.06829L19.8843 8.0647ZM20.9031 9.00575H22.064C22.3412 9.00575 22.5457 9.23203 22.5457 9.44754C22.5457 9.7277 22.2823 9.88933 22.0779 9.88933H20.9031V9.00575Z" fill="#016FD0"/>
<path d="M27.7786 12.2782V11.3623H29.8128C30.1143 11.3623 30.2425 11.1935 30.2425 11.0103C30.2425 10.8343 30.1143 10.6547 29.8128 10.6547H28.8945C28.0974 10.6547 27.6504 10.1518 27.6504 9.39398C27.6504 8.71872 28.0593 8.0686 29.2445 8.0686H31.2232L30.7969 9.01684H29.0851C28.7593 9.01684 28.6588 9.19643 28.6588 9.36524C28.6588 9.54124 28.7836 9.73161 29.0331 9.73161H29.9964C30.887 9.73161 31.2717 10.256 31.2717 10.942C31.2717 11.6784 30.842 12.2818 29.9479 12.2818H27.7786V12.2782Z" fill="#016FD0"/>
<path d="M31.5061 12.2782V11.3623H33.5403C33.8418 11.3623 33.97 11.1935 33.97 11.0103C33.97 10.8343 33.8418 10.6547 33.5403 10.6547H32.622C31.825 10.6547 31.3779 10.1518 31.3779 9.39398C31.3779 8.71872 31.7868 8.0686 32.972 8.0686H34.9507L34.5245 9.01684H32.8126C32.4868 9.01684 32.3864 9.19643 32.3864 9.36524C32.3864 9.54124 32.5111 9.73161 32.7606 9.73161H33.724C34.6146 9.73161 34.9992 10.256 34.9992 10.942C34.9992 11.6784 34.5695 12.2818 33.6755 12.2818H31.5061V12.2782Z" fill="#016FD0"/>
</svg>
