<svg width="8" height="14" viewBox="0 0 8 14" fill="none" xmlns="http://www.w3.org/2000/svg">
<path d="M7.69997 12.2999C7.79473 12.3902 7.87016 12.4988 7.9217 12.6191C7.97325 12.7394 7.99982 12.869 7.99982 12.9999C7.99982 13.1307 7.97325 13.2603 7.9217 13.3806C7.87016 13.5009 7.79473 13.6095 7.69997 13.6999C7.60966 13.7946 7.50106 13.87 7.38073 13.9216C7.26041 13.9731 7.13087 13.9997 6.99997 13.9997C6.86907 13.9997 6.73954 13.9731 6.61921 13.9216C6.49889 13.87 6.39028 13.7946 6.29997 13.6999L0.299972 7.69985C0.205216 7.60954 0.129782 7.50093 0.0782399 7.38061C0.0266981 7.26029 0.00012207 7.13075 0.00012207 6.99985C0.00012207 6.86895 0.0266981 6.73942 0.0782399 6.61909C0.129782 6.49877 0.205216 6.39016 0.299972 6.29985L6.29997 0.29985C6.39028 0.205094 6.49889 0.12966 6.61921 0.0781178C6.73954 0.0265761 6.86907 0 6.99997 0C7.13087 0 7.26041 0.0265761 7.38073 0.0781178C7.50106 0.12966 7.60966 0.205094 7.69997 0.29985C7.79473 0.390159 7.87016 0.498767 7.9217 0.619091C7.97325 0.739415 7.99982 0.868951 7.99982 0.99985C7.99982 1.13075 7.97325 1.26028 7.9217 1.38061C7.87016 1.50093 7.79473 1.60954 7.69997 1.69985L2.39997 6.99985L7.69997 12.2999Z" fill="white" fill-opacity="0.5"/>
</svg>
