<svg viewBox="0 0 10 10" fill="none" xmlns="http://www.w3.org/2000/svg">
<path fill-rule="evenodd" clip-rule="evenodd" d="M8.86365 1.13634C9.15655 1.42923 9.15655 1.90411 8.86365 2.197L2.19699 8.86367C1.90409 9.15656 1.42922 9.15656 1.13633 8.86367C0.843433 8.57078 0.843433 8.0959 1.13633 7.80301L7.80299 1.13634C8.09589 0.843448 8.57076 0.843448 8.86365 1.13634Z" fill="#624DE3"/>
<path fill-rule="evenodd" clip-rule="evenodd" d="M0.916656 1.66667C0.916656 1.25246 1.25244 0.916672 1.66666 0.916672H8.33332C8.74754 0.916672 9.08332 1.25246 9.08332 1.66667V8.33334C9.08332 8.74755 8.74754 9.08334 8.33332 9.08334C7.91911 9.08334 7.58332 8.74755 7.58332 8.33334V2.41667H1.66666C1.25244 2.41667 0.916656 2.08089 0.916656 1.66667Z" fill="#624DE3"/>
</svg>
