<svg width="4" height="8" viewBox="0 0 4 8" 
  xmlns="http://www.w3.org/2000/svg">
  <path d="M3.85007 4.39985L0.849957 7.82837C0.805957 7.88421 0.75187 7.92845 0.691437 7.95805C0.631004 7.98765 0.565667 8.00189 0.499944 7.9998C0.43422 8.00189 0.368883 7.98765 0.30845 7.95805C0.248017 7.92845 0.193931 7.88421 0.149931 7.82837C0.102551 7.77677 0.0648322 7.71471 0.0390604 7.64595C0.0132885 7.5772 0 7.50318 0 7.42838C0 7.35358 0.0132885 7.27956 0.0390604 7.2108C0.0648322 7.14205 0.102551 7.07999 0.149931 7.02838L2.80003 3.99986L0.149931 0.971329C0.102551 0.919724 0.0648322 0.857664 0.0390604 0.788908C0.0132885 0.720152 0 0.646133 0 0.571335C0 0.496536 0.0132885 0.422517 0.0390604 0.353761C0.0648322 0.285005 0.102551 0.222945 0.149931 0.17134C0.195087 0.117195 0.249393 0.0740901 0.309557 0.0446381C0.369721 0.0151861 0.434492 0 0.499944 0C0.565396 0 0.630166 0.0151861 0.69033 0.0446381C0.750495 0.0740901 0.804801 0.117195 0.849957 0.17134L3.85007 3.59986C3.89745 3.65147 3.93517 3.71353 3.96094 3.78228C3.98671 3.85104 4 3.92506 4 3.99986C4 4.07466 3.98671 4.14867 3.96094 4.21743C3.93517 4.28619 3.89745 4.34825 3.85007 4.39985Z" />
</svg>
