<svg width="26" height="28" viewBox="0 0 26 28" fill="none" xmlns="http://www.w3.org/2000/svg">
<path fill-rule="evenodd" clip-rule="evenodd" d="M11.6667 2.40516V1.16667C11.6667 0.522335 12.189 0 12.8333 0C13.4777 0 14 0.522335 14 1.16667V2.40811C14.2172 2.43579 14.4339 2.47118 14.6497 2.51432C16.4599 2.87634 18.122 3.76771 19.425 5.07543C20.2951 5.93827 20.9855 6.96511 21.4561 8.09653C21.9267 9.22794 22.1682 10.4415 22.1667 11.6668V17.4999C22.1667 18.1188 22.4125 18.7122 22.8501 19.1498C23.2877 19.5874 23.8812 19.8332 24.5 19.8332C24.8094 19.8332 25.1062 19.9561 25.325 20.1749C25.5437 20.3937 25.6667 20.6904 25.6667 20.9998C25.6667 21.3092 25.5437 21.6059 25.325 21.8247C25.1062 22.0435 24.8094 22.1664 24.5 22.1664H1.16667C0.857247 22.1664 0.560501 22.0435 0.341709 21.8247C0.122916 21.6059 0 21.3092 0 20.9998C0 20.6904 0.122916 20.3937 0.341709 20.1749C0.560501 19.9561 0.857247 19.8332 1.16667 19.8332C1.7855 19.8332 2.379 19.5874 2.81658 19.1498C3.25417 18.7122 3.5 18.1188 3.5 17.4999V11.6668C3.49758 9.82078 4.0434 8.01558 5.06824 6.4801C6.09308 4.94462 7.55079 3.74801 9.25657 3.04198C10.032 2.72103 10.8428 2.50803 11.6667 2.40516ZM11.0833 27.5329C11.6118 27.8484 12.2179 28.01 12.8333 27.9995C13.4475 27.9972 14.0505 27.8346 14.5825 27.5276C15.1146 27.2207 15.5572 26.7801 15.8667 26.2496C15.9768 26.076 16.0499 25.8816 16.0817 25.6785C16.1134 25.4753 16.1029 25.2679 16.051 25.069C16.0195 24.9672 15.9657 24.8737 15.8934 24.7954C15.8211 24.7171 15.7323 24.6559 15.6333 24.6163C15.451 24.5417 15.2563 24.5021 15.0593 24.4997C14.847 24.4946 14.637 24.5459 14.4509 24.6484C14.2648 24.7508 14.1093 24.9008 14 25.083C13.8947 25.2701 13.7426 25.4266 13.5584 25.537C13.3743 25.6475 13.1646 25.7081 12.95 25.7129C12.7441 25.7129 12.5422 25.656 12.3667 25.5485C12.2233 25.4657 12.1007 25.3511 12.0085 25.2136C11.975 25.1679 11.9388 25.1243 11.9 25.083C11.795 24.8956 11.6429 24.7388 11.4587 24.6281C11.2746 24.5174 11.0648 24.4567 10.85 24.4518C10.6441 24.4518 10.4422 24.5088 10.2667 24.6163C10.1264 24.6905 10.0026 24.7923 9.90266 24.9155C9.80274 25.0388 9.72875 25.1809 9.68516 25.3335C9.64157 25.486 9.62928 25.6458 9.64901 25.8033C9.66875 25.9607 9.7201 26.1125 9.8 26.2496C10.1029 26.7862 10.5467 27.23 11.0833 27.5329ZM7.88597 6.71967C9.19826 5.40744 10.9775 4.66927 12.8333 4.66711C14.6892 4.66927 16.4684 5.40744 17.7807 6.71967C19.093 8.03191 19.8312 9.81106 19.8333 11.6668V17.4999C19.8477 18.3119 20.0472 19.11 20.4167 19.8332H5.25C5.61974 19.1101 5.81927 18.312 5.83333 17.4999V11.6668C5.83549 9.81106 6.57369 8.03191 7.88597 6.71967Z" fill="#778CA3"/>
</svg>
