<svg xmlns="http://www.w3.org/2000/svg" viewBox="0 0 22 22">
  <path d="M19 22h-7.993A1 1 0 0012 21v-1h-2v-8H4v-1a1 1 0 00-1-1h7v2h2v8h6v-8h-6v-2h-2V6.066a1 1 0 102-.029V10h6.993A1 1 0 0018 11v1h2v9a1 1 0 01-1 1zm-8.064 0H3a1 1 0 01-1-1v-9H1a1 1 0 01-1-1V6a1 1 0 011-1h2.337A3.5 3.5 0 016.5 0c1.844 0 3.338 1.015 4.439 3.018l.061.113c-.3.572-.55 1.17-.743 1.786L10.231 5h-.577a8.3 8.3 0 00-.468-1.019A3.156 3.156 0 006.5 2a1.5 1.5 0 000 3H3.337A3.519 3.519 0 006.5 7H2v3h.995A1 1 0 002 11v1h2v8h6v1a1 1 0 00.936 1zM21 12h-1v-1a1 1 0 00-1-1h1V7h-4.492a3.52 3.52 0 003.155-2h-3.157a1.5 1.5 0 00-.006-3 3.158 3.158 0 00-2.686 1.982c-.18.328-.336.668-.469 1.018h-.577l-.026-.084A10.682 10.682 0 0011 3.131l.021-.04.04-.073c1.1-2 2.6-3.018 4.439-3.018a3.5 3.5 0 013.163 5H21a1 1 0 011 1v5a1 1 0 01-1 1zm-9.034-6.258A1 1 0 0011 5h.764a9.622 9.622 0 01.2.741l.002.001zm-1.928-.017a9.19 9.19 0 01.195-.724h.757a.99.99 0 00-.952.724z"/>
  <path d="M10 10v2h2v-2h-2zM10 6.066a1 1 0 002 0v-.029l-.036-.296A1 1 0 0011 5h.764a9.622 9.622 0 01.202.742l-.002-.001.036.296V7h3.508a3.52 3.52 0 003.155-2h-6.895l-.026-.084A10.682 10.682 0 0011 3.131c-.3.572-.55 1.17-.743 1.786L10.231 5H3.337A3.519 3.519 0 006.5 7H10v-.934l.038-.341a9.19 9.19 0 01.195-.724h.757a.99.99 0 00-.952.724L10 6.066zM11.007 22A1 1 0 0012 21v-1h-2v1a1 1 0 00.936 1h.071zM18.993 10A1 1 0 0018 11v1h2v-1a1 1 0 00-1-1h-.007zM4 12v-1a1 1 0 00-1-1h-.005A1 1 0 002 11v1h2z"/>
</svg>
