<svg viewBox="0 0 17 20" xmlns="http://www.w3.org/2000/svg">
<path fill-rule="evenodd" clip-rule="evenodd" d="M3 2H13.3636C13.9159 2 14.3636 2.44771 14.3636 3V17C14.3636 17.5523 13.9159 18 13.3636 18H3C2.44772 18 2 17.5523 2 17V3C2 2.44772 2.44771 2 3 2ZM0 3C0 1.34315 1.34315 0 3 0H13.3636C15.0205 0 16.3636 1.34315 16.3636 3V17C16.3636 18.6569 15.0205 20 13.3636 20H3C1.34314 20 0 18.6569 0 17V3ZM7.41152 5.28926C7.41152 4.89256 7.76652 4.54545 8.17223 4.54545C8.62865 4.54545 8.93294 4.89256 8.93294 5.28926V5.58678C9.94721 5.83471 10.7079 6.72727 10.7079 7.76859C10.7079 8.16529 10.3529 8.5124 9.94721 8.5124C9.5415 8.5124 9.1865 8.16529 9.1865 7.76859C9.1865 7.32231 8.88222 7.02479 8.4258 7.02479H7.91866C7.46224 7.02479 7.15795 7.32231 7.15795 7.76859V8.5124C7.15795 8.95868 7.46224 9.2562 7.91866 9.2562H8.4258C9.69364 9.2562 10.7079 10.2479 10.7079 11.4876V12.2314C10.7079 13.2727 9.94721 14.1653 8.93294 14.4132V14.7107C8.93294 15.1074 8.57794 15.4545 8.17223 15.4545C7.76652 15.4545 7.41152 15.1074 7.41152 14.7107V14.4132C6.39725 14.1653 5.63654 13.2727 5.63654 12.2314C5.63654 11.8347 5.99154 11.4876 6.39725 11.4876C6.80296 11.4876 7.15795 11.8347 7.15795 12.2314C7.15795 12.6777 7.46224 12.9752 7.91866 12.9752H8.4258C8.88222 12.9752 9.1865 12.6777 9.1865 12.2314V11.4876C9.1865 11.0413 8.88222 10.7438 8.4258 10.7438H7.91866C6.65082 10.7438 5.63654 9.75207 5.63654 8.5124V7.76859C5.63654 6.72727 6.39725 5.83471 7.41152 5.58678V5.28926Z" />
</svg>
