<svg xmlns="http://www.w3.org/2000/svg" viewBox="0 0 15 16">
  <path d="M10.91 16H3.637a2.142 2.142 0 01-2.181-2.182V4.364H.728a.689.689 0 01-.727-.727.689.689 0 01.727-.728h2.91v-.727A2.142 2.142 0 015.818 0h2.909a2.143 2.143 0 012.182 2.182v.727h2.909a.689.689 0 01.727.728.688.688 0 01-.727.727h-.728v9.454A2.142 2.142 0 0110.91 16zm-8-11.636v9.454a.689.689 0 00.727.727h7.273a.688.688 0 00.727-.727V4.364H2.91zm2.91-2.91a.689.689 0 00-.728.728v.727h4.363v-.727a.689.689 0 00-.727-.727H5.819zm2.908 10.91a.688.688 0 01-.727-.728V7.273a.727.727 0 011.454 0v4.363a.689.689 0 01-.727.727zm-2.909 0a.688.688 0 01-.727-.728V7.273a.689.689 0 01.727-.727.689.689 0 01.727.727v4.363a.689.689 0 01-.727.727z"/>
</svg>
