<svg width="18" height="20" viewBox="0 0 18 20" fill="none" xmlns="http://www.w3.org/2000/svg">
<path d="M15.2997 19.9995H2.70032C2.34395 20.0062 1.98992 19.9402 1.65937 19.8055C1.32883 19.6708 1.02857 19.4702 0.776538 19.2157C0.524507 18.9611 0.325881 18.6578 0.192535 18.3239C0.0591882 17.9901 -0.00614045 17.6325 0.000453825 17.2725V4.54646C-0.00601433 4.18654 0.0594006 3.829 0.192792 3.49519C0.326182 3.16138 0.524813 2.85815 0.776818 2.60361C1.02882 2.34907 1.32904 2.14844 1.65952 2.01371C1.99001 1.87898 2.34399 1.81291 2.70032 1.81944H4.50023V0.910436C4.4933 0.789233 4.51183 0.667921 4.55461 0.554466C4.59739 0.44101 4.66344 0.337977 4.74843 0.252131C4.83342 0.166285 4.93543 0.0995681 5.04776 0.0563612C5.16008 0.0131542 5.28019 -0.00556564 5.40018 0.00143066C5.52018 -0.00556564 5.64028 0.0131542 5.75261 0.0563612C5.86493 0.0995681 5.96694 0.166285 6.05193 0.252131C6.13692 0.337977 6.20298 0.44101 6.24575 0.554466C6.28853 0.667921 6.30706 0.789233 6.30014 0.910436V1.81944H11.6999V0.910436C11.6999 0.669353 11.7947 0.438144 11.9635 0.267672C12.1322 0.0972006 12.3611 0.00143066 12.5998 0.00143066C12.8385 0.00143066 13.0674 0.0972006 13.2362 0.267672C13.405 0.438144 13.4998 0.669353 13.4998 0.910436V1.81944H15.2997C15.656 1.81291 16.01 1.87898 16.3405 2.01371C16.671 2.14844 16.9712 2.34907 17.2232 2.60361C17.4752 2.85815 17.6738 3.16138 17.8072 3.49519C17.9406 3.829 18.006 4.18654 17.9995 4.54646V17.2725C18.0061 17.6325 17.9408 17.9901 17.8075 18.3239C17.6741 18.6578 17.4755 18.9611 17.2235 19.2157C16.9714 19.4702 16.6712 19.6708 16.3406 19.8055C16.0101 19.9402 15.656 20.0062 15.2997 19.9995ZM1.80036 9.09148V17.2725C1.79344 17.3937 1.81197 17.515 1.85475 17.6285C1.89752 17.742 1.96358 17.845 2.04857 17.9308C2.13356 18.0167 2.23557 18.0834 2.34789 18.1266C2.46022 18.1698 2.58032 18.1885 2.70032 18.1815H15.2997C15.4197 18.1885 15.5398 18.1698 15.6521 18.1266C15.7644 18.0834 15.8664 18.0167 15.9514 17.9308C16.0364 17.845 16.1025 17.742 16.1453 17.6285C16.188 17.515 16.2066 17.3937 16.1996 17.2725V9.09148H1.80036ZM2.70032 3.63745C2.58032 3.63045 2.46022 3.64917 2.34789 3.69238C2.23557 3.73559 2.13356 3.8023 2.04857 3.88815C1.96358 3.974 1.89752 4.07703 1.85475 4.19049C1.81197 4.30394 1.79344 4.42525 1.80036 4.54646V7.27347H16.1996V4.54646C16.2066 4.42525 16.188 4.30394 16.1453 4.19049C16.1025 4.07703 16.0364 3.974 15.9514 3.88815C15.8664 3.8023 15.7644 3.73559 15.6521 3.69238C15.5398 3.64917 15.4197 3.63045 15.2997 3.63745H13.4998V4.54646C13.4998 4.78754 13.405 5.01875 13.2362 5.18922C13.0674 5.35969 12.8385 5.45546 12.5998 5.45546C12.3611 5.45546 12.1322 5.35969 11.9635 5.18922C11.7947 5.01875 11.6999 4.78754 11.6999 4.54646V3.63745H6.30014V4.54646C6.30706 4.66766 6.28853 4.78897 6.24575 4.90243C6.20298 5.01588 6.13692 5.11892 6.05193 5.20476C5.96694 5.29061 5.86493 5.35732 5.75261 5.40053C5.64028 5.44374 5.52018 5.46246 5.40018 5.45546C5.28019 5.46246 5.16008 5.44374 5.04776 5.40053C4.93543 5.35732 4.83342 5.29061 4.74843 5.20476C4.66344 5.11892 4.59739 5.01588 4.55461 4.90243C4.51183 4.78897 4.4933 4.66766 4.50023 4.54646V3.63745H2.70032Z" />
</svg>
