<svg width="7" height="12" viewBox="0 0 7 12" fill="none" 
  xmlns="http://www.w3.org/2000/svg">
  <path d="M6.59978 6.59978L1.45699 11.7426C1.38157 11.8263 1.28885 11.8927 1.18526 11.9371C1.08167 11.9815 0.969665 12.0028 0.857002 11.9997C0.744339 12.0028 0.632338 11.9815 0.528745 11.9371C0.425151 11.8927 0.332436 11.8263 0.257011 11.7426C0.175792 11.6652 0.111135 11.5721 0.0669572 11.4689C0.0227792 11.3658 0 11.2548 0 11.1426C0 11.0304 0.0227792 10.9193 0.0669572 10.8162C0.111135 10.7131 0.175792 10.62 0.257011 10.5426L4.7998 5.99978L0.257011 1.45699C0.175792 1.37959 0.111135 1.2865 0.0669572 1.18336C0.0227792 1.08023 0 0.969199 0 0.857002C0 0.744805 0.0227792 0.633775 0.0669572 0.530642C0.111135 0.427508 0.175792 0.334418 0.257011 0.257011C0.334418 0.175792 0.427508 0.111135 0.530642 0.0669572C0.633775 0.0227792 0.744805 0 0.857002 0C0.969199 0 1.08023 0.0227792 1.18336 0.0669572C1.2865 0.111135 1.37959 0.175792 1.45699 0.257011L6.59978 5.39979C6.68099 5.4772 6.74565 5.57029 6.78983 5.67342C6.83401 5.77656 6.85679 5.88759 6.85679 5.99978C6.85679 6.11198 6.83401 6.22301 6.78983 6.32615C6.74565 6.42928 6.68099 6.52237 6.59978 6.59978Z" fill="#624DE3"/>
</svg>
