<svg width="15" height="11" viewBox="0 0 15 11" 
  xmlns="http://www.w3.org/2000/svg">
  <path d="M2.56327 4.58487C2.30466 4.34293 1.96376 4.20832 1.60962 4.20832C1.25548 4.20832 0.914579 4.34293 0.655967 4.58487C0.531296 4.70119 0.431886 4.84191 0.363916 4.99828C0.295947 5.15466 0.260872 5.32334 0.260872 5.49385C0.260872 5.66436 0.295947 5.83304 0.363916 5.98942C0.431886 6.14579 0.531296 6.28651 0.655967 6.40283L5.20597 10.7391L14.1266 2.238C14.2513 2.12168 14.3507 1.98096 14.4187 1.82458C14.4867 1.66821 14.5217 1.49952 14.5217 1.32901C14.5217 1.15851 14.4867 0.989821 14.4187 0.833446C14.3507 0.677071 14.2513 0.53635 14.1266 0.420032C13.868 0.178091 13.5271 0.0434875 13.173 0.0434875C12.8189 0.0434875 12.478 0.178091 12.2193 0.420032L5.20657 7.10381L2.56327 4.58487Z" fill="#fff" />
</svg>
