<svg fill="none" xmlns="http://www.w3.org/2000/svg" viewBox="0 0 16 14"><path d="M11.9 14H2.1A2.06 2.06 0 010 11.9V2.1A2.062 2.062 0 012.1.002h7.7a.663.663 0 01.7.7.665.665 0 01-.7.7H2.1a.663.663 0 00-.7.7V11.9a.663.663 0 00.7.7h9.8a.662.662 0 00.699-.7V7a.7.7 0 011.4 0v4.9a2.062 2.062 0 01-2.1 2.1zM7 9.1a.636.636 0 01-.49-.21l-2.1-2.1a.68.68 0 010-.98.678.678 0 01.98 0L7 7.42 14.209.211a.677.677 0 01.98 0 .692.692 0 01.21.49.692.692 0 01-.21.49l-7.7 7.7A.633.633 0 017 9.1z" fill="#624DE3"/></svg>