<svg width="14" height="8" viewBox="0 0 14 8" 
  xmlns="http://www.w3.org/2000/svg">
  <path d="M13.6999 1.69985L7.69985 7.69985C7.60954 7.79461 7.50093 7.87004 7.38061 7.92158C7.26029 7.97312 7.13075 7.9997 6.99985 7.9997C6.86895 7.9997 6.73942 7.97312 6.61909 7.92158C6.49877 7.87004 6.39016 7.79461 6.29985 7.69985L0.29985 1.69985C0.205094 1.60954 0.12966 1.50093 0.0781178 1.38061C0.0265761 1.26028 0 1.13075 0 0.99985C0 0.868951 0.0265761 0.739415 0.0781178 0.619091C0.12966 0.498767 0.205094 0.390159 0.29985 0.29985C0.390159 0.205094 0.498767 0.12966 0.619091 0.0781178C0.739415 0.0265761 0.868951 0 0.99985 0C1.13075 0 1.26028 0.0265761 1.38061 0.0781178C1.50093 0.12966 1.60954 0.205094 1.69985 0.29985L6.99985 5.59985L12.2999 0.29985C12.3902 0.205094 12.4988 0.12966 12.6191 0.0781178C12.7394 0.0265761 12.869 0 12.9999 0C13.1307 0 13.2603 0.0265761 13.3806 0.0781178C13.5009 0.12966 13.6095 0.205094 13.6999 0.29985C13.7946 0.390159 13.87 0.498767 13.9216 0.619091C13.9731 0.739415 13.9997 0.868951 13.9997 0.99985C13.9997 1.13075 13.9731 1.26028 13.9216 1.38061C13.87 1.50093 13.7946 1.60954 13.6999 1.69985Z"/>
</svg>
