<svg width="41" height="41" viewBox="0 0 41 41" fill="none" 
  xmlns="http://www.w3.org/2000/svg">
  <circle cx="20.5" cy="20.5" r="19.5" stroke="white" stroke-opacity="0.5" stroke-width="2"/>
  <path fill-rule="evenodd" clip-rule="evenodd" d="M15.7453 15.0962C15.8935 15.0327 16.053 15 16.2142 15C16.3754 15 16.5349 15.0327 16.683 15.0962C16.8291 15.1588 16.9612 15.2499 17.0714 15.3643L20.5 18.7927L23.9286 15.3643C24.0388 15.2499 24.1709 15.1588 24.317 15.0962C24.4651 15.0327 24.6246 15 24.7858 15C24.947 15 25.1065 15.0327 25.2547 15.0962C25.3991 15.1581 25.5299 15.2479 25.6394 15.3606C25.752 15.4701 25.8419 15.6008 25.9038 15.7453C25.9673 15.8935 26 16.053 26 16.2142C26 16.3754 25.9673 16.5349 25.9038 16.683C25.8412 16.8291 25.7501 16.9611 25.6357 17.0714L22.2071 20.4998L25.6357 23.9282C25.7501 24.0385 25.8412 24.1705 25.9038 24.3166C25.9673 24.4648 26 24.6243 26 24.7855C26 24.9467 25.9673 25.1062 25.9038 25.2543C25.8419 25.3988 25.7521 25.5296 25.6394 25.6391C25.5299 25.7517 25.3991 25.8416 25.2547 25.9035C25.1065 25.9669 24.947 25.9996 24.7858 25.9996C24.6246 25.9996 24.4651 25.9669 24.317 25.9035C24.1709 25.8409 24.0388 25.7497 23.9286 25.6354L20.5 22.2069L17.0757 25.6311C16.9662 25.7495 16.833 25.8436 16.6847 25.9071C16.5361 25.9708 16.3758 26.0024 16.2142 25.9999C16.0526 26.0024 15.8923 25.9708 15.7437 25.9071C15.5967 25.8441 15.4645 25.7512 15.3556 25.6342C15.2453 25.5257 15.1572 25.3967 15.0962 25.2543C15.0327 25.1062 15 24.9467 15 24.7855C15 24.6243 15.0327 24.4648 15.0962 24.3166C15.1588 24.1706 15.2499 24.0385 15.3643 23.9283L18.7929 20.4998L15.3643 17.0714C15.2499 16.9611 15.1588 16.8291 15.0962 16.683C15.0327 16.5349 15 16.3754 15 16.2142C15 16.053 15.0327 15.8935 15.0962 15.7453C15.1581 15.6008 15.248 15.4701 15.3606 15.3606C15.4701 15.2479 15.6009 15.1581 15.7453 15.0962Z" fill="#B0A6F1"/>
</svg>
