<svg viewBox="0 0 14 14"  fill="#617798" xmlns="http://www.w3.org/2000/svg">
<path d="M13.6999 12.2999C13.7946 12.3902 13.87 12.4988 13.9216 12.6191C13.9731 12.7394 13.9997 12.869 13.9997 12.9999C13.9997 13.1307 13.9731 13.2603 13.9216 13.3806C13.87 13.5009 13.7946 13.6095 13.6999 13.6999C13.6095 13.7946 13.5009 13.87 13.3806 13.9216C13.2603 13.9731 13.1307 13.9997 12.9999 13.9997C12.869 13.9997 12.7394 13.9731 12.6191 13.9216C12.4988 13.87 12.3902 13.7946 12.2999 13.6999L6.99985 8.39985L1.69985 13.6999C1.61185 13.7976 1.50368 13.875 1.38282 13.9268C1.26196 13.9786 1.13129 14.0035 0.99985 13.9999C0.868408 14.0035 0.737739 13.9786 0.616877 13.9268C0.496016 13.875 0.387847 13.7976 0.29985 13.6999C0.205094 13.6095 0.12966 13.5009 0.0781178 13.3806C0.0265761 13.2603 0 13.1307 0 12.9999C0 12.869 0.0265761 12.7394 0.0781178 12.6191C0.12966 12.4988 0.205094 12.3902 0.29985 12.2999L5.59985 6.99985L0.29985 1.69985C0.205094 1.60954 0.12966 1.50093 0.0781178 1.38061C0.0265761 1.26028 0 1.13075 0 0.99985C0 0.868951 0.0265761 0.739415 0.0781178 0.619091C0.12966 0.498767 0.205094 0.390159 0.29985 0.29985C0.390159 0.205094 0.498767 0.12966 0.619091 0.0781178C0.739415 0.0265761 0.868951 0 0.99985 0C1.13075 0 1.26028 0.0265761 1.38061 0.0781178C1.50093 0.12966 1.60954 0.205094 1.69985 0.29985L6.99985 5.59985L12.2999 0.29985C12.3902 0.205094 12.4988 0.12966 12.6191 0.0781178C12.7394 0.0265761 12.869 0 12.9999 0C13.1307 0 13.2603 0.0265761 13.3806 0.0781178C13.5009 0.12966 13.6095 0.205094 13.6999 0.29985C13.7946 0.390159 13.87 0.498767 13.9216 0.619091C13.9731 0.739415 13.9997 0.868951 13.9997 0.99985C13.9997 1.13075 13.9731 1.26028 13.9216 1.38061C13.87 1.50093 13.7946 1.60954 13.6999 1.69985L8.39985 6.99985L13.6999 12.2999Z" />
</svg>
