<svg width="22" height="22" viewBox="0 0 22 22" fill="#000" xmlns="http://www.w3.org/2000/svg">
<path d="M18 22H4C3.60394 22.0076 3.21042 21.9352 2.84301 21.7871C2.47559 21.6391 2.14184 21.4184 1.86173 21.1383C1.58163 20.8582 1.36093 20.5244 1.21286 20.157C1.06479 19.7896 0.992392 19.3961 1 19V8.016C0.991159 7.85936 1.02342 7.70313 1.09359 7.5628C1.16375 7.42247 1.26938 7.30292 1.4 7.216L10.4 0.225005C10.4743 0.152349 10.5621 0.0950722 10.6586 0.0564608C10.755 0.0178493 10.8581 -0.00133638 10.962 4.71782e-06C11.1933 0.00474322 11.4169 0.0836141 11.6 0.225005L20.6 7.217C20.7306 7.30392 20.8362 7.42347 20.9064 7.5638C20.9766 7.70413 21.0088 7.86036 21 8.017V19C21.0076 19.3961 20.9352 19.7896 20.7871 20.157C20.6391 20.5244 20.4184 20.8582 20.1383 21.1383C19.8582 21.4184 19.5244 21.6391 19.157 21.7871C18.7896 21.9352 18.3961 22.0076 18 22ZM8 10.013H14C14.1333 10.0053 14.2668 10.0259 14.3916 10.0734C14.5164 10.121 14.6298 10.1944 14.7242 10.2888C14.8186 10.3832 14.892 10.4966 14.9396 10.6214C14.9871 10.7462 15.0077 10.8797 15 11.013V20H18C18.1334 20.0079 18.2669 19.9874 18.3918 19.9399C18.5167 19.8924 18.6301 19.819 18.7246 19.7246C18.819 19.6301 18.8924 19.5167 18.9399 19.3918C18.9874 19.2669 19.0079 19.1334 19 19V8.51501L11 2.322L3 8.51501V19C2.99214 19.1334 3.01262 19.2669 3.0601 19.3918C3.10758 19.5167 3.18097 19.6301 3.27544 19.7246C3.36991 19.819 3.48333 19.8924 3.60821 19.9399C3.7331 19.9874 3.86663 20.0079 4 20H7V11.01C6.99258 10.8769 7.01339 10.7437 7.06106 10.6192C7.10873 10.4946 7.18219 10.3816 7.27662 10.2874C7.37104 10.1933 7.4843 10.1202 7.60897 10.0729C7.73364 10.0256 7.86689 10.0052 8 10.013ZM9 12.013V20H13V12.011L9 12.013Z"/>
</svg>
