<svg width="22" height="22" fill="#000" xmlns="http://www.w3.org/2000/svg">
  <path d="M11 22A10.97 10.97 0 010 11 10.97 10.97 0 0115.21.83a10.97 10.97 0 015.96 14.38A10.97 10.97 0 0111 22zm5-10a17.34 17.34 0 01-2.7 7.7A9.22 9.22 0 0020 12h-4zM2.1 12a8.95 8.95 0 006.7 7.7A15.2 15.2 0 016.1 12h-4zm6 0a12.71 12.71 0 003 7.4A14.9 14.9 0 0014 12H8.1zm5.1-9.7a15.2 15.2 0 012.7 7.7h4a8.95 8.95 0 00-6.7-7.7zm-2.2.3A14.9 14.9 0 008.1 10h5.8A14.03 14.03 0 0011 2.6zm-2.3-.3A8.96 8.96 0 002.1 10h4c.2-2.75 1.09-5.4 2.6-7.7z" />
</svg>
