<svg viewBox="0 0 24 18" xmlns="http://www.w3.org/2000/svg">
<path d="M21.0005 17.2173H3.0005C2.60452 17.2241 2.21113 17.157 1.84384 17.02C1.47655 16.8829 1.14291 16.6788 0.862864 16.4198C0.582815 16.1609 0.362108 15.8523 0.213938 15.5127C0.065768 15.173 -0.00682307 14.8092 0.000504276 14.443V3.34564C-0.00682307 2.97944 0.065768 2.61564 0.213938 2.27598C0.362108 1.93632 0.582815 1.62777 0.862864 1.36879C1.14291 1.10981 1.47655 0.905702 1.84384 0.768677C2.21113 0.631652 2.60452 0.564521 3.0005 0.571298H21.0005C21.3965 0.564651 21.7898 0.631871 22.157 0.768941C22.5242 0.906012 22.8578 1.11012 23.1378 1.36908C23.4179 1.62804 23.6386 1.93653 23.7868 2.27613C23.935 2.61573 24.0077 2.97948 24.0005 3.34564V14.443C24.0077 14.8092 23.935 15.1729 23.7868 15.5125C23.6386 15.8521 23.4179 16.1606 23.1378 16.4196C22.8578 16.6785 22.5242 16.8826 22.157 17.0197C21.7898 17.1568 21.3965 17.224 21.0005 17.2173ZM2.0005 7.96954V14.443C1.99281 14.5663 2.0134 14.6897 2.06093 14.8052C2.10847 14.9206 2.18186 15.0254 2.2763 15.1127C2.37074 15.2001 2.48409 15.2679 2.6089 15.3119C2.73371 15.3559 2.86717 15.3749 3.0005 15.3678H21.0005C21.1338 15.3749 21.2673 15.3559 21.3921 15.3119C21.5169 15.2679 21.6303 15.2001 21.7247 15.1127C21.8191 15.0254 21.8925 14.9206 21.9401 14.8052C21.9876 14.6897 22.0082 14.5663 22.0005 14.443V7.96954H2.0005ZM3.0005 2.42086C2.86717 2.41374 2.73371 2.43279 2.6089 2.47674C2.48409 2.5207 2.37074 2.58857 2.2763 2.67591C2.18186 2.76324 2.10847 2.86807 2.06093 2.98349C2.0134 3.09892 1.99281 3.22233 2.0005 3.34564V6.11998H22.0005V3.34564C22.0082 3.22233 21.9876 3.09892 21.9401 2.98349C21.8925 2.86807 21.8191 2.76324 21.7247 2.67591C21.6303 2.58857 21.5169 2.5207 21.3921 2.47674C21.2673 2.43279 21.1338 2.41374 21.0005 2.42086H3.0005Z" />
</svg>
