<svg width="13" height="8" viewBox="0 0 13 8" fill="none" 
    xmlns="http://www.w3.org/2000/svg">
    <path d="M12.7216 1.57847L7.15001 7.15001C7.06615 7.238 6.9653 7.30805 6.85357 7.35591C6.74184 7.40377 6.62155 7.42845 6.5 7.42845C6.37845 7.42845 6.25816 7.40377 6.14643 7.35591C6.0347 7.30805 5.93385 7.238 5.84999 7.15001L0.278438 1.57847C0.190449 1.49461 0.120401 1.39375 0.0725396 1.28202C0.0246783 1.17029 0 1.05 0 0.928452C0 0.806901 0.0246783 0.686615 0.0725396 0.574882C0.120401 0.46315 0.190449 0.362299 0.278438 0.278438C0.362299 0.190448 0.46315 0.120401 0.574883 0.0725395C0.686615 0.0246783 0.806901 0 0.928452 0C1.05 0 1.17029 0.0246783 1.28202 0.0725395C1.39375 0.120401 1.49461 0.190448 1.57847 0.278438L6.5 5.19997L11.4215 0.278438C11.5054 0.190448 11.6062 0.120401 11.718 0.0725395C11.8297 0.0246783 11.95 0 12.0715 0C12.1931 0 12.3134 0.0246783 12.4251 0.0725395C12.5368 0.120401 12.6377 0.190448 12.7216 0.278438C12.8096 0.362299 12.8796 0.46315 12.9275 0.574882C12.9753 0.686615 13 0.806901 13 0.928452C13 1.05 12.9753 1.17029 12.9275 1.28202C12.8796 1.39375 12.8096 1.49461 12.7216 1.57847Z" fill="#75E8F0"/>
</svg>
