<svg width="25" height="16" viewBox="0 0 25 16" fill="none" xmlns="http://www.w3.org/2000/svg">
<rect y="1" width="23" height="15" rx="2" fill="#DDDDDD"/>
<rect y="4" width="23" height="2" fill="#B5B5B5"/>
<rect x="2" y="9" width="19" height="2" rx="1" fill="white"/>
<circle cx="19.5" cy="5.5" r="5.5" fill="#565656"/>
<path d="M17.0437 3.55323H16.4715L15.5 4.18821V4.75095L16.4316 4.14259H16.4544V7.44677H17.0437V3.55323Z" fill="white"/>
<path d="M19.1848 7.5C19.9795 7.5 20.5631 7.02471 20.5612 6.37833C20.5631 5.88593 20.2646 5.53232 19.7475 5.45247V5.42205C20.1544 5.31749 20.4186 4.9981 20.4167 4.56084C20.4186 3.98859 19.949 3.5 19.2 3.5C18.4852 3.5 17.911 3.93156 17.892 4.56464H18.4605C18.4738 4.20722 18.8103 3.99049 19.1924 3.99049C19.5897 3.99049 19.8502 4.23194 19.8483 4.59125C19.8502 4.96768 19.5479 5.21483 19.1163 5.21483H18.7875V5.69392H19.1163C19.6563 5.69392 19.9681 5.96768 19.9681 6.35932C19.9681 6.73764 19.6392 6.9943 19.181 6.9943C18.7589 6.9943 18.43 6.77757 18.4072 6.43156H17.8103C17.835 7.06654 18.3977 7.5 19.1848 7.5Z" fill="white"/>
<path d="M22.2973 7.5C23.0806 7.5 23.6395 6.94677 23.6376 6.18821C23.6395 5.43536 23.1148 4.88783 22.4057 4.88783C22.1167 4.88783 21.8487 4.9981 21.6966 5.14639H21.6738L21.7973 4.05703H23.4494V3.55323H21.3087L21.0901 5.51521L21.6281 5.59506C21.7745 5.46388 22.0369 5.37452 22.2726 5.37452C22.7346 5.37833 23.0692 5.72433 23.0692 6.19962C23.0692 6.6673 22.7441 7.0057 22.2973 7.0057C21.9209 7.0057 21.6224 6.76616 21.592 6.43156H21.0217C21.0445 7.05133 21.5825 7.5 22.2973 7.5Z" fill="white"/>
</svg>
