<svg width="20" height="20" viewBox="0 0 20 20" fill="#000" xmlns="http://www.w3.org/2000/svg">
<path d="M17 20.0005H3C2.60402 20.0078 2.21063 19.9352 1.84334 19.7871C1.47605 19.6389 1.14241 19.4182 0.86236 19.1381C0.582311 18.8581 0.361604 18.5245 0.213434 18.1572C0.0652645 17.7899 -0.00732661 17.3965 7.35628e-07 17.0005V3.0005C-0.00732661 2.60452 0.0652645 2.21113 0.213434 1.84384C0.361604 1.47655 0.582311 1.14291 0.86236 0.862863C1.14241 0.582814 1.47605 0.362108 1.84334 0.213938C2.21063 0.065768 2.60402 -0.00682307 3 0.000504276H17C17.396 -0.00682307 17.7894 0.065768 18.1567 0.213938C18.524 0.362108 18.8576 0.582814 19.1376 0.862863C19.4177 1.14291 19.6384 1.47655 19.7866 1.84384C19.9347 2.21113 20.0073 2.60452 20 3.0005V17.0005C20.0073 17.3965 19.9347 17.7899 19.7866 18.1572C19.6384 18.5245 19.4177 18.8581 19.1376 19.1381C18.8576 19.4182 18.524 19.6389 18.1567 19.7871C17.7894 19.9352 17.396 20.0078 17 20.0005ZM8 8.0005V18.0005H17C17.1333 18.0082 17.2668 17.9876 17.3916 17.9401C17.5164 17.8925 17.6298 17.8191 17.7242 17.7247C17.8186 17.6303 17.892 17.5169 17.9396 17.3921C17.9871 17.2673 18.0077 17.1338 18 17.0005V8.0005H8ZM2 8.0005V17.0005C1.9923 17.1338 2.0129 17.2673 2.06043 17.3921C2.10796 17.5169 2.18136 17.6303 2.2758 17.7247C2.37024 17.8191 2.48358 17.8925 2.6084 17.9401C2.73321 17.9876 2.86667 18.0082 3 18.0005H6V8.0005H2ZM3 2.0005C2.86667 1.99281 2.73321 2.0134 2.6084 2.06093C2.48358 2.10847 2.37024 2.18186 2.2758 2.2763C2.18136 2.37074 2.10796 2.48409 2.06043 2.6089C2.0129 2.73371 1.9923 2.86717 2 3.0005V6.0005H18V3.0005C18.0077 2.86717 17.9871 2.73371 17.9396 2.6089C17.892 2.48409 17.8186 2.37074 17.7242 2.2763C17.6298 2.18186 17.5164 2.10847 17.3916 2.06093C17.2668 2.0134 17.1333 1.99281 17 2.0005H3Z"/>
</svg>
