<svg viewBox="0 0 19 23" xmlns="http://www.w3.org/2000/svg">
<path d="M15 23H3C2.60402 23.0073 2.21063 22.9347 1.84334 22.7866C1.47605 22.6384 1.14241 22.4177 0.86236 22.1376C0.582311 21.8576 0.361604 21.5239 0.213434 21.1566C0.0652645 20.7894 -0.00732661 20.396 7.35628e-07 20V3.99999C-0.00732661 3.604 0.0652645 3.21061 0.213434 2.84332C0.361604 2.47603 0.582311 2.14239 0.86236 1.86234C1.14241 1.5823 1.47605 1.36159 1.84334 1.21342C2.21063 1.06525 2.60402 0.992658 3 0.999986H11C11.1409 0.985541 11.2825 1.02092 11.4 1.09999C11.5 1.09999 11.6 1.19999 11.7 1.29999L17.7 7.29999C17.7417 7.34385 17.7756 7.39459 17.8 7.44999C17.8244 7.50538 17.8583 7.55613 17.9 7.59999C17.9791 7.71753 18.0144 7.85906 18 7.99999V20C18.0073 20.396 17.9347 20.7894 17.7866 21.1566C17.6384 21.5239 17.4177 21.8576 17.1376 22.1376C16.8576 22.4177 16.524 22.6384 16.1567 22.7866C15.7894 22.9347 15.396 23.0073 15 23ZM3 2.99999C2.86667 2.99229 2.73321 3.01288 2.6084 3.06041C2.48358 3.10795 2.37024 3.18134 2.2758 3.27578C2.18136 3.37022 2.10796 3.48357 2.06043 3.60838C2.0129 3.73319 1.9923 3.86665 2 3.99999V20C1.9923 20.1333 2.0129 20.2668 2.06043 20.3916C2.10796 20.5164 2.18136 20.6297 2.2758 20.7242C2.37024 20.8186 2.48358 20.892 2.6084 20.9396C2.73321 20.9871 2.86667 21.0077 3 21H15C15.1333 21.0077 15.2668 20.9871 15.3916 20.9396C15.5164 20.892 15.6298 20.8186 15.7242 20.7242C15.8186 20.6297 15.892 20.5164 15.9396 20.3916C15.9871 20.2668 16.0077 20.1333 16 20V8.99999H11C10.8667 9.00768 10.7332 8.98709 10.6084 8.93956C10.4836 8.89202 10.3702 8.81863 10.2758 8.72419C10.1814 8.62975 10.108 8.5164 10.0604 8.39159C10.0129 8.26678 9.9923 8.13332 10 7.99999V2.99999H3ZM12 4.39999V6.99999H14.6L12 4.39999ZM13 18H5C4.73478 18 4.48043 17.8946 4.29289 17.7071C4.10536 17.5196 4 17.2652 4 17C4 16.7348 4.10536 16.4804 4.29289 16.2929C4.48043 16.1053 4.73478 16 5 16H13C13.2652 16 13.5196 16.1053 13.7071 16.2929C13.8946 16.4804 14 16.7348 14 17C14 17.2652 13.8946 17.5196 13.7071 17.7071C13.5196 17.8946 13.2652 18 13 18ZM13 14H5C4.73478 14 4.48043 13.8946 4.29289 13.7071C4.10536 13.5196 4 13.2652 4 13C4 12.7348 4.10536 12.4804 4.29289 12.2929C4.48043 12.1053 4.73478 12 5 12H13C13.2652 12 13.5196 12.1053 13.7071 12.2929C13.8946 12.4804 14 12.7348 14 13C14 13.2652 13.8946 13.5196 13.7071 13.7071C13.5196 13.8946 13.2652 14 13 14ZM7 9.99999H5C4.86667 10.0077 4.73321 9.98709 4.6084 9.93956C4.48358 9.89202 4.37024 9.81863 4.2758 9.72419C4.18136 9.62975 4.10796 9.5164 4.06043 9.39159C4.0129 9.26678 3.9923 9.13332 4 8.99999C3.9923 8.86665 4.0129 8.73319 4.06043 8.60838C4.10796 8.48357 4.18136 8.37022 4.2758 8.27578C4.37024 8.18134 4.48358 8.10795 4.6084 8.06041C4.73321 8.01288 4.86667 7.99229 5 7.99999H7C7.13334 7.99229 7.26679 8.01288 7.3916 8.06041C7.51642 8.10795 7.62977 8.18134 7.72421 8.27578C7.81864 8.37022 7.89204 8.48357 7.93957 8.60838C7.9871 8.73319 8.0077 8.86665 8 8.99999C8.0077 9.13332 7.9871 9.26678 7.93957 9.39159C7.89204 9.5164 7.81864 9.62975 7.72421 9.72419C7.62977 9.81863 7.51642 9.89202 7.3916 9.93956C7.26679 9.98709 7.13334 10.0077 7 9.99999Z"/>
</svg>
