<svg viewBox="0 0 12 13" fill="currentColor" xmlns="http://www.w3.org/2000/svg">
<path fill-rule="evenodd" clip-rule="evenodd" d="M11.4167 12C11.4167 12.4142 11.0809 12.75 10.6667 12.75H1.33334C0.919129 12.75 0.583343 12.4142 0.583344 12C0.583344 11.5858 0.919129 11.25 1.33334 11.25H10.6667C11.0809 11.25 11.4167 11.5858 11.4167 12Z" />
<path fill-rule="evenodd" clip-rule="evenodd" d="M9.86371 4.88623C10.1566 5.17913 10.1566 5.654 9.86371 5.9469L6.53038 9.28023C6.38973 9.42088 6.19896 9.4999 6.00005 9.4999C5.80114 9.4999 5.61037 9.42088 5.46972 9.28023L2.13639 5.94689C1.84349 5.654 1.84349 5.17913 2.13639 4.88623C2.42928 4.59334 2.90415 4.59334 3.19705 4.88623L6.00005 7.68924L8.80305 4.88623C9.09595 4.59334 9.57082 4.59334 9.86371 4.88623Z" />
<path fill-rule="evenodd" clip-rule="evenodd" d="M6.00013 -6.10352e-05C6.41435 -6.10171e-05 6.75013 0.335725 6.75013 0.749939L6.75013 8.74994C6.75013 9.16415 6.41426 9.4999 6.00005 9.4999C5.58584 9.4999 5.25013 9.16415 5.25013 8.74994L5.25013 0.749939C5.25013 0.335725 5.58592 -6.10533e-05 6.00013 -6.10352e-05Z" />
</svg>
