<svg width="16" height="16" viewBox="0 0 16 16" xmlns="http://www.w3.org/2000/svg">
<path fill-rule="evenodd" clip-rule="evenodd" d="M5 14L1 10L2.13137 8.86863L6.13137 12.8686L5 14Z" />
<path d="M4.80103 15.9991H0.80122C0.694557 16.0053 0.587798 15.9888 0.487952 15.9508C0.388106 15.9127 0.297433 15.854 0.221885 15.7785C0.146337 15.7029 0.0876239 15.6123 0.0496001 15.5124C0.0115763 15.4126 -0.00489799 15.3058 0.00125904 15.1991V11.1993C-0.00183304 11.0942 0.0180359 10.9896 0.0594825 10.8929C0.100929 10.7962 0.162957 10.7097 0.241247 10.6394L10.6407 0.239868C10.713 0.164067 10.7999 0.103723 10.8961 0.0624912C10.9924 0.0212598 11.096 0 11.2007 0C11.3054 0 11.4091 0.0212598 11.5053 0.0624912C11.6016 0.103723 11.6884 0.164067 11.7607 0.239868L15.7605 4.23967C15.8362 4.31198 15.8964 4.39888 15.9376 4.49512C15.9788 4.59137 16 4.69497 16 4.79965C16 4.90433 15.9788 5.00792 15.9376 5.10417C15.8964 5.20042 15.8362 5.28732 15.7605 5.35962L5.361 15.7591C5.29088 15.8376 5.2044 15.8998 5.10765 15.9413C5.0109 15.9827 4.90623 16.0025 4.80103 15.9991ZM11.2007 1.91979L1.60118 11.5193V14.3992H4.48104L14.0806 4.79965L11.2007 1.91979Z" />
</svg>
