<svg width="40" height="40" viewBox="0 0 40 40" fill="none" 
  xmlns="http://www.w3.org/2000/svg">
  <rect width="40" height="40" rx="10" fill="#FF9066" fill-opacity="0.1"/>
  <path d="M27.4088 27.1996H13.5912C13.2493 27.2058 12.9095 27.1445 12.5923 27.0194C12.2751 26.8942 11.987 26.7079 11.7452 26.4714C11.5033 26.2349 11.3127 25.9532 11.1848 25.6431C11.0568 25.3329 10.9941 25.0007 11.0004 24.6664V14.5336C10.9941 14.1993 11.0568 13.8671 11.1848 13.5569C11.3127 13.2468 11.5033 12.9651 11.7452 12.7286C11.987 12.4921 12.2751 12.3058 12.5923 12.1806C12.9095 12.0555 13.2493 11.9942 13.5912 12.0004H27.4088C27.7507 11.9942 28.0905 12.0555 28.4077 12.1806C28.7249 12.3058 29.013 12.4921 29.2548 12.7286C29.4967 12.9651 29.6873 13.2468 29.8152 13.5569C29.9432 13.8671 30.0059 14.1993 29.9996 14.5336V24.6664C30.0059 25.0007 29.9432 25.3329 29.8152 25.6431C29.6873 25.9532 29.4967 26.2349 29.2548 26.4714C29.013 26.7079 28.7249 26.8942 28.4077 27.0194C28.0905 27.1445 27.7507 27.2058 27.4088 27.1996ZM12.7276 16.138V24.6664C12.721 24.779 12.7388 24.8917 12.7798 24.9971C12.8209 25.1024 12.8842 25.1982 12.9658 25.2779C13.0474 25.3576 13.1452 25.4196 13.253 25.4598C13.3608 25.4999 13.4761 25.5173 13.5912 25.5108H27.4088C27.5239 25.5173 27.6392 25.4999 27.747 25.4598C27.8547 25.4196 27.9526 25.3576 28.0342 25.2779C28.1157 25.1982 28.1791 25.1024 28.2202 24.9971C28.2612 24.8917 28.279 24.779 28.2724 24.6664V16.138L21.0182 21.1199C20.8605 21.2134 20.6835 21.2711 20.5 21.2888C20.3165 21.2711 20.1395 21.2134 19.9818 21.1199L12.7276 16.138ZM13.5912 13.6892C13.4248 13.6882 13.2618 13.7359 13.1233 13.8262C12.9848 13.9165 12.8771 14.0452 12.814 14.1959L20.5 19.4311L28.186 14.1959C28.1231 14.0451 28.0155 13.9162 27.8769 13.8259C27.7384 13.7356 27.5753 13.688 27.4088 13.6892H13.5912Z" fill="#FF9066"/>
</svg>
