<svg width="40" height="40" viewBox="0 0 40 40" fill="none" xmlns="http://www.w3.org/2000/svg">
<rect width="40" height="40" rx="10" fill="#CCF0FB"/>
<path d="M27.2724 28.9995H12.7276C12.3676 29.0061 12.01 28.9408 11.6761 28.8075C11.3423 28.6741 11.039 28.4755 10.7844 28.2235C10.5298 27.9714 10.3292 27.6712 10.1945 27.3406C10.0598 27.0101 9.9938 26.656 10.0005 26.2997V17.3001C9.99392 16.9438 10.06 16.5898 10.1947 16.2593C10.3295 15.9289 10.5301 15.6286 10.7847 15.3766C11.0392 15.1246 11.3425 14.926 11.6763 14.7926C12.0101 14.6592 12.3677 14.5938 12.7276 14.6003H15.4548V13.7003C15.4481 13.344 15.5141 12.9899 15.6488 12.6594C15.7835 12.3288 15.9841 12.0286 16.2387 11.7765C16.4933 11.5245 16.7966 11.3259 17.1304 11.1925C17.4643 11.0592 17.8219 10.9939 18.1819 11.0005H21.8181C22.178 10.994 22.5356 11.0594 22.8694 11.1928C23.2032 11.3262 23.5065 11.5248 23.761 11.7768C24.0156 12.0288 24.2162 12.329 24.351 12.6595C24.4857 12.99 24.5518 13.344 24.5452 13.7003V14.6003H27.2724C27.6323 14.5938 27.9899 14.6592 28.3237 14.7926C28.6575 14.926 28.9608 15.1246 29.2153 15.3766C29.4699 15.6286 29.6705 15.9289 29.8053 16.2593C29.94 16.5898 30.0061 16.9438 29.9995 17.3001V26.2997C30.0062 26.656 29.9402 27.0101 29.8055 27.3406C29.6708 27.6712 29.4702 27.9714 29.2156 28.2235C28.961 28.4755 28.6577 28.6741 28.3239 28.8075C27.99 28.9408 27.6324 29.0061 27.2724 28.9995ZM24.5452 16.4002V27.1996H27.2724C27.3936 27.2066 27.5149 27.188 27.6284 27.1453C27.7418 27.1025 27.8449 27.0364 27.9307 26.9514C28.0166 26.8664 28.0833 26.7644 28.1265 26.6521C28.1697 26.5398 28.1884 26.4197 28.1814 26.2997V17.3001C28.1884 17.1801 28.1697 17.06 28.1265 16.9477C28.0833 16.8354 28.0166 16.7334 27.9307 16.6484C27.8449 16.5634 27.7418 16.4973 27.6284 16.4546C27.5149 16.4118 27.3936 16.3933 27.2724 16.4002H24.5452ZM17.2729 16.4002V27.1996H22.7271V16.4002H17.2729ZM12.7276 16.4002C12.6064 16.3933 12.4851 16.4118 12.3716 16.4546C12.2582 16.4973 12.1551 16.5634 12.0693 16.6484C11.9834 16.7334 11.9167 16.8354 11.8735 16.9477C11.8303 17.06 11.8116 17.1801 11.8186 17.3001V26.2997C11.8116 26.4197 11.8303 26.5398 11.8735 26.6521C11.9167 26.7644 11.9834 26.8664 12.0693 26.9514C12.1551 27.0364 12.2582 27.1025 12.3716 27.1453C12.4851 27.188 12.6064 27.2066 12.7276 27.1996H15.4548V16.4002H12.7276ZM18.1819 12.8004C18.0607 12.7934 17.9394 12.812 17.8259 12.8547C17.7125 12.8975 17.6094 12.9636 17.5236 13.0486C17.4377 13.1336 17.371 13.2356 17.3278 13.3479C17.2846 13.4602 17.2659 13.5803 17.2729 13.7003V14.6003H22.7271V13.7003C22.7341 13.5803 22.7154 13.4602 22.6722 13.3479C22.629 13.2356 22.5623 13.1336 22.4764 13.0486C22.3906 12.9636 22.2875 12.8975 22.1741 12.8547C22.0606 12.812 21.9393 12.7934 21.8181 12.8004H18.1819Z" fill="#2D9CDB"/>
</svg>
