<svg viewBox="0 0 24 24" xmlns="http://www.w3.org/2000/svg">
  <path d="M22.998 24a.9.9 0 01-.7-.3l-4.5-4.5a9.987 9.987 0 01-5.8 1.8C4.486 21 .274 12.751.098 12.4a1.4 1.4 0 010-.9 18.333 18.333 0 014.5-5.5l-4.3-4.3a.97.97 0 010-1.4.991.991 0 01.7-.3.991.991 0 01.7.3l22 22a.965.965 0 010 1.4.9.9 0 01-.7.3zm-17-16.6a19.377 19.377 0 00-3.9 4.6 17.638 17.638 0 003.263 4.1 9.773 9.773 0 006.638 2.9 8.777 8.777 0 004.4-1.2l-2.4-2.3a3.91 3.91 0 01-4.8-.5 4.11 4.11 0 01-1.3-2.8 4.644 4.644 0 01.6-2.3l-2.5-2.5zm4 4a1.83 1.83 0 01-.056.421 1.3 1.3 0 00-.043.279 1.976 1.976 0 00.6 1.4c.37.322.845.5 1.336.5a2.41 2.41 0 00.663-.1l-2.5-2.5zm10.8 4.9a1.068 1.068 0 01-.6-.2.972.972 0 01-.1-1.4 14.29 14.29 0 001.8-2.5 17.64 17.64 0 00-3.261-4.1 9.773 9.773 0 00-6.639-2.9c-.637.017-1.272.084-1.9.2a1.58 1.58 0 01-1.2-.9 1.1 1.1 0 01.138-.787.945.945 0 01.663-.413 8.48 8.48 0 012.3-.3c1.747.007 3.466.45 5 1.287a14.862 14.862 0 013.688 2.863 19.922 19.922 0 013.211 4.45c.1.292.1.608 0 .9a18.297 18.297 0 01-2.3 3.4c-.206.23-.492.373-.8.4z"/>
</svg>
