<svg width="18" height="16"  fill="#624DE3" xmlns="http://www.w3.org/2000/svg"><path d="M15 15.5a.71.71 0 01-.75-.75v-3h-1.5a.75.75 0 110-1.5h4.5a.75.75 0 110 1.5h-1.5v3a.71.71 0 01-.75.75zm-6 0a.71.71 0 01-.75-.75V8a.75.75 0 111.5 0v6.75a.71.71 0 01-.75.75zm-6 0a.71.71 0 01-.75-.75v-4.5H.75a.75.75 0 110-1.5h4.5a.75.75 0 110 1.5h-1.5v4.5a.71.71 0 01-.75.75zm12-6.75a.71.71 0 01-.75-.75V1.25a.75.75 0 111.5 0V8a.71.71 0 01-.75.75zM3 7.25a.71.71 0 01-.75-.75V1.25A.71.71 0 013 .5a.71.71 0 01.75.75V6.5a.71.71 0 01-.75.75zm8.25-1.5h-4.5A.71.71 0 016 5a.71.71 0 01.75-.75h1.5v-3a.75.75 0 111.5 0v3h1.5A.71.71 0 0112 5a.71.71 0 01-.75.75z"/></svg>