<svg width="14" height="14" viewBox="0 0 14 14" fill="none" xmlns="http://www.w3.org/2000/svg">
<path d="M13.3012 13.9974C13.1178 13.9893 12.9436 13.9147 12.8113 13.7875L9.66185 10.6389C8.59203 11.4447 7.29191 11.8861 5.95253 11.8983C4.77542 11.8991 3.62456 11.5506 2.6456 10.8972C1.66664 10.2437 0.903596 9.31462 0.453039 8.22743C0.00248178 7.14025 -0.115332 5.94387 0.114508 4.78972C0.344348 3.63557 0.91151 2.57553 1.74421 1.74376C2.57619 0.911274 3.63651 0.344259 4.79096 0.114478C5.94541 -0.115302 7.1421 0.00248114 8.22957 0.452921C9.31704 0.903362 10.2464 1.66621 10.9 2.64491C11.5536 3.62362 11.9022 4.77418 11.9014 5.95099C11.9005 7.29192 11.4578 8.59521 10.6417 9.65934L13.7911 12.8079C13.8571 12.8713 13.9097 12.9473 13.9456 13.0315C13.9815 13.1157 14 13.2062 14 13.2977C14 13.3892 13.9815 13.4798 13.9456 13.564C13.9097 13.6481 13.8571 13.7242 13.7911 13.7875C13.6588 13.9148 13.4846 13.9895 13.3012 13.9974ZM5.95253 1.40301C4.90256 1.40511 3.88577 1.77098 3.0753 2.43833C2.26482 3.10567 1.71077 4.03323 1.50747 5.06307C1.30418 6.09291 1.46421 7.16136 1.96032 8.0865C2.45643 9.01163 3.25795 9.73626 4.22841 10.137C5.19886 10.5377 6.27824 10.5898 7.28278 10.2843C8.28732 9.97887 9.1549 9.33476 9.7378 8.46167C10.3207 7.58858 10.5829 6.5405 10.4797 5.49588C10.3765 4.45125 9.91438 3.47467 9.17194 2.73242C8.7499 2.30902 8.24805 1.97351 7.69543 1.74532C7.14282 1.51712 6.55042 1.40078 5.95253 1.40301Z" fill="#617798"/>
</svg>
