<svg width="22" height="22" viewBox="0 0 22 22" fill="none" xmlns="http://www.w3.org/2000/svg">
<path d="M11 22C9.52038 22.0069 8.05431 21.7179 6.688 21.15C5.38304 20.6019 4.19806 19.8036 3.2 18.8C1.14815 16.7278 0.00031775 13.9274 0.00751041 11.0113C0.0147031 8.0951 1.17633 5.30043 3.23838 3.23838C5.30043 1.17633 8.0951 0.0147031 11.0113 0.00751041C13.9274 0.00031775 16.7278 1.14815 18.8 3.2C20.3356 4.76637 21.3771 6.7495 21.7949 8.9029C22.2127 11.0563 21.9884 13.285 21.15 15.312C20.602 16.617 19.8036 17.802 18.8 18.8C16.7225 20.8516 13.9198 22.0014 11 22ZM8.3 15.1L5.4 18C7.008 19.3242 9.01725 20.0644 11.1 20.1C13.1373 20.0757 15.1082 19.3718 16.7 18.1L13.8 15.2C12.9585 15.7202 11.9893 15.9971 11 16C10.0226 16.0242 9.06743 15.7058 8.3 15.1ZM18 5.4L15.2 8.2C15.7202 9.04152 15.9971 10.0107 16 11C16.0242 11.9774 15.7058 12.9326 15.1 13.7L18 16.6C19.3178 15.0342 20.0278 13.0463 20 11C19.9758 8.96266 19.2719 6.99175 18 5.4ZM4 5.4C2.68242 6.96589 1.97248 8.95372 2 11C2.02383 13.0374 2.72777 15.0084 4 16.6L6.8 13.8C6.27947 12.9586 6.00254 11.9894 6 11C5.97545 10.0225 6.29386 9.06726 6.9 8.3L4 5.4ZM11 8C10.3206 8.01264 9.66649 8.25965 9.14834 8.69923C8.63019 9.1388 8.27985 9.74393 8.15665 10.4122C8.03345 11.0804 8.14495 11.7707 8.47227 12.3661C8.79959 12.9616 9.32263 13.4256 9.95282 13.6797C10.583 13.9338 11.2817 13.9623 11.9305 13.7604C12.5793 13.5585 13.1384 13.1386 13.5131 12.5718C13.8879 12.005 14.0552 11.3261 13.9869 10.65C13.9185 9.97398 13.6186 9.34232 13.138 8.862C12.8563 8.58413 12.5223 8.36487 12.1553 8.21691C11.7883 8.06895 11.3957 7.99522 11 8ZM11 6C11.9775 5.97545 12.9327 6.29386 13.7 6.9L16.6 4C15.0342 2.68218 13.0463 1.97221 11 2C8.95372 1.97248 6.96589 2.68242 5.4 4L8.2 6.8C9.04137 6.27947 10.0106 6.00254 11 6Z" fill="white" fill-opacity="0.6"/>
</svg>
