<svg width="40" height="40" viewBox="0 0 40 40" fill="none" xmlns="http://www.w3.org/2000/svg">
<rect width="40" height="40" rx="10" fill="#FFF1EC"/>
<path fill-rule="evenodd" clip-rule="evenodd" d="M12.4645 23.4645C13.4021 22.5268 14.6739 22 16 22H24C25.3261 22 26.5979 22.5268 27.5355 23.4645C28.4732 24.4021 29 25.6739 29 27V29C29 29.5523 28.5523 30 28 30C27.4477 30 27 29.5523 27 29V27C27 26.2044 26.6839 25.4413 26.1213 24.8787C25.5587 24.3161 24.7956 24 24 24H16C15.2044 24 14.4413 24.3161 13.8787 24.8787C13.3161 25.4413 13 26.2044 13 27V29C13 29.5523 12.5523 30 12 30C11.4477 30 11 29.5523 11 29V27C11 25.6739 11.5268 24.4021 12.4645 23.4645Z" fill="#FF9066"/>
<path fill-rule="evenodd" clip-rule="evenodd" d="M20 12C18.3431 12 17 13.3431 17 15C17 16.6569 18.3431 18 20 18C21.6569 18 23 16.6569 23 15C23 13.3431 21.6569 12 20 12ZM15 15C15 12.2386 17.2386 10 20 10C22.7614 10 25 12.2386 25 15C25 17.7614 22.7614 20 20 20C17.2386 20 15 17.7614 15 15Z" fill="#FF9066"/>
</svg>
