<svg width="22" height="22" viewBox="0 0 22 22" fill="none" xmlns="http://www.w3.org/2000/svg">
<path d="M11 22C9.55432 22.0043 8.12202 21.7226 6.78554 21.1713C5.44905 20.62 4.23474 19.8099 3.21245 18.7876C2.19017 17.7654 1.38007 16.551 0.828768 15.2146C0.277463 13.8781 -0.00417738 12.4458 4.68222e-05 11C-0.00417738 9.55432 0.277463 8.12202 0.828768 6.78554C1.38007 5.44905 2.19017 4.23474 3.21245 3.21245C4.23474 2.19017 5.44905 1.38007 6.78554 0.828768C8.12202 0.277463 9.55432 -0.00417738 11 4.68222e-05C12.4458 -0.00417738 13.8781 0.277463 15.2146 0.828768C16.551 1.38007 17.7654 2.19017 18.7876 3.21245C19.8099 4.23474 20.62 5.44905 21.1713 6.78554C21.7226 8.12202 22.0043 9.55432 22 11C22.0043 12.4458 21.7226 13.8781 21.1713 15.2146C20.62 16.551 19.8099 17.7654 18.7876 18.7876C17.7654 19.8099 16.551 20.62 15.2146 21.1713C13.8781 21.7226 12.4458 22.0043 11 22ZM11 2.00005C8.92802 2.00868 6.92299 2.73493 5.32608 4.05526C3.72917 5.37558 2.63904 7.2084 2.24117 9.24188C1.84329 11.2754 2.16225 13.3839 3.14377 15.2087C4.12529 17.0335 5.70874 18.4619 7.62471 19.2509C9.54069 20.0398 11.6708 20.1405 13.6527 19.5359C15.6346 18.9313 17.3457 17.6587 18.4951 15.9347C19.6444 14.2106 20.1609 12.1416 19.9567 10.0796C19.7525 8.01769 18.8402 6.09017 17.375 4.62505C16.5388 3.78772 15.5447 3.12458 14.4505 2.674C13.3562 2.22342 12.1834 1.99435 11 2.00005ZM11 16C10.8667 16.0077 10.7333 15.9871 10.6084 15.9396C10.4836 15.8921 10.3703 15.8187 10.2758 15.7243C10.1814 15.6298 10.108 15.5165 10.0605 15.3917C10.0129 15.2668 9.99235 15.1334 10 15V11C10 10.7348 10.1054 10.4805 10.2929 10.2929C10.4805 10.1054 10.7348 10 11 10C11.2653 10 11.5196 10.1054 11.7072 10.2929C11.8947 10.4805 12 10.7348 12 11V15C12.0077 15.1334 11.9871 15.2668 11.9396 15.3917C11.8921 15.5165 11.8187 15.6298 11.7243 15.7243C11.6298 15.8187 11.5165 15.8921 11.3917 15.9396C11.2668 15.9871 11.1334 16.0077 11 16ZM11 8.00005H10.8C10.7 8.00005 10.7 8.00005 10.6 7.90005C10.5807 7.89968 10.5617 7.895 10.5444 7.88635C10.5271 7.8777 10.5119 7.86529 10.5 7.85005C10.4881 7.8348 10.473 7.8224 10.4557 7.81375C10.4384 7.8051 10.4194 7.80042 10.4 7.80005C10.3735 7.80005 10.3481 7.78951 10.3293 7.77076C10.3106 7.752 10.3 7.72657 10.3 7.70005C10.2054 7.60966 10.1301 7.50103 10.0786 7.38072C10.0272 7.2604 10.0006 7.1309 10.0006 7.00005C10.0006 6.86919 10.0272 6.73969 10.0786 6.61938C10.1301 6.49906 10.2054 6.39043 10.3 6.30005L10.4 6.20005C10.4194 6.19961 10.4384 6.1949 10.4556 6.18625C10.4729 6.17761 10.4881 6.16524 10.5 6.15005C10.5119 6.1348 10.5271 6.1224 10.5444 6.11375C10.5617 6.1051 10.5807 6.10042 10.6 6.10005C10.7 6.10005 10.7 6.10005 10.8 6.00005C11.1259 5.99175 11.4443 6.0979 11.7 6.30005C11.7947 6.39043 11.87 6.49906 11.9215 6.61938C11.9729 6.73969 11.9994 6.86919 11.9994 7.00005C11.9994 7.1309 11.9729 7.2604 11.9215 7.38072C11.87 7.50103 11.7947 7.60966 11.7 7.70005C11.6122 7.79791 11.504 7.87545 11.3831 7.92726C11.2622 7.97907 11.1315 8.00391 11 8.00005Z" fill="white" fill-opacity="0.5"/>
</svg>
