<svg viewBox="0 0 24 24" xmlns="http://www.w3.org/2000/svg">
<path d="M23.7134 17.2911L21.2293 14.7278C22.0892 13.5886 22.5669 12.1646 22.5669 10.7405C22.5669 7.03798 19.5096 4 15.7834 4C12.0573 4 9 7.03798 9 10.7405C9 14.443 12.0573 17.481 15.7834 17.481C17.3121 17.481 18.7452 17.0063 19.7962 16.1519L22.3758 18.7152C22.5669 18.9051 22.8535 19 23.0446 19C23.2357 19 23.5223 18.9051 23.7134 18.7152C24.0955 18.2405 24.0955 17.6709 23.7134 17.2911ZM11.0064 10.7405C11.0064 8.08228 13.2038 5.89873 15.879 5.89873C18.5541 5.89873 20.7516 8.08228 20.7516 10.7405C20.7516 12.0696 20.1783 13.3038 19.3185 14.1582C18.4586 15.0127 17.2166 15.5823 15.879 15.5823C13.1083 15.5823 11.0064 13.3987 11.0064 10.7405Z" />
<path d="M16 19.1C15.9 19.6 15.5 20 15 20H3C2.4 20 2 19.6 2 19V3C2 2.4 2.4 2 3 2H10.6L12.1 3.5C12.7 3.1 13.4 2.9 14.1 2.7L11.7 0.3C11.5 0.1 11.3 0 11 0H3C1.3 0 0 1.3 0 3V19C0 20.7 1.3 22 3 22H15C16.7 22 18 20.7 18 19V18.9C17.4 19 16.8 19.1 16.2 19.1C16.1 19.1 16.1 19.1 16 19.1Z" />
<path d="M5 11C4.4 11 4 11.4 4 12C4 12.6 4.4 13 5 13H8.2C8 12.4 7.9 11.7 7.9 11H5Z" />
<path d="M9.1 15H5C4.4 15 4 15.4 4 16C4 16.6 4.4 17 5 17H10.7C10.1 16.4 9.5 15.8 9.1 15Z" />
<path d="M7 7H5C4.4 7 4 7.4 4 8C4 8.6 4.4 9 5 9H7C7.6 9 8 8.6 8 8C8 7.4 7.6 7 7 7Z" />
</svg>
