<svg width="40" height="40" viewBox="0 0 40 40" fill="none" xmlns="http://www.w3.org/2000/svg">
<rect width="40" height="40" rx="10" fill="#624DE3" fill-opacity="0.1"/>
<path d="M25.7692 28.9996H14.4308C14.1101 29.0058 13.7913 28.9465 13.4938 28.8254C13.1962 28.7043 12.9259 28.5237 12.6991 28.2945C12.4722 28.0653 12.2935 27.7923 12.1736 27.4917C12.0536 27.1911 11.995 26.8691 12.0012 26.5451V17.5584C11.994 17.4303 12.0201 17.3024 12.077 17.1876C12.1338 17.0728 12.2193 16.975 12.3251 16.9039L19.6141 11.1841C19.6742 11.1247 19.7454 11.0778 19.8235 11.0462C19.9016 11.0147 19.9851 10.999 20.0692 11.0001C20.2565 11.0039 20.4377 11.0685 20.5859 11.1841L27.8749 16.9047C27.9807 16.9758 28.0662 17.0736 28.123 17.1884C28.1799 17.3033 28.206 17.4311 28.1988 17.5592V26.5451C28.205 26.8691 28.1464 27.1911 28.0264 27.4917C27.9065 27.7923 27.7278 28.0653 27.5009 28.2945C27.2741 28.5237 27.0038 28.7043 26.7062 28.8254C26.4087 28.9465 26.0899 29.0058 25.7692 28.9996ZM17.6703 19.1923H22.5297C22.6376 19.186 22.7457 19.2028 22.8468 19.2417C22.9479 19.2806 23.0397 19.3407 23.1162 19.4179C23.1927 19.4952 23.2521 19.5879 23.2906 19.69C23.3291 19.7922 23.3458 19.9014 23.3395 20.0104V27.3632H25.7692C25.8772 27.3697 25.9853 27.3529 26.0865 27.3141C26.1876 27.2752 26.2795 27.2152 26.356 27.1379C26.4325 27.0606 26.492 26.9678 26.5304 26.8656C26.5688 26.7634 26.5854 26.6542 26.5791 26.5451V17.9667L20.1 12.8998L13.6209 17.9667V26.5451C13.6146 26.6542 13.6312 26.7634 13.6696 26.8656C13.7081 26.9678 13.7675 27.0606 13.844 27.1379C13.9205 27.2152 14.0124 27.2752 14.1135 27.3141C14.2147 27.3529 14.3228 27.3697 14.4308 27.3632H16.8605V20.008C16.8545 19.8991 16.8713 19.7901 16.9099 19.6882C16.9485 19.5863 17.008 19.4938 17.0845 19.4168C17.161 19.3398 17.2527 19.28 17.3537 19.2413C17.4546 19.2026 17.5625 19.1859 17.6703 19.1923ZM18.4802 20.8286V27.3632H21.7198V20.827L18.4802 20.8286Z" fill="#624DE3"/>
</svg>
