<svg width="24" height="15" viewBox="0 0 24 15" fill="none" xmlns="http://www.w3.org/2000/svg">
<path d="M7.31707 14.6341C11.3582 14.6341 14.6341 11.3582 14.6341 7.31707C14.6341 3.27597 11.3582 0 7.31707 0C3.27597 0 0 3.27597 0 7.31707C0 11.3582 3.27597 14.6341 7.31707 14.6341Z" fill="#EE0005"/>
<path d="M16.6828 14.6341C20.7239 14.6341 23.9999 11.3582 23.9999 7.31707C23.9999 3.27597 20.7239 0 16.6828 0C12.6417 0 9.36572 3.27597 9.36572 7.31707C9.36572 11.3582 12.6417 14.6341 16.6828 14.6341Z" fill="#F9A000"/>
<path d="M9.36572 7.31704C9.36572 9.68891 10.3951 11.8024 11.9999 13.1707C13.6046 11.8023 14.634 9.68891 14.634 7.31704C14.634 4.94516 13.6047 2.83171 11.9999 1.46338C10.3951 2.83182 9.36572 4.94522 9.36572 7.31704Z" fill="#FF6300"/>
</svg>
