<svg viewBox="0 0 24 19" fill="#000" xmlns="http://www.w3.org/2000/svg">
<path fill-rule="evenodd" clip-rule="evenodd" d="M3 1C3 0.447715 3.44772 0 4 0H20C20.5523 0 21 0.447715 21 1C21 1.55228 20.5523 2 20 2H4C3.44772 2 3 1.55228 3 1ZM16 11.0002C16 13.2093 14.2091 15.0002 12 15.0002C9.79082 15.0002 7.99996 13.2093 7.99996 11.0002C7.99996 8.79103 9.79082 7.00017 12 7.00017C14.2091 7.00017 16 8.79103 16 11.0002ZM2.8 3C1.2536 3 0 4.2536 0 5.8V16.2C0 17.7464 1.2536 19 2.8 19H21.2C22.7464 19 24 17.7464 24 16.2V5.8C24 4.2536 22.7464 3 21.2 3H2.8ZM2 5.8C2 5.35817 2.35817 5 2.8 5H21.2C21.6418 5 22 5.35817 22 5.8V16.2C22 16.6418 21.6418 17 21.2 17H2.8C2.35817 17 2 16.6418 2 16.2V5.8Z"/>
</svg>
