<svg xmlns="http://www.w3.org/2000/svg" viewBox="0 0 14 17">
  <path d="M11.479 16.104H2.696A2.156 2.156 0 01.5 13.91V2.197A2.156 2.156 0 012.696.002H7.82a.445.445 0 01.293.073c.073 0 .147.074.22.147l5.123 5.123c.03.032.055.07.073.11.018.04.043.078.073.11.058.086.084.19.074.293v8.05a2.159 2.159 0 01-2.196 2.196zM2.696 1.466a.693.693 0 00-.732.732v11.71a.693.693 0 00.732.732h8.783a.693.693 0 00.732-.732V6.59H7.819a.693.693 0 01-.731-.731V1.466H2.696zm5.855 1.025v2.635h2.635L8.551 2.49z"/>
</svg>
