<svg width="110" height="110" viewBox="0 0 110 110" fill="none" xmlns="http://www.w3.org/2000/svg">
<rect x="10" y="92.4277" width="30" height="5" rx="2.5" transform="rotate(-46 10 92.4277)" fill="#B7B8EB"/>
<rect x="32.9375" y="102.367" width="20" height="5" rx="2.5" transform="rotate(-46 32.9375 102.367)" fill="#B7B8EB"/>
<rect x="11.9629" y="106.391" width="24" height="5" rx="2.5" transform="rotate(-46 11.9629 106.391)" fill="#B7B8EB"/>
<path d="M47.642 79.8713C47.9063 79.9583 48.1811 80 48.4524 80C49.2663 80 50.0523 79.6174 50.5567 78.9392L63.9719 60.6788C64.8241 59.5171 64.5771 57.8824 63.4154 57.0302C62.2537 56.1746 60.619 56.432 59.7668 57.5868L51.061 69.4368V54.9399L45.8438 53.9138V77.3914C45.8438 78.5183 46.5672 79.5165 47.642 79.8713Z" fill="#624DE3"/>
<path d="M94.3676 0.830175L46.543 52.133L51.0611 54.9399L98.1867 4.39181C99.1675 3.33445 99.1118 1.68232 98.058 0.701484C97.0076 -0.279357 95.3485 -0.227184 94.3676 0.830175Z" fill="#B7B8EB"/>
<path d="M87.1461 69.5654C86.8609 69.5654 86.5757 69.5167 86.3044 69.4263L17.6108 45.9488C16.623 45.6079 15.9343 44.7175 15.8509 43.6775C15.7743 42.6376 16.3204 41.6498 17.2421 41.1663L95.5007 0.297941C96.3737 -0.150742 97.4276 -0.0811786 98.2206 0.485761C99.0206 1.05618 99.4345 2.02311 99.2919 2.99699L89.7269 67.3429C89.6122 68.1081 89.1635 68.7829 88.4991 69.1863C88.0887 69.4368 87.6192 69.5654 87.1461 69.5654ZM25.0471 42.9749L85.0245 63.4752L93.3755 7.29599L25.0471 42.9749Z" fill="#624DE3"/>
</svg>
