<svg width="40" height="40" viewBox="0 0 40 40" fill="none" 
  xmlns="http://www.w3.org/2000/svg">
  <rect width="40" height="40" rx="10" fill="#6FCF97" fill-opacity="0.1"/>
  <path d="M20.4158 30.9986C20.2936 31.0056 20.1713 30.9867 20.0569 30.9432C19.9425 30.8996 19.8386 30.8323 19.7521 30.7458C19.6655 30.6592 19.5982 30.5553 19.5547 30.4409C19.5111 30.3265 19.4922 30.2042 19.4993 30.082V27.3324H14.9165C14.6735 27.3324 14.4403 27.2358 14.2685 27.0639C14.0966 26.892 14 26.6589 14 26.4158C14 26.1727 14.0966 25.9396 14.2685 25.7677C14.4403 25.5958 14.6735 25.4993 14.9165 25.4993H19.4993V20.9165H18.1245C17.0306 20.9165 15.9815 20.482 15.208 19.7085C14.4345 18.935 14 17.886 14 16.7921C14 15.6982 14.4345 14.6491 15.208 13.8757C15.9815 13.1022 17.0306 12.6676 18.1245 12.6676H19.4993V9.91799C19.4922 9.79578 19.5111 9.67346 19.5547 9.55907C19.5982 9.44467 19.6655 9.34078 19.7521 9.25422C19.8386 9.16766 19.9425 9.10039 20.0569 9.05683C20.1713 9.01326 20.2936 8.99439 20.4158 9.00144C20.538 8.99439 20.6604 9.01326 20.7747 9.05683C20.8891 9.10039 20.993 9.16766 21.0796 9.25422C21.1662 9.34078 21.2334 9.44467 21.277 9.55907C21.3206 9.67346 21.3394 9.79578 21.3324 9.91799V12.6676H24.9986C25.1208 12.6606 25.2431 12.6794 25.3575 12.723C25.4719 12.7666 25.5758 12.8339 25.6623 12.9204C25.7489 13.007 25.8162 13.1109 25.8597 13.2253C25.9033 13.3396 25.9222 13.462 25.9151 13.5842C25.9222 13.7064 25.9033 13.8287 25.8597 13.9431C25.8162 14.0575 25.7489 14.1614 25.6623 14.2479C25.5758 14.3345 25.4719 14.4018 25.3575 14.4453C25.2431 14.4889 25.1208 14.5078 24.9986 14.5007H21.3324V19.0835H22.7072C23.8011 19.0835 24.8501 19.518 25.6236 20.2915C26.3971 21.065 26.8317 22.114 26.8317 23.2079C26.8317 24.3018 26.3971 25.3509 25.6236 26.1243C24.8501 26.8978 23.8011 27.3324 22.7072 27.3324H21.3324V30.082C21.3394 30.2042 21.3206 30.3265 21.277 30.4409C21.2334 30.5553 21.1662 30.6592 21.0796 30.7458C20.993 30.8323 20.8891 30.8996 20.7747 30.9432C20.6604 30.9867 20.538 31.0056 20.4158 30.9986ZM21.3324 20.9165V25.4993H22.7072C23.3149 25.4993 23.8977 25.2579 24.3274 24.8282C24.7571 24.3984 24.9986 23.8156 24.9986 23.2079C24.9986 22.6002 24.7571 22.0174 24.3274 21.5877C23.8977 21.158 23.3149 20.9165 22.7072 20.9165H21.3324ZM18.1245 14.5007C17.5168 14.5007 16.9339 14.7421 16.5042 15.1718C16.0745 15.6016 15.8331 16.1844 15.8331 16.7921C15.8331 17.3998 16.0745 17.9826 16.5042 18.4123C16.9339 18.842 17.5168 19.0835 18.1245 19.0835H19.4993V14.5007H18.1245Z" fill="#6FCF97"/>
</svg>
