<svg width="24" height="21" viewBox="0 0 24 21" fill="#000" xmlns="http://www.w3.org/2000/svg">
<path d="M22.9844 20.0004C22.8512 20.0078 22.7179 19.987 22.5932 19.9393C22.4685 19.8917 22.3553 19.8183 22.261 19.7239C22.1666 19.6295 22.0932 19.5163 22.0455 19.3916C21.9979 19.267 21.9771 19.1337 21.9844 19.0004V17.0004C22.0009 16.3379 21.791 15.6895 21.3894 15.1623C20.9879 14.6351 20.4185 14.2605 19.7754 14.1004C19.6522 14.0722 19.5366 14.0173 19.4369 13.9396C19.3372 13.8618 19.2558 13.7631 19.1985 13.6504C19.0701 13.4228 19.0255 13.1574 19.0725 12.9004C19.1548 12.6578 19.3222 12.4532 19.5438 12.3246C19.7653 12.1959 20.0259 12.1518 20.2775 12.2004C21.3694 12.4214 22.3453 13.0281 23.0267 13.9094C23.7081 14.7908 24.0495 15.888 23.9885 17.0004V19.0004C23.996 19.1341 23.9752 19.2678 23.9274 19.3928C23.8796 19.5179 23.8058 19.6314 23.711 19.7258C23.6161 19.8203 23.5023 19.8936 23.3771 19.9409C23.2519 19.9883 23.1181 20.0085 22.9844 20.0004ZM17.0604 20.0004C16.9272 20.0079 16.7938 19.9872 16.669 19.9396C16.5443 19.8921 16.431 19.8187 16.3366 19.7243C16.2422 19.6298 16.1688 19.5166 16.1212 19.3918C16.0736 19.2671 16.0529 19.1337 16.0604 19.0004V17.0004C16.0668 16.6037 15.9932 16.2097 15.844 15.842C15.6947 15.4744 15.4729 15.1406 15.1917 14.8606C14.9106 14.5805 14.5759 14.3601 14.2077 14.2123C13.8394 14.0645 13.4452 13.9924 13.0485 14.0004H5.01345C4.6167 13.9923 4.22238 14.0642 3.85406 14.212C3.48575 14.3597 3.15101 14.5802 2.86984 14.8602C2.58868 15.1403 2.36686 15.4742 2.21765 15.8419C2.06845 16.2096 1.99491 16.6036 2.00145 17.0004V19.0004C2.00899 19.1337 1.98828 19.2671 1.94069 19.3918C1.89311 19.5166 1.8197 19.6298 1.7253 19.7243C1.63089 19.8187 1.51761 19.8921 1.39287 19.9396C1.26813 19.9872 1.13475 20.0079 1.00145 20.0004C0.868193 20.0078 0.734878 19.987 0.610211 19.9393C0.485543 19.8917 0.372327 19.8183 0.277956 19.7239C0.183584 19.6295 0.110179 19.5163 0.0625337 19.3916C0.0148883 19.267 -0.0059257 19.1337 0.00145063 19.0004V17.0004C-0.00432764 16.3405 0.121721 15.6861 0.372204 15.0755C0.622687 14.465 0.992562 13.9106 1.46014 13.4449C1.92771 12.9792 2.48357 12.6115 3.09511 12.3635C3.70666 12.1154 4.36157 11.992 5.02145 12.0004H13.0535C13.7133 11.992 14.3682 12.1154 14.9798 12.3635C15.5913 12.6115 16.1472 12.9792 16.6148 13.4449C17.0823 13.9106 17.4522 14.465 17.7027 15.0755C17.9532 15.6861 18.0792 16.3405 18.0735 17.0004V19.0004C18.081 19.1347 18.0599 19.2691 18.0115 19.3947C17.9632 19.5202 17.8887 19.6341 17.793 19.7286C17.6973 19.8232 17.5826 19.8963 17.4564 19.9432C17.3303 19.99 17.1957 20.0095 17.0615 20.0004H17.0604ZM16.2605 10.0004H16.0604C15.8256 10.009 15.5954 9.93291 15.4119 9.78609C15.2284 9.63926 15.1037 9.43143 15.0605 9.2004C15.0178 9.08661 15.001 8.96472 15.0114 8.84362C15.0217 8.72253 15.059 8.60527 15.1205 8.5004C15.1856 8.37591 15.2767 8.26685 15.3877 8.18059C15.4986 8.09433 15.6267 8.03289 15.7635 8.0004C16.4212 7.83577 17.0051 7.45604 17.4223 6.92154C17.8395 6.38704 18.0661 5.72845 18.0661 5.0504C18.0661 4.37236 17.8395 3.71376 17.4223 3.17926C17.0051 2.64477 16.4212 2.26503 15.7635 2.1004C15.6402 2.07225 15.5246 2.01734 15.4249 1.93958C15.3252 1.86182 15.2438 1.7631 15.1865 1.6504C15.0556 1.42371 15.0085 1.15826 15.0535 0.900403C15.1015 0.694745 15.2142 0.50986 15.3748 0.372764C15.5355 0.235668 15.7358 0.153547 15.9465 0.138403C16.0534 0.139034 16.1593 0.160077 16.2584 0.200403C16.8805 0.337927 17.4684 0.599811 17.9867 0.970316C18.505 1.34082 18.943 1.8123 19.2745 2.3564C19.6381 2.95681 19.8785 3.62366 19.9815 4.31801C20.0845 5.01236 20.0481 5.72028 19.8745 6.4004C19.6613 7.27509 19.211 8.07401 18.573 8.70918C17.935 9.34436 17.1341 9.79117 16.2584 10.0004H16.2605ZM9.02945 10.0004C8.36957 10.0088 7.71465 9.88538 7.10311 9.63734C6.49157 9.38929 5.93571 9.02163 5.46814 8.55592C5.00056 8.09021 4.63069 7.53583 4.3802 6.92528C4.12972 6.31473 4.00367 5.66031 4.00945 5.0004C4.00367 4.3405 4.12972 3.68608 4.3802 3.07553C4.63069 2.46498 5.00056 1.91059 5.46814 1.44488C5.93571 0.979172 6.49157 0.611513 7.10311 0.363469C7.71465 0.115426 8.36957 -0.00800977 9.02945 0.00040281C9.68933 -0.00800977 10.3442 0.115426 10.9558 0.363469C11.5673 0.611513 12.1232 0.979172 12.5908 1.44488C13.0583 1.91059 13.4282 2.46498 13.6787 3.07553C13.9292 3.68608 14.0552 4.3405 14.0494 5.0004C14.0552 5.66031 13.9292 6.31473 13.6787 6.92528C13.4282 7.53583 13.0583 8.09021 12.5908 8.55592C12.1232 9.02163 11.5673 9.38929 10.9558 9.63734C10.3442 9.88538 9.68933 10.0088 9.02945 10.0004ZM9.02945 2.0004C8.34886 2.01406 7.69388 2.26243 7.17537 2.70349C6.65685 3.14455 6.30664 3.75121 6.184 4.4208C6.06136 5.0904 6.17383 5.7818 6.50237 6.378C6.8309 6.9742 7.35533 7.43859 7.98691 7.69257C8.61848 7.94655 9.31841 7.97453 9.96824 7.77178C10.6181 7.56902 11.1779 7.14798 11.553 6.57991C11.9281 6.01183 12.0954 5.33162 12.0266 4.65437C11.9578 3.97713 11.6571 3.34445 11.1755 2.8634C10.8923 2.5852 10.5569 2.36572 10.1886 2.21762C9.82033 2.06951 9.42638 1.99569 9.02945 2.0004Z"/>
</svg>
