<svg width="14" height="16" viewBox="0 0 14 16" fill="white" xmlns="http://www.w3.org/2000/svg">
<path d="M13.2211 15.5531C13.1174 15.559 13.0137 15.543 12.9166 15.5061C12.8195 15.4691 12.7314 15.412 12.658 15.3386C12.5845 15.2651 12.5274 15.177 12.4905 15.0799C12.4535 14.9829 12.4375 14.8791 12.4435 14.7754V13.2201C12.4491 12.9122 12.3926 12.6064 12.2773 12.3208C12.162 12.0352 11.9904 11.7758 11.7726 11.5581C11.5549 11.3403 11.2955 11.1687 11.0099 11.0534C10.7243 10.9381 10.4185 10.8816 10.1106 10.8872H3.88943C3.58153 10.8816 3.27566 10.9381 2.99009 11.0534C2.70452 11.1687 2.44511 11.3403 2.22736 11.5581C2.0096 11.7758 1.83797 12.0352 1.7227 12.3208C1.60744 12.6064 1.55092 12.9122 1.55651 13.2201V14.7754C1.56249 14.8791 1.54648 14.9829 1.50952 15.0799C1.47255 15.177 1.41548 15.2651 1.34204 15.3386C1.2686 15.412 1.18045 15.4691 1.08339 15.5061C0.986334 15.543 0.882553 15.559 0.778866 15.5531C0.675179 15.559 0.571398 15.543 0.474338 15.5061C0.377278 15.4691 0.289135 15.412 0.215695 15.3386C0.142254 15.2651 0.0851792 15.177 0.0482162 15.0799C0.0112533 14.9829 -0.00476133 14.8791 0.00122391 14.7754V13.2201C-0.00429296 12.708 0.0925111 12.1999 0.285958 11.7257C0.479406 11.2514 0.765601 10.8206 1.12776 10.4585C1.48992 10.0963 1.92075 9.81011 2.39498 9.61666C2.86921 9.42321 3.37729 9.32641 3.88943 9.33193H10.1106C10.6227 9.32641 11.1308 9.42321 11.605 9.61666C12.0793 9.81011 12.5101 10.0963 12.8722 10.4585C13.2344 10.8206 13.5206 11.2514 13.714 11.7257C13.9075 12.1999 14.0043 12.708 13.9988 13.2201V14.7754C14.0048 14.8791 13.9887 14.9829 13.9518 15.0799C13.9148 15.177 13.8577 15.2651 13.7843 15.3386C13.7109 15.412 13.6227 15.4691 13.5257 15.5061C13.4286 15.543 13.3248 15.559 13.2211 15.5531ZM7 7.77664C6.48786 7.78216 5.97978 7.68535 5.50555 7.49191C5.03131 7.29846 4.60048 7.01226 4.23833 6.65011C3.87617 6.28795 3.58997 5.85712 3.39653 5.38289C3.20308 4.90866 3.10627 4.40057 3.11179 3.88843C3.10627 3.37629 3.20308 2.86821 3.39653 2.39398C3.58997 1.91975 3.87617 1.48892 4.23833 1.12676C4.60048 0.7646 5.03131 0.478405 5.50555 0.284958C5.97978 0.0915104 6.48786 -0.00529367 7 0.000223202C7.51214 -0.00529367 8.02022 0.0915104 8.49446 0.284958C8.96869 0.478405 9.39952 0.7646 9.76167 1.12676C10.1238 1.48892 10.41 1.91975 10.6035 2.39398C10.7969 2.86821 10.8937 3.37629 10.8882 3.88843C10.8937 4.40057 10.7969 4.90866 10.6035 5.38289C10.41 5.85712 10.1238 6.28795 9.76167 6.65011C9.39952 7.01226 8.96869 7.29846 8.49446 7.49191C8.02022 7.68535 7.51214 7.78216 7 7.77664ZM7 1.55551C6.47166 1.56498 5.96284 1.75675 5.55966 2.09833C5.15649 2.43992 4.88375 2.91034 4.78762 3.42994C4.69149 3.94954 4.77788 4.4864 5.03215 4.94962C5.28643 5.41284 5.69297 5.77396 6.18295 5.97183C6.67292 6.1697 7.21622 6.19216 7.72086 6.03542C8.2255 5.87868 8.66047 5.55236 8.95212 5.11172C9.24377 4.67107 9.37419 4.14318 9.32129 3.61741C9.26838 3.09165 9.03541 2.60032 8.66182 2.22661C8.44294 2.01044 8.18337 1.83983 7.89812 1.72463C7.61287 1.60944 7.30761 1.55195 7 1.55551Z" />
</svg>
