<svg viewBox="0 0 19 21" xmlns="http://www.w3.org/2000/svg">
  <path d="M17.0016 20.0003C16.8682 20.008 16.7348 19.9874 16.61 19.9399C16.4852 19.8923 16.3718 19.8189 16.2774 19.7245C16.1829 19.6301 16.1095 19.5167 16.062 19.3919C16.0145 19.2671 15.9939 19.1336 16.0016 19.0003V17.0003C16.0088 16.6043 15.9361 16.211 15.7879 15.8438C15.6396 15.4766 15.4189 15.143 15.1389 14.863C14.8589 14.5829 14.5253 14.3622 14.1581 14.214C13.7908 14.0658 13.3975 13.9931 13.0016 14.0003H5.00157C4.60563 13.9931 4.2123 14.0658 3.84507 14.214C3.47785 14.3622 3.14427 14.5829 2.86424 14.863C2.58422 15.143 2.36351 15.4766 2.21529 15.8438C2.06707 16.211 1.99439 16.6043 2.00157 17.0003V19.0003C2.00927 19.1336 1.98868 19.2671 1.94114 19.3919C1.89361 19.5167 1.82022 19.6301 1.72578 19.7245C1.63134 19.8189 1.51799 19.8923 1.39318 19.9399C1.26836 19.9874 1.13491 20.008 1.00157 20.0003C0.868238 20.008 0.734783 19.9874 0.60997 19.9399C0.485157 19.8923 0.371809 19.8189 0.27737 19.7245C0.182931 19.6301 0.109535 19.5167 0.0620032 19.3919C0.014471 19.2671 -0.00612279 19.1336 0.00157388 19.0003V17.0003C-0.00552048 16.3417 0.118964 15.6883 0.367725 15.0785C0.616486 14.4687 0.984516 13.9147 1.45023 13.4489C1.91594 12.9832 2.46996 12.6152 3.0798 12.3664C3.68963 12.1177 4.34299 11.9932 5.00157 12.0003H13.0016C13.6602 11.9932 14.3135 12.1177 14.9234 12.3664C15.5332 12.6152 16.0872 12.9832 16.5529 13.4489C17.0186 13.9147 17.3867 14.4687 17.6354 15.0785C17.8842 15.6883 18.0087 16.3417 18.0016 17.0003V19.0003C18.0093 19.1336 17.9887 19.2671 17.9411 19.3919C17.8936 19.5167 17.8202 19.6301 17.7258 19.7245C17.6313 19.8189 17.518 19.8923 17.3932 19.9399C17.2684 19.9874 17.1349 20.008 17.0016 20.0003ZM9.00157 10.0003C8.34299 10.0074 7.68963 9.8829 7.0798 9.63414C6.46996 9.38538 5.91594 9.01734 5.45023 8.55163C4.98452 8.08592 4.61649 7.5319 4.36772 6.92207C4.11896 6.31223 3.99448 5.65887 4.00157 5.00029C3.99448 4.34171 4.11896 3.68834 4.36772 3.07851C4.61649 2.46868 4.98452 1.91466 5.45023 1.44894C5.91594 0.98323 6.46996 0.615199 7.0798 0.366438C7.68963 0.117677 8.34299 -0.00680733 9.00157 0.000287025C9.66015 -0.00680733 10.3135 0.117677 10.9234 0.366438C11.5332 0.615199 12.0872 0.98323 12.5529 1.44894C13.0186 1.91466 13.3867 2.46868 13.6354 3.07851C13.8842 3.68834 14.0087 4.34171 14.0016 5.00029C14.0087 5.65887 13.8842 6.31223 13.6354 6.92207C13.3867 7.5319 13.0186 8.08592 12.5529 8.55163C12.0872 9.01734 11.5332 9.38538 10.9234 9.63414C10.3135 9.8829 9.66015 10.0074 9.00157 10.0003ZM9.00157 2.00029C8.32217 2.01247 7.66784 2.25907 7.14939 2.69833C6.63093 3.13759 6.28021 3.74251 6.15659 4.41069C6.03297 5.07887 6.14406 5.76924 6.47104 6.36491C6.79803 6.96058 7.32081 7.42495 7.95089 7.6794C8.58097 7.93385 9.27962 7.96274 9.92856 7.76118C10.5775 7.55962 11.1368 7.14 11.5119 6.57336C11.8869 6.00672 12.0546 5.32788 11.9866 4.65177C11.9186 3.97567 11.619 3.34385 11.1386 2.86329C10.8571 2.58531 10.5233 2.3659 10.1565 2.21777C9.78969 2.06964 9.39714 1.99572 9.00157 2.00029Z"/>
</svg>
