<svg width="15" height="16" viewBox="0 0 15 16" fill="none" 
  xmlns="http://www.w3.org/2000/svg">
  <path d="M11.318 15.2124H3.68199C3.59715 15.2176 3.51223 15.2038 3.4328 15.1719C3.35338 15.1401 3.28125 15.091 3.22116 15.0277C3.16106 14.9645 3.11436 14.8886 3.08411 14.805C3.05387 14.7214 3.04076 14.6321 3.04566 14.5428V12.5339H2.40932C2.15735 12.5388 1.90702 12.4902 1.6733 12.391C1.43958 12.2917 1.22727 12.144 1.04907 11.9564C0.870865 11.7689 0.730422 11.5455 0.636136 11.2995C0.54185 11.0536 0.495658 10.7902 0.500321 10.525V7.17684C0.495658 6.91168 0.54185 6.64825 0.636136 6.4023C0.730422 6.15635 0.870865 5.93294 1.04907 5.74541C1.22727 5.55788 1.43958 5.41009 1.6733 5.31087C1.90702 5.21165 2.15735 5.16304 2.40932 5.16795H3.04566V1.15016C3.04076 1.06087 3.05387 0.971508 3.08411 0.88793C3.11436 0.804351 3.16106 0.72845 3.22116 0.665211C3.28125 0.601971 3.35338 0.552823 3.4328 0.520994C3.51223 0.489165 3.59715 0.475375 3.68199 0.480529H11.318C11.4029 0.475375 11.4878 0.489165 11.5672 0.520994C11.6466 0.552823 11.7187 0.601971 11.7788 0.665211C11.8389 0.72845 11.8856 0.804351 11.9159 0.88793C11.9461 0.971508 11.9592 1.06087 11.9543 1.15016V5.16795H12.5907C12.8427 5.16304 13.093 5.21165 13.3267 5.31087C13.5604 5.41009 13.7727 5.55788 13.9509 5.74541C14.1291 5.93294 14.2696 6.15635 14.3639 6.4023C14.4581 6.64825 14.5043 6.91168 14.4997 7.17684V10.525C14.5043 10.7902 14.4581 11.0536 14.3639 11.2995C14.2696 11.5455 14.1291 11.7689 13.9509 11.9564C13.7727 12.144 13.5604 12.2917 13.3267 12.391C13.093 12.4902 12.8427 12.5388 12.5907 12.5339H11.9543V14.5428C11.9592 14.6321 11.9461 14.7214 11.9159 14.805C11.8856 14.8886 11.8389 14.9645 11.7788 15.0277C11.7187 15.091 11.6466 15.1401 11.5672 15.1719C11.4878 15.2038 11.4029 15.2176 11.318 15.2124ZM4.31833 9.85536V13.8732H10.6817V9.85536H4.31833ZM3.68199 8.5161H11.318C11.4029 8.51095 11.4878 8.52474 11.5672 8.55657C11.6466 8.5884 11.7187 8.63754 11.7788 8.70078C11.8389 8.76402 11.8856 8.83992 11.9159 8.9235C11.9461 9.00708 11.9592 9.09645 11.9543 9.18573V11.1946H12.5907C12.6755 11.1998 12.7604 11.186 12.8399 11.1542C12.9193 11.1223 12.9914 11.0732 13.0515 11.0099C13.1116 10.9467 13.1583 10.8708 13.1886 10.7872C13.2188 10.7036 13.2319 10.6143 13.227 10.525V7.17684C13.2319 7.08755 13.2188 6.99819 13.1886 6.91461C13.1583 6.83103 13.1116 6.75513 13.0515 6.69189C12.9914 6.62865 12.9193 6.5795 12.8399 6.54767C12.7604 6.51585 12.6755 6.50205 12.5907 6.50721H2.40932C2.32448 6.50205 2.23956 6.51585 2.16013 6.54767C2.08071 6.5795 2.00858 6.62865 1.94849 6.69189C1.88839 6.75513 1.84169 6.83103 1.81144 6.91461C1.7812 6.99819 1.76809 7.08755 1.77299 7.17684V10.525C1.76809 10.6143 1.7812 10.7036 1.81144 10.7872C1.84169 10.8708 1.88839 10.9467 1.94849 11.0099C2.00858 11.0732 2.08071 11.1223 2.16013 11.1542C2.23956 11.186 2.32448 11.1998 2.40932 11.1946H3.04566V9.18573C3.04076 9.09645 3.05387 9.00708 3.08411 8.9235C3.11436 8.83992 3.16106 8.76402 3.22116 8.70078C3.28125 8.63754 3.35338 8.5884 3.4328 8.55657C3.51223 8.52474 3.59715 8.51095 3.68199 8.5161ZM4.31833 1.81979V5.16795H10.6817V1.81979H4.31833Z" fill="white"/>
</svg>
