<svg height="24" viewBox="0 0 24 24" width="24" fill="#000" xmlns="http://www.w3.org/2000/svg">
<path d="m4.75061 15.0034c0-.5522.44772-1 1-1h3.16532c.55228 0 1 .4478 1 1v7.6448c0 .5523-.44772 1-1 1h-3.16532c-.55228 0-1-.4477-1-1zm2 1v5.6448h1.16532v-5.6448z"/>
<path d="m3.65686 6.92209c-.09643.08398-.11975.16401-.11975.21913v6.48578c0 .0551.02332.1351.11975.2191.09839.0857.25836.1574.46096.1574h3.79824v-7.23878h-3.79824c-.2026 0-.36257.07168-.46096.15737zm-2.11975.21913c0-1.43756 1.28971-2.3765 2.58071-2.3765h4.79824c.55229 0 1 .44772 1 1v9.23878c0 .5522-.44771 1-1 1h-4.79824c-1.291 0-2.58071-.939-2.58071-2.3765z"/>
<path d="m18.8929 2c-.8666 0-1.569.70248-1.569 1.56904v13.84216c0 .8665.7024 1.569 1.569 1.569h.0008c.8665 0 1.569-.7025 1.569-1.569v-13.84216c0-.86656-.7025-1.56904-1.569-1.56904zm-3.569 1.56904c0-1.97113 1.5979-3.56904 3.569-3.56904h.0008c1.9711 0 3.569 1.59791 3.569 3.56904v13.84216c0 1.9711-1.5979 3.569-3.569 3.569h-.0008c-1.9711 0-3.569-1.5979-3.569-3.569z"/>
<path d="m17.3932 2.35302c.2062.51234-.042 1.09485-.5543 1.30107l-7.55047 3.03904c-.51234.20622-1.09485-.04195-1.30107-.55429-.20621-.51234.04195-1.09484.55429-1.30106l7.55045-3.03905c.5124-.20621 1.0949.04195 1.3011.55429z"/><path d="m8.02693 14.6115c.21649-.5081.80387-.7445 1.31196-.528l7.48731 3.1902c.5081.2165.7445.8039.528 1.312s-.8039.7445-1.312.528l-7.48729-3.1903c-.50808-.2165-.74447-.8039-.52798-1.3119z"/>
</svg>