<svg width="23" height="21" viewBox="0 0 23 21" fill="none" 
  xmlns="http://www.w3.org/2000/svg">
  <path d="M21.9038 8.44289C21.9038 8.54289 21.8038 8.54289 21.8038 8.64289C21.8038 8.66941 21.7933 8.69485 21.7746 8.7136C21.7558 8.73236 21.7304 8.74289 21.7038 8.74289L21.5038 8.94289L21.4038 9.04289H15.0908C14.9574 9.05107 14.8237 9.03081 14.6987 8.98345C14.5737 8.93609 14.4601 8.86271 14.3656 8.76817C14.271 8.67363 14.1976 8.56008 14.1503 8.43505C14.1029 8.31001 14.0827 8.17634 14.0908 8.04289C14.0827 7.90944 14.1029 7.77577 14.1503 7.65074C14.1976 7.5257 14.271 7.41216 14.3656 7.31761C14.4601 7.22307 14.5737 7.14969 14.6987 7.10233C14.8237 7.05497 14.9574 7.03471 15.0908 7.04289H18.5978L15.7918 4.45389C14.6203 3.2831 13.1167 2.50144 11.4853 2.21518C9.85395 1.92891 8.17402 2.15192 6.67385 2.85389C5.69266 3.25923 4.80954 3.86977 4.08376 4.64453C3.35797 5.4193 2.80633 6.34036 2.46585 7.34589C2.10639 8.33561 1.94672 9.38676 1.99607 10.4386C2.04541 11.4904 2.3028 12.522 2.75333 13.4737C3.20386 14.4254 3.83861 15.2783 4.62086 15.9832C5.40311 16.6881 6.31734 17.2308 7.31068 17.5802C8.30402 17.9295 9.35675 18.0784 10.408 18.0183C11.4593 17.9582 12.4882 17.6903 13.4352 17.23C14.3823 16.7698 15.2287 16.1263 15.9255 15.3369C16.6223 14.5475 17.1557 13.6278 17.4948 12.6309C17.5979 12.3931 17.788 12.2038 18.0262 12.1018C18.2644 11.9998 18.5327 11.9929 18.7758 12.0825C19.019 12.172 19.2187 12.3513 19.3338 12.5835C19.4489 12.8157 19.4707 13.0831 19.3948 13.3309C18.7098 15.2815 17.4364 16.9715 15.7502 18.1678C14.0641 19.3641 12.0483 20.0077 9.98085 20.0099C8.85226 20.0046 7.73334 19.8015 6.67485 19.4099C4.17582 18.5228 2.12977 16.6822 0.984204 14.2906C-0.161366 11.8991 -0.313222 9.15114 0.561847 6.64789C1.46993 4.15107 3.32526 2.1126 5.72584 0.974181C8.12641 -0.164243 10.8789 -0.310934 13.3868 0.565892C14.7992 1.04919 16.0719 1.87075 17.0938 2.95889L20.0038 5.75089V2.06089C20.0038 1.79568 20.1092 1.54132 20.2967 1.35379C20.4843 1.16625 20.7386 1.06089 21.0038 1.06089C21.2691 1.06089 21.5234 1.16625 21.711 1.35379C21.8985 1.54132 22.0038 1.79568 22.0038 2.06089V8.14389C22.0106 8.19804 22.0051 8.253 21.9878 8.30475C21.9705 8.35649 21.9418 8.4037 21.9038 8.44289Z" fill="#fff"/>
</svg>
