<svg width="32" height="9" viewBox="0 0 32 9" fill="none" xmlns="http://www.w3.org/2000/svg">
<path d="M7.10639 2.78909H4.92144C4.92144 2.42847 4.87901 2.18452 4.79416 2.06784C4.66688 1.88753 4.30626 1.79207 3.71229 1.79207C3.13954 1.79207 2.7577 1.84511 2.57739 1.95117C2.39708 2.05724 2.30162 2.27997 2.30162 2.6406C2.30162 2.95879 2.38647 3.17093 2.54557 3.26638C2.66224 3.34063 2.82134 3.38306 3.01226 3.39366L3.45774 3.42548C4.40172 3.48912 4.99569 3.53155 5.22903 3.55276C5.9821 3.62701 6.52303 3.82853 6.85183 4.14673C7.117 4.40129 7.2761 4.73009 7.32913 5.13314C7.36095 5.37709 7.37155 5.65286 7.37155 5.96045C7.37155 6.66048 7.30792 7.1802 7.17003 7.50901C6.92608 8.11358 6.37454 8.48481 5.52601 8.64391C5.16539 8.70755 4.62446 8.74997 3.89261 8.74997C2.66225 8.74997 1.81372 8.67573 1.32582 8.52724C0.731852 8.34692 0.33941 7.9863 0.159098 7.43476C0.0530328 7.12717 0 6.61806 0 5.90742H2.18495C2.18495 5.98166 2.18495 6.0453 2.18495 6.08773C2.18495 6.46956 2.29102 6.71351 2.51375 6.81958C2.66225 6.89383 2.84256 6.93625 3.06529 6.93625H3.87139C4.28505 6.93625 4.53961 6.91504 4.65628 6.87261C4.8578 6.79837 4.98508 6.67109 5.04872 6.49078C5.08054 6.38471 5.10175 6.24683 5.10175 6.06651C5.10175 5.68468 4.96387 5.45133 4.67749 5.36648C4.57142 5.33466 4.08352 5.29224 3.21379 5.2286C2.51375 5.17556 2.02585 5.13314 1.76069 5.0801C1.03944 4.94222 0.562147 4.66645 0.328803 4.25279C0.116672 3.89217 0.0106066 3.36184 0.0106066 2.6406C0.0106066 2.08906 0.0636393 1.65419 0.180311 1.32539C0.296984 0.996582 0.477295 0.742025 0.731852 0.57232C1.10308 0.307156 1.56977 0.158664 2.14252 0.105632C2.61982 0.0632053 3.15015 0.0419922 3.73351 0.0419922C4.65628 0.0419922 5.30328 0.095025 5.69572 0.20109C6.65031 0.455648 7.1276 1.17689 7.1276 2.35422C7.1276 2.44968 7.117 2.59817 7.10639 2.78909Z" fill="white"/>
<path d="M16.7371 8.7398V0H20.163H20.7039H21.1176C21.7221 0 22.1782 0.0530328 22.4964 0.148492C23.2177 0.371229 23.7056 0.837918 23.9495 1.53795C24.0768 1.90918 24.1404 2.46072 24.1404 3.19257C24.1404 4.08352 24.0662 4.71992 23.9283 5.10175C23.6419 5.86542 23.0692 6.3109 22.1994 6.42757C22.0934 6.44879 21.6585 6.45939 20.8842 6.47L20.4918 6.4806H19.0917V8.7398H16.7371ZM19.0917 4.45475H20.5554C21.0221 4.43354 21.3085 4.40172 21.4039 4.34869C21.5418 4.27444 21.6373 4.11534 21.6797 3.89261C21.7115 3.74411 21.7221 3.51077 21.7221 3.21379C21.7221 2.84256 21.6903 2.56679 21.6373 2.38647C21.5524 2.13192 21.3509 1.98343 21.0327 1.93039C20.9691 1.91979 20.8206 1.91979 20.5766 1.91979H19.0917V4.45475Z" fill="white"/>
<path d="M29.1575 7.23367H26.0073L25.5831 8.7398H23.1436L25.7846 0H29.3378L32 8.7398H29.6136L29.1575 7.23367ZM28.6908 5.52601L27.5877 1.73948L26.5164 5.52601H28.6908Z" fill="white"/>
<path d="M13.4917 1.23033C14.4569 1.23033 15.3266 1.67581 15.8994 2.37584L16.4085 1.28337C15.6024 0.540907 14.5311 0.0742188 13.3326 0.0742188C11.4765 0.0742188 9.89608 1.19851 9.23847 2.77889H8.25206L7.6687 4.03046H8.94149C8.93088 4.14714 8.93088 4.26381 8.93088 4.38048C8.93088 4.52897 8.94149 4.66686 8.95209 4.80474H8.3157L7.73234 6.05632H9.2809C9.94911 7.60487 11.5083 8.69735 13.3326 8.69735C14.2554 8.69735 15.1039 8.42158 15.8145 7.95489V6.41694C15.2418 7.06394 14.4145 7.47759 13.4811 7.47759C12.3992 7.47759 11.4446 6.91545 10.8825 6.06692H14.1281L14.7115 4.81535H10.4158C10.3946 4.66686 10.384 4.50776 10.384 4.34866C10.384 4.2426 10.3946 4.13653 10.3946 4.03046H15.0827L15.666 2.77889H10.8082C11.3386 1.85612 12.3356 1.23033 13.4917 1.23033Z" fill="#F3C534"/>
</svg>
