<svg width="24" height="24" viewBox="0 0 24 24" fill="none" xmlns="http://www.w3.org/2000/svg">
<path d="M12.1 24C11.7041 24.0072 11.3107 23.9345 10.9435 23.7863C10.5763 23.6381 10.2427 23.4173 9.96267 23.1373C9.68265 22.8573 9.46194 22.5237 9.31372 22.1565C9.1655 21.7893 9.09281 21.3959 9.1 21C9.1 20.587 8.992 20.4 8.7 20.3C8.58233 20.2585 8.45875 20.2362 8.334 20.234C8.25417 20.2307 8.1745 20.2437 8.09988 20.2722C8.02525 20.3008 7.95723 20.3442 7.9 20.4C7.63208 20.7018 7.30482 20.9452 6.93865 21.1149C6.57248 21.2847 6.17526 21.3771 5.77178 21.3865C5.36829 21.3959 4.96721 21.322 4.59354 21.1695C4.21988 21.017 3.88166 20.7891 3.6 20.5C3.3156 20.2291 3.08919 19.9033 2.93448 19.5424C2.77977 19.1814 2.7 18.7927 2.7 18.4C2.7 18.0073 2.77977 17.6186 2.93448 17.2576C3.08919 16.8967 3.3156 16.5709 3.6 16.3C3.71542 16.2063 3.79731 16.0776 3.83338 15.9333C3.86944 15.7891 3.85773 15.637 3.8 15.5C3.74774 15.3836 3.66372 15.2844 3.55759 15.2136C3.45145 15.1429 3.32751 15.1035 3.2 15.1H3C2.20435 15.1 1.44129 14.7839 0.87868 14.2213C0.31607 13.6587 0 12.8956 0 12.1C0 11.3044 0.31607 10.5413 0.87868 9.97868C1.44129 9.41607 2.20435 9.1 3 9.1C3.14084 9.09729 3.27875 9.05924 3.40106 8.98935C3.52336 8.91946 3.62616 8.81996 3.7 8.7C3.75935 8.57054 3.78143 8.4271 3.76377 8.28578C3.7461 8.14446 3.68939 8.01087 3.6 7.9C3.29816 7.63208 3.05478 7.30482 2.88505 6.93865C2.71532 6.57248 2.62288 6.17526 2.6135 5.77178C2.60411 5.36829 2.67799 4.96721 2.83052 4.59354C2.98304 4.21988 3.21094 3.88166 3.5 3.6C3.76138 3.31379 4.08004 3.08576 4.43528 2.9307C4.79052 2.77565 5.17441 2.69705 5.562 2.7C5.96016 2.70131 6.35411 2.78152 6.72108 2.936C7.08806 3.09048 7.42077 3.31616 7.7 3.6C7.87977 3.73626 8.09431 3.8191 8.319 3.839C8.38155 3.84033 8.44355 3.82698 8.5 3.8C8.6 3.7 8.6 3.7 8.7 3.7C8.79177 3.65306 8.86853 3.58132 8.92156 3.49294C8.97459 3.40455 9.00177 3.30306 9 3.2V3C9 2.20435 9.31607 1.44129 9.87868 0.87868C10.4413 0.31607 11.2044 0 12 0C12.7956 0 13.5587 0.31607 14.1213 0.87868C14.6839 1.44129 15 2.20435 15 3C15 3.3 15.2 3.6 15.4 3.6C15.4891 3.64352 15.5869 3.66609 15.686 3.666C15.7625 3.66702 15.8385 3.65288 15.9096 3.62439C15.9807 3.5959 16.0454 3.55362 16.1 3.5C16.389 3.21196 16.7322 2.98409 17.1098 2.82961C17.4875 2.67512 17.892 2.59708 18.3 2.6C18.6928 2.59948 19.0816 2.67901 19.4427 2.83375C19.8037 2.98849 20.1295 3.21518 20.4 3.5C20.6784 3.75443 20.9018 4.06309 21.0566 4.40702C21.2114 4.75095 21.2942 5.12289 21.3 5.5C21.3053 5.90833 21.2283 6.31355 21.0737 6.69151C20.9191 7.06947 20.69 7.41245 20.4 7.7C20.2812 7.79117 20.1968 7.91986 20.1605 8.06512C20.1242 8.21038 20.1381 8.36366 20.2 8.5C20.3 8.6 20.3 8.6 20.3 8.7C20.3469 8.79177 20.4187 8.86853 20.5071 8.92156C20.5955 8.97459 20.6969 9.00177 20.8 9H21C21.7956 9 22.5587 9.31607 23.1213 9.87868C23.6839 10.4413 24 11.2044 24 12C24 12.7956 23.6839 13.5587 23.1213 14.1213C22.5587 14.6839 21.7956 15 21 15C20.8568 14.9895 20.7137 15.0219 20.589 15.0932C20.4643 15.1644 20.3637 15.2713 20.3 15.4C20.2685 15.5174 20.2612 15.6399 20.2784 15.7602C20.2956 15.8805 20.3369 15.9961 20.4 16.1C20.7018 16.3679 20.9452 16.6952 21.1149 17.0613C21.2847 17.4275 21.3771 17.8247 21.3865 18.2282C21.3959 18.6317 21.322 19.0328 21.1695 19.4065C21.017 19.7801 20.7891 20.1183 20.5 20.4C20.2385 20.6863 19.9197 20.9144 19.5643 21.0695C19.2088 21.2246 18.8248 21.3031 18.437 21.3C18.0388 21.2988 17.6448 21.2186 17.2779 21.0642C16.9109 20.9097 16.5782 20.6839 16.299 20.4C16.2299 20.3227 16.1462 20.2599 16.0526 20.2153C15.959 20.1706 15.8575 20.1451 15.754 20.14C15.6655 20.14 15.5782 20.1605 15.499 20.2C15.3829 20.2526 15.2839 20.3368 15.2132 20.4428C15.1425 20.5489 15.1029 20.6726 15.099 20.8V21C15.1062 21.3959 15.0335 21.7893 14.8853 22.1565C14.7371 22.5237 14.5163 22.8573 14.2363 23.1373C13.9563 23.4173 13.6227 23.6381 13.2555 23.7863C12.8883 23.9345 12.4949 24.0072 12.099 24H12.1ZM8.3 18.3C8.67826 18.2597 9.06012 18.3292 9.4 18.5C9.89425 18.679 10.322 19.0048 10.6258 19.4338C10.9297 19.8628 11.0951 20.3743 11.1 20.9V21C11.1 21.2652 11.2054 21.5196 11.3929 21.7071C11.5804 21.8946 11.8348 22 12.1 22C12.3652 22 12.6196 21.8946 12.8071 21.7071C12.9946 21.5196 13.1 21.2652 13.1 21V20.8C13.1 20.2867 13.2519 19.7849 13.5367 19.3578C13.8214 18.9307 14.2262 18.5974 14.7 18.4C15.0473 18.2229 15.4312 18.1297 15.821 18.128C16.154 18.1329 16.4828 18.2038 16.7883 18.3364C17.0938 18.4691 17.37 18.661 17.601 18.901C17.6959 19.0233 17.8171 19.1227 17.9556 19.1919C18.094 19.2611 18.2462 19.2984 18.401 19.301C18.5991 19.3035 18.7934 19.2465 18.9587 19.1373C19.124 19.0281 19.2527 18.8718 19.3281 18.6886C19.4036 18.5055 19.4222 18.3038 19.3817 18.1099C19.3412 17.916 19.2434 17.7387 19.101 17.601C18.7234 17.2114 18.466 16.7213 18.3596 16.1893C18.2531 15.6573 18.3023 15.1058 18.501 14.601C18.6974 14.1266 19.0303 13.7212 19.4574 13.4362C19.8845 13.1512 20.3865 12.9994 20.9 13C21.0402 13.0179 21.1826 13.0051 21.3174 12.9626C21.4522 12.9201 21.5761 12.8488 21.6807 12.7538C21.7853 12.6587 21.868 12.5421 21.9231 12.4119C21.9782 12.2818 22.0045 12.1413 22 12C22.0077 11.8667 21.9871 11.7332 21.9396 11.6084C21.892 11.4836 21.8186 11.3702 21.7242 11.2758C21.6298 11.1814 21.5164 11.108 21.3916 11.0604C21.2668 11.0129 21.1333 10.9923 21 11H20.8C20.2865 11.0008 19.7843 10.8492 19.3571 10.5643C18.9299 10.2795 18.5968 9.87429 18.4 9.4C18.3621 9.36053 18.3335 9.31314 18.3162 9.26126C18.2989 9.20937 18.2934 9.15429 18.3 9.1C18.1459 8.63783 18.1204 8.14248 18.2261 7.66691C18.3318 7.19134 18.5647 6.75343 18.9 6.4C19.1235 6.19563 19.262 5.91472 19.288 5.613C19.2929 5.48058 19.2698 5.34861 19.2202 5.22574C19.1705 5.10287 19.0955 4.99187 19 4.9C18.9097 4.80524 18.8011 4.72981 18.6808 4.67827C18.5604 4.62673 18.4309 4.60015 18.3 4.60015C18.1691 4.60015 18.0396 4.62673 17.9192 4.67827C17.7989 4.72981 17.6903 4.80524 17.6 4.9C17.0624 5.40295 16.3571 5.68808 15.621 5.7C15.271 5.69918 14.9244 5.63129 14.6 5.5C14.1181 5.31425 13.7055 4.98378 13.419 4.55402C13.1325 4.12426 12.9861 3.61632 13 3.1C13.0179 2.95981 13.0051 2.8174 12.9626 2.68262C12.9201 2.54784 12.8488 2.42389 12.7538 2.31931C12.6587 2.21474 12.5421 2.13203 12.4119 2.07691C12.2818 2.02178 12.1413 1.99554 12 2C11.8667 1.9923 11.7332 2.0129 11.6084 2.06043C11.4836 2.10796 11.3702 2.18136 11.2758 2.2758C11.1814 2.37024 11.108 2.48358 11.0604 2.6084C11.0129 2.73321 10.9923 2.86666 11 3V3.2C11.0011 3.71354 10.8495 4.21583 10.5647 4.64312C10.2798 5.07041 9.87445 5.40346 9.4 5.6C9.36053 5.63786 9.31314 5.66647 9.26126 5.68377C9.20937 5.70106 9.15429 5.70661 9.1 5.7C8.82646 5.79042 8.5401 5.83601 8.252 5.835C7.56208 5.84281 6.8968 5.57879 6.4 5.1C6.2943 4.98317 6.16636 4.8886 6.02368 4.82181C5.88099 4.75501 5.72642 4.71734 5.569 4.711C5.44382 4.71193 5.3201 4.738 5.20518 4.78764C5.09027 4.83728 4.98649 4.9095 4.9 5C4.80537 5.09038 4.73005 5.19902 4.67859 5.31933C4.62713 5.43964 4.6006 5.56914 4.6006 5.7C4.6006 5.83086 4.62713 5.96036 4.67859 6.08067C4.73005 6.20098 4.80537 6.30962 4.9 6.4C5.27763 6.78957 5.53504 7.27969 5.64145 7.81171C5.74785 8.34374 5.69875 8.89515 5.5 9.4C5.32087 9.89417 4.99502 10.3218 4.56608 10.6256C4.13715 10.9295 3.62562 11.095 3.1 11.1H3C2.73478 11.1 2.48043 11.2054 2.29289 11.3929C2.10536 11.5804 2 11.8348 2 12.1C2 12.3652 2.10536 12.6196 2.29289 12.8071C2.48043 12.9946 2.73478 13.1 3 13.1H3.2C3.71354 13.0989 4.21583 13.2505 4.64312 13.5353C5.07041 13.8202 5.40346 14.2256 5.6 14.7C5.84167 15.1724 5.92357 15.7104 5.83341 16.2333C5.74326 16.7563 5.48591 17.2358 5.1 17.6C4.97764 17.6948 4.87816 17.816 4.80893 17.9545C4.73969 18.0929 4.70246 18.2452 4.7 18.4C4.69579 18.5315 4.72048 18.6624 4.77231 18.7833C4.82414 18.9042 4.90186 19.0123 5 19.1C5.09016 19.195 5.19872 19.2707 5.31906 19.3224C5.43941 19.3741 5.56902 19.4008 5.7 19.4008C5.83098 19.4008 5.96059 19.3741 6.08094 19.3224C6.20128 19.2707 6.30984 19.195 6.4 19.1C6.90358 18.594 7.58614 18.3066 8.3 18.3ZM12 16C11.2089 16 10.4355 15.7654 9.77772 15.3259C9.11992 14.8864 8.60723 14.2616 8.30448 13.5307C8.00173 12.7998 7.92252 11.9956 8.07686 11.2196C8.2312 10.4437 8.61216 9.73098 9.17157 9.17157C9.73098 8.61216 10.4437 8.2312 11.2196 8.07686C11.9956 7.92252 12.7998 8.00173 13.5307 8.30448C14.2616 8.60723 14.8864 9.11992 15.3259 9.77772C15.7654 10.4355 16 11.2089 16 12C16 13.0609 15.5786 14.0783 14.8284 14.8284C14.0783 15.5786 13.0609 16 12 16ZM12 10C11.6044 10 11.2178 10.1173 10.8889 10.3371C10.56 10.5568 10.3036 10.8692 10.1522 11.2346C10.0009 11.6001 9.96126 12.0022 10.0384 12.3902C10.1156 12.7781 10.3061 13.1345 10.5858 13.4142C10.8655 13.6939 11.2219 13.8844 11.6098 13.9616C11.9978 14.0387 12.3999 13.9991 12.7654 13.8478C13.1308 13.6964 13.4432 13.44 13.6629 13.1111C13.8827 12.7822 14 12.3956 14 12C14 11.4696 13.7893 10.9609 13.4142 10.5858C13.0391 10.2107 12.5304 10 12 10Z" fill="white" fill-opacity="0.6"/>
</svg>
