<svg width="22" height="23" viewBox="0 0 22 23" fill="#000" 
  xmlns="http://www.w3.org/2000/svg">
  <path d="M11 23C10.5502 22.9943 10.1068 22.892 9.70001 22.7L1.70001 18.768C1.19187 18.537 0.761173 18.1643 0.459625 17.6946C0.158076 17.2249 -0.00151344 16.6782 1.08175e-05 16.12V6.78201C-0.000885735 6.24856 0.148793 5.7257 0.431836 5.27354C0.714879 4.82138 1.11979 4.45828 1.60001 4.22601L9.60001 0.300008C10.0373 0.106214 10.5097 0.0041126 10.988 7.82803e-06C11.4425 -0.00103217 11.8912 0.101568 12.3 0.300008L20.3 4.23101C20.8043 4.4399 21.2351 4.79391 21.5378 5.24811C21.8404 5.70231 22.0013 6.2362 22 6.78201V16.12C21.995 16.6774 21.8328 17.222 21.5321 17.6913C21.2313 18.1606 20.8043 18.5355 20.3 18.773L12.3 22.705C11.8966 22.906 11.4507 23.0072 11 23ZM2.00001 7.17501V16.218C2.0107 16.3938 2.06128 16.5649 2.14791 16.7182C2.23454 16.8715 2.35495 17.0031 2.50001 17.103L10 20.74V11.107L2.00001 7.17501ZM20 7.17501L12 11.107V20.74L19.4 17.1C19.5774 17.0299 19.7295 16.9079 19.8365 16.75C19.9435 16.5922 20.0005 16.4057 20 16.215V7.17501ZM11 1.86801C10.8591 1.85416 10.7178 1.88949 10.6 1.96801L3.20001 5.60001L11 9.43601L18.8 5.60001L11.4 1.96601C11.3 1.86801 11.2 1.86801 11 1.86801Z"/>
</svg>
