<svg width="40" height="40" viewBox="0 0 40 40" fill="none" 
  xmlns="http://www.w3.org/2000/svg">
  <rect width="40" height="40" rx="10" fill="#01B0BB" fill-opacity="0.1"/>
  <path d="M19.8999 28.9986C19.7799 29.0055 19.6598 28.987 19.5475 28.9442C19.4352 28.9014 19.3332 28.8354 19.2482 28.7504C19.1632 28.6654 19.0972 28.5634 19.0544 28.4511C19.0116 28.3388 18.9931 28.2187 19 28.0987C19 27.6214 18.8104 27.1636 18.4729 26.8261C18.1354 26.4886 17.6776 26.299 17.2003 26.299H10.9013C10.7813 26.3059 10.6612 26.2874 10.5489 26.2446C10.4366 26.2019 10.3346 26.1358 10.2496 26.0508C10.1646 25.9658 10.0986 25.8639 10.0558 25.7515C10.013 25.6392 9.99449 25.5191 10.0014 25.3992V11.9013C9.99449 11.7813 10.013 11.6612 10.0558 11.5489C10.0986 11.4366 10.1646 11.3346 10.2496 11.2496C10.3346 11.1646 10.4366 11.0986 10.5489 11.0558C10.6612 11.013 10.7813 10.9945 10.9013 11.0014H16.3004C16.9978 11.0077 17.6845 11.1731 18.3083 11.485C18.9321 11.7969 19.4764 12.247 19.8999 12.8011C20.3234 12.2471 20.8678 11.797 21.4915 11.4852C22.1153 11.1733 22.8019 11.0078 23.4993 11.0014H28.8984C29.0184 10.9945 29.1385 11.013 29.2508 11.0558C29.3631 11.0986 29.4651 11.1646 29.5501 11.2496C29.6351 11.3346 29.7012 11.4366 29.7439 11.5489C29.7867 11.6612 29.8052 11.7813 29.7983 11.9013V25.3992C29.8052 25.5191 29.7867 25.6392 29.7439 25.7515C29.7012 25.8639 29.6351 25.9658 29.5501 26.0508C29.4651 26.1358 29.3631 26.2019 29.2508 26.2446C29.1385 26.2874 29.0184 26.3059 28.8984 26.299H22.5994C22.1221 26.299 21.6644 26.4886 21.3268 26.8261C20.9893 27.1636 20.7997 27.6214 20.7997 28.0987C20.8066 28.2187 20.7881 28.3388 20.7453 28.4511C20.7026 28.5634 20.6365 28.6654 20.5515 28.7504C20.4666 28.8354 20.3646 28.9014 20.2522 28.9442C20.1399 28.987 20.0198 29.0055 19.8999 28.9986ZM23.4993 12.8011C23.143 12.7947 22.7891 12.8601 22.4586 12.9935C22.1282 13.1268 21.828 13.3254 21.576 13.5774C21.324 13.8294 21.1254 14.1296 20.992 14.46C20.8587 14.7905 20.7932 15.1444 20.7997 15.5007V24.9492C21.3576 24.6642 21.9731 24.5104 22.5994 24.4993H27.9986V12.8011H23.4993ZM11.8011 12.8011V24.4993H17.2003C17.8267 24.51 18.4423 24.6639 19 24.9492V15.5007C19.0065 15.1444 18.9411 14.7905 18.8077 14.46C18.6743 14.1296 18.4757 13.8294 18.2237 13.5774C17.9717 13.3254 17.6716 13.1268 17.3411 12.9935C17.0107 12.8601 16.6567 12.7947 16.3004 12.8011H11.8011Z" fill="#01B0BB"/>
</svg>
