<svg width="18" height="20" fill="none"
  xmlns="http://www.w3.org/2000/svg">
  <path d="M15.3 20H2.7a2.63 2.63 0 01-2.5-1.68 2.7 2.7 0 01-.2-1.05V4.55A2.7 2.7 0 011.66 2c.33-.13.68-.2 1.04-.2h1.8v-.9a.87.87 0 01.55-.85A.84.84 0 015.4 0a.84.84 0 01.85.55c.04.12.06.24.05.36v.9h5.4v-.9a.9.9 0 111.8 0v.9h1.8a2.63 2.63 0 012.5 1.69c.14.33.2.69.2 1.05v12.72a2.7 2.7 0 01-1.66 2.54c-.33.13-.68.2-1.04.19zM1.8 9.1v8.17a.87.87 0 00.55.86c.11.04.23.06.35.05h12.6a.84.84 0 00.85-.55.87.87 0 00.05-.36V9.1H1.8zm.9-5.46a.84.84 0 00-.85.55.87.87 0 00-.05.36v2.72h14.4V4.55a.87.87 0 00-.55-.86.84.84 0 00-.35-.05h-1.8v.9a.9.9 0 11-1.8 0v-.9H6.3v.9a.87.87 0 01-.55.86.84.84 0 01-.35.06.84.84 0 01-.85-.56.87.87 0 01-.05-.35v-.91H2.7z" />
</svg>
