<svg width="30" height="10" viewBox="0 0 30 10" fill="none" xmlns="http://www.w3.org/2000/svg">
<path d="M8.83856 0.172662L6.31823 6.09712L5.29617 1.05755C5.18002 0.496403 4.70383 0.172662 4.18118 0.172662H0.058072L0 0.420863C0.847851 0.593525 1.81185 0.874101 2.39257 1.16547C2.75261 1.34892 2.84553 1.5 2.97329 1.93165L4.90128 8.88129H7.46806L11.3937 0.172662H8.83856ZM12.4274 0.172662L10.4181 8.8705H12.8455L14.8548 0.16187H12.4274V0.172662ZM26.3298 2.52518L27.0616 5.79496H25.0523L26.3298 2.52518ZM25.9698 0.172662C25.5052 0.172662 25.1103 0.420863 24.9361 0.809353L21.3008 8.88129H23.8444L24.3554 7.57554H27.4681L27.7584 8.88129H30L28.0372 0.172662H25.9698ZM15.5168 2.89209C15.5052 4.14389 16.7247 4.84532 17.6423 5.26619C18.583 5.69784 18.9082 5.96763 18.8966 6.34532C18.885 6.92806 18.1417 7.18705 17.4448 7.19784C16.2253 7.21942 15.5168 6.89568 14.9594 6.64748L14.518 8.54676C15.0871 8.78417 16.1324 9 17.2125 9.01079C19.7561 9.01079 21.4286 7.84532 21.4286 6.03237C21.4402 3.73381 18.0139 3.60432 18.0372 2.57914C18.0488 2.26619 18.3624 1.93165 19.0708 1.84532C19.4193 1.80216 20.3717 1.76978 21.4634 2.23381L21.8931 0.388489C21.3124 0.194245 20.5575 0 19.6283 0C17.2125 0.0107914 15.5285 1.19784 15.5168 2.89209Z" fill="url(#paint0_linear)"/>
<defs>
<linearGradient id="paint0_linear" x1="0" y1="9.01079" x2="31" y2="9.01079" gradientUnits="userSpaceOnUse">
<stop stop-color="#241F5D"/>
<stop offset="1" stop-color="#034EA1"/>
</linearGradient>
</defs>
</svg>
